  0
SECTION
  2
HEADER
  9
$ANGBASE
  50
0.0
  9
$ANGDIR
  70
1
  9
$MEASUREMENT
  70
0
  0
ENDSEC
  0
SECTION
  2
TABLES
  0
TABLE
  2
LTYPE
  70
4
  0
LTYPE
  5
40F
  2
CONTINUOUS
  70
0
  3
Solid line
  72
65
  73
0
  40
0.0
  0
LTYPE
  5
410
  2
DASHDOT
 70
0
  3
Dash Dot ____ _ ____ _
 72
65
 73
4
 40
2.0
 49
1.25
 49
-0.25
 49
0.25
 49
-0.25
  0
LTYPE
  5
411
  2
DASHED
 70
0
  3
Dashed __ __ __ __ __
 72
65
 73
2
 40
0.75
 49
0.5
 49
-0.25
  0
LTYPE
  5
43B
  2
DOTTED
 70
0
  3
Dotted .  .  .  .
 72
65
 73
2
 40
0.2
 49
0.0
 49
-0.2
  0
ENDTAB
  0
TABLE
  2
STYLE
  70
4
  0
STYLE
  2
KICAD
  70
0
  40
0
  41
1
  42
1
  50
0
  71
0
  3
isocp.shx
  0
STYLE
  2
KICADB
  70
0
  40
0
  41
1
  42
1
  50
0
  71
0
  3
isocp.shx
  0
STYLE
  2
KICADI
  70
0
  40
0
  41
1
  42
1
  50
15
  71
0
  3
isocp.shx
  0
STYLE
  2
KICADBI
  70
0
  40
0
  41
1
  42
1
  50
15
  71
0
  3
isocp.shx
  0
ENDTAB
  0
TABLE
  2
LAYER
  70
1
  0
LAYER
  2
BLACK
  70
0
  62
7
  6
CONTINUOUS
  0
ENDTAB
  0
ENDSEC
  0
SECTION
  2
ENTITIES
0
LINE
8
BLACK
6
CONTINUOUS
10
4.60698
20
-2.90527
11
4.60767
21
-2.90694
0
LINE
8
BLACK
6
CONTINUOUS
10
4.60767
20
-2.90694
11
4.60698
21
-2.90861
0
LINE
8
BLACK
6
CONTINUOUS
10
4.60698
20
-2.90861
11
4.60531
21
-2.9093
0
LINE
8
BLACK
6
CONTINUOUS
10
4.60531
20
-2.9093
11
4.58743
21
-2.9093
0
LINE
8
BLACK
6
CONTINUOUS
10
4.58743
20
-2.9093
11
4.58576
21
-2.90861
0
LINE
8
BLACK
6
CONTINUOUS
10
4.58576
20
-2.90861
11
4.58507
21
-2.90694
0
LINE
8
BLACK
6
CONTINUOUS
10
4.58507
20
-2.90694
11
4.58576
21
-2.90527
0
LINE
8
BLACK
6
CONTINUOUS
10
4.58576
20
-2.90527
11
4.58743
21
-2.90457
0
LINE
8
BLACK
6
CONTINUOUS
10
4.58743
20
-2.90457
11
4.60531
21
-2.90457
0
LINE
8
BLACK
6
CONTINUOUS
10
4.60531
20
-2.90457
11
4.60698
21
-2.90527
0
LINE
8
BLACK
6
CONTINUOUS
10
4.39546
20
-2.84881
11
4.39554
21
-2.84886
0
LINE
8
BLACK
6
CONTINUOUS
10
4.39554
20
-2.84886
11
4.39563
21
-2.84887
0
LINE
8
BLACK
6
CONTINUOUS
10
4.39563
20
-2.84887
11
4.40277
21
-2.85125
0
LINE
8
BLACK
6
CONTINUOUS
10
4.40277
20
-2.85125
11
4.40404
21
-2.85189
0
LINE
8
BLACK
6
CONTINUOUS
10
4.40404
20
-2.85189
11
4.40433
21
-2.85224
0
LINE
8
BLACK
6
CONTINUOUS
10
4.40433
20
-2.85224
11
4.40473
21
-2.85246
0
LINE
8
BLACK
6
CONTINUOUS
10
4.40473
20
-2.85246
11
4.40711
21
-2.85484
0
LINE
8
BLACK
6
CONTINUOUS
10
4.40711
20
-2.85484
11
4.40796
21
-2.85598
0
LINE
8
BLACK
6
CONTINUOUS
10
4.40796
20
-2.85598
11
4.40856
21
-2.85873
0
LINE
8
BLACK
6
CONTINUOUS
10
4.40856
20
-2.85873
11
4.40757
21
-2.86137
0
LINE
8
BLACK
6
CONTINUOUS
10
4.40757
20
-2.86137
11
4.40532
21
-2.86306
0
LINE
8
BLACK
6
CONTINUOUS
10
4.40532
20
-2.86306
11
4.40251
21
-2.86326
0
LINE
8
BLACK
6
CONTINUOUS
10
4.40251
20
-2.86326
11
4.40004
21
-2.86191
0
LINE
8
BLACK
6
CONTINUOUS
10
4.40004
20
-2.86191
11
4.39849
21
-2.86036
0
LINE
8
BLACK
6
CONTINUOUS
10
4.39849
20
-2.86036
11
4.39324
21
-2.85861
0
LINE
8
BLACK
6
CONTINUOUS
10
4.39324
20
-2.85861
11
4.3901
21
-2.85861
0
LINE
8
BLACK
6
CONTINUOUS
10
4.3901
20
-2.85861
11
4.38484
21
-2.86036
0
LINE
8
BLACK
6
CONTINUOUS
10
4.38484
20
-2.86036
11
4.38149
21
-2.86372
0
LINE
8
BLACK
6
CONTINUOUS
10
4.38149
20
-2.86372
11
4.37972
21
-2.86726
0
LINE
8
BLACK
6
CONTINUOUS
10
4.37972
20
-2.86726
11
4.37762
21
-2.87565
0
LINE
8
BLACK
6
CONTINUOUS
10
4.37762
20
-2.87565
11
4.37762
21
-2.88157
0
LINE
8
BLACK
6
CONTINUOUS
10
4.37762
20
-2.88157
11
4.37972
21
-2.88996
0
LINE
8
BLACK
6
CONTINUOUS
10
4.37972
20
-2.88996
11
4.38149
21
-2.89351
0
LINE
8
BLACK
6
CONTINUOUS
10
4.38149
20
-2.89351
11
4.38484
21
-2.89686
0
LINE
8
BLACK
6
CONTINUOUS
10
4.38484
20
-2.89686
11
4.3901
21
-2.89861
0
LINE
8
BLACK
6
CONTINUOUS
10
4.3901
20
-2.89861
11
4.39324
21
-2.89861
0
LINE
8
BLACK
6
CONTINUOUS
10
4.39324
20
-2.89861
11
4.39849
21
-2.89686
0
LINE
8
BLACK
6
CONTINUOUS
10
4.39849
20
-2.89686
11
4.40004
21
-2.89531
0
LINE
8
BLACK
6
CONTINUOUS
10
4.40004
20
-2.89531
11
4.40118
21
-2.89446
0
LINE
8
BLACK
6
CONTINUOUS
10
4.40118
20
-2.89446
11
4.40393
21
-2.89386
0
LINE
8
BLACK
6
CONTINUOUS
10
4.40393
20
-2.89386
11
4.40657
21
-2.89485
0
LINE
8
BLACK
6
CONTINUOUS
10
4.40657
20
-2.89485
11
4.40826
21
-2.8971
0
LINE
8
BLACK
6
CONTINUOUS
10
4.40826
20
-2.8971
11
4.40846
21
-2.89991
0
LINE
8
BLACK
6
CONTINUOUS
10
4.40846
20
-2.89991
11
4.40711
21
-2.90238
0
LINE
8
BLACK
6
CONTINUOUS
10
4.40711
20
-2.90238
11
4.40473
21
-2.90477
0
LINE
8
BLACK
6
CONTINUOUS
10
4.40473
20
-2.90477
11
4.40359
21
-2.90562
0
LINE
8
BLACK
6
CONTINUOUS
10
4.40359
20
-2.90562
11
4.40314
21
-2.90571
0
LINE
8
BLACK
6
CONTINUOUS
10
4.40314
20
-2.90571
11
4.40277
21
-2.90597
0
LINE
8
BLACK
6
CONTINUOUS
10
4.40277
20
-2.90597
11
4.39563
21
-2.90835
0
LINE
8
BLACK
6
CONTINUOUS
10
4.39563
20
-2.90835
11
4.39423
21
-2.90861
0
LINE
8
BLACK
6
CONTINUOUS
10
4.39423
20
-2.90861
11
4.39414
21
-2.90858
0
LINE
8
BLACK
6
CONTINUOUS
10
4.39414
20
-2.90858
11
4.39405
21
-2.90861
0
LINE
8
BLACK
6
CONTINUOUS
10
4.39405
20
-2.90861
11
4.38929
21
-2.90861
0
LINE
8
BLACK
6
CONTINUOUS
10
4.38929
20
-2.90861
11
4.38788
21
-2.90841
0
LINE
8
BLACK
6
CONTINUOUS
10
4.38788
20
-2.90841
11
4.3878
21
-2.90836
0
LINE
8
BLACK
6
CONTINUOUS
10
4.3878
20
-2.90836
11
4.3877
21
-2.90835
0
LINE
8
BLACK
6
CONTINUOUS
10
4.3877
20
-2.90835
11
4.38056
21
-2.90597
0
LINE
8
BLACK
6
CONTINUOUS
10
4.38056
20
-2.90597
11
4.37929
21
-2.90534
0
LINE
8
BLACK
6
CONTINUOUS
10
4.37929
20
-2.90534
11
4.37901
21
-2.90498
0
LINE
8
BLACK
6
CONTINUOUS
10
4.37901
20
-2.90498
11
4.37861
21
-2.90477
0
LINE
8
BLACK
6
CONTINUOUS
10
4.37861
20
-2.90477
11
4.37385
21
-2.9
0
LINE
8
BLACK
6
CONTINUOUS
10
4.37385
20
-2.9
11
4.37299
21
-2.89886
0
LINE
8
BLACK
6
CONTINUOUS
10
4.37299
20
-2.89886
11
4.37297
21
-2.89877
0
LINE
8
BLACK
6
CONTINUOUS
10
4.37297
20
-2.89877
11
4.37291
21
-2.8987
0
LINE
8
BLACK
6
CONTINUOUS
10
4.37291
20
-2.8987
11
4.37053
21
-2.89394
0
LINE
8
BLACK
6
CONTINUOUS
10
4.37053
20
-2.89394
11
4.37024
21
-2.89307
0
LINE
8
BLACK
6
CONTINUOUS
10
4.37024
20
-2.89307
11
4.37015
21
-2.89292
0
LINE
8
BLACK
6
CONTINUOUS
10
4.37015
20
-2.89292
11
4.36777
21
-2.8834
0
LINE
8
BLACK
6
CONTINUOUS
10
4.36777
20
-2.8834
11
4.36766
21
-2.88231
0
LINE
8
BLACK
6
CONTINUOUS
10
4.36766
20
-2.88231
11
4.36762
21
-2.88218
0
LINE
8
BLACK
6
CONTINUOUS
10
4.36762
20
-2.88218
11
4.36762
21
-2.87504
0
LINE
8
BLACK
6
CONTINUOUS
10
4.36762
20
-2.87504
11
4.36777
21
-2.87396
0
LINE
8
BLACK
6
CONTINUOUS
10
4.36777
20
-2.87396
11
4.36777
21
-2.87383
0
LINE
8
BLACK
6
CONTINUOUS
10
4.36777
20
-2.87383
11
4.37015
21
-2.8643
0
LINE
8
BLACK
6
CONTINUOUS
10
4.37015
20
-2.8643
11
4.3705
21
-2.86345
0
LINE
8
BLACK
6
CONTINUOUS
10
4.3705
20
-2.86345
11
4.37053
21
-2.86328
0
LINE
8
BLACK
6
CONTINUOUS
10
4.37053
20
-2.86328
11
4.37291
21
-2.85852
0
LINE
8
BLACK
6
CONTINUOUS
10
4.37291
20
-2.85852
11
4.37372
21
-2.85735
0
LINE
8
BLACK
6
CONTINUOUS
10
4.37372
20
-2.85735
11
4.3738
21
-2.8573
0
LINE
8
BLACK
6
CONTINUOUS
10
4.3738
20
-2.8573
11
4.37385
21
-2.85722
0
LINE
8
BLACK
6
CONTINUOUS
10
4.37385
20
-2.85722
11
4.37861
21
-2.85246
0
LINE
8
BLACK
6
CONTINUOUS
10
4.37861
20
-2.85246
11
4.37975
21
-2.8516
0
LINE
8
BLACK
6
CONTINUOUS
10
4.37975
20
-2.8516
11
4.38019
21
-2.85151
0
LINE
8
BLACK
6
CONTINUOUS
10
4.38019
20
-2.85151
11
4.38056
21
-2.85125
0
LINE
8
BLACK
6
CONTINUOUS
10
4.38056
20
-2.85125
11
4.3877
21
-2.84887
0
LINE
8
BLACK
6
CONTINUOUS
10
4.3877
20
-2.84887
11
4.3891
21
-2.84861
0
LINE
8
BLACK
6
CONTINUOUS
10
4.3891
20
-2.84861
11
4.3892
21
-2.84864
0
LINE
8
BLACK
6
CONTINUOUS
10
4.3892
20
-2.84864
11
4.38929
21
-2.84861
0
LINE
8
BLACK
6
CONTINUOUS
10
4.38929
20
-2.84861
11
4.39405
21
-2.84861
0
LINE
8
BLACK
6
CONTINUOUS
10
4.39405
20
-2.84861
11
4.39546
21
-2.84881
0
LINE
8
BLACK
6
CONTINUOUS
10
4.43763
20
-2.84887
11
4.43898
21
-2.84906
0
LINE
8
BLACK
6
CONTINUOUS
10
4.43898
20
-2.84906
11
4.43901
21
-2.84909
0
LINE
8
BLACK
6
CONTINUOUS
10
4.43901
20
-2.84909
11
4.43906
21
-2.8491
0
LINE
8
BLACK
6
CONTINUOUS
10
4.43906
20
-2.8491
11
4.44008
21
-2.85001
0
LINE
8
BLACK
6
CONTINUOUS
10
4.44008
20
-2.85001
11
4.44111
21
-2.85091
0
LINE
8
BLACK
6
CONTINUOUS
10
4.44111
20
-2.85091
11
4.44112
21
-2.85095
0
LINE
8
BLACK
6
CONTINUOUS
10
4.44112
20
-2.85095
11
4.44116
21
-2.85098
0
LINE
8
BLACK
6
CONTINUOUS
10
4.44116
20
-2.85098
11
4.44152
21
-2.8523
0
LINE
8
BLACK
6
CONTINUOUS
10
4.44152
20
-2.8523
11
4.4419
21
-2.85361
0
LINE
8
BLACK
6
CONTINUOUS
10
4.4419
20
-2.85361
11
4.4419
21
-2.89861
0
LINE
8
BLACK
6
CONTINUOUS
10
4.4419
20
-2.89861
11
4.45119
21
-2.89861
0
LINE
8
BLACK
6
CONTINUOUS
10
4.45119
20
-2.89861
11
4.4526
21
-2.89881
0
LINE
8
BLACK
6
CONTINUOUS
10
4.4526
20
-2.89881
11
4.45497
21
-2.90034
0
LINE
8
BLACK
6
CONTINUOUS
10
4.45497
20
-2.90034
11
4.45614
21
-2.9029
0
LINE
8
BLACK
6
CONTINUOUS
10
4.45614
20
-2.9029
11
4.45574
21
-2.90569
0
LINE
8
BLACK
6
CONTINUOUS
10
4.45574
20
-2.90569
11
4.45389
21
-2.90782
0
LINE
8
BLACK
6
CONTINUOUS
10
4.45389
20
-2.90782
11
4.45119
21
-2.90861
0
LINE
8
BLACK
6
CONTINUOUS
10
4.45119
20
-2.90861
11
4.42262
21
-2.90861
0
LINE
8
BLACK
6
CONTINUOUS
10
4.42262
20
-2.90861
11
4.42121
21
-2.90841
0
LINE
8
BLACK
6
CONTINUOUS
10
4.42121
20
-2.90841
11
4.41884
21
-2.90689
0
LINE
8
BLACK
6
CONTINUOUS
10
4.41884
20
-2.90689
11
4.41767
21
-2.90432
0
LINE
8
BLACK
6
CONTINUOUS
10
4.41767
20
-2.90432
11
4.41807
21
-2.90153
0
LINE
8
BLACK
6
CONTINUOUS
10
4.41807
20
-2.90153
11
4.41992
21
-2.8994
0
LINE
8
BLACK
6
CONTINUOUS
10
4.41992
20
-2.8994
11
4.42262
21
-2.89861
0
LINE
8
BLACK
6
CONTINUOUS
10
4.42262
20
-2.89861
11
4.4319
21
-2.89861
0
LINE
8
BLACK
6
CONTINUOUS
10
4.4319
20
-2.89861
11
4.4319
21
-2.86806
0
LINE
8
BLACK
6
CONTINUOUS
10
4.4319
20
-2.86806
11
4.43092
21
-2.86905
0
LINE
8
BLACK
6
CONTINUOUS
10
4.43092
20
-2.86905
11
4.42978
21
-2.8699
0
LINE
8
BLACK
6
CONTINUOUS
10
4.42978
20
-2.8699
11
4.42969
21
-2.86992
0
LINE
8
BLACK
6
CONTINUOUS
10
4.42969
20
-2.86992
11
4.42962
21
-2.86999
0
LINE
8
BLACK
6
CONTINUOUS
10
4.42962
20
-2.86999
11
4.42486
21
-2.87237
0
LINE
8
BLACK
6
CONTINUOUS
10
4.42486
20
-2.87237
11
4.4235
21
-2.87282
0
LINE
8
BLACK
6
CONTINUOUS
10
4.4235
20
-2.87282
11
4.4207
21
-2.87252
0
LINE
8
BLACK
6
CONTINUOUS
10
4.4207
20
-2.87252
11
4.41851
21
-2.87075
0
LINE
8
BLACK
6
CONTINUOUS
10
4.41851
20
-2.87075
11
4.41762
21
-2.86807
0
LINE
8
BLACK
6
CONTINUOUS
10
4.41762
20
-2.86807
11
4.41832
21
-2.86534
0
LINE
8
BLACK
6
CONTINUOUS
10
4.41832
20
-2.86534
11
4.42038
21
-2.86342
0
LINE
8
BLACK
6
CONTINUOUS
10
4.42038
20
-2.86342
11
4.42442
21
-2.86141
0
LINE
8
BLACK
6
CONTINUOUS
10
4.42442
20
-2.86141
11
4.42826
21
-2.85757
0
LINE
8
BLACK
6
CONTINUOUS
10
4.42826
20
-2.85757
11
4.43274
21
-2.85084
0
LINE
8
BLACK
6
CONTINUOUS
10
4.43274
20
-2.85084
11
4.43359
21
-2.84989
0
LINE
8
BLACK
6
CONTINUOUS
10
4.43359
20
-2.84989
11
4.43363
21
-2.84983
0
LINE
8
BLACK
6
CONTINUOUS
10
4.43363
20
-2.84983
11
4.43366
21
-2.84982
0
LINE
8
BLACK
6
CONTINUOUS
10
4.43366
20
-2.84982
11
4.43369
21
-2.84978
0
LINE
8
BLACK
6
CONTINUOUS
10
4.43369
20
-2.84978
11
4.43495
21
-2.84923
0
LINE
8
BLACK
6
CONTINUOUS
10
4.43495
20
-2.84923
11
4.43619
21
-2.84866
0
LINE
8
BLACK
6
CONTINUOUS
10
4.43619
20
-2.84866
11
4.43624
21
-2.84867
0
LINE
8
BLACK
6
CONTINUOUS
10
4.43624
20
-2.84867
11
4.43628
21
-2.84865
0
LINE
8
BLACK
6
CONTINUOUS
10
4.43628
20
-2.84865
11
4.43763
21
-2.84887
0
LINE
8
BLACK
6
CONTINUOUS
10
4.35327
20
-2.84906
11
4.3554
21
-2.85091
0
LINE
8
BLACK
6
CONTINUOUS
10
4.3554
20
-2.85091
11
4.35619
21
-2.85361
0
LINE
8
BLACK
6
CONTINUOUS
10
4.35619
20
-2.85361
11
4.35619
21
-2.90361
0
LINE
8
BLACK
6
CONTINUOUS
10
4.35619
20
-2.90361
11
4.35599
21
-2.90502
0
LINE
8
BLACK
6
CONTINUOUS
10
4.35599
20
-2.90502
11
4.35446
21
-2.90739
0
LINE
8
BLACK
6
CONTINUOUS
10
4.35446
20
-2.90739
11
4.3519
21
-2.90856
0
LINE
8
BLACK
6
CONTINUOUS
10
4.3519
20
-2.90856
11
4.34911
21
-2.90816
0
LINE
8
BLACK
6
CONTINUOUS
10
4.34911
20
-2.90816
11
4.34698
21
-2.90631
0
LINE
8
BLACK
6
CONTINUOUS
10
4.34698
20
-2.90631
11
4.34619
21
-2.90361
0
LINE
8
BLACK
6
CONTINUOUS
10
4.34619
20
-2.90361
11
4.34619
21
-2.85361
0
LINE
8
BLACK
6
CONTINUOUS
10
4.34619
20
-2.85361
11
4.34639
21
-2.8522
0
LINE
8
BLACK
6
CONTINUOUS
10
4.34639
20
-2.8522
11
4.34792
21
-2.84983
0
LINE
8
BLACK
6
CONTINUOUS
10
4.34792
20
-2.84983
11
4.35048
21
-2.84866
0
LINE
8
BLACK
6
CONTINUOUS
10
4.35048
20
-2.84866
11
4.35327
21
-2.84906
0
LINE
8
BLACK
6
CONTINUOUS
10
4.73437
20
-2.85366
11
4.73451
21
-2.85364
0
LINE
8
BLACK
6
CONTINUOUS
10
4.73451
20
-2.85364
11
4.73461
21
-2.8537
0
LINE
8
BLACK
6
CONTINUOUS
10
4.73461
20
-2.8537
11
4.73494
21
-2.85376
0
LINE
8
BLACK
6
CONTINUOUS
10
4.73494
20
-2.85376
11
4.73555
21
-2.85427
0
LINE
8
BLACK
6
CONTINUOUS
10
4.73555
20
-2.85427
11
4.73623
21
-2.85469
0
LINE
8
BLACK
6
CONTINUOUS
10
4.73623
20
-2.85469
11
4.73631
21
-2.85491
0
LINE
8
BLACK
6
CONTINUOUS
10
4.73631
20
-2.85491
11
4.73649
21
-2.85506
0
LINE
8
BLACK
6
CONTINUOUS
10
4.73649
20
-2.85506
11
4.73663
21
-2.85584
0
LINE
8
BLACK
6
CONTINUOUS
10
4.73663
20
-2.85584
11
4.73689
21
-2.8566
0
LINE
8
BLACK
6
CONTINUOUS
10
4.73689
20
-2.8566
11
4.7368
21
-2.85682
0
LINE
8
BLACK
6
CONTINUOUS
10
4.7368
20
-2.85682
11
4.73684
21
-2.85705
0
LINE
8
BLACK
6
CONTINUOUS
10
4.73684
20
-2.85705
11
4.73644
21
-2.85774
0
LINE
8
BLACK
6
CONTINUOUS
10
4.73644
20
-2.85774
11
4.73616
21
-2.85848
0
LINE
8
BLACK
6
CONTINUOUS
10
4.73616
20
-2.85848
11
4.7272
21
-2.86872
0
LINE
8
BLACK
6
CONTINUOUS
10
4.7272
20
-2.86872
11
4.72744
21
-2.86876
0
LINE
8
BLACK
6
CONTINUOUS
10
4.72744
20
-2.86876
11
4.72758
21
-2.86887
0
LINE
8
BLACK
6
CONTINUOUS
10
4.72758
20
-2.86887
11
4.72776
21
-2.86889
0
LINE
8
BLACK
6
CONTINUOUS
10
4.72776
20
-2.86889
11
4.7315
21
-2.87077
0
LINE
8
BLACK
6
CONTINUOUS
10
4.7315
20
-2.87077
11
4.73221
21
-2.87129
0
LINE
8
BLACK
6
CONTINUOUS
10
4.73221
20
-2.87129
11
4.73227
21
-2.87132
0
LINE
8
BLACK
6
CONTINUOUS
10
4.73227
20
-2.87132
11
4.73415
21
-2.8732
0
LINE
8
BLACK
6
CONTINUOUS
10
4.73415
20
-2.8732
11
4.73465
21
-2.87392
0
LINE
8
BLACK
6
CONTINUOUS
10
4.73465
20
-2.87392
11
4.7347
21
-2.87396
0
LINE
8
BLACK
6
CONTINUOUS
10
4.7347
20
-2.87396
11
4.73657
21
-2.87771
0
LINE
8
BLACK
6
CONTINUOUS
10
4.73657
20
-2.87771
11
4.73687
21
-2.8787
0
LINE
8
BLACK
6
CONTINUOUS
10
4.73687
20
-2.8787
11
4.73683
21
-2.87887
0
LINE
8
BLACK
6
CONTINUOUS
10
4.73683
20
-2.87887
11
4.73689
21
-2.87903
0
LINE
8
BLACK
6
CONTINUOUS
10
4.73689
20
-2.87903
11
4.73689
21
-2.88841
0
LINE
8
BLACK
6
CONTINUOUS
10
4.73689
20
-2.88841
11
4.73671
21
-2.88942
0
LINE
8
BLACK
6
CONTINUOUS
10
4.73671
20
-2.88942
11
4.73659
21
-2.88955
0
LINE
8
BLACK
6
CONTINUOUS
10
4.73659
20
-2.88955
11
4.73657
21
-2.88973
0
LINE
8
BLACK
6
CONTINUOUS
10
4.73657
20
-2.88973
11
4.7347
21
-2.89348
0
LINE
8
BLACK
6
CONTINUOUS
10
4.7347
20
-2.89348
11
4.73417
21
-2.89419
0
LINE
8
BLACK
6
CONTINUOUS
10
4.73417
20
-2.89419
11
4.73415
21
-2.89424
0
LINE
8
BLACK
6
CONTINUOUS
10
4.73415
20
-2.89424
11
4.73227
21
-2.89612
0
LINE
8
BLACK
6
CONTINUOUS
10
4.73227
20
-2.89612
11
4.73155
21
-2.89663
0
LINE
8
BLACK
6
CONTINUOUS
10
4.73155
20
-2.89663
11
4.7315
21
-2.89667
0
LINE
8
BLACK
6
CONTINUOUS
10
4.7315
20
-2.89667
11
4.72776
21
-2.89855
0
LINE
8
BLACK
6
CONTINUOUS
10
4.72776
20
-2.89855
11
4.72677
21
-2.89884
0
LINE
8
BLACK
6
CONTINUOUS
10
4.72677
20
-2.89884
11
4.7266
21
-2.8988
0
LINE
8
BLACK
6
CONTINUOUS
10
4.7266
20
-2.8988
11
4.72643
21
-2.89886
0
LINE
8
BLACK
6
CONTINUOUS
10
4.72643
20
-2.89886
11
4.71519
21
-2.89886
0
LINE
8
BLACK
6
CONTINUOUS
10
4.71519
20
-2.89886
11
4.71418
21
-2.89868
0
LINE
8
BLACK
6
CONTINUOUS
10
4.71418
20
-2.89868
11
4.71404
21
-2.89857
0
LINE
8
BLACK
6
CONTINUOUS
10
4.71404
20
-2.89857
11
4.71387
21
-2.89855
0
LINE
8
BLACK
6
CONTINUOUS
10
4.71387
20
-2.89855
11
4.71012
21
-2.89667
0
LINE
8
BLACK
6
CONTINUOUS
10
4.71012
20
-2.89667
11
4.70941
21
-2.89615
0
LINE
8
BLACK
6
CONTINUOUS
10
4.70941
20
-2.89615
11
4.70935
21
-2.89612
0
LINE
8
BLACK
6
CONTINUOUS
10
4.70935
20
-2.89612
11
4.70747
21
-2.89424
0
LINE
8
BLACK
6
CONTINUOUS
10
4.70747
20
-2.89424
11
4.70689
21
-2.8934
0
LINE
8
BLACK
6
CONTINUOUS
10
4.70689
20
-2.8934
11
4.70671
21
-2.89139
0
LINE
8
BLACK
6
CONTINUOUS
10
4.70671
20
-2.89139
11
4.70787
21
-2.88974
0
LINE
8
BLACK
6
CONTINUOUS
10
4.70787
20
-2.88974
11
4.70982
21
-2.88922
0
LINE
8
BLACK
6
CONTINUOUS
10
4.70982
20
-2.88922
11
4.71165
21
-2.89007
0
LINE
8
BLACK
6
CONTINUOUS
10
4.71165
20
-2.89007
11
4.71319
21
-2.8916
0
LINE
8
BLACK
6
CONTINUOUS
10
4.71319
20
-2.8916
11
4.71588
21
-2.89295
0
LINE
8
BLACK
6
CONTINUOUS
10
4.71588
20
-2.89295
11
4.72574
21
-2.89295
0
LINE
8
BLACK
6
CONTINUOUS
10
4.72574
20
-2.89295
11
4.72843
21
-2.8916
0
LINE
8
BLACK
6
CONTINUOUS
10
4.72843
20
-2.8916
11
4.72963
21
-2.89041
0
LINE
8
BLACK
6
CONTINUOUS
10
4.72963
20
-2.89041
11
4.73098
21
-2.88771
0
LINE
8
BLACK
6
CONTINUOUS
10
4.73098
20
-2.88771
11
4.73098
21
-2.87973
0
LINE
8
BLACK
6
CONTINUOUS
10
4.73098
20
-2.87973
11
4.72963
21
-2.87703
0
LINE
8
BLACK
6
CONTINUOUS
10
4.72963
20
-2.87703
11
4.72843
21
-2.87584
0
LINE
8
BLACK
6
CONTINUOUS
10
4.72843
20
-2.87584
11
4.72574
21
-2.87449
0
LINE
8
BLACK
6
CONTINUOUS
10
4.72574
20
-2.87449
11
4.72081
21
-2.87449
0
LINE
8
BLACK
6
CONTINUOUS
10
4.72081
20
-2.87449
11
4.72037
21
-2.87441
0
LINE
8
BLACK
6
CONTINUOUS
10
4.72037
20
-2.87441
11
4.72024
21
-2.87443
0
LINE
8
BLACK
6
CONTINUOUS
10
4.72024
20
-2.87443
11
4.72013
21
-2.87437
0
LINE
8
BLACK
6
CONTINUOUS
10
4.72013
20
-2.87437
11
4.7198
21
-2.87431
0
LINE
8
BLACK
6
CONTINUOUS
10
4.7198
20
-2.87431
11
4.71919
21
-2.8738
0
LINE
8
BLACK
6
CONTINUOUS
10
4.71919
20
-2.8738
11
4.71851
21
-2.87339
0
LINE
8
BLACK
6
CONTINUOUS
10
4.71851
20
-2.87339
11
4.71843
21
-2.87316
0
LINE
8
BLACK
6
CONTINUOUS
10
4.71843
20
-2.87316
11
4.71825
21
-2.87301
0
LINE
8
BLACK
6
CONTINUOUS
10
4.71825
20
-2.87301
11
4.71811
21
-2.87223
0
LINE
8
BLACK
6
CONTINUOUS
10
4.71811
20
-2.87223
11
4.71786
21
-2.87147
0
LINE
8
BLACK
6
CONTINUOUS
10
4.71786
20
-2.87147
11
4.71794
21
-2.87125
0
LINE
8
BLACK
6
CONTINUOUS
10
4.71794
20
-2.87125
11
4.7179
21
-2.87102
0
LINE
8
BLACK
6
CONTINUOUS
10
4.7179
20
-2.87102
11
4.7183
21
-2.87033
0
LINE
8
BLACK
6
CONTINUOUS
10
4.7183
20
-2.87033
11
4.71859
21
-2.86959
0
LINE
8
BLACK
6
CONTINUOUS
10
4.71859
20
-2.86959
11
4.72743
21
-2.85949
0
LINE
8
BLACK
6
CONTINUOUS
10
4.72743
20
-2.85949
11
4.70956
21
-2.85949
0
LINE
8
BLACK
6
CONTINUOUS
10
4.70956
20
-2.85949
11
4.70855
21
-2.85931
0
LINE
8
BLACK
6
CONTINUOUS
10
4.70855
20
-2.85931
11
4.707
21
-2.85801
0
LINE
8
BLACK
6
CONTINUOUS
10
4.707
20
-2.85801
11
4.70665
21
-2.85602
0
LINE
8
BLACK
6
CONTINUOUS
10
4.70665
20
-2.85602
11
4.70766
21
-2.85427
0
LINE
8
BLACK
6
CONTINUOUS
10
4.70766
20
-2.85427
11
4.70956
21
-2.85358
0
LINE
8
BLACK
6
CONTINUOUS
10
4.70956
20
-2.85358
11
4.73393
21
-2.85358
0
LINE
8
BLACK
6
CONTINUOUS
10
4.73393
20
-2.85358
11
4.73437
21
-2.85366
0
LINE
8
BLACK
6
CONTINUOUS
10
4.68995
20
-2.85376
11
4.69008
21
-2.85387
0
LINE
8
BLACK
6
CONTINUOUS
10
4.69008
20
-2.85387
11
4.69026
21
-2.8539
0
LINE
8
BLACK
6
CONTINUOUS
10
4.69026
20
-2.8539
11
4.69401
21
-2.85577
0
LINE
8
BLACK
6
CONTINUOUS
10
4.69401
20
-2.85577
11
4.69472
21
-2.8563
0
LINE
8
BLACK
6
CONTINUOUS
10
4.69472
20
-2.8563
11
4.69478
21
-2.85632
0
LINE
8
BLACK
6
CONTINUOUS
10
4.69478
20
-2.85632
11
4.69665
21
-2.8582
0
LINE
8
BLACK
6
CONTINUOUS
10
4.69665
20
-2.8582
11
4.69716
21
-2.85892
0
LINE
8
BLACK
6
CONTINUOUS
10
4.69716
20
-2.85892
11
4.6972
21
-2.85897
0
LINE
8
BLACK
6
CONTINUOUS
10
4.6972
20
-2.85897
11
4.69908
21
-2.86271
0
LINE
8
BLACK
6
CONTINUOUS
10
4.69908
20
-2.86271
11
4.69937
21
-2.8637
0
LINE
8
BLACK
6
CONTINUOUS
10
4.69937
20
-2.8637
11
4.69933
21
-2.86387
0
LINE
8
BLACK
6
CONTINUOUS
10
4.69933
20
-2.86387
11
4.69939
21
-2.86404
0
LINE
8
BLACK
6
CONTINUOUS
10
4.69939
20
-2.86404
11
4.69939
21
-2.86966
0
LINE
8
BLACK
6
CONTINUOUS
10
4.69939
20
-2.86966
11
4.69921
21
-2.87067
0
LINE
8
BLACK
6
CONTINUOUS
10
4.69921
20
-2.87067
11
4.6991
21
-2.8708
0
LINE
8
BLACK
6
CONTINUOUS
10
4.6991
20
-2.8708
11
4.69908
21
-2.87098
0
LINE
8
BLACK
6
CONTINUOUS
10
4.69908
20
-2.87098
11
4.6972
21
-2.87473
0
LINE
8
BLACK
6
CONTINUOUS
10
4.6972
20
-2.87473
11
4.69668
21
-2.87544
0
LINE
8
BLACK
6
CONTINUOUS
10
4.69668
20
-2.87544
11
4.69665
21
-2.8755
0
LINE
8
BLACK
6
CONTINUOUS
10
4.69665
20
-2.8755
11
4.69478
21
-2.87737
0
LINE
8
BLACK
6
CONTINUOUS
10
4.69478
20
-2.87737
11
4.69405
21
-2.87788
0
LINE
8
BLACK
6
CONTINUOUS
10
4.69405
20
-2.87788
11
4.69401
21
-2.87792
0
LINE
8
BLACK
6
CONTINUOUS
10
4.69401
20
-2.87792
11
4.69026
21
-2.8798
0
LINE
8
BLACK
6
CONTINUOUS
10
4.69026
20
-2.8798
11
4.68928
21
-2.88009
0
LINE
8
BLACK
6
CONTINUOUS
10
4.68928
20
-2.88009
11
4.68911
21
-2.88005
0
LINE
8
BLACK
6
CONTINUOUS
10
4.68911
20
-2.88005
11
4.68898
21
-2.8801
0
LINE
8
BLACK
6
CONTINUOUS
10
4.68898
20
-2.8801
11
4.69886
21
-2.89421
0
LINE
8
BLACK
6
CONTINUOUS
10
4.69886
20
-2.89421
11
4.69929
21
-2.89514
0
LINE
8
BLACK
6
CONTINUOUS
10
4.69929
20
-2.89514
11
4.69911
21
-2.89715
0
LINE
8
BLACK
6
CONTINUOUS
10
4.69911
20
-2.89715
11
4.69769
21
-2.89858
0
LINE
8
BLACK
6
CONTINUOUS
10
4.69769
20
-2.89858
11
4.69567
21
-2.89876
0
LINE
8
BLACK
6
CONTINUOUS
10
4.69567
20
-2.89876
11
4.69402
21
-2.8976
0
LINE
8
BLACK
6
CONTINUOUS
10
4.69402
20
-2.8976
11
4.68178
21
-2.88011
0
LINE
8
BLACK
6
CONTINUOUS
10
4.68178
20
-2.88011
11
4.67689
21
-2.88011
0
LINE
8
BLACK
6
CONTINUOUS
10
4.67689
20
-2.88011
11
4.67689
21
-2.89591
0
LINE
8
BLACK
6
CONTINUOUS
10
4.67689
20
-2.89591
11
4.67672
21
-2.89692
0
LINE
8
BLACK
6
CONTINUOUS
10
4.67672
20
-2.89692
11
4.67542
21
-2.89846
0
LINE
8
BLACK
6
CONTINUOUS
10
4.67542
20
-2.89846
11
4.67343
21
-2.89881
0
LINE
8
BLACK
6
CONTINUOUS
10
4.67343
20
-2.89881
11
4.67168
21
-2.8978
0
LINE
8
BLACK
6
CONTINUOUS
10
4.67168
20
-2.8978
11
4.67099
21
-2.89591
0
LINE
8
BLACK
6
CONTINUOUS
10
4.67099
20
-2.89591
11
4.67099
21
-2.85654
0
LINE
8
BLACK
6
CONTINUOUS
10
4.67099
20
-2.85654
11
4.67106
21
-2.85615
0
LINE
8
BLACK
6
CONTINUOUS
10
4.67106
20
-2.85615
11
4.67103
21
-2.85602
0
LINE
8
BLACK
6
CONTINUOUS
10
4.67103
20
-2.85602
11
4.6711
21
-2.85591
0
LINE
8
BLACK
6
CONTINUOUS
10
4.6711
20
-2.85591
11
4.67117
21
-2.85553
0
LINE
8
BLACK
6
CONTINUOUS
10
4.67117
20
-2.85553
11
4.67166
21
-2.85494
0
LINE
8
BLACK
6
CONTINUOUS
10
4.67166
20
-2.85494
11
4.67204
21
-2.85427
0
LINE
8
BLACK
6
CONTINUOUS
10
4.67204
20
-2.85427
11
4.67229
21
-2.85418
0
LINE
8
BLACK
6
CONTINUOUS
10
4.67229
20
-2.85418
11
4.67246
21
-2.85398
0
LINE
8
BLACK
6
CONTINUOUS
10
4.67246
20
-2.85398
11
4.67322
21
-2.85385
0
LINE
8
BLACK
6
CONTINUOUS
10
4.67322
20
-2.85385
11
4.67394
21
-2.85358
0
LINE
8
BLACK
6
CONTINUOUS
10
4.67394
20
-2.85358
11
4.68894
21
-2.85358
0
LINE
8
BLACK
6
CONTINUOUS
10
4.68894
20
-2.85358
11
4.68995
21
-2.85376
0
LINE
8
BLACK
6
CONTINUOUS
10
4.67689
20
-2.87421
11
4.68824
21
-2.87421
0
LINE
8
BLACK
6
CONTINUOUS
10
4.68824
20
-2.87421
11
4.69094
21
-2.87286
0
LINE
8
BLACK
6
CONTINUOUS
10
4.69094
20
-2.87286
11
4.69214
21
-2.87166
0
LINE
8
BLACK
6
CONTINUOUS
10
4.69214
20
-2.87166
11
4.69349
21
-2.86896
0
LINE
8
BLACK
6
CONTINUOUS
10
4.69349
20
-2.86896
11
4.69349
21
-2.86473
0
LINE
8
BLACK
6
CONTINUOUS
10
4.69349
20
-2.86473
11
4.69214
21
-2.86203
0
LINE
8
BLACK
6
CONTINUOUS
10
4.69214
20
-2.86203
11
4.69094
21
-2.86084
0
LINE
8
BLACK
6
CONTINUOUS
10
4.69094
20
-2.86084
11
4.68824
21
-2.85949
0
LINE
8
BLACK
6
CONTINUOUS
10
4.68824
20
-2.85949
11
4.67689
21
-2.85949
0
LINE
8
BLACK
6
CONTINUOUS
10
4.67689
20
-2.85949
11
4.67689
21
-2.87421
0
LINE
8
BLACK
6
CONTINUOUS
10
4.47759
20
-2.85587
11
4.48078
21
-2.858
0
LINE
8
BLACK
6
CONTINUOUS
10
4.48078
20
-2.858
11
4.48291
21
-2.86119
0
LINE
8
BLACK
6
CONTINUOUS
10
4.48291
20
-2.86119
11
4.48366
21
-2.86496
0
LINE
8
BLACK
6
CONTINUOUS
10
4.48366
20
-2.86496
11
4.48291
21
-2.86873
0
LINE
8
BLACK
6
CONTINUOUS
10
4.48291
20
-2.86873
11
4.48078
21
-2.87192
0
LINE
8
BLACK
6
CONTINUOUS
10
4.48078
20
-2.87192
11
4.47759
21
-2.87405
0
LINE
8
BLACK
6
CONTINUOUS
10
4.47759
20
-2.87405
11
4.47382
21
-2.8748
0
LINE
8
BLACK
6
CONTINUOUS
10
4.47382
20
-2.8748
11
4.47005
21
-2.87405
0
LINE
8
BLACK
6
CONTINUOUS
10
4.47005
20
-2.87405
11
4.46686
21
-2.87192
0
LINE
8
BLACK
6
CONTINUOUS
10
4.46686
20
-2.87192
11
4.46473
21
-2.86873
0
LINE
8
BLACK
6
CONTINUOUS
10
4.46473
20
-2.86873
11
4.46398
21
-2.86496
0
LINE
8
BLACK
6
CONTINUOUS
10
4.46398
20
-2.86496
11
4.46473
21
-2.86119
0
LINE
8
BLACK
6
CONTINUOUS
10
4.46473
20
-2.86119
11
4.46686
21
-2.858
0
LINE
8
BLACK
6
CONTINUOUS
10
4.46686
20
-2.858
11
4.47005
21
-2.85587
0
LINE
8
BLACK
6
CONTINUOUS
10
4.47005
20
-2.85587
11
4.47382
21
-2.85512
0
LINE
8
BLACK
6
CONTINUOUS
10
4.47382
20
-2.85512
11
4.47759
21
-2.85587
0
LINE
8
BLACK
6
CONTINUOUS
10
4.60698
20
-2.84739
11
4.60767
21
-2.84906
0
LINE
8
BLACK
6
CONTINUOUS
10
4.60767
20
-2.84906
11
4.60698
21
-2.85073
0
LINE
8
BLACK
6
CONTINUOUS
10
4.60698
20
-2.85073
11
4.60531
21
-2.85143
0
LINE
8
BLACK
6
CONTINUOUS
10
4.60531
20
-2.85143
11
4.58743
21
-2.85143
0
LINE
8
BLACK
6
CONTINUOUS
10
4.58743
20
-2.85143
11
4.58576
21
-2.85073
0
LINE
8
BLACK
6
CONTINUOUS
10
4.58576
20
-2.85073
11
4.58507
21
-2.84906
0
LINE
8
BLACK
6
CONTINUOUS
10
4.58507
20
-2.84906
11
4.58576
21
-2.84739
0
LINE
8
BLACK
6
CONTINUOUS
10
4.58576
20
-2.84739
11
4.58743
21
-2.8467
0
LINE
8
BLACK
6
CONTINUOUS
10
4.58743
20
-2.8467
11
4.60531
21
-2.8467
0
LINE
8
BLACK
6
CONTINUOUS
10
4.60531
20
-2.8467
11
4.60698
21
-2.84739
0
LINE
8
BLACK
6
CONTINUOUS
10
4.60761
20
-2.82727
11
4.6083
21
-2.82894
0
LINE
8
BLACK
6
CONTINUOUS
10
4.6083
20
-2.82894
11
4.60761
21
-2.83061
0
LINE
8
BLACK
6
CONTINUOUS
10
4.60761
20
-2.83061
11
4.60594
21
-2.8313
0
LINE
8
BLACK
6
CONTINUOUS
10
4.60594
20
-2.8313
11
4.58806
21
-2.8313
0
LINE
8
BLACK
6
CONTINUOUS
10
4.58806
20
-2.8313
11
4.58639
21
-2.83061
0
LINE
8
BLACK
6
CONTINUOUS
10
4.58639
20
-2.83061
11
4.5857
21
-2.82894
0
LINE
8
BLACK
6
CONTINUOUS
10
4.5857
20
-2.82894
11
4.58639
21
-2.82727
0
LINE
8
BLACK
6
CONTINUOUS
10
4.58639
20
-2.82727
11
4.58806
21
-2.82657
0
LINE
8
BLACK
6
CONTINUOUS
10
4.58806
20
-2.82657
11
4.60594
21
-2.82657
0
LINE
8
BLACK
6
CONTINUOUS
10
4.60594
20
-2.82657
11
4.60761
21
-2.82727
0
LINE
8
BLACK
6
CONTINUOUS
10
4.72744
20
-2.77676
11
4.72758
21
-2.77687
0
LINE
8
BLACK
6
CONTINUOUS
10
4.72758
20
-2.77687
11
4.72776
21
-2.7769
0
LINE
8
BLACK
6
CONTINUOUS
10
4.72776
20
-2.7769
11
4.7315
21
-2.77877
0
LINE
8
BLACK
6
CONTINUOUS
10
4.7315
20
-2.77877
11
4.73221
21
-2.7793
0
LINE
8
BLACK
6
CONTINUOUS
10
4.73221
20
-2.7793
11
4.73227
21
-2.77932
0
LINE
8
BLACK
6
CONTINUOUS
10
4.73227
20
-2.77932
11
4.73415
21
-2.7812
0
LINE
8
BLACK
6
CONTINUOUS
10
4.73415
20
-2.7812
11
4.73465
21
-2.78192
0
LINE
8
BLACK
6
CONTINUOUS
10
4.73465
20
-2.78192
11
4.7347
21
-2.78197
0
LINE
8
BLACK
6
CONTINUOUS
10
4.7347
20
-2.78197
11
4.73657
21
-2.78571
0
LINE
8
BLACK
6
CONTINUOUS
10
4.73657
20
-2.78571
11
4.73687
21
-2.7867
0
LINE
8
BLACK
6
CONTINUOUS
10
4.73687
20
-2.7867
11
4.73683
21
-2.78687
0
LINE
8
BLACK
6
CONTINUOUS
10
4.73683
20
-2.78687
11
4.73689
21
-2.78704
0
LINE
8
BLACK
6
CONTINUOUS
10
4.73689
20
-2.78704
11
4.73689
21
-2.79078
0
LINE
8
BLACK
6
CONTINUOUS
10
4.73689
20
-2.79078
11
4.73673
21
-2.79165
0
LINE
8
BLACK
6
CONTINUOUS
10
4.73673
20
-2.79165
11
4.73673
21
-2.79172
0
LINE
8
BLACK
6
CONTINUOUS
10
4.73673
20
-2.79172
11
4.73486
21
-2.79734
0
LINE
8
BLACK
6
CONTINUOUS
10
4.73486
20
-2.79734
11
4.73437
21
-2.79824
0
LINE
8
BLACK
6
CONTINUOUS
10
4.73437
20
-2.79824
11
4.73422
21
-2.79834
0
LINE
8
BLACK
6
CONTINUOUS
10
4.73422
20
-2.79834
11
4.73415
21
-2.7985
0
LINE
8
BLACK
6
CONTINUOUS
10
4.73415
20
-2.7985
11
4.71669
21
-2.81595
0
LINE
8
BLACK
6
CONTINUOUS
10
4.71669
20
-2.81595
11
4.73393
21
-2.81595
0
LINE
8
BLACK
6
CONTINUOUS
10
4.73393
20
-2.81595
11
4.73494
21
-2.81613
0
LINE
8
BLACK
6
CONTINUOUS
10
4.73494
20
-2.81613
11
4.73649
21
-2.81743
0
LINE
8
BLACK
6
CONTINUOUS
10
4.73649
20
-2.81743
11
4.73684
21
-2.81942
0
LINE
8
BLACK
6
CONTINUOUS
10
4.73684
20
-2.81942
11
4.73583
21
-2.82117
0
LINE
8
BLACK
6
CONTINUOUS
10
4.73583
20
-2.82117
11
4.73393
21
-2.82186
0
LINE
8
BLACK
6
CONTINUOUS
10
4.73393
20
-2.82186
11
4.70956
21
-2.82186
0
LINE
8
BLACK
6
CONTINUOUS
10
4.70956
20
-2.82186
11
4.70893
21
-2.82175
0
LINE
8
BLACK
6
CONTINUOUS
10
4.70893
20
-2.82175
11
4.7088
21
-2.82176
0
LINE
8
BLACK
6
CONTINUOUS
10
4.7088
20
-2.82176
11
4.70873
21
-2.82171
0
LINE
8
BLACK
6
CONTINUOUS
10
4.70873
20
-2.82171
11
4.70855
21
-2.82168
0
LINE
8
BLACK
6
CONTINUOUS
10
4.70855
20
-2.82168
11
4.70787
21
-2.82111
0
LINE
8
BLACK
6
CONTINUOUS
10
4.70787
20
-2.82111
11
4.70714
21
-2.8206
0
LINE
8
BLACK
6
CONTINUOUS
10
4.70714
20
-2.8206
11
4.70711
21
-2.82047
0
LINE
8
BLACK
6
CONTINUOUS
10
4.70711
20
-2.82047
11
4.707
21
-2.82038
0
LINE
8
BLACK
6
CONTINUOUS
10
4.707
20
-2.82038
11
4.70685
21
-2.81951
0
LINE
8
BLACK
6
CONTINUOUS
10
4.70685
20
-2.81951
11
4.70662
21
-2.81865
0
LINE
8
BLACK
6
CONTINUOUS
10
4.70662
20
-2.81865
11
4.70668
21
-2.81853
0
LINE
8
BLACK
6
CONTINUOUS
10
4.70668
20
-2.81853
11
4.70665
21
-2.81839
0
LINE
8
BLACK
6
CONTINUOUS
10
4.70665
20
-2.81839
11
4.7071
21
-2.81762
0
LINE
8
BLACK
6
CONTINUOUS
10
4.7071
20
-2.81762
11
4.70747
21
-2.81682
0
LINE
8
BLACK
6
CONTINUOUS
10
4.70747
20
-2.81682
11
4.72948
21
-2.79481
0
LINE
8
BLACK
6
CONTINUOUS
10
4.72948
20
-2.79481
11
4.73098
21
-2.79031
0
LINE
8
BLACK
6
CONTINUOUS
10
4.73098
20
-2.79031
11
4.73098
21
-2.78773
0
LINE
8
BLACK
6
CONTINUOUS
10
4.73098
20
-2.78773
11
4.72963
21
-2.78503
0
LINE
8
BLACK
6
CONTINUOUS
10
4.72963
20
-2.78503
11
4.72843
21
-2.78384
0
LINE
8
BLACK
6
CONTINUOUS
10
4.72843
20
-2.78384
11
4.72574
21
-2.78249
0
LINE
8
BLACK
6
CONTINUOUS
10
4.72574
20
-2.78249
11
4.71776
21
-2.78249
0
LINE
8
BLACK
6
CONTINUOUS
10
4.71776
20
-2.78249
11
4.71506
21
-2.78384
0
LINE
8
BLACK
6
CONTINUOUS
10
4.71506
20
-2.78384
11
4.71352
21
-2.78537
0
LINE
8
BLACK
6
CONTINUOUS
10
4.71352
20
-2.78537
11
4.71268
21
-2.78596
0
LINE
8
BLACK
6
CONTINUOUS
10
4.71268
20
-2.78596
11
4.71067
21
-2.78614
0
LINE
8
BLACK
6
CONTINUOUS
10
4.71067
20
-2.78614
11
4.70902
21
-2.78498
0
LINE
8
BLACK
6
CONTINUOUS
10
4.70902
20
-2.78498
11
4.70849
21
-2.78303
0
LINE
8
BLACK
6
CONTINUOUS
10
4.70849
20
-2.78303
11
4.70935
21
-2.7812
0
LINE
8
BLACK
6
CONTINUOUS
10
4.70935
20
-2.7812
11
4.71122
21
-2.77932
0
LINE
8
BLACK
6
CONTINUOUS
10
4.71122
20
-2.77932
11
4.71195
21
-2.77882
0
LINE
8
BLACK
6
CONTINUOUS
10
4.71195
20
-2.77882
11
4.71199
21
-2.77877
0
LINE
8
BLACK
6
CONTINUOUS
10
4.71199
20
-2.77877
11
4.71574
21
-2.7769
0
LINE
8
BLACK
6
CONTINUOUS
10
4.71574
20
-2.7769
11
4.71672
21
-2.7766
0
LINE
8
BLACK
6
CONTINUOUS
10
4.71672
20
-2.7766
11
4.71689
21
-2.77664
0
LINE
8
BLACK
6
CONTINUOUS
10
4.71689
20
-2.77664
11
4.71706
21
-2.77658
0
LINE
8
BLACK
6
CONTINUOUS
10
4.71706
20
-2.77658
11
4.72643
21
-2.77658
0
LINE
8
BLACK
6
CONTINUOUS
10
4.72643
20
-2.77658
11
4.72744
21
-2.77676
0
LINE
8
BLACK
6
CONTINUOUS
10
4.68995
20
-2.77676
11
4.69008
21
-2.77687
0
LINE
8
BLACK
6
CONTINUOUS
10
4.69008
20
-2.77687
11
4.69026
21
-2.7769
0
LINE
8
BLACK
6
CONTINUOUS
10
4.69026
20
-2.7769
11
4.69401
21
-2.77877
0
LINE
8
BLACK
6
CONTINUOUS
10
4.69401
20
-2.77877
11
4.69472
21
-2.7793
0
LINE
8
BLACK
6
CONTINUOUS
10
4.69472
20
-2.7793
11
4.69478
21
-2.77932
0
LINE
8
BLACK
6
CONTINUOUS
10
4.69478
20
-2.77932
11
4.69665
21
-2.7812
0
LINE
8
BLACK
6
CONTINUOUS
10
4.69665
20
-2.7812
11
4.69716
21
-2.78192
0
LINE
8
BLACK
6
CONTINUOUS
10
4.69716
20
-2.78192
11
4.6972
21
-2.78197
0
LINE
8
BLACK
6
CONTINUOUS
10
4.6972
20
-2.78197
11
4.69908
21
-2.78571
0
LINE
8
BLACK
6
CONTINUOUS
10
4.69908
20
-2.78571
11
4.69937
21
-2.7867
0
LINE
8
BLACK
6
CONTINUOUS
10
4.69937
20
-2.7867
11
4.69933
21
-2.78687
0
LINE
8
BLACK
6
CONTINUOUS
10
4.69933
20
-2.78687
11
4.69939
21
-2.78704
0
LINE
8
BLACK
6
CONTINUOUS
10
4.69939
20
-2.78704
11
4.69939
21
-2.79266
0
LINE
8
BLACK
6
CONTINUOUS
10
4.69939
20
-2.79266
11
4.69921
21
-2.79367
0
LINE
8
BLACK
6
CONTINUOUS
10
4.69921
20
-2.79367
11
4.6991
21
-2.7938
0
LINE
8
BLACK
6
CONTINUOUS
10
4.6991
20
-2.7938
11
4.69908
21
-2.79398
0
LINE
8
BLACK
6
CONTINUOUS
10
4.69908
20
-2.79398
11
4.6972
21
-2.79773
0
LINE
8
BLACK
6
CONTINUOUS
10
4.6972
20
-2.79773
11
4.69668
21
-2.79844
0
LINE
8
BLACK
6
CONTINUOUS
10
4.69668
20
-2.79844
11
4.69665
21
-2.7985
0
LINE
8
BLACK
6
CONTINUOUS
10
4.69665
20
-2.7985
11
4.69478
21
-2.80037
0
LINE
8
BLACK
6
CONTINUOUS
10
4.69478
20
-2.80037
11
4.69405
21
-2.80088
0
LINE
8
BLACK
6
CONTINUOUS
10
4.69405
20
-2.80088
11
4.69401
21
-2.80092
0
LINE
8
BLACK
6
CONTINUOUS
10
4.69401
20
-2.80092
11
4.69026
21
-2.8028
0
LINE
8
BLACK
6
CONTINUOUS
10
4.69026
20
-2.8028
11
4.68928
21
-2.80309
0
LINE
8
BLACK
6
CONTINUOUS
10
4.68928
20
-2.80309
11
4.68911
21
-2.80305
0
LINE
8
BLACK
6
CONTINUOUS
10
4.68911
20
-2.80305
11
4.68898
21
-2.8031
0
LINE
8
BLACK
6
CONTINUOUS
10
4.68898
20
-2.8031
11
4.69886
21
-2.81721
0
LINE
8
BLACK
6
CONTINUOUS
10
4.69886
20
-2.81721
11
4.69929
21
-2.81814
0
LINE
8
BLACK
6
CONTINUOUS
10
4.69929
20
-2.81814
11
4.69911
21
-2.82015
0
LINE
8
BLACK
6
CONTINUOUS
10
4.69911
20
-2.82015
11
4.69769
21
-2.82158
0
LINE
8
BLACK
6
CONTINUOUS
10
4.69769
20
-2.82158
11
4.69567
21
-2.82176
0
LINE
8
BLACK
6
CONTINUOUS
10
4.69567
20
-2.82176
11
4.69402
21
-2.8206
0
LINE
8
BLACK
6
CONTINUOUS
10
4.69402
20
-2.8206
11
4.68178
21
-2.80311
0
LINE
8
BLACK
6
CONTINUOUS
10
4.68178
20
-2.80311
11
4.67689
21
-2.80311
0
LINE
8
BLACK
6
CONTINUOUS
10
4.67689
20
-2.80311
11
4.67689
21
-2.81891
0
LINE
8
BLACK
6
CONTINUOUS
10
4.67689
20
-2.81891
11
4.67672
21
-2.81992
0
LINE
8
BLACK
6
CONTINUOUS
10
4.67672
20
-2.81992
11
4.67542
21
-2.82146
0
LINE
8
BLACK
6
CONTINUOUS
10
4.67542
20
-2.82146
11
4.67343
21
-2.82181
0
LINE
8
BLACK
6
CONTINUOUS
10
4.67343
20
-2.82181
11
4.67168
21
-2.8208
0
LINE
8
BLACK
6
CONTINUOUS
10
4.67168
20
-2.8208
11
4.67099
21
-2.81891
0
LINE
8
BLACK
6
CONTINUOUS
10
4.67099
20
-2.81891
11
4.67099
21
-2.77954
0
LINE
8
BLACK
6
CONTINUOUS
10
4.67099
20
-2.77954
11
4.67106
21
-2.77915
0
LINE
8
BLACK
6
CONTINUOUS
10
4.67106
20
-2.77915
11
4.67103
21
-2.77902
0
LINE
8
BLACK
6
CONTINUOUS
10
4.67103
20
-2.77902
11
4.6711
21
-2.77891
0
LINE
8
BLACK
6
CONTINUOUS
10
4.6711
20
-2.77891
11
4.67117
21
-2.77853
0
LINE
8
BLACK
6
CONTINUOUS
10
4.67117
20
-2.77853
11
4.67166
21
-2.77794
0
LINE
8
BLACK
6
CONTINUOUS
10
4.67166
20
-2.77794
11
4.67204
21
-2.77727
0
LINE
8
BLACK
6
CONTINUOUS
10
4.67204
20
-2.77727
11
4.67229
21
-2.77718
0
LINE
8
BLACK
6
CONTINUOUS
10
4.67229
20
-2.77718
11
4.67246
21
-2.77698
0
LINE
8
BLACK
6
CONTINUOUS
10
4.67246
20
-2.77698
11
4.67322
21
-2.77685
0
LINE
8
BLACK
6
CONTINUOUS
10
4.67322
20
-2.77685
11
4.67394
21
-2.77658
0
LINE
8
BLACK
6
CONTINUOUS
10
4.67394
20
-2.77658
11
4.68894
21
-2.77658
0
LINE
8
BLACK
6
CONTINUOUS
10
4.68894
20
-2.77658
11
4.68995
21
-2.77676
0
LINE
8
BLACK
6
CONTINUOUS
10
4.67689
20
-2.79721
11
4.68824
21
-2.79721
0
LINE
8
BLACK
6
CONTINUOUS
10
4.68824
20
-2.79721
11
4.69094
21
-2.79586
0
LINE
8
BLACK
6
CONTINUOUS
10
4.69094
20
-2.79586
11
4.69214
21
-2.79466
0
LINE
8
BLACK
6
CONTINUOUS
10
4.69214
20
-2.79466
11
4.69349
21
-2.79196
0
LINE
8
BLACK
6
CONTINUOUS
10
4.69349
20
-2.79196
11
4.69349
21
-2.78773
0
LINE
8
BLACK
6
CONTINUOUS
10
4.69349
20
-2.78773
11
4.69214
21
-2.78503
0
LINE
8
BLACK
6
CONTINUOUS
10
4.69214
20
-2.78503
11
4.69094
21
-2.78384
0
LINE
8
BLACK
6
CONTINUOUS
10
4.69094
20
-2.78384
11
4.68824
21
-2.78249
0
LINE
8
BLACK
6
CONTINUOUS
10
4.68824
20
-2.78249
11
4.67689
21
-2.78249
0
LINE
8
BLACK
6
CONTINUOUS
10
4.67689
20
-2.78249
11
4.67689
21
-2.79721
0
LINE
8
BLACK
6
CONTINUOUS
10
4.60761
20
-2.76939
11
4.6083
21
-2.77106
0
LINE
8
BLACK
6
CONTINUOUS
10
4.6083
20
-2.77106
11
4.60761
21
-2.77273
0
LINE
8
BLACK
6
CONTINUOUS
10
4.60761
20
-2.77273
11
4.60594
21
-2.77343
0
LINE
8
BLACK
6
CONTINUOUS
10
4.60594
20
-2.77343
11
4.58806
21
-2.77343
0
LINE
8
BLACK
6
CONTINUOUS
10
4.58806
20
-2.77343
11
4.58639
21
-2.77273
0
LINE
8
BLACK
6
CONTINUOUS
10
4.58639
20
-2.77273
11
4.5857
21
-2.77106
0
LINE
8
BLACK
6
CONTINUOUS
10
4.5857
20
-2.77106
11
4.58639
21
-2.76939
0
LINE
8
BLACK
6
CONTINUOUS
10
4.58639
20
-2.76939
11
4.58806
21
-2.7687
0
LINE
8
BLACK
6
CONTINUOUS
10
4.58806
20
-2.7687
11
4.60594
21
-2.7687
0
LINE
8
BLACK
6
CONTINUOUS
10
4.60594
20
-2.7687
11
4.60761
21
-2.76939
0
LINE
8
BLACK
6
CONTINUOUS
10
4.60761
20
-2.74927
11
4.6083
21
-2.75094
0
LINE
8
BLACK
6
CONTINUOUS
10
4.6083
20
-2.75094
11
4.60761
21
-2.75261
0
LINE
8
BLACK
6
CONTINUOUS
10
4.60761
20
-2.75261
11
4.60594
21
-2.7533
0
LINE
8
BLACK
6
CONTINUOUS
10
4.60594
20
-2.7533
11
4.58806
21
-2.7533
0
LINE
8
BLACK
6
CONTINUOUS
10
4.58806
20
-2.7533
11
4.58639
21
-2.75261
0
LINE
8
BLACK
6
CONTINUOUS
10
4.58639
20
-2.75261
11
4.5857
21
-2.75094
0
LINE
8
BLACK
6
CONTINUOUS
10
4.5857
20
-2.75094
11
4.58639
21
-2.74927
0
LINE
8
BLACK
6
CONTINUOUS
10
4.58639
20
-2.74927
11
4.58806
21
-2.74857
0
LINE
8
BLACK
6
CONTINUOUS
10
4.58806
20
-2.74857
11
4.60594
21
-2.74857
0
LINE
8
BLACK
6
CONTINUOUS
10
4.60594
20
-2.74857
11
4.60761
21
-2.74927
0
LINE
8
BLACK
6
CONTINUOUS
10
4.72303
20
-2.70066
11
4.7232
21
-2.70063
0
LINE
8
BLACK
6
CONTINUOUS
10
4.7232
20
-2.70063
11
4.72394
21
-2.70106
0
LINE
8
BLACK
6
CONTINUOUS
10
4.72394
20
-2.70106
11
4.72472
21
-2.7014
0
LINE
8
BLACK
6
CONTINUOUS
10
4.72472
20
-2.7014
11
4.7248
21
-2.70155
0
LINE
8
BLACK
6
CONTINUOUS
10
4.7248
20
-2.70155
11
4.72495
21
-2.70164
0
LINE
8
BLACK
6
CONTINUOUS
10
4.72495
20
-2.70164
11
4.72524
21
-2.70244
0
LINE
8
BLACK
6
CONTINUOUS
10
4.72524
20
-2.70244
11
4.72562
21
-2.70321
0
LINE
8
BLACK
6
CONTINUOUS
10
4.72562
20
-2.70321
11
4.72558
21
-2.70338
0
LINE
8
BLACK
6
CONTINUOUS
10
4.72558
20
-2.70338
11
4.72564
21
-2.70354
0
LINE
8
BLACK
6
CONTINUOUS
10
4.72564
20
-2.70354
11
4.72564
21
-2.73995
0
LINE
8
BLACK
6
CONTINUOUS
10
4.72564
20
-2.73995
11
4.73393
21
-2.73995
0
LINE
8
BLACK
6
CONTINUOUS
10
4.73393
20
-2.73995
11
4.73494
21
-2.74013
0
LINE
8
BLACK
6
CONTINUOUS
10
4.73494
20
-2.74013
11
4.73649
21
-2.74143
0
LINE
8
BLACK
6
CONTINUOUS
10
4.73649
20
-2.74143
11
4.73684
21
-2.74342
0
LINE
8
BLACK
6
CONTINUOUS
10
4.73684
20
-2.74342
11
4.73583
21
-2.74517
0
LINE
8
BLACK
6
CONTINUOUS
10
4.73583
20
-2.74517
11
4.73393
21
-2.74586
0
LINE
8
BLACK
6
CONTINUOUS
10
4.73393
20
-2.74586
11
4.71144
21
-2.74586
0
LINE
8
BLACK
6
CONTINUOUS
10
4.71144
20
-2.74586
11
4.71043
21
-2.74568
0
LINE
8
BLACK
6
CONTINUOUS
10
4.71043
20
-2.74568
11
4.70888
21
-2.74438
0
LINE
8
BLACK
6
CONTINUOUS
10
4.70888
20
-2.74438
11
4.70853
21
-2.74239
0
LINE
8
BLACK
6
CONTINUOUS
10
4.70853
20
-2.74239
11
4.70954
21
-2.74064
0
LINE
8
BLACK
6
CONTINUOUS
10
4.70954
20
-2.74064
11
4.71144
21
-2.73995
0
LINE
8
BLACK
6
CONTINUOUS
10
4.71144
20
-2.73995
11
4.71973
21
-2.73995
0
LINE
8
BLACK
6
CONTINUOUS
10
4.71973
20
-2.73995
11
4.71973
21
-2.71254
0
LINE
8
BLACK
6
CONTINUOUS
10
4.71973
20
-2.71254
11
4.71727
21
-2.715
0
LINE
8
BLACK
6
CONTINUOUS
10
4.71727
20
-2.715
11
4.71655
21
-2.7155
0
LINE
8
BLACK
6
CONTINUOUS
10
4.71655
20
-2.7155
11
4.71651
21
-2.71555
0
LINE
8
BLACK
6
CONTINUOUS
10
4.71651
20
-2.71555
11
4.71276
21
-2.71743
0
LINE
8
BLACK
6
CONTINUOUS
10
4.71276
20
-2.71743
11
4.71177
21
-2.71772
0
LINE
8
BLACK
6
CONTINUOUS
10
4.71177
20
-2.71772
11
4.70981
21
-2.71725
0
LINE
8
BLACK
6
CONTINUOUS
10
4.70981
20
-2.71725
11
4.70861
21
-2.71563
0
LINE
8
BLACK
6
CONTINUOUS
10
4.70861
20
-2.71563
11
4.70873
21
-2.71361
0
LINE
8
BLACK
6
CONTINUOUS
10
4.70873
20
-2.71361
11
4.71012
21
-2.71214
0
LINE
8
BLACK
6
CONTINUOUS
10
4.71012
20
-2.71214
11
4.71344
21
-2.71048
0
LINE
8
BLACK
6
CONTINUOUS
10
4.71344
20
-2.71048
11
4.71664
21
-2.70728
0
LINE
8
BLACK
6
CONTINUOUS
10
4.71664
20
-2.70728
11
4.72023
21
-2.7019
0
LINE
8
BLACK
6
CONTINUOUS
10
4.72023
20
-2.7019
11
4.72094
21
-2.70116
0
LINE
8
BLACK
6
CONTINUOUS
10
4.72094
20
-2.70116
11
4.7211
21
-2.70111
0
LINE
8
BLACK
6
CONTINUOUS
10
4.7211
20
-2.70111
11
4.72121
21
-2.70098
0
LINE
8
BLACK
6
CONTINUOUS
10
4.72121
20
-2.70098
11
4.72205
21
-2.70083
0
LINE
8
BLACK
6
CONTINUOUS
10
4.72205
20
-2.70083
11
4.72288
21
-2.70059
0
LINE
8
BLACK
6
CONTINUOUS
10
4.72288
20
-2.70059
11
4.72303
21
-2.70066
0
LINE
8
BLACK
6
CONTINUOUS
10
4.68995
20
-2.70076
11
4.69008
21
-2.70087
0
LINE
8
BLACK
6
CONTINUOUS
10
4.69008
20
-2.70087
11
4.69026
21
-2.7009
0
LINE
8
BLACK
6
CONTINUOUS
10
4.69026
20
-2.7009
11
4.69401
21
-2.70277
0
LINE
8
BLACK
6
CONTINUOUS
10
4.69401
20
-2.70277
11
4.69472
21
-2.7033
0
LINE
8
BLACK
6
CONTINUOUS
10
4.69472
20
-2.7033
11
4.69478
21
-2.70332
0
LINE
8
BLACK
6
CONTINUOUS
10
4.69478
20
-2.70332
11
4.69665
21
-2.7052
0
LINE
8
BLACK
6
CONTINUOUS
10
4.69665
20
-2.7052
11
4.69716
21
-2.70592
0
LINE
8
BLACK
6
CONTINUOUS
10
4.69716
20
-2.70592
11
4.6972
21
-2.70597
0
LINE
8
BLACK
6
CONTINUOUS
10
4.6972
20
-2.70597
11
4.69908
21
-2.70971
0
LINE
8
BLACK
6
CONTINUOUS
10
4.69908
20
-2.70971
11
4.69937
21
-2.7107
0
LINE
8
BLACK
6
CONTINUOUS
10
4.69937
20
-2.7107
11
4.69933
21
-2.71087
0
LINE
8
BLACK
6
CONTINUOUS
10
4.69933
20
-2.71087
11
4.69939
21
-2.71104
0
LINE
8
BLACK
6
CONTINUOUS
10
4.69939
20
-2.71104
11
4.69939
21
-2.71666
0
LINE
8
BLACK
6
CONTINUOUS
10
4.69939
20
-2.71666
11
4.69921
21
-2.71767
0
LINE
8
BLACK
6
CONTINUOUS
10
4.69921
20
-2.71767
11
4.6991
21
-2.7178
0
LINE
8
BLACK
6
CONTINUOUS
10
4.6991
20
-2.7178
11
4.69908
21
-2.71798
0
LINE
8
BLACK
6
CONTINUOUS
10
4.69908
20
-2.71798
11
4.6972
21
-2.72173
0
LINE
8
BLACK
6
CONTINUOUS
10
4.6972
20
-2.72173
11
4.69668
21
-2.72244
0
LINE
8
BLACK
6
CONTINUOUS
10
4.69668
20
-2.72244
11
4.69665
21
-2.7225
0
LINE
8
BLACK
6
CONTINUOUS
10
4.69665
20
-2.7225
11
4.69478
21
-2.72437
0
LINE
8
BLACK
6
CONTINUOUS
10
4.69478
20
-2.72437
11
4.69405
21
-2.72488
0
LINE
8
BLACK
6
CONTINUOUS
10
4.69405
20
-2.72488
11
4.69401
21
-2.72492
0
LINE
8
BLACK
6
CONTINUOUS
10
4.69401
20
-2.72492
11
4.69026
21
-2.7268
0
LINE
8
BLACK
6
CONTINUOUS
10
4.69026
20
-2.7268
11
4.68928
21
-2.72709
0
LINE
8
BLACK
6
CONTINUOUS
10
4.68928
20
-2.72709
11
4.68911
21
-2.72705
0
LINE
8
BLACK
6
CONTINUOUS
10
4.68911
20
-2.72705
11
4.68898
21
-2.7271
0
LINE
8
BLACK
6
CONTINUOUS
10
4.68898
20
-2.7271
11
4.69886
21
-2.74121
0
LINE
8
BLACK
6
CONTINUOUS
10
4.69886
20
-2.74121
11
4.69929
21
-2.74214
0
LINE
8
BLACK
6
CONTINUOUS
10
4.69929
20
-2.74214
11
4.69911
21
-2.74415
0
LINE
8
BLACK
6
CONTINUOUS
10
4.69911
20
-2.74415
11
4.69769
21
-2.74558
0
LINE
8
BLACK
6
CONTINUOUS
10
4.69769
20
-2.74558
11
4.69567
21
-2.74576
0
LINE
8
BLACK
6
CONTINUOUS
10
4.69567
20
-2.74576
11
4.69402
21
-2.7446
0
LINE
8
BLACK
6
CONTINUOUS
10
4.69402
20
-2.7446
11
4.68178
21
-2.72711
0
LINE
8
BLACK
6
CONTINUOUS
10
4.68178
20
-2.72711
11
4.67689
21
-2.72711
0
LINE
8
BLACK
6
CONTINUOUS
10
4.67689
20
-2.72711
11
4.67689
21
-2.74291
0
LINE
8
BLACK
6
CONTINUOUS
10
4.67689
20
-2.74291
11
4.67672
21
-2.74392
0
LINE
8
BLACK
6
CONTINUOUS
10
4.67672
20
-2.74392
11
4.67542
21
-2.74546
0
LINE
8
BLACK
6
CONTINUOUS
10
4.67542
20
-2.74546
11
4.67343
21
-2.74581
0
LINE
8
BLACK
6
CONTINUOUS
10
4.67343
20
-2.74581
11
4.67168
21
-2.7448
0
LINE
8
BLACK
6
CONTINUOUS
10
4.67168
20
-2.7448
11
4.67099
21
-2.74291
0
LINE
8
BLACK
6
CONTINUOUS
10
4.67099
20
-2.74291
11
4.67099
21
-2.70354
0
LINE
8
BLACK
6
CONTINUOUS
10
4.67099
20
-2.70354
11
4.67106
21
-2.70315
0
LINE
8
BLACK
6
CONTINUOUS
10
4.67106
20
-2.70315
11
4.67103
21
-2.70302
0
LINE
8
BLACK
6
CONTINUOUS
10
4.67103
20
-2.70302
11
4.6711
21
-2.70291
0
LINE
8
BLACK
6
CONTINUOUS
10
4.6711
20
-2.70291
11
4.67117
21
-2.70253
0
LINE
8
BLACK
6
CONTINUOUS
10
4.67117
20
-2.70253
11
4.67166
21
-2.70194
0
LINE
8
BLACK
6
CONTINUOUS
10
4.67166
20
-2.70194
11
4.67204
21
-2.70127
0
LINE
8
BLACK
6
CONTINUOUS
10
4.67204
20
-2.70127
11
4.67229
21
-2.70118
0
LINE
8
BLACK
6
CONTINUOUS
10
4.67229
20
-2.70118
11
4.67246
21
-2.70098
0
LINE
8
BLACK
6
CONTINUOUS
10
4.67246
20
-2.70098
11
4.67322
21
-2.70085
0
LINE
8
BLACK
6
CONTINUOUS
10
4.67322
20
-2.70085
11
4.67394
21
-2.70058
0
LINE
8
BLACK
6
CONTINUOUS
10
4.67394
20
-2.70058
11
4.68894
21
-2.70058
0
LINE
8
BLACK
6
CONTINUOUS
10
4.68894
20
-2.70058
11
4.68995
21
-2.70076
0
LINE
8
BLACK
6
CONTINUOUS
10
4.67689
20
-2.72121
11
4.68824
21
-2.72121
0
LINE
8
BLACK
6
CONTINUOUS
10
4.68824
20
-2.72121
11
4.69094
21
-2.71986
0
LINE
8
BLACK
6
CONTINUOUS
10
4.69094
20
-2.71986
11
4.69214
21
-2.71866
0
LINE
8
BLACK
6
CONTINUOUS
10
4.69214
20
-2.71866
11
4.69349
21
-2.71596
0
LINE
8
BLACK
6
CONTINUOUS
10
4.69349
20
-2.71596
11
4.69349
21
-2.71173
0
LINE
8
BLACK
6
CONTINUOUS
10
4.69349
20
-2.71173
11
4.69214
21
-2.70903
0
LINE
8
BLACK
6
CONTINUOUS
10
4.69214
20
-2.70903
11
4.69094
21
-2.70784
0
LINE
8
BLACK
6
CONTINUOUS
10
4.69094
20
-2.70784
11
4.68824
21
-2.70649
0
LINE
8
BLACK
6
CONTINUOUS
10
4.68824
20
-2.70649
11
4.67689
21
-2.70649
0
LINE
8
BLACK
6
CONTINUOUS
10
4.67689
20
-2.70649
11
4.67689
21
-2.72121
0
LINE
8
BLACK
6
CONTINUOUS
10
4.34546
20
-2.64981
11
4.34554
21
-2.64986
0
LINE
8
BLACK
6
CONTINUOUS
10
4.34554
20
-2.64986
11
4.34563
21
-2.64987
0
LINE
8
BLACK
6
CONTINUOUS
10
4.34563
20
-2.64987
11
4.35277
21
-2.65225
0
LINE
8
BLACK
6
CONTINUOUS
10
4.35277
20
-2.65225
11
4.35404
21
-2.65289
0
LINE
8
BLACK
6
CONTINUOUS
10
4.35404
20
-2.65289
11
4.35433
21
-2.65324
0
LINE
8
BLACK
6
CONTINUOUS
10
4.35433
20
-2.65324
11
4.35473
21
-2.65346
0
LINE
8
BLACK
6
CONTINUOUS
10
4.35473
20
-2.65346
11
4.35711
21
-2.65584
0
LINE
8
BLACK
6
CONTINUOUS
10
4.35711
20
-2.65584
11
4.35796
21
-2.65698
0
LINE
8
BLACK
6
CONTINUOUS
10
4.35796
20
-2.65698
11
4.35856
21
-2.65973
0
LINE
8
BLACK
6
CONTINUOUS
10
4.35856
20
-2.65973
11
4.35757
21
-2.66237
0
LINE
8
BLACK
6
CONTINUOUS
10
4.35757
20
-2.66237
11
4.35532
21
-2.66406
0
LINE
8
BLACK
6
CONTINUOUS
10
4.35532
20
-2.66406
11
4.35251
21
-2.66426
0
LINE
8
BLACK
6
CONTINUOUS
10
4.35251
20
-2.66426
11
4.35004
21
-2.66291
0
LINE
8
BLACK
6
CONTINUOUS
10
4.35004
20
-2.66291
11
4.34849
21
-2.66136
0
LINE
8
BLACK
6
CONTINUOUS
10
4.34849
20
-2.66136
11
4.34324
21
-2.65961
0
LINE
8
BLACK
6
CONTINUOUS
10
4.34324
20
-2.65961
11
4.3401
21
-2.65961
0
LINE
8
BLACK
6
CONTINUOUS
10
4.3401
20
-2.65961
11
4.33484
21
-2.66136
0
LINE
8
BLACK
6
CONTINUOUS
10
4.33484
20
-2.66136
11
4.33149
21
-2.66472
0
LINE
8
BLACK
6
CONTINUOUS
10
4.33149
20
-2.66472
11
4.32972
21
-2.66826
0
LINE
8
BLACK
6
CONTINUOUS
10
4.32972
20
-2.66826
11
4.32762
21
-2.67665
0
LINE
8
BLACK
6
CONTINUOUS
10
4.32762
20
-2.67665
11
4.32762
21
-2.68257
0
LINE
8
BLACK
6
CONTINUOUS
10
4.32762
20
-2.68257
11
4.32972
21
-2.69096
0
LINE
8
BLACK
6
CONTINUOUS
10
4.32972
20
-2.69096
11
4.33149
21
-2.69451
0
LINE
8
BLACK
6
CONTINUOUS
10
4.33149
20
-2.69451
11
4.33484
21
-2.69786
0
LINE
8
BLACK
6
CONTINUOUS
10
4.33484
20
-2.69786
11
4.3401
21
-2.69961
0
LINE
8
BLACK
6
CONTINUOUS
10
4.3401
20
-2.69961
11
4.34324
21
-2.69961
0
LINE
8
BLACK
6
CONTINUOUS
10
4.34324
20
-2.69961
11
4.34849
21
-2.69786
0
LINE
8
BLACK
6
CONTINUOUS
10
4.34849
20
-2.69786
11
4.35004
21
-2.69631
0
LINE
8
BLACK
6
CONTINUOUS
10
4.35004
20
-2.69631
11
4.35118
21
-2.69546
0
LINE
8
BLACK
6
CONTINUOUS
10
4.35118
20
-2.69546
11
4.35393
21
-2.69486
0
LINE
8
BLACK
6
CONTINUOUS
10
4.35393
20
-2.69486
11
4.35657
21
-2.69585
0
LINE
8
BLACK
6
CONTINUOUS
10
4.35657
20
-2.69585
11
4.35826
21
-2.6981
0
LINE
8
BLACK
6
CONTINUOUS
10
4.35826
20
-2.6981
11
4.35846
21
-2.70091
0
LINE
8
BLACK
6
CONTINUOUS
10
4.35846
20
-2.70091
11
4.35711
21
-2.70338
0
LINE
8
BLACK
6
CONTINUOUS
10
4.35711
20
-2.70338
11
4.35473
21
-2.70577
0
LINE
8
BLACK
6
CONTINUOUS
10
4.35473
20
-2.70577
11
4.35359
21
-2.70662
0
LINE
8
BLACK
6
CONTINUOUS
10
4.35359
20
-2.70662
11
4.35314
21
-2.70671
0
LINE
8
BLACK
6
CONTINUOUS
10
4.35314
20
-2.70671
11
4.35277
21
-2.70697
0
LINE
8
BLACK
6
CONTINUOUS
10
4.35277
20
-2.70697
11
4.34563
21
-2.70935
0
LINE
8
BLACK
6
CONTINUOUS
10
4.34563
20
-2.70935
11
4.34423
21
-2.70961
0
LINE
8
BLACK
6
CONTINUOUS
10
4.34423
20
-2.70961
11
4.34414
21
-2.70958
0
LINE
8
BLACK
6
CONTINUOUS
10
4.34414
20
-2.70958
11
4.34405
21
-2.70961
0
LINE
8
BLACK
6
CONTINUOUS
10
4.34405
20
-2.70961
11
4.33929
21
-2.70961
0
LINE
8
BLACK
6
CONTINUOUS
10
4.33929
20
-2.70961
11
4.33788
21
-2.70941
0
LINE
8
BLACK
6
CONTINUOUS
10
4.33788
20
-2.70941
11
4.3378
21
-2.70936
0
LINE
8
BLACK
6
CONTINUOUS
10
4.3378
20
-2.70936
11
4.3377
21
-2.70935
0
LINE
8
BLACK
6
CONTINUOUS
10
4.3377
20
-2.70935
11
4.33056
21
-2.70697
0
LINE
8
BLACK
6
CONTINUOUS
10
4.33056
20
-2.70697
11
4.32929
21
-2.70634
0
LINE
8
BLACK
6
CONTINUOUS
10
4.32929
20
-2.70634
11
4.32901
21
-2.70598
0
LINE
8
BLACK
6
CONTINUOUS
10
4.32901
20
-2.70598
11
4.32861
21
-2.70577
0
LINE
8
BLACK
6
CONTINUOUS
10
4.32861
20
-2.70577
11
4.32385
21
-2.701
0
LINE
8
BLACK
6
CONTINUOUS
10
4.32385
20
-2.701
11
4.32299
21
-2.69986
0
LINE
8
BLACK
6
CONTINUOUS
10
4.32299
20
-2.69986
11
4.32297
21
-2.69977
0
LINE
8
BLACK
6
CONTINUOUS
10
4.32297
20
-2.69977
11
4.32291
21
-2.6997
0
LINE
8
BLACK
6
CONTINUOUS
10
4.32291
20
-2.6997
11
4.32053
21
-2.69494
0
LINE
8
BLACK
6
CONTINUOUS
10
4.32053
20
-2.69494
11
4.32024
21
-2.69407
0
LINE
8
BLACK
6
CONTINUOUS
10
4.32024
20
-2.69407
11
4.32015
21
-2.69392
0
LINE
8
BLACK
6
CONTINUOUS
10
4.32015
20
-2.69392
11
4.31777
21
-2.6844
0
LINE
8
BLACK
6
CONTINUOUS
10
4.31777
20
-2.6844
11
4.31766
21
-2.68331
0
LINE
8
BLACK
6
CONTINUOUS
10
4.31766
20
-2.68331
11
4.31762
21
-2.68318
0
LINE
8
BLACK
6
CONTINUOUS
10
4.31762
20
-2.68318
11
4.31762
21
-2.67604
0
LINE
8
BLACK
6
CONTINUOUS
10
4.31762
20
-2.67604
11
4.31777
21
-2.67496
0
LINE
8
BLACK
6
CONTINUOUS
10
4.31777
20
-2.67496
11
4.31777
21
-2.67483
0
LINE
8
BLACK
6
CONTINUOUS
10
4.31777
20
-2.67483
11
4.32015
21
-2.6653
0
LINE
8
BLACK
6
CONTINUOUS
10
4.32015
20
-2.6653
11
4.3205
21
-2.66445
0
LINE
8
BLACK
6
CONTINUOUS
10
4.3205
20
-2.66445
11
4.32053
21
-2.66428
0
LINE
8
BLACK
6
CONTINUOUS
10
4.32053
20
-2.66428
11
4.32291
21
-2.65952
0
LINE
8
BLACK
6
CONTINUOUS
10
4.32291
20
-2.65952
11
4.32372
21
-2.65835
0
LINE
8
BLACK
6
CONTINUOUS
10
4.32372
20
-2.65835
11
4.3238
21
-2.6583
0
LINE
8
BLACK
6
CONTINUOUS
10
4.3238
20
-2.6583
11
4.32385
21
-2.65822
0
LINE
8
BLACK
6
CONTINUOUS
10
4.32385
20
-2.65822
11
4.32861
21
-2.65346
0
LINE
8
BLACK
6
CONTINUOUS
10
4.32861
20
-2.65346
11
4.32975
21
-2.6526
0
LINE
8
BLACK
6
CONTINUOUS
10
4.32975
20
-2.6526
11
4.33019
21
-2.65251
0
LINE
8
BLACK
6
CONTINUOUS
10
4.33019
20
-2.65251
11
4.33056
21
-2.65225
0
LINE
8
BLACK
6
CONTINUOUS
10
4.33056
20
-2.65225
11
4.3377
21
-2.64987
0
LINE
8
BLACK
6
CONTINUOUS
10
4.3377
20
-2.64987
11
4.3391
21
-2.64961
0
LINE
8
BLACK
6
CONTINUOUS
10
4.3391
20
-2.64961
11
4.3392
21
-2.64964
0
LINE
8
BLACK
6
CONTINUOUS
10
4.3392
20
-2.64964
11
4.33929
21
-2.64961
0
LINE
8
BLACK
6
CONTINUOUS
10
4.33929
20
-2.64961
11
4.34405
21
-2.64961
0
LINE
8
BLACK
6
CONTINUOUS
10
4.34405
20
-2.64961
11
4.34546
21
-2.64981
0
LINE
8
BLACK
6
CONTINUOUS
10
4.39308
20
-2.64981
11
4.39346
21
-2.65006
0
LINE
8
BLACK
6
CONTINUOUS
10
4.39346
20
-2.65006
11
4.3939
21
-2.65014
0
LINE
8
BLACK
6
CONTINUOUS
10
4.3939
20
-2.65014
11
4.39866
21
-2.65252
0
LINE
8
BLACK
6
CONTINUOUS
10
4.39866
20
-2.65252
11
4.39983
21
-2.65333
0
LINE
8
BLACK
6
CONTINUOUS
10
4.39983
20
-2.65333
11
4.39988
21
-2.65341
0
LINE
8
BLACK
6
CONTINUOUS
10
4.39988
20
-2.65341
11
4.39996
21
-2.65346
0
LINE
8
BLACK
6
CONTINUOUS
10
4.39996
20
-2.65346
11
4.40235
21
-2.65584
0
LINE
8
BLACK
6
CONTINUOUS
10
4.40235
20
-2.65584
11
4.4032
21
-2.65698
0
LINE
8
BLACK
6
CONTINUOUS
10
4.4032
20
-2.65698
11
4.40322
21
-2.65707
0
LINE
8
BLACK
6
CONTINUOUS
10
4.40322
20
-2.65707
11
4.40328
21
-2.65714
0
LINE
8
BLACK
6
CONTINUOUS
10
4.40328
20
-2.65714
11
4.40566
21
-2.6619
0
LINE
8
BLACK
6
CONTINUOUS
10
4.40566
20
-2.6619
11
4.40611
21
-2.66325
0
LINE
8
BLACK
6
CONTINUOUS
10
4.40611
20
-2.66325
11
4.40606
21
-2.6637
0
LINE
8
BLACK
6
CONTINUOUS
10
4.40606
20
-2.6637
11
4.40619
21
-2.66413
0
LINE
8
BLACK
6
CONTINUOUS
10
4.40619
20
-2.66413
11
4.40619
21
-2.6689
0
LINE
8
BLACK
6
CONTINUOUS
10
4.40619
20
-2.6689
11
4.40599
21
-2.67031
0
LINE
8
BLACK
6
CONTINUOUS
10
4.40599
20
-2.67031
11
4.40594
21
-2.67038
0
LINE
8
BLACK
6
CONTINUOUS
10
4.40594
20
-2.67038
11
4.40593
21
-2.67048
0
LINE
8
BLACK
6
CONTINUOUS
10
4.40593
20
-2.67048
11
4.40355
21
-2.67762
0
LINE
8
BLACK
6
CONTINUOUS
10
4.40355
20
-2.67762
11
4.40292
21
-2.67889
0
LINE
8
BLACK
6
CONTINUOUS
10
4.40292
20
-2.67889
11
4.40256
21
-2.67918
0
LINE
8
BLACK
6
CONTINUOUS
10
4.40256
20
-2.67918
11
4.40234
21
-2.67958
0
LINE
8
BLACK
6
CONTINUOUS
10
4.40234
20
-2.67958
11
4.38231
21
-2.69961
0
LINE
8
BLACK
6
CONTINUOUS
10
4.38231
20
-2.69961
11
4.40119
21
-2.69961
0
LINE
8
BLACK
6
CONTINUOUS
10
4.40119
20
-2.69961
11
4.4026
21
-2.69981
0
LINE
8
BLACK
6
CONTINUOUS
10
4.4026
20
-2.69981
11
4.40497
21
-2.70134
0
LINE
8
BLACK
6
CONTINUOUS
10
4.40497
20
-2.70134
11
4.40614
21
-2.7039
0
LINE
8
BLACK
6
CONTINUOUS
10
4.40614
20
-2.7039
11
4.40574
21
-2.70669
0
LINE
8
BLACK
6
CONTINUOUS
10
4.40574
20
-2.70669
11
4.40389
21
-2.70882
0
LINE
8
BLACK
6
CONTINUOUS
10
4.40389
20
-2.70882
11
4.40119
21
-2.70961
0
LINE
8
BLACK
6
CONTINUOUS
10
4.40119
20
-2.70961
11
4.37024
21
-2.70961
0
LINE
8
BLACK
6
CONTINUOUS
10
4.37024
20
-2.70961
11
4.36999
21
-2.70957
0
LINE
8
BLACK
6
CONTINUOUS
10
4.36999
20
-2.70957
11
4.36988
21
-2.7096
0
LINE
8
BLACK
6
CONTINUOUS
10
4.36988
20
-2.7096
11
4.36971
21
-2.70954
0
LINE
8
BLACK
6
CONTINUOUS
10
4.36971
20
-2.70954
11
4.36883
21
-2.70941
0
LINE
8
BLACK
6
CONTINUOUS
10
4.36883
20
-2.70941
11
4.36808
21
-2.70893
0
LINE
8
BLACK
6
CONTINUOUS
10
4.36808
20
-2.70893
11
4.36724
21
-2.70861
0
LINE
8
BLACK
6
CONTINUOUS
10
4.36724
20
-2.70861
11
4.36692
21
-2.70818
0
LINE
8
BLACK
6
CONTINUOUS
10
4.36692
20
-2.70818
11
4.36646
21
-2.70789
0
LINE
8
BLACK
6
CONTINUOUS
10
4.36646
20
-2.70789
11
4.36609
21
-2.70707
0
LINE
8
BLACK
6
CONTINUOUS
10
4.36609
20
-2.70707
11
4.36555
21
-2.70636
0
LINE
8
BLACK
6
CONTINUOUS
10
4.36555
20
-2.70636
11
4.36551
21
-2.70582
0
LINE
8
BLACK
6
CONTINUOUS
10
4.36551
20
-2.70582
11
4.36529
21
-2.70532
0
LINE
8
BLACK
6
CONTINUOUS
10
4.36529
20
-2.70532
11
4.36542
21
-2.70444
0
LINE
8
BLACK
6
CONTINUOUS
10
4.36542
20
-2.70444
11
4.36535
21
-2.70355
0
LINE
8
BLACK
6
CONTINUOUS
10
4.36535
20
-2.70355
11
4.36561
21
-2.70307
0
LINE
8
BLACK
6
CONTINUOUS
10
4.36561
20
-2.70307
11
4.36569
21
-2.70253
0
LINE
8
BLACK
6
CONTINUOUS
10
4.36569
20
-2.70253
11
4.36627
21
-2.70186
0
LINE
8
BLACK
6
CONTINUOUS
10
4.36627
20
-2.70186
11
4.3667
21
-2.70108
0
LINE
8
BLACK
6
CONTINUOUS
10
4.3667
20
-2.70108
11
4.39444
21
-2.67334
0
LINE
8
BLACK
6
CONTINUOUS
10
4.39444
20
-2.67334
11
4.39619
21
-2.66809
0
LINE
8
BLACK
6
CONTINUOUS
10
4.39619
20
-2.66809
11
4.39619
21
-2.66532
0
LINE
8
BLACK
6
CONTINUOUS
10
4.39619
20
-2.66532
11
4.3947
21
-2.66233
0
LINE
8
BLACK
6
CONTINUOUS
10
4.3947
20
-2.66233
11
4.39347
21
-2.6611
0
LINE
8
BLACK
6
CONTINUOUS
10
4.39347
20
-2.6611
11
4.39049
21
-2.65961
0
LINE
8
BLACK
6
CONTINUOUS
10
4.39049
20
-2.65961
11
4.38094
21
-2.65961
0
LINE
8
BLACK
6
CONTINUOUS
10
4.38094
20
-2.65961
11
4.37796
21
-2.6611
0
LINE
8
BLACK
6
CONTINUOUS
10
4.37796
20
-2.6611
11
4.37615
21
-2.66291
0
LINE
8
BLACK
6
CONTINUOUS
10
4.37615
20
-2.66291
11
4.37502
21
-2.66376
0
LINE
8
BLACK
6
CONTINUOUS
10
4.37502
20
-2.66376
11
4.37226
21
-2.66436
0
LINE
8
BLACK
6
CONTINUOUS
10
4.37226
20
-2.66436
11
4.36962
21
-2.66338
0
LINE
8
BLACK
6
CONTINUOUS
10
4.36962
20
-2.66338
11
4.36793
21
-2.66112
0
LINE
8
BLACK
6
CONTINUOUS
10
4.36793
20
-2.66112
11
4.36773
21
-2.65831
0
LINE
8
BLACK
6
CONTINUOUS
10
4.36773
20
-2.65831
11
4.36908
21
-2.65584
0
LINE
8
BLACK
6
CONTINUOUS
10
4.36908
20
-2.65584
11
4.37146
21
-2.65346
0
LINE
8
BLACK
6
CONTINUOUS
10
4.37146
20
-2.65346
11
4.3726
21
-2.6526
0
LINE
8
BLACK
6
CONTINUOUS
10
4.3726
20
-2.6526
11
4.3727
21
-2.65258
0
LINE
8
BLACK
6
CONTINUOUS
10
4.3727
20
-2.65258
11
4.37276
21
-2.65252
0
LINE
8
BLACK
6
CONTINUOUS
10
4.37276
20
-2.65252
11
4.37753
21
-2.65014
0
LINE
8
BLACK
6
CONTINUOUS
10
4.37753
20
-2.65014
11
4.37888
21
-2.64969
0
LINE
8
BLACK
6
CONTINUOUS
10
4.37888
20
-2.64969
11
4.37933
21
-2.64974
0
LINE
8
BLACK
6
CONTINUOUS
10
4.37933
20
-2.64974
11
4.37976
21
-2.64961
0
LINE
8
BLACK
6
CONTINUOUS
10
4.37976
20
-2.64961
11
4.39167
21
-2.64961
0
LINE
8
BLACK
6
CONTINUOUS
10
4.39167
20
-2.64961
11
4.39308
21
-2.64981
0
LINE
8
BLACK
6
CONTINUOUS
10
4.30327
20
-2.65006
11
4.3054
21
-2.65191
0
LINE
8
BLACK
6
CONTINUOUS
10
4.3054
20
-2.65191
11
4.30619
21
-2.65461
0
LINE
8
BLACK
6
CONTINUOUS
10
4.30619
20
-2.65461
11
4.30619
21
-2.70461
0
LINE
8
BLACK
6
CONTINUOUS
10
4.30619
20
-2.70461
11
4.30599
21
-2.70602
0
LINE
8
BLACK
6
CONTINUOUS
10
4.30599
20
-2.70602
11
4.30446
21
-2.70839
0
LINE
8
BLACK
6
CONTINUOUS
10
4.30446
20
-2.70839
11
4.3019
21
-2.70956
0
LINE
8
BLACK
6
CONTINUOUS
10
4.3019
20
-2.70956
11
4.29911
21
-2.70916
0
LINE
8
BLACK
6
CONTINUOUS
10
4.29911
20
-2.70916
11
4.29698
21
-2.70731
0
LINE
8
BLACK
6
CONTINUOUS
10
4.29698
20
-2.70731
11
4.29619
21
-2.70461
0
LINE
8
BLACK
6
CONTINUOUS
10
4.29619
20
-2.70461
11
4.29619
21
-2.65461
0
LINE
8
BLACK
6
CONTINUOUS
10
4.29619
20
-2.65461
11
4.29639
21
-2.6532
0
LINE
8
BLACK
6
CONTINUOUS
10
4.29639
20
-2.6532
11
4.29792
21
-2.65083
0
LINE
8
BLACK
6
CONTINUOUS
10
4.29792
20
-2.65083
11
4.30048
21
-2.64966
0
LINE
8
BLACK
6
CONTINUOUS
10
4.30048
20
-2.64966
11
4.30327
21
-2.65006
0
LINE
8
BLACK
6
CONTINUOUS
10
4.60761
20
-2.69139
11
4.6083
21
-2.69306
0
LINE
8
BLACK
6
CONTINUOUS
10
4.6083
20
-2.69306
11
4.60761
21
-2.69473
0
LINE
8
BLACK
6
CONTINUOUS
10
4.60761
20
-2.69473
11
4.60594
21
-2.69543
0
LINE
8
BLACK
6
CONTINUOUS
10
4.60594
20
-2.69543
11
4.58806
21
-2.69543
0
LINE
8
BLACK
6
CONTINUOUS
10
4.58806
20
-2.69543
11
4.58639
21
-2.69473
0
LINE
8
BLACK
6
CONTINUOUS
10
4.58639
20
-2.69473
11
4.5857
21
-2.69306
0
LINE
8
BLACK
6
CONTINUOUS
10
4.5857
20
-2.69306
11
4.58639
21
-2.69139
0
LINE
8
BLACK
6
CONTINUOUS
10
4.58639
20
-2.69139
11
4.58806
21
-2.6907
0
LINE
8
BLACK
6
CONTINUOUS
10
4.58806
20
-2.6907
11
4.60594
21
-2.6907
0
LINE
8
BLACK
6
CONTINUOUS
10
4.60594
20
-2.6907
11
4.60761
21
-2.69139
0
LINE
8
BLACK
6
CONTINUOUS
10
4.1491
20
-2.66232
11
4.15098
21
-2.66419
0
LINE
8
BLACK
6
CONTINUOUS
10
4.15098
20
-2.66419
11
4.15157
21
-2.66503
0
LINE
8
BLACK
6
CONTINUOUS
10
4.15157
20
-2.66503
11
4.15158
21
-2.66521
0
LINE
8
BLACK
6
CONTINUOUS
10
4.15158
20
-2.66521
11
4.15169
21
-2.66535
0
LINE
8
BLACK
6
CONTINUOUS
10
4.15169
20
-2.66535
11
4.15357
21
-2.67097
0
LINE
8
BLACK
6
CONTINUOUS
10
4.15357
20
-2.67097
11
4.1537
21
-2.67185
0
LINE
8
BLACK
6
CONTINUOUS
10
4.1537
20
-2.67185
11
4.15372
21
-2.67191
0
LINE
8
BLACK
6
CONTINUOUS
10
4.15372
20
-2.67191
11
4.15372
21
-2.67566
0
LINE
8
BLACK
6
CONTINUOUS
10
4.15372
20
-2.67566
11
4.15356
21
-2.67653
0
LINE
8
BLACK
6
CONTINUOUS
10
4.15356
20
-2.67653
11
4.15357
21
-2.67659
0
LINE
8
BLACK
6
CONTINUOUS
10
4.15357
20
-2.67659
11
4.15169
21
-2.68221
0
LINE
8
BLACK
6
CONTINUOUS
10
4.15169
20
-2.68221
11
4.1512
21
-2.68312
0
LINE
8
BLACK
6
CONTINUOUS
10
4.1512
20
-2.68312
11
4.15105
21
-2.68321
0
LINE
8
BLACK
6
CONTINUOUS
10
4.15105
20
-2.68321
11
4.15098
21
-2.68337
0
LINE
8
BLACK
6
CONTINUOUS
10
4.15098
20
-2.68337
11
4.14723
21
-2.68712
0
LINE
8
BLACK
6
CONTINUOUS
10
4.14723
20
-2.68712
11
4.1465
21
-2.68762
0
LINE
8
BLACK
6
CONTINUOUS
10
4.1465
20
-2.68762
11
4.14646
21
-2.68767
0
LINE
8
BLACK
6
CONTINUOUS
10
4.14646
20
-2.68767
11
4.14271
21
-2.68955
0
LINE
8
BLACK
6
CONTINUOUS
10
4.14271
20
-2.68955
11
4.14222
21
-2.68969
0
LINE
8
BLACK
6
CONTINUOUS
10
4.14222
20
-2.68969
11
4.14211
21
-2.68977
0
LINE
8
BLACK
6
CONTINUOUS
10
4.14211
20
-2.68977
11
4.13461
21
-2.69164
0
LINE
8
BLACK
6
CONTINUOUS
10
4.13461
20
-2.69164
11
4.13402
21
-2.69169
0
LINE
8
BLACK
6
CONTINUOUS
10
4.13402
20
-2.69169
11
4.13389
21
-2.69173
0
LINE
8
BLACK
6
CONTINUOUS
10
4.13389
20
-2.69173
11
4.12827
21
-2.69173
0
LINE
8
BLACK
6
CONTINUOUS
10
4.12827
20
-2.69173
11
4.12769
21
-2.69163
0
LINE
8
BLACK
6
CONTINUOUS
10
4.12769
20
-2.69163
11
4.12755
21
-2.69164
0
LINE
8
BLACK
6
CONTINUOUS
10
4.12755
20
-2.69164
11
4.12005
21
-2.68977
0
LINE
8
BLACK
6
CONTINUOUS
10
4.12005
20
-2.68977
11
4.11959
21
-2.68956
0
LINE
8
BLACK
6
CONTINUOUS
10
4.11959
20
-2.68956
11
4.11945
21
-2.68955
0
LINE
8
BLACK
6
CONTINUOUS
10
4.11945
20
-2.68955
11
4.1157
21
-2.68767
0
LINE
8
BLACK
6
CONTINUOUS
10
4.1157
20
-2.68767
11
4.11499
21
-2.68715
0
LINE
8
BLACK
6
CONTINUOUS
10
4.11499
20
-2.68715
11
4.11493
21
-2.68712
0
LINE
8
BLACK
6
CONTINUOUS
10
4.11493
20
-2.68712
11
4.11118
21
-2.68337
0
LINE
8
BLACK
6
CONTINUOUS
10
4.11118
20
-2.68337
11
4.11059
21
-2.68253
0
LINE
8
BLACK
6
CONTINUOUS
10
4.11059
20
-2.68253
11
4.11058
21
-2.68235
0
LINE
8
BLACK
6
CONTINUOUS
10
4.11058
20
-2.68235
11
4.11047
21
-2.68221
0
LINE
8
BLACK
6
CONTINUOUS
10
4.11047
20
-2.68221
11
4.10859
21
-2.67659
0
LINE
8
BLACK
6
CONTINUOUS
10
4.10859
20
-2.67659
11
4.10846
21
-2.67572
0
LINE
8
BLACK
6
CONTINUOUS
10
4.10846
20
-2.67572
11
4.10844
21
-2.67566
0
LINE
8
BLACK
6
CONTINUOUS
10
4.10844
20
-2.67566
11
4.10844
21
-2.67191
0
LINE
8
BLACK
6
CONTINUOUS
10
4.10844
20
-2.67191
11
4.10859
21
-2.67104
0
LINE
8
BLACK
6
CONTINUOUS
10
4.10859
20
-2.67104
11
4.10859
21
-2.67097
0
LINE
8
BLACK
6
CONTINUOUS
10
4.10859
20
-2.67097
11
4.11047
21
-2.66535
0
LINE
8
BLACK
6
CONTINUOUS
10
4.11047
20
-2.66535
11
4.11096
21
-2.66445
0
LINE
8
BLACK
6
CONTINUOUS
10
4.11096
20
-2.66445
11
4.11111
21
-2.66435
0
LINE
8
BLACK
6
CONTINUOUS
10
4.11111
20
-2.66435
11
4.11118
21
-2.66419
0
LINE
8
BLACK
6
CONTINUOUS
10
4.11118
20
-2.66419
11
4.11306
21
-2.66232
0
LINE
8
BLACK
6
CONTINUOUS
10
4.11306
20
-2.66232
11
4.1139
21
-2.66173
0
LINE
8
BLACK
6
CONTINUOUS
10
4.1139
20
-2.66173
11
4.11591
21
-2.66156
0
LINE
8
BLACK
6
CONTINUOUS
10
4.11591
20
-2.66156
11
4.11756
21
-2.66271
0
LINE
8
BLACK
6
CONTINUOUS
10
4.11756
20
-2.66271
11
4.11809
21
-2.66467
0
LINE
8
BLACK
6
CONTINUOUS
10
4.11809
20
-2.66467
11
4.11723
21
-2.6665
0
LINE
8
BLACK
6
CONTINUOUS
10
4.11723
20
-2.6665
11
4.11585
21
-2.66788
0
LINE
8
BLACK
6
CONTINUOUS
10
4.11585
20
-2.66788
11
4.11435
21
-2.67239
0
LINE
8
BLACK
6
CONTINUOUS
10
4.11435
20
-2.67239
11
4.11435
21
-2.67518
0
LINE
8
BLACK
6
CONTINUOUS
10
4.11435
20
-2.67518
11
4.11585
21
-2.67969
0
LINE
8
BLACK
6
CONTINUOUS
10
4.11585
20
-2.67969
11
4.11877
21
-2.6826
0
LINE
8
BLACK
6
CONTINUOUS
10
4.11877
20
-2.6826
11
4.1218
21
-2.68412
0
LINE
8
BLACK
6
CONTINUOUS
10
4.1218
20
-2.68412
11
4.12863
21
-2.68583
0
LINE
8
BLACK
6
CONTINUOUS
10
4.12863
20
-2.68583
11
4.13353
21
-2.68583
0
LINE
8
BLACK
6
CONTINUOUS
10
4.13353
20
-2.68583
11
4.14036
21
-2.68412
0
LINE
8
BLACK
6
CONTINUOUS
10
4.14036
20
-2.68412
11
4.14339
21
-2.6826
0
LINE
8
BLACK
6
CONTINUOUS
10
4.14339
20
-2.6826
11
4.14631
21
-2.67969
0
LINE
8
BLACK
6
CONTINUOUS
10
4.14631
20
-2.67969
11
4.14781
21
-2.67518
0
LINE
8
BLACK
6
CONTINUOUS
10
4.14781
20
-2.67518
11
4.14781
21
-2.67239
0
LINE
8
BLACK
6
CONTINUOUS
10
4.14781
20
-2.67239
11
4.14631
21
-2.66788
0
LINE
8
BLACK
6
CONTINUOUS
10
4.14631
20
-2.66788
11
4.14493
21
-2.6665
0
LINE
8
BLACK
6
CONTINUOUS
10
4.14493
20
-2.6665
11
4.14434
21
-2.66566
0
LINE
8
BLACK
6
CONTINUOUS
10
4.14434
20
-2.66566
11
4.14416
21
-2.66364
0
LINE
8
BLACK
6
CONTINUOUS
10
4.14416
20
-2.66364
11
4.14532
21
-2.66199
0
LINE
8
BLACK
6
CONTINUOUS
10
4.14532
20
-2.66199
11
4.14727
21
-2.66147
0
LINE
8
BLACK
6
CONTINUOUS
10
4.14727
20
-2.66147
11
4.1491
21
-2.66232
0
LINE
8
BLACK
6
CONTINUOUS
10
4.17173
20
-2.64589
11
4.17243
21
-2.64756
0
LINE
8
BLACK
6
CONTINUOUS
10
4.17243
20
-2.64756
11
4.17243
21
-2.66813
0
LINE
8
BLACK
6
CONTINUOUS
10
4.17243
20
-2.66813
11
4.17173
21
-2.6698
0
LINE
8
BLACK
6
CONTINUOUS
10
4.17173
20
-2.6698
11
4.17006
21
-2.67049
0
LINE
8
BLACK
6
CONTINUOUS
10
4.17006
20
-2.67049
11
4.16839
21
-2.6698
0
LINE
8
BLACK
6
CONTINUOUS
10
4.16839
20
-2.6698
11
4.1677
21
-2.66813
0
LINE
8
BLACK
6
CONTINUOUS
10
4.1677
20
-2.66813
11
4.1677
21
-2.64756
0
LINE
8
BLACK
6
CONTINUOUS
10
4.1677
20
-2.64756
11
4.16839
21
-2.64589
0
LINE
8
BLACK
6
CONTINUOUS
10
4.16839
20
-2.64589
11
4.17006
21
-2.6452
0
LINE
8
BLACK
6
CONTINUOUS
10
4.17006
20
-2.6452
11
4.17173
21
-2.64589
0
LINE
8
BLACK
6
CONTINUOUS
10
4.22961
20
-2.64589
11
4.2303
21
-2.64756
0
LINE
8
BLACK
6
CONTINUOUS
10
4.2303
20
-2.64756
11
4.2303
21
-2.66813
0
LINE
8
BLACK
6
CONTINUOUS
10
4.2303
20
-2.66813
11
4.22961
21
-2.6698
0
LINE
8
BLACK
6
CONTINUOUS
10
4.22961
20
-2.6698
11
4.22794
21
-2.67049
0
LINE
8
BLACK
6
CONTINUOUS
10
4.22794
20
-2.67049
11
4.22627
21
-2.6698
0
LINE
8
BLACK
6
CONTINUOUS
10
4.22627
20
-2.6698
11
4.22557
21
-2.66813
0
LINE
8
BLACK
6
CONTINUOUS
10
4.22557
20
-2.66813
11
4.22557
21
-2.64756
0
LINE
8
BLACK
6
CONTINUOUS
10
4.22557
20
-2.64756
11
4.22627
21
-2.64589
0
LINE
8
BLACK
6
CONTINUOUS
10
4.22627
20
-2.64589
11
4.22794
21
-2.6452
0
LINE
8
BLACK
6
CONTINUOUS
10
4.22794
20
-2.6452
11
4.22961
21
-2.64589
0
LINE
8
BLACK
6
CONTINUOUS
10
4.14428
20
-2.62414
11
4.14441
21
-2.62425
0
LINE
8
BLACK
6
CONTINUOUS
10
4.14441
20
-2.62425
11
4.14459
21
-2.62427
0
LINE
8
BLACK
6
CONTINUOUS
10
4.14459
20
-2.62427
11
4.14834
21
-2.62615
0
LINE
8
BLACK
6
CONTINUOUS
10
4.14834
20
-2.62615
11
4.14904
21
-2.62667
0
LINE
8
BLACK
6
CONTINUOUS
10
4.14904
20
-2.62667
11
4.1491
21
-2.6267
0
LINE
8
BLACK
6
CONTINUOUS
10
4.1491
20
-2.6267
11
4.15098
21
-2.62857
0
LINE
8
BLACK
6
CONTINUOUS
10
4.15098
20
-2.62857
11
4.15148
21
-2.6293
0
LINE
8
BLACK
6
CONTINUOUS
10
4.15148
20
-2.6293
11
4.15153
21
-2.62934
0
LINE
8
BLACK
6
CONTINUOUS
10
4.15153
20
-2.62934
11
4.15341
21
-2.63309
0
LINE
8
BLACK
6
CONTINUOUS
10
4.15341
20
-2.63309
11
4.1537
21
-2.63407
0
LINE
8
BLACK
6
CONTINUOUS
10
4.1537
20
-2.63407
11
4.15366
21
-2.63425
0
LINE
8
BLACK
6
CONTINUOUS
10
4.15366
20
-2.63425
11
4.15372
21
-2.63441
0
LINE
8
BLACK
6
CONTINUOUS
10
4.15372
20
-2.63441
11
4.15372
21
-2.64379
0
LINE
8
BLACK
6
CONTINUOUS
10
4.15372
20
-2.64379
11
4.15354
21
-2.6448
0
LINE
8
BLACK
6
CONTINUOUS
10
4.15354
20
-2.6448
11
4.15343
21
-2.64493
0
LINE
8
BLACK
6
CONTINUOUS
10
4.15343
20
-2.64493
11
4.15341
21
-2.64511
0
LINE
8
BLACK
6
CONTINUOUS
10
4.15341
20
-2.64511
11
4.15153
21
-2.64886
0
LINE
8
BLACK
6
CONTINUOUS
10
4.15153
20
-2.64886
11
4.151
21
-2.64956
0
LINE
8
BLACK
6
CONTINUOUS
10
4.151
20
-2.64956
11
4.15098
21
-2.64962
0
LINE
8
BLACK
6
CONTINUOUS
10
4.15098
20
-2.64962
11
4.1491
21
-2.6515
0
LINE
8
BLACK
6
CONTINUOUS
10
4.1491
20
-2.6515
11
4.14826
21
-2.65209
0
LINE
8
BLACK
6
CONTINUOUS
10
4.14826
20
-2.65209
11
4.14625
21
-2.65226
0
LINE
8
BLACK
6
CONTINUOUS
10
4.14625
20
-2.65226
11
4.1446
21
-2.6511
0
LINE
8
BLACK
6
CONTINUOUS
10
4.1446
20
-2.6511
11
4.14407
21
-2.64915
0
LINE
8
BLACK
6
CONTINUOUS
10
4.14407
20
-2.64915
11
4.14493
21
-2.64732
0
LINE
8
BLACK
6
CONTINUOUS
10
4.14493
20
-2.64732
11
4.14646
21
-2.64579
0
LINE
8
BLACK
6
CONTINUOUS
10
4.14646
20
-2.64579
11
4.14781
21
-2.64309
0
LINE
8
BLACK
6
CONTINUOUS
10
4.14781
20
-2.64309
11
4.14781
21
-2.63511
0
LINE
8
BLACK
6
CONTINUOUS
10
4.14781
20
-2.63511
11
4.14646
21
-2.63241
0
LINE
8
BLACK
6
CONTINUOUS
10
4.14646
20
-2.63241
11
4.14527
21
-2.63121
0
LINE
8
BLACK
6
CONTINUOUS
10
4.14527
20
-2.63121
11
4.14257
21
-2.62987
0
LINE
8
BLACK
6
CONTINUOUS
10
4.14257
20
-2.62987
11
4.13459
21
-2.62987
0
LINE
8
BLACK
6
CONTINUOUS
10
4.13459
20
-2.62987
11
4.13189
21
-2.63121
0
LINE
8
BLACK
6
CONTINUOUS
10
4.13189
20
-2.63121
11
4.13069
21
-2.63241
0
LINE
8
BLACK
6
CONTINUOUS
10
4.13069
20
-2.63241
11
4.12935
21
-2.63511
0
LINE
8
BLACK
6
CONTINUOUS
10
4.12935
20
-2.63511
11
4.12935
21
-2.64309
0
LINE
8
BLACK
6
CONTINUOUS
10
4.12935
20
-2.64309
11
4.13069
21
-2.64579
0
LINE
8
BLACK
6
CONTINUOUS
10
4.13069
20
-2.64579
11
4.13223
21
-2.64732
0
LINE
8
BLACK
6
CONTINUOUS
10
4.13223
20
-2.64732
11
4.13282
21
-2.64816
0
LINE
8
BLACK
6
CONTINUOUS
10
4.13282
20
-2.64816
11
4.13282
21
-2.64818
0
LINE
8
BLACK
6
CONTINUOUS
10
4.13282
20
-2.64818
11
4.13283
21
-2.6482
0
LINE
8
BLACK
6
CONTINUOUS
10
4.13283
20
-2.6482
11
4.13291
21
-2.64919
0
LINE
8
BLACK
6
CONTINUOUS
10
4.13291
20
-2.64919
11
4.13299
21
-2.65017
0
LINE
8
BLACK
6
CONTINUOUS
10
4.13299
20
-2.65017
11
4.13298
21
-2.65019
0
LINE
8
BLACK
6
CONTINUOUS
10
4.13298
20
-2.65019
11
4.13298
21
-2.65021
0
LINE
8
BLACK
6
CONTINUOUS
10
4.13298
20
-2.65021
11
4.1324
21
-2.65102
0
LINE
8
BLACK
6
CONTINUOUS
10
4.1324
20
-2.65102
11
4.13184
21
-2.65183
0
LINE
8
BLACK
6
CONTINUOUS
10
4.13184
20
-2.65183
11
4.13182
21
-2.65183
0
LINE
8
BLACK
6
CONTINUOUS
10
4.13182
20
-2.65183
11
4.13181
21
-2.65185
0
LINE
8
BLACK
6
CONTINUOUS
10
4.13181
20
-2.65185
11
4.13084
21
-2.65209
0
LINE
8
BLACK
6
CONTINUOUS
10
4.13084
20
-2.65209
11
4.12988
21
-2.65235
0
LINE
8
BLACK
6
CONTINUOUS
10
4.12988
20
-2.65235
11
4.12987
21
-2.65234
0
LINE
8
BLACK
6
CONTINUOUS
10
4.12987
20
-2.65234
11
4.12985
21
-2.65235
0
LINE
8
BLACK
6
CONTINUOUS
10
4.12985
20
-2.65235
11
4.1111
21
-2.65047
0
LINE
8
BLACK
6
CONTINUOUS
10
4.1111
20
-2.65047
11
4.11095
21
-2.65043
0
LINE
8
BLACK
6
CONTINUOUS
10
4.11095
20
-2.65043
11
4.11088
21
-2.65044
0
LINE
8
BLACK
6
CONTINUOUS
10
4.11088
20
-2.65044
11
4.11078
21
-2.65038
0
LINE
8
BLACK
6
CONTINUOUS
10
4.11078
20
-2.65038
11
4.11011
21
-2.6502
0
LINE
8
BLACK
6
CONTINUOUS
10
4.11011
20
-2.6502
11
4.10968
21
-2.64975
0
LINE
8
BLACK
6
CONTINUOUS
10
4.10968
20
-2.64975
11
4.10913
21
-2.64943
0
LINE
8
BLACK
6
CONTINUOUS
10
4.10913
20
-2.64943
11
4.10899
21
-2.64905
0
LINE
8
BLACK
6
CONTINUOUS
10
4.10899
20
-2.64905
11
4.1087
21
-2.64875
0
LINE
8
BLACK
6
CONTINUOUS
10
4.1087
20
-2.64875
11
4.10866
21
-2.64812
0
LINE
8
BLACK
6
CONTINUOUS
10
4.10866
20
-2.64812
11
4.10844
21
-2.64754
0
LINE
8
BLACK
6
CONTINUOUS
10
4.10844
20
-2.64754
11
4.10844
21
-2.62879
0
LINE
8
BLACK
6
CONTINUOUS
10
4.10844
20
-2.62879
11
4.10862
21
-2.62778
0
LINE
8
BLACK
6
CONTINUOUS
10
4.10862
20
-2.62778
11
4.10992
21
-2.62623
0
LINE
8
BLACK
6
CONTINUOUS
10
4.10992
20
-2.62623
11
4.11191
21
-2.62588
0
LINE
8
BLACK
6
CONTINUOUS
10
4.11191
20
-2.62588
11
4.11366
21
-2.62689
0
LINE
8
BLACK
6
CONTINUOUS
10
4.11366
20
-2.62689
11
4.11435
21
-2.62879
0
LINE
8
BLACK
6
CONTINUOUS
10
4.11435
20
-2.62879
11
4.11435
21
-2.64486
0
LINE
8
BLACK
6
CONTINUOUS
10
4.11435
20
-2.64486
11
4.12412
21
-2.64584
0
LINE
8
BLACK
6
CONTINUOUS
10
4.12412
20
-2.64584
11
4.12375
21
-2.64511
0
LINE
8
BLACK
6
CONTINUOUS
10
4.12375
20
-2.64511
11
4.12346
21
-2.64412
0
LINE
8
BLACK
6
CONTINUOUS
10
4.12346
20
-2.64412
11
4.1235
21
-2.64395
0
LINE
8
BLACK
6
CONTINUOUS
10
4.1235
20
-2.64395
11
4.12344
21
-2.64379
0
LINE
8
BLACK
6
CONTINUOUS
10
4.12344
20
-2.64379
11
4.12344
21
-2.63441
0
LINE
8
BLACK
6
CONTINUOUS
10
4.12344
20
-2.63441
11
4.12362
21
-2.6334
0
LINE
8
BLACK
6
CONTINUOUS
10
4.12362
20
-2.6334
11
4.12373
21
-2.63327
0
LINE
8
BLACK
6
CONTINUOUS
10
4.12373
20
-2.63327
11
4.12375
21
-2.63309
0
LINE
8
BLACK
6
CONTINUOUS
10
4.12375
20
-2.63309
11
4.12563
21
-2.62934
0
LINE
8
BLACK
6
CONTINUOUS
10
4.12563
20
-2.62934
11
4.12615
21
-2.62863
0
LINE
8
BLACK
6
CONTINUOUS
10
4.12615
20
-2.62863
11
4.12618
21
-2.62857
0
LINE
8
BLACK
6
CONTINUOUS
10
4.12618
20
-2.62857
11
4.12805
21
-2.6267
0
LINE
8
BLACK
6
CONTINUOUS
10
4.12805
20
-2.6267
11
4.12878
21
-2.62619
0
LINE
8
BLACK
6
CONTINUOUS
10
4.12878
20
-2.62619
11
4.12882
21
-2.62615
0
LINE
8
BLACK
6
CONTINUOUS
10
4.12882
20
-2.62615
11
4.13257
21
-2.62427
0
LINE
8
BLACK
6
CONTINUOUS
10
4.13257
20
-2.62427
11
4.13355
21
-2.62398
0
LINE
8
BLACK
6
CONTINUOUS
10
4.13355
20
-2.62398
11
4.13373
21
-2.62402
0
LINE
8
BLACK
6
CONTINUOUS
10
4.13373
20
-2.62402
11
4.13389
21
-2.62396
0
LINE
8
BLACK
6
CONTINUOUS
10
4.13389
20
-2.62396
11
4.14327
21
-2.62396
0
LINE
8
BLACK
6
CONTINUOUS
10
4.14327
20
-2.62396
11
4.14428
21
-2.62414
0
LINE
8
BLACK
6
CONTINUOUS
10
4.41038
20
-2.63571
11
4.41182
21
-2.63768
0
LINE
8
BLACK
6
CONTINUOUS
10
4.41182
20
-2.63768
11
4.41182
21
-2.64011
0
LINE
8
BLACK
6
CONTINUOUS
10
4.41182
20
-2.64011
11
4.41038
21
-2.64208
0
LINE
8
BLACK
6
CONTINUOUS
10
4.41038
20
-2.64208
11
4.40807
21
-2.64283
0
LINE
8
BLACK
6
CONTINUOUS
10
4.40807
20
-2.64283
11
4.37461
21
-2.64283
0
LINE
8
BLACK
6
CONTINUOUS
10
4.37461
20
-2.64283
11
4.37229
21
-2.64208
0
LINE
8
BLACK
6
CONTINUOUS
10
4.37229
20
-2.64208
11
4.37086
21
-2.64011
0
LINE
8
BLACK
6
CONTINUOUS
10
4.37086
20
-2.64011
11
4.37086
21
-2.63768
0
LINE
8
BLACK
6
CONTINUOUS
10
4.37086
20
-2.63768
11
4.37229
21
-2.63571
0
LINE
8
BLACK
6
CONTINUOUS
10
4.37229
20
-2.63571
11
4.37461
21
-2.63496
0
LINE
8
BLACK
6
CONTINUOUS
10
4.37461
20
-2.63496
11
4.40807
21
-2.63496
0
LINE
8
BLACK
6
CONTINUOUS
10
4.40807
20
-2.63496
11
4.41038
21
-2.63571
0
LINE
8
BLACK
6
CONTINUOUS
10
4.36142
20
-2.55248
11
4.36204
21
-2.55248
0
LINE
8
BLACK
6
CONTINUOUS
10
4.36204
20
-2.55248
11
4.36255
21
-2.55284
0
LINE
8
BLACK
6
CONTINUOUS
10
4.36255
20
-2.55284
11
4.36314
21
-2.55304
0
LINE
8
BLACK
6
CONTINUOUS
10
4.36314
20
-2.55304
11
4.36351
21
-2.55354
0
LINE
8
BLACK
6
CONTINUOUS
10
4.36351
20
-2.55354
11
4.36401
21
-2.55391
0
LINE
8
BLACK
6
CONTINUOUS
10
4.36401
20
-2.55391
11
4.3642
21
-2.5545
0
LINE
8
BLACK
6
CONTINUOUS
10
4.3642
20
-2.5545
11
4.36457
21
-2.555
0
LINE
8
BLACK
6
CONTINUOUS
10
4.36457
20
-2.555
11
4.36457
21
-2.55563
0
LINE
8
BLACK
6
CONTINUOUS
10
4.36457
20
-2.55563
11
4.36476
21
-2.55622
0
LINE
8
BLACK
6
CONTINUOUS
10
4.36476
20
-2.55622
11
4.36476
21
-2.63496
0
LINE
8
BLACK
6
CONTINUOUS
10
4.36476
20
-2.63496
11
4.36457
21
-2.63555
0
LINE
8
BLACK
6
CONTINUOUS
10
4.36457
20
-2.63555
11
4.36457
21
-2.63618
0
LINE
8
BLACK
6
CONTINUOUS
10
4.36457
20
-2.63618
11
4.3642
21
-2.63668
0
LINE
8
BLACK
6
CONTINUOUS
10
4.3642
20
-2.63668
11
4.36401
21
-2.63727
0
LINE
8
BLACK
6
CONTINUOUS
10
4.36401
20
-2.63727
11
4.36351
21
-2.63764
0
LINE
8
BLACK
6
CONTINUOUS
10
4.36351
20
-2.63764
11
4.36314
21
-2.63815
0
LINE
8
BLACK
6
CONTINUOUS
10
4.36314
20
-2.63815
11
4.36255
21
-2.63834
0
LINE
8
BLACK
6
CONTINUOUS
10
4.36255
20
-2.63834
11
4.36204
21
-2.6387
0
LINE
8
BLACK
6
CONTINUOUS
10
4.36204
20
-2.6387
11
4.36142
21
-2.6387
0
LINE
8
BLACK
6
CONTINUOUS
10
4.36142
20
-2.6387
11
4.36083
21
-2.6389
0
LINE
8
BLACK
6
CONTINUOUS
10
4.36083
20
-2.6389
11
4.33917
21
-2.6389
0
LINE
8
BLACK
6
CONTINUOUS
10
4.33917
20
-2.6389
11
4.33858
21
-2.6387
0
LINE
8
BLACK
6
CONTINUOUS
10
4.33858
20
-2.6387
11
4.33796
21
-2.6387
0
LINE
8
BLACK
6
CONTINUOUS
10
4.33796
20
-2.6387
11
4.33745
21
-2.63834
0
LINE
8
BLACK
6
CONTINUOUS
10
4.33745
20
-2.63834
11
4.33686
21
-2.63815
0
LINE
8
BLACK
6
CONTINUOUS
10
4.33686
20
-2.63815
11
4.33649
21
-2.63764
0
LINE
8
BLACK
6
CONTINUOUS
10
4.33649
20
-2.63764
11
4.33599
21
-2.63727
0
LINE
8
BLACK
6
CONTINUOUS
10
4.33599
20
-2.63727
11
4.3358
21
-2.63668
0
LINE
8
BLACK
6
CONTINUOUS
10
4.3358
20
-2.63668
11
4.33543
21
-2.63618
0
LINE
8
BLACK
6
CONTINUOUS
10
4.33543
20
-2.63618
11
4.33543
21
-2.63555
0
LINE
8
BLACK
6
CONTINUOUS
10
4.33543
20
-2.63555
11
4.33524
21
-2.63496
0
LINE
8
BLACK
6
CONTINUOUS
10
4.33524
20
-2.63496
11
4.33524
21
-2.55622
0
LINE
8
BLACK
6
CONTINUOUS
10
4.33524
20
-2.55622
11
4.33543
21
-2.55563
0
LINE
8
BLACK
6
CONTINUOUS
10
4.33543
20
-2.55563
11
4.33543
21
-2.555
0
LINE
8
BLACK
6
CONTINUOUS
10
4.33543
20
-2.555
11
4.3358
21
-2.5545
0
LINE
8
BLACK
6
CONTINUOUS
10
4.3358
20
-2.5545
11
4.33599
21
-2.55391
0
LINE
8
BLACK
6
CONTINUOUS
10
4.33599
20
-2.55391
11
4.33649
21
-2.55354
0
LINE
8
BLACK
6
CONTINUOUS
10
4.33649
20
-2.55354
11
4.33686
21
-2.55304
0
LINE
8
BLACK
6
CONTINUOUS
10
4.33686
20
-2.55304
11
4.33745
21
-2.55284
0
LINE
8
BLACK
6
CONTINUOUS
10
4.33745
20
-2.55284
11
4.33796
21
-2.55248
0
LINE
8
BLACK
6
CONTINUOUS
10
4.33796
20
-2.55248
11
4.33858
21
-2.55248
0
LINE
8
BLACK
6
CONTINUOUS
10
4.33858
20
-2.55248
11
4.33917
21
-2.55228
0
LINE
8
BLACK
6
CONTINUOUS
10
4.33917
20
-2.55228
11
4.36083
21
-2.55228
0
LINE
8
BLACK
6
CONTINUOUS
10
4.36083
20
-2.55228
11
4.36142
21
-2.55248
0
LINE
8
BLACK
6
CONTINUOUS
10
4.34311
20
-2.56016
11
4.34311
21
-2.63102
0
LINE
8
BLACK
6
CONTINUOUS
10
4.34311
20
-2.63102
11
4.35689
21
-2.63102
0
LINE
8
BLACK
6
CONTINUOUS
10
4.35689
20
-2.63102
11
4.35689
21
-2.56016
0
LINE
8
BLACK
6
CONTINUOUS
10
4.35689
20
-2.56016
11
4.34311
21
-2.56016
0
LINE
8
BLACK
6
CONTINUOUS
10
4.40151
20
-2.43896
11
4.4022
21
-2.44063
0
LINE
8
BLACK
6
CONTINUOUS
10
4.4022
20
-2.44063
11
4.40151
21
-2.4423
0
LINE
8
BLACK
6
CONTINUOUS
10
4.40151
20
-2.4423
11
4.39984
21
-2.44299
0
LINE
8
BLACK
6
CONTINUOUS
10
4.39984
20
-2.44299
11
4.25024
21
-2.44299
0
LINE
8
BLACK
6
CONTINUOUS
10
4.25024
20
-2.44299
11
4.25024
21
-2.51701
0
LINE
8
BLACK
6
CONTINUOUS
10
4.25024
20
-2.51701
11
4.39984
21
-2.51701
0
LINE
8
BLACK
6
CONTINUOUS
10
4.39984
20
-2.51701
11
4.40151
21
-2.5177
0
LINE
8
BLACK
6
CONTINUOUS
10
4.40151
20
-2.5177
11
4.4022
21
-2.51937
0
LINE
8
BLACK
6
CONTINUOUS
10
4.4022
20
-2.51937
11
4.40151
21
-2.52104
0
LINE
8
BLACK
6
CONTINUOUS
10
4.40151
20
-2.52104
11
4.39984
21
-2.52173
0
LINE
8
BLACK
6
CONTINUOUS
10
4.39984
20
-2.52173
11
4.24787
21
-2.52173
0
LINE
8
BLACK
6
CONTINUOUS
10
4.24787
20
-2.52173
11
4.2462
21
-2.52104
0
LINE
8
BLACK
6
CONTINUOUS
10
4.2462
20
-2.52104
11
4.24551
21
-2.51937
0
LINE
8
BLACK
6
CONTINUOUS
10
4.24551
20
-2.51937
11
4.24551
21
-2.44063
0
LINE
8
BLACK
6
CONTINUOUS
10
4.24551
20
-2.44063
11
4.2462
21
-2.43896
0
LINE
8
BLACK
6
CONTINUOUS
10
4.2462
20
-2.43896
11
4.24787
21
-2.43827
0
LINE
8
BLACK
6
CONTINUOUS
10
4.24787
20
-2.43827
11
4.39984
21
-2.43827
0
LINE
8
BLACK
6
CONTINUOUS
10
4.39984
20
-2.43827
11
4.40151
21
-2.43896
0
LINE
8
BLACK
6
CONTINUOUS
10
4.17273
20
-2.4932
11
4.17343
21
-2.49487
0
LINE
8
BLACK
6
CONTINUOUS
10
4.17343
20
-2.49487
11
4.17343
21
-2.51544
0
LINE
8
BLACK
6
CONTINUOUS
10
4.17343
20
-2.51544
11
4.17273
21
-2.51711
0
LINE
8
BLACK
6
CONTINUOUS
10
4.17273
20
-2.51711
11
4.17106
21
-2.5178
0
LINE
8
BLACK
6
CONTINUOUS
10
4.17106
20
-2.5178
11
4.16939
21
-2.51711
0
LINE
8
BLACK
6
CONTINUOUS
10
4.16939
20
-2.51711
11
4.1687
21
-2.51544
0
LINE
8
BLACK
6
CONTINUOUS
10
4.1687
20
-2.51544
11
4.1687
21
-2.49487
0
LINE
8
BLACK
6
CONTINUOUS
10
4.1687
20
-2.49487
11
4.16939
21
-2.4932
0
LINE
8
BLACK
6
CONTINUOUS
10
4.16939
20
-2.4932
11
4.17106
21
-2.49251
0
LINE
8
BLACK
6
CONTINUOUS
10
4.17106
20
-2.49251
11
4.17273
21
-2.4932
0
LINE
8
BLACK
6
CONTINUOUS
10
4.23061
20
-2.4932
11
4.2313
21
-2.49487
0
LINE
8
BLACK
6
CONTINUOUS
10
4.2313
20
-2.49487
11
4.2313
21
-2.51544
0
LINE
8
BLACK
6
CONTINUOUS
10
4.2313
20
-2.51544
11
4.23061
21
-2.51711
0
LINE
8
BLACK
6
CONTINUOUS
10
4.23061
20
-2.51711
11
4.22894
21
-2.5178
0
LINE
8
BLACK
6
CONTINUOUS
10
4.22894
20
-2.5178
11
4.22727
21
-2.51711
0
LINE
8
BLACK
6
CONTINUOUS
10
4.22727
20
-2.51711
11
4.22657
21
-2.51544
0
LINE
8
BLACK
6
CONTINUOUS
10
4.22657
20
-2.51544
11
4.22657
21
-2.49487
0
LINE
8
BLACK
6
CONTINUOUS
10
4.22657
20
-2.49487
11
4.22727
21
-2.4932
0
LINE
8
BLACK
6
CONTINUOUS
10
4.22727
20
-2.4932
11
4.22894
21
-2.49251
0
LINE
8
BLACK
6
CONTINUOUS
10
4.22894
20
-2.49251
11
4.23061
21
-2.4932
0
LINE
8
BLACK
6
CONTINUOUS
10
4.31618
20
-2.45574
11
4.31625
21
-2.45573
0
LINE
8
BLACK
6
CONTINUOUS
10
4.31625
20
-2.45573
11
4.32187
21
-2.45761
0
LINE
8
BLACK
6
CONTINUOUS
10
4.32187
20
-2.45761
11
4.32277
21
-2.4581
0
LINE
8
BLACK
6
CONTINUOUS
10
4.32277
20
-2.4581
11
4.32287
21
-2.45825
0
LINE
8
BLACK
6
CONTINUOUS
10
4.32287
20
-2.45825
11
4.32303
21
-2.45832
0
LINE
8
BLACK
6
CONTINUOUS
10
4.32303
20
-2.45832
11
4.32678
21
-2.46207
0
LINE
8
BLACK
6
CONTINUOUS
10
4.32678
20
-2.46207
11
4.32728
21
-2.4628
0
LINE
8
BLACK
6
CONTINUOUS
10
4.32728
20
-2.4628
11
4.32733
21
-2.46284
0
LINE
8
BLACK
6
CONTINUOUS
10
4.32733
20
-2.46284
11
4.3292
21
-2.46659
0
LINE
8
BLACK
6
CONTINUOUS
10
4.3292
20
-2.46659
11
4.32935
21
-2.46708
0
LINE
8
BLACK
6
CONTINUOUS
10
4.32935
20
-2.46708
11
4.32943
21
-2.46719
0
LINE
8
BLACK
6
CONTINUOUS
10
4.32943
20
-2.46719
11
4.3313
21
-2.47469
0
LINE
8
BLACK
6
CONTINUOUS
10
4.3313
20
-2.47469
11
4.33134
21
-2.47528
0
LINE
8
BLACK
6
CONTINUOUS
10
4.33134
20
-2.47528
11
4.33139
21
-2.47541
0
LINE
8
BLACK
6
CONTINUOUS
10
4.33139
20
-2.47541
11
4.33139
21
-2.48103
0
LINE
8
BLACK
6
CONTINUOUS
10
4.33139
20
-2.48103
11
4.33129
21
-2.48161
0
LINE
8
BLACK
6
CONTINUOUS
10
4.33129
20
-2.48161
11
4.3313
21
-2.48175
0
LINE
8
BLACK
6
CONTINUOUS
10
4.3313
20
-2.48175
11
4.32943
21
-2.48925
0
LINE
8
BLACK
6
CONTINUOUS
10
4.32943
20
-2.48925
11
4.32922
21
-2.48971
0
LINE
8
BLACK
6
CONTINUOUS
10
4.32922
20
-2.48971
11
4.3292
21
-2.48985
0
LINE
8
BLACK
6
CONTINUOUS
10
4.3292
20
-2.48985
11
4.32733
21
-2.4936
0
LINE
8
BLACK
6
CONTINUOUS
10
4.32733
20
-2.4936
11
4.3268
21
-2.49431
0
LINE
8
BLACK
6
CONTINUOUS
10
4.3268
20
-2.49431
11
4.32678
21
-2.49437
0
LINE
8
BLACK
6
CONTINUOUS
10
4.32678
20
-2.49437
11
4.32303
21
-2.49812
0
LINE
8
BLACK
6
CONTINUOUS
10
4.32303
20
-2.49812
11
4.32219
21
-2.49871
0
LINE
8
BLACK
6
CONTINUOUS
10
4.32219
20
-2.49871
11
4.32201
21
-2.49872
0
LINE
8
BLACK
6
CONTINUOUS
10
4.32201
20
-2.49872
11
4.32187
21
-2.49883
0
LINE
8
BLACK
6
CONTINUOUS
10
4.32187
20
-2.49883
11
4.31625
21
-2.50071
0
LINE
8
BLACK
6
CONTINUOUS
10
4.31625
20
-2.50071
11
4.31538
21
-2.50084
0
LINE
8
BLACK
6
CONTINUOUS
10
4.31538
20
-2.50084
11
4.31531
21
-2.50086
0
LINE
8
BLACK
6
CONTINUOUS
10
4.31531
20
-2.50086
11
4.30594
21
-2.50086
0
LINE
8
BLACK
6
CONTINUOUS
10
4.30594
20
-2.50086
11
4.30556
21
-2.50079
0
LINE
8
BLACK
6
CONTINUOUS
10
4.30556
20
-2.50079
11
4.30543
21
-2.50081
0
LINE
8
BLACK
6
CONTINUOUS
10
4.30543
20
-2.50081
11
4.30531
21
-2.50075
0
LINE
8
BLACK
6
CONTINUOUS
10
4.30531
20
-2.50075
11
4.30493
21
-2.50068
0
LINE
8
BLACK
6
CONTINUOUS
10
4.30493
20
-2.50068
11
4.30434
21
-2.50019
0
LINE
8
BLACK
6
CONTINUOUS
10
4.30434
20
-2.50019
11
4.30368
21
-2.4998
0
LINE
8
BLACK
6
CONTINUOUS
10
4.30368
20
-2.4998
11
4.30359
21
-2.49955
0
LINE
8
BLACK
6
CONTINUOUS
10
4.30359
20
-2.49955
11
4.30338
21
-2.49938
0
LINE
8
BLACK
6
CONTINUOUS
10
4.30338
20
-2.49938
11
4.30325
21
-2.49863
0
LINE
8
BLACK
6
CONTINUOUS
10
4.30325
20
-2.49863
11
4.30299
21
-2.49791
0
LINE
8
BLACK
6
CONTINUOUS
10
4.30299
20
-2.49791
11
4.30299
21
-2.45854
0
LINE
8
BLACK
6
CONTINUOUS
10
4.30299
20
-2.45854
11
4.30306
21
-2.45815
0
LINE
8
BLACK
6
CONTINUOUS
10
4.30306
20
-2.45815
11
4.30303
21
-2.45802
0
LINE
8
BLACK
6
CONTINUOUS
10
4.30303
20
-2.45802
11
4.3031
21
-2.45791
0
LINE
8
BLACK
6
CONTINUOUS
10
4.3031
20
-2.45791
11
4.30317
21
-2.45753
0
LINE
8
BLACK
6
CONTINUOUS
10
4.30317
20
-2.45753
11
4.30366
21
-2.45694
0
LINE
8
BLACK
6
CONTINUOUS
10
4.30366
20
-2.45694
11
4.30404
21
-2.45627
0
LINE
8
BLACK
6
CONTINUOUS
10
4.30404
20
-2.45627
11
4.30429
21
-2.45618
0
LINE
8
BLACK
6
CONTINUOUS
10
4.30429
20
-2.45618
11
4.30446
21
-2.45598
0
LINE
8
BLACK
6
CONTINUOUS
10
4.30446
20
-2.45598
11
4.30522
21
-2.45585
0
LINE
8
BLACK
6
CONTINUOUS
10
4.30522
20
-2.45585
11
4.30594
21
-2.45558
0
LINE
8
BLACK
6
CONTINUOUS
10
4.30594
20
-2.45558
11
4.31531
21
-2.45558
0
LINE
8
BLACK
6
CONTINUOUS
10
4.31531
20
-2.45558
11
4.31618
21
-2.45574
0
LINE
8
BLACK
6
CONTINUOUS
10
4.30889
20
-2.49495
11
4.31484
21
-2.49495
0
LINE
8
BLACK
6
CONTINUOUS
10
4.31484
20
-2.49495
11
4.31934
21
-2.49345
0
LINE
8
BLACK
6
CONTINUOUS
10
4.31934
20
-2.49345
11
4.32226
21
-2.49053
0
LINE
8
BLACK
6
CONTINUOUS
10
4.32226
20
-2.49053
11
4.32378
21
-2.4875
0
LINE
8
BLACK
6
CONTINUOUS
10
4.32378
20
-2.4875
11
4.32549
21
-2.48067
0
LINE
8
BLACK
6
CONTINUOUS
10
4.32549
20
-2.48067
11
4.32549
21
-2.47577
0
LINE
8
BLACK
6
CONTINUOUS
10
4.32549
20
-2.47577
11
4.32378
21
-2.46894
0
LINE
8
BLACK
6
CONTINUOUS
10
4.32378
20
-2.46894
11
4.32226
21
-2.46591
0
LINE
8
BLACK
6
CONTINUOUS
10
4.32226
20
-2.46591
11
4.31934
21
-2.46299
0
LINE
8
BLACK
6
CONTINUOUS
10
4.31934
20
-2.46299
11
4.31484
21
-2.46149
0
LINE
8
BLACK
6
CONTINUOUS
10
4.31484
20
-2.46149
11
4.30889
21
-2.46149
0
LINE
8
BLACK
6
CONTINUOUS
10
4.30889
20
-2.46149
11
4.30889
21
-2.49495
0
LINE
8
BLACK
6
CONTINUOUS
10
4.35503
20
-2.45566
11
4.3552
21
-2.45563
0
LINE
8
BLACK
6
CONTINUOUS
10
4.3552
20
-2.45563
11
4.35594
21
-2.45606
0
LINE
8
BLACK
6
CONTINUOUS
10
4.35594
20
-2.45606
11
4.35672
21
-2.4564
0
LINE
8
BLACK
6
CONTINUOUS
10
4.35672
20
-2.4564
11
4.3568
21
-2.45655
0
LINE
8
BLACK
6
CONTINUOUS
10
4.3568
20
-2.45655
11
4.35695
21
-2.45664
0
LINE
8
BLACK
6
CONTINUOUS
10
4.35695
20
-2.45664
11
4.35724
21
-2.45744
0
LINE
8
BLACK
6
CONTINUOUS
10
4.35724
20
-2.45744
11
4.35762
21
-2.45821
0
LINE
8
BLACK
6
CONTINUOUS
10
4.35762
20
-2.45821
11
4.35758
21
-2.45838
0
LINE
8
BLACK
6
CONTINUOUS
10
4.35758
20
-2.45838
11
4.35764
21
-2.45854
0
LINE
8
BLACK
6
CONTINUOUS
10
4.35764
20
-2.45854
11
4.35764
21
-2.49495
0
LINE
8
BLACK
6
CONTINUOUS
10
4.35764
20
-2.49495
11
4.36593
21
-2.49495
0
LINE
8
BLACK
6
CONTINUOUS
10
4.36593
20
-2.49495
11
4.36694
21
-2.49513
0
LINE
8
BLACK
6
CONTINUOUS
10
4.36694
20
-2.49513
11
4.36849
21
-2.49643
0
LINE
8
BLACK
6
CONTINUOUS
10
4.36849
20
-2.49643
11
4.36884
21
-2.49842
0
LINE
8
BLACK
6
CONTINUOUS
10
4.36884
20
-2.49842
11
4.36783
21
-2.50017
0
LINE
8
BLACK
6
CONTINUOUS
10
4.36783
20
-2.50017
11
4.36593
21
-2.50086
0
LINE
8
BLACK
6
CONTINUOUS
10
4.36593
20
-2.50086
11
4.34344
21
-2.50086
0
LINE
8
BLACK
6
CONTINUOUS
10
4.34344
20
-2.50086
11
4.34243
21
-2.50068
0
LINE
8
BLACK
6
CONTINUOUS
10
4.34243
20
-2.50068
11
4.34088
21
-2.49938
0
LINE
8
BLACK
6
CONTINUOUS
10
4.34088
20
-2.49938
11
4.34053
21
-2.49739
0
LINE
8
BLACK
6
CONTINUOUS
10
4.34053
20
-2.49739
11
4.34154
21
-2.49564
0
LINE
8
BLACK
6
CONTINUOUS
10
4.34154
20
-2.49564
11
4.34344
21
-2.49495
0
LINE
8
BLACK
6
CONTINUOUS
10
4.34344
20
-2.49495
11
4.35173
21
-2.49495
0
LINE
8
BLACK
6
CONTINUOUS
10
4.35173
20
-2.49495
11
4.35173
21
-2.46754
0
LINE
8
BLACK
6
CONTINUOUS
10
4.35173
20
-2.46754
11
4.34927
21
-2.47
0
LINE
8
BLACK
6
CONTINUOUS
10
4.34927
20
-2.47
11
4.34855
21
-2.4705
0
LINE
8
BLACK
6
CONTINUOUS
10
4.34855
20
-2.4705
11
4.34851
21
-2.47055
0
LINE
8
BLACK
6
CONTINUOUS
10
4.34851
20
-2.47055
11
4.34476
21
-2.47243
0
LINE
8
BLACK
6
CONTINUOUS
10
4.34476
20
-2.47243
11
4.34377
21
-2.47272
0
LINE
8
BLACK
6
CONTINUOUS
10
4.34377
20
-2.47272
11
4.34181
21
-2.47225
0
LINE
8
BLACK
6
CONTINUOUS
10
4.34181
20
-2.47225
11
4.34061
21
-2.47063
0
LINE
8
BLACK
6
CONTINUOUS
10
4.34061
20
-2.47063
11
4.34073
21
-2.46861
0
LINE
8
BLACK
6
CONTINUOUS
10
4.34073
20
-2.46861
11
4.34212
21
-2.46714
0
LINE
8
BLACK
6
CONTINUOUS
10
4.34212
20
-2.46714
11
4.34544
21
-2.46548
0
LINE
8
BLACK
6
CONTINUOUS
10
4.34544
20
-2.46548
11
4.34864
21
-2.46228
0
LINE
8
BLACK
6
CONTINUOUS
10
4.34864
20
-2.46228
11
4.35223
21
-2.4569
0
LINE
8
BLACK
6
CONTINUOUS
10
4.35223
20
-2.4569
11
4.35294
21
-2.45616
0
LINE
8
BLACK
6
CONTINUOUS
10
4.35294
20
-2.45616
11
4.3531
21
-2.45611
0
LINE
8
BLACK
6
CONTINUOUS
10
4.3531
20
-2.45611
11
4.35321
21
-2.45598
0
LINE
8
BLACK
6
CONTINUOUS
10
4.35321
20
-2.45598
11
4.35405
21
-2.45583
0
LINE
8
BLACK
6
CONTINUOUS
10
4.35405
20
-2.45583
11
4.35488
21
-2.45559
0
LINE
8
BLACK
6
CONTINUOUS
10
4.35488
20
-2.45559
11
4.35503
21
-2.45566
0
LINE
8
BLACK
6
CONTINUOUS
10
4.15624
20
-2.45347
11
4.15812
21
-2.45535
0
LINE
8
BLACK
6
CONTINUOUS
10
4.15812
20
-2.45535
11
4.15871
21
-2.45619
0
LINE
8
BLACK
6
CONTINUOUS
10
4.15871
20
-2.45619
11
4.15872
21
-2.45636
0
LINE
8
BLACK
6
CONTINUOUS
10
4.15872
20
-2.45636
11
4.15883
21
-2.4565
0
LINE
8
BLACK
6
CONTINUOUS
10
4.15883
20
-2.4565
11
4.16071
21
-2.46213
0
LINE
8
BLACK
6
CONTINUOUS
10
4.16071
20
-2.46213
11
4.16084
21
-2.463
0
LINE
8
BLACK
6
CONTINUOUS
10
4.16084
20
-2.463
11
4.16086
21
-2.46306
0
LINE
8
BLACK
6
CONTINUOUS
10
4.16086
20
-2.46306
11
4.16086
21
-2.46681
0
LINE
8
BLACK
6
CONTINUOUS
10
4.16086
20
-2.46681
11
4.16071
21
-2.46768
0
LINE
8
BLACK
6
CONTINUOUS
10
4.16071
20
-2.46768
11
4.16071
21
-2.46774
0
LINE
8
BLACK
6
CONTINUOUS
10
4.16071
20
-2.46774
11
4.15883
21
-2.47337
0
LINE
8
BLACK
6
CONTINUOUS
10
4.15883
20
-2.47337
11
4.15834
21
-2.47427
0
LINE
8
BLACK
6
CONTINUOUS
10
4.15834
20
-2.47427
11
4.15819
21
-2.47436
0
LINE
8
BLACK
6
CONTINUOUS
10
4.15819
20
-2.47436
11
4.15812
21
-2.47452
0
LINE
8
BLACK
6
CONTINUOUS
10
4.15812
20
-2.47452
11
4.15437
21
-2.47827
0
LINE
8
BLACK
6
CONTINUOUS
10
4.15437
20
-2.47827
11
4.15365
21
-2.47878
0
LINE
8
BLACK
6
CONTINUOUS
10
4.15365
20
-2.47878
11
4.1536
21
-2.47883
0
LINE
8
BLACK
6
CONTINUOUS
10
4.1536
20
-2.47883
11
4.14985
21
-2.4807
0
LINE
8
BLACK
6
CONTINUOUS
10
4.14985
20
-2.4807
11
4.14936
21
-2.48085
0
LINE
8
BLACK
6
CONTINUOUS
10
4.14936
20
-2.48085
11
4.14925
21
-2.48092
0
LINE
8
BLACK
6
CONTINUOUS
10
4.14925
20
-2.48092
11
4.14175
21
-2.4828
0
LINE
8
BLACK
6
CONTINUOUS
10
4.14175
20
-2.4828
11
4.14116
21
-2.48284
0
LINE
8
BLACK
6
CONTINUOUS
10
4.14116
20
-2.48284
11
4.14103
21
-2.48289
0
LINE
8
BLACK
6
CONTINUOUS
10
4.14103
20
-2.48289
11
4.13541
21
-2.48289
0
LINE
8
BLACK
6
CONTINUOUS
10
4.13541
20
-2.48289
11
4.13483
21
-2.48278
0
LINE
8
BLACK
6
CONTINUOUS
10
4.13483
20
-2.48278
11
4.13469
21
-2.4828
0
LINE
8
BLACK
6
CONTINUOUS
10
4.13469
20
-2.4828
11
4.12719
21
-2.48092
0
LINE
8
BLACK
6
CONTINUOUS
10
4.12719
20
-2.48092
11
4.12673
21
-2.48072
0
LINE
8
BLACK
6
CONTINUOUS
10
4.12673
20
-2.48072
11
4.12659
21
-2.4807
0
LINE
8
BLACK
6
CONTINUOUS
10
4.12659
20
-2.4807
11
4.12284
21
-2.47883
0
LINE
8
BLACK
6
CONTINUOUS
10
4.12284
20
-2.47883
11
4.12213
21
-2.4783
0
LINE
8
BLACK
6
CONTINUOUS
10
4.12213
20
-2.4783
11
4.12207
21
-2.47827
0
LINE
8
BLACK
6
CONTINUOUS
10
4.12207
20
-2.47827
11
4.11832
21
-2.47452
0
LINE
8
BLACK
6
CONTINUOUS
10
4.11832
20
-2.47452
11
4.11773
21
-2.47368
0
LINE
8
BLACK
6
CONTINUOUS
10
4.11773
20
-2.47368
11
4.11772
21
-2.47351
0
LINE
8
BLACK
6
CONTINUOUS
10
4.11772
20
-2.47351
11
4.11761
21
-2.47337
0
LINE
8
BLACK
6
CONTINUOUS
10
4.11761
20
-2.47337
11
4.11573
21
-2.46774
0
LINE
8
BLACK
6
CONTINUOUS
10
4.11573
20
-2.46774
11
4.11561
21
-2.46687
0
LINE
8
BLACK
6
CONTINUOUS
10
4.11561
20
-2.46687
11
4.11558
21
-2.46681
0
LINE
8
BLACK
6
CONTINUOUS
10
4.11558
20
-2.46681
11
4.11558
21
-2.46306
0
LINE
8
BLACK
6
CONTINUOUS
10
4.11558
20
-2.46306
11
4.11574
21
-2.46219
0
LINE
8
BLACK
6
CONTINUOUS
10
4.11574
20
-2.46219
11
4.11573
21
-2.46213
0
LINE
8
BLACK
6
CONTINUOUS
10
4.11573
20
-2.46213
11
4.11761
21
-2.4565
0
LINE
8
BLACK
6
CONTINUOUS
10
4.11761
20
-2.4565
11
4.1181
21
-2.4556
0
LINE
8
BLACK
6
CONTINUOUS
10
4.1181
20
-2.4556
11
4.11825
21
-2.45551
0
LINE
8
BLACK
6
CONTINUOUS
10
4.11825
20
-2.45551
11
4.11832
21
-2.45535
0
LINE
8
BLACK
6
CONTINUOUS
10
4.11832
20
-2.45535
11
4.1202
21
-2.45347
0
LINE
8
BLACK
6
CONTINUOUS
10
4.1202
20
-2.45347
11
4.12104
21
-2.45289
0
LINE
8
BLACK
6
CONTINUOUS
10
4.12104
20
-2.45289
11
4.12305
21
-2.45271
0
LINE
8
BLACK
6
CONTINUOUS
10
4.12305
20
-2.45271
11
4.1247
21
-2.45387
0
LINE
8
BLACK
6
CONTINUOUS
10
4.1247
20
-2.45387
11
4.12523
21
-2.45582
0
LINE
8
BLACK
6
CONTINUOUS
10
4.12523
20
-2.45582
11
4.12437
21
-2.45765
0
LINE
8
BLACK
6
CONTINUOUS
10
4.12437
20
-2.45765
11
4.12299
21
-2.45903
0
LINE
8
BLACK
6
CONTINUOUS
10
4.12299
20
-2.45903
11
4.12149
21
-2.46354
0
LINE
8
BLACK
6
CONTINUOUS
10
4.12149
20
-2.46354
11
4.12149
21
-2.46633
0
LINE
8
BLACK
6
CONTINUOUS
10
4.12149
20
-2.46633
11
4.12299
21
-2.47084
0
LINE
8
BLACK
6
CONTINUOUS
10
4.12299
20
-2.47084
11
4.12591
21
-2.47376
0
LINE
8
BLACK
6
CONTINUOUS
10
4.12591
20
-2.47376
11
4.12894
21
-2.47527
0
LINE
8
BLACK
6
CONTINUOUS
10
4.12894
20
-2.47527
11
4.13577
21
-2.47698
0
LINE
8
BLACK
6
CONTINUOUS
10
4.13577
20
-2.47698
11
4.14067
21
-2.47698
0
LINE
8
BLACK
6
CONTINUOUS
10
4.14067
20
-2.47698
11
4.1475
21
-2.47527
0
LINE
8
BLACK
6
CONTINUOUS
10
4.1475
20
-2.47527
11
4.15053
21
-2.47376
0
LINE
8
BLACK
6
CONTINUOUS
10
4.15053
20
-2.47376
11
4.15345
21
-2.47084
0
LINE
8
BLACK
6
CONTINUOUS
10
4.15345
20
-2.47084
11
4.15495
21
-2.46633
0
LINE
8
BLACK
6
CONTINUOUS
10
4.15495
20
-2.46633
11
4.15495
21
-2.46354
0
LINE
8
BLACK
6
CONTINUOUS
10
4.15495
20
-2.46354
11
4.15345
21
-2.45903
0
LINE
8
BLACK
6
CONTINUOUS
10
4.15345
20
-2.45903
11
4.15207
21
-2.45765
0
LINE
8
BLACK
6
CONTINUOUS
10
4.15207
20
-2.45765
11
4.15148
21
-2.45681
0
LINE
8
BLACK
6
CONTINUOUS
10
4.15148
20
-2.45681
11
4.1513
21
-2.4548
0
LINE
8
BLACK
6
CONTINUOUS
10
4.1513
20
-2.4548
11
4.15246
21
-2.45314
0
LINE
8
BLACK
6
CONTINUOUS
10
4.15246
20
-2.45314
11
4.15441
21
-2.45262
0
LINE
8
BLACK
6
CONTINUOUS
10
4.15441
20
-2.45262
11
4.15624
21
-2.45347
0
LINE
8
BLACK
6
CONTINUOUS
10
4.14704
20
-2.41429
11
4.14774
21
-2.41619
0
LINE
8
BLACK
6
CONTINUOUS
10
4.14774
20
-2.41619
11
4.14774
21
-2.41886
0
LINE
8
BLACK
6
CONTINUOUS
10
4.14774
20
-2.41886
11
4.15791
21
-2.41886
0
LINE
8
BLACK
6
CONTINUOUS
10
4.15791
20
-2.41886
11
4.15892
21
-2.41904
0
LINE
8
BLACK
6
CONTINUOUS
10
4.15892
20
-2.41904
11
4.16046
21
-2.42034
0
LINE
8
BLACK
6
CONTINUOUS
10
4.16046
20
-2.42034
11
4.16081
21
-2.42233
0
LINE
8
BLACK
6
CONTINUOUS
10
4.16081
20
-2.42233
11
4.1598
21
-2.42408
0
LINE
8
BLACK
6
CONTINUOUS
10
4.1598
20
-2.42408
11
4.15791
21
-2.42477
0
LINE
8
BLACK
6
CONTINUOUS
10
4.15791
20
-2.42477
11
4.14774
21
-2.42477
0
LINE
8
BLACK
6
CONTINUOUS
10
4.14774
20
-2.42477
11
4.14774
21
-2.44056
0
LINE
8
BLACK
6
CONTINUOUS
10
4.14774
20
-2.44056
11
4.14756
21
-2.44157
0
LINE
8
BLACK
6
CONTINUOUS
10
4.14756
20
-2.44157
11
4.14741
21
-2.44175
0
LINE
8
BLACK
6
CONTINUOUS
10
4.14741
20
-2.44175
11
4.14738
21
-2.44197
0
LINE
8
BLACK
6
CONTINUOUS
10
4.14738
20
-2.44197
11
4.14678
21
-2.4425
0
LINE
8
BLACK
6
CONTINUOUS
10
4.14678
20
-2.4425
11
4.14626
21
-2.44312
0
LINE
8
BLACK
6
CONTINUOUS
10
4.14626
20
-2.44312
11
4.14604
21
-2.44316
0
LINE
8
BLACK
6
CONTINUOUS
10
4.14604
20
-2.44316
11
4.14587
21
-2.44331
0
LINE
8
BLACK
6
CONTINUOUS
10
4.14587
20
-2.44331
11
4.14506
21
-2.44333
0
LINE
8
BLACK
6
CONTINUOUS
10
4.14506
20
-2.44333
11
4.14427
21
-2.44347
0
LINE
8
BLACK
6
CONTINUOUS
10
4.14427
20
-2.44347
11
4.14407
21
-2.44336
0
LINE
8
BLACK
6
CONTINUOUS
10
4.14407
20
-2.44336
11
4.14385
21
-2.44336
0
LINE
8
BLACK
6
CONTINUOUS
10
4.14385
20
-2.44336
11
4.11573
21
-2.43399
0
LINE
8
BLACK
6
CONTINUOUS
10
4.11573
20
-2.43399
11
4.11483
21
-2.4335
0
LINE
8
BLACK
6
CONTINUOUS
10
4.11483
20
-2.4335
11
4.11377
21
-2.43178
0
LINE
8
BLACK
6
CONTINUOUS
10
4.11377
20
-2.43178
11
4.11406
21
-2.42978
0
LINE
8
BLACK
6
CONTINUOUS
10
4.11406
20
-2.42978
11
4.11558
21
-2.42844
0
LINE
8
BLACK
6
CONTINUOUS
10
4.11558
20
-2.42844
11
4.1176
21
-2.42839
0
LINE
8
BLACK
6
CONTINUOUS
10
4.1176
20
-2.42839
11
4.14183
21
-2.43647
0
LINE
8
BLACK
6
CONTINUOUS
10
4.14183
20
-2.43647
11
4.14183
21
-2.42477
0
LINE
8
BLACK
6
CONTINUOUS
10
4.14183
20
-2.42477
11
4.13166
21
-2.42477
0
LINE
8
BLACK
6
CONTINUOUS
10
4.13166
20
-2.42477
11
4.13065
21
-2.42459
0
LINE
8
BLACK
6
CONTINUOUS
10
4.13065
20
-2.42459
11
4.1291
21
-2.42329
0
LINE
8
BLACK
6
CONTINUOUS
10
4.1291
20
-2.42329
11
4.12875
21
-2.4213
0
LINE
8
BLACK
6
CONTINUOUS
10
4.12875
20
-2.4213
11
4.12976
21
-2.41955
0
LINE
8
BLACK
6
CONTINUOUS
10
4.12976
20
-2.41955
11
4.13166
21
-2.41886
0
LINE
8
BLACK
6
CONTINUOUS
10
4.13166
20
-2.41886
11
4.14183
21
-2.41886
0
LINE
8
BLACK
6
CONTINUOUS
10
4.14183
20
-2.41886
11
4.14183
21
-2.41619
0
LINE
8
BLACK
6
CONTINUOUS
10
4.14183
20
-2.41619
11
4.14201
21
-2.41518
0
LINE
8
BLACK
6
CONTINUOUS
10
4.14201
20
-2.41518
11
4.14331
21
-2.41363
0
LINE
8
BLACK
6
CONTINUOUS
10
4.14331
20
-2.41363
11
4.1453
21
-2.41328
0
LINE
8
BLACK
6
CONTINUOUS
10
4.1453
20
-2.41328
11
4.14704
21
-2.41429
0
CIRCLE
8
BLACK
10
4.8
20
-2.6
40
0.00688976
0
CIRCLE
8
BLACK
10
4
20
-3
40
0.00688976
0
CIRCLE
8
BLACK
10
4.8
20
-3
40
0.00688976
0
CIRCLE
8
BLACK
10
4
20
-2.6
40
0.00688976
  0
ENDSEC
  0
EOF
