  0
SECTION
  2
HEADER
  9
$ANGBASE
  50
0.0
  9
$ANGDIR
  70
1
  9
$MEASUREMENT
  70
0
  0
ENDSEC
  0
SECTION
  2
TABLES
  0
TABLE
  2
LTYPE
  70
4
  0
LTYPE
  5
40F
  2
CONTINUOUS
  70
0
  3
Solid line
  72
65
  73
0
  40
0.0
  0
LTYPE
  5
410
  2
DASHDOT
 70
0
  3
Dash Dot ____ _ ____ _
 72
65
 73
4
 40
2.0
 49
1.25
 49
-0.25
 49
0.25
 49
-0.25
  0
LTYPE
  5
411
  2
DASHED
 70
0
  3
Dashed __ __ __ __ __
 72
65
 73
2
 40
0.75
 49
0.5
 49
-0.25
  0
LTYPE
  5
43B
  2
DOTTED
 70
0
  3
Dotted .  .  .  .
 72
65
 73
2
 40
0.2
 49
0.0
 49
-0.2
  0
ENDTAB
  0
TABLE
  2
STYLE
  70
4
  0
STYLE
  2
KICAD
  70
0
  40
0
  41
1
  42
1
  50
0
  71
0
  3
isocp.shx
  0
STYLE
  2
KICADB
  70
0
  40
0
  41
1
  42
1
  50
0
  71
0
  3
isocp.shx
  0
STYLE
  2
KICADI
  70
0
  40
0
  41
1
  42
1
  50
15
  71
0
  3
isocp.shx
  0
STYLE
  2
KICADBI
  70
0
  40
0
  41
1
  42
1
  50
15
  71
0
  3
isocp.shx
  0
ENDTAB
  0
TABLE
  2
LAYER
  70
1
  0
LAYER
  2
BLACK
  70
0
  62
7
  6
CONTINUOUS
  0
ENDTAB
  0
ENDSEC
  0
SECTION
  2
ENTITIES
0
LINE
8
BLACK
6
CONTINUOUS
10
4.33435
20
-2.58982
11
4.33626
21
-2.5911
0
LINE
8
BLACK
6
CONTINUOUS
10
4.33626
20
-2.5911
11
4.33754
21
-2.59302
0
LINE
8
BLACK
6
CONTINUOUS
10
4.33754
20
-2.59302
11
4.33799
21
-2.59528
0
LINE
8
BLACK
6
CONTINUOUS
10
4.33799
20
-2.59528
11
4.33799
21
-2.65039
0
LINE
8
BLACK
6
CONTINUOUS
10
4.33799
20
-2.65039
11
4.33754
21
-2.65265
0
LINE
8
BLACK
6
CONTINUOUS
10
4.33754
20
-2.65265
11
4.33626
21
-2.65457
0
LINE
8
BLACK
6
CONTINUOUS
10
4.33626
20
-2.65457
11
4.33435
21
-2.65585
0
LINE
8
BLACK
6
CONTINUOUS
10
4.33435
20
-2.65585
11
4.33209
21
-2.6563
0
LINE
8
BLACK
6
CONTINUOUS
10
4.33209
20
-2.6563
11
4.33146
21
-2.6563
0
LINE
8
BLACK
6
CONTINUOUS
10
4.33146
20
-2.6563
11
4.33146
21
-2.88446
0
LINE
8
BLACK
6
CONTINUOUS
10
4.33146
20
-2.88446
11
4.33134
21
-2.88533
0
LINE
8
BLACK
6
CONTINUOUS
10
4.33134
20
-2.88533
11
4.33135
21
-2.8855
0
LINE
8
BLACK
6
CONTINUOUS
10
4.33135
20
-2.8855
11
4.3313
21
-2.8856
0
LINE
8
BLACK
6
CONTINUOUS
10
4.3313
20
-2.8856
11
4.33127
21
-2.88584
0
LINE
8
BLACK
6
CONTINUOUS
10
4.33127
20
-2.88584
11
4.33061
21
-2.88687
0
LINE
8
BLACK
6
CONTINUOUS
10
4.33061
20
-2.88687
11
4.33002
21
-2.88794
0
LINE
8
BLACK
6
CONTINUOUS
10
4.33002
20
-2.88794
11
4.27592
21
-2.94204
0
LINE
8
BLACK
6
CONTINUOUS
10
4.27592
20
-2.94204
11
4.27592
21
-3.03496
0
LINE
8
BLACK
6
CONTINUOUS
10
4.27592
20
-3.03496
11
4.33004
21
-3.08908
0
LINE
8
BLACK
6
CONTINUOUS
10
4.33004
20
-3.08908
11
4.42296
21
-3.08908
0
LINE
8
BLACK
6
CONTINUOUS
10
4.42296
20
-3.08908
11
4.4689
21
-3.04314
0
LINE
8
BLACK
6
CONTINUOUS
10
4.4689
20
-3.04314
11
4.4689
21
-3.02063
0
LINE
8
BLACK
6
CONTINUOUS
10
4.4689
20
-3.02063
11
4.46791
21
-3.02063
0
LINE
8
BLACK
6
CONTINUOUS
10
4.46791
20
-3.02063
11
4.46565
21
-3.02018
0
LINE
8
BLACK
6
CONTINUOUS
10
4.46565
20
-3.02018
11
4.46374
21
-3.0189
0
LINE
8
BLACK
6
CONTINUOUS
10
4.46374
20
-3.0189
11
4.46246
21
-3.01698
0
LINE
8
BLACK
6
CONTINUOUS
10
4.46246
20
-3.01698
11
4.46201
21
-3.01472
0
LINE
8
BLACK
6
CONTINUOUS
10
4.46201
20
-3.01472
11
4.46201
21
-2.95961
0
LINE
8
BLACK
6
CONTINUOUS
10
4.46201
20
-2.95961
11
4.46246
21
-2.95735
0
LINE
8
BLACK
6
CONTINUOUS
10
4.46246
20
-2.95735
11
4.46374
21
-2.95543
0
LINE
8
BLACK
6
CONTINUOUS
10
4.46374
20
-2.95543
11
4.46565
21
-2.95415
0
LINE
8
BLACK
6
CONTINUOUS
10
4.46565
20
-2.95415
11
4.46791
21
-2.9537
0
LINE
8
BLACK
6
CONTINUOUS
10
4.46791
20
-2.9537
11
4.47972
21
-2.9537
0
LINE
8
BLACK
6
CONTINUOUS
10
4.47972
20
-2.9537
11
4.48198
21
-2.95415
0
LINE
8
BLACK
6
CONTINUOUS
10
4.48198
20
-2.95415
11
4.4839
21
-2.95543
0
LINE
8
BLACK
6
CONTINUOUS
10
4.4839
20
-2.95543
11
4.48518
21
-2.95735
0
LINE
8
BLACK
6
CONTINUOUS
10
4.48518
20
-2.95735
11
4.48563
21
-2.95961
0
LINE
8
BLACK
6
CONTINUOUS
10
4.48563
20
-2.95961
11
4.48563
21
-3.01472
0
LINE
8
BLACK
6
CONTINUOUS
10
4.48563
20
-3.01472
11
4.48518
21
-3.01698
0
LINE
8
BLACK
6
CONTINUOUS
10
4.48518
20
-3.01698
11
4.4839
21
-3.0189
0
LINE
8
BLACK
6
CONTINUOUS
10
4.4839
20
-3.0189
11
4.48198
21
-3.02018
0
LINE
8
BLACK
6
CONTINUOUS
10
4.48198
20
-3.02018
11
4.47972
21
-3.02063
0
LINE
8
BLACK
6
CONTINUOUS
10
4.47972
20
-3.02063
11
4.47874
21
-3.02063
0
LINE
8
BLACK
6
CONTINUOUS
10
4.47874
20
-3.02063
11
4.47874
21
-3.04518
0
LINE
8
BLACK
6
CONTINUOUS
10
4.47874
20
-3.04518
11
4.47862
21
-3.04605
0
LINE
8
BLACK
6
CONTINUOUS
10
4.47862
20
-3.04605
11
4.47863
21
-3.04623
0
LINE
8
BLACK
6
CONTINUOUS
10
4.47863
20
-3.04623
11
4.47858
21
-3.04632
0
LINE
8
BLACK
6
CONTINUOUS
10
4.47858
20
-3.04632
11
4.47854
21
-3.04657
0
LINE
8
BLACK
6
CONTINUOUS
10
4.47854
20
-3.04657
11
4.47788
21
-3.04759
0
LINE
8
BLACK
6
CONTINUOUS
10
4.47788
20
-3.04759
11
4.4773
21
-3.04866
0
LINE
8
BLACK
6
CONTINUOUS
10
4.4773
20
-3.04866
11
4.42848
21
-3.09748
0
LINE
8
BLACK
6
CONTINUOUS
10
4.42848
20
-3.09748
11
4.42778
21
-3.09801
0
LINE
8
BLACK
6
CONTINUOUS
10
4.42778
20
-3.09801
11
4.42766
21
-3.09814
0
LINE
8
BLACK
6
CONTINUOUS
10
4.42766
20
-3.09814
11
4.42756
21
-3.09817
0
LINE
8
BLACK
6
CONTINUOUS
10
4.42756
20
-3.09817
11
4.42736
21
-3.09832
0
LINE
8
BLACK
6
CONTINUOUS
10
4.42736
20
-3.09832
11
4.42617
21
-3.09858
0
LINE
8
BLACK
6
CONTINUOUS
10
4.42617
20
-3.09858
11
4.425
21
-3.09892
0
LINE
8
BLACK
6
CONTINUOUS
10
4.425
20
-3.09892
11
4.328
21
-3.09892
0
LINE
8
BLACK
6
CONTINUOUS
10
4.328
20
-3.09892
11
4.32713
21
-3.0988
0
LINE
8
BLACK
6
CONTINUOUS
10
4.32713
20
-3.0988
11
4.32695
21
-3.09881
0
LINE
8
BLACK
6
CONTINUOUS
10
4.32695
20
-3.09881
11
4.32686
21
-3.09876
0
LINE
8
BLACK
6
CONTINUOUS
10
4.32686
20
-3.09876
11
4.32661
21
-3.09872
0
LINE
8
BLACK
6
CONTINUOUS
10
4.32661
20
-3.09872
11
4.32559
21
-3.09806
0
LINE
8
BLACK
6
CONTINUOUS
10
4.32559
20
-3.09806
11
4.32452
21
-3.09748
0
LINE
8
BLACK
6
CONTINUOUS
10
4.32452
20
-3.09748
11
4.26752
21
-3.04048
0
LINE
8
BLACK
6
CONTINUOUS
10
4.26752
20
-3.04048
11
4.26699
21
-3.03978
0
LINE
8
BLACK
6
CONTINUOUS
10
4.26699
20
-3.03978
11
4.26686
21
-3.03966
0
LINE
8
BLACK
6
CONTINUOUS
10
4.26686
20
-3.03966
11
4.26683
21
-3.03956
0
LINE
8
BLACK
6
CONTINUOUS
10
4.26683
20
-3.03956
11
4.26668
21
-3.03936
0
LINE
8
BLACK
6
CONTINUOUS
10
4.26668
20
-3.03936
11
4.26642
21
-3.03817
0
LINE
8
BLACK
6
CONTINUOUS
10
4.26642
20
-3.03817
11
4.26608
21
-3.037
0
LINE
8
BLACK
6
CONTINUOUS
10
4.26608
20
-3.037
11
4.26608
21
-2.94
0
LINE
8
BLACK
6
CONTINUOUS
10
4.26608
20
-2.94
11
4.2662
21
-2.93913
0
LINE
8
BLACK
6
CONTINUOUS
10
4.2662
20
-2.93913
11
4.26619
21
-2.93895
0
LINE
8
BLACK
6
CONTINUOUS
10
4.26619
20
-2.93895
11
4.26624
21
-2.93886
0
LINE
8
BLACK
6
CONTINUOUS
10
4.26624
20
-2.93886
11
4.26628
21
-2.93861
0
LINE
8
BLACK
6
CONTINUOUS
10
4.26628
20
-2.93861
11
4.26694
21
-2.93759
0
LINE
8
BLACK
6
CONTINUOUS
10
4.26694
20
-2.93759
11
4.26752
21
-2.93652
0
LINE
8
BLACK
6
CONTINUOUS
10
4.26752
20
-2.93652
11
4.32162
21
-2.88242
0
LINE
8
BLACK
6
CONTINUOUS
10
4.32162
20
-2.88242
11
4.32162
21
-2.6563
0
LINE
8
BLACK
6
CONTINUOUS
10
4.32162
20
-2.6563
11
4.32028
21
-2.6563
0
LINE
8
BLACK
6
CONTINUOUS
10
4.32028
20
-2.6563
11
4.31802
21
-2.65585
0
LINE
8
BLACK
6
CONTINUOUS
10
4.31802
20
-2.65585
11
4.3161
21
-2.65457
0
LINE
8
BLACK
6
CONTINUOUS
10
4.3161
20
-2.65457
11
4.31482
21
-2.65265
0
LINE
8
BLACK
6
CONTINUOUS
10
4.31482
20
-2.65265
11
4.31437
21
-2.65039
0
LINE
8
BLACK
6
CONTINUOUS
10
4.31437
20
-2.65039
11
4.31437
21
-2.62776
0
LINE
8
BLACK
6
CONTINUOUS
10
4.31437
20
-2.62776
11
4.3052
21
-2.62776
0
LINE
8
BLACK
6
CONTINUOUS
10
4.3052
20
-2.62776
11
4.28391
21
-2.64905
0
LINE
8
BLACK
6
CONTINUOUS
10
4.28391
20
-2.64905
11
4.28498
21
-2.65113
0
LINE
8
BLACK
6
CONTINUOUS
10
4.28498
20
-2.65113
11
4.28575
21
-2.656
0
LINE
8
BLACK
6
CONTINUOUS
10
4.28575
20
-2.656
11
4.28498
21
-2.66087
0
LINE
8
BLACK
6
CONTINUOUS
10
4.28498
20
-2.66087
11
4.28274
21
-2.66526
0
LINE
8
BLACK
6
CONTINUOUS
10
4.28274
20
-2.66526
11
4.27926
21
-2.66874
0
LINE
8
BLACK
6
CONTINUOUS
10
4.27926
20
-2.66874
11
4.27487
21
-2.67098
0
LINE
8
BLACK
6
CONTINUOUS
10
4.27487
20
-2.67098
11
4.27
21
-2.67175
0
LINE
8
BLACK
6
CONTINUOUS
10
4.27
20
-2.67175
11
4.26513
21
-2.67098
0
LINE
8
BLACK
6
CONTINUOUS
10
4.26513
20
-2.67098
11
4.26074
21
-2.66874
0
LINE
8
BLACK
6
CONTINUOUS
10
4.26074
20
-2.66874
11
4.25726
21
-2.66526
0
LINE
8
BLACK
6
CONTINUOUS
10
4.25726
20
-2.66526
11
4.25502
21
-2.66087
0
LINE
8
BLACK
6
CONTINUOUS
10
4.25502
20
-2.66087
11
4.25425
21
-2.656
0
LINE
8
BLACK
6
CONTINUOUS
10
4.25425
20
-2.656
11
4.25502
21
-2.65113
0
LINE
8
BLACK
6
CONTINUOUS
10
4.25502
20
-2.65113
11
4.25726
21
-2.64674
0
LINE
8
BLACK
6
CONTINUOUS
10
4.25726
20
-2.64674
11
4.26074
21
-2.64326
0
LINE
8
BLACK
6
CONTINUOUS
10
4.26074
20
-2.64326
11
4.26513
21
-2.64102
0
LINE
8
BLACK
6
CONTINUOUS
10
4.26513
20
-2.64102
11
4.27
21
-2.64025
0
LINE
8
BLACK
6
CONTINUOUS
10
4.27
20
-2.64025
11
4.27487
21
-2.64102
0
LINE
8
BLACK
6
CONTINUOUS
10
4.27487
20
-2.64102
11
4.27695
21
-2.64209
0
LINE
8
BLACK
6
CONTINUOUS
10
4.27695
20
-2.64209
11
4.29969
21
-2.61935
0
LINE
8
BLACK
6
CONTINUOUS
10
4.29969
20
-2.61935
11
4.30039
21
-2.61883
0
LINE
8
BLACK
6
CONTINUOUS
10
4.30039
20
-2.61883
11
4.3005
21
-2.61869
0
LINE
8
BLACK
6
CONTINUOUS
10
4.3005
20
-2.61869
11
4.30061
21
-2.61866
0
LINE
8
BLACK
6
CONTINUOUS
10
4.30061
20
-2.61866
11
4.30081
21
-2.61852
0
LINE
8
BLACK
6
CONTINUOUS
10
4.30081
20
-2.61852
11
4.302
21
-2.61826
0
LINE
8
BLACK
6
CONTINUOUS
10
4.302
20
-2.61826
11
4.30317
21
-2.61791
0
LINE
8
BLACK
6
CONTINUOUS
10
4.30317
20
-2.61791
11
4.31437
21
-2.61791
0
LINE
8
BLACK
6
CONTINUOUS
10
4.31437
20
-2.61791
11
4.31437
21
-2.59528
0
LINE
8
BLACK
6
CONTINUOUS
10
4.31437
20
-2.59528
11
4.31482
21
-2.59302
0
LINE
8
BLACK
6
CONTINUOUS
10
4.31482
20
-2.59302
11
4.3161
21
-2.5911
0
LINE
8
BLACK
6
CONTINUOUS
10
4.3161
20
-2.5911
11
4.31802
21
-2.58982
0
LINE
8
BLACK
6
CONTINUOUS
10
4.31802
20
-2.58982
11
4.32028
21
-2.58937
0
LINE
8
BLACK
6
CONTINUOUS
10
4.32028
20
-2.58937
11
4.33209
21
-2.58937
0
LINE
8
BLACK
6
CONTINUOUS
10
4.33209
20
-2.58937
11
4.33435
21
-2.58982
0
LINE
8
BLACK
6
CONTINUOUS
10
4.33435
20
-2.95415
11
4.33626
21
-2.95543
0
LINE
8
BLACK
6
CONTINUOUS
10
4.33626
20
-2.95543
11
4.33754
21
-2.95735
0
LINE
8
BLACK
6
CONTINUOUS
10
4.33754
20
-2.95735
11
4.33799
21
-2.95961
0
LINE
8
BLACK
6
CONTINUOUS
10
4.33799
20
-2.95961
11
4.33799
21
-3.01472
0
LINE
8
BLACK
6
CONTINUOUS
10
4.33799
20
-3.01472
11
4.33754
21
-3.01698
0
LINE
8
BLACK
6
CONTINUOUS
10
4.33754
20
-3.01698
11
4.33626
21
-3.0189
0
LINE
8
BLACK
6
CONTINUOUS
10
4.33626
20
-3.0189
11
4.33435
21
-3.02018
0
LINE
8
BLACK
6
CONTINUOUS
10
4.33435
20
-3.02018
11
4.33209
21
-3.02063
0
LINE
8
BLACK
6
CONTINUOUS
10
4.33209
20
-3.02063
11
4.32616
21
-3.02063
0
LINE
8
BLACK
6
CONTINUOUS
10
4.32616
20
-3.02063
11
4.32616
21
-3.02253
0
LINE
8
BLACK
6
CONTINUOUS
10
4.32616
20
-3.02253
11
4.32609
21
-3.02314
0
LINE
8
BLACK
6
CONTINUOUS
10
4.32609
20
-3.02314
11
4.3261
21
-3.02315
0
LINE
8
BLACK
6
CONTINUOUS
10
4.3261
20
-3.02315
11
4.32608
21
-3.0234
0
LINE
8
BLACK
6
CONTINUOUS
10
4.32608
20
-3.0234
11
4.32606
21
-3.02345
0
LINE
8
BLACK
6
CONTINUOUS
10
4.32606
20
-3.02345
11
4.32604
21
-3.02359
0
LINE
8
BLACK
6
CONTINUOUS
10
4.32604
20
-3.02359
11
4.32602
21
-3.02371
0
LINE
8
BLACK
6
CONTINUOUS
10
4.32602
20
-3.02371
11
4.3261
21
-3.02422
0
LINE
8
BLACK
6
CONTINUOUS
10
4.3261
20
-3.02422
11
4.32616
21
-3.02617
0
LINE
8
BLACK
6
CONTINUOUS
10
4.32616
20
-3.02617
11
4.32616
21
-3.02734
0
LINE
8
BLACK
6
CONTINUOUS
10
4.32616
20
-3.02734
11
4.32616
21
-3.02734
0
LINE
8
BLACK
6
CONTINUOUS
10
4.32616
20
-3.02734
11
4.3262
21
-3.02761
0
LINE
8
BLACK
6
CONTINUOUS
10
4.3262
20
-3.02761
11
4.32621
21
-3.02784
0
LINE
8
BLACK
6
CONTINUOUS
10
4.32621
20
-3.02784
11
4.32627
21
-3.02967
0
LINE
8
BLACK
6
CONTINUOUS
10
4.32627
20
-3.02967
11
4.32627
21
-3.02967
0
LINE
8
BLACK
6
CONTINUOUS
10
4.32627
20
-3.02967
11
4.32649
21
-3.03043
0
LINE
8
BLACK
6
CONTINUOUS
10
4.32649
20
-3.03043
11
4.32665
21
-3.03118
0
LINE
8
BLACK
6
CONTINUOUS
10
4.32665
20
-3.03118
11
4.32675
21
-3.03196
0
LINE
8
BLACK
6
CONTINUOUS
10
4.32675
20
-3.03196
11
4.32728
21
-3.03332
0
LINE
8
BLACK
6
CONTINUOUS
10
4.32728
20
-3.03332
11
4.32742
21
-3.03367
0
LINE
8
BLACK
6
CONTINUOUS
10
4.32742
20
-3.03367
11
4.3275
21
-3.03388
0
LINE
8
BLACK
6
CONTINUOUS
10
4.3275
20
-3.03388
11
4.32801
21
-3.03565
0
LINE
8
BLACK
6
CONTINUOUS
10
4.32801
20
-3.03565
11
4.32841
21
-3.03632
0
LINE
8
BLACK
6
CONTINUOUS
10
4.32841
20
-3.03632
11
4.32875
21
-3.03701
0
LINE
8
BLACK
6
CONTINUOUS
10
4.32875
20
-3.03701
11
4.32889
21
-3.03739
0
LINE
8
BLACK
6
CONTINUOUS
10
4.32889
20
-3.03739
11
4.32904
21
-3.03775
0
LINE
8
BLACK
6
CONTINUOUS
10
4.32904
20
-3.03775
11
4.32957
21
-3.03848
0
LINE
8
BLACK
6
CONTINUOUS
10
4.32957
20
-3.03848
11
4.331
21
-3.03825
0
LINE
8
BLACK
6
CONTINUOUS
10
4.331
20
-3.03825
11
4.33587
21
-3.03902
0
LINE
8
BLACK
6
CONTINUOUS
10
4.33587
20
-3.03902
11
4.34026
21
-3.04126
0
LINE
8
BLACK
6
CONTINUOUS
10
4.34026
20
-3.04126
11
4.34374
21
-3.04474
0
LINE
8
BLACK
6
CONTINUOUS
10
4.34374
20
-3.04474
11
4.34598
21
-3.04913
0
LINE
8
BLACK
6
CONTINUOUS
10
4.34598
20
-3.04913
11
4.34675
21
-3.054
0
LINE
8
BLACK
6
CONTINUOUS
10
4.34675
20
-3.054
11
4.3464
21
-3.05622
0
LINE
8
BLACK
6
CONTINUOUS
10
4.3464
20
-3.05622
11
4.34668
21
-3.05651
0
LINE
8
BLACK
6
CONTINUOUS
10
4.34668
20
-3.05651
11
4.34668
21
-3.05651
0
LINE
8
BLACK
6
CONTINUOUS
10
4.34668
20
-3.05651
11
4.34668
21
-3.05651
0
LINE
8
BLACK
6
CONTINUOUS
10
4.34668
20
-3.05651
11
4.3469
21
-3.05668
0
LINE
8
BLACK
6
CONTINUOUS
10
4.3469
20
-3.05668
11
4.34707
21
-3.05683
0
LINE
8
BLACK
6
CONTINUOUS
10
4.34707
20
-3.05683
11
4.34841
21
-3.05808
0
LINE
8
BLACK
6
CONTINUOUS
10
4.34841
20
-3.05808
11
4.3491
21
-3.05846
0
LINE
8
BLACK
6
CONTINUOUS
10
4.3491
20
-3.05846
11
4.34974
21
-3.05888
0
LINE
8
BLACK
6
CONTINUOUS
10
4.34974
20
-3.05888
11
4.35036
21
-3.05937
0
LINE
8
BLACK
6
CONTINUOUS
10
4.35036
20
-3.05937
11
4.3513
21
-3.05977
0
LINE
8
BLACK
6
CONTINUOUS
10
4.3513
20
-3.05977
11
4.35186
21
-3.06001
0
LINE
8
BLACK
6
CONTINUOUS
10
4.35186
20
-3.06001
11
4.35397
21
-3.06177
0
LINE
8
BLACK
6
CONTINUOUS
10
4.35397
20
-3.06177
11
4.3548
21
-3.06439
0
LINE
8
BLACK
6
CONTINUOUS
10
4.3548
20
-3.06439
11
4.35408
21
-3.06705
0
LINE
8
BLACK
6
CONTINUOUS
10
4.35408
20
-3.06705
11
4.35204
21
-3.06889
0
LINE
8
BLACK
6
CONTINUOUS
10
4.35204
20
-3.06889
11
4.34992
21
-3.06937
0
LINE
8
BLACK
6
CONTINUOUS
10
4.34992
20
-3.06937
11
4.34022
21
-3.06937
0
LINE
8
BLACK
6
CONTINUOUS
10
4.34022
20
-3.06937
11
4.33758
21
-3.0686
0
LINE
8
BLACK
6
CONTINUOUS
10
4.33758
20
-3.0686
11
4.33721
21
-3.06829
0
LINE
8
BLACK
6
CONTINUOUS
10
4.33721
20
-3.06829
11
4.33587
21
-3.06898
0
LINE
8
BLACK
6
CONTINUOUS
10
4.33587
20
-3.06898
11
4.331
21
-3.06975
0
LINE
8
BLACK
6
CONTINUOUS
10
4.331
20
-3.06975
11
4.32613
21
-3.06898
0
LINE
8
BLACK
6
CONTINUOUS
10
4.32613
20
-3.06898
11
4.32174
21
-3.06674
0
LINE
8
BLACK
6
CONTINUOUS
10
4.32174
20
-3.06674
11
4.31826
21
-3.06326
0
LINE
8
BLACK
6
CONTINUOUS
10
4.31826
20
-3.06326
11
4.31602
21
-3.05887
0
LINE
8
BLACK
6
CONTINUOUS
10
4.31602
20
-3.05887
11
4.31525
21
-3.054
0
LINE
8
BLACK
6
CONTINUOUS
10
4.31525
20
-3.054
11
4.31602
21
-3.04913
0
LINE
8
BLACK
6
CONTINUOUS
10
4.31602
20
-3.04913
11
4.31668
21
-3.04785
0
LINE
8
BLACK
6
CONTINUOUS
10
4.31668
20
-3.04785
11
4.31613
21
-3.04731
0
LINE
8
BLACK
6
CONTINUOUS
10
4.31613
20
-3.04731
11
4.31482
21
-3.04489
0
LINE
8
BLACK
6
CONTINUOUS
10
4.31482
20
-3.04489
11
4.31501
21
-3.04215
0
LINE
8
BLACK
6
CONTINUOUS
10
4.31501
20
-3.04215
11
4.31627
21
-3.04027
0
LINE
8
BLACK
6
CONTINUOUS
10
4.31627
20
-3.04027
11
4.31634
21
-3.04021
0
LINE
8
BLACK
6
CONTINUOUS
10
4.31634
20
-3.04021
11
4.31634
21
-3.02437
0
LINE
8
BLACK
6
CONTINUOUS
10
4.31634
20
-3.02437
11
4.31646
21
-3.02394
0
LINE
8
BLACK
6
CONTINUOUS
10
4.31646
20
-3.02394
11
4.31643
21
-3.02387
0
LINE
8
BLACK
6
CONTINUOUS
10
4.31643
20
-3.02387
11
4.31634
21
-3.02294
0
LINE
8
BLACK
6
CONTINUOUS
10
4.31634
20
-3.02294
11
4.31634
21
-3.01906
0
LINE
8
BLACK
6
CONTINUOUS
10
4.31634
20
-3.01906
11
4.3161
21
-3.0189
0
LINE
8
BLACK
6
CONTINUOUS
10
4.3161
20
-3.0189
11
4.31482
21
-3.01698
0
LINE
8
BLACK
6
CONTINUOUS
10
4.31482
20
-3.01698
11
4.31437
21
-3.01472
0
LINE
8
BLACK
6
CONTINUOUS
10
4.31437
20
-3.01472
11
4.31437
21
-2.95961
0
LINE
8
BLACK
6
CONTINUOUS
10
4.31437
20
-2.95961
11
4.31482
21
-2.95735
0
LINE
8
BLACK
6
CONTINUOUS
10
4.31482
20
-2.95735
11
4.3161
21
-2.95543
0
LINE
8
BLACK
6
CONTINUOUS
10
4.3161
20
-2.95543
11
4.31802
21
-2.95415
0
LINE
8
BLACK
6
CONTINUOUS
10
4.31802
20
-2.95415
11
4.32028
21
-2.9537
0
LINE
8
BLACK
6
CONTINUOUS
10
4.32028
20
-2.9537
11
4.33209
21
-2.9537
0
LINE
8
BLACK
6
CONTINUOUS
10
4.33209
20
-2.9537
11
4.33435
21
-2.95415
0
LINE
8
BLACK
6
CONTINUOUS
10
4.34887
20
-2.5692
11
4.34905
21
-2.56919
0
LINE
8
BLACK
6
CONTINUOUS
10
4.34905
20
-2.56919
11
4.34914
21
-2.56924
0
LINE
8
BLACK
6
CONTINUOUS
10
4.34914
20
-2.56924
11
4.34939
21
-2.56928
0
LINE
8
BLACK
6
CONTINUOUS
10
4.34939
20
-2.56928
11
4.35041
21
-2.56994
0
LINE
8
BLACK
6
CONTINUOUS
10
4.35041
20
-2.56994
11
4.35148
21
-2.57052
0
LINE
8
BLACK
6
CONTINUOUS
10
4.35148
20
-2.57052
11
4.37033
21
-2.58937
0
LINE
8
BLACK
6
CONTINUOUS
10
4.37033
20
-2.58937
11
4.3813
21
-2.58937
0
LINE
8
BLACK
6
CONTINUOUS
10
4.3813
20
-2.58937
11
4.38356
21
-2.58982
0
LINE
8
BLACK
6
CONTINUOUS
10
4.38356
20
-2.58982
11
4.38548
21
-2.5911
0
LINE
8
BLACK
6
CONTINUOUS
10
4.38548
20
-2.5911
11
4.38676
21
-2.59302
0
LINE
8
BLACK
6
CONTINUOUS
10
4.38676
20
-2.59302
11
4.3872
21
-2.59528
0
LINE
8
BLACK
6
CONTINUOUS
10
4.3872
20
-2.59528
11
4.3872
21
-2.65039
0
LINE
8
BLACK
6
CONTINUOUS
10
4.3872
20
-2.65039
11
4.38676
21
-2.65265
0
LINE
8
BLACK
6
CONTINUOUS
10
4.38676
20
-2.65265
11
4.38548
21
-2.65457
0
LINE
8
BLACK
6
CONTINUOUS
10
4.38548
20
-2.65457
11
4.38356
21
-2.65585
0
LINE
8
BLACK
6
CONTINUOUS
10
4.38356
20
-2.65585
11
4.3813
21
-2.6563
0
LINE
8
BLACK
6
CONTINUOUS
10
4.3813
20
-2.6563
11
4.38031
21
-2.6563
0
LINE
8
BLACK
6
CONTINUOUS
10
4.38031
20
-2.6563
11
4.38031
21
-2.66805
0
LINE
8
BLACK
6
CONTINUOUS
10
4.38031
20
-2.66805
11
4.38465
21
-2.67026
0
LINE
8
BLACK
6
CONTINUOUS
10
4.38465
20
-2.67026
11
4.38813
21
-2.67374
0
LINE
8
BLACK
6
CONTINUOUS
10
4.38813
20
-2.67374
11
4.39037
21
-2.67813
0
LINE
8
BLACK
6
CONTINUOUS
10
4.39037
20
-2.67813
11
4.39114
21
-2.683
0
LINE
8
BLACK
6
CONTINUOUS
10
4.39114
20
-2.683
11
4.39037
21
-2.68787
0
LINE
8
BLACK
6
CONTINUOUS
10
4.39037
20
-2.68787
11
4.38813
21
-2.69226
0
LINE
8
BLACK
6
CONTINUOUS
10
4.38813
20
-2.69226
11
4.38465
21
-2.69574
0
LINE
8
BLACK
6
CONTINUOUS
10
4.38465
20
-2.69574
11
4.38026
21
-2.69798
0
LINE
8
BLACK
6
CONTINUOUS
10
4.38026
20
-2.69798
11
4.37539
21
-2.69875
0
LINE
8
BLACK
6
CONTINUOUS
10
4.37539
20
-2.69875
11
4.37053
21
-2.69798
0
LINE
8
BLACK
6
CONTINUOUS
10
4.37053
20
-2.69798
11
4.36844
21
-2.69691
0
LINE
8
BLACK
6
CONTINUOUS
10
4.36844
20
-2.69691
11
4.35492
21
-2.71043
0
LINE
8
BLACK
6
CONTINUOUS
10
4.35492
20
-2.71043
11
4.35492
21
-2.90612
0
LINE
8
BLACK
6
CONTINUOUS
10
4.35492
20
-2.90612
11
4.35493
21
-2.90613
0
LINE
8
BLACK
6
CONTINUOUS
10
4.35493
20
-2.90613
11
4.35496
21
-2.90623
0
LINE
8
BLACK
6
CONTINUOUS
10
4.35496
20
-2.90623
11
4.35511
21
-2.90643
0
LINE
8
BLACK
6
CONTINUOUS
10
4.35511
20
-2.90643
11
4.35537
21
-2.90762
0
LINE
8
BLACK
6
CONTINUOUS
10
4.35537
20
-2.90762
11
4.35571
21
-2.90879
0
LINE
8
BLACK
6
CONTINUOUS
10
4.35571
20
-2.90879
11
4.35571
21
-3.02375
0
LINE
8
BLACK
6
CONTINUOUS
10
4.35571
20
-3.02375
11
4.36504
21
-3.03308
0
LINE
8
BLACK
6
CONTINUOUS
10
4.36504
20
-3.03308
11
4.41096
21
-3.03308
0
LINE
8
BLACK
6
CONTINUOUS
10
4.41096
20
-3.03308
11
4.41969
21
-3.02436
0
LINE
8
BLACK
6
CONTINUOUS
10
4.41969
20
-3.02436
11
4.41969
21
-3.02063
0
LINE
8
BLACK
6
CONTINUOUS
10
4.41969
20
-3.02063
11
4.4187
21
-3.02063
0
LINE
8
BLACK
6
CONTINUOUS
10
4.4187
20
-3.02063
11
4.41644
21
-3.02018
0
LINE
8
BLACK
6
CONTINUOUS
10
4.41644
20
-3.02018
11
4.41452
21
-3.0189
0
LINE
8
BLACK
6
CONTINUOUS
10
4.41452
20
-3.0189
11
4.41324
21
-3.01698
0
LINE
8
BLACK
6
CONTINUOUS
10
4.41324
20
-3.01698
11
4.4128
21
-3.01472
0
LINE
8
BLACK
6
CONTINUOUS
10
4.4128
20
-3.01472
11
4.4128
21
-2.95961
0
LINE
8
BLACK
6
CONTINUOUS
10
4.4128
20
-2.95961
11
4.41324
21
-2.95735
0
LINE
8
BLACK
6
CONTINUOUS
10
4.41324
20
-2.95735
11
4.41452
21
-2.95543
0
LINE
8
BLACK
6
CONTINUOUS
10
4.41452
20
-2.95543
11
4.41644
21
-2.95415
0
LINE
8
BLACK
6
CONTINUOUS
10
4.41644
20
-2.95415
11
4.4187
21
-2.9537
0
LINE
8
BLACK
6
CONTINUOUS
10
4.4187
20
-2.9537
11
4.43051
21
-2.9537
0
LINE
8
BLACK
6
CONTINUOUS
10
4.43051
20
-2.9537
11
4.43277
21
-2.95415
0
LINE
8
BLACK
6
CONTINUOUS
10
4.43277
20
-2.95415
11
4.43469
21
-2.95543
0
LINE
8
BLACK
6
CONTINUOUS
10
4.43469
20
-2.95543
11
4.43597
21
-2.95735
0
LINE
8
BLACK
6
CONTINUOUS
10
4.43597
20
-2.95735
11
4.43642
21
-2.95961
0
LINE
8
BLACK
6
CONTINUOUS
10
4.43642
20
-2.95961
11
4.43642
21
-3.01472
0
LINE
8
BLACK
6
CONTINUOUS
10
4.43642
20
-3.01472
11
4.43597
21
-3.01698
0
LINE
8
BLACK
6
CONTINUOUS
10
4.43597
20
-3.01698
11
4.43469
21
-3.0189
0
LINE
8
BLACK
6
CONTINUOUS
10
4.43469
20
-3.0189
11
4.43277
21
-3.02018
0
LINE
8
BLACK
6
CONTINUOUS
10
4.43277
20
-3.02018
11
4.43051
21
-3.02063
0
LINE
8
BLACK
6
CONTINUOUS
10
4.43051
20
-3.02063
11
4.42953
21
-3.02063
0
LINE
8
BLACK
6
CONTINUOUS
10
4.42953
20
-3.02063
11
4.42953
21
-3.02639
0
LINE
8
BLACK
6
CONTINUOUS
10
4.42953
20
-3.02639
11
4.4294
21
-3.02726
0
LINE
8
BLACK
6
CONTINUOUS
10
4.4294
20
-3.02726
11
4.42942
21
-3.02744
0
LINE
8
BLACK
6
CONTINUOUS
10
4.42942
20
-3.02744
11
4.42936
21
-3.02753
0
LINE
8
BLACK
6
CONTINUOUS
10
4.42936
20
-3.02753
11
4.42933
21
-3.02778
0
LINE
8
BLACK
6
CONTINUOUS
10
4.42933
20
-3.02778
11
4.42867
21
-3.02881
0
LINE
8
BLACK
6
CONTINUOUS
10
4.42867
20
-3.02881
11
4.42809
21
-3.02987
0
LINE
8
BLACK
6
CONTINUOUS
10
4.42809
20
-3.02987
11
4.41648
21
-3.04148
0
LINE
8
BLACK
6
CONTINUOUS
10
4.41648
20
-3.04148
11
4.41578
21
-3.04201
0
LINE
8
BLACK
6
CONTINUOUS
10
4.41578
20
-3.04201
11
4.41566
21
-3.04214
0
LINE
8
BLACK
6
CONTINUOUS
10
4.41566
20
-3.04214
11
4.41556
21
-3.04217
0
LINE
8
BLACK
6
CONTINUOUS
10
4.41556
20
-3.04217
11
4.41536
21
-3.04232
0
LINE
8
BLACK
6
CONTINUOUS
10
4.41536
20
-3.04232
11
4.41417
21
-3.04258
0
LINE
8
BLACK
6
CONTINUOUS
10
4.41417
20
-3.04258
11
4.413
21
-3.04292
0
LINE
8
BLACK
6
CONTINUOUS
10
4.413
20
-3.04292
11
4.363
21
-3.04292
0
LINE
8
BLACK
6
CONTINUOUS
10
4.363
20
-3.04292
11
4.36213
21
-3.0428
0
LINE
8
BLACK
6
CONTINUOUS
10
4.36213
20
-3.0428
11
4.36195
21
-3.04281
0
LINE
8
BLACK
6
CONTINUOUS
10
4.36195
20
-3.04281
11
4.36186
21
-3.04276
0
LINE
8
BLACK
6
CONTINUOUS
10
4.36186
20
-3.04276
11
4.36161
21
-3.04272
0
LINE
8
BLACK
6
CONTINUOUS
10
4.36161
20
-3.04272
11
4.36059
21
-3.04206
0
LINE
8
BLACK
6
CONTINUOUS
10
4.36059
20
-3.04206
11
4.35952
21
-3.04148
0
LINE
8
BLACK
6
CONTINUOUS
10
4.35952
20
-3.04148
11
4.34731
21
-3.02927
0
LINE
8
BLACK
6
CONTINUOUS
10
4.34731
20
-3.02927
11
4.34678
21
-3.02856
0
LINE
8
BLACK
6
CONTINUOUS
10
4.34678
20
-3.02856
11
4.34665
21
-3.02845
0
LINE
8
BLACK
6
CONTINUOUS
10
4.34665
20
-3.02845
11
4.34662
21
-3.02834
0
LINE
8
BLACK
6
CONTINUOUS
10
4.34662
20
-3.02834
11
4.34647
21
-3.02815
0
LINE
8
BLACK
6
CONTINUOUS
10
4.34647
20
-3.02815
11
4.34621
21
-3.02696
0
LINE
8
BLACK
6
CONTINUOUS
10
4.34621
20
-3.02696
11
4.34587
21
-3.02579
0
LINE
8
BLACK
6
CONTINUOUS
10
4.34587
20
-3.02579
11
4.34587
21
-2.91067
0
LINE
8
BLACK
6
CONTINUOUS
10
4.34587
20
-2.91067
11
4.34586
21
-2.91066
0
LINE
8
BLACK
6
CONTINUOUS
10
4.34586
20
-2.91066
11
4.34583
21
-2.91056
0
LINE
8
BLACK
6
CONTINUOUS
10
4.34583
20
-2.91056
11
4.34568
21
-2.91036
0
LINE
8
BLACK
6
CONTINUOUS
10
4.34568
20
-2.91036
11
4.34542
21
-2.90917
0
LINE
8
BLACK
6
CONTINUOUS
10
4.34542
20
-2.90917
11
4.34508
21
-2.908
0
LINE
8
BLACK
6
CONTINUOUS
10
4.34508
20
-2.908
11
4.34508
21
-2.70839
0
LINE
8
BLACK
6
CONTINUOUS
10
4.34508
20
-2.70839
11
4.3452
21
-2.70752
0
LINE
8
BLACK
6
CONTINUOUS
10
4.3452
20
-2.70752
11
4.34519
21
-2.70735
0
LINE
8
BLACK
6
CONTINUOUS
10
4.34519
20
-2.70735
11
4.34524
21
-2.70725
0
LINE
8
BLACK
6
CONTINUOUS
10
4.34524
20
-2.70725
11
4.34528
21
-2.70701
0
LINE
8
BLACK
6
CONTINUOUS
10
4.34528
20
-2.70701
11
4.34594
21
-2.70598
0
LINE
8
BLACK
6
CONTINUOUS
10
4.34594
20
-2.70598
11
4.34652
21
-2.70491
0
LINE
8
BLACK
6
CONTINUOUS
10
4.34652
20
-2.70491
11
4.36148
21
-2.68995
0
LINE
8
BLACK
6
CONTINUOUS
10
4.36148
20
-2.68995
11
4.36042
21
-2.68787
0
LINE
8
BLACK
6
CONTINUOUS
10
4.36042
20
-2.68787
11
4.35965
21
-2.683
0
LINE
8
BLACK
6
CONTINUOUS
10
4.35965
20
-2.683
11
4.36042
21
-2.67813
0
LINE
8
BLACK
6
CONTINUOUS
10
4.36042
20
-2.67813
11
4.36265
21
-2.67374
0
LINE
8
BLACK
6
CONTINUOUS
10
4.36265
20
-2.67374
11
4.36614
21
-2.67026
0
LINE
8
BLACK
6
CONTINUOUS
10
4.36614
20
-2.67026
11
4.37047
21
-2.66805
0
LINE
8
BLACK
6
CONTINUOUS
10
4.37047
20
-2.66805
11
4.37047
21
-2.6563
0
LINE
8
BLACK
6
CONTINUOUS
10
4.37047
20
-2.6563
11
4.36949
21
-2.6563
0
LINE
8
BLACK
6
CONTINUOUS
10
4.36949
20
-2.6563
11
4.36723
21
-2.65585
0
LINE
8
BLACK
6
CONTINUOUS
10
4.36723
20
-2.65585
11
4.36531
21
-2.65457
0
LINE
8
BLACK
6
CONTINUOUS
10
4.36531
20
-2.65457
11
4.36403
21
-2.65265
0
LINE
8
BLACK
6
CONTINUOUS
10
4.36403
20
-2.65265
11
4.36358
21
-2.65039
0
LINE
8
BLACK
6
CONTINUOUS
10
4.36358
20
-2.65039
11
4.36358
21
-2.59654
0
LINE
8
BLACK
6
CONTINUOUS
10
4.36358
20
-2.59654
11
4.34596
21
-2.57892
0
LINE
8
BLACK
6
CONTINUOUS
10
4.34596
20
-2.57892
11
4.31209
21
-2.57892
0
LINE
8
BLACK
6
CONTINUOUS
10
4.31209
20
-2.57892
11
4.23492
21
-2.65609
0
LINE
8
BLACK
6
CONTINUOUS
10
4.23492
20
-2.65609
11
4.23492
21
-2.72913
0
LINE
8
BLACK
6
CONTINUOUS
10
4.23492
20
-2.72913
11
4.23923
21
-2.72913
0
LINE
8
BLACK
6
CONTINUOUS
10
4.23923
20
-2.72913
11
4.24478
21
-2.72993
0
LINE
8
BLACK
6
CONTINUOUS
10
4.24478
20
-2.72993
11
4.24987
21
-2.73226
0
LINE
8
BLACK
6
CONTINUOUS
10
4.24987
20
-2.73226
11
4.25411
21
-2.73593
0
LINE
8
BLACK
6
CONTINUOUS
10
4.25411
20
-2.73593
11
4.25714
21
-2.74064
0
LINE
8
BLACK
6
CONTINUOUS
10
4.25714
20
-2.74064
11
4.25872
21
-2.74602
0
LINE
8
BLACK
6
CONTINUOUS
10
4.25872
20
-2.74602
11
4.25872
21
-2.74882
0
LINE
8
BLACK
6
CONTINUOUS
10
4.25872
20
-2.74882
11
4.25892
21
-2.74882
0
LINE
8
BLACK
6
CONTINUOUS
10
4.25892
20
-2.74882
11
4.25892
21
-2.77047
0
LINE
8
BLACK
6
CONTINUOUS
10
4.25892
20
-2.77047
11
4.19986
21
-2.77047
0
LINE
8
BLACK
6
CONTINUOUS
10
4.19986
20
-2.77047
11
4.19986
21
-2.74882
0
LINE
8
BLACK
6
CONTINUOUS
10
4.19986
20
-2.74882
11
4.20006
21
-2.74882
0
LINE
8
BLACK
6
CONTINUOUS
10
4.20006
20
-2.74882
11
4.20006
21
-2.74602
0
LINE
8
BLACK
6
CONTINUOUS
10
4.20006
20
-2.74602
11
4.20164
21
-2.74064
0
LINE
8
BLACK
6
CONTINUOUS
10
4.20164
20
-2.74064
11
4.20467
21
-2.73593
0
LINE
8
BLACK
6
CONTINUOUS
10
4.20467
20
-2.73593
11
4.2089
21
-2.73226
0
LINE
8
BLACK
6
CONTINUOUS
10
4.2089
20
-2.73226
11
4.214
21
-2.72993
0
LINE
8
BLACK
6
CONTINUOUS
10
4.214
20
-2.72993
11
4.21955
21
-2.72913
0
LINE
8
BLACK
6
CONTINUOUS
10
4.21955
20
-2.72913
11
4.22508
21
-2.72913
0
LINE
8
BLACK
6
CONTINUOUS
10
4.22508
20
-2.72913
11
4.22508
21
-2.65405
0
LINE
8
BLACK
6
CONTINUOUS
10
4.22508
20
-2.65405
11
4.2252
21
-2.65319
0
LINE
8
BLACK
6
CONTINUOUS
10
4.2252
20
-2.65319
11
4.22519
21
-2.65301
0
LINE
8
BLACK
6
CONTINUOUS
10
4.22519
20
-2.65301
11
4.22524
21
-2.65291
0
LINE
8
BLACK
6
CONTINUOUS
10
4.22524
20
-2.65291
11
4.22528
21
-2.65267
0
LINE
8
BLACK
6
CONTINUOUS
10
4.22528
20
-2.65267
11
4.22594
21
-2.65164
0
LINE
8
BLACK
6
CONTINUOUS
10
4.22594
20
-2.65164
11
4.22652
21
-2.65058
0
LINE
8
BLACK
6
CONTINUOUS
10
4.22652
20
-2.65058
11
4.30658
21
-2.57052
0
LINE
8
BLACK
6
CONTINUOUS
10
4.30658
20
-2.57052
11
4.30728
21
-2.56999
0
LINE
8
BLACK
6
CONTINUOUS
10
4.30728
20
-2.56999
11
4.30739
21
-2.56986
0
LINE
8
BLACK
6
CONTINUOUS
10
4.30739
20
-2.56986
11
4.3075
21
-2.56983
0
LINE
8
BLACK
6
CONTINUOUS
10
4.3075
20
-2.56983
11
4.3077
21
-2.56968
0
LINE
8
BLACK
6
CONTINUOUS
10
4.3077
20
-2.56968
11
4.30889
21
-2.56942
0
LINE
8
BLACK
6
CONTINUOUS
10
4.30889
20
-2.56942
11
4.31005
21
-2.56908
0
LINE
8
BLACK
6
CONTINUOUS
10
4.31005
20
-2.56908
11
4.348
21
-2.56908
0
LINE
8
BLACK
6
CONTINUOUS
10
4.348
20
-2.56908
11
4.34887
21
-2.5692
0
LINE
8
BLACK
6
CONTINUOUS
10
4.37987
20
-2.5492
11
4.38005
21
-2.54919
0
LINE
8
BLACK
6
CONTINUOUS
10
4.38005
20
-2.54919
11
4.38014
21
-2.54924
0
LINE
8
BLACK
6
CONTINUOUS
10
4.38014
20
-2.54924
11
4.38039
21
-2.54928
0
LINE
8
BLACK
6
CONTINUOUS
10
4.38039
20
-2.54928
11
4.38141
21
-2.54994
0
LINE
8
BLACK
6
CONTINUOUS
10
4.38141
20
-2.54994
11
4.38248
21
-2.55052
0
LINE
8
BLACK
6
CONTINUOUS
10
4.38248
20
-2.55052
11
4.42133
21
-2.58937
0
LINE
8
BLACK
6
CONTINUOUS
10
4.42133
20
-2.58937
11
4.43051
21
-2.58937
0
LINE
8
BLACK
6
CONTINUOUS
10
4.43051
20
-2.58937
11
4.43277
21
-2.58982
0
LINE
8
BLACK
6
CONTINUOUS
10
4.43277
20
-2.58982
11
4.43469
21
-2.5911
0
LINE
8
BLACK
6
CONTINUOUS
10
4.43469
20
-2.5911
11
4.43597
21
-2.59302
0
LINE
8
BLACK
6
CONTINUOUS
10
4.43597
20
-2.59302
11
4.43642
21
-2.59528
0
LINE
8
BLACK
6
CONTINUOUS
10
4.43642
20
-2.59528
11
4.43642
21
-2.65039
0
LINE
8
BLACK
6
CONTINUOUS
10
4.43642
20
-2.65039
11
4.43597
21
-2.65265
0
LINE
8
BLACK
6
CONTINUOUS
10
4.43597
20
-2.65265
11
4.43469
21
-2.65457
0
LINE
8
BLACK
6
CONTINUOUS
10
4.43469
20
-2.65457
11
4.43277
21
-2.65585
0
LINE
8
BLACK
6
CONTINUOUS
10
4.43277
20
-2.65585
11
4.43051
21
-2.6563
0
LINE
8
BLACK
6
CONTINUOUS
10
4.43051
20
-2.6563
11
4.42953
21
-2.6563
0
LINE
8
BLACK
6
CONTINUOUS
10
4.42953
20
-2.6563
11
4.42953
21
-2.73857
0
LINE
8
BLACK
6
CONTINUOUS
10
4.42953
20
-2.73857
11
4.45848
21
-2.76752
0
LINE
8
BLACK
6
CONTINUOUS
10
4.45848
20
-2.76752
11
4.45901
21
-2.76822
0
LINE
8
BLACK
6
CONTINUOUS
10
4.45901
20
-2.76822
11
4.45914
21
-2.76834
0
LINE
8
BLACK
6
CONTINUOUS
10
4.45914
20
-2.76834
11
4.45917
21
-2.76844
0
LINE
8
BLACK
6
CONTINUOUS
10
4.45917
20
-2.76844
11
4.45932
21
-2.76864
0
LINE
8
BLACK
6
CONTINUOUS
10
4.45932
20
-2.76864
11
4.45958
21
-2.76983
0
LINE
8
BLACK
6
CONTINUOUS
10
4.45958
20
-2.76983
11
4.45992
21
-2.771
0
LINE
8
BLACK
6
CONTINUOUS
10
4.45992
20
-2.771
11
4.45992
21
-2.87961
0
LINE
8
BLACK
6
CONTINUOUS
10
4.45992
20
-2.87961
11
4.4598
21
-2.88048
0
LINE
8
BLACK
6
CONTINUOUS
10
4.4598
20
-2.88048
11
4.45981
21
-2.88065
0
LINE
8
BLACK
6
CONTINUOUS
10
4.45981
20
-2.88065
11
4.45976
21
-2.88075
0
LINE
8
BLACK
6
CONTINUOUS
10
4.45976
20
-2.88075
11
4.45972
21
-2.88099
0
LINE
8
BLACK
6
CONTINUOUS
10
4.45972
20
-2.88099
11
4.45906
21
-2.88202
0
LINE
8
BLACK
6
CONTINUOUS
10
4.45906
20
-2.88202
11
4.45848
21
-2.88309
0
LINE
8
BLACK
6
CONTINUOUS
10
4.45848
20
-2.88309
11
4.43852
21
-2.90305
0
LINE
8
BLACK
6
CONTINUOUS
10
4.43852
20
-2.90305
11
4.43958
21
-2.90513
0
LINE
8
BLACK
6
CONTINUOUS
10
4.43958
20
-2.90513
11
4.44035
21
-2.91
0
LINE
8
BLACK
6
CONTINUOUS
10
4.44035
20
-2.91
11
4.43958
21
-2.91487
0
LINE
8
BLACK
6
CONTINUOUS
10
4.43958
20
-2.91487
11
4.43735
21
-2.91926
0
LINE
8
BLACK
6
CONTINUOUS
10
4.43735
20
-2.91926
11
4.43386
21
-2.92274
0
LINE
8
BLACK
6
CONTINUOUS
10
4.43386
20
-2.92274
11
4.42947
21
-2.92498
0
LINE
8
BLACK
6
CONTINUOUS
10
4.42947
20
-2.92498
11
4.42461
21
-2.92575
0
LINE
8
BLACK
6
CONTINUOUS
10
4.42461
20
-2.92575
11
4.41974
21
-2.92498
0
LINE
8
BLACK
6
CONTINUOUS
10
4.41974
20
-2.92498
11
4.41765
21
-2.92391
0
LINE
8
BLACK
6
CONTINUOUS
10
4.41765
20
-2.92391
11
4.41109
21
-2.93048
0
LINE
8
BLACK
6
CONTINUOUS
10
4.41109
20
-2.93048
11
4.41038
21
-2.93101
0
LINE
8
BLACK
6
CONTINUOUS
10
4.41038
20
-2.93101
11
4.41027
21
-2.93114
0
LINE
8
BLACK
6
CONTINUOUS
10
4.41027
20
-2.93114
11
4.41016
21
-2.93117
0
LINE
8
BLACK
6
CONTINUOUS
10
4.41016
20
-2.93117
11
4.40996
21
-2.93132
0
LINE
8
BLACK
6
CONTINUOUS
10
4.40996
20
-2.93132
11
4.40877
21
-2.93158
0
LINE
8
BLACK
6
CONTINUOUS
10
4.40877
20
-2.93158
11
4.40761
21
-2.93192
0
LINE
8
BLACK
6
CONTINUOUS
10
4.40761
20
-2.93192
11
4.39504
21
-2.93192
0
LINE
8
BLACK
6
CONTINUOUS
10
4.39504
20
-2.93192
11
4.38031
21
-2.94664
0
LINE
8
BLACK
6
CONTINUOUS
10
4.38031
20
-2.94664
11
4.38031
21
-2.9537
0
LINE
8
BLACK
6
CONTINUOUS
10
4.38031
20
-2.9537
11
4.3813
21
-2.9537
0
LINE
8
BLACK
6
CONTINUOUS
10
4.3813
20
-2.9537
11
4.38356
21
-2.95415
0
LINE
8
BLACK
6
CONTINUOUS
10
4.38356
20
-2.95415
11
4.38548
21
-2.95543
0
LINE
8
BLACK
6
CONTINUOUS
10
4.38548
20
-2.95543
11
4.38676
21
-2.95735
0
LINE
8
BLACK
6
CONTINUOUS
10
4.38676
20
-2.95735
11
4.3872
21
-2.95961
0
LINE
8
BLACK
6
CONTINUOUS
10
4.3872
20
-2.95961
11
4.3872
21
-3.01472
0
LINE
8
BLACK
6
CONTINUOUS
10
4.3872
20
-3.01472
11
4.38676
21
-3.01698
0
LINE
8
BLACK
6
CONTINUOUS
10
4.38676
20
-3.01698
11
4.38548
21
-3.0189
0
LINE
8
BLACK
6
CONTINUOUS
10
4.38548
20
-3.0189
11
4.38356
21
-3.02018
0
LINE
8
BLACK
6
CONTINUOUS
10
4.38356
20
-3.02018
11
4.3813
21
-3.02063
0
LINE
8
BLACK
6
CONTINUOUS
10
4.3813
20
-3.02063
11
4.36949
21
-3.02063
0
LINE
8
BLACK
6
CONTINUOUS
10
4.36949
20
-3.02063
11
4.36723
21
-3.02018
0
LINE
8
BLACK
6
CONTINUOUS
10
4.36723
20
-3.02018
11
4.36531
21
-3.0189
0
LINE
8
BLACK
6
CONTINUOUS
10
4.36531
20
-3.0189
11
4.36403
21
-3.01698
0
LINE
8
BLACK
6
CONTINUOUS
10
4.36403
20
-3.01698
11
4.36358
21
-3.01472
0
LINE
8
BLACK
6
CONTINUOUS
10
4.36358
20
-3.01472
11
4.36358
21
-2.95961
0
LINE
8
BLACK
6
CONTINUOUS
10
4.36358
20
-2.95961
11
4.36403
21
-2.95735
0
LINE
8
BLACK
6
CONTINUOUS
10
4.36403
20
-2.95735
11
4.36531
21
-2.95543
0
LINE
8
BLACK
6
CONTINUOUS
10
4.36531
20
-2.95543
11
4.36723
21
-2.95415
0
LINE
8
BLACK
6
CONTINUOUS
10
4.36723
20
-2.95415
11
4.36949
21
-2.9537
0
LINE
8
BLACK
6
CONTINUOUS
10
4.36949
20
-2.9537
11
4.37047
21
-2.9537
0
LINE
8
BLACK
6
CONTINUOUS
10
4.37047
20
-2.9537
11
4.37047
21
-2.94461
0
LINE
8
BLACK
6
CONTINUOUS
10
4.37047
20
-2.94461
11
4.3706
21
-2.94374
0
LINE
8
BLACK
6
CONTINUOUS
10
4.3706
20
-2.94374
11
4.37058
21
-2.94356
0
LINE
8
BLACK
6
CONTINUOUS
10
4.37058
20
-2.94356
11
4.37064
21
-2.94347
0
LINE
8
BLACK
6
CONTINUOUS
10
4.37064
20
-2.94347
11
4.37067
21
-2.94322
0
LINE
8
BLACK
6
CONTINUOUS
10
4.37067
20
-2.94322
11
4.37133
21
-2.9422
0
LINE
8
BLACK
6
CONTINUOUS
10
4.37133
20
-2.9422
11
4.37191
21
-2.94113
0
LINE
8
BLACK
6
CONTINUOUS
10
4.37191
20
-2.94113
11
4.38952
21
-2.92352
0
LINE
8
BLACK
6
CONTINUOUS
10
4.38952
20
-2.92352
11
4.39022
21
-2.92299
0
LINE
8
BLACK
6
CONTINUOUS
10
4.39022
20
-2.92299
11
4.39034
21
-2.92286
0
LINE
8
BLACK
6
CONTINUOUS
10
4.39034
20
-2.92286
11
4.39044
21
-2.92283
0
LINE
8
BLACK
6
CONTINUOUS
10
4.39044
20
-2.92283
11
4.39064
21
-2.92268
0
LINE
8
BLACK
6
CONTINUOUS
10
4.39064
20
-2.92268
11
4.39183
21
-2.92242
0
LINE
8
BLACK
6
CONTINUOUS
10
4.39183
20
-2.92242
11
4.393
21
-2.92208
0
LINE
8
BLACK
6
CONTINUOUS
10
4.393
20
-2.92208
11
4.40557
21
-2.92208
0
LINE
8
BLACK
6
CONTINUOUS
10
4.40557
20
-2.92208
11
4.41069
21
-2.91695
0
LINE
8
BLACK
6
CONTINUOUS
10
4.41069
20
-2.91695
11
4.40963
21
-2.91487
0
LINE
8
BLACK
6
CONTINUOUS
10
4.40963
20
-2.91487
11
4.40886
21
-2.91
0
LINE
8
BLACK
6
CONTINUOUS
10
4.40886
20
-2.91
11
4.40963
21
-2.90513
0
LINE
8
BLACK
6
CONTINUOUS
10
4.40963
20
-2.90513
11
4.41187
21
-2.90074
0
LINE
8
BLACK
6
CONTINUOUS
10
4.41187
20
-2.90074
11
4.41535
21
-2.89726
0
LINE
8
BLACK
6
CONTINUOUS
10
4.41535
20
-2.89726
11
4.41974
21
-2.89502
0
LINE
8
BLACK
6
CONTINUOUS
10
4.41974
20
-2.89502
11
4.42461
21
-2.89425
0
LINE
8
BLACK
6
CONTINUOUS
10
4.42461
20
-2.89425
11
4.42947
21
-2.89502
0
LINE
8
BLACK
6
CONTINUOUS
10
4.42947
20
-2.89502
11
4.43156
21
-2.89609
0
LINE
8
BLACK
6
CONTINUOUS
10
4.43156
20
-2.89609
11
4.45008
21
-2.87757
0
LINE
8
BLACK
6
CONTINUOUS
10
4.45008
20
-2.87757
11
4.45008
21
-2.77304
0
LINE
8
BLACK
6
CONTINUOUS
10
4.45008
20
-2.77304
11
4.42113
21
-2.74409
0
LINE
8
BLACK
6
CONTINUOUS
10
4.42113
20
-2.74409
11
4.4206
21
-2.74338
0
LINE
8
BLACK
6
CONTINUOUS
10
4.4206
20
-2.74338
11
4.42047
21
-2.74327
0
LINE
8
BLACK
6
CONTINUOUS
10
4.42047
20
-2.74327
11
4.42044
21
-2.74316
0
LINE
8
BLACK
6
CONTINUOUS
10
4.42044
20
-2.74316
11
4.42029
21
-2.74296
0
LINE
8
BLACK
6
CONTINUOUS
10
4.42029
20
-2.74296
11
4.42003
21
-2.74177
0
LINE
8
BLACK
6
CONTINUOUS
10
4.42003
20
-2.74177
11
4.41969
21
-2.74061
0
LINE
8
BLACK
6
CONTINUOUS
10
4.41969
20
-2.74061
11
4.41969
21
-2.6563
0
LINE
8
BLACK
6
CONTINUOUS
10
4.41969
20
-2.6563
11
4.4187
21
-2.6563
0
LINE
8
BLACK
6
CONTINUOUS
10
4.4187
20
-2.6563
11
4.41644
21
-2.65585
0
LINE
8
BLACK
6
CONTINUOUS
10
4.41644
20
-2.65585
11
4.41452
21
-2.65457
0
LINE
8
BLACK
6
CONTINUOUS
10
4.41452
20
-2.65457
11
4.41324
21
-2.65265
0
LINE
8
BLACK
6
CONTINUOUS
10
4.41324
20
-2.65265
11
4.4128
21
-2.65039
0
LINE
8
BLACK
6
CONTINUOUS
10
4.4128
20
-2.65039
11
4.4128
21
-2.59528
0
LINE
8
BLACK
6
CONTINUOUS
10
4.4128
20
-2.59528
11
4.41288
21
-2.59484
0
LINE
8
BLACK
6
CONTINUOUS
10
4.41288
20
-2.59484
11
4.37696
21
-2.55892
0
LINE
8
BLACK
6
CONTINUOUS
10
4.37696
20
-2.55892
11
4.29404
21
-2.55892
0
LINE
8
BLACK
6
CONTINUOUS
10
4.29404
20
-2.55892
11
4.13492
21
-2.71804
0
LINE
8
BLACK
6
CONTINUOUS
10
4.13492
20
-2.71804
11
4.13492
21
-2.72913
0
LINE
8
BLACK
6
CONTINUOUS
10
4.13492
20
-2.72913
11
4.13984
21
-2.72913
0
LINE
8
BLACK
6
CONTINUOUS
10
4.13984
20
-2.72913
11
4.14539
21
-2.72993
0
LINE
8
BLACK
6
CONTINUOUS
10
4.14539
20
-2.72993
11
4.15049
21
-2.73226
0
LINE
8
BLACK
6
CONTINUOUS
10
4.15049
20
-2.73226
11
4.15472
21
-2.73593
0
LINE
8
BLACK
6
CONTINUOUS
10
4.15472
20
-2.73593
11
4.15775
21
-2.74064
0
LINE
8
BLACK
6
CONTINUOUS
10
4.15775
20
-2.74064
11
4.15933
21
-2.74602
0
LINE
8
BLACK
6
CONTINUOUS
10
4.15933
20
-2.74602
11
4.15933
21
-2.74882
0
LINE
8
BLACK
6
CONTINUOUS
10
4.15933
20
-2.74882
11
4.15953
21
-2.74882
0
LINE
8
BLACK
6
CONTINUOUS
10
4.15953
20
-2.74882
11
4.15953
21
-2.77047
0
LINE
8
BLACK
6
CONTINUOUS
10
4.15953
20
-2.77047
11
4.10047
21
-2.77047
0
LINE
8
BLACK
6
CONTINUOUS
10
4.10047
20
-2.77047
11
4.10047
21
-2.74882
0
LINE
8
BLACK
6
CONTINUOUS
10
4.10047
20
-2.74882
11
4.10067
21
-2.74882
0
LINE
8
BLACK
6
CONTINUOUS
10
4.10067
20
-2.74882
11
4.10067
21
-2.74602
0
LINE
8
BLACK
6
CONTINUOUS
10
4.10067
20
-2.74602
11
4.10225
21
-2.74064
0
LINE
8
BLACK
6
CONTINUOUS
10
4.10225
20
-2.74064
11
4.10528
21
-2.73593
0
LINE
8
BLACK
6
CONTINUOUS
10
4.10528
20
-2.73593
11
4.10951
21
-2.73226
0
LINE
8
BLACK
6
CONTINUOUS
10
4.10951
20
-2.73226
11
4.11461
21
-2.72993
0
LINE
8
BLACK
6
CONTINUOUS
10
4.11461
20
-2.72993
11
4.12016
21
-2.72913
0
LINE
8
BLACK
6
CONTINUOUS
10
4.12016
20
-2.72913
11
4.12508
21
-2.72913
0
LINE
8
BLACK
6
CONTINUOUS
10
4.12508
20
-2.72913
11
4.12508
21
-2.716
0
LINE
8
BLACK
6
CONTINUOUS
10
4.12508
20
-2.716
11
4.1252
21
-2.71513
0
LINE
8
BLACK
6
CONTINUOUS
10
4.1252
20
-2.71513
11
4.12519
21
-2.71495
0
LINE
8
BLACK
6
CONTINUOUS
10
4.12519
20
-2.71495
11
4.12524
21
-2.71486
0
LINE
8
BLACK
6
CONTINUOUS
10
4.12524
20
-2.71486
11
4.12528
21
-2.71461
0
LINE
8
BLACK
6
CONTINUOUS
10
4.12528
20
-2.71461
11
4.12594
21
-2.71359
0
LINE
8
BLACK
6
CONTINUOUS
10
4.12594
20
-2.71359
11
4.12652
21
-2.71252
0
LINE
8
BLACK
6
CONTINUOUS
10
4.12652
20
-2.71252
11
4.28852
21
-2.55052
0
LINE
8
BLACK
6
CONTINUOUS
10
4.28852
20
-2.55052
11
4.28922
21
-2.54999
0
LINE
8
BLACK
6
CONTINUOUS
10
4.28922
20
-2.54999
11
4.28934
21
-2.54986
0
LINE
8
BLACK
6
CONTINUOUS
10
4.28934
20
-2.54986
11
4.28944
21
-2.54983
0
LINE
8
BLACK
6
CONTINUOUS
10
4.28944
20
-2.54983
11
4.28964
21
-2.54968
0
LINE
8
BLACK
6
CONTINUOUS
10
4.28964
20
-2.54968
11
4.29083
21
-2.54942
0
LINE
8
BLACK
6
CONTINUOUS
10
4.29083
20
-2.54942
11
4.292
21
-2.54908
0
LINE
8
BLACK
6
CONTINUOUS
10
4.292
20
-2.54908
11
4.379
21
-2.54908
0
LINE
8
BLACK
6
CONTINUOUS
10
4.379
20
-2.54908
11
4.37987
21
-2.5492
0
LINE
8
BLACK
6
CONTINUOUS
10
4.60669
20
-2.88053
11
4.59192
21
-2.88053
0
LINE
8
BLACK
6
CONTINUOUS
10
4.59192
20
-2.88053
11
4.59192
21
-2.90496
0
LINE
8
BLACK
6
CONTINUOUS
10
4.59192
20
-2.90496
11
4.61348
21
-2.92652
0
LINE
8
BLACK
6
CONTINUOUS
10
4.61348
20
-2.92652
11
4.61401
21
-2.92722
0
LINE
8
BLACK
6
CONTINUOUS
10
4.61401
20
-2.92722
11
4.61414
21
-2.92734
0
LINE
8
BLACK
6
CONTINUOUS
10
4.61414
20
-2.92734
11
4.61417
21
-2.92744
0
LINE
8
BLACK
6
CONTINUOUS
10
4.61417
20
-2.92744
11
4.61432
21
-2.92764
0
LINE
8
BLACK
6
CONTINUOUS
10
4.61432
20
-2.92764
11
4.61458
21
-2.92883
0
LINE
8
BLACK
6
CONTINUOUS
10
4.61458
20
-2.92883
11
4.61492
21
-2.93
0
LINE
8
BLACK
6
CONTINUOUS
10
4.61492
20
-2.93
11
4.61492
21
-2.95505
0
LINE
8
BLACK
6
CONTINUOUS
10
4.61492
20
-2.95505
11
4.61926
21
-2.95726
0
LINE
8
BLACK
6
CONTINUOUS
10
4.61926
20
-2.95726
11
4.62274
21
-2.96074
0
LINE
8
BLACK
6
CONTINUOUS
10
4.62274
20
-2.96074
11
4.62498
21
-2.96513
0
LINE
8
BLACK
6
CONTINUOUS
10
4.62498
20
-2.96513
11
4.62575
21
-2.97
0
LINE
8
BLACK
6
CONTINUOUS
10
4.62575
20
-2.97
11
4.62498
21
-2.97487
0
LINE
8
BLACK
6
CONTINUOUS
10
4.62498
20
-2.97487
11
4.62274
21
-2.97926
0
LINE
8
BLACK
6
CONTINUOUS
10
4.62274
20
-2.97926
11
4.61926
21
-2.98274
0
LINE
8
BLACK
6
CONTINUOUS
10
4.61926
20
-2.98274
11
4.61487
21
-2.98498
0
LINE
8
BLACK
6
CONTINUOUS
10
4.61487
20
-2.98498
11
4.61
21
-2.98575
0
LINE
8
BLACK
6
CONTINUOUS
10
4.61
20
-2.98575
11
4.60513
21
-2.98498
0
LINE
8
BLACK
6
CONTINUOUS
10
4.60513
20
-2.98498
11
4.60074
21
-2.98274
0
LINE
8
BLACK
6
CONTINUOUS
10
4.60074
20
-2.98274
11
4.59726
21
-2.97926
0
LINE
8
BLACK
6
CONTINUOUS
10
4.59726
20
-2.97926
11
4.59502
21
-2.97487
0
LINE
8
BLACK
6
CONTINUOUS
10
4.59502
20
-2.97487
11
4.59425
21
-2.97
0
LINE
8
BLACK
6
CONTINUOUS
10
4.59425
20
-2.97
11
4.59502
21
-2.96513
0
LINE
8
BLACK
6
CONTINUOUS
10
4.59502
20
-2.96513
11
4.59726
21
-2.96074
0
LINE
8
BLACK
6
CONTINUOUS
10
4.59726
20
-2.96074
11
4.60074
21
-2.95726
0
LINE
8
BLACK
6
CONTINUOUS
10
4.60074
20
-2.95726
11
4.60508
21
-2.95505
0
LINE
8
BLACK
6
CONTINUOUS
10
4.60508
20
-2.95505
11
4.60508
21
-2.93204
0
LINE
8
BLACK
6
CONTINUOUS
10
4.60508
20
-2.93204
11
4.58352
21
-2.91048
0
LINE
8
BLACK
6
CONTINUOUS
10
4.58352
20
-2.91048
11
4.58299
21
-2.90978
0
LINE
8
BLACK
6
CONTINUOUS
10
4.58299
20
-2.90978
11
4.58286
21
-2.90966
0
LINE
8
BLACK
6
CONTINUOUS
10
4.58286
20
-2.90966
11
4.58283
21
-2.90956
0
LINE
8
BLACK
6
CONTINUOUS
10
4.58283
20
-2.90956
11
4.58268
21
-2.90936
0
LINE
8
BLACK
6
CONTINUOUS
10
4.58268
20
-2.90936
11
4.58242
21
-2.90817
0
LINE
8
BLACK
6
CONTINUOUS
10
4.58242
20
-2.90817
11
4.58208
21
-2.907
0
LINE
8
BLACK
6
CONTINUOUS
10
4.58208
20
-2.907
11
4.58208
21
-2.88053
0
LINE
8
BLACK
6
CONTINUOUS
10
4.58208
20
-2.88053
11
4.56731
21
-2.88053
0
LINE
8
BLACK
6
CONTINUOUS
10
4.56731
20
-2.88053
11
4.56731
21
-2.82147
0
LINE
8
BLACK
6
CONTINUOUS
10
4.56731
20
-2.82147
11
4.60669
21
-2.82147
0
LINE
8
BLACK
6
CONTINUOUS
10
4.60669
20
-2.82147
11
4.60669
21
-2.88053
0
LINE
8
BLACK
6
CONTINUOUS
10
4.25892
20
-2.85118
11
4.25872
21
-2.85118
0
LINE
8
BLACK
6
CONTINUOUS
10
4.25872
20
-2.85118
11
4.25872
21
-2.85398
0
LINE
8
BLACK
6
CONTINUOUS
10
4.25872
20
-2.85398
11
4.25714
21
-2.85936
0
LINE
8
BLACK
6
CONTINUOUS
10
4.25714
20
-2.85936
11
4.25411
21
-2.86407
0
LINE
8
BLACK
6
CONTINUOUS
10
4.25411
20
-2.86407
11
4.24987
21
-2.86774
0
LINE
8
BLACK
6
CONTINUOUS
10
4.24987
20
-2.86774
11
4.24478
21
-2.87007
0
LINE
8
BLACK
6
CONTINUOUS
10
4.24478
20
-2.87007
11
4.23923
21
-2.87087
0
LINE
8
BLACK
6
CONTINUOUS
10
4.23923
20
-2.87087
11
4.23492
21
-2.87087
0
LINE
8
BLACK
6
CONTINUOUS
10
4.23492
20
-2.87087
11
4.23492
21
-2.89505
0
LINE
8
BLACK
6
CONTINUOUS
10
4.23492
20
-2.89505
11
4.23926
21
-2.89726
0
LINE
8
BLACK
6
CONTINUOUS
10
4.23926
20
-2.89726
11
4.24274
21
-2.90074
0
LINE
8
BLACK
6
CONTINUOUS
10
4.24274
20
-2.90074
11
4.24498
21
-2.90513
0
LINE
8
BLACK
6
CONTINUOUS
10
4.24498
20
-2.90513
11
4.24575
21
-2.91
0
LINE
8
BLACK
6
CONTINUOUS
10
4.24575
20
-2.91
11
4.24498
21
-2.91487
0
LINE
8
BLACK
6
CONTINUOUS
10
4.24498
20
-2.91487
11
4.24274
21
-2.91926
0
LINE
8
BLACK
6
CONTINUOUS
10
4.24274
20
-2.91926
11
4.23926
21
-2.92274
0
LINE
8
BLACK
6
CONTINUOUS
10
4.23926
20
-2.92274
11
4.23487
21
-2.92498
0
LINE
8
BLACK
6
CONTINUOUS
10
4.23487
20
-2.92498
11
4.23
21
-2.92575
0
LINE
8
BLACK
6
CONTINUOUS
10
4.23
20
-2.92575
11
4.22513
21
-2.92498
0
LINE
8
BLACK
6
CONTINUOUS
10
4.22513
20
-2.92498
11
4.22074
21
-2.92274
0
LINE
8
BLACK
6
CONTINUOUS
10
4.22074
20
-2.92274
11
4.21726
21
-2.91926
0
LINE
8
BLACK
6
CONTINUOUS
10
4.21726
20
-2.91926
11
4.21502
21
-2.91487
0
LINE
8
BLACK
6
CONTINUOUS
10
4.21502
20
-2.91487
11
4.21425
21
-2.91
0
LINE
8
BLACK
6
CONTINUOUS
10
4.21425
20
-2.91
11
4.21502
21
-2.90513
0
LINE
8
BLACK
6
CONTINUOUS
10
4.21502
20
-2.90513
11
4.21726
21
-2.90074
0
LINE
8
BLACK
6
CONTINUOUS
10
4.21726
20
-2.90074
11
4.22074
21
-2.89726
0
LINE
8
BLACK
6
CONTINUOUS
10
4.22074
20
-2.89726
11
4.22508
21
-2.89505
0
LINE
8
BLACK
6
CONTINUOUS
10
4.22508
20
-2.89505
11
4.22508
21
-2.87087
0
LINE
8
BLACK
6
CONTINUOUS
10
4.22508
20
-2.87087
11
4.21955
21
-2.87087
0
LINE
8
BLACK
6
CONTINUOUS
10
4.21955
20
-2.87087
11
4.214
21
-2.87007
0
LINE
8
BLACK
6
CONTINUOUS
10
4.214
20
-2.87007
11
4.2089
21
-2.86774
0
LINE
8
BLACK
6
CONTINUOUS
10
4.2089
20
-2.86774
11
4.20467
21
-2.86407
0
LINE
8
BLACK
6
CONTINUOUS
10
4.20467
20
-2.86407
11
4.20164
21
-2.85936
0
LINE
8
BLACK
6
CONTINUOUS
10
4.20164
20
-2.85936
11
4.20006
21
-2.85398
0
LINE
8
BLACK
6
CONTINUOUS
10
4.20006
20
-2.85398
11
4.20006
21
-2.85118
0
LINE
8
BLACK
6
CONTINUOUS
10
4.20006
20
-2.85118
11
4.19986
21
-2.85118
0
LINE
8
BLACK
6
CONTINUOUS
10
4.19986
20
-2.85118
11
4.19986
21
-2.82953
0
LINE
8
BLACK
6
CONTINUOUS
10
4.19986
20
-2.82953
11
4.25892
21
-2.82953
0
LINE
8
BLACK
6
CONTINUOUS
10
4.25892
20
-2.82953
11
4.25892
21
-2.85118
0
LINE
8
BLACK
6
CONTINUOUS
10
4.39833
20
-2.71472
11
4.3998
21
-2.71705
0
LINE
8
BLACK
6
CONTINUOUS
10
4.3998
20
-2.71705
11
4.39998
21
-2.71838
0
LINE
8
BLACK
6
CONTINUOUS
10
4.39998
20
-2.71838
11
4.39998
21
-2.73735
0
LINE
8
BLACK
6
CONTINUOUS
10
4.39998
20
-2.73735
11
4.39992
21
-2.73787
0
LINE
8
BLACK
6
CONTINUOUS
10
4.39992
20
-2.73787
11
4.40087
21
-2.73802
0
LINE
8
BLACK
6
CONTINUOUS
10
4.40087
20
-2.73802
11
4.40526
21
-2.74026
0
LINE
8
BLACK
6
CONTINUOUS
10
4.40526
20
-2.74026
11
4.40874
21
-2.74374
0
LINE
8
BLACK
6
CONTINUOUS
10
4.40874
20
-2.74374
11
4.41098
21
-2.74813
0
LINE
8
BLACK
6
CONTINUOUS
10
4.41098
20
-2.74813
11
4.41175
21
-2.753
0
LINE
8
BLACK
6
CONTINUOUS
10
4.41175
20
-2.753
11
4.41098
21
-2.75787
0
LINE
8
BLACK
6
CONTINUOUS
10
4.41098
20
-2.75787
11
4.40965
21
-2.76047
0
LINE
8
BLACK
6
CONTINUOUS
10
4.40965
20
-2.76047
11
4.41862
21
-2.76945
0
LINE
8
BLACK
6
CONTINUOUS
10
4.41862
20
-2.76945
11
4.42894
21
-2.77977
0
LINE
8
BLACK
6
CONTINUOUS
10
4.42894
20
-2.77977
11
4.43026
21
-2.78218
0
LINE
8
BLACK
6
CONTINUOUS
10
4.43026
20
-2.78218
11
4.43037
21
-2.78322
0
LINE
8
BLACK
6
CONTINUOUS
10
4.43037
20
-2.78322
11
4.43037
21
-2.86738
0
LINE
8
BLACK
6
CONTINUOUS
10
4.43037
20
-2.86738
11
4.4296
21
-2.87002
0
LINE
8
BLACK
6
CONTINUOUS
10
4.4296
20
-2.87002
11
4.42894
21
-2.87084
0
LINE
8
BLACK
6
CONTINUOUS
10
4.42894
20
-2.87084
11
4.42666
21
-2.87312
0
LINE
8
BLACK
6
CONTINUOUS
10
4.42666
20
-2.87312
11
4.42425
21
-2.87444
0
LINE
8
BLACK
6
CONTINUOUS
10
4.42425
20
-2.87444
11
4.42321
21
-2.87455
0
LINE
8
BLACK
6
CONTINUOUS
10
4.42321
20
-2.87455
11
4.42088
21
-2.87455
0
LINE
8
BLACK
6
CONTINUOUS
10
4.42088
20
-2.87455
11
4.42016
21
-2.8747
0
LINE
8
BLACK
6
CONTINUOUS
10
4.42016
20
-2.8747
11
4.41359
21
-2.8761
0
LINE
8
BLACK
6
CONTINUOUS
10
4.41359
20
-2.8761
11
4.41359
21
-2.8761
0
LINE
8
BLACK
6
CONTINUOUS
10
4.41359
20
-2.8761
11
4.41328
21
-2.87623
0
LINE
8
BLACK
6
CONTINUOUS
10
4.41328
20
-2.87623
11
4.41174
21
-2.87926
0
LINE
8
BLACK
6
CONTINUOUS
10
4.41174
20
-2.87926
11
4.40826
21
-2.88274
0
LINE
8
BLACK
6
CONTINUOUS
10
4.40826
20
-2.88274
11
4.40387
21
-2.88498
0
LINE
8
BLACK
6
CONTINUOUS
10
4.40387
20
-2.88498
11
4.399
21
-2.88575
0
LINE
8
BLACK
6
CONTINUOUS
10
4.399
20
-2.88575
11
4.39877
21
-2.88571
0
LINE
8
BLACK
6
CONTINUOUS
10
4.39877
20
-2.88571
11
4.39577
21
-2.88905
0
LINE
8
BLACK
6
CONTINUOUS
10
4.39577
20
-2.88905
11
4.39204
21
-2.8955
0
LINE
8
BLACK
6
CONTINUOUS
10
4.39204
20
-2.8955
11
4.39204
21
-2.8955
0
LINE
8
BLACK
6
CONTINUOUS
10
4.39204
20
-2.8955
11
4.39069
21
-2.89964
0
LINE
8
BLACK
6
CONTINUOUS
10
4.39069
20
-2.89964
11
4.38914
21
-2.90191
0
LINE
8
BLACK
6
CONTINUOUS
10
4.38914
20
-2.90191
11
4.3871
21
-2.90279
0
LINE
8
BLACK
6
CONTINUOUS
10
4.3871
20
-2.90279
11
4.38712
21
-2.90288
0
LINE
8
BLACK
6
CONTINUOUS
10
4.38712
20
-2.90288
11
4.38683
21
-2.90296
0
LINE
8
BLACK
6
CONTINUOUS
10
4.38683
20
-2.90296
11
4.38683
21
-2.90296
0
LINE
8
BLACK
6
CONTINUOUS
10
4.38683
20
-2.90296
11
4.38683
21
-2.90296
0
LINE
8
BLACK
6
CONTINUOUS
10
4.38683
20
-2.90296
11
4.38683
21
-2.90296
0
LINE
8
BLACK
6
CONTINUOUS
10
4.38683
20
-2.90296
11
4.38512
21
-2.90363
0
LINE
8
BLACK
6
CONTINUOUS
10
4.38512
20
-2.90363
11
4.3849
21
-2.90371
0
LINE
8
BLACK
6
CONTINUOUS
10
4.3849
20
-2.90371
11
4.38314
21
-2.90422
0
LINE
8
BLACK
6
CONTINUOUS
10
4.38314
20
-2.90422
11
4.38314
21
-2.90422
0
LINE
8
BLACK
6
CONTINUOUS
10
4.38314
20
-2.90422
11
4.38246
21
-2.90462
0
LINE
8
BLACK
6
CONTINUOUS
10
4.38246
20
-2.90462
11
4.38178
21
-2.90496
0
LINE
8
BLACK
6
CONTINUOUS
10
4.38178
20
-2.90496
11
4.38131
21
-2.90514
0
LINE
8
BLACK
6
CONTINUOUS
10
4.38131
20
-2.90514
11
4.37857
21
-2.9054
0
LINE
8
BLACK
6
CONTINUOUS
10
4.37857
20
-2.9054
11
4.37613
21
-2.90413
0
LINE
8
BLACK
6
CONTINUOUS
10
4.37613
20
-2.90413
11
4.37476
21
-2.90174
0
LINE
8
BLACK
6
CONTINUOUS
10
4.37476
20
-2.90174
11
4.37463
21
-2.90061
0
LINE
8
BLACK
6
CONTINUOUS
10
4.37463
20
-2.90061
11
4.37463
21
-2.72332
0
LINE
8
BLACK
6
CONTINUOUS
10
4.37463
20
-2.72332
11
4.3754
21
-2.72068
0
LINE
8
BLACK
6
CONTINUOUS
10
4.3754
20
-2.72068
11
4.37748
21
-2.71888
0
LINE
8
BLACK
6
CONTINUOUS
10
4.37748
20
-2.71888
11
4.379
21
-2.71847
0
LINE
8
BLACK
6
CONTINUOUS
10
4.379
20
-2.71847
11
4.37912
21
-2.71845
0
LINE
8
BLACK
6
CONTINUOUS
10
4.37912
20
-2.71845
11
4.37912
21
-2.71845
0
LINE
8
BLACK
6
CONTINUOUS
10
4.37912
20
-2.71845
11
4.38641
21
-2.7169
0
LINE
8
BLACK
6
CONTINUOUS
10
4.38641
20
-2.7169
11
4.39311
21
-2.71392
0
LINE
8
BLACK
6
CONTINUOUS
10
4.39311
20
-2.71392
11
4.39584
21
-2.71355
0
LINE
8
BLACK
6
CONTINUOUS
10
4.39584
20
-2.71355
11
4.39833
21
-2.71472
0
LINE
8
BLACK
6
CONTINUOUS
10
4.638
20
-2.72067
11
4.6408
21
-2.72067
0
LINE
8
BLACK
6
CONTINUOUS
10
4.6408
20
-2.72067
11
4.64618
21
-2.72225
0
LINE
8
BLACK
6
CONTINUOUS
10
4.64618
20
-2.72225
11
4.65089
21
-2.72528
0
LINE
8
BLACK
6
CONTINUOUS
10
4.65089
20
-2.72528
11
4.65456
21
-2.72951
0
LINE
8
BLACK
6
CONTINUOUS
10
4.65456
20
-2.72951
11
4.65689
21
-2.73461
0
LINE
8
BLACK
6
CONTINUOUS
10
4.65689
20
-2.73461
11
4.65769
21
-2.74016
0
LINE
8
BLACK
6
CONTINUOUS
10
4.65769
20
-2.74016
11
4.65769
21
-2.75208
0
LINE
8
BLACK
6
CONTINUOUS
10
4.65769
20
-2.75208
11
4.69305
21
-2.75208
0
LINE
8
BLACK
6
CONTINUOUS
10
4.69305
20
-2.75208
11
4.69526
21
-2.74774
0
LINE
8
BLACK
6
CONTINUOUS
10
4.69526
20
-2.74774
11
4.69874
21
-2.74426
0
LINE
8
BLACK
6
CONTINUOUS
10
4.69874
20
-2.74426
11
4.70313
21
-2.74202
0
LINE
8
BLACK
6
CONTINUOUS
10
4.70313
20
-2.74202
11
4.708
21
-2.74125
0
LINE
8
BLACK
6
CONTINUOUS
10
4.708
20
-2.74125
11
4.71287
21
-2.74202
0
LINE
8
BLACK
6
CONTINUOUS
10
4.71287
20
-2.74202
11
4.71726
21
-2.74426
0
LINE
8
BLACK
6
CONTINUOUS
10
4.71726
20
-2.74426
11
4.72074
21
-2.74774
0
LINE
8
BLACK
6
CONTINUOUS
10
4.72074
20
-2.74774
11
4.72298
21
-2.75213
0
LINE
8
BLACK
6
CONTINUOUS
10
4.72298
20
-2.75213
11
4.72375
21
-2.757
0
LINE
8
BLACK
6
CONTINUOUS
10
4.72375
20
-2.757
11
4.72298
21
-2.76187
0
LINE
8
BLACK
6
CONTINUOUS
10
4.72298
20
-2.76187
11
4.72074
21
-2.76626
0
LINE
8
BLACK
6
CONTINUOUS
10
4.72074
20
-2.76626
11
4.71726
21
-2.76974
0
LINE
8
BLACK
6
CONTINUOUS
10
4.71726
20
-2.76974
11
4.71287
21
-2.77198
0
LINE
8
BLACK
6
CONTINUOUS
10
4.71287
20
-2.77198
11
4.708
21
-2.77275
0
LINE
8
BLACK
6
CONTINUOUS
10
4.708
20
-2.77275
11
4.70313
21
-2.77198
0
LINE
8
BLACK
6
CONTINUOUS
10
4.70313
20
-2.77198
11
4.69874
21
-2.76974
0
LINE
8
BLACK
6
CONTINUOUS
10
4.69874
20
-2.76974
11
4.69526
21
-2.76626
0
LINE
8
BLACK
6
CONTINUOUS
10
4.69526
20
-2.76626
11
4.69305
21
-2.76192
0
LINE
8
BLACK
6
CONTINUOUS
10
4.69305
20
-2.76192
11
4.65739
21
-2.76192
0
LINE
8
BLACK
6
CONTINUOUS
10
4.65739
20
-2.76192
11
4.65689
21
-2.76539
0
LINE
8
BLACK
6
CONTINUOUS
10
4.65689
20
-2.76539
11
4.65456
21
-2.77049
0
LINE
8
BLACK
6
CONTINUOUS
10
4.65456
20
-2.77049
11
4.65089
21
-2.77472
0
LINE
8
BLACK
6
CONTINUOUS
10
4.65089
20
-2.77472
11
4.64618
21
-2.77775
0
LINE
8
BLACK
6
CONTINUOUS
10
4.64618
20
-2.77775
11
4.6431
21
-2.77865
0
LINE
8
BLACK
6
CONTINUOUS
10
4.6431
20
-2.77865
11
4.6431
21
-2.8223
0
LINE
8
BLACK
6
CONTINUOUS
10
4.6431
20
-2.8223
11
4.64636
21
-2.82325
0
LINE
8
BLACK
6
CONTINUOUS
10
4.64636
20
-2.82325
11
4.65107
21
-2.82628
0
LINE
8
BLACK
6
CONTINUOUS
10
4.65107
20
-2.82628
11
4.65474
21
-2.83051
0
LINE
8
BLACK
6
CONTINUOUS
10
4.65474
20
-2.83051
11
4.65707
21
-2.83561
0
LINE
8
BLACK
6
CONTINUOUS
10
4.65707
20
-2.83561
11
4.65787
21
-2.84116
0
LINE
8
BLACK
6
CONTINUOUS
10
4.65787
20
-2.84116
11
4.65787
21
-2.86084
0
LINE
8
BLACK
6
CONTINUOUS
10
4.65787
20
-2.86084
11
4.65707
21
-2.86639
0
LINE
8
BLACK
6
CONTINUOUS
10
4.65707
20
-2.86639
11
4.65474
21
-2.87149
0
LINE
8
BLACK
6
CONTINUOUS
10
4.65474
20
-2.87149
11
4.65107
21
-2.87572
0
LINE
8
BLACK
6
CONTINUOUS
10
4.65107
20
-2.87572
11
4.64636
21
-2.87875
0
LINE
8
BLACK
6
CONTINUOUS
10
4.64636
20
-2.87875
11
4.64098
21
-2.88033
0
LINE
8
BLACK
6
CONTINUOUS
10
4.64098
20
-2.88033
11
4.63818
21
-2.88033
0
LINE
8
BLACK
6
CONTINUOUS
10
4.63818
20
-2.88033
11
4.63818
21
-2.88053
0
LINE
8
BLACK
6
CONTINUOUS
10
4.63818
20
-2.88053
11
4.61653
21
-2.88053
0
LINE
8
BLACK
6
CONTINUOUS
10
4.61653
20
-2.88053
11
4.61653
21
-2.82147
0
LINE
8
BLACK
6
CONTINUOUS
10
4.61653
20
-2.82147
11
4.63326
21
-2.82147
0
LINE
8
BLACK
6
CONTINUOUS
10
4.63326
20
-2.82147
11
4.63326
21
-2.77953
0
LINE
8
BLACK
6
CONTINUOUS
10
4.63326
20
-2.77953
11
4.61635
21
-2.77953
0
LINE
8
BLACK
6
CONTINUOUS
10
4.61635
20
-2.77953
11
4.61635
21
-2.72047
0
LINE
8
BLACK
6
CONTINUOUS
10
4.61635
20
-2.72047
11
4.638
21
-2.72047
0
LINE
8
BLACK
6
CONTINUOUS
10
4.638
20
-2.72047
11
4.638
21
-2.72067
0
LINE
8
BLACK
6
CONTINUOUS
10
4.15953
20
-2.79508
11
4.19986
21
-2.79508
0
LINE
8
BLACK
6
CONTINUOUS
10
4.19986
20
-2.79508
11
4.19986
21
-2.78031
0
LINE
8
BLACK
6
CONTINUOUS
10
4.19986
20
-2.78031
11
4.25892
21
-2.78031
0
LINE
8
BLACK
6
CONTINUOUS
10
4.25892
20
-2.78031
11
4.25892
21
-2.79508
0
LINE
8
BLACK
6
CONTINUOUS
10
4.25892
20
-2.79508
11
4.284
21
-2.79508
0
LINE
8
BLACK
6
CONTINUOUS
10
4.284
20
-2.79508
11
4.28487
21
-2.7952
0
LINE
8
BLACK
6
CONTINUOUS
10
4.28487
20
-2.7952
11
4.28505
21
-2.79519
0
LINE
8
BLACK
6
CONTINUOUS
10
4.28505
20
-2.79519
11
4.28514
21
-2.79524
0
LINE
8
BLACK
6
CONTINUOUS
10
4.28514
20
-2.79524
11
4.28539
21
-2.79528
0
LINE
8
BLACK
6
CONTINUOUS
10
4.28539
20
-2.79528
11
4.28641
21
-2.79594
0
LINE
8
BLACK
6
CONTINUOUS
10
4.28641
20
-2.79594
11
4.28748
21
-2.79652
0
LINE
8
BLACK
6
CONTINUOUS
10
4.28748
20
-2.79652
11
4.29105
21
-2.80009
0
LINE
8
BLACK
6
CONTINUOUS
10
4.29105
20
-2.80009
11
4.29313
21
-2.79902
0
LINE
8
BLACK
6
CONTINUOUS
10
4.29313
20
-2.79902
11
4.298
21
-2.79825
0
LINE
8
BLACK
6
CONTINUOUS
10
4.298
20
-2.79825
11
4.30287
21
-2.79902
0
LINE
8
BLACK
6
CONTINUOUS
10
4.30287
20
-2.79902
11
4.30726
21
-2.80126
0
LINE
8
BLACK
6
CONTINUOUS
10
4.30726
20
-2.80126
11
4.31074
21
-2.80474
0
LINE
8
BLACK
6
CONTINUOUS
10
4.31074
20
-2.80474
11
4.31298
21
-2.80913
0
LINE
8
BLACK
6
CONTINUOUS
10
4.31298
20
-2.80913
11
4.31375
21
-2.814
0
LINE
8
BLACK
6
CONTINUOUS
10
4.31375
20
-2.814
11
4.31298
21
-2.81887
0
LINE
8
BLACK
6
CONTINUOUS
10
4.31298
20
-2.81887
11
4.31074
21
-2.82326
0
LINE
8
BLACK
6
CONTINUOUS
10
4.31074
20
-2.82326
11
4.30726
21
-2.82674
0
LINE
8
BLACK
6
CONTINUOUS
10
4.30726
20
-2.82674
11
4.30287
21
-2.82898
0
LINE
8
BLACK
6
CONTINUOUS
10
4.30287
20
-2.82898
11
4.298
21
-2.82975
0
LINE
8
BLACK
6
CONTINUOUS
10
4.298
20
-2.82975
11
4.29313
21
-2.82898
0
LINE
8
BLACK
6
CONTINUOUS
10
4.29313
20
-2.82898
11
4.28874
21
-2.82674
0
LINE
8
BLACK
6
CONTINUOUS
10
4.28874
20
-2.82674
11
4.28526
21
-2.82326
0
LINE
8
BLACK
6
CONTINUOUS
10
4.28526
20
-2.82326
11
4.28302
21
-2.81887
0
LINE
8
BLACK
6
CONTINUOUS
10
4.28302
20
-2.81887
11
4.28225
21
-2.814
0
LINE
8
BLACK
6
CONTINUOUS
10
4.28225
20
-2.814
11
4.28302
21
-2.80913
0
LINE
8
BLACK
6
CONTINUOUS
10
4.28302
20
-2.80913
11
4.28409
21
-2.80705
0
LINE
8
BLACK
6
CONTINUOUS
10
4.28409
20
-2.80705
11
4.28196
21
-2.80492
0
LINE
8
BLACK
6
CONTINUOUS
10
4.28196
20
-2.80492
11
4.25892
21
-2.80492
0
LINE
8
BLACK
6
CONTINUOUS
10
4.25892
20
-2.80492
11
4.25892
21
-2.81969
0
LINE
8
BLACK
6
CONTINUOUS
10
4.25892
20
-2.81969
11
4.19986
21
-2.81969
0
LINE
8
BLACK
6
CONTINUOUS
10
4.19986
20
-2.81969
11
4.19986
21
-2.80492
0
LINE
8
BLACK
6
CONTINUOUS
10
4.19986
20
-2.80492
11
4.15953
21
-2.80492
0
LINE
8
BLACK
6
CONTINUOUS
10
4.15953
20
-2.80492
11
4.15953
21
-2.81969
0
LINE
8
BLACK
6
CONTINUOUS
10
4.15953
20
-2.81969
11
4.10047
21
-2.81969
0
LINE
8
BLACK
6
CONTINUOUS
10
4.10047
20
-2.81969
11
4.10047
21
-2.78031
0
LINE
8
BLACK
6
CONTINUOUS
10
4.10047
20
-2.78031
11
4.15953
21
-2.78031
0
LINE
8
BLACK
6
CONTINUOUS
10
4.15953
20
-2.78031
11
4.15953
21
-2.79508
0
LINE
8
BLACK
6
CONTINUOUS
10
4.51087
20
-2.68055
11
4.51526
21
-2.68278
0
LINE
8
BLACK
6
CONTINUOUS
10
4.51526
20
-2.68278
11
4.51874
21
-2.68627
0
LINE
8
BLACK
6
CONTINUOUS
10
4.51874
20
-2.68627
11
4.52095
21
-2.6906
0
LINE
8
BLACK
6
CONTINUOUS
10
4.52095
20
-2.6906
11
4.55044
21
-2.6906
0
LINE
8
BLACK
6
CONTINUOUS
10
4.55044
20
-2.6906
11
4.55131
21
-2.69073
0
LINE
8
BLACK
6
CONTINUOUS
10
4.55131
20
-2.69073
11
4.55148
21
-2.69071
0
LINE
8
BLACK
6
CONTINUOUS
10
4.55148
20
-2.69071
11
4.55158
21
-2.69077
0
LINE
8
BLACK
6
CONTINUOUS
10
4.55158
20
-2.69077
11
4.55182
21
-2.6908
0
LINE
8
BLACK
6
CONTINUOUS
10
4.55182
20
-2.6908
11
4.55285
21
-2.69146
0
LINE
8
BLACK
6
CONTINUOUS
10
4.55285
20
-2.69146
11
4.55392
21
-2.69204
0
LINE
8
BLACK
6
CONTINUOUS
10
4.55392
20
-2.69204
11
4.58235
21
-2.72047
0
LINE
8
BLACK
6
CONTINUOUS
10
4.58235
20
-2.72047
11
4.6065
21
-2.72047
0
LINE
8
BLACK
6
CONTINUOUS
10
4.6065
20
-2.72047
11
4.6065
21
-2.77953
0
LINE
8
BLACK
6
CONTINUOUS
10
4.6065
20
-2.77953
11
4.56713
21
-2.77953
0
LINE
8
BLACK
6
CONTINUOUS
10
4.56713
20
-2.77953
11
4.56713
21
-2.72047
0
LINE
8
BLACK
6
CONTINUOUS
10
4.56713
20
-2.72047
11
4.56843
21
-2.72047
0
LINE
8
BLACK
6
CONTINUOUS
10
4.56843
20
-2.72047
11
4.5484
21
-2.70044
0
LINE
8
BLACK
6
CONTINUOUS
10
4.5484
20
-2.70044
11
4.52095
21
-2.70044
0
LINE
8
BLACK
6
CONTINUOUS
10
4.52095
20
-2.70044
11
4.51874
21
-2.70478
0
LINE
8
BLACK
6
CONTINUOUS
10
4.51874
20
-2.70478
11
4.51526
21
-2.70826
0
LINE
8
BLACK
6
CONTINUOUS
10
4.51526
20
-2.70826
11
4.51087
21
-2.7105
0
LINE
8
BLACK
6
CONTINUOUS
10
4.51087
20
-2.7105
11
4.506
21
-2.71127
0
LINE
8
BLACK
6
CONTINUOUS
10
4.506
20
-2.71127
11
4.50113
21
-2.7105
0
LINE
8
BLACK
6
CONTINUOUS
10
4.50113
20
-2.7105
11
4.49674
21
-2.70826
0
LINE
8
BLACK
6
CONTINUOUS
10
4.49674
20
-2.70826
11
4.49326
21
-2.70478
0
LINE
8
BLACK
6
CONTINUOUS
10
4.49326
20
-2.70478
11
4.49102
21
-2.70039
0
LINE
8
BLACK
6
CONTINUOUS
10
4.49102
20
-2.70039
11
4.49025
21
-2.69552
0
LINE
8
BLACK
6
CONTINUOUS
10
4.49025
20
-2.69552
11
4.49102
21
-2.69066
0
LINE
8
BLACK
6
CONTINUOUS
10
4.49102
20
-2.69066
11
4.49326
21
-2.68627
0
LINE
8
BLACK
6
CONTINUOUS
10
4.49326
20
-2.68627
11
4.49674
21
-2.68278
0
LINE
8
BLACK
6
CONTINUOUS
10
4.49674
20
-2.68278
11
4.50113
21
-2.68055
0
LINE
8
BLACK
6
CONTINUOUS
10
4.50113
20
-2.68055
11
4.506
21
-2.67978
0
LINE
8
BLACK
6
CONTINUOUS
10
4.506
20
-2.67978
11
4.51087
21
-2.68055
0
LINE
8
BLACK
6
CONTINUOUS
10
4.22707
20
-2.42077
11
4.22887
21
-2.42285
0
LINE
8
BLACK
6
CONTINUOUS
10
4.22887
20
-2.42285
11
4.22926
21
-2.42558
0
LINE
8
BLACK
6
CONTINUOUS
10
4.22926
20
-2.42558
11
4.22812
21
-2.42808
0
LINE
8
BLACK
6
CONTINUOUS
10
4.22812
20
-2.42808
11
4.22699
21
-2.42904
0
LINE
8
BLACK
6
CONTINUOUS
10
4.22699
20
-2.42904
11
4.22507
21
-2.43022
0
LINE
8
BLACK
6
CONTINUOUS
10
4.22507
20
-2.43022
11
4.22018
21
-2.4351
0
LINE
8
BLACK
6
CONTINUOUS
10
4.22018
20
-2.4351
11
4.21656
21
-2.44098
0
LINE
8
BLACK
6
CONTINUOUS
10
4.21656
20
-2.44098
11
4.21656
21
-2.44098
0
LINE
8
BLACK
6
CONTINUOUS
10
4.21656
20
-2.44098
11
4.21439
21
-2.44753
0
LINE
8
BLACK
6
CONTINUOUS
10
4.21439
20
-2.44753
11
4.21439
21
-2.44753
0
LINE
8
BLACK
6
CONTINUOUS
10
4.21439
20
-2.44753
11
4.21398
21
-2.45158
0
LINE
8
BLACK
6
CONTINUOUS
10
4.21398
20
-2.45158
11
4.21398
21
-2.48701
0
LINE
8
BLACK
6
CONTINUOUS
10
4.21398
20
-2.48701
11
4.23366
21
-2.48701
0
LINE
8
BLACK
6
CONTINUOUS
10
4.23366
20
-2.48701
11
4.23366
21
-2.45354
0
LINE
8
BLACK
6
CONTINUOUS
10
4.23366
20
-2.45354
11
4.23441
21
-2.44978
0
LINE
8
BLACK
6
CONTINUOUS
10
4.23441
20
-2.44978
11
4.23654
21
-2.44658
0
LINE
8
BLACK
6
CONTINUOUS
10
4.23654
20
-2.44658
11
4.23974
21
-2.44445
0
LINE
8
BLACK
6
CONTINUOUS
10
4.23974
20
-2.44445
11
4.2435
21
-2.4437
0
LINE
8
BLACK
6
CONTINUOUS
10
4.2435
20
-2.4437
11
4.26319
21
-2.4437
0
LINE
8
BLACK
6
CONTINUOUS
10
4.26319
20
-2.4437
11
4.26696
21
-2.44445
0
LINE
8
BLACK
6
CONTINUOUS
10
4.26696
20
-2.44445
11
4.27015
21
-2.44658
0
LINE
8
BLACK
6
CONTINUOUS
10
4.27015
20
-2.44658
11
4.27228
21
-2.44978
0
LINE
8
BLACK
6
CONTINUOUS
10
4.27228
20
-2.44978
11
4.27303
21
-2.45354
0
LINE
8
BLACK
6
CONTINUOUS
10
4.27303
20
-2.45354
11
4.27303
21
-2.48701
0
LINE
8
BLACK
6
CONTINUOUS
10
4.27303
20
-2.48701
11
4.29272
21
-2.48701
0
LINE
8
BLACK
6
CONTINUOUS
10
4.29272
20
-2.48701
11
4.29272
21
-2.45158
0
LINE
8
BLACK
6
CONTINUOUS
10
4.29272
20
-2.45158
11
4.29272
21
-2.45158
0
LINE
8
BLACK
6
CONTINUOUS
10
4.29272
20
-2.45158
11
4.2923
21
-2.44753
0
LINE
8
BLACK
6
CONTINUOUS
10
4.2923
20
-2.44753
11
4.29013
21
-2.44098
0
LINE
8
BLACK
6
CONTINUOUS
10
4.29013
20
-2.44098
11
4.29013
21
-2.44098
0
LINE
8
BLACK
6
CONTINUOUS
10
4.29013
20
-2.44098
11
4.28651
21
-2.4351
0
LINE
8
BLACK
6
CONTINUOUS
10
4.28651
20
-2.4351
11
4.28163
21
-2.43022
0
LINE
8
BLACK
6
CONTINUOUS
10
4.28163
20
-2.43022
11
4.2797
21
-2.42904
0
LINE
8
BLACK
6
CONTINUOUS
10
4.2797
20
-2.42904
11
4.27786
21
-2.42699
0
LINE
8
BLACK
6
CONTINUOUS
10
4.27786
20
-2.42699
11
4.27742
21
-2.42428
0
LINE
8
BLACK
6
CONTINUOUS
10
4.27742
20
-2.42428
11
4.27852
21
-2.42175
0
LINE
8
BLACK
6
CONTINUOUS
10
4.27852
20
-2.42175
11
4.2808
21
-2.42022
0
LINE
8
BLACK
6
CONTINUOUS
10
4.2808
20
-2.42022
11
4.28227
21
-2.42
0
LINE
8
BLACK
6
CONTINUOUS
10
4.28227
20
-2.42
11
4.51773
21
-2.42
0
LINE
8
BLACK
6
CONTINUOUS
10
4.51773
20
-2.42
11
4.52037
21
-2.42077
0
LINE
8
BLACK
6
CONTINUOUS
10
4.52037
20
-2.42077
11
4.52217
21
-2.42285
0
LINE
8
BLACK
6
CONTINUOUS
10
4.52217
20
-2.42285
11
4.52257
21
-2.42558
0
LINE
8
BLACK
6
CONTINUOUS
10
4.52257
20
-2.42558
11
4.52142
21
-2.42808
0
LINE
8
BLACK
6
CONTINUOUS
10
4.52142
20
-2.42808
11
4.5203
21
-2.42904
0
LINE
8
BLACK
6
CONTINUOUS
10
4.5203
20
-2.42904
11
4.51837
21
-2.43022
0
LINE
8
BLACK
6
CONTINUOUS
10
4.51837
20
-2.43022
11
4.51349
21
-2.4351
0
LINE
8
BLACK
6
CONTINUOUS
10
4.51349
20
-2.4351
11
4.50987
21
-2.44098
0
LINE
8
BLACK
6
CONTINUOUS
10
4.50987
20
-2.44098
11
4.50987
21
-2.44098
0
LINE
8
BLACK
6
CONTINUOUS
10
4.50987
20
-2.44098
11
4.5077
21
-2.44753
0
LINE
8
BLACK
6
CONTINUOUS
10
4.5077
20
-2.44753
11
4.5077
21
-2.44753
0
LINE
8
BLACK
6
CONTINUOUS
10
4.5077
20
-2.44753
11
4.50728
21
-2.45158
0
LINE
8
BLACK
6
CONTINUOUS
10
4.50728
20
-2.45158
11
4.50728
21
-2.48701
0
LINE
8
BLACK
6
CONTINUOUS
10
4.50728
20
-2.48701
11
4.52697
21
-2.48701
0
LINE
8
BLACK
6
CONTINUOUS
10
4.52697
20
-2.48701
11
4.52697
21
-2.45354
0
LINE
8
BLACK
6
CONTINUOUS
10
4.52697
20
-2.45354
11
4.52772
21
-2.44978
0
LINE
8
BLACK
6
CONTINUOUS
10
4.52772
20
-2.44978
11
4.52985
21
-2.44658
0
LINE
8
BLACK
6
CONTINUOUS
10
4.52985
20
-2.44658
11
4.53304
21
-2.44445
0
LINE
8
BLACK
6
CONTINUOUS
10
4.53304
20
-2.44445
11
4.53681
21
-2.4437
0
LINE
8
BLACK
6
CONTINUOUS
10
4.53681
20
-2.4437
11
4.5565
21
-2.4437
0
LINE
8
BLACK
6
CONTINUOUS
10
4.5565
20
-2.4437
11
4.56026
21
-2.44445
0
LINE
8
BLACK
6
CONTINUOUS
10
4.56026
20
-2.44445
11
4.56346
21
-2.44658
0
LINE
8
BLACK
6
CONTINUOUS
10
4.56346
20
-2.44658
11
4.56559
21
-2.44978
0
LINE
8
BLACK
6
CONTINUOUS
10
4.56559
20
-2.44978
11
4.56634
21
-2.45354
0
LINE
8
BLACK
6
CONTINUOUS
10
4.56634
20
-2.45354
11
4.56634
21
-2.48701
0
LINE
8
BLACK
6
CONTINUOUS
10
4.56634
20
-2.48701
11
4.58602
21
-2.48701
0
LINE
8
BLACK
6
CONTINUOUS
10
4.58602
20
-2.48701
11
4.58602
21
-2.45158
0
LINE
8
BLACK
6
CONTINUOUS
10
4.58602
20
-2.45158
11
4.58602
21
-2.45158
0
LINE
8
BLACK
6
CONTINUOUS
10
4.58602
20
-2.45158
11
4.58561
21
-2.44753
0
LINE
8
BLACK
6
CONTINUOUS
10
4.58561
20
-2.44753
11
4.58344
21
-2.44098
0
LINE
8
BLACK
6
CONTINUOUS
10
4.58344
20
-2.44098
11
4.58344
21
-2.44098
0
LINE
8
BLACK
6
CONTINUOUS
10
4.58344
20
-2.44098
11
4.57982
21
-2.4351
0
LINE
8
BLACK
6
CONTINUOUS
10
4.57982
20
-2.4351
11
4.57493
21
-2.43022
0
LINE
8
BLACK
6
CONTINUOUS
10
4.57493
20
-2.43022
11
4.57301
21
-2.42904
0
LINE
8
BLACK
6
CONTINUOUS
10
4.57301
20
-2.42904
11
4.57117
21
-2.42699
0
LINE
8
BLACK
6
CONTINUOUS
10
4.57117
20
-2.42699
11
4.57073
21
-2.42428
0
LINE
8
BLACK
6
CONTINUOUS
10
4.57073
20
-2.42428
11
4.57183
21
-2.42175
0
LINE
8
BLACK
6
CONTINUOUS
10
4.57183
20
-2.42175
11
4.57411
21
-2.42022
0
LINE
8
BLACK
6
CONTINUOUS
10
4.57411
20
-2.42022
11
4.57557
21
-2.42
0
LINE
8
BLACK
6
CONTINUOUS
10
4.57557
20
-2.42
11
4.97512
21
-2.42
0
LINE
8
BLACK
6
CONTINUOUS
10
4.97512
20
-2.42
11
4.97776
21
-2.42077
0
LINE
8
BLACK
6
CONTINUOUS
10
4.97776
20
-2.42077
11
4.97956
21
-2.42285
0
LINE
8
BLACK
6
CONTINUOUS
10
4.97956
20
-2.42285
11
4.98
21
-2.42488
0
LINE
8
BLACK
6
CONTINUOUS
10
4.98
20
-2.42488
11
4.98
21
-3.17512
0
LINE
8
BLACK
6
CONTINUOUS
10
4.98
20
-3.17512
11
4.97922
21
-3.17776
0
LINE
8
BLACK
6
CONTINUOUS
10
4.97922
20
-3.17776
11
4.97715
21
-3.17956
0
LINE
8
BLACK
6
CONTINUOUS
10
4.97715
20
-3.17956
11
4.97512
21
-3.18
0
LINE
8
BLACK
6
CONTINUOUS
10
4.97512
20
-3.18
11
4.58541
21
-3.18
0
LINE
8
BLACK
6
CONTINUOUS
10
4.58541
20
-3.18
11
4.58277
21
-3.17922
0
LINE
8
BLACK
6
CONTINUOUS
10
4.58277
20
-3.17922
11
4.58097
21
-3.17715
0
LINE
8
BLACK
6
CONTINUOUS
10
4.58097
20
-3.17715
11
4.58058
21
-3.17442
0
LINE
8
BLACK
6
CONTINUOUS
10
4.58058
20
-3.17442
11
4.58126
21
-3.17256
0
LINE
8
BLACK
6
CONTINUOUS
10
4.58126
20
-3.17256
11
4.58344
21
-3.16902
0
LINE
8
BLACK
6
CONTINUOUS
10
4.58344
20
-3.16902
11
4.58344
21
-3.16902
0
LINE
8
BLACK
6
CONTINUOUS
10
4.58344
20
-3.16902
11
4.58561
21
-3.16247
0
LINE
8
BLACK
6
CONTINUOUS
10
4.58561
20
-3.16247
11
4.58561
21
-3.16247
0
LINE
8
BLACK
6
CONTINUOUS
10
4.58561
20
-3.16247
11
4.58602
21
-3.15842
0
LINE
8
BLACK
6
CONTINUOUS
10
4.58602
20
-3.15842
11
4.58602
21
-3.15842
0
LINE
8
BLACK
6
CONTINUOUS
10
4.58602
20
-3.15842
11
4.58602
21
-3.12299
0
LINE
8
BLACK
6
CONTINUOUS
10
4.58602
20
-3.12299
11
4.56634
21
-3.12299
0
LINE
8
BLACK
6
CONTINUOUS
10
4.56634
20
-3.12299
11
4.56634
21
-3.15646
0
LINE
8
BLACK
6
CONTINUOUS
10
4.56634
20
-3.15646
11
4.56559
21
-3.16022
0
LINE
8
BLACK
6
CONTINUOUS
10
4.56559
20
-3.16022
11
4.56346
21
-3.16342
0
LINE
8
BLACK
6
CONTINUOUS
10
4.56346
20
-3.16342
11
4.56026
21
-3.16555
0
LINE
8
BLACK
6
CONTINUOUS
10
4.56026
20
-3.16555
11
4.5565
21
-3.1663
0
LINE
8
BLACK
6
CONTINUOUS
10
4.5565
20
-3.1663
11
4.53681
21
-3.1663
0
LINE
8
BLACK
6
CONTINUOUS
10
4.53681
20
-3.1663
11
4.53304
21
-3.16555
0
LINE
8
BLACK
6
CONTINUOUS
10
4.53304
20
-3.16555
11
4.52985
21
-3.16342
0
LINE
8
BLACK
6
CONTINUOUS
10
4.52985
20
-3.16342
11
4.52772
21
-3.16022
0
LINE
8
BLACK
6
CONTINUOUS
10
4.52772
20
-3.16022
11
4.52697
21
-3.15646
0
LINE
8
BLACK
6
CONTINUOUS
10
4.52697
20
-3.15646
11
4.52697
21
-3.12299
0
LINE
8
BLACK
6
CONTINUOUS
10
4.52697
20
-3.12299
11
4.50728
21
-3.12299
0
LINE
8
BLACK
6
CONTINUOUS
10
4.50728
20
-3.12299
11
4.50728
21
-3.15842
0
LINE
8
BLACK
6
CONTINUOUS
10
4.50728
20
-3.15842
11
4.5077
21
-3.16247
0
LINE
8
BLACK
6
CONTINUOUS
10
4.5077
20
-3.16247
11
4.50987
21
-3.16902
0
LINE
8
BLACK
6
CONTINUOUS
10
4.50987
20
-3.16902
11
4.50987
21
-3.16902
0
LINE
8
BLACK
6
CONTINUOUS
10
4.50987
20
-3.16902
11
4.51205
21
-3.17256
0
LINE
8
BLACK
6
CONTINUOUS
10
4.51205
20
-3.17256
11
4.51277
21
-3.17521
0
LINE
8
BLACK
6
CONTINUOUS
10
4.51277
20
-3.17521
11
4.51195
21
-3.17783
0
LINE
8
BLACK
6
CONTINUOUS
10
4.51195
20
-3.17783
11
4.50984
21
-3.1796
0
LINE
8
BLACK
6
CONTINUOUS
10
4.50984
20
-3.1796
11
4.50789
21
-3.18
0
LINE
8
BLACK
6
CONTINUOUS
10
4.50789
20
-3.18
11
4.29211
21
-3.18
0
LINE
8
BLACK
6
CONTINUOUS
10
4.29211
20
-3.18
11
4.28947
21
-3.17922
0
LINE
8
BLACK
6
CONTINUOUS
10
4.28947
20
-3.17922
11
4.28767
21
-3.17715
0
LINE
8
BLACK
6
CONTINUOUS
10
4.28767
20
-3.17715
11
4.28727
21
-3.17442
0
LINE
8
BLACK
6
CONTINUOUS
10
4.28727
20
-3.17442
11
4.28795
21
-3.17256
0
LINE
8
BLACK
6
CONTINUOUS
10
4.28795
20
-3.17256
11
4.29013
21
-3.16902
0
LINE
8
BLACK
6
CONTINUOUS
10
4.29013
20
-3.16902
11
4.29013
21
-3.16902
0
LINE
8
BLACK
6
CONTINUOUS
10
4.29013
20
-3.16902
11
4.2923
21
-3.16247
0
LINE
8
BLACK
6
CONTINUOUS
10
4.2923
20
-3.16247
11
4.2923
21
-3.16247
0
LINE
8
BLACK
6
CONTINUOUS
10
4.2923
20
-3.16247
11
4.29272
21
-3.15842
0
LINE
8
BLACK
6
CONTINUOUS
10
4.29272
20
-3.15842
11
4.29272
21
-3.15842
0
LINE
8
BLACK
6
CONTINUOUS
10
4.29272
20
-3.15842
11
4.29272
21
-3.12923
0
LINE
8
BLACK
6
CONTINUOUS
10
4.29272
20
-3.12923
11
4.29202
21
-3.12787
0
LINE
8
BLACK
6
CONTINUOUS
10
4.29202
20
-3.12787
11
4.29125
21
-3.123
0
LINE
8
BLACK
6
CONTINUOUS
10
4.29125
20
-3.123
11
4.29125
21
-3.12299
0
LINE
8
BLACK
6
CONTINUOUS
10
4.29125
20
-3.12299
11
4.27303
21
-3.12299
0
LINE
8
BLACK
6
CONTINUOUS
10
4.27303
20
-3.12299
11
4.27303
21
-3.15646
0
LINE
8
BLACK
6
CONTINUOUS
10
4.27303
20
-3.15646
11
4.27228
21
-3.16022
0
LINE
8
BLACK
6
CONTINUOUS
10
4.27228
20
-3.16022
11
4.27015
21
-3.16342
0
LINE
8
BLACK
6
CONTINUOUS
10
4.27015
20
-3.16342
11
4.26696
21
-3.16555
0
LINE
8
BLACK
6
CONTINUOUS
10
4.26696
20
-3.16555
11
4.26319
21
-3.1663
0
LINE
8
BLACK
6
CONTINUOUS
10
4.26319
20
-3.1663
11
4.2435
21
-3.1663
0
LINE
8
BLACK
6
CONTINUOUS
10
4.2435
20
-3.1663
11
4.23974
21
-3.16555
0
LINE
8
BLACK
6
CONTINUOUS
10
4.23974
20
-3.16555
11
4.23654
21
-3.16342
0
LINE
8
BLACK
6
CONTINUOUS
10
4.23654
20
-3.16342
11
4.23441
21
-3.16022
0
LINE
8
BLACK
6
CONTINUOUS
10
4.23441
20
-3.16022
11
4.23366
21
-3.15646
0
LINE
8
BLACK
6
CONTINUOUS
10
4.23366
20
-3.15646
11
4.23366
21
-3.12299
0
LINE
8
BLACK
6
CONTINUOUS
10
4.23366
20
-3.12299
11
4.21398
21
-3.12299
0
LINE
8
BLACK
6
CONTINUOUS
10
4.21398
20
-3.12299
11
4.21398
21
-3.15842
0
LINE
8
BLACK
6
CONTINUOUS
10
4.21398
20
-3.15842
11
4.21439
21
-3.16247
0
LINE
8
BLACK
6
CONTINUOUS
10
4.21439
20
-3.16247
11
4.21656
21
-3.16902
0
LINE
8
BLACK
6
CONTINUOUS
10
4.21656
20
-3.16902
11
4.21656
21
-3.16902
0
LINE
8
BLACK
6
CONTINUOUS
10
4.21656
20
-3.16902
11
4.21874
21
-3.17256
0
LINE
8
BLACK
6
CONTINUOUS
10
4.21874
20
-3.17256
11
4.21947
21
-3.17521
0
LINE
8
BLACK
6
CONTINUOUS
10
4.21947
20
-3.17521
11
4.21864
21
-3.17783
0
LINE
8
BLACK
6
CONTINUOUS
10
4.21864
20
-3.17783
11
4.21653
21
-3.1796
0
LINE
8
BLACK
6
CONTINUOUS
10
4.21653
20
-3.1796
11
4.21459
21
-3.18
0
LINE
8
BLACK
6
CONTINUOUS
10
4.21459
20
-3.18
11
3.82488
21
-3.18
0
LINE
8
BLACK
6
CONTINUOUS
10
3.82488
20
-3.18
11
3.82224
21
-3.17922
0
LINE
8
BLACK
6
CONTINUOUS
10
3.82224
20
-3.17922
11
3.82044
21
-3.17715
0
LINE
8
BLACK
6
CONTINUOUS
10
3.82044
20
-3.17715
11
3.82
21
-3.17512
0
LINE
8
BLACK
6
CONTINUOUS
10
3.82
20
-3.17512
11
3.82
21
-2.77047
0
LINE
8
BLACK
6
CONTINUOUS
10
3.82
20
-2.77047
11
3.82
21
-2.42488
0
LINE
8
BLACK
6
CONTINUOUS
10
3.82
20
-2.42488
11
3.82077
21
-2.42224
0
LINE
8
BLACK
6
CONTINUOUS
10
3.82077
20
-2.42224
11
3.82285
21
-2.42044
0
LINE
8
BLACK
6
CONTINUOUS
10
3.82285
20
-2.42044
11
3.82488
21
-2.42
0
LINE
8
BLACK
6
CONTINUOUS
10
3.82488
20
-2.42
11
4.22443
21
-2.42
0
LINE
8
BLACK
6
CONTINUOUS
10
4.22443
20
-2.42
11
4.22707
21
-2.42077
0
LINE
8
BLACK
6
CONTINUOUS
10
4.53484
20
-3.04031
11
4.53484
21
-3.04032
0
LINE
8
BLACK
6
CONTINUOUS
10
4.53484
20
-3.04032
11
4.5308
21
-3.04073
0
LINE
8
BLACK
6
CONTINUOUS
10
4.5308
20
-3.04073
11
4.52425
21
-3.0429
0
LINE
8
BLACK
6
CONTINUOUS
10
4.52425
20
-3.0429
11
4.52425
21
-3.0429
0
LINE
8
BLACK
6
CONTINUOUS
10
4.52425
20
-3.0429
11
4.51837
21
-3.04652
0
LINE
8
BLACK
6
CONTINUOUS
10
4.51837
20
-3.04652
11
4.51349
21
-3.0514
0
LINE
8
BLACK
6
CONTINUOUS
10
4.51349
20
-3.0514
11
4.50987
21
-3.05728
0
LINE
8
BLACK
6
CONTINUOUS
10
4.50987
20
-3.05728
11
4.50987
21
-3.05728
0
LINE
8
BLACK
6
CONTINUOUS
10
4.50987
20
-3.05728
11
4.5077
21
-3.06383
0
LINE
8
BLACK
6
CONTINUOUS
10
4.5077
20
-3.06383
11
4.5077
21
-3.06383
0
LINE
8
BLACK
6
CONTINUOUS
10
4.5077
20
-3.06383
11
4.50728
21
-3.06787
0
LINE
8
BLACK
6
CONTINUOUS
10
4.50728
20
-3.06787
11
4.50728
21
-3.10331
0
LINE
8
BLACK
6
CONTINUOUS
10
4.50728
20
-3.10331
11
4.52697
21
-3.10331
0
LINE
8
BLACK
6
CONTINUOUS
10
4.52697
20
-3.10331
11
4.52697
21
-3.06984
0
LINE
8
BLACK
6
CONTINUOUS
10
4.52697
20
-3.06984
11
4.52772
21
-3.06608
0
LINE
8
BLACK
6
CONTINUOUS
10
4.52772
20
-3.06608
11
4.52985
21
-3.06288
0
LINE
8
BLACK
6
CONTINUOUS
10
4.52985
20
-3.06288
11
4.53304
21
-3.06075
0
LINE
8
BLACK
6
CONTINUOUS
10
4.53304
20
-3.06075
11
4.53681
21
-3.06
0
LINE
8
BLACK
6
CONTINUOUS
10
4.53681
20
-3.06
11
4.53681
21
-3.04031
0
LINE
8
BLACK
6
CONTINUOUS
10
4.53681
20
-3.04031
11
4.53681
21
-3.04031
0
LINE
8
BLACK
6
CONTINUOUS
10
4.53681
20
-3.04031
11
4.53484
21
-3.04031
0
LINE
8
BLACK
6
CONTINUOUS
10
4.5565
20
-3.06
11
4.56026
21
-3.06075
0
LINE
8
BLACK
6
CONTINUOUS
10
4.56026
20
-3.06075
11
4.56346
21
-3.06288
0
LINE
8
BLACK
6
CONTINUOUS
10
4.56346
20
-3.06288
11
4.56559
21
-3.06608
0
LINE
8
BLACK
6
CONTINUOUS
10
4.56559
20
-3.06608
11
4.56634
21
-3.06984
0
LINE
8
BLACK
6
CONTINUOUS
10
4.56634
20
-3.06984
11
4.56634
21
-3.10331
0
LINE
8
BLACK
6
CONTINUOUS
10
4.56634
20
-3.10331
11
4.58602
21
-3.10331
0
LINE
8
BLACK
6
CONTINUOUS
10
4.58602
20
-3.10331
11
4.58602
21
-3.06788
0
LINE
8
BLACK
6
CONTINUOUS
10
4.58602
20
-3.06788
11
4.58602
21
-3.06787
0
LINE
8
BLACK
6
CONTINUOUS
10
4.58602
20
-3.06787
11
4.58561
21
-3.06383
0
LINE
8
BLACK
6
CONTINUOUS
10
4.58561
20
-3.06383
11
4.58344
21
-3.05728
0
LINE
8
BLACK
6
CONTINUOUS
10
4.58344
20
-3.05728
11
4.58344
21
-3.05728
0
LINE
8
BLACK
6
CONTINUOUS
10
4.58344
20
-3.05728
11
4.57982
21
-3.0514
0
LINE
8
BLACK
6
CONTINUOUS
10
4.57982
20
-3.0514
11
4.57493
21
-3.04652
0
LINE
8
BLACK
6
CONTINUOUS
10
4.57493
20
-3.04652
11
4.56906
21
-3.0429
0
LINE
8
BLACK
6
CONTINUOUS
10
4.56906
20
-3.0429
11
4.56906
21
-3.0429
0
LINE
8
BLACK
6
CONTINUOUS
10
4.56906
20
-3.0429
11
4.56251
21
-3.04073
0
LINE
8
BLACK
6
CONTINUOUS
10
4.56251
20
-3.04073
11
4.56251
21
-3.04073
0
LINE
8
BLACK
6
CONTINUOUS
10
4.56251
20
-3.04073
11
4.55846
21
-3.04031
0
LINE
8
BLACK
6
CONTINUOUS
10
4.55846
20
-3.04031
11
4.5565
21
-3.04031
0
LINE
8
BLACK
6
CONTINUOUS
10
4.5565
20
-3.04031
11
4.5565
21
-3.06
0
LINE
8
BLACK
6
CONTINUOUS
10
4.08077
20
-2.77331
11
4.08077
21
-2.77331
0
LINE
8
BLACK
6
CONTINUOUS
10
4.08077
20
-2.77331
11
4.08091
21
-2.77378
0
LINE
8
BLACK
6
CONTINUOUS
10
4.08091
20
-2.77378
11
4.08096
21
-2.77577
0
LINE
8
BLACK
6
CONTINUOUS
10
4.08096
20
-2.77577
11
4.08105
21
-2.77578
0
LINE
8
BLACK
6
CONTINUOUS
10
4.08105
20
-2.77578
11
4.08077
21
-2.77843
0
LINE
8
BLACK
6
CONTINUOUS
10
4.08077
20
-2.77843
11
4.08077
21
-2.77843
0
LINE
8
BLACK
6
CONTINUOUS
10
4.08077
20
-2.77843
11
4.08077
21
-2.82157
0
LINE
8
BLACK
6
CONTINUOUS
10
4.08077
20
-2.82157
11
4.08077
21
-2.82157
0
LINE
8
BLACK
6
CONTINUOUS
10
4.08077
20
-2.82157
11
4.08102
21
-2.82392
0
LINE
8
BLACK
6
CONTINUOUS
10
4.08102
20
-2.82392
11
4.083
21
-2.82923
0
LINE
8
BLACK
6
CONTINUOUS
10
4.083
20
-2.82923
11
4.083
21
-2.82923
0
LINE
8
BLACK
6
CONTINUOUS
10
4.083
20
-2.82923
11
4.0864
21
-2.83376
0
LINE
8
BLACK
6
CONTINUOUS
10
4.0864
20
-2.83376
11
4.0864
21
-2.83376
0
LINE
8
BLACK
6
CONTINUOUS
10
4.0864
20
-2.83376
11
4.09093
21
-2.83716
0
LINE
8
BLACK
6
CONTINUOUS
10
4.09093
20
-2.83716
11
4.09093
21
-2.83716
0
LINE
8
BLACK
6
CONTINUOUS
10
4.09093
20
-2.83716
11
4.09624
21
-2.83914
0
LINE
8
BLACK
6
CONTINUOUS
10
4.09624
20
-2.83914
11
4.09624
21
-2.83914
0
LINE
8
BLACK
6
CONTINUOUS
10
4.09624
20
-2.83914
11
4.09651
21
-2.83917
0
LINE
8
BLACK
6
CONTINUOUS
10
4.09651
20
-2.83917
11
4.09859
21
-2.83939
0
LINE
8
BLACK
6
CONTINUOUS
10
4.09859
20
-2.83939
11
4.10047
21
-2.83939
0
LINE
8
BLACK
6
CONTINUOUS
10
4.10047
20
-2.83939
11
4.10047
21
-2.82953
0
LINE
8
BLACK
6
CONTINUOUS
10
4.10047
20
-2.82953
11
4.15953
21
-2.82953
0
LINE
8
BLACK
6
CONTINUOUS
10
4.15953
20
-2.82953
11
4.15953
21
-2.83939
0
LINE
8
BLACK
6
CONTINUOUS
10
4.15953
20
-2.83939
11
4.16141
21
-2.83939
0
LINE
8
BLACK
6
CONTINUOUS
10
4.16141
20
-2.83939
11
4.16376
21
-2.83914
0
LINE
8
BLACK
6
CONTINUOUS
10
4.16376
20
-2.83914
11
4.16907
21
-2.83716
0
LINE
8
BLACK
6
CONTINUOUS
10
4.16907
20
-2.83716
11
4.17215
21
-2.83485
0
LINE
8
BLACK
6
CONTINUOUS
10
4.17215
20
-2.83485
11
4.17472
21
-2.83389
0
LINE
8
BLACK
6
CONTINUOUS
10
4.17472
20
-2.83389
11
4.17741
21
-2.83448
0
LINE
8
BLACK
6
CONTINUOUS
10
4.17741
20
-2.83448
11
4.17936
21
-2.83642
0
LINE
8
BLACK
6
CONTINUOUS
10
4.17936
20
-2.83642
11
4.17995
21
-2.83876
0
LINE
8
BLACK
6
CONTINUOUS
10
4.17995
20
-2.83876
11
4.17995
21
-2.85401
0
LINE
8
BLACK
6
CONTINUOUS
10
4.17995
20
-2.85401
11
4.18076
21
-2.85962
0
LINE
8
BLACK
6
CONTINUOUS
10
4.18076
20
-2.85962
11
4.18076
21
-2.85962
0
LINE
8
BLACK
6
CONTINUOUS
10
4.18076
20
-2.85962
11
4.1813
21
-2.86146
0
LINE
8
BLACK
6
CONTINUOUS
10
4.1813
20
-2.86146
11
4.18236
21
-2.86505
0
LINE
8
BLACK
6
CONTINUOUS
10
4.18236
20
-2.86505
11
4.18463
21
-2.87002
0
LINE
8
BLACK
6
CONTINUOUS
10
4.18463
20
-2.87002
11
4.18471
21
-2.87021
0
LINE
8
BLACK
6
CONTINUOUS
10
4.18471
20
-2.87021
11
4.18471
21
-2.87021
0
LINE
8
BLACK
6
CONTINUOUS
10
4.18471
20
-2.87021
11
4.18777
21
-2.87497
0
LINE
8
BLACK
6
CONTINUOUS
10
4.18777
20
-2.87497
11
4.19148
21
-2.87925
0
LINE
8
BLACK
6
CONTINUOUS
10
4.19148
20
-2.87925
11
4.19148
21
-2.87925
0
LINE
8
BLACK
6
CONTINUOUS
10
4.19148
20
-2.87925
11
4.19576
21
-2.88296
0
LINE
8
BLACK
6
CONTINUOUS
10
4.19576
20
-2.88296
11
4.19576
21
-2.88296
0
LINE
8
BLACK
6
CONTINUOUS
10
4.19576
20
-2.88296
11
4.19576
21
-2.88296
0
LINE
8
BLACK
6
CONTINUOUS
10
4.19576
20
-2.88296
11
4.19835
21
-2.88462
0
LINE
8
BLACK
6
CONTINUOUS
10
4.19835
20
-2.88462
11
4.20015
21
-2.8867
0
LINE
8
BLACK
6
CONTINUOUS
10
4.20015
20
-2.8867
11
4.20054
21
-2.88942
0
LINE
8
BLACK
6
CONTINUOUS
10
4.20054
20
-2.88942
11
4.19994
21
-2.89117
0
LINE
8
BLACK
6
CONTINUOUS
10
4.19994
20
-2.89117
11
4.19743
21
-2.8955
0
LINE
8
BLACK
6
CONTINUOUS
10
4.19743
20
-2.8955
11
4.19743
21
-2.8955
0
LINE
8
BLACK
6
CONTINUOUS
10
4.19743
20
-2.8955
11
4.19516
21
-2.90248
0
LINE
8
BLACK
6
CONTINUOUS
10
4.19516
20
-2.90248
11
4.19513
21
-2.90259
0
LINE
8
BLACK
6
CONTINUOUS
10
4.19513
20
-2.90259
11
4.19435
21
-2.91
0
LINE
8
BLACK
6
CONTINUOUS
10
4.19435
20
-2.91
11
4.19513
21
-2.91741
0
LINE
8
BLACK
6
CONTINUOUS
10
4.19513
20
-2.91741
11
4.19513
21
-2.91741
0
LINE
8
BLACK
6
CONTINUOUS
10
4.19513
20
-2.91741
11
4.19743
21
-2.9245
0
LINE
8
BLACK
6
CONTINUOUS
10
4.19743
20
-2.9245
11
4.19743
21
-2.9245
0
LINE
8
BLACK
6
CONTINUOUS
10
4.19743
20
-2.9245
11
4.19743
21
-2.9245
0
LINE
8
BLACK
6
CONTINUOUS
10
4.19743
20
-2.9245
11
4.20116
21
-2.93095
0
LINE
8
BLACK
6
CONTINUOUS
10
4.20116
20
-2.93095
11
4.20563
21
-2.93592
0
LINE
8
BLACK
6
CONTINUOUS
10
4.20563
20
-2.93592
11
4.20615
21
-2.93649
0
LINE
8
BLACK
6
CONTINUOUS
10
4.20615
20
-2.93649
11
4.21218
21
-2.94087
0
LINE
8
BLACK
6
CONTINUOUS
10
4.21218
20
-2.94087
11
4.21218
21
-2.94087
0
LINE
8
BLACK
6
CONTINUOUS
10
4.21218
20
-2.94087
11
4.21898
21
-2.9439
0
LINE
8
BLACK
6
CONTINUOUS
10
4.21898
20
-2.9439
11
4.21898
21
-2.9439
0
LINE
8
BLACK
6
CONTINUOUS
10
4.21898
20
-2.9439
11
4.22627
21
-2.94545
0
LINE
8
BLACK
6
CONTINUOUS
10
4.22627
20
-2.94545
11
4.22627
21
-2.94545
0
LINE
8
BLACK
6
CONTINUOUS
10
4.22627
20
-2.94545
11
4.23373
21
-2.94545
0
LINE
8
BLACK
6
CONTINUOUS
10
4.23373
20
-2.94545
11
4.23373
21
-2.94545
0
LINE
8
BLACK
6
CONTINUOUS
10
4.23373
20
-2.94545
11
4.24048
21
-2.94402
0
LINE
8
BLACK
6
CONTINUOUS
10
4.24048
20
-2.94402
11
4.24322
21
-2.94423
0
LINE
8
BLACK
6
CONTINUOUS
10
4.24322
20
-2.94423
11
4.24541
21
-2.94589
0
LINE
8
BLACK
6
CONTINUOUS
10
4.24541
20
-2.94589
11
4.24636
21
-2.94847
0
LINE
8
BLACK
6
CONTINUOUS
10
4.24636
20
-2.94847
11
4.24637
21
-2.94879
0
LINE
8
BLACK
6
CONTINUOUS
10
4.24637
20
-2.94879
11
4.24637
21
-3.03374
0
LINE
8
BLACK
6
CONTINUOUS
10
4.24637
20
-3.03374
11
4.24631
21
-3.03436
0
LINE
8
BLACK
6
CONTINUOUS
10
4.24631
20
-3.03436
11
4.24632
21
-3.03436
0
LINE
8
BLACK
6
CONTINUOUS
10
4.24632
20
-3.03436
11
4.24629
21
-3.03466
0
LINE
8
BLACK
6
CONTINUOUS
10
4.24629
20
-3.03466
11
4.24631
21
-3.03528
0
LINE
8
BLACK
6
CONTINUOUS
10
4.24631
20
-3.03528
11
4.24562
21
-3.03794
0
LINE
8
BLACK
6
CONTINUOUS
10
4.24562
20
-3.03794
11
4.24359
21
-3.03981
0
LINE
8
BLACK
6
CONTINUOUS
10
4.24359
20
-3.03981
11
4.24166
21
-3.04026
0
LINE
8
BLACK
6
CONTINUOUS
10
4.24166
20
-3.04026
11
4.24166
21
-3.04031
0
LINE
8
BLACK
6
CONTINUOUS
10
4.24166
20
-3.04031
11
4.24154
21
-3.04032
0
LINE
8
BLACK
6
CONTINUOUS
10
4.24154
20
-3.04032
11
4.23749
21
-3.04073
0
LINE
8
BLACK
6
CONTINUOUS
10
4.23749
20
-3.04073
11
4.23094
21
-3.0429
0
LINE
8
BLACK
6
CONTINUOUS
10
4.23094
20
-3.0429
11
4.23094
21
-3.0429
0
LINE
8
BLACK
6
CONTINUOUS
10
4.23094
20
-3.0429
11
4.22507
21
-3.04652
0
LINE
8
BLACK
6
CONTINUOUS
10
4.22507
20
-3.04652
11
4.22018
21
-3.0514
0
LINE
8
BLACK
6
CONTINUOUS
10
4.22018
20
-3.0514
11
4.21656
21
-3.05728
0
LINE
8
BLACK
6
CONTINUOUS
10
4.21656
20
-3.05728
11
4.21656
21
-3.05728
0
LINE
8
BLACK
6
CONTINUOUS
10
4.21656
20
-3.05728
11
4.21439
21
-3.06383
0
LINE
8
BLACK
6
CONTINUOUS
10
4.21439
20
-3.06383
11
4.21439
21
-3.06383
0
LINE
8
BLACK
6
CONTINUOUS
10
4.21439
20
-3.06383
11
4.21398
21
-3.06787
0
LINE
8
BLACK
6
CONTINUOUS
10
4.21398
20
-3.06787
11
4.21398
21
-3.10331
0
LINE
8
BLACK
6
CONTINUOUS
10
4.21398
20
-3.10331
11
4.23366
21
-3.10331
0
LINE
8
BLACK
6
CONTINUOUS
10
4.23366
20
-3.10331
11
4.23366
21
-3.06984
0
LINE
8
BLACK
6
CONTINUOUS
10
4.23366
20
-3.06984
11
4.23441
21
-3.06608
0
LINE
8
BLACK
6
CONTINUOUS
10
4.23441
20
-3.06608
11
4.23654
21
-3.06288
0
LINE
8
BLACK
6
CONTINUOUS
10
4.23654
20
-3.06288
11
4.23974
21
-3.06075
0
LINE
8
BLACK
6
CONTINUOUS
10
4.23974
20
-3.06075
11
4.2435
21
-3.06
0
LINE
8
BLACK
6
CONTINUOUS
10
4.2435
20
-3.06
11
4.26319
21
-3.06
0
LINE
8
BLACK
6
CONTINUOUS
10
4.26319
20
-3.06
11
4.26696
21
-3.06075
0
LINE
8
BLACK
6
CONTINUOUS
10
4.26696
20
-3.06075
11
4.27015
21
-3.06288
0
LINE
8
BLACK
6
CONTINUOUS
10
4.27015
20
-3.06288
11
4.27228
21
-3.06608
0
LINE
8
BLACK
6
CONTINUOUS
10
4.27228
20
-3.06608
11
4.27303
21
-3.06984
0
LINE
8
BLACK
6
CONTINUOUS
10
4.27303
20
-3.06984
11
4.27303
21
-3.10331
0
LINE
8
BLACK
6
CONTINUOUS
10
4.27303
20
-3.10331
11
4.29272
21
-3.10331
0
LINE
8
BLACK
6
CONTINUOUS
10
4.29272
20
-3.10331
11
4.29415
21
-3.10188
0
LINE
8
BLACK
6
CONTINUOUS
10
4.29415
20
-3.10188
11
4.29428
21
-3.10201
0
LINE
8
BLACK
6
CONTINUOUS
10
4.29428
20
-3.10201
11
4.29557
21
-3.10089
0
LINE
8
BLACK
6
CONTINUOUS
10
4.29557
20
-3.10089
11
4.29829
21
-3.1005
0
LINE
8
BLACK
6
CONTINUOUS
10
4.29829
20
-3.1005
11
4.3008
21
-3.10164
0
LINE
8
BLACK
6
CONTINUOUS
10
4.3008
20
-3.10164
11
4.30105
21
-3.10188
0
LINE
8
BLACK
6
CONTINUOUS
10
4.30105
20
-3.10188
11
4.3065
21
-3.10733
0
LINE
8
BLACK
6
CONTINUOUS
10
4.3065
20
-3.10733
11
4.307
21
-3.10725
0
LINE
8
BLACK
6
CONTINUOUS
10
4.307
20
-3.10725
11
4.31187
21
-3.10802
0
LINE
8
BLACK
6
CONTINUOUS
10
4.31187
20
-3.10802
11
4.31626
21
-3.11026
0
LINE
8
BLACK
6
CONTINUOUS
10
4.31626
20
-3.11026
11
4.31974
21
-3.11374
0
LINE
8
BLACK
6
CONTINUOUS
10
4.31974
20
-3.11374
11
4.32189
21
-3.11797
0
LINE
8
BLACK
6
CONTINUOUS
10
4.32189
20
-3.11797
11
4.32278
21
-3.11811
0
LINE
8
BLACK
6
CONTINUOUS
10
4.32278
20
-3.11811
11
4.32289
21
-3.11812
0
LINE
8
BLACK
6
CONTINUOUS
10
4.32289
20
-3.11812
11
4.32311
21
-3.11817
0
LINE
8
BLACK
6
CONTINUOUS
10
4.32311
20
-3.11817
11
4.32489
21
-3.11863
0
LINE
8
BLACK
6
CONTINUOUS
10
4.32489
20
-3.11863
11
4.32568
21
-3.11863
0
LINE
8
BLACK
6
CONTINUOUS
10
4.32568
20
-3.11863
11
4.32644
21
-3.11869
0
LINE
8
BLACK
6
CONTINUOUS
10
4.32644
20
-3.11869
11
4.32722
21
-3.11881
0
LINE
8
BLACK
6
CONTINUOUS
10
4.32722
20
-3.11881
11
4.32722
21
-3.11881
0
LINE
8
BLACK
6
CONTINUOUS
10
4.32722
20
-3.11881
11
4.32722
21
-3.11881
0
LINE
8
BLACK
6
CONTINUOUS
10
4.32722
20
-3.11881
11
4.32722
21
-3.11881
0
LINE
8
BLACK
6
CONTINUOUS
10
4.32722
20
-3.11881
11
4.32905
21
-3.11864
0
LINE
8
BLACK
6
CONTINUOUS
10
4.32905
20
-3.11864
11
4.32928
21
-3.11863
0
LINE
8
BLACK
6
CONTINUOUS
10
4.32928
20
-3.11863
11
4.42174
21
-3.11863
0
LINE
8
BLACK
6
CONTINUOUS
10
4.42174
20
-3.11863
11
4.42236
21
-3.11869
0
LINE
8
BLACK
6
CONTINUOUS
10
4.42236
20
-3.11869
11
4.42236
21
-3.11868
0
LINE
8
BLACK
6
CONTINUOUS
10
4.42236
20
-3.11868
11
4.42266
21
-3.11871
0
LINE
8
BLACK
6
CONTINUOUS
10
4.42266
20
-3.11871
11
4.42266
21
-3.11871
0
LINE
8
BLACK
6
CONTINUOUS
10
4.42266
20
-3.11871
11
4.42539
21
-3.11863
0
LINE
8
BLACK
6
CONTINUOUS
10
4.42539
20
-3.11863
11
4.42655
21
-3.11863
0
LINE
8
BLACK
6
CONTINUOUS
10
4.42655
20
-3.11863
11
4.42682
21
-3.11859
0
LINE
8
BLACK
6
CONTINUOUS
10
4.42682
20
-3.11859
11
4.42705
21
-3.11857
0
LINE
8
BLACK
6
CONTINUOUS
10
4.42705
20
-3.11857
11
4.42888
21
-3.11852
0
LINE
8
BLACK
6
CONTINUOUS
10
4.42888
20
-3.11852
11
4.42964
21
-3.1183
0
LINE
8
BLACK
6
CONTINUOUS
10
4.42964
20
-3.1183
11
4.43039
21
-3.11814
0
LINE
8
BLACK
6
CONTINUOUS
10
4.43039
20
-3.11814
11
4.43117
21
-3.11804
0
LINE
8
BLACK
6
CONTINUOUS
10
4.43117
20
-3.11804
11
4.43288
21
-3.11737
0
LINE
8
BLACK
6
CONTINUOUS
10
4.43288
20
-3.11737
11
4.4331
21
-3.11729
0
LINE
8
BLACK
6
CONTINUOUS
10
4.4331
20
-3.11729
11
4.43324
21
-3.11725
0
LINE
8
BLACK
6
CONTINUOUS
10
4.43324
20
-3.11725
11
4.43486
21
-3.11678
0
LINE
8
BLACK
6
CONTINUOUS
10
4.43486
20
-3.11678
11
4.43554
21
-3.11638
0
LINE
8
BLACK
6
CONTINUOUS
10
4.43554
20
-3.11638
11
4.43622
21
-3.11604
0
LINE
8
BLACK
6
CONTINUOUS
10
4.43622
20
-3.11604
11
4.43696
21
-3.11575
0
LINE
8
BLACK
6
CONTINUOUS
10
4.43696
20
-3.11575
11
4.43696
21
-3.11575
0
LINE
8
BLACK
6
CONTINUOUS
10
4.43696
20
-3.11575
11
4.43696
21
-3.11575
0
LINE
8
BLACK
6
CONTINUOUS
10
4.43696
20
-3.11575
11
4.43844
21
-3.11467
0
LINE
8
BLACK
6
CONTINUOUS
10
4.43844
20
-3.11467
11
4.43863
21
-3.11455
0
LINE
8
BLACK
6
CONTINUOUS
10
4.43863
20
-3.11455
11
4.44021
21
-3.11361
0
LINE
8
BLACK
6
CONTINUOUS
10
4.44021
20
-3.11361
11
4.44077
21
-3.11306
0
LINE
8
BLACK
6
CONTINUOUS
10
4.44077
20
-3.11306
11
4.44135
21
-3.11256
0
LINE
8
BLACK
6
CONTINUOUS
10
4.44135
20
-3.11256
11
4.44199
21
-3.11209
0
LINE
8
BLACK
6
CONTINUOUS
10
4.44199
20
-3.11209
11
4.44316
21
-3.11068
0
LINE
8
BLACK
6
CONTINUOUS
10
4.44316
20
-3.11068
11
4.44332
21
-3.11051
0
LINE
8
BLACK
6
CONTINUOUS
10
4.44332
20
-3.11051
11
4.45052
21
-3.10331
0
LINE
8
BLACK
6
CONTINUOUS
10
4.45052
20
-3.10331
11
4.48893
21
-3.0649
0
LINE
8
BLACK
6
CONTINUOUS
10
4.48893
20
-3.0649
11
4.48941
21
-3.06451
0
LINE
8
BLACK
6
CONTINUOUS
10
4.48941
20
-3.06451
11
4.4894
21
-3.0645
0
LINE
8
BLACK
6
CONTINUOUS
10
4.4894
20
-3.0645
11
4.48964
21
-3.06431
0
LINE
8
BLACK
6
CONTINUOUS
10
4.48964
20
-3.06431
11
4.48964
21
-3.06431
0
LINE
8
BLACK
6
CONTINUOUS
10
4.48964
20
-3.06431
11
4.49086
21
-3.06301
0
LINE
8
BLACK
6
CONTINUOUS
10
4.49086
20
-3.06301
11
4.49151
21
-3.06232
0
LINE
8
BLACK
6
CONTINUOUS
10
4.49151
20
-3.06232
11
4.49192
21
-3.06191
0
LINE
8
BLACK
6
CONTINUOUS
10
4.49192
20
-3.06191
11
4.49233
21
-3.0615
0
LINE
8
BLACK
6
CONTINUOUS
10
4.49233
20
-3.0615
11
4.4925
21
-3.06128
0
LINE
8
BLACK
6
CONTINUOUS
10
4.4925
20
-3.06128
11
4.49264
21
-3.06111
0
LINE
8
BLACK
6
CONTINUOUS
10
4.49264
20
-3.06111
11
4.4939
21
-3.05977
0
LINE
8
BLACK
6
CONTINUOUS
10
4.4939
20
-3.05977
11
4.49428
21
-3.05908
0
LINE
8
BLACK
6
CONTINUOUS
10
4.49428
20
-3.05908
11
4.4947
21
-3.05844
0
LINE
8
BLACK
6
CONTINUOUS
10
4.4947
20
-3.05844
11
4.49518
21
-3.05782
0
LINE
8
BLACK
6
CONTINUOUS
10
4.49518
20
-3.05782
11
4.49591
21
-3.05613
0
LINE
8
BLACK
6
CONTINUOUS
10
4.49591
20
-3.05613
11
4.49601
21
-3.05593
0
LINE
8
BLACK
6
CONTINUOUS
10
4.49601
20
-3.05593
11
4.4969
21
-3.05432
0
LINE
8
BLACK
6
CONTINUOUS
10
4.4969
20
-3.05432
11
4.4969
21
-3.05432
0
LINE
8
BLACK
6
CONTINUOUS
10
4.4969
20
-3.05432
11
4.49709
21
-3.05355
0
LINE
8
BLACK
6
CONTINUOUS
10
4.49709
20
-3.05355
11
4.49734
21
-3.05283
0
LINE
8
BLACK
6
CONTINUOUS
10
4.49734
20
-3.05283
11
4.49766
21
-3.05211
0
LINE
8
BLACK
6
CONTINUOUS
10
4.49766
20
-3.05211
11
4.49794
21
-3.05029
0
LINE
8
BLACK
6
CONTINUOUS
10
4.49794
20
-3.05029
11
4.49799
21
-3.05007
0
LINE
8
BLACK
6
CONTINUOUS
10
4.49799
20
-3.05007
11
4.49844
21
-3.04829
0
LINE
8
BLACK
6
CONTINUOUS
10
4.49844
20
-3.04829
11
4.49844
21
-3.0475
0
LINE
8
BLACK
6
CONTINUOUS
10
4.49844
20
-3.0475
11
4.4985
21
-3.04674
0
LINE
8
BLACK
6
CONTINUOUS
10
4.4985
20
-3.04674
11
4.49854
21
-3.04652
0
LINE
8
BLACK
6
CONTINUOUS
10
4.49854
20
-3.04652
11
4.49863
21
-3.04596
0
LINE
8
BLACK
6
CONTINUOUS
10
4.49863
20
-3.04596
11
4.49846
21
-3.04413
0
LINE
8
BLACK
6
CONTINUOUS
10
4.49846
20
-3.04413
11
4.49844
21
-3.0439
0
LINE
8
BLACK
6
CONTINUOUS
10
4.49844
20
-3.0439
11
4.49844
21
-3.03424
0
LINE
8
BLACK
6
CONTINUOUS
10
4.49844
20
-3.03424
11
4.49922
21
-3.03161
0
LINE
8
BLACK
6
CONTINUOUS
10
4.49922
20
-3.03161
11
4.49987
21
-3.03079
0
LINE
8
BLACK
6
CONTINUOUS
10
4.49987
20
-3.03079
11
4.50012
21
-3.03055
0
LINE
8
BLACK
6
CONTINUOUS
10
4.50012
20
-3.03055
11
4.50342
21
-3.02498
0
LINE
8
BLACK
6
CONTINUOUS
10
4.50342
20
-3.02498
11
4.50522
21
-3.01876
0
LINE
8
BLACK
6
CONTINUOUS
10
4.50522
20
-3.01876
11
4.50533
21
-3.01731
0
LINE
8
BLACK
6
CONTINUOUS
10
4.50533
20
-3.01731
11
4.50533
21
-2.95702
0
LINE
8
BLACK
6
CONTINUOUS
10
4.50533
20
-2.95702
11
4.50522
21
-2.95557
0
LINE
8
BLACK
6
CONTINUOUS
10
4.50522
20
-2.95557
11
4.5052
21
-2.9555
0
LINE
8
BLACK
6
CONTINUOUS
10
4.5052
20
-2.9555
11
4.50342
21
-2.94935
0
LINE
8
BLACK
6
CONTINUOUS
10
4.50342
20
-2.94935
11
4.50342
21
-2.94935
0
LINE
8
BLACK
6
CONTINUOUS
10
4.50342
20
-2.94935
11
4.50342
21
-2.94935
0
LINE
8
BLACK
6
CONTINUOUS
10
4.50342
20
-2.94935
11
4.50012
21
-2.94378
0
LINE
8
BLACK
6
CONTINUOUS
10
4.50012
20
-2.94378
11
4.50012
21
-2.94378
0
LINE
8
BLACK
6
CONTINUOUS
10
4.50012
20
-2.94378
11
4.50012
21
-2.94378
0
LINE
8
BLACK
6
CONTINUOUS
10
4.50012
20
-2.94378
11
4.49555
21
-2.93921
0
LINE
8
BLACK
6
CONTINUOUS
10
4.49555
20
-2.93921
11
4.49555
21
-2.93921
0
LINE
8
BLACK
6
CONTINUOUS
10
4.49555
20
-2.93921
11
4.48998
21
-2.93592
0
LINE
8
BLACK
6
CONTINUOUS
10
4.48998
20
-2.93592
11
4.48998
21
-2.93592
0
LINE
8
BLACK
6
CONTINUOUS
10
4.48998
20
-2.93592
11
4.48376
21
-2.93411
0
LINE
8
BLACK
6
CONTINUOUS
10
4.48376
20
-2.93411
11
4.48376
21
-2.93411
0
LINE
8
BLACK
6
CONTINUOUS
10
4.48376
20
-2.93411
11
4.48231
21
-2.934
0
LINE
8
BLACK
6
CONTINUOUS
10
4.48231
20
-2.934
11
4.48231
21
-2.934
0
LINE
8
BLACK
6
CONTINUOUS
10
4.48231
20
-2.934
11
4.46533
21
-2.934
0
LINE
8
BLACK
6
CONTINUOUS
10
4.46533
20
-2.934
11
4.46533
21
-2.934
0
LINE
8
BLACK
6
CONTINUOUS
10
4.46533
20
-2.934
11
4.46388
21
-2.93411
0
LINE
8
BLACK
6
CONTINUOUS
10
4.46388
20
-2.93411
11
4.46082
21
-2.935
0
LINE
8
BLACK
6
CONTINUOUS
10
4.46082
20
-2.935
11
4.45807
21
-2.93499
0
LINE
8
BLACK
6
CONTINUOUS
10
4.45807
20
-2.93499
11
4.45576
21
-2.9335
0
LINE
8
BLACK
6
CONTINUOUS
10
4.45576
20
-2.9335
11
4.45462
21
-2.93099
0
LINE
8
BLACK
6
CONTINUOUS
10
4.45462
20
-2.93099
11
4.45502
21
-2.92827
0
LINE
8
BLACK
6
CONTINUOUS
10
4.45502
20
-2.92827
11
4.45523
21
-2.92787
0
LINE
8
BLACK
6
CONTINUOUS
10
4.45523
20
-2.92787
11
4.45717
21
-2.9245
0
LINE
8
BLACK
6
CONTINUOUS
10
4.45717
20
-2.9245
11
4.45948
21
-2.91741
0
LINE
8
BLACK
6
CONTINUOUS
10
4.45948
20
-2.91741
11
4.46017
21
-2.9108
0
LINE
8
BLACK
6
CONTINUOUS
10
4.46017
20
-2.9108
11
4.46122
21
-2.90826
0
LINE
8
BLACK
6
CONTINUOUS
10
4.46122
20
-2.90826
11
4.46157
21
-2.90786
0
LINE
8
BLACK
6
CONTINUOUS
10
4.46157
20
-2.90786
11
4.47011
21
-2.89932
0
LINE
8
BLACK
6
CONTINUOUS
10
4.47011
20
-2.89932
11
4.47059
21
-2.89894
0
LINE
8
BLACK
6
CONTINUOUS
10
4.47059
20
-2.89894
11
4.47058
21
-2.89893
0
LINE
8
BLACK
6
CONTINUOUS
10
4.47058
20
-2.89893
11
4.47082
21
-2.89873
0
LINE
8
BLACK
6
CONTINUOUS
10
4.47082
20
-2.89873
11
4.47082
21
-2.89873
0
LINE
8
BLACK
6
CONTINUOUS
10
4.47082
20
-2.89873
11
4.47204
21
-2.89744
0
LINE
8
BLACK
6
CONTINUOUS
10
4.47204
20
-2.89744
11
4.47269
21
-2.89675
0
LINE
8
BLACK
6
CONTINUOUS
10
4.47269
20
-2.89675
11
4.4731
21
-2.89634
0
LINE
8
BLACK
6
CONTINUOUS
10
4.4731
20
-2.89634
11
4.47351
21
-2.89592
0
LINE
8
BLACK
6
CONTINUOUS
10
4.47351
20
-2.89592
11
4.47368
21
-2.89571
0
LINE
8
BLACK
6
CONTINUOUS
10
4.47368
20
-2.89571
11
4.47382
21
-2.89553
0
LINE
8
BLACK
6
CONTINUOUS
10
4.47382
20
-2.89553
11
4.47508
21
-2.8942
0
LINE
8
BLACK
6
CONTINUOUS
10
4.47508
20
-2.8942
11
4.47546
21
-2.8935
0
LINE
8
BLACK
6
CONTINUOUS
10
4.47546
20
-2.8935
11
4.47588
21
-2.89286
0
LINE
8
BLACK
6
CONTINUOUS
10
4.47588
20
-2.89286
11
4.47637
21
-2.89224
0
LINE
8
BLACK
6
CONTINUOUS
10
4.47637
20
-2.89224
11
4.47709
21
-2.89056
0
LINE
8
BLACK
6
CONTINUOUS
10
4.47709
20
-2.89056
11
4.47719
21
-2.89035
0
LINE
8
BLACK
6
CONTINUOUS
10
4.47719
20
-2.89035
11
4.47771
21
-2.88942
0
LINE
8
BLACK
6
CONTINUOUS
10
4.47771
20
-2.88942
11
4.47808
21
-2.88874
0
LINE
8
BLACK
6
CONTINUOUS
10
4.47808
20
-2.88874
11
4.47827
21
-2.88798
0
LINE
8
BLACK
6
CONTINUOUS
10
4.47827
20
-2.88798
11
4.47852
21
-2.88726
0
LINE
8
BLACK
6
CONTINUOUS
10
4.47852
20
-2.88726
11
4.47884
21
-2.88653
0
LINE
8
BLACK
6
CONTINUOUS
10
4.47884
20
-2.88653
11
4.47912
21
-2.88472
0
LINE
8
BLACK
6
CONTINUOUS
10
4.47912
20
-2.88472
11
4.47917
21
-2.88449
0
LINE
8
BLACK
6
CONTINUOUS
10
4.47917
20
-2.88449
11
4.47963
21
-2.88272
0
LINE
8
BLACK
6
CONTINUOUS
10
4.47963
20
-2.88272
11
4.47963
21
-2.88193
0
LINE
8
BLACK
6
CONTINUOUS
10
4.47963
20
-2.88193
11
4.47969
21
-2.88116
0
LINE
8
BLACK
6
CONTINUOUS
10
4.47969
20
-2.88116
11
4.47981
21
-2.88039
0
LINE
8
BLACK
6
CONTINUOUS
10
4.47981
20
-2.88039
11
4.47964
21
-2.87856
0
LINE
8
BLACK
6
CONTINUOUS
10
4.47964
20
-2.87856
11
4.47963
21
-2.87833
0
LINE
8
BLACK
6
CONTINUOUS
10
4.47963
20
-2.87833
11
4.47963
21
-2.77426
0
LINE
8
BLACK
6
CONTINUOUS
10
4.47963
20
-2.77426
11
4.47969
21
-2.77364
0
LINE
8
BLACK
6
CONTINUOUS
10
4.47969
20
-2.77364
11
4.47968
21
-2.77364
0
LINE
8
BLACK
6
CONTINUOUS
10
4.47968
20
-2.77364
11
4.47971
21
-2.77334
0
LINE
8
BLACK
6
CONTINUOUS
10
4.47971
20
-2.77334
11
4.47971
21
-2.77334
0
LINE
8
BLACK
6
CONTINUOUS
10
4.47971
20
-2.77334
11
4.47963
21
-2.77061
0
LINE
8
BLACK
6
CONTINUOUS
10
4.47963
20
-2.77061
11
4.47963
21
-2.76945
0
LINE
8
BLACK
6
CONTINUOUS
10
4.47963
20
-2.76945
11
4.47959
21
-2.76918
0
LINE
8
BLACK
6
CONTINUOUS
10
4.47959
20
-2.76918
11
4.47957
21
-2.76895
0
LINE
8
BLACK
6
CONTINUOUS
10
4.47957
20
-2.76895
11
4.47952
21
-2.76712
0
LINE
8
BLACK
6
CONTINUOUS
10
4.47952
20
-2.76712
11
4.4793
21
-2.76636
0
LINE
8
BLACK
6
CONTINUOUS
10
4.4793
20
-2.76636
11
4.47914
21
-2.76561
0
LINE
8
BLACK
6
CONTINUOUS
10
4.47914
20
-2.76561
11
4.47904
21
-2.76483
0
LINE
8
BLACK
6
CONTINUOUS
10
4.47904
20
-2.76483
11
4.47837
21
-2.76312
0
LINE
8
BLACK
6
CONTINUOUS
10
4.47837
20
-2.76312
11
4.47829
21
-2.7629
0
LINE
8
BLACK
6
CONTINUOUS
10
4.47829
20
-2.7629
11
4.47778
21
-2.76114
0
LINE
8
BLACK
6
CONTINUOUS
10
4.47778
20
-2.76114
11
4.47778
21
-2.76114
0
LINE
8
BLACK
6
CONTINUOUS
10
4.47778
20
-2.76114
11
4.47738
21
-2.76046
0
LINE
8
BLACK
6
CONTINUOUS
10
4.47738
20
-2.76046
11
4.47704
21
-2.75978
0
LINE
8
BLACK
6
CONTINUOUS
10
4.47704
20
-2.75978
11
4.47675
21
-2.75904
0
LINE
8
BLACK
6
CONTINUOUS
10
4.47675
20
-2.75904
11
4.47666
21
-2.75892
0
LINE
8
BLACK
6
CONTINUOUS
10
4.47666
20
-2.75892
11
4.47567
21
-2.75756
0
LINE
8
BLACK
6
CONTINUOUS
10
4.47567
20
-2.75756
11
4.47555
21
-2.75737
0
LINE
8
BLACK
6
CONTINUOUS
10
4.47555
20
-2.75737
11
4.47533
21
-2.757
0
LINE
8
BLACK
6
CONTINUOUS
10
4.47533
20
-2.757
11
4.47463
21
-2.75582
0
LINE
8
BLACK
6
CONTINUOUS
10
4.47463
20
-2.75582
11
4.47461
21
-2.75579
0
LINE
8
BLACK
6
CONTINUOUS
10
4.47461
20
-2.75579
11
4.47461
21
-2.75579
0
LINE
8
BLACK
6
CONTINUOUS
10
4.47461
20
-2.75579
11
4.47406
21
-2.75523
0
LINE
8
BLACK
6
CONTINUOUS
10
4.47406
20
-2.75523
11
4.47356
21
-2.75465
0
LINE
8
BLACK
6
CONTINUOUS
10
4.47356
20
-2.75465
11
4.47326
21
-2.75424
0
LINE
8
BLACK
6
CONTINUOUS
10
4.47326
20
-2.75424
11
4.47309
21
-2.75401
0
LINE
8
BLACK
6
CONTINUOUS
10
4.47309
20
-2.75401
11
4.47168
21
-2.75284
0
LINE
8
BLACK
6
CONTINUOUS
10
4.47168
20
-2.75284
11
4.47151
21
-2.75268
0
LINE
8
BLACK
6
CONTINUOUS
10
4.47151
20
-2.75268
11
4.45066
21
-2.73184
0
LINE
8
BLACK
6
CONTINUOUS
10
4.45066
20
-2.73184
11
4.44934
21
-2.72942
0
LINE
8
BLACK
6
CONTINUOUS
10
4.44934
20
-2.72942
11
4.44923
21
-2.72838
0
LINE
8
BLACK
6
CONTINUOUS
10
4.44923
20
-2.72838
11
4.44923
21
-2.67764
0
LINE
8
BLACK
6
CONTINUOUS
10
4.44923
20
-2.67764
11
4.45001
21
-2.675
0
LINE
8
BLACK
6
CONTINUOUS
10
4.45001
20
-2.675
11
4.45209
21
-2.67319
0
LINE
8
BLACK
6
CONTINUOUS
10
4.45209
20
-2.67319
11
4.45481
21
-2.6728
0
LINE
8
BLACK
6
CONTINUOUS
10
4.45481
20
-2.6728
11
4.4566
21
-2.67343
0
LINE
8
BLACK
6
CONTINUOUS
10
4.4566
20
-2.67343
11
4.45767
21
-2.67407
0
LINE
8
BLACK
6
CONTINUOUS
10
4.45767
20
-2.67407
11
4.45767
21
-2.67407
0
LINE
8
BLACK
6
CONTINUOUS
10
4.45767
20
-2.67407
11
4.46388
21
-2.67587
0
LINE
8
BLACK
6
CONTINUOUS
10
4.46388
20
-2.67587
11
4.46388
21
-2.67587
0
LINE
8
BLACK
6
CONTINUOUS
10
4.46388
20
-2.67587
11
4.46533
21
-2.67598
0
LINE
8
BLACK
6
CONTINUOUS
10
4.46533
20
-2.67598
11
4.46835
21
-2.67598
0
LINE
8
BLACK
6
CONTINUOUS
10
4.46835
20
-2.67598
11
4.47099
21
-2.67676
0
LINE
8
BLACK
6
CONTINUOUS
10
4.47099
20
-2.67676
11
4.47279
21
-2.67884
0
LINE
8
BLACK
6
CONTINUOUS
10
4.47279
20
-2.67884
11
4.47318
21
-2.68156
0
LINE
8
BLACK
6
CONTINUOUS
10
4.47318
20
-2.68156
11
4.473
21
-2.68237
0
LINE
8
BLACK
6
CONTINUOUS
10
4.473
20
-2.68237
11
4.47153
21
-2.68689
0
LINE
8
BLACK
6
CONTINUOUS
10
4.47153
20
-2.68689
11
4.47113
21
-2.68811
0
LINE
8
BLACK
6
CONTINUOUS
10
4.47113
20
-2.68811
11
4.47035
21
-2.69552
0
LINE
8
BLACK
6
CONTINUOUS
10
4.47035
20
-2.69552
11
4.47077
21
-2.69948
0
LINE
8
BLACK
6
CONTINUOUS
10
4.47077
20
-2.69948
11
4.47426
21
-2.70126
0
LINE
8
BLACK
6
CONTINUOUS
10
4.47426
20
-2.70126
11
4.47774
21
-2.70474
0
LINE
8
BLACK
6
CONTINUOUS
10
4.47774
20
-2.70474
11
4.47998
21
-2.70913
0
LINE
8
BLACK
6
CONTINUOUS
10
4.47998
20
-2.70913
11
4.48075
21
-2.714
0
LINE
8
BLACK
6
CONTINUOUS
10
4.48075
20
-2.714
11
4.47998
21
-2.71887
0
LINE
8
BLACK
6
CONTINUOUS
10
4.47998
20
-2.71887
11
4.47974
21
-2.71934
0
LINE
8
BLACK
6
CONTINUOUS
10
4.47974
20
-2.71934
11
4.48135
21
-2.72114
0
LINE
8
BLACK
6
CONTINUOUS
10
4.48135
20
-2.72114
11
4.48215
21
-2.72202
0
LINE
8
BLACK
6
CONTINUOUS
10
4.48215
20
-2.72202
11
4.48818
21
-2.7264
0
LINE
8
BLACK
6
CONTINUOUS
10
4.48818
20
-2.7264
11
4.48818
21
-2.7264
0
LINE
8
BLACK
6
CONTINUOUS
10
4.48818
20
-2.7264
11
4.49498
21
-2.72943
0
LINE
8
BLACK
6
CONTINUOUS
10
4.49498
20
-2.72943
11
4.49498
21
-2.72943
0
LINE
8
BLACK
6
CONTINUOUS
10
4.49498
20
-2.72943
11
4.50227
21
-2.73098
0
LINE
8
BLACK
6
CONTINUOUS
10
4.50227
20
-2.73098
11
4.50227
21
-2.73098
0
LINE
8
BLACK
6
CONTINUOUS
10
4.50227
20
-2.73098
11
4.50973
21
-2.73098
0
LINE
8
BLACK
6
CONTINUOUS
10
4.50973
20
-2.73098
11
4.50973
21
-2.73098
0
LINE
8
BLACK
6
CONTINUOUS
10
4.50973
20
-2.73098
11
4.51702
21
-2.72943
0
LINE
8
BLACK
6
CONTINUOUS
10
4.51702
20
-2.72943
11
4.5205
21
-2.72788
0
LINE
8
BLACK
6
CONTINUOUS
10
4.5205
20
-2.72788
11
4.52275
21
-2.72528
0
LINE
8
BLACK
6
CONTINUOUS
10
4.52275
20
-2.72528
11
4.52746
21
-2.72225
0
LINE
8
BLACK
6
CONTINUOUS
10
4.52746
20
-2.72225
11
4.53095
21
-2.72123
0
LINE
8
BLACK
6
CONTINUOUS
10
4.53095
20
-2.72123
11
4.53242
21
-2.72032
0
LINE
8
BLACK
6
CONTINUOUS
10
4.53242
20
-2.72032
11
4.53371
21
-2.72015
0
LINE
8
BLACK
6
CONTINUOUS
10
4.53371
20
-2.72015
11
4.53822
21
-2.72015
0
LINE
8
BLACK
6
CONTINUOUS
10
4.53822
20
-2.72015
11
4.53931
21
-2.72047
0
LINE
8
BLACK
6
CONTINUOUS
10
4.53931
20
-2.72047
11
4.55729
21
-2.72047
0
LINE
8
BLACK
6
CONTINUOUS
10
4.55729
20
-2.72047
11
4.55729
21
-2.77953
0
LINE
8
BLACK
6
CONTINUOUS
10
4.55729
20
-2.77953
11
4.54743
21
-2.77953
0
LINE
8
BLACK
6
CONTINUOUS
10
4.54743
20
-2.77953
11
4.54743
21
-2.78141
0
LINE
8
BLACK
6
CONTINUOUS
10
4.54743
20
-2.78141
11
4.54743
21
-2.78141
0
LINE
8
BLACK
6
CONTINUOUS
10
4.54743
20
-2.78141
11
4.54768
21
-2.78376
0
LINE
8
BLACK
6
CONTINUOUS
10
4.54768
20
-2.78376
11
4.54966
21
-2.78907
0
LINE
8
BLACK
6
CONTINUOUS
10
4.54966
20
-2.78907
11
4.54966
21
-2.78907
0
LINE
8
BLACK
6
CONTINUOUS
10
4.54966
20
-2.78907
11
4.5522
21
-2.79245
0
LINE
8
BLACK
6
CONTINUOUS
10
4.5522
20
-2.79245
11
4.55306
21
-2.7936
0
LINE
8
BLACK
6
CONTINUOUS
10
4.55306
20
-2.7936
11
4.55714
21
-2.79666
0
LINE
8
BLACK
6
CONTINUOUS
10
4.55714
20
-2.79666
11
4.55879
21
-2.79886
0
LINE
8
BLACK
6
CONTINUOUS
10
4.55879
20
-2.79886
11
4.55898
21
-2.80161
0
LINE
8
BLACK
6
CONTINUOUS
10
4.55898
20
-2.80161
11
4.55767
21
-2.80402
0
LINE
8
BLACK
6
CONTINUOUS
10
4.55767
20
-2.80402
11
4.55714
21
-2.80448
0
LINE
8
BLACK
6
CONTINUOUS
10
4.55714
20
-2.80448
11
4.55324
21
-2.8074
0
LINE
8
BLACK
6
CONTINUOUS
10
4.55324
20
-2.8074
11
4.54984
21
-2.81193
0
LINE
8
BLACK
6
CONTINUOUS
10
4.54984
20
-2.81193
11
4.54984
21
-2.81193
0
LINE
8
BLACK
6
CONTINUOUS
10
4.54984
20
-2.81193
11
4.54786
21
-2.81724
0
LINE
8
BLACK
6
CONTINUOUS
10
4.54786
20
-2.81724
11
4.54761
21
-2.81959
0
LINE
8
BLACK
6
CONTINUOUS
10
4.54761
20
-2.81959
11
4.54761
21
-2.81959
0
LINE
8
BLACK
6
CONTINUOUS
10
4.54761
20
-2.81959
11
4.54761
21
-2.82147
0
LINE
8
BLACK
6
CONTINUOUS
10
4.54761
20
-2.82147
11
4.55747
21
-2.82147
0
LINE
8
BLACK
6
CONTINUOUS
10
4.55747
20
-2.82147
11
4.55747
21
-2.88053
0
LINE
8
BLACK
6
CONTINUOUS
10
4.55747
20
-2.88053
11
4.54761
21
-2.88053
0
LINE
8
BLACK
6
CONTINUOUS
10
4.54761
20
-2.88053
11
4.54761
21
-2.88241
0
LINE
8
BLACK
6
CONTINUOUS
10
4.54761
20
-2.88241
11
4.54761
21
-2.88241
0
LINE
8
BLACK
6
CONTINUOUS
10
4.54761
20
-2.88241
11
4.54786
21
-2.88476
0
LINE
8
BLACK
6
CONTINUOUS
10
4.54786
20
-2.88476
11
4.54984
21
-2.89007
0
LINE
8
BLACK
6
CONTINUOUS
10
4.54984
20
-2.89007
11
4.54984
21
-2.89007
0
LINE
8
BLACK
6
CONTINUOUS
10
4.54984
20
-2.89007
11
4.55324
21
-2.8946
0
LINE
8
BLACK
6
CONTINUOUS
10
4.55324
20
-2.8946
11
4.55324
21
-2.8946
0
LINE
8
BLACK
6
CONTINUOUS
10
4.55324
20
-2.8946
11
4.55777
21
-2.898
0
LINE
8
BLACK
6
CONTINUOUS
10
4.55777
20
-2.898
11
4.55777
21
-2.898
0
LINE
8
BLACK
6
CONTINUOUS
10
4.55777
20
-2.898
11
4.5592
21
-2.89853
0
LINE
8
BLACK
6
CONTINUOUS
10
4.5592
20
-2.89853
11
4.5614
21
-2.90018
0
LINE
8
BLACK
6
CONTINUOUS
10
4.5614
20
-2.90018
11
4.56236
21
-2.90276
0
LINE
8
BLACK
6
CONTINUOUS
10
4.56236
20
-2.90276
11
4.56237
21
-2.9031
0
LINE
8
BLACK
6
CONTINUOUS
10
4.56237
20
-2.9031
11
4.56237
21
-2.90374
0
LINE
8
BLACK
6
CONTINUOUS
10
4.56237
20
-2.90374
11
4.56231
21
-2.90436
0
LINE
8
BLACK
6
CONTINUOUS
10
4.56231
20
-2.90436
11
4.56232
21
-2.90436
0
LINE
8
BLACK
6
CONTINUOUS
10
4.56232
20
-2.90436
11
4.56229
21
-2.90466
0
LINE
8
BLACK
6
CONTINUOUS
10
4.56229
20
-2.90466
11
4.56237
21
-2.90739
0
LINE
8
BLACK
6
CONTINUOUS
10
4.56237
20
-2.90739
11
4.56237
21
-2.90855
0
LINE
8
BLACK
6
CONTINUOUS
10
4.56237
20
-2.90855
11
4.56237
21
-2.90855
0
LINE
8
BLACK
6
CONTINUOUS
10
4.56237
20
-2.90855
11
4.56241
21
-2.90882
0
LINE
8
BLACK
6
CONTINUOUS
10
4.56241
20
-2.90882
11
4.56243
21
-2.90905
0
LINE
8
BLACK
6
CONTINUOUS
10
4.56243
20
-2.90905
11
4.56248
21
-2.91088
0
LINE
8
BLACK
6
CONTINUOUS
10
4.56248
20
-2.91088
11
4.56248
21
-2.91088
0
LINE
8
BLACK
6
CONTINUOUS
10
4.56248
20
-2.91088
11
4.5627
21
-2.91164
0
LINE
8
BLACK
6
CONTINUOUS
10
4.5627
20
-2.91164
11
4.56286
21
-2.91239
0
LINE
8
BLACK
6
CONTINUOUS
10
4.56286
20
-2.91239
11
4.56296
21
-2.91317
0
LINE
8
BLACK
6
CONTINUOUS
10
4.56296
20
-2.91317
11
4.5636
21
-2.91479
0
LINE
8
BLACK
6
CONTINUOUS
10
4.5636
20
-2.91479
11
4.56363
21
-2.91488
0
LINE
8
BLACK
6
CONTINUOUS
10
4.56363
20
-2.91488
11
4.56371
21
-2.9151
0
LINE
8
BLACK
6
CONTINUOUS
10
4.56371
20
-2.9151
11
4.56422
21
-2.91686
0
LINE
8
BLACK
6
CONTINUOUS
10
4.56422
20
-2.91686
11
4.56455
21
-2.91741
0
LINE
8
BLACK
6
CONTINUOUS
10
4.56455
20
-2.91741
11
4.56462
21
-2.91754
0
LINE
8
BLACK
6
CONTINUOUS
10
4.56462
20
-2.91754
11
4.56496
21
-2.91822
0
LINE
8
BLACK
6
CONTINUOUS
10
4.56496
20
-2.91822
11
4.56525
21
-2.91896
0
LINE
8
BLACK
6
CONTINUOUS
10
4.56525
20
-2.91896
11
4.56633
21
-2.92044
0
LINE
8
BLACK
6
CONTINUOUS
10
4.56633
20
-2.92044
11
4.56645
21
-2.92063
0
LINE
8
BLACK
6
CONTINUOUS
10
4.56645
20
-2.92063
11
4.56739
21
-2.92221
0
LINE
8
BLACK
6
CONTINUOUS
10
4.56739
20
-2.92221
11
4.56739
21
-2.92221
0
LINE
8
BLACK
6
CONTINUOUS
10
4.56739
20
-2.92221
11
4.56794
21
-2.92277
0
LINE
8
BLACK
6
CONTINUOUS
10
4.56794
20
-2.92277
11
4.56844
21
-2.92335
0
LINE
8
BLACK
6
CONTINUOUS
10
4.56844
20
-2.92335
11
4.56891
21
-2.92399
0
LINE
8
BLACK
6
CONTINUOUS
10
4.56891
20
-2.92399
11
4.56891
21
-2.92399
0
LINE
8
BLACK
6
CONTINUOUS
10
4.56891
20
-2.92399
11
4.57032
21
-2.92516
0
LINE
8
BLACK
6
CONTINUOUS
10
4.57032
20
-2.92516
11
4.57049
21
-2.92532
0
LINE
8
BLACK
6
CONTINUOUS
10
4.57049
20
-2.92532
11
4.57751
21
-2.93234
0
LINE
8
BLACK
6
CONTINUOUS
10
4.57751
20
-2.93234
11
4.58394
21
-2.93877
0
LINE
8
BLACK
6
CONTINUOUS
10
4.58394
20
-2.93877
11
4.58526
21
-2.94118
0
LINE
8
BLACK
6
CONTINUOUS
10
4.58526
20
-2.94118
11
4.58537
21
-2.94222
0
LINE
8
BLACK
6
CONTINUOUS
10
4.58537
20
-2.94222
11
4.58537
21
-2.94249
0
LINE
8
BLACK
6
CONTINUOUS
10
4.58537
20
-2.94249
11
4.5846
21
-2.94513
0
LINE
8
BLACK
6
CONTINUOUS
10
4.5846
20
-2.94513
11
4.58412
21
-2.94576
0
LINE
8
BLACK
6
CONTINUOUS
10
4.58412
20
-2.94576
11
4.58116
21
-2.94905
0
LINE
8
BLACK
6
CONTINUOUS
10
4.58116
20
-2.94905
11
4.57743
21
-2.9555
0
LINE
8
BLACK
6
CONTINUOUS
10
4.57743
20
-2.9555
11
4.57743
21
-2.9555
0
LINE
8
BLACK
6
CONTINUOUS
10
4.57743
20
-2.9555
11
4.57513
21
-2.96259
0
LINE
8
BLACK
6
CONTINUOUS
10
4.57513
20
-2.96259
11
4.57513
21
-2.96259
0
LINE
8
BLACK
6
CONTINUOUS
10
4.57513
20
-2.96259
11
4.57435
21
-2.97
0
LINE
8
BLACK
6
CONTINUOUS
10
4.57435
20
-2.97
11
4.57513
21
-2.97741
0
LINE
8
BLACK
6
CONTINUOUS
10
4.57513
20
-2.97741
11
4.57513
21
-2.97741
0
LINE
8
BLACK
6
CONTINUOUS
10
4.57513
20
-2.97741
11
4.57743
21
-2.9845
0
LINE
8
BLACK
6
CONTINUOUS
10
4.57743
20
-2.9845
11
4.57743
21
-2.9845
0
LINE
8
BLACK
6
CONTINUOUS
10
4.57743
20
-2.9845
11
4.58116
21
-2.99095
0
LINE
8
BLACK
6
CONTINUOUS
10
4.58116
20
-2.99095
11
4.58615
21
-2.99649
0
LINE
8
BLACK
6
CONTINUOUS
10
4.58615
20
-2.99649
11
4.58615
21
-2.99649
0
LINE
8
BLACK
6
CONTINUOUS
10
4.58615
20
-2.99649
11
4.59218
21
-3.00087
0
LINE
8
BLACK
6
CONTINUOUS
10
4.59218
20
-3.00087
11
4.59218
21
-3.00087
0
LINE
8
BLACK
6
CONTINUOUS
10
4.59218
20
-3.00087
11
4.59898
21
-3.0039
0
LINE
8
BLACK
6
CONTINUOUS
10
4.59898
20
-3.0039
11
4.59898
21
-3.0039
0
LINE
8
BLACK
6
CONTINUOUS
10
4.59898
20
-3.0039
11
4.60627
21
-3.00545
0
LINE
8
BLACK
6
CONTINUOUS
10
4.60627
20
-3.00545
11
4.60627
21
-3.00545
0
LINE
8
BLACK
6
CONTINUOUS
10
4.60627
20
-3.00545
11
4.61373
21
-3.00545
0
LINE
8
BLACK
6
CONTINUOUS
10
4.61373
20
-3.00545
11
4.61373
21
-3.00545
0
LINE
8
BLACK
6
CONTINUOUS
10
4.61373
20
-3.00545
11
4.62102
21
-3.0039
0
LINE
8
BLACK
6
CONTINUOUS
10
4.62102
20
-3.0039
11
4.62782
21
-3.00087
0
LINE
8
BLACK
6
CONTINUOUS
10
4.62782
20
-3.00087
11
4.63385
21
-2.99649
0
LINE
8
BLACK
6
CONTINUOUS
10
4.63385
20
-2.99649
11
4.63884
21
-2.99095
0
LINE
8
BLACK
6
CONTINUOUS
10
4.63884
20
-2.99095
11
4.64257
21
-2.9845
0
LINE
8
BLACK
6
CONTINUOUS
10
4.64257
20
-2.9845
11
4.64487
21
-2.97741
0
LINE
8
BLACK
6
CONTINUOUS
10
4.64487
20
-2.97741
11
4.64565
21
-2.97
0
LINE
8
BLACK
6
CONTINUOUS
10
4.64565
20
-2.97
11
4.64487
21
-2.96259
0
LINE
8
BLACK
6
CONTINUOUS
10
4.64487
20
-2.96259
11
4.64257
21
-2.9555
0
LINE
8
BLACK
6
CONTINUOUS
10
4.64257
20
-2.9555
11
4.63884
21
-2.94905
0
LINE
8
BLACK
6
CONTINUOUS
10
4.63884
20
-2.94905
11
4.63832
21
-2.94847
0
LINE
8
BLACK
6
CONTINUOUS
10
4.63832
20
-2.94847
11
4.63588
21
-2.94576
0
LINE
8
BLACK
6
CONTINUOUS
10
4.63588
20
-2.94576
11
4.63469
21
-2.94328
0
LINE
8
BLACK
6
CONTINUOUS
10
4.63469
20
-2.94328
11
4.63463
21
-2.94249
0
LINE
8
BLACK
6
CONTINUOUS
10
4.63463
20
-2.94249
11
4.63463
21
-2.93326
0
LINE
8
BLACK
6
CONTINUOUS
10
4.63463
20
-2.93326
11
4.63469
21
-2.93264
0
LINE
8
BLACK
6
CONTINUOUS
10
4.63469
20
-2.93264
11
4.63468
21
-2.93264
0
LINE
8
BLACK
6
CONTINUOUS
10
4.63468
20
-2.93264
11
4.63471
21
-2.93234
0
LINE
8
BLACK
6
CONTINUOUS
10
4.63471
20
-2.93234
11
4.63463
21
-2.92961
0
LINE
8
BLACK
6
CONTINUOUS
10
4.63463
20
-2.92961
11
4.63463
21
-2.92845
0
LINE
8
BLACK
6
CONTINUOUS
10
4.63463
20
-2.92845
11
4.63463
21
-2.92845
0
LINE
8
BLACK
6
CONTINUOUS
10
4.63463
20
-2.92845
11
4.63459
21
-2.92818
0
LINE
8
BLACK
6
CONTINUOUS
10
4.63459
20
-2.92818
11
4.63457
21
-2.92795
0
LINE
8
BLACK
6
CONTINUOUS
10
4.63457
20
-2.92795
11
4.63452
21
-2.92612
0
LINE
8
BLACK
6
CONTINUOUS
10
4.63452
20
-2.92612
11
4.6343
21
-2.92536
0
LINE
8
BLACK
6
CONTINUOUS
10
4.6343
20
-2.92536
11
4.63414
21
-2.92461
0
LINE
8
BLACK
6
CONTINUOUS
10
4.63414
20
-2.92461
11
4.63404
21
-2.92383
0
LINE
8
BLACK
6
CONTINUOUS
10
4.63404
20
-2.92383
11
4.63337
21
-2.92212
0
LINE
8
BLACK
6
CONTINUOUS
10
4.63337
20
-2.92212
11
4.63329
21
-2.9219
0
LINE
8
BLACK
6
CONTINUOUS
10
4.63329
20
-2.9219
11
4.63278
21
-2.92014
0
LINE
8
BLACK
6
CONTINUOUS
10
4.63278
20
-2.92014
11
4.63238
21
-2.91946
0
LINE
8
BLACK
6
CONTINUOUS
10
4.63238
20
-2.91946
11
4.63204
21
-2.91878
0
LINE
8
BLACK
6
CONTINUOUS
10
4.63204
20
-2.91878
11
4.63175
21
-2.91804
0
LINE
8
BLACK
6
CONTINUOUS
10
4.63175
20
-2.91804
11
4.63175
21
-2.91804
0
LINE
8
BLACK
6
CONTINUOUS
10
4.63175
20
-2.91804
11
4.63067
21
-2.91656
0
LINE
8
BLACK
6
CONTINUOUS
10
4.63067
20
-2.91656
11
4.63055
21
-2.91637
0
LINE
8
BLACK
6
CONTINUOUS
10
4.63055
20
-2.91637
11
4.62961
21
-2.91479
0
LINE
8
BLACK
6
CONTINUOUS
10
4.62961
20
-2.91479
11
4.62961
21
-2.91479
0
LINE
8
BLACK
6
CONTINUOUS
10
4.62961
20
-2.91479
11
4.62906
21
-2.91423
0
LINE
8
BLACK
6
CONTINUOUS
10
4.62906
20
-2.91423
11
4.62856
21
-2.91365
0
LINE
8
BLACK
6
CONTINUOUS
10
4.62856
20
-2.91365
11
4.62821
21
-2.91317
0
LINE
8
BLACK
6
CONTINUOUS
10
4.62821
20
-2.91317
11
4.62809
21
-2.91301
0
LINE
8
BLACK
6
CONTINUOUS
10
4.62809
20
-2.91301
11
4.62668
21
-2.91184
0
LINE
8
BLACK
6
CONTINUOUS
10
4.62668
20
-2.91184
11
4.62651
21
-2.91168
0
LINE
8
BLACK
6
CONTINUOUS
10
4.62651
20
-2.91168
11
4.6236
21
-2.90877
0
LINE
8
BLACK
6
CONTINUOUS
10
4.6236
20
-2.90877
11
4.62228
21
-2.90635
0
LINE
8
BLACK
6
CONTINUOUS
10
4.62228
20
-2.90635
11
4.62247
21
-2.90361
0
LINE
8
BLACK
6
CONTINUOUS
10
4.62247
20
-2.90361
11
4.62412
21
-2.90141
0
LINE
8
BLACK
6
CONTINUOUS
10
4.62412
20
-2.90141
11
4.6267
21
-2.90045
0
LINE
8
BLACK
6
CONTINUOUS
10
4.6267
20
-2.90045
11
4.62705
21
-2.90043
0
LINE
8
BLACK
6
CONTINUOUS
10
4.62705
20
-2.90043
11
4.64101
21
-2.90043
0
LINE
8
BLACK
6
CONTINUOUS
10
4.64101
20
-2.90043
11
4.64101
21
-2.90043
0
LINE
8
BLACK
6
CONTINUOUS
10
4.64101
20
-2.90043
11
4.64662
21
-2.89963
0
LINE
8
BLACK
6
CONTINUOUS
10
4.64662
20
-2.89963
11
4.65205
21
-2.89803
0
LINE
8
BLACK
6
CONTINUOUS
10
4.65205
20
-2.89803
11
4.65721
21
-2.89568
0
LINE
8
BLACK
6
CONTINUOUS
10
4.65721
20
-2.89568
11
4.66197
21
-2.89262
0
LINE
8
BLACK
6
CONTINUOUS
10
4.66197
20
-2.89262
11
4.66197
21
-2.89262
0
LINE
8
BLACK
6
CONTINUOUS
10
4.66197
20
-2.89262
11
4.66197
21
-2.89262
0
LINE
8
BLACK
6
CONTINUOUS
10
4.66197
20
-2.89262
11
4.66625
21
-2.88891
0
LINE
8
BLACK
6
CONTINUOUS
10
4.66625
20
-2.88891
11
4.66625
21
-2.88891
0
LINE
8
BLACK
6
CONTINUOUS
10
4.66625
20
-2.88891
11
4.66996
21
-2.88463
0
LINE
8
BLACK
6
CONTINUOUS
10
4.66996
20
-2.88463
11
4.66996
21
-2.88463
0
LINE
8
BLACK
6
CONTINUOUS
10
4.66996
20
-2.88463
11
4.66996
21
-2.88463
0
LINE
8
BLACK
6
CONTINUOUS
10
4.66996
20
-2.88463
11
4.67302
21
-2.87986
0
LINE
8
BLACK
6
CONTINUOUS
10
4.67302
20
-2.87986
11
4.67302
21
-2.87986
0
LINE
8
BLACK
6
CONTINUOUS
10
4.67302
20
-2.87986
11
4.67302
21
-2.87986
0
LINE
8
BLACK
6
CONTINUOUS
10
4.67302
20
-2.87986
11
4.67474
21
-2.8761
0
LINE
8
BLACK
6
CONTINUOUS
10
4.67474
20
-2.8761
11
4.67537
21
-2.87472
0
LINE
8
BLACK
6
CONTINUOUS
10
4.67537
20
-2.87472
11
4.67537
21
-2.87472
0
LINE
8
BLACK
6
CONTINUOUS
10
4.67537
20
-2.87472
11
4.67537
21
-2.87472
0
LINE
8
BLACK
6
CONTINUOUS
10
4.67537
20
-2.87472
11
4.67538
21
-2.8747
0
LINE
8
BLACK
6
CONTINUOUS
10
4.67538
20
-2.8747
11
4.6754
21
-2.87463
0
LINE
8
BLACK
6
CONTINUOUS
10
4.6754
20
-2.87463
11
4.67697
21
-2.86928
0
LINE
8
BLACK
6
CONTINUOUS
10
4.67697
20
-2.86928
11
4.67777
21
-2.86368
0
LINE
8
BLACK
6
CONTINUOUS
10
4.67777
20
-2.86368
11
4.67777
21
-2.86146
0
LINE
8
BLACK
6
CONTINUOUS
10
4.67777
20
-2.86146
11
4.67777
21
-2.86146
0
LINE
8
BLACK
6
CONTINUOUS
10
4.67777
20
-2.86146
11
4.67777
21
-2.84055
0
LINE
8
BLACK
6
CONTINUOUS
10
4.67777
20
-2.84055
11
4.67777
21
-2.84054
0
LINE
8
BLACK
6
CONTINUOUS
10
4.67777
20
-2.84054
11
4.67777
21
-2.83832
0
LINE
8
BLACK
6
CONTINUOUS
10
4.67777
20
-2.83832
11
4.67777
21
-2.83832
0
LINE
8
BLACK
6
CONTINUOUS
10
4.67777
20
-2.83832
11
4.67697
21
-2.83272
0
LINE
8
BLACK
6
CONTINUOUS
10
4.67697
20
-2.83272
11
4.67697
21
-2.83272
0
LINE
8
BLACK
6
CONTINUOUS
10
4.67697
20
-2.83272
11
4.67697
21
-2.83272
0
LINE
8
BLACK
6
CONTINUOUS
10
4.67697
20
-2.83272
11
4.67537
21
-2.82728
0
LINE
8
BLACK
6
CONTINUOUS
10
4.67537
20
-2.82728
11
4.67537
21
-2.82728
0
LINE
8
BLACK
6
CONTINUOUS
10
4.67537
20
-2.82728
11
4.67302
21
-2.82214
0
LINE
8
BLACK
6
CONTINUOUS
10
4.67302
20
-2.82214
11
4.67302
21
-2.82214
0
LINE
8
BLACK
6
CONTINUOUS
10
4.67302
20
-2.82214
11
4.66996
21
-2.81737
0
LINE
8
BLACK
6
CONTINUOUS
10
4.66996
20
-2.81737
11
4.66996
21
-2.81737
0
LINE
8
BLACK
6
CONTINUOUS
10
4.66996
20
-2.81737
11
4.66791
21
-2.81501
0
LINE
8
BLACK
6
CONTINUOUS
10
4.66791
20
-2.81501
11
4.66625
21
-2.81309
0
LINE
8
BLACK
6
CONTINUOUS
10
4.66625
20
-2.81309
11
4.66625
21
-2.81309
0
LINE
8
BLACK
6
CONTINUOUS
10
4.66625
20
-2.81309
11
4.66525
21
-2.81222
0
LINE
8
BLACK
6
CONTINUOUS
10
4.66525
20
-2.81222
11
4.66449
21
-2.81157
0
LINE
8
BLACK
6
CONTINUOUS
10
4.66449
20
-2.81157
11
4.663
21
-2.80925
0
LINE
8
BLACK
6
CONTINUOUS
10
4.663
20
-2.80925
11
4.66281
21
-2.80788
0
LINE
8
BLACK
6
CONTINUOUS
10
4.66281
20
-2.80788
11
4.66281
21
-2.79296
0
LINE
8
BLACK
6
CONTINUOUS
10
4.66281
20
-2.79296
11
4.66358
21
-2.79033
0
LINE
8
BLACK
6
CONTINUOUS
10
4.66358
20
-2.79033
11
4.66449
21
-2.78928
0
LINE
8
BLACK
6
CONTINUOUS
10
4.66449
20
-2.78928
11
4.66607
21
-2.78791
0
LINE
8
BLACK
6
CONTINUOUS
10
4.66607
20
-2.78791
11
4.66978
21
-2.78363
0
LINE
8
BLACK
6
CONTINUOUS
10
4.66978
20
-2.78363
11
4.66981
21
-2.78358
0
LINE
8
BLACK
6
CONTINUOUS
10
4.66981
20
-2.78358
11
4.66983
21
-2.78357
0
LINE
8
BLACK
6
CONTINUOUS
10
4.66983
20
-2.78357
11
4.66989
21
-2.7835
0
LINE
8
BLACK
6
CONTINUOUS
10
4.66989
20
-2.7835
11
4.66991
21
-2.78351
0
LINE
8
BLACK
6
CONTINUOUS
10
4.66991
20
-2.78351
11
4.67201
21
-2.78193
0
LINE
8
BLACK
6
CONTINUOUS
10
4.67201
20
-2.78193
11
4.67372
21
-2.78163
0
LINE
8
BLACK
6
CONTINUOUS
10
4.67372
20
-2.78163
11
4.68029
21
-2.78163
0
LINE
8
BLACK
6
CONTINUOUS
10
4.68029
20
-2.78163
11
4.68293
21
-2.7824
0
LINE
8
BLACK
6
CONTINUOUS
10
4.68293
20
-2.7824
11
4.68392
21
-2.78324
0
LINE
8
BLACK
6
CONTINUOUS
10
4.68392
20
-2.78324
11
4.68415
21
-2.78349
0
LINE
8
BLACK
6
CONTINUOUS
10
4.68415
20
-2.78349
11
4.68415
21
-2.78349
0
LINE
8
BLACK
6
CONTINUOUS
10
4.68415
20
-2.78349
11
4.69018
21
-2.78787
0
LINE
8
BLACK
6
CONTINUOUS
10
4.69018
20
-2.78787
11
4.69018
21
-2.78787
0
LINE
8
BLACK
6
CONTINUOUS
10
4.69018
20
-2.78787
11
4.69698
21
-2.7909
0
LINE
8
BLACK
6
CONTINUOUS
10
4.69698
20
-2.7909
11
4.69698
21
-2.7909
0
LINE
8
BLACK
6
CONTINUOUS
10
4.69698
20
-2.7909
11
4.70427
21
-2.79245
0
LINE
8
BLACK
6
CONTINUOUS
10
4.70427
20
-2.79245
11
4.70427
21
-2.79245
0
LINE
8
BLACK
6
CONTINUOUS
10
4.70427
20
-2.79245
11
4.71173
21
-2.79245
0
LINE
8
BLACK
6
CONTINUOUS
10
4.71173
20
-2.79245
11
4.71173
21
-2.79245
0
LINE
8
BLACK
6
CONTINUOUS
10
4.71173
20
-2.79245
11
4.71902
21
-2.7909
0
LINE
8
BLACK
6
CONTINUOUS
10
4.71902
20
-2.7909
11
4.72582
21
-2.78787
0
LINE
8
BLACK
6
CONTINUOUS
10
4.72582
20
-2.78787
11
4.73185
21
-2.78349
0
LINE
8
BLACK
6
CONTINUOUS
10
4.73185
20
-2.78349
11
4.73684
21
-2.77795
0
LINE
8
BLACK
6
CONTINUOUS
10
4.73684
20
-2.77795
11
4.74057
21
-2.7715
0
LINE
8
BLACK
6
CONTINUOUS
10
4.74057
20
-2.7715
11
4.74287
21
-2.76441
0
LINE
8
BLACK
6
CONTINUOUS
10
4.74287
20
-2.76441
11
4.74365
21
-2.757
0
LINE
8
BLACK
6
CONTINUOUS
10
4.74365
20
-2.757
11
4.74287
21
-2.74959
0
LINE
8
BLACK
6
CONTINUOUS
10
4.74287
20
-2.74959
11
4.74062
21
-2.74266
0
LINE
8
BLACK
6
CONTINUOUS
10
4.74062
20
-2.74266
11
4.74057
21
-2.7425
0
LINE
8
BLACK
6
CONTINUOUS
10
4.74057
20
-2.7425
11
4.74057
21
-2.7425
0
LINE
8
BLACK
6
CONTINUOUS
10
4.74057
20
-2.7425
11
4.74057
21
-2.7425
0
LINE
8
BLACK
6
CONTINUOUS
10
4.74057
20
-2.7425
11
4.73684
21
-2.73605
0
LINE
8
BLACK
6
CONTINUOUS
10
4.73684
20
-2.73605
11
4.73185
21
-2.73051
0
LINE
8
BLACK
6
CONTINUOUS
10
4.73185
20
-2.73051
11
4.73185
21
-2.73051
0
LINE
8
BLACK
6
CONTINUOUS
10
4.73185
20
-2.73051
11
4.72582
21
-2.72613
0
LINE
8
BLACK
6
CONTINUOUS
10
4.72582
20
-2.72613
11
4.72582
21
-2.72613
0
LINE
8
BLACK
6
CONTINUOUS
10
4.72582
20
-2.72613
11
4.71902
21
-2.7231
0
LINE
8
BLACK
6
CONTINUOUS
10
4.71902
20
-2.7231
11
4.71902
21
-2.7231
0
LINE
8
BLACK
6
CONTINUOUS
10
4.71902
20
-2.7231
11
4.71275
21
-2.72176
0
LINE
8
BLACK
6
CONTINUOUS
10
4.71275
20
-2.72176
11
4.71173
21
-2.72155
0
LINE
8
BLACK
6
CONTINUOUS
10
4.71173
20
-2.72155
11
4.70427
21
-2.72155
0
LINE
8
BLACK
6
CONTINUOUS
10
4.70427
20
-2.72155
11
4.70325
21
-2.72176
0
LINE
8
BLACK
6
CONTINUOUS
10
4.70325
20
-2.72176
11
4.69698
21
-2.7231
0
LINE
8
BLACK
6
CONTINUOUS
10
4.69698
20
-2.7231
11
4.69698
21
-2.7231
0
LINE
8
BLACK
6
CONTINUOUS
10
4.69698
20
-2.7231
11
4.69018
21
-2.72613
0
LINE
8
BLACK
6
CONTINUOUS
10
4.69018
20
-2.72613
11
4.69018
21
-2.72613
0
LINE
8
BLACK
6
CONTINUOUS
10
4.69018
20
-2.72613
11
4.68415
21
-2.73051
0
LINE
8
BLACK
6
CONTINUOUS
10
4.68415
20
-2.73051
11
4.68396
21
-2.73068
0
LINE
8
BLACK
6
CONTINUOUS
10
4.68396
20
-2.73068
11
4.68392
21
-2.73064
0
LINE
8
BLACK
6
CONTINUOUS
10
4.68392
20
-2.73064
11
4.68183
21
-2.73192
0
LINE
8
BLACK
6
CONTINUOUS
10
4.68183
20
-2.73192
11
4.67908
21
-2.73186
0
LINE
8
BLACK
6
CONTINUOUS
10
4.67908
20
-2.73186
11
4.6768
21
-2.73033
0
LINE
8
BLACK
6
CONTINUOUS
10
4.6768
20
-2.73033
11
4.67587
21
-2.72858
0
LINE
8
BLACK
6
CONTINUOUS
10
4.67587
20
-2.72858
11
4.67519
21
-2.72628
0
LINE
8
BLACK
6
CONTINUOUS
10
4.67519
20
-2.72628
11
4.67519
21
-2.72628
0
LINE
8
BLACK
6
CONTINUOUS
10
4.67519
20
-2.72628
11
4.67512
21
-2.72613
0
LINE
8
BLACK
6
CONTINUOUS
10
4.67512
20
-2.72613
11
4.67284
21
-2.72114
0
LINE
8
BLACK
6
CONTINUOUS
10
4.67284
20
-2.72114
11
4.67284
21
-2.72114
0
LINE
8
BLACK
6
CONTINUOUS
10
4.67284
20
-2.72114
11
4.66978
21
-2.71637
0
LINE
8
BLACK
6
CONTINUOUS
10
4.66978
20
-2.71637
11
4.66978
21
-2.71637
0
LINE
8
BLACK
6
CONTINUOUS
10
4.66978
20
-2.71637
11
4.66607
21
-2.71209
0
LINE
8
BLACK
6
CONTINUOUS
10
4.66607
20
-2.71209
11
4.66572
21
-2.71178
0
LINE
8
BLACK
6
CONTINUOUS
10
4.66572
20
-2.71178
11
4.66179
21
-2.70838
0
LINE
8
BLACK
6
CONTINUOUS
10
4.66179
20
-2.70838
11
4.6604
21
-2.70749
0
LINE
8
BLACK
6
CONTINUOUS
10
4.6604
20
-2.70749
11
4.65702
21
-2.70532
0
LINE
8
BLACK
6
CONTINUOUS
10
4.65702
20
-2.70532
11
4.65702
21
-2.70532
0
LINE
8
BLACK
6
CONTINUOUS
10
4.65702
20
-2.70532
11
4.65702
21
-2.70532
0
LINE
8
BLACK
6
CONTINUOUS
10
4.65702
20
-2.70532
11
4.65187
21
-2.70297
0
LINE
8
BLACK
6
CONTINUOUS
10
4.65187
20
-2.70297
11
4.64644
21
-2.70137
0
LINE
8
BLACK
6
CONTINUOUS
10
4.64644
20
-2.70137
11
4.64644
21
-2.70137
0
LINE
8
BLACK
6
CONTINUOUS
10
4.64644
20
-2.70137
11
4.64083
21
-2.70057
0
LINE
8
BLACK
6
CONTINUOUS
10
4.64083
20
-2.70057
11
4.61635
21
-2.70057
0
LINE
8
BLACK
6
CONTINUOUS
10
4.61635
20
-2.70057
11
4.61351
21
-2.70077
0
LINE
8
BLACK
6
CONTINUOUS
10
4.61351
20
-2.70077
11
4.61351
21
-2.70077
0
LINE
8
BLACK
6
CONTINUOUS
10
4.61351
20
-2.70077
11
4.61304
21
-2.70091
0
LINE
8
BLACK
6
CONTINUOUS
10
4.61304
20
-2.70091
11
4.61105
21
-2.70096
0
LINE
8
BLACK
6
CONTINUOUS
10
4.61105
20
-2.70096
11
4.61104
21
-2.70105
0
LINE
8
BLACK
6
CONTINUOUS
10
4.61104
20
-2.70105
11
4.60839
21
-2.70077
0
LINE
8
BLACK
6
CONTINUOUS
10
4.60839
20
-2.70077
11
4.60839
21
-2.70077
0
LINE
8
BLACK
6
CONTINUOUS
10
4.60839
20
-2.70077
11
4.60839
21
-2.70077
0
LINE
8
BLACK
6
CONTINUOUS
10
4.60839
20
-2.70077
11
4.60839
21
-2.70077
0
LINE
8
BLACK
6
CONTINUOUS
10
4.60839
20
-2.70077
11
4.59253
21
-2.70077
0
LINE
8
BLACK
6
CONTINUOUS
10
4.59253
20
-2.70077
11
4.58989
21
-2.69999
0
LINE
8
BLACK
6
CONTINUOUS
10
4.58989
20
-2.69999
11
4.58908
21
-2.69934
0
LINE
8
BLACK
6
CONTINUOUS
10
4.58908
20
-2.69934
11
4.57015
21
-2.68041
0
LINE
8
BLACK
6
CONTINUOUS
10
4.57015
20
-2.68041
11
4.56977
21
-2.67993
0
LINE
8
BLACK
6
CONTINUOUS
10
4.56977
20
-2.67993
11
4.56976
21
-2.67994
0
LINE
8
BLACK
6
CONTINUOUS
10
4.56976
20
-2.67994
11
4.56956
21
-2.6797
0
LINE
8
BLACK
6
CONTINUOUS
10
4.56956
20
-2.6797
11
4.56758
21
-2.67784
0
LINE
8
BLACK
6
CONTINUOUS
10
4.56758
20
-2.67784
11
4.56717
21
-2.67743
0
LINE
8
BLACK
6
CONTINUOUS
10
4.56717
20
-2.67743
11
4.56676
21
-2.67702
0
LINE
8
BLACK
6
CONTINUOUS
10
4.56676
20
-2.67702
11
4.56654
21
-2.67685
0
LINE
8
BLACK
6
CONTINUOUS
10
4.56654
20
-2.67685
11
4.56637
21
-2.6767
0
LINE
8
BLACK
6
CONTINUOUS
10
4.56637
20
-2.6767
11
4.56503
21
-2.67544
0
LINE
8
BLACK
6
CONTINUOUS
10
4.56503
20
-2.67544
11
4.56503
21
-2.67544
0
LINE
8
BLACK
6
CONTINUOUS
10
4.56503
20
-2.67544
11
4.56503
21
-2.67544
0
LINE
8
BLACK
6
CONTINUOUS
10
4.56503
20
-2.67544
11
4.56434
21
-2.67506
0
LINE
8
BLACK
6
CONTINUOUS
10
4.56434
20
-2.67506
11
4.5637
21
-2.67464
0
LINE
8
BLACK
6
CONTINUOUS
10
4.5637
20
-2.67464
11
4.56307
21
-2.67416
0
LINE
8
BLACK
6
CONTINUOUS
10
4.56307
20
-2.67416
11
4.56139
21
-2.67343
0
LINE
8
BLACK
6
CONTINUOUS
10
4.56139
20
-2.67343
11
4.56118
21
-2.67333
0
LINE
8
BLACK
6
CONTINUOUS
10
4.56118
20
-2.67333
11
4.55958
21
-2.67244
0
LINE
8
BLACK
6
CONTINUOUS
10
4.55958
20
-2.67244
11
4.55958
21
-2.67244
0
LINE
8
BLACK
6
CONTINUOUS
10
4.55958
20
-2.67244
11
4.55881
21
-2.67225
0
LINE
8
BLACK
6
CONTINUOUS
10
4.55881
20
-2.67225
11
4.55809
21
-2.672
0
LINE
8
BLACK
6
CONTINUOUS
10
4.55809
20
-2.672
11
4.55736
21
-2.67169
0
LINE
8
BLACK
6
CONTINUOUS
10
4.55736
20
-2.67169
11
4.55736
21
-2.67169
0
LINE
8
BLACK
6
CONTINUOUS
10
4.55736
20
-2.67169
11
4.55555
21
-2.6714
0
LINE
8
BLACK
6
CONTINUOUS
10
4.55555
20
-2.6714
11
4.55533
21
-2.67135
0
LINE
8
BLACK
6
CONTINUOUS
10
4.55533
20
-2.67135
11
4.55355
21
-2.6709
0
LINE
8
BLACK
6
CONTINUOUS
10
4.55355
20
-2.6709
11
4.55355
21
-2.6709
0
LINE
8
BLACK
6
CONTINUOUS
10
4.55355
20
-2.6709
11
4.55276
21
-2.6709
0
LINE
8
BLACK
6
CONTINUOUS
10
4.55276
20
-2.6709
11
4.552
21
-2.67084
0
LINE
8
BLACK
6
CONTINUOUS
10
4.552
20
-2.67084
11
4.5517
21
-2.67079
0
LINE
8
BLACK
6
CONTINUOUS
10
4.5517
20
-2.67079
11
4.55122
21
-2.67071
0
LINE
8
BLACK
6
CONTINUOUS
10
4.55122
20
-2.67071
11
4.55122
21
-2.67071
0
LINE
8
BLACK
6
CONTINUOUS
10
4.55122
20
-2.67071
11
4.54939
21
-2.67089
0
LINE
8
BLACK
6
CONTINUOUS
10
4.54939
20
-2.67089
11
4.54916
21
-2.6709
0
LINE
8
BLACK
6
CONTINUOUS
10
4.54916
20
-2.6709
11
4.53371
21
-2.6709
0
LINE
8
BLACK
6
CONTINUOUS
10
4.53371
20
-2.6709
11
4.53107
21
-2.67012
0
LINE
8
BLACK
6
CONTINUOUS
10
4.53107
20
-2.67012
11
4.53008
21
-2.66928
0
LINE
8
BLACK
6
CONTINUOUS
10
4.53008
20
-2.66928
11
4.52985
21
-2.66903
0
LINE
8
BLACK
6
CONTINUOUS
10
4.52985
20
-2.66903
11
4.52985
21
-2.66903
0
LINE
8
BLACK
6
CONTINUOUS
10
4.52985
20
-2.66903
11
4.52382
21
-2.66465
0
LINE
8
BLACK
6
CONTINUOUS
10
4.52382
20
-2.66465
11
4.52382
21
-2.66465
0
LINE
8
BLACK
6
CONTINUOUS
10
4.52382
20
-2.66465
11
4.51702
21
-2.66162
0
LINE
8
BLACK
6
CONTINUOUS
10
4.51702
20
-2.66162
11
4.51702
21
-2.66162
0
LINE
8
BLACK
6
CONTINUOUS
10
4.51702
20
-2.66162
11
4.50973
21
-2.66007
0
LINE
8
BLACK
6
CONTINUOUS
10
4.50973
20
-2.66007
11
4.50951
21
-2.66005
0
LINE
8
BLACK
6
CONTINUOUS
10
4.50951
20
-2.66005
11
4.50697
21
-2.659
0
LINE
8
BLACK
6
CONTINUOUS
10
4.50697
20
-2.659
11
4.5054
21
-2.65675
0
LINE
8
BLACK
6
CONTINUOUS
10
4.5054
20
-2.65675
11
4.50525
21
-2.65468
0
LINE
8
BLACK
6
CONTINUOUS
10
4.50525
20
-2.65468
11
4.50518
21
-2.65468
0
LINE
8
BLACK
6
CONTINUOUS
10
4.50518
20
-2.65468
11
4.50531
21
-2.65298
0
LINE
8
BLACK
6
CONTINUOUS
10
4.50531
20
-2.65298
11
4.50531
21
-2.63268
0
LINE
8
BLACK
6
CONTINUOUS
10
4.50531
20
-2.63268
11
4.48563
21
-2.63268
0
LINE
8
BLACK
6
CONTINUOUS
10
4.48563
20
-2.63268
11
4.48563
21
-2.65039
0
LINE
8
BLACK
6
CONTINUOUS
10
4.48563
20
-2.65039
11
4.48518
21
-2.65265
0
LINE
8
BLACK
6
CONTINUOUS
10
4.48518
20
-2.65265
11
4.4839
21
-2.65457
0
LINE
8
BLACK
6
CONTINUOUS
10
4.4839
20
-2.65457
11
4.48198
21
-2.65585
0
LINE
8
BLACK
6
CONTINUOUS
10
4.48198
20
-2.65585
11
4.47972
21
-2.6563
0
LINE
8
BLACK
6
CONTINUOUS
10
4.47972
20
-2.6563
11
4.46791
21
-2.6563
0
LINE
8
BLACK
6
CONTINUOUS
10
4.46791
20
-2.6563
11
4.46565
21
-2.65585
0
LINE
8
BLACK
6
CONTINUOUS
10
4.46565
20
-2.65585
11
4.46374
21
-2.65457
0
LINE
8
BLACK
6
CONTINUOUS
10
4.46374
20
-2.65457
11
4.46246
21
-2.65265
0
LINE
8
BLACK
6
CONTINUOUS
10
4.46246
20
-2.65265
11
4.46201
21
-2.65039
0
LINE
8
BLACK
6
CONTINUOUS
10
4.46201
20
-2.65039
11
4.46201
21
-2.59528
0
LINE
8
BLACK
6
CONTINUOUS
10
4.46201
20
-2.59528
11
4.46246
21
-2.59302
0
LINE
8
BLACK
6
CONTINUOUS
10
4.46246
20
-2.59302
11
4.46374
21
-2.5911
0
LINE
8
BLACK
6
CONTINUOUS
10
4.46374
20
-2.5911
11
4.46398
21
-2.59094
0
LINE
8
BLACK
6
CONTINUOUS
10
4.46398
20
-2.59094
11
4.46398
21
-2.56979
0
LINE
8
BLACK
6
CONTINUOUS
10
4.46398
20
-2.56979
11
4.46388
21
-2.5698
0
LINE
8
BLACK
6
CONTINUOUS
10
4.46388
20
-2.5698
11
4.45767
21
-2.5716
0
LINE
8
BLACK
6
CONTINUOUS
10
4.45767
20
-2.5716
11
4.45184
21
-2.57505
0
LINE
8
BLACK
6
CONTINUOUS
10
4.45184
20
-2.57505
11
4.45179
21
-2.57497
0
LINE
8
BLACK
6
CONTINUOUS
10
4.45179
20
-2.57497
11
4.44966
21
-2.57581
0
LINE
8
BLACK
6
CONTINUOUS
10
4.44966
20
-2.57581
11
4.44696
21
-2.57527
0
LINE
8
BLACK
6
CONTINUOUS
10
4.44696
20
-2.57527
11
4.44658
21
-2.57503
0
LINE
8
BLACK
6
CONTINUOUS
10
4.44658
20
-2.57503
11
4.44079
21
-2.5716
0
LINE
8
BLACK
6
CONTINUOUS
10
4.44079
20
-2.5716
11
4.44076
21
-2.57158
0
LINE
8
BLACK
6
CONTINUOUS
10
4.44076
20
-2.57158
11
4.44076
21
-2.57158
0
LINE
8
BLACK
6
CONTINUOUS
10
4.44076
20
-2.57158
11
4.44076
21
-2.57158
0
LINE
8
BLACK
6
CONTINUOUS
10
4.44076
20
-2.57158
11
4.44076
21
-2.57158
0
LINE
8
BLACK
6
CONTINUOUS
10
4.44076
20
-2.57158
11
4.43459
21
-2.56979
0
LINE
8
BLACK
6
CONTINUOUS
10
4.43459
20
-2.56979
11
4.43455
21
-2.56978
0
LINE
8
BLACK
6
CONTINUOUS
10
4.43455
20
-2.56978
11
4.43455
21
-2.56978
0
LINE
8
BLACK
6
CONTINUOUS
10
4.43455
20
-2.56978
11
4.4331
21
-2.56967
0
LINE
8
BLACK
6
CONTINUOUS
10
4.4331
20
-2.56967
11
4.4331
21
-2.56967
0
LINE
8
BLACK
6
CONTINUOUS
10
4.4331
20
-2.56967
11
4.43151
21
-2.56967
0
LINE
8
BLACK
6
CONTINUOUS
10
4.43151
20
-2.56967
11
4.42887
21
-2.56889
0
LINE
8
BLACK
6
CONTINUOUS
10
4.42887
20
-2.56889
11
4.42806
21
-2.56824
0
LINE
8
BLACK
6
CONTINUOUS
10
4.42806
20
-2.56824
11
4.39872
21
-2.53889
0
LINE
8
BLACK
6
CONTINUOUS
10
4.39872
20
-2.53889
11
4.39833
21
-2.53841
0
LINE
8
BLACK
6
CONTINUOUS
10
4.39833
20
-2.53841
11
4.39832
21
-2.53841
0
LINE
8
BLACK
6
CONTINUOUS
10
4.39832
20
-2.53841
11
4.39813
21
-2.53818
0
LINE
8
BLACK
6
CONTINUOUS
10
4.39813
20
-2.53818
11
4.39813
21
-2.53818
0
LINE
8
BLACK
6
CONTINUOUS
10
4.39813
20
-2.53818
11
4.39614
21
-2.53631
0
LINE
8
BLACK
6
CONTINUOUS
10
4.39614
20
-2.53631
11
4.39573
21
-2.5359
0
LINE
8
BLACK
6
CONTINUOUS
10
4.39573
20
-2.5359
11
4.39532
21
-2.53549
0
LINE
8
BLACK
6
CONTINUOUS
10
4.39532
20
-2.53549
11
4.3951
21
-2.53532
0
LINE
8
BLACK
6
CONTINUOUS
10
4.3951
20
-2.53532
11
4.39493
21
-2.53518
0
LINE
8
BLACK
6
CONTINUOUS
10
4.39493
20
-2.53518
11
4.39359
21
-2.53392
0
LINE
8
BLACK
6
CONTINUOUS
10
4.39359
20
-2.53392
11
4.39359
21
-2.53392
0
LINE
8
BLACK
6
CONTINUOUS
10
4.39359
20
-2.53392
11
4.39359
21
-2.53392
0
LINE
8
BLACK
6
CONTINUOUS
10
4.39359
20
-2.53392
11
4.3929
21
-2.53354
0
LINE
8
BLACK
6
CONTINUOUS
10
4.3929
20
-2.53354
11
4.39226
21
-2.53312
0
LINE
8
BLACK
6
CONTINUOUS
10
4.39226
20
-2.53312
11
4.39164
21
-2.53263
0
LINE
8
BLACK
6
CONTINUOUS
10
4.39164
20
-2.53263
11
4.38995
21
-2.53191
0
LINE
8
BLACK
6
CONTINUOUS
10
4.38995
20
-2.53191
11
4.38974
21
-2.53181
0
LINE
8
BLACK
6
CONTINUOUS
10
4.38974
20
-2.53181
11
4.38814
21
-2.53092
0
LINE
8
BLACK
6
CONTINUOUS
10
4.38814
20
-2.53092
11
4.38814
21
-2.53092
0
LINE
8
BLACK
6
CONTINUOUS
10
4.38814
20
-2.53092
11
4.38737
21
-2.53073
0
LINE
8
BLACK
6
CONTINUOUS
10
4.38737
20
-2.53073
11
4.38665
21
-2.53048
0
LINE
8
BLACK
6
CONTINUOUS
10
4.38665
20
-2.53048
11
4.38593
21
-2.53016
0
LINE
8
BLACK
6
CONTINUOUS
10
4.38593
20
-2.53016
11
4.38592
21
-2.53016
0
LINE
8
BLACK
6
CONTINUOUS
10
4.38592
20
-2.53016
11
4.38411
21
-2.52988
0
LINE
8
BLACK
6
CONTINUOUS
10
4.38411
20
-2.52988
11
4.38389
21
-2.52983
0
LINE
8
BLACK
6
CONTINUOUS
10
4.38389
20
-2.52983
11
4.38211
21
-2.52937
0
LINE
8
BLACK
6
CONTINUOUS
10
4.38211
20
-2.52937
11
4.38211
21
-2.52937
0
LINE
8
BLACK
6
CONTINUOUS
10
4.38211
20
-2.52937
11
4.38132
21
-2.52937
0
LINE
8
BLACK
6
CONTINUOUS
10
4.38132
20
-2.52937
11
4.38056
21
-2.52931
0
LINE
8
BLACK
6
CONTINUOUS
10
4.38056
20
-2.52931
11
4.38027
21
-2.52927
0
LINE
8
BLACK
6
CONTINUOUS
10
4.38027
20
-2.52927
11
4.37978
21
-2.52919
0
LINE
8
BLACK
6
CONTINUOUS
10
4.37978
20
-2.52919
11
4.37978
21
-2.52919
0
LINE
8
BLACK
6
CONTINUOUS
10
4.37978
20
-2.52919
11
4.37795
21
-2.52936
0
LINE
8
BLACK
6
CONTINUOUS
10
4.37795
20
-2.52936
11
4.37772
21
-2.52937
0
LINE
8
BLACK
6
CONTINUOUS
10
4.37772
20
-2.52937
11
4.2976
21
-2.52937
0
LINE
8
BLACK
6
CONTINUOUS
10
4.2976
20
-2.52937
11
4.29496
21
-2.5286
0
LINE
8
BLACK
6
CONTINUOUS
10
4.29496
20
-2.5286
11
4.29316
21
-2.52652
0
LINE
8
BLACK
6
CONTINUOUS
10
4.29316
20
-2.52652
11
4.29272
21
-2.52449
0
LINE
8
BLACK
6
CONTINUOUS
10
4.29272
20
-2.52449
11
4.29272
21
-2.50669
0
LINE
8
BLACK
6
CONTINUOUS
10
4.29272
20
-2.50669
11
4.27303
21
-2.50669
0
LINE
8
BLACK
6
CONTINUOUS
10
4.27303
20
-2.50669
11
4.27303
21
-2.54016
0
LINE
8
BLACK
6
CONTINUOUS
10
4.27303
20
-2.54016
11
4.27228
21
-2.54392
0
LINE
8
BLACK
6
CONTINUOUS
10
4.27228
20
-2.54392
11
4.27015
21
-2.54712
0
LINE
8
BLACK
6
CONTINUOUS
10
4.27015
20
-2.54712
11
4.26696
21
-2.54925
0
LINE
8
BLACK
6
CONTINUOUS
10
4.26696
20
-2.54925
11
4.26319
21
-2.55
0
LINE
8
BLACK
6
CONTINUOUS
10
4.26319
20
-2.55
11
4.2435
21
-2.55
0
LINE
8
BLACK
6
CONTINUOUS
10
4.2435
20
-2.55
11
4.23974
21
-2.54925
0
LINE
8
BLACK
6
CONTINUOUS
10
4.23974
20
-2.54925
11
4.23654
21
-2.54712
0
LINE
8
BLACK
6
CONTINUOUS
10
4.23654
20
-2.54712
11
4.23441
21
-2.54392
0
LINE
8
BLACK
6
CONTINUOUS
10
4.23441
20
-2.54392
11
4.23366
21
-2.54016
0
LINE
8
BLACK
6
CONTINUOUS
10
4.23366
20
-2.54016
11
4.23366
21
-2.50669
0
LINE
8
BLACK
6
CONTINUOUS
10
4.23366
20
-2.50669
11
4.21398
21
-2.50669
0
LINE
8
BLACK
6
CONTINUOUS
10
4.21398
20
-2.50669
11
4.21398
21
-2.54213
0
LINE
8
BLACK
6
CONTINUOUS
10
4.21398
20
-2.54213
11
4.21439
21
-2.54617
0
LINE
8
BLACK
6
CONTINUOUS
10
4.21439
20
-2.54617
11
4.21656
21
-2.55272
0
LINE
8
BLACK
6
CONTINUOUS
10
4.21656
20
-2.55272
11
4.21656
21
-2.55272
0
LINE
8
BLACK
6
CONTINUOUS
10
4.21656
20
-2.55272
11
4.22018
21
-2.5586
0
LINE
8
BLACK
6
CONTINUOUS
10
4.22018
20
-2.5586
11
4.22507
21
-2.56348
0
LINE
8
BLACK
6
CONTINUOUS
10
4.22507
20
-2.56348
11
4.23094
21
-2.5671
0
LINE
8
BLACK
6
CONTINUOUS
10
4.23094
20
-2.5671
11
4.23094
21
-2.5671
0
LINE
8
BLACK
6
CONTINUOUS
10
4.23094
20
-2.5671
11
4.23329
21
-2.56788
0
LINE
8
BLACK
6
CONTINUOUS
10
4.23329
20
-2.56788
11
4.23555
21
-2.56945
0
LINE
8
BLACK
6
CONTINUOUS
10
4.23555
20
-2.56945
11
4.23661
21
-2.57199
0
LINE
8
BLACK
6
CONTINUOUS
10
4.23661
20
-2.57199
11
4.23612
21
-2.57469
0
LINE
8
BLACK
6
CONTINUOUS
10
4.23612
20
-2.57469
11
4.23521
21
-2.57597
0
LINE
8
BLACK
6
CONTINUOUS
10
4.23521
20
-2.57597
11
4.11489
21
-2.69628
0
LINE
8
BLACK
6
CONTINUOUS
10
4.11489
20
-2.69628
11
4.11441
21
-2.69667
0
LINE
8
BLACK
6
CONTINUOUS
10
4.11441
20
-2.69667
11
4.11441
21
-2.69668
0
LINE
8
BLACK
6
CONTINUOUS
10
4.11441
20
-2.69668
11
4.11418
21
-2.69687
0
LINE
8
BLACK
6
CONTINUOUS
10
4.11418
20
-2.69687
11
4.11231
21
-2.69886
0
LINE
8
BLACK
6
CONTINUOUS
10
4.11231
20
-2.69886
11
4.11149
21
-2.69968
0
LINE
8
BLACK
6
CONTINUOUS
10
4.11149
20
-2.69968
11
4.11149
21
-2.69968
0
LINE
8
BLACK
6
CONTINUOUS
10
4.11149
20
-2.69968
11
4.11132
21
-2.6999
0
LINE
8
BLACK
6
CONTINUOUS
10
4.11132
20
-2.6999
11
4.11117
21
-2.70007
0
LINE
8
BLACK
6
CONTINUOUS
10
4.11117
20
-2.70007
11
4.10992
21
-2.70141
0
LINE
8
BLACK
6
CONTINUOUS
10
4.10992
20
-2.70141
11
4.10992
21
-2.70141
0
LINE
8
BLACK
6
CONTINUOUS
10
4.10992
20
-2.70141
11
4.10954
21
-2.7021
0
LINE
8
BLACK
6
CONTINUOUS
10
4.10954
20
-2.7021
11
4.10912
21
-2.70274
0
LINE
8
BLACK
6
CONTINUOUS
10
4.10912
20
-2.70274
11
4.10863
21
-2.70336
0
LINE
8
BLACK
6
CONTINUOUS
10
4.10863
20
-2.70336
11
4.10863
21
-2.70336
0
LINE
8
BLACK
6
CONTINUOUS
10
4.10863
20
-2.70336
11
4.10791
21
-2.70505
0
LINE
8
BLACK
6
CONTINUOUS
10
4.10791
20
-2.70505
11
4.1078
21
-2.70526
0
LINE
8
BLACK
6
CONTINUOUS
10
4.1078
20
-2.70526
11
4.10692
21
-2.70686
0
LINE
8
BLACK
6
CONTINUOUS
10
4.10692
20
-2.70686
11
4.10673
21
-2.70763
0
LINE
8
BLACK
6
CONTINUOUS
10
4.10673
20
-2.70763
11
4.10648
21
-2.70835
0
LINE
8
BLACK
6
CONTINUOUS
10
4.10648
20
-2.70835
11
4.10616
21
-2.70907
0
LINE
8
BLACK
6
CONTINUOUS
10
4.10616
20
-2.70907
11
4.10616
21
-2.70908
0
LINE
8
BLACK
6
CONTINUOUS
10
4.10616
20
-2.70908
11
4.10613
21
-2.7093
0
LINE
8
BLACK
6
CONTINUOUS
10
4.10613
20
-2.7093
11
4.10495
21
-2.71178
0
LINE
8
BLACK
6
CONTINUOUS
10
4.10495
20
-2.71178
11
4.10333
21
-2.71298
0
LINE
8
BLACK
6
CONTINUOUS
10
4.10333
20
-2.71298
11
4.10114
21
-2.71398
0
LINE
8
BLACK
6
CONTINUOUS
10
4.10114
20
-2.71398
11
4.10114
21
-2.71398
0
LINE
8
BLACK
6
CONTINUOUS
10
4.10114
20
-2.71398
11
4.09637
21
-2.71704
0
LINE
8
BLACK
6
CONTINUOUS
10
4.09637
20
-2.71704
11
4.09637
21
-2.71704
0
LINE
8
BLACK
6
CONTINUOUS
10
4.09637
20
-2.71704
11
4.09278
21
-2.72015
0
LINE
8
BLACK
6
CONTINUOUS
10
4.09278
20
-2.72015
11
4.09209
21
-2.72075
0
LINE
8
BLACK
6
CONTINUOUS
10
4.09209
20
-2.72075
11
4.09209
21
-2.72075
0
LINE
8
BLACK
6
CONTINUOUS
10
4.09209
20
-2.72075
11
4.08838
21
-2.72503
0
LINE
8
BLACK
6
CONTINUOUS
10
4.08838
20
-2.72503
11
4.08782
21
-2.72591
0
LINE
8
BLACK
6
CONTINUOUS
10
4.08782
20
-2.72591
11
4.08532
21
-2.72979
0
LINE
8
BLACK
6
CONTINUOUS
10
4.08532
20
-2.72979
11
4.08532
21
-2.72979
0
LINE
8
BLACK
6
CONTINUOUS
10
4.08532
20
-2.72979
11
4.08297
21
-2.73495
0
LINE
8
BLACK
6
CONTINUOUS
10
4.08297
20
-2.73495
11
4.08137
21
-2.74038
0
LINE
8
BLACK
6
CONTINUOUS
10
4.08137
20
-2.74038
11
4.08137
21
-2.74038
0
LINE
8
BLACK
6
CONTINUOUS
10
4.08137
20
-2.74038
11
4.08057
21
-2.74599
0
LINE
8
BLACK
6
CONTINUOUS
10
4.08057
20
-2.74599
11
4.08057
21
-2.77047
0
LINE
8
BLACK
6
CONTINUOUS
10
4.08057
20
-2.77047
11
4.08077
21
-2.77331
0
LINE
8
BLACK
6
CONTINUOUS
10
4.48366
20
-2.59094
11
4.4839
21
-2.5911
0
LINE
8
BLACK
6
CONTINUOUS
10
4.4839
20
-2.5911
11
4.48518
21
-2.59302
0
LINE
8
BLACK
6
CONTINUOUS
10
4.48518
20
-2.59302
11
4.48563
21
-2.59528
0
LINE
8
BLACK
6
CONTINUOUS
10
4.48563
20
-2.59528
11
4.48563
21
-2.61299
0
LINE
8
BLACK
6
CONTINUOUS
10
4.48563
20
-2.61299
11
4.50531
21
-2.61299
0
LINE
8
BLACK
6
CONTINUOUS
10
4.50531
20
-2.61299
11
4.50531
21
-2.59269
0
LINE
8
BLACK
6
CONTINUOUS
10
4.50531
20
-2.59269
11
4.5052
21
-2.59124
0
LINE
8
BLACK
6
CONTINUOUS
10
4.5052
20
-2.59124
11
4.5052
21
-2.59124
0
LINE
8
BLACK
6
CONTINUOUS
10
4.5052
20
-2.59124
11
4.5034
21
-2.58503
0
LINE
8
BLACK
6
CONTINUOUS
10
4.5034
20
-2.58503
11
4.5034
21
-2.58503
0
LINE
8
BLACK
6
CONTINUOUS
10
4.5034
20
-2.58503
11
4.50011
21
-2.57947
0
LINE
8
BLACK
6
CONTINUOUS
10
4.50011
20
-2.57947
11
4.50011
21
-2.57947
0
LINE
8
BLACK
6
CONTINUOUS
10
4.50011
20
-2.57947
11
4.49553
21
-2.57489
0
LINE
8
BLACK
6
CONTINUOUS
10
4.49553
20
-2.57489
11
4.49553
21
-2.57489
0
LINE
8
BLACK
6
CONTINUOUS
10
4.49553
20
-2.57489
11
4.48997
21
-2.5716
0
LINE
8
BLACK
6
CONTINUOUS
10
4.48997
20
-2.5716
11
4.48997
21
-2.5716
0
LINE
8
BLACK
6
CONTINUOUS
10
4.48997
20
-2.5716
11
4.48376
21
-2.5698
0
LINE
8
BLACK
6
CONTINUOUS
10
4.48376
20
-2.5698
11
4.48366
21
-2.56979
0
LINE
8
BLACK
6
CONTINUOUS
10
4.48366
20
-2.56979
11
4.48366
21
-2.59094
0
LINE
8
BLACK
6
CONTINUOUS
10
4.50728
20
-2.54213
11
4.5077
21
-2.54617
0
LINE
8
BLACK
6
CONTINUOUS
10
4.5077
20
-2.54617
11
4.50987
21
-2.55272
0
LINE
8
BLACK
6
CONTINUOUS
10
4.50987
20
-2.55272
11
4.50987
21
-2.55272
0
LINE
8
BLACK
6
CONTINUOUS
10
4.50987
20
-2.55272
11
4.51349
21
-2.5586
0
LINE
8
BLACK
6
CONTINUOUS
10
4.51349
20
-2.5586
11
4.51837
21
-2.56348
0
LINE
8
BLACK
6
CONTINUOUS
10
4.51837
20
-2.56348
11
4.52425
21
-2.5671
0
LINE
8
BLACK
6
CONTINUOUS
10
4.52425
20
-2.5671
11
4.52425
21
-2.5671
0
LINE
8
BLACK
6
CONTINUOUS
10
4.52425
20
-2.5671
11
4.5308
21
-2.56927
0
LINE
8
BLACK
6
CONTINUOUS
10
4.5308
20
-2.56927
11
4.5308
21
-2.56927
0
LINE
8
BLACK
6
CONTINUOUS
10
4.5308
20
-2.56927
11
4.53484
21
-2.56968
0
LINE
8
BLACK
6
CONTINUOUS
10
4.53484
20
-2.56968
11
4.53681
21
-2.56968
0
LINE
8
BLACK
6
CONTINUOUS
10
4.53681
20
-2.56968
11
4.53681
21
-2.56968
0
LINE
8
BLACK
6
CONTINUOUS
10
4.53681
20
-2.56968
11
4.53681
21
-2.55
0
LINE
8
BLACK
6
CONTINUOUS
10
4.53681
20
-2.55
11
4.53304
21
-2.54925
0
LINE
8
BLACK
6
CONTINUOUS
10
4.53304
20
-2.54925
11
4.52985
21
-2.54712
0
LINE
8
BLACK
6
CONTINUOUS
10
4.52985
20
-2.54712
11
4.52772
21
-2.54392
0
LINE
8
BLACK
6
CONTINUOUS
10
4.52772
20
-2.54392
11
4.52697
21
-2.54016
0
LINE
8
BLACK
6
CONTINUOUS
10
4.52697
20
-2.54016
11
4.52697
21
-2.50669
0
LINE
8
BLACK
6
CONTINUOUS
10
4.52697
20
-2.50669
11
4.50728
21
-2.50669
0
LINE
8
BLACK
6
CONTINUOUS
10
4.50728
20
-2.50669
11
4.50728
21
-2.54213
0
LINE
8
BLACK
6
CONTINUOUS
10
4.56634
20
-2.54016
11
4.56559
21
-2.54392
0
LINE
8
BLACK
6
CONTINUOUS
10
4.56559
20
-2.54392
11
4.56346
21
-2.54712
0
LINE
8
BLACK
6
CONTINUOUS
10
4.56346
20
-2.54712
11
4.56026
21
-2.54925
0
LINE
8
BLACK
6
CONTINUOUS
10
4.56026
20
-2.54925
11
4.5565
21
-2.55
0
LINE
8
BLACK
6
CONTINUOUS
10
4.5565
20
-2.55
11
4.5565
21
-2.56968
0
LINE
8
BLACK
6
CONTINUOUS
10
4.5565
20
-2.56968
11
4.55846
21
-2.56968
0
LINE
8
BLACK
6
CONTINUOUS
10
4.55846
20
-2.56968
11
4.55846
21
-2.56968
0
LINE
8
BLACK
6
CONTINUOUS
10
4.55846
20
-2.56968
11
4.56251
21
-2.56927
0
LINE
8
BLACK
6
CONTINUOUS
10
4.56251
20
-2.56927
11
4.56906
21
-2.5671
0
LINE
8
BLACK
6
CONTINUOUS
10
4.56906
20
-2.5671
11
4.56906
21
-2.5671
0
LINE
8
BLACK
6
CONTINUOUS
10
4.56906
20
-2.5671
11
4.57493
21
-2.56348
0
LINE
8
BLACK
6
CONTINUOUS
10
4.57493
20
-2.56348
11
4.57982
21
-2.5586
0
LINE
8
BLACK
6
CONTINUOUS
10
4.57982
20
-2.5586
11
4.58344
21
-2.55272
0
LINE
8
BLACK
6
CONTINUOUS
10
4.58344
20
-2.55272
11
4.58344
21
-2.55272
0
LINE
8
BLACK
6
CONTINUOUS
10
4.58344
20
-2.55272
11
4.58561
21
-2.54617
0
LINE
8
BLACK
6
CONTINUOUS
10
4.58561
20
-2.54617
11
4.58561
21
-2.54617
0
LINE
8
BLACK
6
CONTINUOUS
10
4.58561
20
-2.54617
11
4.58602
21
-2.54213
0
LINE
8
BLACK
6
CONTINUOUS
10
4.58602
20
-2.54213
11
4.58602
21
-2.54212
0
LINE
8
BLACK
6
CONTINUOUS
10
4.58602
20
-2.54212
11
4.58602
21
-2.50669
0
LINE
8
BLACK
6
CONTINUOUS
10
4.58602
20
-2.50669
11
4.56634
21
-2.50669
0
LINE
8
BLACK
6
CONTINUOUS
10
4.56634
20
-2.50669
11
4.56634
21
-2.54016
0
CIRCLE
8
BLACK
10
4.8
20
-2.6
40
0.00688976
0
CIRCLE
8
BLACK
10
4
20
-3
40
0.00688976
0
CIRCLE
8
BLACK
10
4.8
20
-3
40
0.00688976
0
CIRCLE
8
BLACK
10
4
20
-2.6
40
0.00688976
0
CIRCLE
8
BLACK
10
4.708
20
-2.757
40
0.00787402
0
CIRCLE
8
BLACK
10
4.23
20
-2.91
40
0.00787402
0
CIRCLE
8
BLACK
10
4.396
20
-2.753
40
0.00787402
0
CIRCLE
8
BLACK
10
4.156
20
-2.911
40
0.00787402
0
CIRCLE
8
BLACK
10
4.148
20
-2.5
40
0.00787402
0
CIRCLE
8
BLACK
10
4.399
20
-2.87
40
0.00787402
0
CIRCLE
8
BLACK
10
4.529
20
-2.619
40
0.00787402
0
CIRCLE
8
BLACK
10
4.192
20
-3.112
40
0.00787402
0
CIRCLE
8
BLACK
10
4.45
20
-2.55
40
0.00787402
0
CIRCLE
8
BLACK
10
4.403
20
-2.803
40
0.00787402
0
CIRCLE
8
BLACK
10
4.465
20
-2.714
40
0.00787402
0
CIRCLE
8
BLACK
10
4.61
20
-2.5
40
0.00787402
0
CIRCLE
8
BLACK
10
4.331
20
-3.054
40
0.00787402
0
CIRCLE
8
BLACK
10
4.488
20
-3.113
40
0.00787402
0
CIRCLE
8
BLACK
10
4.49
20
-2.5
40
0.00787402
0
CIRCLE
8
BLACK
10
4.307
20
-3.123
40
0.00787402
0
CIRCLE
8
BLACK
10
4.06
20
-2.828
40
0.00787402
0
CIRCLE
8
BLACK
10
4.45
20
-2.48
40
0.00787402
0
CIRCLE
8
BLACK
10
4.49
20
-2.55
40
0.00787402
0
CIRCLE
8
BLACK
10
4.609
20
-3.112
40
0.00787402
0
CIRCLE
8
BLACK
10
4.27
20
-2.656
40
0.00787402
0
CIRCLE
8
BLACK
10
4.42461
20
-2.91
40
0.00787402
0
CIRCLE
8
BLACK
10
4.37539
20
-2.683
40
0.00787402
0
CIRCLE
8
BLACK
10
4.506
20
-2.69552
40
0.00787402
0
CIRCLE
8
BLACK
10
4.61
20
-2.97
40
0.00787402
0
CIRCLE
8
BLACK
10
4.298
20
-2.814
40
0.00787402
  0
ENDSEC
  0
EOF
