  0
SECTION
  2
HEADER
  9
$ANGBASE
  50
0.0
  9
$ANGDIR
  70
1
  9
$MEASUREMENT
  70
0
  0
ENDSEC
  0
SECTION
  2
TABLES
  0
TABLE
  2
LTYPE
  70
4
  0
LTYPE
  5
40F
  2
CONTINUOUS
  70
0
  3
Solid line
  72
65
  73
0
  40
0.0
  0
LTYPE
  5
410
  2
DASHDOT
 70
0
  3
Dash Dot ____ _ ____ _
 72
65
 73
4
 40
2.0
 49
1.25
 49
-0.25
 49
0.25
 49
-0.25
  0
LTYPE
  5
411
  2
DASHED
 70
0
  3
Dashed __ __ __ __ __
 72
65
 73
2
 40
0.75
 49
0.5
 49
-0.25
  0
LTYPE
  5
43B
  2
DOTTED
 70
0
  3
Dotted .  .  .  .
 72
65
 73
2
 40
0.2
 49
0.0
 49
-0.2
  0
ENDTAB
  0
TABLE
  2
STYLE
  70
4
  0
STYLE
  2
KICAD
  70
0
  40
0
  41
1
  42
1
  50
0
  71
0
  3
isocp.shx
  0
STYLE
  2
KICADB
  70
0
  40
0
  41
1
  42
1
  50
0
  71
0
  3
isocp.shx
  0
STYLE
  2
KICADI
  70
0
  40
0
  41
1
  42
1
  50
15
  71
0
  3
isocp.shx
  0
STYLE
  2
KICADBI
  70
0
  40
0
  41
1
  42
1
  50
15
  71
0
  3
isocp.shx
  0
ENDTAB
  0
TABLE
  2
LAYER
  70
1
  0
LAYER
  2
BLACK
  70
0
  62
7
  6
CONTINUOUS
  0
ENDTAB
  0
ENDSEC
  0
SECTION
  2
ENTITIES
0
LINE
8
BLACK
6
CONTINUOUS
10
4.6692
20
-2.83961
11
4.6699
21
-2.8399
0
LINE
8
BLACK
6
CONTINUOUS
10
4.6699
20
-2.8399
11
4.67019
21
-2.8406
0
LINE
8
BLACK
6
CONTINUOUS
10
4.67019
20
-2.8406
11
4.67019
21
-2.9154
0
LINE
8
BLACK
6
CONTINUOUS
10
4.67019
20
-2.9154
11
4.6699
21
-2.9161
0
LINE
8
BLACK
6
CONTINUOUS
10
4.6699
20
-2.9161
11
4.6692
21
-2.91639
0
LINE
8
BLACK
6
CONTINUOUS
10
4.6692
20
-2.91639
11
4.52354
21
-2.91639
0
LINE
8
BLACK
6
CONTINUOUS
10
4.52354
20
-2.91639
11
4.52284
21
-2.9161
0
LINE
8
BLACK
6
CONTINUOUS
10
4.52284
20
-2.9161
11
4.52255
21
-2.9154
0
LINE
8
BLACK
6
CONTINUOUS
10
4.52255
20
-2.9154
11
4.52255
21
-2.8406
0
LINE
8
BLACK
6
CONTINUOUS
10
4.52255
20
-2.8406
11
4.52284
21
-2.8399
0
LINE
8
BLACK
6
CONTINUOUS
10
4.52284
20
-2.8399
11
4.52354
21
-2.83961
0
LINE
8
BLACK
6
CONTINUOUS
10
4.52354
20
-2.83961
11
4.6692
21
-2.83961
0
LINE
8
BLACK
6
CONTINUOUS
10
4.52452
20
-2.84158
11
4.52452
21
-2.91442
0
LINE
8
BLACK
6
CONTINUOUS
10
4.52452
20
-2.91442
11
4.66822
21
-2.91442
0
LINE
8
BLACK
6
CONTINUOUS
10
4.66822
20
-2.91442
11
4.66822
21
-2.84158
0
LINE
8
BLACK
6
CONTINUOUS
10
4.66822
20
-2.84158
11
4.52452
21
-2.84158
0
LINE
8
BLACK
6
CONTINUOUS
10
4.48366
20
-2.72815
11
4.48436
21
-2.72844
0
LINE
8
BLACK
6
CONTINUOUS
10
4.48436
20
-2.72844
11
4.48465
21
-2.72913
0
LINE
8
BLACK
6
CONTINUOUS
10
4.48465
20
-2.72913
11
4.48465
21
-2.87087
0
LINE
8
BLACK
6
CONTINUOUS
10
4.48465
20
-2.87087
11
4.48436
21
-2.87156
0
LINE
8
BLACK
6
CONTINUOUS
10
4.48436
20
-2.87156
11
4.48366
21
-2.87185
0
LINE
8
BLACK
6
CONTINUOUS
10
4.48366
20
-2.87185
11
4.31634
21
-2.87185
0
LINE
8
BLACK
6
CONTINUOUS
10
4.31634
20
-2.87185
11
4.31564
21
-2.87156
0
LINE
8
BLACK
6
CONTINUOUS
10
4.31564
20
-2.87156
11
4.31535
21
-2.87087
0
LINE
8
BLACK
6
CONTINUOUS
10
4.31535
20
-2.87087
11
4.31535
21
-2.72913
0
LINE
8
BLACK
6
CONTINUOUS
10
4.31535
20
-2.72913
11
4.31564
21
-2.72844
0
LINE
8
BLACK
6
CONTINUOUS
10
4.31564
20
-2.72844
11
4.31634
21
-2.72815
0
LINE
8
BLACK
6
CONTINUOUS
10
4.31634
20
-2.72815
11
4.48366
21
-2.72815
0
LINE
8
BLACK
6
CONTINUOUS
10
4.31732
20
-2.73012
11
4.31732
21
-2.86988
0
LINE
8
BLACK
6
CONTINUOUS
10
4.31732
20
-2.86988
11
4.48268
21
-2.86988
0
LINE
8
BLACK
6
CONTINUOUS
10
4.48268
20
-2.86988
11
4.48268
21
-2.73012
0
LINE
8
BLACK
6
CONTINUOUS
10
4.48268
20
-2.73012
11
4.31732
21
-2.73012
0
LINE
8
BLACK
6
CONTINUOUS
10
3.91872
20
-2.75057
11
3.92717
21
-2.75283
0
LINE
8
BLACK
6
CONTINUOUS
10
3.92717
20
-2.75283
11
3.9351
21
-2.75653
0
LINE
8
BLACK
6
CONTINUOUS
10
3.9351
20
-2.75653
11
3.94227
21
-2.76155
0
LINE
8
BLACK
6
CONTINUOUS
10
3.94227
20
-2.76155
11
3.94845
21
-2.76773
0
LINE
8
BLACK
6
CONTINUOUS
10
3.94845
20
-2.76773
11
3.95347
21
-2.7749
0
LINE
8
BLACK
6
CONTINUOUS
10
3.95347
20
-2.7749
11
3.95717
21
-2.78283
0
LINE
8
BLACK
6
CONTINUOUS
10
3.95717
20
-2.78283
11
3.95943
21
-2.79128
0
LINE
8
BLACK
6
CONTINUOUS
10
3.95943
20
-2.79128
11
3.9602
21
-2.8
0
LINE
8
BLACK
6
CONTINUOUS
10
3.9602
20
-2.8
11
3.95943
21
-2.80872
0
LINE
8
BLACK
6
CONTINUOUS
10
3.95943
20
-2.80872
11
3.95717
21
-2.81717
0
LINE
8
BLACK
6
CONTINUOUS
10
3.95717
20
-2.81717
11
3.95347
21
-2.8251
0
LINE
8
BLACK
6
CONTINUOUS
10
3.95347
20
-2.8251
11
3.94845
21
-2.83227
0
LINE
8
BLACK
6
CONTINUOUS
10
3.94845
20
-2.83227
11
3.94227
21
-2.83845
0
LINE
8
BLACK
6
CONTINUOUS
10
3.94227
20
-2.83845
11
3.9351
21
-2.84347
0
LINE
8
BLACK
6
CONTINUOUS
10
3.9351
20
-2.84347
11
3.92717
21
-2.84717
0
LINE
8
BLACK
6
CONTINUOUS
10
3.92717
20
-2.84717
11
3.91872
21
-2.84943
0
LINE
8
BLACK
6
CONTINUOUS
10
3.91872
20
-2.84943
11
3.91
21
-2.8502
0
LINE
8
BLACK
6
CONTINUOUS
10
3.91
20
-2.8502
11
3.90128
21
-2.84943
0
LINE
8
BLACK
6
CONTINUOUS
10
3.90128
20
-2.84943
11
3.89283
21
-2.84717
0
LINE
8
BLACK
6
CONTINUOUS
10
3.89283
20
-2.84717
11
3.8849
21
-2.84347
0
LINE
8
BLACK
6
CONTINUOUS
10
3.8849
20
-2.84347
11
3.87773
21
-2.83845
0
LINE
8
BLACK
6
CONTINUOUS
10
3.87773
20
-2.83845
11
3.87155
21
-2.83227
0
LINE
8
BLACK
6
CONTINUOUS
10
3.87155
20
-2.83227
11
3.86653
21
-2.8251
0
LINE
8
BLACK
6
CONTINUOUS
10
3.86653
20
-2.8251
11
3.86283
21
-2.81717
0
LINE
8
BLACK
6
CONTINUOUS
10
3.86283
20
-2.81717
11
3.86057
21
-2.80872
0
LINE
8
BLACK
6
CONTINUOUS
10
3.86057
20
-2.80872
11
3.8598
21
-2.8
0
LINE
8
BLACK
6
CONTINUOUS
10
3.8598
20
-2.8
11
3.86057
21
-2.79128
0
LINE
8
BLACK
6
CONTINUOUS
10
3.86057
20
-2.79128
11
3.86283
21
-2.78283
0
LINE
8
BLACK
6
CONTINUOUS
10
3.86283
20
-2.78283
11
3.86653
21
-2.7749
0
LINE
8
BLACK
6
CONTINUOUS
10
3.86653
20
-2.7749
11
3.87155
21
-2.76773
0
LINE
8
BLACK
6
CONTINUOUS
10
3.87155
20
-2.76773
11
3.87773
21
-2.76155
0
LINE
8
BLACK
6
CONTINUOUS
10
3.87773
20
-2.76155
11
3.8849
21
-2.75653
0
LINE
8
BLACK
6
CONTINUOUS
10
3.8849
20
-2.75653
11
3.89283
21
-2.75283
0
LINE
8
BLACK
6
CONTINUOUS
10
3.89283
20
-2.75283
11
3.90128
21
-2.75057
0
LINE
8
BLACK
6
CONTINUOUS
10
3.90128
20
-2.75057
11
3.91
21
-2.7498
0
LINE
8
BLACK
6
CONTINUOUS
10
3.91
20
-2.7498
11
3.91872
21
-2.75057
0
LINE
8
BLACK
6
CONTINUOUS
10
3.86232
20
-2.80841
11
3.86451
21
-2.81656
0
LINE
8
BLACK
6
CONTINUOUS
10
3.86451
20
-2.81656
11
3.86807
21
-2.82421
0
LINE
8
BLACK
6
CONTINUOUS
10
3.86807
20
-2.82421
11
3.87291
21
-2.83112
0
LINE
8
BLACK
6
CONTINUOUS
10
3.87291
20
-2.83112
11
3.87888
21
-2.83709
0
LINE
8
BLACK
6
CONTINUOUS
10
3.87888
20
-2.83709
11
3.88579
21
-2.84193
0
LINE
8
BLACK
6
CONTINUOUS
10
3.88579
20
-2.84193
11
3.89344
21
-2.84549
0
LINE
8
BLACK
6
CONTINUOUS
10
3.89344
20
-2.84549
11
3.90159
21
-2.84768
0
LINE
8
BLACK
6
CONTINUOUS
10
3.90159
20
-2.84768
11
3.91
21
-2.84841
0
LINE
8
BLACK
6
CONTINUOUS
10
3.91
20
-2.84841
11
3.91841
21
-2.84768
0
LINE
8
BLACK
6
CONTINUOUS
10
3.91841
20
-2.84768
11
3.92656
21
-2.84549
0
LINE
8
BLACK
6
CONTINUOUS
10
3.92656
20
-2.84549
11
3.93421
21
-2.84193
0
LINE
8
BLACK
6
CONTINUOUS
10
3.93421
20
-2.84193
11
3.94112
21
-2.83709
0
LINE
8
BLACK
6
CONTINUOUS
10
3.94112
20
-2.83709
11
3.94709
21
-2.83112
0
LINE
8
BLACK
6
CONTINUOUS
10
3.94709
20
-2.83112
11
3.95193
21
-2.82421
0
LINE
8
BLACK
6
CONTINUOUS
10
3.95193
20
-2.82421
11
3.95549
21
-2.81656
0
LINE
8
BLACK
6
CONTINUOUS
10
3.95549
20
-2.81656
11
3.95768
21
-2.80841
0
LINE
8
BLACK
6
CONTINUOUS
10
3.95768
20
-2.80841
11
3.95841
21
-2.8
0
LINE
8
BLACK
6
CONTINUOUS
10
3.95841
20
-2.8
11
3.95768
21
-2.79159
0
LINE
8
BLACK
6
CONTINUOUS
10
3.95768
20
-2.79159
11
3.95549
21
-2.78344
0
LINE
8
BLACK
6
CONTINUOUS
10
3.95549
20
-2.78344
11
3.95193
21
-2.77579
0
LINE
8
BLACK
6
CONTINUOUS
10
3.95193
20
-2.77579
11
3.94709
21
-2.76888
0
LINE
8
BLACK
6
CONTINUOUS
10
3.94709
20
-2.76888
11
3.94112
21
-2.76291
0
LINE
8
BLACK
6
CONTINUOUS
10
3.94112
20
-2.76291
11
3.93421
21
-2.75807
0
LINE
8
BLACK
6
CONTINUOUS
10
3.93421
20
-2.75807
11
3.92656
21
-2.75451
0
LINE
8
BLACK
6
CONTINUOUS
10
3.92656
20
-2.75451
11
3.91841
21
-2.75232
0
LINE
8
BLACK
6
CONTINUOUS
10
3.91841
20
-2.75232
11
3.91
21
-2.75159
0
LINE
8
BLACK
6
CONTINUOUS
10
3.91
20
-2.75159
11
3.90159
21
-2.75232
0
LINE
8
BLACK
6
CONTINUOUS
10
3.90159
20
-2.75232
11
3.89344
21
-2.75451
0
LINE
8
BLACK
6
CONTINUOUS
10
3.89344
20
-2.75451
11
3.88579
21
-2.75807
0
LINE
8
BLACK
6
CONTINUOUS
10
3.88579
20
-2.75807
11
3.87888
21
-2.76291
0
LINE
8
BLACK
6
CONTINUOUS
10
3.87888
20
-2.76291
11
3.87291
21
-2.76888
0
LINE
8
BLACK
6
CONTINUOUS
10
3.87291
20
-2.76888
11
3.86807
21
-2.77579
0
LINE
8
BLACK
6
CONTINUOUS
10
3.86807
20
-2.77579
11
3.86451
21
-2.78344
0
LINE
8
BLACK
6
CONTINUOUS
10
3.86451
20
-2.78344
11
3.86232
21
-2.79159
0
LINE
8
BLACK
6
CONTINUOUS
10
3.86232
20
-2.79159
11
3.86159
21
-2.8
0
LINE
8
BLACK
6
CONTINUOUS
10
3.86159
20
-2.8
11
3.86232
21
-2.80841
0
LINE
8
BLACK
6
CONTINUOUS
10
4.89872
20
-2.75057
11
4.90717
21
-2.75283
0
LINE
8
BLACK
6
CONTINUOUS
10
4.90717
20
-2.75283
11
4.9151
21
-2.75653
0
LINE
8
BLACK
6
CONTINUOUS
10
4.9151
20
-2.75653
11
4.92227
21
-2.76155
0
LINE
8
BLACK
6
CONTINUOUS
10
4.92227
20
-2.76155
11
4.92845
21
-2.76773
0
LINE
8
BLACK
6
CONTINUOUS
10
4.92845
20
-2.76773
11
4.93347
21
-2.7749
0
LINE
8
BLACK
6
CONTINUOUS
10
4.93347
20
-2.7749
11
4.93717
21
-2.78283
0
LINE
8
BLACK
6
CONTINUOUS
10
4.93717
20
-2.78283
11
4.93943
21
-2.79128
0
LINE
8
BLACK
6
CONTINUOUS
10
4.93943
20
-2.79128
11
4.9402
21
-2.8
0
LINE
8
BLACK
6
CONTINUOUS
10
4.9402
20
-2.8
11
4.93943
21
-2.80872
0
LINE
8
BLACK
6
CONTINUOUS
10
4.93943
20
-2.80872
11
4.93717
21
-2.81717
0
LINE
8
BLACK
6
CONTINUOUS
10
4.93717
20
-2.81717
11
4.93347
21
-2.8251
0
LINE
8
BLACK
6
CONTINUOUS
10
4.93347
20
-2.8251
11
4.92845
21
-2.83227
0
LINE
8
BLACK
6
CONTINUOUS
10
4.92845
20
-2.83227
11
4.92227
21
-2.83845
0
LINE
8
BLACK
6
CONTINUOUS
10
4.92227
20
-2.83845
11
4.9151
21
-2.84347
0
LINE
8
BLACK
6
CONTINUOUS
10
4.9151
20
-2.84347
11
4.90717
21
-2.84717
0
LINE
8
BLACK
6
CONTINUOUS
10
4.90717
20
-2.84717
11
4.89872
21
-2.84943
0
LINE
8
BLACK
6
CONTINUOUS
10
4.89872
20
-2.84943
11
4.89
21
-2.8502
0
LINE
8
BLACK
6
CONTINUOUS
10
4.89
20
-2.8502
11
4.88128
21
-2.84943
0
LINE
8
BLACK
6
CONTINUOUS
10
4.88128
20
-2.84943
11
4.87283
21
-2.84717
0
LINE
8
BLACK
6
CONTINUOUS
10
4.87283
20
-2.84717
11
4.8649
21
-2.84347
0
LINE
8
BLACK
6
CONTINUOUS
10
4.8649
20
-2.84347
11
4.85773
21
-2.83845
0
LINE
8
BLACK
6
CONTINUOUS
10
4.85773
20
-2.83845
11
4.85155
21
-2.83227
0
LINE
8
BLACK
6
CONTINUOUS
10
4.85155
20
-2.83227
11
4.84653
21
-2.8251
0
LINE
8
BLACK
6
CONTINUOUS
10
4.84653
20
-2.8251
11
4.84283
21
-2.81717
0
LINE
8
BLACK
6
CONTINUOUS
10
4.84283
20
-2.81717
11
4.84057
21
-2.80872
0
LINE
8
BLACK
6
CONTINUOUS
10
4.84057
20
-2.80872
11
4.8398
21
-2.8
0
LINE
8
BLACK
6
CONTINUOUS
10
4.8398
20
-2.8
11
4.84057
21
-2.79128
0
LINE
8
BLACK
6
CONTINUOUS
10
4.84057
20
-2.79128
11
4.84283
21
-2.78283
0
LINE
8
BLACK
6
CONTINUOUS
10
4.84283
20
-2.78283
11
4.84653
21
-2.7749
0
LINE
8
BLACK
6
CONTINUOUS
10
4.84653
20
-2.7749
11
4.85155
21
-2.76773
0
LINE
8
BLACK
6
CONTINUOUS
10
4.85155
20
-2.76773
11
4.85773
21
-2.76155
0
LINE
8
BLACK
6
CONTINUOUS
10
4.85773
20
-2.76155
11
4.8649
21
-2.75653
0
LINE
8
BLACK
6
CONTINUOUS
10
4.8649
20
-2.75653
11
4.87283
21
-2.75283
0
LINE
8
BLACK
6
CONTINUOUS
10
4.87283
20
-2.75283
11
4.88128
21
-2.75057
0
LINE
8
BLACK
6
CONTINUOUS
10
4.88128
20
-2.75057
11
4.89
21
-2.7498
0
LINE
8
BLACK
6
CONTINUOUS
10
4.89
20
-2.7498
11
4.89872
21
-2.75057
0
LINE
8
BLACK
6
CONTINUOUS
10
4.84232
20
-2.80841
11
4.84451
21
-2.81656
0
LINE
8
BLACK
6
CONTINUOUS
10
4.84451
20
-2.81656
11
4.84807
21
-2.82421
0
LINE
8
BLACK
6
CONTINUOUS
10
4.84807
20
-2.82421
11
4.85291
21
-2.83112
0
LINE
8
BLACK
6
CONTINUOUS
10
4.85291
20
-2.83112
11
4.85888
21
-2.83709
0
LINE
8
BLACK
6
CONTINUOUS
10
4.85888
20
-2.83709
11
4.86579
21
-2.84193
0
LINE
8
BLACK
6
CONTINUOUS
10
4.86579
20
-2.84193
11
4.87344
21
-2.84549
0
LINE
8
BLACK
6
CONTINUOUS
10
4.87344
20
-2.84549
11
4.88159
21
-2.84768
0
LINE
8
BLACK
6
CONTINUOUS
10
4.88159
20
-2.84768
11
4.89
21
-2.84841
0
LINE
8
BLACK
6
CONTINUOUS
10
4.89
20
-2.84841
11
4.89841
21
-2.84768
0
LINE
8
BLACK
6
CONTINUOUS
10
4.89841
20
-2.84768
11
4.90656
21
-2.84549
0
LINE
8
BLACK
6
CONTINUOUS
10
4.90656
20
-2.84549
11
4.91421
21
-2.84193
0
LINE
8
BLACK
6
CONTINUOUS
10
4.91421
20
-2.84193
11
4.92112
21
-2.83709
0
LINE
8
BLACK
6
CONTINUOUS
10
4.92112
20
-2.83709
11
4.92709
21
-2.83112
0
LINE
8
BLACK
6
CONTINUOUS
10
4.92709
20
-2.83112
11
4.93193
21
-2.82421
0
LINE
8
BLACK
6
CONTINUOUS
10
4.93193
20
-2.82421
11
4.93549
21
-2.81656
0
LINE
8
BLACK
6
CONTINUOUS
10
4.93549
20
-2.81656
11
4.93768
21
-2.80841
0
LINE
8
BLACK
6
CONTINUOUS
10
4.93768
20
-2.80841
11
4.93841
21
-2.8
0
LINE
8
BLACK
6
CONTINUOUS
10
4.93841
20
-2.8
11
4.93768
21
-2.79159
0
LINE
8
BLACK
6
CONTINUOUS
10
4.93768
20
-2.79159
11
4.93549
21
-2.78344
0
LINE
8
BLACK
6
CONTINUOUS
10
4.93549
20
-2.78344
11
4.93193
21
-2.77579
0
LINE
8
BLACK
6
CONTINUOUS
10
4.93193
20
-2.77579
11
4.92709
21
-2.76888
0
LINE
8
BLACK
6
CONTINUOUS
10
4.92709
20
-2.76888
11
4.92112
21
-2.76291
0
LINE
8
BLACK
6
CONTINUOUS
10
4.92112
20
-2.76291
11
4.91421
21
-2.75807
0
LINE
8
BLACK
6
CONTINUOUS
10
4.91421
20
-2.75807
11
4.90656
21
-2.75451
0
LINE
8
BLACK
6
CONTINUOUS
10
4.90656
20
-2.75451
11
4.89841
21
-2.75232
0
LINE
8
BLACK
6
CONTINUOUS
10
4.89841
20
-2.75232
11
4.89
21
-2.75159
0
LINE
8
BLACK
6
CONTINUOUS
10
4.89
20
-2.75159
11
4.88159
21
-2.75232
0
LINE
8
BLACK
6
CONTINUOUS
10
4.88159
20
-2.75232
11
4.87344
21
-2.75451
0
LINE
8
BLACK
6
CONTINUOUS
10
4.87344
20
-2.75451
11
4.86579
21
-2.75807
0
LINE
8
BLACK
6
CONTINUOUS
10
4.86579
20
-2.75807
11
4.85888
21
-2.76291
0
LINE
8
BLACK
6
CONTINUOUS
10
4.85888
20
-2.76291
11
4.85291
21
-2.76888
0
LINE
8
BLACK
6
CONTINUOUS
10
4.85291
20
-2.76888
11
4.84807
21
-2.77579
0
LINE
8
BLACK
6
CONTINUOUS
10
4.84807
20
-2.77579
11
4.84451
21
-2.78344
0
LINE
8
BLACK
6
CONTINUOUS
10
4.84451
20
-2.78344
11
4.84232
21
-2.79159
0
LINE
8
BLACK
6
CONTINUOUS
10
4.84232
20
-2.79159
11
4.84159
21
-2.8
0
LINE
8
BLACK
6
CONTINUOUS
10
4.84159
20
-2.8
11
4.84232
21
-2.80841
0
LINE
8
BLACK
6
CONTINUOUS
10
4.66983
20
-2.76161
11
4.67053
21
-2.7619
0
LINE
8
BLACK
6
CONTINUOUS
10
4.67053
20
-2.7619
11
4.67082
21
-2.7626
0
LINE
8
BLACK
6
CONTINUOUS
10
4.67082
20
-2.7626
11
4.67082
21
-2.8374
0
LINE
8
BLACK
6
CONTINUOUS
10
4.67082
20
-2.8374
11
4.67053
21
-2.8381
0
LINE
8
BLACK
6
CONTINUOUS
10
4.67053
20
-2.8381
11
4.66983
21
-2.83839
0
LINE
8
BLACK
6
CONTINUOUS
10
4.66983
20
-2.83839
11
4.52417
21
-2.83839
0
LINE
8
BLACK
6
CONTINUOUS
10
4.52417
20
-2.83839
11
4.52347
21
-2.8381
0
LINE
8
BLACK
6
CONTINUOUS
10
4.52347
20
-2.8381
11
4.52318
21
-2.8374
0
LINE
8
BLACK
6
CONTINUOUS
10
4.52318
20
-2.8374
11
4.52318
21
-2.7626
0
LINE
8
BLACK
6
CONTINUOUS
10
4.52318
20
-2.7626
11
4.52347
21
-2.7619
0
LINE
8
BLACK
6
CONTINUOUS
10
4.52347
20
-2.7619
11
4.52417
21
-2.76161
0
LINE
8
BLACK
6
CONTINUOUS
10
4.52417
20
-2.76161
11
4.66983
21
-2.76161
0
LINE
8
BLACK
6
CONTINUOUS
10
4.52515
20
-2.76358
11
4.52515
21
-2.83642
0
LINE
8
BLACK
6
CONTINUOUS
10
4.52515
20
-2.83642
11
4.66885
21
-2.83642
0
LINE
8
BLACK
6
CONTINUOUS
10
4.66885
20
-2.83642
11
4.66885
21
-2.76358
0
LINE
8
BLACK
6
CONTINUOUS
10
4.66885
20
-2.76358
11
4.52515
21
-2.76358
0
LINE
8
BLACK
6
CONTINUOUS
10
4.66983
20
-2.68361
11
4.67053
21
-2.6839
0
LINE
8
BLACK
6
CONTINUOUS
10
4.67053
20
-2.6839
11
4.67082
21
-2.6846
0
LINE
8
BLACK
6
CONTINUOUS
10
4.67082
20
-2.6846
11
4.67082
21
-2.7594
0
LINE
8
BLACK
6
CONTINUOUS
10
4.67082
20
-2.7594
11
4.67053
21
-2.7601
0
LINE
8
BLACK
6
CONTINUOUS
10
4.67053
20
-2.7601
11
4.66983
21
-2.76039
0
LINE
8
BLACK
6
CONTINUOUS
10
4.66983
20
-2.76039
11
4.52417
21
-2.76039
0
LINE
8
BLACK
6
CONTINUOUS
10
4.52417
20
-2.76039
11
4.52347
21
-2.7601
0
LINE
8
BLACK
6
CONTINUOUS
10
4.52347
20
-2.7601
11
4.52318
21
-2.7594
0
LINE
8
BLACK
6
CONTINUOUS
10
4.52318
20
-2.7594
11
4.52318
21
-2.6846
0
LINE
8
BLACK
6
CONTINUOUS
10
4.52318
20
-2.6846
11
4.52347
21
-2.6839
0
LINE
8
BLACK
6
CONTINUOUS
10
4.52347
20
-2.6839
11
4.52417
21
-2.68361
0
LINE
8
BLACK
6
CONTINUOUS
10
4.52417
20
-2.68361
11
4.66983
21
-2.68361
0
LINE
8
BLACK
6
CONTINUOUS
10
4.52515
20
-2.68558
11
4.52515
21
-2.75842
0
LINE
8
BLACK
6
CONTINUOUS
10
4.52515
20
-2.75842
11
4.66885
21
-2.75842
0
LINE
8
BLACK
6
CONTINUOUS
10
4.66885
20
-2.75842
11
4.66885
21
-2.68558
0
LINE
8
BLACK
6
CONTINUOUS
10
4.66885
20
-2.68558
11
4.52515
21
-2.68558
0
LINE
8
BLACK
6
CONTINUOUS
10
4.23758
20
-2.58285
11
4.23828
21
-2.58313
0
LINE
8
BLACK
6
CONTINUOUS
10
4.23828
20
-2.58313
11
4.23857
21
-2.58383
0
LINE
8
BLACK
6
CONTINUOUS
10
4.23857
20
-2.58383
11
4.23857
21
-2.73186
0
LINE
8
BLACK
6
CONTINUOUS
10
4.23857
20
-2.73186
11
4.23828
21
-2.73256
0
LINE
8
BLACK
6
CONTINUOUS
10
4.23828
20
-2.73256
11
4.23758
21
-2.73285
0
LINE
8
BLACK
6
CONTINUOUS
10
4.23758
20
-2.73285
11
4.16042
21
-2.73285
0
LINE
8
BLACK
6
CONTINUOUS
10
4.16042
20
-2.73285
11
4.15972
21
-2.73256
0
LINE
8
BLACK
6
CONTINUOUS
10
4.15972
20
-2.73256
11
4.15943
21
-2.73186
0
LINE
8
BLACK
6
CONTINUOUS
10
4.15943
20
-2.73186
11
4.15943
21
-2.58383
0
LINE
8
BLACK
6
CONTINUOUS
10
4.15943
20
-2.58383
11
4.15972
21
-2.58313
0
LINE
8
BLACK
6
CONTINUOUS
10
4.15972
20
-2.58313
11
4.16042
21
-2.58285
0
LINE
8
BLACK
6
CONTINUOUS
10
4.16042
20
-2.58285
11
4.23758
21
-2.58285
0
LINE
8
BLACK
6
CONTINUOUS
10
4.1614
20
-2.58481
11
4.1614
21
-2.73088
0
LINE
8
BLACK
6
CONTINUOUS
10
4.1614
20
-2.73088
11
4.2366
21
-2.73088
0
LINE
8
BLACK
6
CONTINUOUS
10
4.2366
20
-2.73088
11
4.2366
21
-2.58481
0
LINE
8
BLACK
6
CONTINUOUS
10
4.2366
20
-2.58481
11
4.1614
21
-2.58481
0
LINE
8
BLACK
6
CONTINUOUS
10
4.41791
20
-2.54146
11
4.41861
21
-2.54174
0
LINE
8
BLACK
6
CONTINUOUS
10
4.41861
20
-2.54174
11
4.4189
21
-2.54244
0
LINE
8
BLACK
6
CONTINUOUS
10
4.4189
20
-2.54244
11
4.4189
21
-2.64874
0
LINE
8
BLACK
6
CONTINUOUS
10
4.4189
20
-2.64874
11
4.41861
21
-2.64944
0
LINE
8
BLACK
6
CONTINUOUS
10
4.41861
20
-2.64944
11
4.41791
21
-2.64972
0
LINE
8
BLACK
6
CONTINUOUS
10
4.41791
20
-2.64972
11
4.28209
21
-2.64972
0
LINE
8
BLACK
6
CONTINUOUS
10
4.28209
20
-2.64972
11
4.28139
21
-2.64944
0
LINE
8
BLACK
6
CONTINUOUS
10
4.28139
20
-2.64944
11
4.2811
21
-2.64874
0
LINE
8
BLACK
6
CONTINUOUS
10
4.2811
20
-2.64874
11
4.2811
21
-2.54244
0
LINE
8
BLACK
6
CONTINUOUS
10
4.2811
20
-2.54244
11
4.28139
21
-2.54174
0
LINE
8
BLACK
6
CONTINUOUS
10
4.28139
20
-2.54174
11
4.28209
21
-2.54146
0
LINE
8
BLACK
6
CONTINUOUS
10
4.28209
20
-2.54146
11
4.41791
21
-2.54146
0
LINE
8
BLACK
6
CONTINUOUS
10
4.28307
20
-2.54343
11
4.28307
21
-2.64776
0
LINE
8
BLACK
6
CONTINUOUS
10
4.28307
20
-2.64776
11
4.41693
21
-2.64776
0
LINE
8
BLACK
6
CONTINUOUS
10
4.41693
20
-2.64776
11
4.41693
21
-2.54343
0
LINE
8
BLACK
6
CONTINUOUS
10
4.41693
20
-2.54343
11
4.28307
21
-2.54343
0
LINE
8
BLACK
6
CONTINUOUS
10
4.23858
20
-2.43015
11
4.23928
21
-2.43044
0
LINE
8
BLACK
6
CONTINUOUS
10
4.23928
20
-2.43044
11
4.23957
21
-2.43114
0
LINE
8
BLACK
6
CONTINUOUS
10
4.23957
20
-2.43114
11
4.23957
21
-2.57917
0
LINE
8
BLACK
6
CONTINUOUS
10
4.23957
20
-2.57917
11
4.23928
21
-2.57987
0
LINE
8
BLACK
6
CONTINUOUS
10
4.23928
20
-2.57987
11
4.23858
21
-2.58015
0
LINE
8
BLACK
6
CONTINUOUS
10
4.23858
20
-2.58015
11
4.16142
21
-2.58015
0
LINE
8
BLACK
6
CONTINUOUS
10
4.16142
20
-2.58015
11
4.16072
21
-2.57987
0
LINE
8
BLACK
6
CONTINUOUS
10
4.16072
20
-2.57987
11
4.16043
21
-2.57917
0
LINE
8
BLACK
6
CONTINUOUS
10
4.16043
20
-2.57917
11
4.16043
21
-2.43114
0
LINE
8
BLACK
6
CONTINUOUS
10
4.16043
20
-2.43114
11
4.16072
21
-2.43044
0
LINE
8
BLACK
6
CONTINUOUS
10
4.16072
20
-2.43044
11
4.16142
21
-2.43015
0
LINE
8
BLACK
6
CONTINUOUS
10
4.16142
20
-2.43015
11
4.23858
21
-2.43015
0
LINE
8
BLACK
6
CONTINUOUS
10
4.1624
20
-2.43212
11
4.1624
21
-2.57819
0
LINE
8
BLACK
6
CONTINUOUS
10
4.1624
20
-2.57819
11
4.2376
21
-2.57819
0
LINE
8
BLACK
6
CONTINUOUS
10
4.2376
20
-2.57819
11
4.2376
21
-2.43212
0
LINE
8
BLACK
6
CONTINUOUS
10
4.2376
20
-2.43212
11
4.1624
21
-2.43212
0
LINE
8
BLACK
6
CONTINUOUS
10
4.4215
20
-2.43374
11
4.42219
21
-2.43403
0
LINE
8
BLACK
6
CONTINUOUS
10
4.42219
20
-2.43403
11
4.42248
21
-2.43472
0
LINE
8
BLACK
6
CONTINUOUS
10
4.42248
20
-2.43472
11
4.42248
21
-2.52528
0
LINE
8
BLACK
6
CONTINUOUS
10
4.42248
20
-2.52528
11
4.42219
21
-2.52597
0
LINE
8
BLACK
6
CONTINUOUS
10
4.42219
20
-2.52597
11
4.4215
21
-2.52626
0
LINE
8
BLACK
6
CONTINUOUS
10
4.4215
20
-2.52626
11
4.24827
21
-2.52626
0
LINE
8
BLACK
6
CONTINUOUS
10
4.24827
20
-2.52626
11
4.24757
21
-2.52597
0
LINE
8
BLACK
6
CONTINUOUS
10
4.24757
20
-2.52597
11
4.24728
21
-2.52528
0
LINE
8
BLACK
6
CONTINUOUS
10
4.24728
20
-2.52528
11
4.24728
21
-2.43472
0
LINE
8
BLACK
6
CONTINUOUS
10
4.24728
20
-2.43472
11
4.24757
21
-2.43403
0
LINE
8
BLACK
6
CONTINUOUS
10
4.24757
20
-2.43403
11
4.24827
21
-2.43374
0
LINE
8
BLACK
6
CONTINUOUS
10
4.24827
20
-2.43374
11
4.4215
21
-2.43374
0
LINE
8
BLACK
6
CONTINUOUS
10
4.24925
20
-2.43571
11
4.24925
21
-2.52429
0
LINE
8
BLACK
6
CONTINUOUS
10
4.24925
20
-2.52429
11
4.42051
21
-2.52429
0
LINE
8
BLACK
6
CONTINUOUS
10
4.42051
20
-2.52429
11
4.42051
21
-2.43571
0
LINE
8
BLACK
6
CONTINUOUS
10
4.42051
20
-2.43571
11
4.24925
21
-2.43571
  0
ENDSEC
  0
EOF
