  0
SECTION
  2
HEADER
  9
$ANGBASE
  50
0.0
  9
$ANGDIR
  70
1
  9
$MEASUREMENT
  70
0
  0
ENDSEC
  0
SECTION
  2
TABLES
  0
TABLE
  2
LTYPE
  70
4
  0
LTYPE
  5
40F
  2
CONTINUOUS
  70
0
  3
Solid line
  72
65
  73
0
  40
0.0
  0
LTYPE
  5
410
  2
DASHDOT
 70
0
  3
Dash Dot ____ _ ____ _
 72
65
 73
4
 40
2.0
 49
1.25
 49
-0.25
 49
0.25
 49
-0.25
  0
LTYPE
  5
411
  2
DASHED
 70
0
  3
Dashed __ __ __ __ __
 72
65
 73
2
 40
0.75
 49
0.5
 49
-0.25
  0
LTYPE
  5
43B
  2
DOTTED
 70
0
  3
Dotted .  .  .  .
 72
65
 73
2
 40
0.2
 49
0.0
 49
-0.2
  0
ENDTAB
  0
TABLE
  2
STYLE
  70
4
  0
STYLE
  2
KICAD
  70
0
  40
0
  41
1
  42
1
  50
0
  71
0
  3
isocp.shx
  0
STYLE
  2
KICADB
  70
0
  40
0
  41
1
  42
1
  50
0
  71
0
  3
isocp.shx
  0
STYLE
  2
KICADI
  70
0
  40
0
  41
1
  42
1
  50
15
  71
0
  3
isocp.shx
  0
STYLE
  2
KICADBI
  70
0
  40
0
  41
1
  42
1
  50
15
  71
0
  3
isocp.shx
  0
ENDTAB
  0
TABLE
  2
LAYER
  70
1
  0
LAYER
  2
BLACK
  70
0
  62
7
  6
CONTINUOUS
  0
ENDTAB
  0
ENDSEC
  0
SECTION
  2
ENTITIES
0
LINE
8
BLACK
6
CONTINUOUS
10
4.14329
20
-3.26902
11
4.1444
21
-3.2707
0
LINE
8
BLACK
6
CONTINUOUS
10
4.1444
20
-3.2707
11
4.14417
21
-3.27271
0
LINE
8
BLACK
6
CONTINUOUS
10
4.14417
20
-3.27271
11
4.1423
21
-3.27646
0
LINE
8
BLACK
6
CONTINUOUS
10
4.1423
20
-3.27646
11
4.14177
21
-3.27717
0
LINE
8
BLACK
6
CONTINUOUS
10
4.14177
20
-3.27717
11
4.14174
21
-3.27722
0
LINE
8
BLACK
6
CONTINUOUS
10
4.14174
20
-3.27722
11
4.13928
21
-3.27968
0
LINE
8
BLACK
6
CONTINUOUS
10
4.13928
20
-3.27968
11
4.1667
21
-3.27968
0
LINE
8
BLACK
6
CONTINUOUS
10
4.1667
20
-3.27968
11
4.1667
21
-3.27139
0
LINE
8
BLACK
6
CONTINUOUS
10
4.1667
20
-3.27139
11
4.16688
21
-3.27038
0
LINE
8
BLACK
6
CONTINUOUS
10
4.16688
20
-3.27038
11
4.16817
21
-3.26883
0
LINE
8
BLACK
6
CONTINUOUS
10
4.16817
20
-3.26883
11
4.17016
21
-3.26848
0
LINE
8
BLACK
6
CONTINUOUS
10
4.17016
20
-3.26848
11
4.17191
21
-3.26949
0
LINE
8
BLACK
6
CONTINUOUS
10
4.17191
20
-3.26949
11
4.1726
21
-3.27139
0
LINE
8
BLACK
6
CONTINUOUS
10
4.1726
20
-3.27139
11
4.1726
21
-3.29388
0
LINE
8
BLACK
6
CONTINUOUS
10
4.1726
20
-3.29388
11
4.17243
21
-3.29489
0
LINE
8
BLACK
6
CONTINUOUS
10
4.17243
20
-3.29489
11
4.17113
21
-3.29644
0
LINE
8
BLACK
6
CONTINUOUS
10
4.17113
20
-3.29644
11
4.16914
21
-3.29679
0
LINE
8
BLACK
6
CONTINUOUS
10
4.16914
20
-3.29679
11
4.16739
21
-3.29578
0
LINE
8
BLACK
6
CONTINUOUS
10
4.16739
20
-3.29578
11
4.1667
21
-3.29388
0
LINE
8
BLACK
6
CONTINUOUS
10
4.1667
20
-3.29388
11
4.1667
21
-3.28559
0
LINE
8
BLACK
6
CONTINUOUS
10
4.1667
20
-3.28559
11
4.13028
21
-3.28559
0
LINE
8
BLACK
6
CONTINUOUS
10
4.13028
20
-3.28559
11
4.12927
21
-3.28541
0
LINE
8
BLACK
6
CONTINUOUS
10
4.12927
20
-3.28541
11
4.12914
21
-3.2853
0
LINE
8
BLACK
6
CONTINUOUS
10
4.12914
20
-3.2853
11
4.12897
21
-3.28528
0
LINE
8
BLACK
6
CONTINUOUS
10
4.12897
20
-3.28528
11
4.12838
21
-3.28466
0
LINE
8
BLACK
6
CONTINUOUS
10
4.12838
20
-3.28466
11
4.12772
21
-3.28411
0
LINE
8
BLACK
6
CONTINUOUS
10
4.12772
20
-3.28411
11
4.12769
21
-3.28395
0
LINE
8
BLACK
6
CONTINUOUS
10
4.12769
20
-3.28395
11
4.12758
21
-3.28382
0
LINE
8
BLACK
6
CONTINUOUS
10
4.12758
20
-3.28382
11
4.12752
21
-3.28297
0
LINE
8
BLACK
6
CONTINUOUS
10
4.12752
20
-3.28297
11
4.12737
21
-3.28212
0
LINE
8
BLACK
6
CONTINUOUS
10
4.12737
20
-3.28212
11
4.12746
21
-3.28198
0
LINE
8
BLACK
6
CONTINUOUS
10
4.12746
20
-3.28198
11
4.12745
21
-3.28181
0
LINE
8
BLACK
6
CONTINUOUS
10
4.12745
20
-3.28181
11
4.12795
21
-3.28112
0
LINE
8
BLACK
6
CONTINUOUS
10
4.12795
20
-3.28112
11
4.12838
21
-3.28037
0
LINE
8
BLACK
6
CONTINUOUS
10
4.12838
20
-3.28037
11
4.12854
21
-3.28032
0
LINE
8
BLACK
6
CONTINUOUS
10
4.12854
20
-3.28032
11
4.12864
21
-3.28018
0
LINE
8
BLACK
6
CONTINUOUS
10
4.12864
20
-3.28018
11
4.13402
21
-3.27659
0
LINE
8
BLACK
6
CONTINUOUS
10
4.13402
20
-3.27659
11
4.13723
21
-3.27339
0
LINE
8
BLACK
6
CONTINUOUS
10
4.13723
20
-3.27339
11
4.13889
21
-3.27007
0
LINE
8
BLACK
6
CONTINUOUS
10
4.13889
20
-3.27007
11
4.1395
21
-3.26924
0
LINE
8
BLACK
6
CONTINUOUS
10
4.1395
20
-3.26924
11
4.14135
21
-3.26844
0
LINE
8
BLACK
6
CONTINUOUS
10
4.14135
20
-3.26844
11
4.14329
21
-3.26902
0
LINE
8
BLACK
6
CONTINUOUS
10
4.17191
20
-3.23762
11
4.1726
21
-3.23952
0
LINE
8
BLACK
6
CONTINUOUS
10
4.1726
20
-3.23952
11
4.1726
21
-3.24327
0
LINE
8
BLACK
6
CONTINUOUS
10
4.1726
20
-3.24327
11
4.17245
21
-3.24414
0
LINE
8
BLACK
6
CONTINUOUS
10
4.17245
20
-3.24414
11
4.17245
21
-3.2442
0
LINE
8
BLACK
6
CONTINUOUS
10
4.17245
20
-3.2442
11
4.17058
21
-3.24982
0
LINE
8
BLACK
6
CONTINUOUS
10
4.17058
20
-3.24982
11
4.17009
21
-3.25073
0
LINE
8
BLACK
6
CONTINUOUS
10
4.17009
20
-3.25073
11
4.16994
21
-3.25082
0
LINE
8
BLACK
6
CONTINUOUS
10
4.16994
20
-3.25082
11
4.16986
21
-3.25098
0
LINE
8
BLACK
6
CONTINUOUS
10
4.16986
20
-3.25098
11
4.16611
21
-3.25473
0
LINE
8
BLACK
6
CONTINUOUS
10
4.16611
20
-3.25473
11
4.16527
21
-3.25532
0
LINE
8
BLACK
6
CONTINUOUS
10
4.16527
20
-3.25532
11
4.1651
21
-3.25533
0
LINE
8
BLACK
6
CONTINUOUS
10
4.1651
20
-3.25533
11
4.16496
21
-3.25544
0
LINE
8
BLACK
6
CONTINUOUS
10
4.16496
20
-3.25544
11
4.15934
21
-3.25732
0
LINE
8
BLACK
6
CONTINUOUS
10
4.15934
20
-3.25732
11
4.15846
21
-3.25745
0
LINE
8
BLACK
6
CONTINUOUS
10
4.15846
20
-3.25745
11
4.1584
21
-3.25747
0
LINE
8
BLACK
6
CONTINUOUS
10
4.1584
20
-3.25747
11
4.13028
21
-3.25747
0
LINE
8
BLACK
6
CONTINUOUS
10
4.13028
20
-3.25747
11
4.12927
21
-3.25729
0
LINE
8
BLACK
6
CONTINUOUS
10
4.12927
20
-3.25729
11
4.12772
21
-3.25599
0
LINE
8
BLACK
6
CONTINUOUS
10
4.12772
20
-3.25599
11
4.12737
21
-3.254
0
LINE
8
BLACK
6
CONTINUOUS
10
4.12737
20
-3.254
11
4.12838
21
-3.25225
0
LINE
8
BLACK
6
CONTINUOUS
10
4.12838
20
-3.25225
11
4.13028
21
-3.25156
0
LINE
8
BLACK
6
CONTINUOUS
10
4.13028
20
-3.25156
11
4.15792
21
-3.25156
0
LINE
8
BLACK
6
CONTINUOUS
10
4.15792
20
-3.25156
11
4.16243
21
-3.25006
0
LINE
8
BLACK
6
CONTINUOUS
10
4.16243
20
-3.25006
11
4.16519
21
-3.2473
0
LINE
8
BLACK
6
CONTINUOUS
10
4.16519
20
-3.2473
11
4.1667
21
-3.24279
0
LINE
8
BLACK
6
CONTINUOUS
10
4.1667
20
-3.24279
11
4.1667
21
-3.23952
0
LINE
8
BLACK
6
CONTINUOUS
10
4.1667
20
-3.23952
11
4.16688
21
-3.23851
0
LINE
8
BLACK
6
CONTINUOUS
10
4.16688
20
-3.23851
11
4.16817
21
-3.23696
0
LINE
8
BLACK
6
CONTINUOUS
10
4.16817
20
-3.23696
11
4.17016
21
-3.23661
0
LINE
8
BLACK
6
CONTINUOUS
10
4.17016
20
-3.23661
11
4.17191
21
-3.23762
0
LINE
8
BLACK
6
CONTINUOUS
10
4.5624
20
-2.99504
11
4.56379
21
-2.99562
0
LINE
8
BLACK
6
CONTINUOUS
10
4.56379
20
-2.99562
11
4.56437
21
-2.99701
0
LINE
8
BLACK
6
CONTINUOUS
10
4.56437
20
-2.99701
11
4.56437
21
-3.15646
0
LINE
8
BLACK
6
CONTINUOUS
10
4.56437
20
-3.15646
11
4.56379
21
-3.15785
0
LINE
8
BLACK
6
CONTINUOUS
10
4.56379
20
-3.15785
11
4.5624
21
-3.15843
0
LINE
8
BLACK
6
CONTINUOUS
10
4.5624
20
-3.15843
11
4.2376
21
-3.15843
0
LINE
8
BLACK
6
CONTINUOUS
10
4.2376
20
-3.15843
11
4.23621
21
-3.15785
0
LINE
8
BLACK
6
CONTINUOUS
10
4.23621
20
-3.15785
11
4.23563
21
-3.15646
0
LINE
8
BLACK
6
CONTINUOUS
10
4.23563
20
-3.15646
11
4.23563
21
-2.99701
0
LINE
8
BLACK
6
CONTINUOUS
10
4.23563
20
-2.99701
11
4.23621
21
-2.99562
0
LINE
8
BLACK
6
CONTINUOUS
10
4.23621
20
-2.99562
11
4.2376
21
-2.99504
0
LINE
8
BLACK
6
CONTINUOUS
10
4.2376
20
-2.99504
11
4.5624
21
-2.99504
0
LINE
8
BLACK
6
CONTINUOUS
10
4.49452
20
-2.99898
11
4.47543
21
-3.02598
0
LINE
8
BLACK
6
CONTINUOUS
10
4.47543
20
-3.02598
11
4.47514
21
-3.02617
0
LINE
8
BLACK
6
CONTINUOUS
10
4.47514
20
-3.02617
11
4.47496
21
-3.02645
0
LINE
8
BLACK
6
CONTINUOUS
10
4.47496
20
-3.02645
11
4.47452
21
-3.02655
0
LINE
8
BLACK
6
CONTINUOUS
10
4.47452
20
-3.02655
11
4.47415
21
-3.02679
0
LINE
8
BLACK
6
CONTINUOUS
10
4.47415
20
-3.02679
11
4.47382
21
-3.02671
0
LINE
8
BLACK
6
CONTINUOUS
10
4.47382
20
-3.02671
11
4.47349
21
-3.02679
0
LINE
8
BLACK
6
CONTINUOUS
10
4.47349
20
-3.02679
11
4.47311
21
-3.02655
0
LINE
8
BLACK
6
CONTINUOUS
10
4.47311
20
-3.02655
11
4.47268
21
-3.02645
0
LINE
8
BLACK
6
CONTINUOUS
10
4.47268
20
-3.02645
11
4.4725
21
-3.02617
0
LINE
8
BLACK
6
CONTINUOUS
10
4.4725
20
-3.02617
11
4.47221
21
-3.02598
0
LINE
8
BLACK
6
CONTINUOUS
10
4.47221
20
-3.02598
11
4.45311
21
-2.99898
0
LINE
8
BLACK
6
CONTINUOUS
10
4.45311
20
-2.99898
11
4.23957
21
-2.99898
0
LINE
8
BLACK
6
CONTINUOUS
10
4.23957
20
-2.99898
11
4.23957
21
-3.15449
0
LINE
8
BLACK
6
CONTINUOUS
10
4.23957
20
-3.15449
11
4.56043
21
-3.15449
0
LINE
8
BLACK
6
CONTINUOUS
10
4.56043
20
-3.15449
11
4.56043
21
-2.99898
0
LINE
8
BLACK
6
CONTINUOUS
10
4.56043
20
-2.99898
11
4.49452
21
-2.99898
0
LINE
8
BLACK
6
CONTINUOUS
10
4.45794
20
-2.99898
11
4.47382
21
-3.02144
0
LINE
8
BLACK
6
CONTINUOUS
10
4.47382
20
-3.02144
11
4.4897
21
-2.99898
0
LINE
8
BLACK
6
CONTINUOUS
10
4.4897
20
-2.99898
11
4.45794
21
-2.99898
0
LINE
8
BLACK
6
CONTINUOUS
10
4.39164
20
-2.52576
11
4.39177
21
-2.52587
0
LINE
8
BLACK
6
CONTINUOUS
10
4.39177
20
-2.52587
11
4.39195
21
-2.5259
0
LINE
8
BLACK
6
CONTINUOUS
10
4.39195
20
-2.5259
11
4.3957
21
-2.52777
0
LINE
8
BLACK
6
CONTINUOUS
10
4.3957
20
-2.52777
11
4.39641
21
-2.5283
0
LINE
8
BLACK
6
CONTINUOUS
10
4.39641
20
-2.5283
11
4.39646
21
-2.52832
0
LINE
8
BLACK
6
CONTINUOUS
10
4.39646
20
-2.52832
11
4.39834
21
-2.5302
0
LINE
8
BLACK
6
CONTINUOUS
10
4.39834
20
-2.5302
11
4.39893
21
-2.53104
0
LINE
8
BLACK
6
CONTINUOUS
10
4.39893
20
-2.53104
11
4.3991
21
-2.53305
0
LINE
8
BLACK
6
CONTINUOUS
10
4.3991
20
-2.53305
11
4.39794
21
-2.5347
0
LINE
8
BLACK
6
CONTINUOUS
10
4.39794
20
-2.5347
11
4.39599
21
-2.53523
0
LINE
8
BLACK
6
CONTINUOUS
10
4.39599
20
-2.53523
11
4.39416
21
-2.53437
0
LINE
8
BLACK
6
CONTINUOUS
10
4.39416
20
-2.53437
11
4.39263
21
-2.53284
0
LINE
8
BLACK
6
CONTINUOUS
10
4.39263
20
-2.53284
11
4.38993
21
-2.53149
0
LINE
8
BLACK
6
CONTINUOUS
10
4.38993
20
-2.53149
11
4.38195
21
-2.53149
0
LINE
8
BLACK
6
CONTINUOUS
10
4.38195
20
-2.53149
11
4.37925
21
-2.53284
0
LINE
8
BLACK
6
CONTINUOUS
10
4.37925
20
-2.53284
11
4.37805
21
-2.53403
0
LINE
8
BLACK
6
CONTINUOUS
10
4.37805
20
-2.53403
11
4.37671
21
-2.53673
0
LINE
8
BLACK
6
CONTINUOUS
10
4.37671
20
-2.53673
11
4.37671
21
-2.53931
0
LINE
8
BLACK
6
CONTINUOUS
10
4.37671
20
-2.53931
11
4.37821
21
-2.54381
0
LINE
8
BLACK
6
CONTINUOUS
10
4.37821
20
-2.54381
11
4.40021
21
-2.56582
0
LINE
8
BLACK
6
CONTINUOUS
10
4.40021
20
-2.56582
11
4.40058
21
-2.56635
0
LINE
8
BLACK
6
CONTINUOUS
10
4.40058
20
-2.56635
11
4.40068
21
-2.56643
0
LINE
8
BLACK
6
CONTINUOUS
10
4.40068
20
-2.56643
11
4.4007
21
-2.56651
0
LINE
8
BLACK
6
CONTINUOUS
10
4.4007
20
-2.56651
11
4.4008
21
-2.56666
0
LINE
8
BLACK
6
CONTINUOUS
10
4.4008
20
-2.56666
11
4.40088
21
-2.56754
0
LINE
8
BLACK
6
CONTINUOUS
10
4.40088
20
-2.56754
11
4.40103
21
-2.56842
0
LINE
8
BLACK
6
CONTINUOUS
10
4.40103
20
-2.56842
11
4.40097
21
-2.56854
0
LINE
8
BLACK
6
CONTINUOUS
10
4.40097
20
-2.56854
11
4.40098
21
-2.56867
0
LINE
8
BLACK
6
CONTINUOUS
10
4.40098
20
-2.56867
11
4.40047
21
-2.5694
0
LINE
8
BLACK
6
CONTINUOUS
10
4.40047
20
-2.5694
11
4.40002
21
-2.57017
0
LINE
8
BLACK
6
CONTINUOUS
10
4.40002
20
-2.57017
11
4.3999
21
-2.57021
0
LINE
8
BLACK
6
CONTINUOUS
10
4.3999
20
-2.57021
11
4.39982
21
-2.57033
0
LINE
8
BLACK
6
CONTINUOUS
10
4.39982
20
-2.57033
11
4.39896
21
-2.57056
0
LINE
8
BLACK
6
CONTINUOUS
10
4.39896
20
-2.57056
11
4.39813
21
-2.57086
0
LINE
8
BLACK
6
CONTINUOUS
10
4.39813
20
-2.57086
11
4.37375
21
-2.57086
0
LINE
8
BLACK
6
CONTINUOUS
10
4.37375
20
-2.57086
11
4.37274
21
-2.57068
0
LINE
8
BLACK
6
CONTINUOUS
10
4.37274
20
-2.57068
11
4.3712
21
-2.56938
0
LINE
8
BLACK
6
CONTINUOUS
10
4.3712
20
-2.56938
11
4.37085
21
-2.56739
0
LINE
8
BLACK
6
CONTINUOUS
10
4.37085
20
-2.56739
11
4.37186
21
-2.56564
0
LINE
8
BLACK
6
CONTINUOUS
10
4.37186
20
-2.56564
11
4.37375
21
-2.56495
0
LINE
8
BLACK
6
CONTINUOUS
10
4.37375
20
-2.56495
11
4.391
21
-2.56495
0
LINE
8
BLACK
6
CONTINUOUS
10
4.391
20
-2.56495
11
4.37354
21
-2.5475
0
LINE
8
BLACK
6
CONTINUOUS
10
4.37354
20
-2.5475
11
4.37295
21
-2.54666
0
LINE
8
BLACK
6
CONTINUOUS
10
4.37295
20
-2.54666
11
4.37294
21
-2.54648
0
LINE
8
BLACK
6
CONTINUOUS
10
4.37294
20
-2.54648
11
4.37283
21
-2.54634
0
LINE
8
BLACK
6
CONTINUOUS
10
4.37283
20
-2.54634
11
4.37095
21
-2.54072
0
LINE
8
BLACK
6
CONTINUOUS
10
4.37095
20
-2.54072
11
4.37082
21
-2.53985
0
LINE
8
BLACK
6
CONTINUOUS
10
4.37082
20
-2.53985
11
4.3708
21
-2.53978
0
LINE
8
BLACK
6
CONTINUOUS
10
4.3708
20
-2.53978
11
4.3708
21
-2.53604
0
LINE
8
BLACK
6
CONTINUOUS
10
4.3708
20
-2.53604
11
4.37098
21
-2.53503
0
LINE
8
BLACK
6
CONTINUOUS
10
4.37098
20
-2.53503
11
4.37109
21
-2.53489
0
LINE
8
BLACK
6
CONTINUOUS
10
4.37109
20
-2.53489
11
4.37111
21
-2.53471
0
LINE
8
BLACK
6
CONTINUOUS
10
4.37111
20
-2.53471
11
4.37299
21
-2.53097
0
LINE
8
BLACK
6
CONTINUOUS
10
4.37299
20
-2.53097
11
4.37351
21
-2.53026
0
LINE
8
BLACK
6
CONTINUOUS
10
4.37351
20
-2.53026
11
4.37354
21
-2.5302
0
LINE
8
BLACK
6
CONTINUOUS
10
4.37354
20
-2.5302
11
4.37541
21
-2.52832
0
LINE
8
BLACK
6
CONTINUOUS
10
4.37541
20
-2.52832
11
4.37614
21
-2.52782
0
LINE
8
BLACK
6
CONTINUOUS
10
4.37614
20
-2.52782
11
4.37618
21
-2.52777
0
LINE
8
BLACK
6
CONTINUOUS
10
4.37618
20
-2.52777
11
4.37993
21
-2.5259
0
LINE
8
BLACK
6
CONTINUOUS
10
4.37993
20
-2.5259
11
4.38091
21
-2.5256
0
LINE
8
BLACK
6
CONTINUOUS
10
4.38091
20
-2.5256
11
4.38109
21
-2.52564
0
LINE
8
BLACK
6
CONTINUOUS
10
4.38109
20
-2.52564
11
4.38125
21
-2.52558
0
LINE
8
BLACK
6
CONTINUOUS
10
4.38125
20
-2.52558
11
4.39063
21
-2.52558
0
LINE
8
BLACK
6
CONTINUOUS
10
4.39063
20
-2.52558
11
4.39164
21
-2.52576
0
LINE
8
BLACK
6
CONTINUOUS
10
4.41539
20
-2.52664
11
4.41608
21
-2.52854
0
LINE
8
BLACK
6
CONTINUOUS
10
4.41608
20
-2.52854
11
4.41608
21
-2.55618
0
LINE
8
BLACK
6
CONTINUOUS
10
4.41608
20
-2.55618
11
4.41758
21
-2.56069
0
LINE
8
BLACK
6
CONTINUOUS
10
4.41758
20
-2.56069
11
4.42034
21
-2.56345
0
LINE
8
BLACK
6
CONTINUOUS
10
4.42034
20
-2.56345
11
4.42485
21
-2.56495
0
LINE
8
BLACK
6
CONTINUOUS
10
4.42485
20
-2.56495
11
4.42812
21
-2.56495
0
LINE
8
BLACK
6
CONTINUOUS
10
4.42812
20
-2.56495
11
4.42913
21
-2.56513
0
LINE
8
BLACK
6
CONTINUOUS
10
4.42913
20
-2.56513
11
4.43068
21
-2.56643
0
LINE
8
BLACK
6
CONTINUOUS
10
4.43068
20
-2.56643
11
4.43103
21
-2.56842
0
LINE
8
BLACK
6
CONTINUOUS
10
4.43103
20
-2.56842
11
4.43002
21
-2.57017
0
LINE
8
BLACK
6
CONTINUOUS
10
4.43002
20
-2.57017
11
4.42812
21
-2.57086
0
LINE
8
BLACK
6
CONTINUOUS
10
4.42812
20
-2.57086
11
4.42437
21
-2.57086
0
LINE
8
BLACK
6
CONTINUOUS
10
4.42437
20
-2.57086
11
4.4235
21
-2.57071
0
LINE
8
BLACK
6
CONTINUOUS
10
4.4235
20
-2.57071
11
4.42344
21
-2.57071
0
LINE
8
BLACK
6
CONTINUOUS
10
4.42344
20
-2.57071
11
4.41781
21
-2.56883
0
LINE
8
BLACK
6
CONTINUOUS
10
4.41781
20
-2.56883
11
4.41691
21
-2.56834
0
LINE
8
BLACK
6
CONTINUOUS
10
4.41691
20
-2.56834
11
4.41682
21
-2.56819
0
LINE
8
BLACK
6
CONTINUOUS
10
4.41682
20
-2.56819
11
4.41666
21
-2.56812
0
LINE
8
BLACK
6
CONTINUOUS
10
4.41666
20
-2.56812
11
4.41291
21
-2.56437
0
LINE
8
BLACK
6
CONTINUOUS
10
4.41291
20
-2.56437
11
4.41232
21
-2.56353
0
LINE
8
BLACK
6
CONTINUOUS
10
4.41232
20
-2.56353
11
4.41231
21
-2.56335
0
LINE
8
BLACK
6
CONTINUOUS
10
4.41231
20
-2.56335
11
4.4122
21
-2.56322
0
LINE
8
BLACK
6
CONTINUOUS
10
4.4122
20
-2.56322
11
4.41032
21
-2.55759
0
LINE
8
BLACK
6
CONTINUOUS
10
4.41032
20
-2.55759
11
4.41019
21
-2.55672
0
LINE
8
BLACK
6
CONTINUOUS
10
4.41019
20
-2.55672
11
4.41017
21
-2.55666
0
LINE
8
BLACK
6
CONTINUOUS
10
4.41017
20
-2.55666
11
4.41017
21
-2.52854
0
LINE
8
BLACK
6
CONTINUOUS
10
4.41017
20
-2.52854
11
4.41035
21
-2.52753
0
LINE
8
BLACK
6
CONTINUOUS
10
4.41035
20
-2.52753
11
4.41165
21
-2.52598
0
LINE
8
BLACK
6
CONTINUOUS
10
4.41165
20
-2.52598
11
4.41364
21
-2.52563
0
LINE
8
BLACK
6
CONTINUOUS
10
4.41364
20
-2.52563
11
4.41539
21
-2.52664
0
LINE
8
BLACK
6
CONTINUOUS
10
4.5624
20
-2.45157
11
4.56379
21
-2.45215
0
LINE
8
BLACK
6
CONTINUOUS
10
4.56379
20
-2.45215
11
4.56437
21
-2.45354
0
LINE
8
BLACK
6
CONTINUOUS
10
4.56437
20
-2.45354
11
4.56437
21
-2.61299
0
LINE
8
BLACK
6
CONTINUOUS
10
4.56437
20
-2.61299
11
4.56379
21
-2.61438
0
LINE
8
BLACK
6
CONTINUOUS
10
4.56379
20
-2.61438
11
4.5624
21
-2.61496
0
LINE
8
BLACK
6
CONTINUOUS
10
4.5624
20
-2.61496
11
4.2376
21
-2.61496
0
LINE
8
BLACK
6
CONTINUOUS
10
4.2376
20
-2.61496
11
4.23621
21
-2.61438
0
LINE
8
BLACK
6
CONTINUOUS
10
4.23621
20
-2.61438
11
4.23563
21
-2.61299
0
LINE
8
BLACK
6
CONTINUOUS
10
4.23563
20
-2.61299
11
4.23563
21
-2.45354
0
LINE
8
BLACK
6
CONTINUOUS
10
4.23563
20
-2.45354
11
4.23621
21
-2.45215
0
LINE
8
BLACK
6
CONTINUOUS
10
4.23621
20
-2.45215
11
4.2376
21
-2.45157
0
LINE
8
BLACK
6
CONTINUOUS
10
4.2376
20
-2.45157
11
4.5624
21
-2.45157
0
LINE
8
BLACK
6
CONTINUOUS
10
4.23957
20
-2.45551
11
4.23957
21
-2.61102
0
LINE
8
BLACK
6
CONTINUOUS
10
4.23957
20
-2.61102
11
4.30548
21
-2.61102
0
LINE
8
BLACK
6
CONTINUOUS
10
4.30548
20
-2.61102
11
4.32457
21
-2.58402
0
LINE
8
BLACK
6
CONTINUOUS
10
4.32457
20
-2.58402
11
4.32486
21
-2.58383
0
LINE
8
BLACK
6
CONTINUOUS
10
4.32486
20
-2.58383
11
4.32504
21
-2.58355
0
LINE
8
BLACK
6
CONTINUOUS
10
4.32504
20
-2.58355
11
4.32547
21
-2.58345
0
LINE
8
BLACK
6
CONTINUOUS
10
4.32547
20
-2.58345
11
4.32585
21
-2.58321
0
LINE
8
BLACK
6
CONTINUOUS
10
4.32585
20
-2.58321
11
4.32618
21
-2.58329
0
LINE
8
BLACK
6
CONTINUOUS
10
4.32618
20
-2.58329
11
4.32651
21
-2.58321
0
LINE
8
BLACK
6
CONTINUOUS
10
4.32651
20
-2.58321
11
4.32689
21
-2.58345
0
LINE
8
BLACK
6
CONTINUOUS
10
4.32689
20
-2.58345
11
4.32732
21
-2.58355
0
LINE
8
BLACK
6
CONTINUOUS
10
4.32732
20
-2.58355
11
4.3275
21
-2.58383
0
LINE
8
BLACK
6
CONTINUOUS
10
4.3275
20
-2.58383
11
4.32779
21
-2.58402
0
LINE
8
BLACK
6
CONTINUOUS
10
4.32779
20
-2.58402
11
4.34689
21
-2.61102
0
LINE
8
BLACK
6
CONTINUOUS
10
4.34689
20
-2.61102
11
4.56043
21
-2.61102
0
LINE
8
BLACK
6
CONTINUOUS
10
4.56043
20
-2.61102
11
4.56043
21
-2.45551
0
LINE
8
BLACK
6
CONTINUOUS
10
4.56043
20
-2.45551
11
4.23957
21
-2.45551
0
LINE
8
BLACK
6
CONTINUOUS
10
4.3103
20
-2.61102
11
4.34206
21
-2.61102
0
LINE
8
BLACK
6
CONTINUOUS
10
4.34206
20
-2.61102
11
4.32618
21
-2.58856
0
LINE
8
BLACK
6
CONTINUOUS
10
4.32618
20
-2.58856
11
4.3103
21
-2.61102
  0
ENDSEC
  0
EOF
