  0
SECTION
  2
HEADER
  9
$ANGBASE
  50
0.0
  9
$ANGDIR
  70
1
  9
$MEASUREMENT
  70
0
  0
ENDSEC
  0
SECTION
  2
TABLES
  0
TABLE
  2
LTYPE
  70
4
  0
LTYPE
  5
40F
  2
CONTINUOUS
  70
0
  3
Solid line
  72
65
  73
0
  40
0.0
  0
LTYPE
  5
410
  2
DASHDOT
 70
0
  3
Dash Dot ____ _ ____ _
 72
65
 73
4
 40
2.0
 49
1.25
 49
-0.25
 49
0.25
 49
-0.25
  0
LTYPE
  5
411
  2
DASHED
 70
0
  3
Dashed __ __ __ __ __
 72
65
 73
2
 40
0.75
 49
0.5
 49
-0.25
  0
LTYPE
  5
43B
  2
DOTTED
 70
0
  3
Dotted .  .  .  .
 72
65
 73
2
 40
0.2
 49
0.0
 49
-0.2
  0
ENDTAB
  0
TABLE
  2
STYLE
  70
4
  0
STYLE
  2
KICAD
  70
0
  40
0
  41
1
  42
1
  50
0
  71
0
  3
isocp.shx
  0
STYLE
  2
KICADB
  70
0
  40
0
  41
1
  42
1
  50
0
  71
0
  3
isocp.shx
  0
STYLE
  2
KICADI
  70
0
  40
0
  41
1
  42
1
  50
15
  71
0
  3
isocp.shx
  0
STYLE
  2
KICADBI
  70
0
  40
0
  41
1
  42
1
  50
15
  71
0
  3
isocp.shx
  0
ENDTAB
  0
TABLE
  2
LAYER
  70
1
  0
LAYER
  2
BLACK
  70
0
  62
7
  6
CONTINUOUS
  0
ENDTAB
  0
ENDSEC
  0
SECTION
  2
ENTITIES
0
LINE
8
BLACK
6
CONTINUOUS
10
4.57455
20
-2.85119
11
4.57774
21
-2.85332
0
LINE
8
BLACK
6
CONTINUOUS
10
4.57774
20
-2.85332
11
4.57987
21
-2.85652
0
LINE
8
BLACK
6
CONTINUOUS
10
4.57987
20
-2.85652
11
4.58062
21
-2.86028
0
LINE
8
BLACK
6
CONTINUOUS
10
4.58062
20
-2.86028
11
4.58062
21
-2.89572
0
LINE
8
BLACK
6
CONTINUOUS
10
4.58062
20
-2.89572
11
4.57987
21
-2.89948
0
LINE
8
BLACK
6
CONTINUOUS
10
4.57987
20
-2.89948
11
4.57774
21
-2.90268
0
LINE
8
BLACK
6
CONTINUOUS
10
4.57774
20
-2.90268
11
4.57455
21
-2.90481
0
LINE
8
BLACK
6
CONTINUOUS
10
4.57455
20
-2.90481
11
4.57078
21
-2.90556
0
LINE
8
BLACK
6
CONTINUOUS
10
4.57078
20
-2.90556
11
4.54322
21
-2.90556
0
LINE
8
BLACK
6
CONTINUOUS
10
4.54322
20
-2.90556
11
4.53945
21
-2.90481
0
LINE
8
BLACK
6
CONTINUOUS
10
4.53945
20
-2.90481
11
4.53626
21
-2.90268
0
LINE
8
BLACK
6
CONTINUOUS
10
4.53626
20
-2.90268
11
4.53413
21
-2.89948
0
LINE
8
BLACK
6
CONTINUOUS
10
4.53413
20
-2.89948
11
4.53338
21
-2.89572
0
LINE
8
BLACK
6
CONTINUOUS
10
4.53338
20
-2.89572
11
4.53338
21
-2.86028
0
LINE
8
BLACK
6
CONTINUOUS
10
4.53338
20
-2.86028
11
4.53413
21
-2.85652
0
LINE
8
BLACK
6
CONTINUOUS
10
4.53413
20
-2.85652
11
4.53626
21
-2.85332
0
LINE
8
BLACK
6
CONTINUOUS
10
4.53626
20
-2.85332
11
4.53945
21
-2.85119
0
LINE
8
BLACK
6
CONTINUOUS
10
4.53945
20
-2.85119
11
4.54322
21
-2.85044
0
LINE
8
BLACK
6
CONTINUOUS
10
4.54322
20
-2.85044
11
4.57078
21
-2.85044
0
LINE
8
BLACK
6
CONTINUOUS
10
4.57078
20
-2.85044
11
4.57455
21
-2.85119
0
LINE
8
BLACK
6
CONTINUOUS
10
4.65329
20
-2.85119
11
4.65648
21
-2.85332
0
LINE
8
BLACK
6
CONTINUOUS
10
4.65648
20
-2.85332
11
4.65861
21
-2.85652
0
LINE
8
BLACK
6
CONTINUOUS
10
4.65861
20
-2.85652
11
4.65936
21
-2.86028
0
LINE
8
BLACK
6
CONTINUOUS
10
4.65936
20
-2.86028
11
4.65936
21
-2.89572
0
LINE
8
BLACK
6
CONTINUOUS
10
4.65936
20
-2.89572
11
4.65861
21
-2.89948
0
LINE
8
BLACK
6
CONTINUOUS
10
4.65861
20
-2.89948
11
4.65648
21
-2.90268
0
LINE
8
BLACK
6
CONTINUOUS
10
4.65648
20
-2.90268
11
4.65329
21
-2.90481
0
LINE
8
BLACK
6
CONTINUOUS
10
4.65329
20
-2.90481
11
4.64952
21
-2.90556
0
LINE
8
BLACK
6
CONTINUOUS
10
4.64952
20
-2.90556
11
4.62196
21
-2.90556
0
LINE
8
BLACK
6
CONTINUOUS
10
4.62196
20
-2.90556
11
4.61819
21
-2.90481
0
LINE
8
BLACK
6
CONTINUOUS
10
4.61819
20
-2.90481
11
4.615
21
-2.90268
0
LINE
8
BLACK
6
CONTINUOUS
10
4.615
20
-2.90268
11
4.61287
21
-2.89948
0
LINE
8
BLACK
6
CONTINUOUS
10
4.61287
20
-2.89948
11
4.61212
21
-2.89572
0
LINE
8
BLACK
6
CONTINUOUS
10
4.61212
20
-2.89572
11
4.61212
21
-2.86028
0
LINE
8
BLACK
6
CONTINUOUS
10
4.61212
20
-2.86028
11
4.61287
21
-2.85652
0
LINE
8
BLACK
6
CONTINUOUS
10
4.61287
20
-2.85652
11
4.615
21
-2.85332
0
LINE
8
BLACK
6
CONTINUOUS
10
4.615
20
-2.85332
11
4.61819
21
-2.85119
0
LINE
8
BLACK
6
CONTINUOUS
10
4.61819
20
-2.85119
11
4.62196
21
-2.85044
0
LINE
8
BLACK
6
CONTINUOUS
10
4.62196
20
-2.85044
11
4.64952
21
-2.85044
0
LINE
8
BLACK
6
CONTINUOUS
10
4.64952
20
-2.85044
11
4.65329
21
-2.85119
0
LINE
8
BLACK
6
CONTINUOUS
10
4.4315
20
-2.84724
11
4.3685
21
-2.84724
0
LINE
8
BLACK
6
CONTINUOUS
10
4.3685
20
-2.84724
11
4.3685
21
-2.75276
0
LINE
8
BLACK
6
CONTINUOUS
10
4.3685
20
-2.75276
11
4.4315
21
-2.75276
0
LINE
8
BLACK
6
CONTINUOUS
10
4.4315
20
-2.75276
11
4.4315
21
-2.84724
0
LINE
8
BLACK
6
CONTINUOUS
10
4.35571
20
-2.84528
11
4.32618
21
-2.84528
0
LINE
8
BLACK
6
CONTINUOUS
10
4.32618
20
-2.84528
11
4.32618
21
-2.8315
0
LINE
8
BLACK
6
CONTINUOUS
10
4.32618
20
-2.8315
11
4.35571
21
-2.8315
0
LINE
8
BLACK
6
CONTINUOUS
10
4.35571
20
-2.8315
11
4.35571
21
-2.84528
0
LINE
8
BLACK
6
CONTINUOUS
10
4.47382
20
-2.84528
11
4.44429
21
-2.84528
0
LINE
8
BLACK
6
CONTINUOUS
10
4.44429
20
-2.84528
11
4.44429
21
-2.8315
0
LINE
8
BLACK
6
CONTINUOUS
10
4.44429
20
-2.8315
11
4.47382
21
-2.8315
0
LINE
8
BLACK
6
CONTINUOUS
10
4.47382
20
-2.8315
11
4.47382
21
-2.84528
0
LINE
8
BLACK
6
CONTINUOUS
10
4.57518
20
-2.77319
11
4.57837
21
-2.77532
0
LINE
8
BLACK
6
CONTINUOUS
10
4.57837
20
-2.77532
11
4.5805
21
-2.77852
0
LINE
8
BLACK
6
CONTINUOUS
10
4.5805
20
-2.77852
11
4.58125
21
-2.78228
0
LINE
8
BLACK
6
CONTINUOUS
10
4.58125
20
-2.78228
11
4.58125
21
-2.81772
0
LINE
8
BLACK
6
CONTINUOUS
10
4.58125
20
-2.81772
11
4.5805
21
-2.82148
0
LINE
8
BLACK
6
CONTINUOUS
10
4.5805
20
-2.82148
11
4.57837
21
-2.82468
0
LINE
8
BLACK
6
CONTINUOUS
10
4.57837
20
-2.82468
11
4.57518
21
-2.82681
0
LINE
8
BLACK
6
CONTINUOUS
10
4.57518
20
-2.82681
11
4.57141
21
-2.82756
0
LINE
8
BLACK
6
CONTINUOUS
10
4.57141
20
-2.82756
11
4.54385
21
-2.82756
0
LINE
8
BLACK
6
CONTINUOUS
10
4.54385
20
-2.82756
11
4.54008
21
-2.82681
0
LINE
8
BLACK
6
CONTINUOUS
10
4.54008
20
-2.82681
11
4.53689
21
-2.82468
0
LINE
8
BLACK
6
CONTINUOUS
10
4.53689
20
-2.82468
11
4.53476
21
-2.82148
0
LINE
8
BLACK
6
CONTINUOUS
10
4.53476
20
-2.82148
11
4.53401
21
-2.81772
0
LINE
8
BLACK
6
CONTINUOUS
10
4.53401
20
-2.81772
11
4.53401
21
-2.78228
0
LINE
8
BLACK
6
CONTINUOUS
10
4.53401
20
-2.78228
11
4.53476
21
-2.77852
0
LINE
8
BLACK
6
CONTINUOUS
10
4.53476
20
-2.77852
11
4.53689
21
-2.77532
0
LINE
8
BLACK
6
CONTINUOUS
10
4.53689
20
-2.77532
11
4.54008
21
-2.77319
0
LINE
8
BLACK
6
CONTINUOUS
10
4.54008
20
-2.77319
11
4.54385
21
-2.77244
0
LINE
8
BLACK
6
CONTINUOUS
10
4.54385
20
-2.77244
11
4.57141
21
-2.77244
0
LINE
8
BLACK
6
CONTINUOUS
10
4.57141
20
-2.77244
11
4.57518
21
-2.77319
0
LINE
8
BLACK
6
CONTINUOUS
10
4.65392
20
-2.77319
11
4.65711
21
-2.77532
0
LINE
8
BLACK
6
CONTINUOUS
10
4.65711
20
-2.77532
11
4.65924
21
-2.77852
0
LINE
8
BLACK
6
CONTINUOUS
10
4.65924
20
-2.77852
11
4.65999
21
-2.78228
0
LINE
8
BLACK
6
CONTINUOUS
10
4.65999
20
-2.78228
11
4.65999
21
-2.81772
0
LINE
8
BLACK
6
CONTINUOUS
10
4.65999
20
-2.81772
11
4.65924
21
-2.82148
0
LINE
8
BLACK
6
CONTINUOUS
10
4.65924
20
-2.82148
11
4.65711
21
-2.82468
0
LINE
8
BLACK
6
CONTINUOUS
10
4.65711
20
-2.82468
11
4.65392
21
-2.82681
0
LINE
8
BLACK
6
CONTINUOUS
10
4.65392
20
-2.82681
11
4.65015
21
-2.82756
0
LINE
8
BLACK
6
CONTINUOUS
10
4.65015
20
-2.82756
11
4.62259
21
-2.82756
0
LINE
8
BLACK
6
CONTINUOUS
10
4.62259
20
-2.82756
11
4.61882
21
-2.82681
0
LINE
8
BLACK
6
CONTINUOUS
10
4.61882
20
-2.82681
11
4.61563
21
-2.82468
0
LINE
8
BLACK
6
CONTINUOUS
10
4.61563
20
-2.82468
11
4.6135
21
-2.82148
0
LINE
8
BLACK
6
CONTINUOUS
10
4.6135
20
-2.82148
11
4.61275
21
-2.81772
0
LINE
8
BLACK
6
CONTINUOUS
10
4.61275
20
-2.81772
11
4.61275
21
-2.78228
0
LINE
8
BLACK
6
CONTINUOUS
10
4.61275
20
-2.78228
11
4.6135
21
-2.77852
0
LINE
8
BLACK
6
CONTINUOUS
10
4.6135
20
-2.77852
11
4.61563
21
-2.77532
0
LINE
8
BLACK
6
CONTINUOUS
10
4.61563
20
-2.77532
11
4.61882
21
-2.77319
0
LINE
8
BLACK
6
CONTINUOUS
10
4.61882
20
-2.77319
11
4.62259
21
-2.77244
0
LINE
8
BLACK
6
CONTINUOUS
10
4.62259
20
-2.77244
11
4.65015
21
-2.77244
0
LINE
8
BLACK
6
CONTINUOUS
10
4.65015
20
-2.77244
11
4.65392
21
-2.77319
0
LINE
8
BLACK
6
CONTINUOUS
10
4.35571
20
-2.81969
11
4.32618
21
-2.81969
0
LINE
8
BLACK
6
CONTINUOUS
10
4.32618
20
-2.81969
11
4.32618
21
-2.80591
0
LINE
8
BLACK
6
CONTINUOUS
10
4.32618
20
-2.80591
11
4.35571
21
-2.80591
0
LINE
8
BLACK
6
CONTINUOUS
10
4.35571
20
-2.80591
11
4.35571
21
-2.81969
0
LINE
8
BLACK
6
CONTINUOUS
10
4.47382
20
-2.81969
11
4.44429
21
-2.81969
0
LINE
8
BLACK
6
CONTINUOUS
10
4.44429
20
-2.81969
11
4.44429
21
-2.80591
0
LINE
8
BLACK
6
CONTINUOUS
10
4.44429
20
-2.80591
11
4.47382
21
-2.80591
0
LINE
8
BLACK
6
CONTINUOUS
10
4.47382
20
-2.80591
11
4.47382
21
-2.81969
0
LINE
8
BLACK
6
CONTINUOUS
10
4.35571
20
-2.79409
11
4.32618
21
-2.79409
0
LINE
8
BLACK
6
CONTINUOUS
10
4.32618
20
-2.79409
11
4.32618
21
-2.78031
0
LINE
8
BLACK
6
CONTINUOUS
10
4.32618
20
-2.78031
11
4.35571
21
-2.78031
0
LINE
8
BLACK
6
CONTINUOUS
10
4.35571
20
-2.78031
11
4.35571
21
-2.79409
0
LINE
8
BLACK
6
CONTINUOUS
10
4.47382
20
-2.79409
11
4.44429
21
-2.79409
0
LINE
8
BLACK
6
CONTINUOUS
10
4.44429
20
-2.79409
11
4.44429
21
-2.78031
0
LINE
8
BLACK
6
CONTINUOUS
10
4.44429
20
-2.78031
11
4.47382
21
-2.78031
0
LINE
8
BLACK
6
CONTINUOUS
10
4.47382
20
-2.78031
11
4.47382
21
-2.79409
0
LINE
8
BLACK
6
CONTINUOUS
10
4.35571
20
-2.7685
11
4.32618
21
-2.7685
0
LINE
8
BLACK
6
CONTINUOUS
10
4.32618
20
-2.7685
11
4.32618
21
-2.75472
0
LINE
8
BLACK
6
CONTINUOUS
10
4.32618
20
-2.75472
11
4.35571
21
-2.75472
0
LINE
8
BLACK
6
CONTINUOUS
10
4.35571
20
-2.75472
11
4.35571
21
-2.7685
0
LINE
8
BLACK
6
CONTINUOUS
10
4.47382
20
-2.7685
11
4.44429
21
-2.7685
0
LINE
8
BLACK
6
CONTINUOUS
10
4.44429
20
-2.7685
11
4.44429
21
-2.75472
0
LINE
8
BLACK
6
CONTINUOUS
10
4.44429
20
-2.75472
11
4.47382
21
-2.75472
0
LINE
8
BLACK
6
CONTINUOUS
10
4.47382
20
-2.75472
11
4.47382
21
-2.7685
0
LINE
8
BLACK
6
CONTINUOUS
10
4.57518
20
-2.69519
11
4.57837
21
-2.69732
0
LINE
8
BLACK
6
CONTINUOUS
10
4.57837
20
-2.69732
11
4.5805
21
-2.70052
0
LINE
8
BLACK
6
CONTINUOUS
10
4.5805
20
-2.70052
11
4.58125
21
-2.70428
0
LINE
8
BLACK
6
CONTINUOUS
10
4.58125
20
-2.70428
11
4.58125
21
-2.73972
0
LINE
8
BLACK
6
CONTINUOUS
10
4.58125
20
-2.73972
11
4.5805
21
-2.74348
0
LINE
8
BLACK
6
CONTINUOUS
10
4.5805
20
-2.74348
11
4.57837
21
-2.74668
0
LINE
8
BLACK
6
CONTINUOUS
10
4.57837
20
-2.74668
11
4.57518
21
-2.74881
0
LINE
8
BLACK
6
CONTINUOUS
10
4.57518
20
-2.74881
11
4.57141
21
-2.74956
0
LINE
8
BLACK
6
CONTINUOUS
10
4.57141
20
-2.74956
11
4.54385
21
-2.74956
0
LINE
8
BLACK
6
CONTINUOUS
10
4.54385
20
-2.74956
11
4.54008
21
-2.74881
0
LINE
8
BLACK
6
CONTINUOUS
10
4.54008
20
-2.74881
11
4.53689
21
-2.74668
0
LINE
8
BLACK
6
CONTINUOUS
10
4.53689
20
-2.74668
11
4.53476
21
-2.74348
0
LINE
8
BLACK
6
CONTINUOUS
10
4.53476
20
-2.74348
11
4.53401
21
-2.73972
0
LINE
8
BLACK
6
CONTINUOUS
10
4.53401
20
-2.73972
11
4.53401
21
-2.70428
0
LINE
8
BLACK
6
CONTINUOUS
10
4.53401
20
-2.70428
11
4.53476
21
-2.70052
0
LINE
8
BLACK
6
CONTINUOUS
10
4.53476
20
-2.70052
11
4.53689
21
-2.69732
0
LINE
8
BLACK
6
CONTINUOUS
10
4.53689
20
-2.69732
11
4.54008
21
-2.69519
0
LINE
8
BLACK
6
CONTINUOUS
10
4.54008
20
-2.69519
11
4.54385
21
-2.69444
0
LINE
8
BLACK
6
CONTINUOUS
10
4.54385
20
-2.69444
11
4.57141
21
-2.69444
0
LINE
8
BLACK
6
CONTINUOUS
10
4.57141
20
-2.69444
11
4.57518
21
-2.69519
0
LINE
8
BLACK
6
CONTINUOUS
10
4.65392
20
-2.69519
11
4.65711
21
-2.69732
0
LINE
8
BLACK
6
CONTINUOUS
10
4.65711
20
-2.69732
11
4.65924
21
-2.70052
0
LINE
8
BLACK
6
CONTINUOUS
10
4.65924
20
-2.70052
11
4.65999
21
-2.70428
0
LINE
8
BLACK
6
CONTINUOUS
10
4.65999
20
-2.70428
11
4.65999
21
-2.73972
0
LINE
8
BLACK
6
CONTINUOUS
10
4.65999
20
-2.73972
11
4.65924
21
-2.74348
0
LINE
8
BLACK
6
CONTINUOUS
10
4.65924
20
-2.74348
11
4.65711
21
-2.74668
0
LINE
8
BLACK
6
CONTINUOUS
10
4.65711
20
-2.74668
11
4.65392
21
-2.74881
0
LINE
8
BLACK
6
CONTINUOUS
10
4.65392
20
-2.74881
11
4.65015
21
-2.74956
0
LINE
8
BLACK
6
CONTINUOUS
10
4.65015
20
-2.74956
11
4.62259
21
-2.74956
0
LINE
8
BLACK
6
CONTINUOUS
10
4.62259
20
-2.74956
11
4.61882
21
-2.74881
0
LINE
8
BLACK
6
CONTINUOUS
10
4.61882
20
-2.74881
11
4.61563
21
-2.74668
0
LINE
8
BLACK
6
CONTINUOUS
10
4.61563
20
-2.74668
11
4.6135
21
-2.74348
0
LINE
8
BLACK
6
CONTINUOUS
10
4.6135
20
-2.74348
11
4.61275
21
-2.73972
0
LINE
8
BLACK
6
CONTINUOUS
10
4.61275
20
-2.73972
11
4.61275
21
-2.70428
0
LINE
8
BLACK
6
CONTINUOUS
10
4.61275
20
-2.70428
11
4.6135
21
-2.70052
0
LINE
8
BLACK
6
CONTINUOUS
10
4.6135
20
-2.70052
11
4.61563
21
-2.69732
0
LINE
8
BLACK
6
CONTINUOUS
10
4.61563
20
-2.69732
11
4.61882
21
-2.69519
0
LINE
8
BLACK
6
CONTINUOUS
10
4.61882
20
-2.69519
11
4.62259
21
-2.69444
0
LINE
8
BLACK
6
CONTINUOUS
10
4.62259
20
-2.69444
11
4.65015
21
-2.69444
0
LINE
8
BLACK
6
CONTINUOUS
10
4.65015
20
-2.69444
11
4.65392
21
-2.69519
0
LINE
8
BLACK
6
CONTINUOUS
10
4.22147
20
-2.67631
11
4.22466
21
-2.67845
0
LINE
8
BLACK
6
CONTINUOUS
10
4.22466
20
-2.67845
11
4.22679
21
-2.68164
0
LINE
8
BLACK
6
CONTINUOUS
10
4.22679
20
-2.68164
11
4.22754
21
-2.68541
0
LINE
8
BLACK
6
CONTINUOUS
10
4.22754
20
-2.68541
11
4.22754
21
-2.71198
0
LINE
8
BLACK
6
CONTINUOUS
10
4.22754
20
-2.71198
11
4.22679
21
-2.71575
0
LINE
8
BLACK
6
CONTINUOUS
10
4.22679
20
-2.71575
11
4.22466
21
-2.71894
0
LINE
8
BLACK
6
CONTINUOUS
10
4.22466
20
-2.71894
11
4.22147
21
-2.72107
0
LINE
8
BLACK
6
CONTINUOUS
10
4.22147
20
-2.72107
11
4.2177
21
-2.72182
0
LINE
8
BLACK
6
CONTINUOUS
10
4.2177
20
-2.72182
11
4.1803
21
-2.72182
0
LINE
8
BLACK
6
CONTINUOUS
10
4.1803
20
-2.72182
11
4.17653
21
-2.72107
0
LINE
8
BLACK
6
CONTINUOUS
10
4.17653
20
-2.72107
11
4.17334
21
-2.71894
0
LINE
8
BLACK
6
CONTINUOUS
10
4.17334
20
-2.71894
11
4.17121
21
-2.71575
0
LINE
8
BLACK
6
CONTINUOUS
10
4.17121
20
-2.71575
11
4.17046
21
-2.71198
0
LINE
8
BLACK
6
CONTINUOUS
10
4.17046
20
-2.71198
11
4.17046
21
-2.68541
0
LINE
8
BLACK
6
CONTINUOUS
10
4.17046
20
-2.68541
11
4.17121
21
-2.68164
0
LINE
8
BLACK
6
CONTINUOUS
10
4.17121
20
-2.68164
11
4.17334
21
-2.67845
0
LINE
8
BLACK
6
CONTINUOUS
10
4.17334
20
-2.67845
11
4.17653
21
-2.67631
0
LINE
8
BLACK
6
CONTINUOUS
10
4.17653
20
-2.67631
11
4.1803
21
-2.67556
0
LINE
8
BLACK
6
CONTINUOUS
10
4.1803
20
-2.67556
11
4.2177
21
-2.67556
0
LINE
8
BLACK
6
CONTINUOUS
10
4.2177
20
-2.67556
11
4.22147
21
-2.67631
0
LINE
8
BLACK
6
CONTINUOUS
10
4.22147
20
-2.59462
11
4.22466
21
-2.59675
0
LINE
8
BLACK
6
CONTINUOUS
10
4.22466
20
-2.59675
11
4.22679
21
-2.59995
0
LINE
8
BLACK
6
CONTINUOUS
10
4.22679
20
-2.59995
11
4.22754
21
-2.60371
0
LINE
8
BLACK
6
CONTINUOUS
10
4.22754
20
-2.60371
11
4.22754
21
-2.63029
0
LINE
8
BLACK
6
CONTINUOUS
10
4.22754
20
-2.63029
11
4.22679
21
-2.63405
0
LINE
8
BLACK
6
CONTINUOUS
10
4.22679
20
-2.63405
11
4.22466
21
-2.63725
0
LINE
8
BLACK
6
CONTINUOUS
10
4.22466
20
-2.63725
11
4.22147
21
-2.63938
0
LINE
8
BLACK
6
CONTINUOUS
10
4.22147
20
-2.63938
11
4.2177
21
-2.64013
0
LINE
8
BLACK
6
CONTINUOUS
10
4.2177
20
-2.64013
11
4.1803
21
-2.64013
0
LINE
8
BLACK
6
CONTINUOUS
10
4.1803
20
-2.64013
11
4.17653
21
-2.63938
0
LINE
8
BLACK
6
CONTINUOUS
10
4.17653
20
-2.63938
11
4.17334
21
-2.63725
0
LINE
8
BLACK
6
CONTINUOUS
10
4.17334
20
-2.63725
11
4.17121
21
-2.63405
0
LINE
8
BLACK
6
CONTINUOUS
10
4.17121
20
-2.63405
11
4.17046
21
-2.63029
0
LINE
8
BLACK
6
CONTINUOUS
10
4.17046
20
-2.63029
11
4.17046
21
-2.60371
0
LINE
8
BLACK
6
CONTINUOUS
10
4.17046
20
-2.60371
11
4.17121
21
-2.59995
0
LINE
8
BLACK
6
CONTINUOUS
10
4.17121
20
-2.59995
11
4.17334
21
-2.59675
0
LINE
8
BLACK
6
CONTINUOUS
10
4.17334
20
-2.59675
11
4.17653
21
-2.59462
0
LINE
8
BLACK
6
CONTINUOUS
10
4.17653
20
-2.59462
11
4.1803
21
-2.59387
0
LINE
8
BLACK
6
CONTINUOUS
10
4.1803
20
-2.59387
11
4.2177
21
-2.59387
0
LINE
8
BLACK
6
CONTINUOUS
10
4.2177
20
-2.59387
11
4.22147
21
-2.59462
0
LINE
8
BLACK
6
CONTINUOUS
10
4.32539
20
-2.62906
11
4.29193
21
-2.62906
0
LINE
8
BLACK
6
CONTINUOUS
10
4.29193
20
-2.62906
11
4.29193
21
-2.61331
0
LINE
8
BLACK
6
CONTINUOUS
10
4.29193
20
-2.61331
11
4.32539
21
-2.61331
0
LINE
8
BLACK
6
CONTINUOUS
10
4.32539
20
-2.61331
11
4.32539
21
-2.62906
0
LINE
8
BLACK
6
CONTINUOUS
10
4.40807
20
-2.62906
11
4.37461
21
-2.62906
0
LINE
8
BLACK
6
CONTINUOUS
10
4.37461
20
-2.62906
11
4.37461
21
-2.61331
0
LINE
8
BLACK
6
CONTINUOUS
10
4.37461
20
-2.61331
11
4.40807
21
-2.61331
0
LINE
8
BLACK
6
CONTINUOUS
10
4.40807
20
-2.61331
11
4.40807
21
-2.62906
0
LINE
8
BLACK
6
CONTINUOUS
10
4.40807
20
-2.60346
11
4.37461
21
-2.60346
0
LINE
8
BLACK
6
CONTINUOUS
10
4.37461
20
-2.60346
11
4.37461
21
-2.58772
0
LINE
8
BLACK
6
CONTINUOUS
10
4.37461
20
-2.58772
11
4.40807
21
-2.58772
0
LINE
8
BLACK
6
CONTINUOUS
10
4.40807
20
-2.58772
11
4.40807
21
-2.60346
0
LINE
8
BLACK
6
CONTINUOUS
10
4.32539
20
-2.57787
11
4.29193
21
-2.57787
0
LINE
8
BLACK
6
CONTINUOUS
10
4.29193
20
-2.57787
11
4.29193
21
-2.56213
0
LINE
8
BLACK
6
CONTINUOUS
10
4.29193
20
-2.56213
11
4.32539
21
-2.56213
0
LINE
8
BLACK
6
CONTINUOUS
10
4.32539
20
-2.56213
11
4.32539
21
-2.57787
0
LINE
8
BLACK
6
CONTINUOUS
10
4.40807
20
-2.57787
11
4.37461
21
-2.57787
0
LINE
8
BLACK
6
CONTINUOUS
10
4.37461
20
-2.57787
11
4.37461
21
-2.56213
0
LINE
8
BLACK
6
CONTINUOUS
10
4.37461
20
-2.56213
11
4.40807
21
-2.56213
0
LINE
8
BLACK
6
CONTINUOUS
10
4.40807
20
-2.56213
11
4.40807
21
-2.57787
0
LINE
8
BLACK
6
CONTINUOUS
10
4.22247
20
-2.52362
11
4.22566
21
-2.52575
0
LINE
8
BLACK
6
CONTINUOUS
10
4.22566
20
-2.52575
11
4.22779
21
-2.52895
0
LINE
8
BLACK
6
CONTINUOUS
10
4.22779
20
-2.52895
11
4.22854
21
-2.53271
0
LINE
8
BLACK
6
CONTINUOUS
10
4.22854
20
-2.53271
11
4.22854
21
-2.55929
0
LINE
8
BLACK
6
CONTINUOUS
10
4.22854
20
-2.55929
11
4.22779
21
-2.56305
0
LINE
8
BLACK
6
CONTINUOUS
10
4.22779
20
-2.56305
11
4.22566
21
-2.56625
0
LINE
8
BLACK
6
CONTINUOUS
10
4.22566
20
-2.56625
11
4.22247
21
-2.56838
0
LINE
8
BLACK
6
CONTINUOUS
10
4.22247
20
-2.56838
11
4.2187
21
-2.56913
0
LINE
8
BLACK
6
CONTINUOUS
10
4.2187
20
-2.56913
11
4.1813
21
-2.56913
0
LINE
8
BLACK
6
CONTINUOUS
10
4.1813
20
-2.56913
11
4.17753
21
-2.56838
0
LINE
8
BLACK
6
CONTINUOUS
10
4.17753
20
-2.56838
11
4.17434
21
-2.56625
0
LINE
8
BLACK
6
CONTINUOUS
10
4.17434
20
-2.56625
11
4.17221
21
-2.56305
0
LINE
8
BLACK
6
CONTINUOUS
10
4.17221
20
-2.56305
11
4.17146
21
-2.55929
0
LINE
8
BLACK
6
CONTINUOUS
10
4.17146
20
-2.55929
11
4.17146
21
-2.53271
0
LINE
8
BLACK
6
CONTINUOUS
10
4.17146
20
-2.53271
11
4.17221
21
-2.52895
0
LINE
8
BLACK
6
CONTINUOUS
10
4.17221
20
-2.52895
11
4.17434
21
-2.52575
0
LINE
8
BLACK
6
CONTINUOUS
10
4.17434
20
-2.52575
11
4.17753
21
-2.52362
0
LINE
8
BLACK
6
CONTINUOUS
10
4.17753
20
-2.52362
11
4.1813
21
-2.52287
0
LINE
8
BLACK
6
CONTINUOUS
10
4.1813
20
-2.52287
11
4.2187
21
-2.52287
0
LINE
8
BLACK
6
CONTINUOUS
10
4.2187
20
-2.52287
11
4.22247
21
-2.52362
0
LINE
8
BLACK
6
CONTINUOUS
10
4.29534
20
-2.4591
11
4.29853
21
-2.46123
0
LINE
8
BLACK
6
CONTINUOUS
10
4.29853
20
-2.46123
11
4.30067
21
-2.46442
0
LINE
8
BLACK
6
CONTINUOUS
10
4.30067
20
-2.46442
11
4.30142
21
-2.46819
0
LINE
8
BLACK
6
CONTINUOUS
10
4.30142
20
-2.46819
11
4.30142
21
-2.49181
0
LINE
8
BLACK
6
CONTINUOUS
10
4.30142
20
-2.49181
11
4.30067
21
-2.49558
0
LINE
8
BLACK
6
CONTINUOUS
10
4.30067
20
-2.49558
11
4.29853
21
-2.49877
0
LINE
8
BLACK
6
CONTINUOUS
10
4.29853
20
-2.49877
11
4.29534
21
-2.5009
0
LINE
8
BLACK
6
CONTINUOUS
10
4.29534
20
-2.5009
11
4.29157
21
-2.50165
0
LINE
8
BLACK
6
CONTINUOUS
10
4.29157
20
-2.50165
11
4.26795
21
-2.50165
0
LINE
8
BLACK
6
CONTINUOUS
10
4.26795
20
-2.50165
11
4.26419
21
-2.5009
0
LINE
8
BLACK
6
CONTINUOUS
10
4.26419
20
-2.5009
11
4.26099
21
-2.49877
0
LINE
8
BLACK
6
CONTINUOUS
10
4.26099
20
-2.49877
11
4.25886
21
-2.49558
0
LINE
8
BLACK
6
CONTINUOUS
10
4.25886
20
-2.49558
11
4.25811
21
-2.49181
0
LINE
8
BLACK
6
CONTINUOUS
10
4.25811
20
-2.49181
11
4.25811
21
-2.46819
0
LINE
8
BLACK
6
CONTINUOUS
10
4.25811
20
-2.46819
11
4.25886
21
-2.46442
0
LINE
8
BLACK
6
CONTINUOUS
10
4.25886
20
-2.46442
11
4.26099
21
-2.46123
0
LINE
8
BLACK
6
CONTINUOUS
10
4.26099
20
-2.46123
11
4.26419
21
-2.4591
0
LINE
8
BLACK
6
CONTINUOUS
10
4.26419
20
-2.4591
11
4.26795
21
-2.45835
0
LINE
8
BLACK
6
CONTINUOUS
10
4.26795
20
-2.45835
11
4.29157
21
-2.45835
0
LINE
8
BLACK
6
CONTINUOUS
10
4.29157
20
-2.45835
11
4.29534
21
-2.4591
0
LINE
8
BLACK
6
CONTINUOUS
10
4.40558
20
-2.4591
11
4.40877
21
-2.46123
0
LINE
8
BLACK
6
CONTINUOUS
10
4.40877
20
-2.46123
11
4.4109
21
-2.46442
0
LINE
8
BLACK
6
CONTINUOUS
10
4.4109
20
-2.46442
11
4.41165
21
-2.46819
0
LINE
8
BLACK
6
CONTINUOUS
10
4.41165
20
-2.46819
11
4.41165
21
-2.49181
0
LINE
8
BLACK
6
CONTINUOUS
10
4.41165
20
-2.49181
11
4.4109
21
-2.49558
0
LINE
8
BLACK
6
CONTINUOUS
10
4.4109
20
-2.49558
11
4.40877
21
-2.49877
0
LINE
8
BLACK
6
CONTINUOUS
10
4.40877
20
-2.49877
11
4.40558
21
-2.5009
0
LINE
8
BLACK
6
CONTINUOUS
10
4.40558
20
-2.5009
11
4.40181
21
-2.50165
0
LINE
8
BLACK
6
CONTINUOUS
10
4.40181
20
-2.50165
11
4.37819
21
-2.50165
0
LINE
8
BLACK
6
CONTINUOUS
10
4.37819
20
-2.50165
11
4.37442
21
-2.5009
0
LINE
8
BLACK
6
CONTINUOUS
10
4.37442
20
-2.5009
11
4.37123
21
-2.49877
0
LINE
8
BLACK
6
CONTINUOUS
10
4.37123
20
-2.49877
11
4.3691
21
-2.49558
0
LINE
8
BLACK
6
CONTINUOUS
10
4.3691
20
-2.49558
11
4.36835
21
-2.49181
0
LINE
8
BLACK
6
CONTINUOUS
10
4.36835
20
-2.49181
11
4.36835
21
-2.46819
0
LINE
8
BLACK
6
CONTINUOUS
10
4.36835
20
-2.46819
11
4.3691
21
-2.46442
0
LINE
8
BLACK
6
CONTINUOUS
10
4.3691
20
-2.46442
11
4.37123
21
-2.46123
0
LINE
8
BLACK
6
CONTINUOUS
10
4.37123
20
-2.46123
11
4.37442
21
-2.4591
0
LINE
8
BLACK
6
CONTINUOUS
10
4.37442
20
-2.4591
11
4.37819
21
-2.45835
0
LINE
8
BLACK
6
CONTINUOUS
10
4.37819
20
-2.45835
11
4.40181
21
-2.45835
0
LINE
8
BLACK
6
CONTINUOUS
10
4.40181
20
-2.45835
11
4.40558
21
-2.4591
0
LINE
8
BLACK
6
CONTINUOUS
10
4.22247
20
-2.44193
11
4.22566
21
-2.44406
0
LINE
8
BLACK
6
CONTINUOUS
10
4.22566
20
-2.44406
11
4.22779
21
-2.44725
0
LINE
8
BLACK
6
CONTINUOUS
10
4.22779
20
-2.44725
11
4.22854
21
-2.45102
0
LINE
8
BLACK
6
CONTINUOUS
10
4.22854
20
-2.45102
11
4.22854
21
-2.47759
0
LINE
8
BLACK
6
CONTINUOUS
10
4.22854
20
-2.47759
11
4.22779
21
-2.48136
0
LINE
8
BLACK
6
CONTINUOUS
10
4.22779
20
-2.48136
11
4.22566
21
-2.48455
0
LINE
8
BLACK
6
CONTINUOUS
10
4.22566
20
-2.48455
11
4.22247
21
-2.48669
0
LINE
8
BLACK
6
CONTINUOUS
10
4.22247
20
-2.48669
11
4.2187
21
-2.48744
0
LINE
8
BLACK
6
CONTINUOUS
10
4.2187
20
-2.48744
11
4.1813
21
-2.48744
0
LINE
8
BLACK
6
CONTINUOUS
10
4.1813
20
-2.48744
11
4.17753
21
-2.48669
0
LINE
8
BLACK
6
CONTINUOUS
10
4.17753
20
-2.48669
11
4.17434
21
-2.48455
0
LINE
8
BLACK
6
CONTINUOUS
10
4.17434
20
-2.48455
11
4.17221
21
-2.48136
0
LINE
8
BLACK
6
CONTINUOUS
10
4.17221
20
-2.48136
11
4.17146
21
-2.47759
0
LINE
8
BLACK
6
CONTINUOUS
10
4.17146
20
-2.47759
11
4.17146
21
-2.45102
0
LINE
8
BLACK
6
CONTINUOUS
10
4.17146
20
-2.45102
11
4.17221
21
-2.44725
0
LINE
8
BLACK
6
CONTINUOUS
10
4.17221
20
-2.44725
11
4.17434
21
-2.44406
0
LINE
8
BLACK
6
CONTINUOUS
10
4.17434
20
-2.44406
11
4.17753
21
-2.44193
0
LINE
8
BLACK
6
CONTINUOUS
10
4.17753
20
-2.44193
11
4.1813
21
-2.44118
0
LINE
8
BLACK
6
CONTINUOUS
10
4.1813
20
-2.44118
11
4.2187
21
-2.44118
0
LINE
8
BLACK
6
CONTINUOUS
10
4.2187
20
-2.44118
11
4.22247
21
-2.44193
  0
ENDSEC
  0
EOF
