  0
SECTION
  2
HEADER
  9
$ANGBASE
  50
0.0
  9
$ANGDIR
  70
1
  9
$MEASUREMENT
  70
0
  0
ENDSEC
  0
SECTION
  2
TABLES
  0
TABLE
  2
LTYPE
  70
4
  0
LTYPE
  5
40F
  2
CONTINUOUS
  70
0
  3
Solid line
  72
65
  73
0
  40
0.0
  0
LTYPE
  5
410
  2
DASHDOT
 70
0
  3
Dash Dot ____ _ ____ _
 72
65
 73
4
 40
2.0
 49
1.25
 49
-0.25
 49
0.25
 49
-0.25
  0
LTYPE
  5
411
  2
DASHED
 70
0
  3
Dashed __ __ __ __ __
 72
65
 73
2
 40
0.75
 49
0.5
 49
-0.25
  0
LTYPE
  5
43B
  2
DOTTED
 70
0
  3
Dotted .  .  .  .
 72
65
 73
2
 40
0.2
 49
0.0
 49
-0.2
  0
ENDTAB
  0
TABLE
  2
STYLE
  70
4
  0
STYLE
  2
KICAD
  70
0
  40
0
  41
1
  42
1
  50
0
  71
0
  3
isocp.shx
  0
STYLE
  2
KICADB
  70
0
  40
0
  41
1
  42
1
  50
0
  71
0
  3
isocp.shx
  0
STYLE
  2
KICADI
  70
0
  40
0
  41
1
  42
1
  50
15
  71
0
  3
isocp.shx
  0
STYLE
  2
KICADBI
  70
0
  40
0
  41
1
  42
1
  50
15
  71
0
  3
isocp.shx
  0
ENDTAB
  0
TABLE
  2
LAYER
  70
1
  0
LAYER
  2
BLACK
  70
0
  62
7
  6
CONTINUOUS
  0
ENDTAB
  0
ENDSEC
  0
SECTION
  2
ENTITIES
0
LINE
8
BLACK
6
CONTINUOUS
10
4.02051
20
-2.88368
11
4.03387
21
-2.88685
0
LINE
8
BLACK
6
CONTINUOUS
10
4.03387
20
-2.88685
11
4.04678
21
-2.89155
0
LINE
8
BLACK
6
CONTINUOUS
10
4.04678
20
-2.89155
11
4.05906
21
-2.89771
0
LINE
8
BLACK
6
CONTINUOUS
10
4.05906
20
-2.89771
11
4.07053
21
-2.90526
0
LINE
8
BLACK
6
CONTINUOUS
10
4.07053
20
-2.90526
11
4.08105
21
-2.91409
0
LINE
8
BLACK
6
CONTINUOUS
10
4.08105
20
-2.91409
11
4.09048
21
-2.92408
0
LINE
8
BLACK
6
CONTINUOUS
10
4.09048
20
-2.92408
11
4.09868
21
-2.9351
0
LINE
8
BLACK
6
CONTINUOUS
10
4.09868
20
-2.9351
11
4.10555
21
-2.94699
0
LINE
8
BLACK
6
CONTINUOUS
10
4.10555
20
-2.94699
11
4.11099
21
-2.9596
0
LINE
8
BLACK
6
CONTINUOUS
10
4.11099
20
-2.9596
11
4.11493
21
-2.97276
0
LINE
8
BLACK
6
CONTINUOUS
10
4.11493
20
-2.97276
11
4.11731
21
-2.98629
0
LINE
8
BLACK
6
CONTINUOUS
10
4.11731
20
-2.98629
11
4.11811
21
-3
0
LINE
8
BLACK
6
CONTINUOUS
10
4.11811
20
-3
11
4.11731
21
-3.01371
0
LINE
8
BLACK
6
CONTINUOUS
10
4.11731
20
-3.01371
11
4.11493
21
-3.02724
0
LINE
8
BLACK
6
CONTINUOUS
10
4.11493
20
-3.02724
11
4.11099
21
-3.0404
0
LINE
8
BLACK
6
CONTINUOUS
10
4.11099
20
-3.0404
11
4.10555
21
-3.05301
0
LINE
8
BLACK
6
CONTINUOUS
10
4.10555
20
-3.05301
11
4.09868
21
-3.0649
0
LINE
8
BLACK
6
CONTINUOUS
10
4.09868
20
-3.0649
11
4.09048
21
-3.07592
0
LINE
8
BLACK
6
CONTINUOUS
10
4.09048
20
-3.07592
11
4.08105
21
-3.08591
0
LINE
8
BLACK
6
CONTINUOUS
10
4.08105
20
-3.08591
11
4.07053
21
-3.09474
0
LINE
8
BLACK
6
CONTINUOUS
10
4.07053
20
-3.09474
11
4.05906
21
-3.10229
0
LINE
8
BLACK
6
CONTINUOUS
10
4.05906
20
-3.10229
11
4.04678
21
-3.10845
0
LINE
8
BLACK
6
CONTINUOUS
10
4.04678
20
-3.10845
11
4.03387
21
-3.11315
0
LINE
8
BLACK
6
CONTINUOUS
10
4.03387
20
-3.11315
11
4.02051
21
-3.11632
0
LINE
8
BLACK
6
CONTINUOUS
10
4.02051
20
-3.11632
11
4.00687
21
-3.11791
0
LINE
8
BLACK
6
CONTINUOUS
10
4.00687
20
-3.11791
11
3.99313
21
-3.11791
0
LINE
8
BLACK
6
CONTINUOUS
10
3.99313
20
-3.11791
11
3.97949
21
-3.11632
0
LINE
8
BLACK
6
CONTINUOUS
10
3.97949
20
-3.11632
11
3.96613
21
-3.11315
0
LINE
8
BLACK
6
CONTINUOUS
10
3.96613
20
-3.11315
11
3.95322
21
-3.10845
0
LINE
8
BLACK
6
CONTINUOUS
10
3.95322
20
-3.10845
11
3.94094
21
-3.10229
0
LINE
8
BLACK
6
CONTINUOUS
10
3.94094
20
-3.10229
11
3.92947
21
-3.09474
0
LINE
8
BLACK
6
CONTINUOUS
10
3.92947
20
-3.09474
11
3.91895
21
-3.08591
0
LINE
8
BLACK
6
CONTINUOUS
10
3.91895
20
-3.08591
11
3.90952
21
-3.07592
0
LINE
8
BLACK
6
CONTINUOUS
10
3.90952
20
-3.07592
11
3.90132
21
-3.0649
0
LINE
8
BLACK
6
CONTINUOUS
10
3.90132
20
-3.0649
11
3.89445
21
-3.05301
0
LINE
8
BLACK
6
CONTINUOUS
10
3.89445
20
-3.05301
11
3.88901
21
-3.0404
0
LINE
8
BLACK
6
CONTINUOUS
10
3.88901
20
-3.0404
11
3.88507
21
-3.02724
0
LINE
8
BLACK
6
CONTINUOUS
10
3.88507
20
-3.02724
11
3.88269
21
-3.01371
0
LINE
8
BLACK
6
CONTINUOUS
10
3.88269
20
-3.01371
11
3.88189
21
-3
0
LINE
8
BLACK
6
CONTINUOUS
10
3.88189
20
-3
11
3.88269
21
-2.98629
0
LINE
8
BLACK
6
CONTINUOUS
10
3.88269
20
-2.98629
11
3.88507
21
-2.97276
0
LINE
8
BLACK
6
CONTINUOUS
10
3.88507
20
-2.97276
11
3.88901
21
-2.9596
0
LINE
8
BLACK
6
CONTINUOUS
10
3.88901
20
-2.9596
11
3.89445
21
-2.94699
0
LINE
8
BLACK
6
CONTINUOUS
10
3.89445
20
-2.94699
11
3.90132
21
-2.9351
0
LINE
8
BLACK
6
CONTINUOUS
10
3.90132
20
-2.9351
11
3.90952
21
-2.92408
0
LINE
8
BLACK
6
CONTINUOUS
10
3.90952
20
-2.92408
11
3.91895
21
-2.91409
0
LINE
8
BLACK
6
CONTINUOUS
10
3.91895
20
-2.91409
11
3.92947
21
-2.90526
0
LINE
8
BLACK
6
CONTINUOUS
10
3.92947
20
-2.90526
11
3.94094
21
-2.89771
0
LINE
8
BLACK
6
CONTINUOUS
10
3.94094
20
-2.89771
11
3.95322
21
-2.89155
0
LINE
8
BLACK
6
CONTINUOUS
10
3.95322
20
-2.89155
11
3.96613
21
-2.88685
0
LINE
8
BLACK
6
CONTINUOUS
10
3.96613
20
-2.88685
11
3.97949
21
-2.88368
0
LINE
8
BLACK
6
CONTINUOUS
10
3.97949
20
-2.88368
11
3.99313
21
-2.88209
0
LINE
8
BLACK
6
CONTINUOUS
10
3.99313
20
-2.88209
11
4.00687
21
-2.88209
0
LINE
8
BLACK
6
CONTINUOUS
10
4.00687
20
-2.88209
11
4.02051
21
-2.88368
0
LINE
8
BLACK
6
CONTINUOUS
10
4.82051
20
-2.88368
11
4.83387
21
-2.88685
0
LINE
8
BLACK
6
CONTINUOUS
10
4.83387
20
-2.88685
11
4.84678
21
-2.89155
0
LINE
8
BLACK
6
CONTINUOUS
10
4.84678
20
-2.89155
11
4.85906
21
-2.89771
0
LINE
8
BLACK
6
CONTINUOUS
10
4.85906
20
-2.89771
11
4.87053
21
-2.90526
0
LINE
8
BLACK
6
CONTINUOUS
10
4.87053
20
-2.90526
11
4.88105
21
-2.91409
0
LINE
8
BLACK
6
CONTINUOUS
10
4.88105
20
-2.91409
11
4.89048
21
-2.92408
0
LINE
8
BLACK
6
CONTINUOUS
10
4.89048
20
-2.92408
11
4.89868
21
-2.9351
0
LINE
8
BLACK
6
CONTINUOUS
10
4.89868
20
-2.9351
11
4.90555
21
-2.94699
0
LINE
8
BLACK
6
CONTINUOUS
10
4.90555
20
-2.94699
11
4.91099
21
-2.9596
0
LINE
8
BLACK
6
CONTINUOUS
10
4.91099
20
-2.9596
11
4.91493
21
-2.97276
0
LINE
8
BLACK
6
CONTINUOUS
10
4.91493
20
-2.97276
11
4.91731
21
-2.98629
0
LINE
8
BLACK
6
CONTINUOUS
10
4.91731
20
-2.98629
11
4.91811
21
-3
0
LINE
8
BLACK
6
CONTINUOUS
10
4.91811
20
-3
11
4.91731
21
-3.01371
0
LINE
8
BLACK
6
CONTINUOUS
10
4.91731
20
-3.01371
11
4.91493
21
-3.02724
0
LINE
8
BLACK
6
CONTINUOUS
10
4.91493
20
-3.02724
11
4.91099
21
-3.0404
0
LINE
8
BLACK
6
CONTINUOUS
10
4.91099
20
-3.0404
11
4.90555
21
-3.05301
0
LINE
8
BLACK
6
CONTINUOUS
10
4.90555
20
-3.05301
11
4.89868
21
-3.0649
0
LINE
8
BLACK
6
CONTINUOUS
10
4.89868
20
-3.0649
11
4.89048
21
-3.07592
0
LINE
8
BLACK
6
CONTINUOUS
10
4.89048
20
-3.07592
11
4.88105
21
-3.08591
0
LINE
8
BLACK
6
CONTINUOUS
10
4.88105
20
-3.08591
11
4.87053
21
-3.09474
0
LINE
8
BLACK
6
CONTINUOUS
10
4.87053
20
-3.09474
11
4.85906
21
-3.10229
0
LINE
8
BLACK
6
CONTINUOUS
10
4.85906
20
-3.10229
11
4.84678
21
-3.10845
0
LINE
8
BLACK
6
CONTINUOUS
10
4.84678
20
-3.10845
11
4.83387
21
-3.11315
0
LINE
8
BLACK
6
CONTINUOUS
10
4.83387
20
-3.11315
11
4.82051
21
-3.11632
0
LINE
8
BLACK
6
CONTINUOUS
10
4.82051
20
-3.11632
11
4.80687
21
-3.11791
0
LINE
8
BLACK
6
CONTINUOUS
10
4.80687
20
-3.11791
11
4.79313
21
-3.11791
0
LINE
8
BLACK
6
CONTINUOUS
10
4.79313
20
-3.11791
11
4.77949
21
-3.11632
0
LINE
8
BLACK
6
CONTINUOUS
10
4.77949
20
-3.11632
11
4.76613
21
-3.11315
0
LINE
8
BLACK
6
CONTINUOUS
10
4.76613
20
-3.11315
11
4.75322
21
-3.10845
0
LINE
8
BLACK
6
CONTINUOUS
10
4.75322
20
-3.10845
11
4.74094
21
-3.10229
0
LINE
8
BLACK
6
CONTINUOUS
10
4.74094
20
-3.10229
11
4.72947
21
-3.09474
0
LINE
8
BLACK
6
CONTINUOUS
10
4.72947
20
-3.09474
11
4.71895
21
-3.08591
0
LINE
8
BLACK
6
CONTINUOUS
10
4.71895
20
-3.08591
11
4.70952
21
-3.07592
0
LINE
8
BLACK
6
CONTINUOUS
10
4.70952
20
-3.07592
11
4.70132
21
-3.0649
0
LINE
8
BLACK
6
CONTINUOUS
10
4.70132
20
-3.0649
11
4.69445
21
-3.05301
0
LINE
8
BLACK
6
CONTINUOUS
10
4.69445
20
-3.05301
11
4.68901
21
-3.0404
0
LINE
8
BLACK
6
CONTINUOUS
10
4.68901
20
-3.0404
11
4.68507
21
-3.02724
0
LINE
8
BLACK
6
CONTINUOUS
10
4.68507
20
-3.02724
11
4.68269
21
-3.01371
0
LINE
8
BLACK
6
CONTINUOUS
10
4.68269
20
-3.01371
11
4.68189
21
-3
0
LINE
8
BLACK
6
CONTINUOUS
10
4.68189
20
-3
11
4.68269
21
-2.98629
0
LINE
8
BLACK
6
CONTINUOUS
10
4.68269
20
-2.98629
11
4.68507
21
-2.97276
0
LINE
8
BLACK
6
CONTINUOUS
10
4.68507
20
-2.97276
11
4.68901
21
-2.9596
0
LINE
8
BLACK
6
CONTINUOUS
10
4.68901
20
-2.9596
11
4.69445
21
-2.94699
0
LINE
8
BLACK
6
CONTINUOUS
10
4.69445
20
-2.94699
11
4.70132
21
-2.9351
0
LINE
8
BLACK
6
CONTINUOUS
10
4.70132
20
-2.9351
11
4.70952
21
-2.92408
0
LINE
8
BLACK
6
CONTINUOUS
10
4.70952
20
-2.92408
11
4.71895
21
-2.91409
0
LINE
8
BLACK
6
CONTINUOUS
10
4.71895
20
-2.91409
11
4.72947
21
-2.90526
0
LINE
8
BLACK
6
CONTINUOUS
10
4.72947
20
-2.90526
11
4.74094
21
-2.89771
0
LINE
8
BLACK
6
CONTINUOUS
10
4.74094
20
-2.89771
11
4.75322
21
-2.89155
0
LINE
8
BLACK
6
CONTINUOUS
10
4.75322
20
-2.89155
11
4.76613
21
-2.88685
0
LINE
8
BLACK
6
CONTINUOUS
10
4.76613
20
-2.88685
11
4.77949
21
-2.88368
0
LINE
8
BLACK
6
CONTINUOUS
10
4.77949
20
-2.88368
11
4.79313
21
-2.88209
0
LINE
8
BLACK
6
CONTINUOUS
10
4.79313
20
-2.88209
11
4.80687
21
-2.88209
0
LINE
8
BLACK
6
CONTINUOUS
10
4.80687
20
-2.88209
11
4.82051
21
-2.88368
0
LINE
8
BLACK
6
CONTINUOUS
10
4.57455
20
-2.85119
11
4.57774
21
-2.85332
0
LINE
8
BLACK
6
CONTINUOUS
10
4.57774
20
-2.85332
11
4.57987
21
-2.85652
0
LINE
8
BLACK
6
CONTINUOUS
10
4.57987
20
-2.85652
11
4.58062
21
-2.86028
0
LINE
8
BLACK
6
CONTINUOUS
10
4.58062
20
-2.86028
11
4.58062
21
-2.89572
0
LINE
8
BLACK
6
CONTINUOUS
10
4.58062
20
-2.89572
11
4.57987
21
-2.89948
0
LINE
8
BLACK
6
CONTINUOUS
10
4.57987
20
-2.89948
11
4.57774
21
-2.90268
0
LINE
8
BLACK
6
CONTINUOUS
10
4.57774
20
-2.90268
11
4.57455
21
-2.90481
0
LINE
8
BLACK
6
CONTINUOUS
10
4.57455
20
-2.90481
11
4.57078
21
-2.90556
0
LINE
8
BLACK
6
CONTINUOUS
10
4.57078
20
-2.90556
11
4.54322
21
-2.90556
0
LINE
8
BLACK
6
CONTINUOUS
10
4.54322
20
-2.90556
11
4.53945
21
-2.90481
0
LINE
8
BLACK
6
CONTINUOUS
10
4.53945
20
-2.90481
11
4.53626
21
-2.90268
0
LINE
8
BLACK
6
CONTINUOUS
10
4.53626
20
-2.90268
11
4.53413
21
-2.89948
0
LINE
8
BLACK
6
CONTINUOUS
10
4.53413
20
-2.89948
11
4.53338
21
-2.89572
0
LINE
8
BLACK
6
CONTINUOUS
10
4.53338
20
-2.89572
11
4.53338
21
-2.86028
0
LINE
8
BLACK
6
CONTINUOUS
10
4.53338
20
-2.86028
11
4.53413
21
-2.85652
0
LINE
8
BLACK
6
CONTINUOUS
10
4.53413
20
-2.85652
11
4.53626
21
-2.85332
0
LINE
8
BLACK
6
CONTINUOUS
10
4.53626
20
-2.85332
11
4.53945
21
-2.85119
0
LINE
8
BLACK
6
CONTINUOUS
10
4.53945
20
-2.85119
11
4.54322
21
-2.85044
0
LINE
8
BLACK
6
CONTINUOUS
10
4.54322
20
-2.85044
11
4.57078
21
-2.85044
0
LINE
8
BLACK
6
CONTINUOUS
10
4.57078
20
-2.85044
11
4.57455
21
-2.85119
0
LINE
8
BLACK
6
CONTINUOUS
10
4.65329
20
-2.85119
11
4.65648
21
-2.85332
0
LINE
8
BLACK
6
CONTINUOUS
10
4.65648
20
-2.85332
11
4.65861
21
-2.85652
0
LINE
8
BLACK
6
CONTINUOUS
10
4.65861
20
-2.85652
11
4.65936
21
-2.86028
0
LINE
8
BLACK
6
CONTINUOUS
10
4.65936
20
-2.86028
11
4.65936
21
-2.89572
0
LINE
8
BLACK
6
CONTINUOUS
10
4.65936
20
-2.89572
11
4.65861
21
-2.89948
0
LINE
8
BLACK
6
CONTINUOUS
10
4.65861
20
-2.89948
11
4.65648
21
-2.90268
0
LINE
8
BLACK
6
CONTINUOUS
10
4.65648
20
-2.90268
11
4.65329
21
-2.90481
0
LINE
8
BLACK
6
CONTINUOUS
10
4.65329
20
-2.90481
11
4.64952
21
-2.90556
0
LINE
8
BLACK
6
CONTINUOUS
10
4.64952
20
-2.90556
11
4.62196
21
-2.90556
0
LINE
8
BLACK
6
CONTINUOUS
10
4.62196
20
-2.90556
11
4.61819
21
-2.90481
0
LINE
8
BLACK
6
CONTINUOUS
10
4.61819
20
-2.90481
11
4.615
21
-2.90268
0
LINE
8
BLACK
6
CONTINUOUS
10
4.615
20
-2.90268
11
4.61287
21
-2.89948
0
LINE
8
BLACK
6
CONTINUOUS
10
4.61287
20
-2.89948
11
4.61212
21
-2.89572
0
LINE
8
BLACK
6
CONTINUOUS
10
4.61212
20
-2.89572
11
4.61212
21
-2.86028
0
LINE
8
BLACK
6
CONTINUOUS
10
4.61212
20
-2.86028
11
4.61287
21
-2.85652
0
LINE
8
BLACK
6
CONTINUOUS
10
4.61287
20
-2.85652
11
4.615
21
-2.85332
0
LINE
8
BLACK
6
CONTINUOUS
10
4.615
20
-2.85332
11
4.61819
21
-2.85119
0
LINE
8
BLACK
6
CONTINUOUS
10
4.61819
20
-2.85119
11
4.62196
21
-2.85044
0
LINE
8
BLACK
6
CONTINUOUS
10
4.62196
20
-2.85044
11
4.64952
21
-2.85044
0
LINE
8
BLACK
6
CONTINUOUS
10
4.64952
20
-2.85044
11
4.65329
21
-2.85119
0
LINE
8
BLACK
6
CONTINUOUS
10
4.4315
20
-2.84724
11
4.3685
21
-2.84724
0
LINE
8
BLACK
6
CONTINUOUS
10
4.3685
20
-2.84724
11
4.3685
21
-2.75276
0
LINE
8
BLACK
6
CONTINUOUS
10
4.3685
20
-2.75276
11
4.4315
21
-2.75276
0
LINE
8
BLACK
6
CONTINUOUS
10
4.4315
20
-2.75276
11
4.4315
21
-2.84724
0
LINE
8
BLACK
6
CONTINUOUS
10
4.35571
20
-2.84528
11
4.32618
21
-2.84528
0
LINE
8
BLACK
6
CONTINUOUS
10
4.32618
20
-2.84528
11
4.32618
21
-2.8315
0
LINE
8
BLACK
6
CONTINUOUS
10
4.32618
20
-2.8315
11
4.35571
21
-2.8315
0
LINE
8
BLACK
6
CONTINUOUS
10
4.35571
20
-2.8315
11
4.35571
21
-2.84528
0
LINE
8
BLACK
6
CONTINUOUS
10
4.47382
20
-2.84528
11
4.44429
21
-2.84528
0
LINE
8
BLACK
6
CONTINUOUS
10
4.44429
20
-2.84528
11
4.44429
21
-2.8315
0
LINE
8
BLACK
6
CONTINUOUS
10
4.44429
20
-2.8315
11
4.47382
21
-2.8315
0
LINE
8
BLACK
6
CONTINUOUS
10
4.47382
20
-2.8315
11
4.47382
21
-2.84528
0
LINE
8
BLACK
6
CONTINUOUS
10
3.91768
20
-2.76139
11
3.92507
21
-2.76363
0
LINE
8
BLACK
6
CONTINUOUS
10
3.92507
20
-2.76363
11
3.93187
21
-2.76726
0
LINE
8
BLACK
6
CONTINUOUS
10
3.93187
20
-2.76726
11
3.93784
21
-2.77216
0
LINE
8
BLACK
6
CONTINUOUS
10
3.93784
20
-2.77216
11
3.94274
21
-2.77813
0
LINE
8
BLACK
6
CONTINUOUS
10
3.94274
20
-2.77813
11
3.94637
21
-2.78493
0
LINE
8
BLACK
6
CONTINUOUS
10
3.94637
20
-2.78493
11
3.94861
21
-2.79232
0
LINE
8
BLACK
6
CONTINUOUS
10
3.94861
20
-2.79232
11
3.94937
21
-2.8
0
LINE
8
BLACK
6
CONTINUOUS
10
3.94937
20
-2.8
11
3.94861
21
-2.80768
0
LINE
8
BLACK
6
CONTINUOUS
10
3.94861
20
-2.80768
11
3.94637
21
-2.81507
0
LINE
8
BLACK
6
CONTINUOUS
10
3.94637
20
-2.81507
11
3.94274
21
-2.82187
0
LINE
8
BLACK
6
CONTINUOUS
10
3.94274
20
-2.82187
11
3.93784
21
-2.82784
0
LINE
8
BLACK
6
CONTINUOUS
10
3.93784
20
-2.82784
11
3.93187
21
-2.83274
0
LINE
8
BLACK
6
CONTINUOUS
10
3.93187
20
-2.83274
11
3.92507
21
-2.83637
0
LINE
8
BLACK
6
CONTINUOUS
10
3.92507
20
-2.83637
11
3.91768
21
-2.83861
0
LINE
8
BLACK
6
CONTINUOUS
10
3.91768
20
-2.83861
11
3.91
21
-2.83937
0
LINE
8
BLACK
6
CONTINUOUS
10
3.91
20
-2.83937
11
3.90232
21
-2.83861
0
LINE
8
BLACK
6
CONTINUOUS
10
3.90232
20
-2.83861
11
3.89493
21
-2.83637
0
LINE
8
BLACK
6
CONTINUOUS
10
3.89493
20
-2.83637
11
3.88813
21
-2.83274
0
LINE
8
BLACK
6
CONTINUOUS
10
3.88813
20
-2.83274
11
3.88216
21
-2.82784
0
LINE
8
BLACK
6
CONTINUOUS
10
3.88216
20
-2.82784
11
3.87726
21
-2.82187
0
LINE
8
BLACK
6
CONTINUOUS
10
3.87726
20
-2.82187
11
3.87363
21
-2.81507
0
LINE
8
BLACK
6
CONTINUOUS
10
3.87363
20
-2.81507
11
3.87139
21
-2.80768
0
LINE
8
BLACK
6
CONTINUOUS
10
3.87139
20
-2.80768
11
3.87063
21
-2.8
0
LINE
8
BLACK
6
CONTINUOUS
10
3.87063
20
-2.8
11
3.87139
21
-2.79232
0
LINE
8
BLACK
6
CONTINUOUS
10
3.87139
20
-2.79232
11
3.87363
21
-2.78493
0
LINE
8
BLACK
6
CONTINUOUS
10
3.87363
20
-2.78493
11
3.87726
21
-2.77813
0
LINE
8
BLACK
6
CONTINUOUS
10
3.87726
20
-2.77813
11
3.88216
21
-2.77216
0
LINE
8
BLACK
6
CONTINUOUS
10
3.88216
20
-2.77216
11
3.88813
21
-2.76726
0
LINE
8
BLACK
6
CONTINUOUS
10
3.88813
20
-2.76726
11
3.89493
21
-2.76363
0
LINE
8
BLACK
6
CONTINUOUS
10
3.89493
20
-2.76363
11
3.90232
21
-2.76139
0
LINE
8
BLACK
6
CONTINUOUS
10
3.90232
20
-2.76139
11
3.91
21
-2.76063
0
LINE
8
BLACK
6
CONTINUOUS
10
3.91
20
-2.76063
11
3.91768
21
-2.76139
0
LINE
8
BLACK
6
CONTINUOUS
10
4.89768
20
-2.76139
11
4.90507
21
-2.76363
0
LINE
8
BLACK
6
CONTINUOUS
10
4.90507
20
-2.76363
11
4.91187
21
-2.76726
0
LINE
8
BLACK
6
CONTINUOUS
10
4.91187
20
-2.76726
11
4.91784
21
-2.77216
0
LINE
8
BLACK
6
CONTINUOUS
10
4.91784
20
-2.77216
11
4.92274
21
-2.77813
0
LINE
8
BLACK
6
CONTINUOUS
10
4.92274
20
-2.77813
11
4.92637
21
-2.78493
0
LINE
8
BLACK
6
CONTINUOUS
10
4.92637
20
-2.78493
11
4.92861
21
-2.79232
0
LINE
8
BLACK
6
CONTINUOUS
10
4.92861
20
-2.79232
11
4.92937
21
-2.8
0
LINE
8
BLACK
6
CONTINUOUS
10
4.92937
20
-2.8
11
4.92861
21
-2.80768
0
LINE
8
BLACK
6
CONTINUOUS
10
4.92861
20
-2.80768
11
4.92637
21
-2.81507
0
LINE
8
BLACK
6
CONTINUOUS
10
4.92637
20
-2.81507
11
4.92274
21
-2.82187
0
LINE
8
BLACK
6
CONTINUOUS
10
4.92274
20
-2.82187
11
4.91784
21
-2.82784
0
LINE
8
BLACK
6
CONTINUOUS
10
4.91784
20
-2.82784
11
4.91187
21
-2.83274
0
LINE
8
BLACK
6
CONTINUOUS
10
4.91187
20
-2.83274
11
4.90507
21
-2.83637
0
LINE
8
BLACK
6
CONTINUOUS
10
4.90507
20
-2.83637
11
4.89768
21
-2.83861
0
LINE
8
BLACK
6
CONTINUOUS
10
4.89768
20
-2.83861
11
4.89
21
-2.83937
0
LINE
8
BLACK
6
CONTINUOUS
10
4.89
20
-2.83937
11
4.88232
21
-2.83861
0
LINE
8
BLACK
6
CONTINUOUS
10
4.88232
20
-2.83861
11
4.87493
21
-2.83637
0
LINE
8
BLACK
6
CONTINUOUS
10
4.87493
20
-2.83637
11
4.86813
21
-2.83274
0
LINE
8
BLACK
6
CONTINUOUS
10
4.86813
20
-2.83274
11
4.86216
21
-2.82784
0
LINE
8
BLACK
6
CONTINUOUS
10
4.86216
20
-2.82784
11
4.85726
21
-2.82187
0
LINE
8
BLACK
6
CONTINUOUS
10
4.85726
20
-2.82187
11
4.85363
21
-2.81507
0
LINE
8
BLACK
6
CONTINUOUS
10
4.85363
20
-2.81507
11
4.85139
21
-2.80768
0
LINE
8
BLACK
6
CONTINUOUS
10
4.85139
20
-2.80768
11
4.85063
21
-2.8
0
LINE
8
BLACK
6
CONTINUOUS
10
4.85063
20
-2.8
11
4.85139
21
-2.79232
0
LINE
8
BLACK
6
CONTINUOUS
10
4.85139
20
-2.79232
11
4.85363
21
-2.78493
0
LINE
8
BLACK
6
CONTINUOUS
10
4.85363
20
-2.78493
11
4.85726
21
-2.77813
0
LINE
8
BLACK
6
CONTINUOUS
10
4.85726
20
-2.77813
11
4.86216
21
-2.77216
0
LINE
8
BLACK
6
CONTINUOUS
10
4.86216
20
-2.77216
11
4.86813
21
-2.76726
0
LINE
8
BLACK
6
CONTINUOUS
10
4.86813
20
-2.76726
11
4.87493
21
-2.76363
0
LINE
8
BLACK
6
CONTINUOUS
10
4.87493
20
-2.76363
11
4.88232
21
-2.76139
0
LINE
8
BLACK
6
CONTINUOUS
10
4.88232
20
-2.76139
11
4.89
21
-2.76063
0
LINE
8
BLACK
6
CONTINUOUS
10
4.89
20
-2.76063
11
4.89768
21
-2.76139
0
LINE
8
BLACK
6
CONTINUOUS
10
4.57518
20
-2.77319
11
4.57837
21
-2.77532
0
LINE
8
BLACK
6
CONTINUOUS
10
4.57837
20
-2.77532
11
4.5805
21
-2.77852
0
LINE
8
BLACK
6
CONTINUOUS
10
4.5805
20
-2.77852
11
4.58125
21
-2.78228
0
LINE
8
BLACK
6
CONTINUOUS
10
4.58125
20
-2.78228
11
4.58125
21
-2.81772
0
LINE
8
BLACK
6
CONTINUOUS
10
4.58125
20
-2.81772
11
4.5805
21
-2.82148
0
LINE
8
BLACK
6
CONTINUOUS
10
4.5805
20
-2.82148
11
4.57837
21
-2.82468
0
LINE
8
BLACK
6
CONTINUOUS
10
4.57837
20
-2.82468
11
4.57518
21
-2.82681
0
LINE
8
BLACK
6
CONTINUOUS
10
4.57518
20
-2.82681
11
4.57141
21
-2.82756
0
LINE
8
BLACK
6
CONTINUOUS
10
4.57141
20
-2.82756
11
4.54385
21
-2.82756
0
LINE
8
BLACK
6
CONTINUOUS
10
4.54385
20
-2.82756
11
4.54008
21
-2.82681
0
LINE
8
BLACK
6
CONTINUOUS
10
4.54008
20
-2.82681
11
4.53689
21
-2.82468
0
LINE
8
BLACK
6
CONTINUOUS
10
4.53689
20
-2.82468
11
4.53476
21
-2.82148
0
LINE
8
BLACK
6
CONTINUOUS
10
4.53476
20
-2.82148
11
4.53401
21
-2.81772
0
LINE
8
BLACK
6
CONTINUOUS
10
4.53401
20
-2.81772
11
4.53401
21
-2.78228
0
LINE
8
BLACK
6
CONTINUOUS
10
4.53401
20
-2.78228
11
4.53476
21
-2.77852
0
LINE
8
BLACK
6
CONTINUOUS
10
4.53476
20
-2.77852
11
4.53689
21
-2.77532
0
LINE
8
BLACK
6
CONTINUOUS
10
4.53689
20
-2.77532
11
4.54008
21
-2.77319
0
LINE
8
BLACK
6
CONTINUOUS
10
4.54008
20
-2.77319
11
4.54385
21
-2.77244
0
LINE
8
BLACK
6
CONTINUOUS
10
4.54385
20
-2.77244
11
4.57141
21
-2.77244
0
LINE
8
BLACK
6
CONTINUOUS
10
4.57141
20
-2.77244
11
4.57518
21
-2.77319
0
LINE
8
BLACK
6
CONTINUOUS
10
4.65392
20
-2.77319
11
4.65711
21
-2.77532
0
LINE
8
BLACK
6
CONTINUOUS
10
4.65711
20
-2.77532
11
4.65924
21
-2.77852
0
LINE
8
BLACK
6
CONTINUOUS
10
4.65924
20
-2.77852
11
4.65999
21
-2.78228
0
LINE
8
BLACK
6
CONTINUOUS
10
4.65999
20
-2.78228
11
4.65999
21
-2.81772
0
LINE
8
BLACK
6
CONTINUOUS
10
4.65999
20
-2.81772
11
4.65924
21
-2.82148
0
LINE
8
BLACK
6
CONTINUOUS
10
4.65924
20
-2.82148
11
4.65711
21
-2.82468
0
LINE
8
BLACK
6
CONTINUOUS
10
4.65711
20
-2.82468
11
4.65392
21
-2.82681
0
LINE
8
BLACK
6
CONTINUOUS
10
4.65392
20
-2.82681
11
4.65015
21
-2.82756
0
LINE
8
BLACK
6
CONTINUOUS
10
4.65015
20
-2.82756
11
4.62259
21
-2.82756
0
LINE
8
BLACK
6
CONTINUOUS
10
4.62259
20
-2.82756
11
4.61882
21
-2.82681
0
LINE
8
BLACK
6
CONTINUOUS
10
4.61882
20
-2.82681
11
4.61563
21
-2.82468
0
LINE
8
BLACK
6
CONTINUOUS
10
4.61563
20
-2.82468
11
4.6135
21
-2.82148
0
LINE
8
BLACK
6
CONTINUOUS
10
4.6135
20
-2.82148
11
4.61275
21
-2.81772
0
LINE
8
BLACK
6
CONTINUOUS
10
4.61275
20
-2.81772
11
4.61275
21
-2.78228
0
LINE
8
BLACK
6
CONTINUOUS
10
4.61275
20
-2.78228
11
4.6135
21
-2.77852
0
LINE
8
BLACK
6
CONTINUOUS
10
4.6135
20
-2.77852
11
4.61563
21
-2.77532
0
LINE
8
BLACK
6
CONTINUOUS
10
4.61563
20
-2.77532
11
4.61882
21
-2.77319
0
LINE
8
BLACK
6
CONTINUOUS
10
4.61882
20
-2.77319
11
4.62259
21
-2.77244
0
LINE
8
BLACK
6
CONTINUOUS
10
4.62259
20
-2.77244
11
4.65015
21
-2.77244
0
LINE
8
BLACK
6
CONTINUOUS
10
4.65015
20
-2.77244
11
4.65392
21
-2.77319
0
LINE
8
BLACK
6
CONTINUOUS
10
4.35571
20
-2.81969
11
4.32618
21
-2.81969
0
LINE
8
BLACK
6
CONTINUOUS
10
4.32618
20
-2.81969
11
4.32618
21
-2.80591
0
LINE
8
BLACK
6
CONTINUOUS
10
4.32618
20
-2.80591
11
4.35571
21
-2.80591
0
LINE
8
BLACK
6
CONTINUOUS
10
4.35571
20
-2.80591
11
4.35571
21
-2.81969
0
LINE
8
BLACK
6
CONTINUOUS
10
4.47382
20
-2.81969
11
4.44429
21
-2.81969
0
LINE
8
BLACK
6
CONTINUOUS
10
4.44429
20
-2.81969
11
4.44429
21
-2.80591
0
LINE
8
BLACK
6
CONTINUOUS
10
4.44429
20
-2.80591
11
4.47382
21
-2.80591
0
LINE
8
BLACK
6
CONTINUOUS
10
4.47382
20
-2.80591
11
4.47382
21
-2.81969
0
LINE
8
BLACK
6
CONTINUOUS
10
4.35571
20
-2.79409
11
4.32618
21
-2.79409
0
LINE
8
BLACK
6
CONTINUOUS
10
4.32618
20
-2.79409
11
4.32618
21
-2.78031
0
LINE
8
BLACK
6
CONTINUOUS
10
4.32618
20
-2.78031
11
4.35571
21
-2.78031
0
LINE
8
BLACK
6
CONTINUOUS
10
4.35571
20
-2.78031
11
4.35571
21
-2.79409
0
LINE
8
BLACK
6
CONTINUOUS
10
4.47382
20
-2.79409
11
4.44429
21
-2.79409
0
LINE
8
BLACK
6
CONTINUOUS
10
4.44429
20
-2.79409
11
4.44429
21
-2.78031
0
LINE
8
BLACK
6
CONTINUOUS
10
4.44429
20
-2.78031
11
4.47382
21
-2.78031
0
LINE
8
BLACK
6
CONTINUOUS
10
4.47382
20
-2.78031
11
4.47382
21
-2.79409
0
LINE
8
BLACK
6
CONTINUOUS
10
4.35571
20
-2.7685
11
4.32618
21
-2.7685
0
LINE
8
BLACK
6
CONTINUOUS
10
4.32618
20
-2.7685
11
4.32618
21
-2.75472
0
LINE
8
BLACK
6
CONTINUOUS
10
4.32618
20
-2.75472
11
4.35571
21
-2.75472
0
LINE
8
BLACK
6
CONTINUOUS
10
4.35571
20
-2.75472
11
4.35571
21
-2.7685
0
LINE
8
BLACK
6
CONTINUOUS
10
4.47382
20
-2.7685
11
4.44429
21
-2.7685
0
LINE
8
BLACK
6
CONTINUOUS
10
4.44429
20
-2.7685
11
4.44429
21
-2.75472
0
LINE
8
BLACK
6
CONTINUOUS
10
4.44429
20
-2.75472
11
4.47382
21
-2.75472
0
LINE
8
BLACK
6
CONTINUOUS
10
4.47382
20
-2.75472
11
4.47382
21
-2.7685
0
LINE
8
BLACK
6
CONTINUOUS
10
4.57518
20
-2.69519
11
4.57837
21
-2.69732
0
LINE
8
BLACK
6
CONTINUOUS
10
4.57837
20
-2.69732
11
4.5805
21
-2.70052
0
LINE
8
BLACK
6
CONTINUOUS
10
4.5805
20
-2.70052
11
4.58125
21
-2.70428
0
LINE
8
BLACK
6
CONTINUOUS
10
4.58125
20
-2.70428
11
4.58125
21
-2.73972
0
LINE
8
BLACK
6
CONTINUOUS
10
4.58125
20
-2.73972
11
4.5805
21
-2.74348
0
LINE
8
BLACK
6
CONTINUOUS
10
4.5805
20
-2.74348
11
4.57837
21
-2.74668
0
LINE
8
BLACK
6
CONTINUOUS
10
4.57837
20
-2.74668
11
4.57518
21
-2.74881
0
LINE
8
BLACK
6
CONTINUOUS
10
4.57518
20
-2.74881
11
4.57141
21
-2.74956
0
LINE
8
BLACK
6
CONTINUOUS
10
4.57141
20
-2.74956
11
4.54385
21
-2.74956
0
LINE
8
BLACK
6
CONTINUOUS
10
4.54385
20
-2.74956
11
4.54008
21
-2.74881
0
LINE
8
BLACK
6
CONTINUOUS
10
4.54008
20
-2.74881
11
4.53689
21
-2.74668
0
LINE
8
BLACK
6
CONTINUOUS
10
4.53689
20
-2.74668
11
4.53476
21
-2.74348
0
LINE
8
BLACK
6
CONTINUOUS
10
4.53476
20
-2.74348
11
4.53401
21
-2.73972
0
LINE
8
BLACK
6
CONTINUOUS
10
4.53401
20
-2.73972
11
4.53401
21
-2.70428
0
LINE
8
BLACK
6
CONTINUOUS
10
4.53401
20
-2.70428
11
4.53476
21
-2.70052
0
LINE
8
BLACK
6
CONTINUOUS
10
4.53476
20
-2.70052
11
4.53689
21
-2.69732
0
LINE
8
BLACK
6
CONTINUOUS
10
4.53689
20
-2.69732
11
4.54008
21
-2.69519
0
LINE
8
BLACK
6
CONTINUOUS
10
4.54008
20
-2.69519
11
4.54385
21
-2.69444
0
LINE
8
BLACK
6
CONTINUOUS
10
4.54385
20
-2.69444
11
4.57141
21
-2.69444
0
LINE
8
BLACK
6
CONTINUOUS
10
4.57141
20
-2.69444
11
4.57518
21
-2.69519
0
LINE
8
BLACK
6
CONTINUOUS
10
4.65392
20
-2.69519
11
4.65711
21
-2.69732
0
LINE
8
BLACK
6
CONTINUOUS
10
4.65711
20
-2.69732
11
4.65924
21
-2.70052
0
LINE
8
BLACK
6
CONTINUOUS
10
4.65924
20
-2.70052
11
4.65999
21
-2.70428
0
LINE
8
BLACK
6
CONTINUOUS
10
4.65999
20
-2.70428
11
4.65999
21
-2.73972
0
LINE
8
BLACK
6
CONTINUOUS
10
4.65999
20
-2.73972
11
4.65924
21
-2.74348
0
LINE
8
BLACK
6
CONTINUOUS
10
4.65924
20
-2.74348
11
4.65711
21
-2.74668
0
LINE
8
BLACK
6
CONTINUOUS
10
4.65711
20
-2.74668
11
4.65392
21
-2.74881
0
LINE
8
BLACK
6
CONTINUOUS
10
4.65392
20
-2.74881
11
4.65015
21
-2.74956
0
LINE
8
BLACK
6
CONTINUOUS
10
4.65015
20
-2.74956
11
4.62259
21
-2.74956
0
LINE
8
BLACK
6
CONTINUOUS
10
4.62259
20
-2.74956
11
4.61882
21
-2.74881
0
LINE
8
BLACK
6
CONTINUOUS
10
4.61882
20
-2.74881
11
4.61563
21
-2.74668
0
LINE
8
BLACK
6
CONTINUOUS
10
4.61563
20
-2.74668
11
4.6135
21
-2.74348
0
LINE
8
BLACK
6
CONTINUOUS
10
4.6135
20
-2.74348
11
4.61275
21
-2.73972
0
LINE
8
BLACK
6
CONTINUOUS
10
4.61275
20
-2.73972
11
4.61275
21
-2.70428
0
LINE
8
BLACK
6
CONTINUOUS
10
4.61275
20
-2.70428
11
4.6135
21
-2.70052
0
LINE
8
BLACK
6
CONTINUOUS
10
4.6135
20
-2.70052
11
4.61563
21
-2.69732
0
LINE
8
BLACK
6
CONTINUOUS
10
4.61563
20
-2.69732
11
4.61882
21
-2.69519
0
LINE
8
BLACK
6
CONTINUOUS
10
4.61882
20
-2.69519
11
4.62259
21
-2.69444
0
LINE
8
BLACK
6
CONTINUOUS
10
4.62259
20
-2.69444
11
4.65015
21
-2.69444
0
LINE
8
BLACK
6
CONTINUOUS
10
4.65015
20
-2.69444
11
4.65392
21
-2.69519
0
LINE
8
BLACK
6
CONTINUOUS
10
4.22147
20
-2.67631
11
4.22466
21
-2.67845
0
LINE
8
BLACK
6
CONTINUOUS
10
4.22466
20
-2.67845
11
4.22679
21
-2.68164
0
LINE
8
BLACK
6
CONTINUOUS
10
4.22679
20
-2.68164
11
4.22754
21
-2.68541
0
LINE
8
BLACK
6
CONTINUOUS
10
4.22754
20
-2.68541
11
4.22754
21
-2.71198
0
LINE
8
BLACK
6
CONTINUOUS
10
4.22754
20
-2.71198
11
4.22679
21
-2.71575
0
LINE
8
BLACK
6
CONTINUOUS
10
4.22679
20
-2.71575
11
4.22466
21
-2.71894
0
LINE
8
BLACK
6
CONTINUOUS
10
4.22466
20
-2.71894
11
4.22147
21
-2.72107
0
LINE
8
BLACK
6
CONTINUOUS
10
4.22147
20
-2.72107
11
4.2177
21
-2.72182
0
LINE
8
BLACK
6
CONTINUOUS
10
4.2177
20
-2.72182
11
4.1803
21
-2.72182
0
LINE
8
BLACK
6
CONTINUOUS
10
4.1803
20
-2.72182
11
4.17653
21
-2.72107
0
LINE
8
BLACK
6
CONTINUOUS
10
4.17653
20
-2.72107
11
4.17334
21
-2.71894
0
LINE
8
BLACK
6
CONTINUOUS
10
4.17334
20
-2.71894
11
4.17121
21
-2.71575
0
LINE
8
BLACK
6
CONTINUOUS
10
4.17121
20
-2.71575
11
4.17046
21
-2.71198
0
LINE
8
BLACK
6
CONTINUOUS
10
4.17046
20
-2.71198
11
4.17046
21
-2.68541
0
LINE
8
BLACK
6
CONTINUOUS
10
4.17046
20
-2.68541
11
4.17121
21
-2.68164
0
LINE
8
BLACK
6
CONTINUOUS
10
4.17121
20
-2.68164
11
4.17334
21
-2.67845
0
LINE
8
BLACK
6
CONTINUOUS
10
4.17334
20
-2.67845
11
4.17653
21
-2.67631
0
LINE
8
BLACK
6
CONTINUOUS
10
4.17653
20
-2.67631
11
4.1803
21
-2.67556
0
LINE
8
BLACK
6
CONTINUOUS
10
4.1803
20
-2.67556
11
4.2177
21
-2.67556
0
LINE
8
BLACK
6
CONTINUOUS
10
4.2177
20
-2.67556
11
4.22147
21
-2.67631
0
LINE
8
BLACK
6
CONTINUOUS
10
4.02051
20
-2.48368
11
4.03387
21
-2.48685
0
LINE
8
BLACK
6
CONTINUOUS
10
4.03387
20
-2.48685
11
4.04678
21
-2.49155
0
LINE
8
BLACK
6
CONTINUOUS
10
4.04678
20
-2.49155
11
4.05906
21
-2.49771
0
LINE
8
BLACK
6
CONTINUOUS
10
4.05906
20
-2.49771
11
4.07053
21
-2.50526
0
LINE
8
BLACK
6
CONTINUOUS
10
4.07053
20
-2.50526
11
4.08105
21
-2.51409
0
LINE
8
BLACK
6
CONTINUOUS
10
4.08105
20
-2.51409
11
4.09048
21
-2.52408
0
LINE
8
BLACK
6
CONTINUOUS
10
4.09048
20
-2.52408
11
4.09868
21
-2.5351
0
LINE
8
BLACK
6
CONTINUOUS
10
4.09868
20
-2.5351
11
4.10555
21
-2.54699
0
LINE
8
BLACK
6
CONTINUOUS
10
4.10555
20
-2.54699
11
4.11099
21
-2.5596
0
LINE
8
BLACK
6
CONTINUOUS
10
4.11099
20
-2.5596
11
4.11493
21
-2.57276
0
LINE
8
BLACK
6
CONTINUOUS
10
4.11493
20
-2.57276
11
4.11731
21
-2.58629
0
LINE
8
BLACK
6
CONTINUOUS
10
4.11731
20
-2.58629
11
4.11811
21
-2.6
0
LINE
8
BLACK
6
CONTINUOUS
10
4.11811
20
-2.6
11
4.11731
21
-2.61371
0
LINE
8
BLACK
6
CONTINUOUS
10
4.11731
20
-2.61371
11
4.11493
21
-2.62724
0
LINE
8
BLACK
6
CONTINUOUS
10
4.11493
20
-2.62724
11
4.11099
21
-2.6404
0
LINE
8
BLACK
6
CONTINUOUS
10
4.11099
20
-2.6404
11
4.10555
21
-2.65301
0
LINE
8
BLACK
6
CONTINUOUS
10
4.10555
20
-2.65301
11
4.09868
21
-2.6649
0
LINE
8
BLACK
6
CONTINUOUS
10
4.09868
20
-2.6649
11
4.09048
21
-2.67592
0
LINE
8
BLACK
6
CONTINUOUS
10
4.09048
20
-2.67592
11
4.08105
21
-2.68591
0
LINE
8
BLACK
6
CONTINUOUS
10
4.08105
20
-2.68591
11
4.07053
21
-2.69474
0
LINE
8
BLACK
6
CONTINUOUS
10
4.07053
20
-2.69474
11
4.05906
21
-2.70229
0
LINE
8
BLACK
6
CONTINUOUS
10
4.05906
20
-2.70229
11
4.04678
21
-2.70845
0
LINE
8
BLACK
6
CONTINUOUS
10
4.04678
20
-2.70845
11
4.03387
21
-2.71315
0
LINE
8
BLACK
6
CONTINUOUS
10
4.03387
20
-2.71315
11
4.02051
21
-2.71632
0
LINE
8
BLACK
6
CONTINUOUS
10
4.02051
20
-2.71632
11
4.00687
21
-2.71791
0
LINE
8
BLACK
6
CONTINUOUS
10
4.00687
20
-2.71791
11
3.99313
21
-2.71791
0
LINE
8
BLACK
6
CONTINUOUS
10
3.99313
20
-2.71791
11
3.97949
21
-2.71632
0
LINE
8
BLACK
6
CONTINUOUS
10
3.97949
20
-2.71632
11
3.96613
21
-2.71315
0
LINE
8
BLACK
6
CONTINUOUS
10
3.96613
20
-2.71315
11
3.95322
21
-2.70845
0
LINE
8
BLACK
6
CONTINUOUS
10
3.95322
20
-2.70845
11
3.94094
21
-2.70229
0
LINE
8
BLACK
6
CONTINUOUS
10
3.94094
20
-2.70229
11
3.92947
21
-2.69474
0
LINE
8
BLACK
6
CONTINUOUS
10
3.92947
20
-2.69474
11
3.91895
21
-2.68591
0
LINE
8
BLACK
6
CONTINUOUS
10
3.91895
20
-2.68591
11
3.90952
21
-2.67592
0
LINE
8
BLACK
6
CONTINUOUS
10
3.90952
20
-2.67592
11
3.90132
21
-2.6649
0
LINE
8
BLACK
6
CONTINUOUS
10
3.90132
20
-2.6649
11
3.89445
21
-2.65301
0
LINE
8
BLACK
6
CONTINUOUS
10
3.89445
20
-2.65301
11
3.88901
21
-2.6404
0
LINE
8
BLACK
6
CONTINUOUS
10
3.88901
20
-2.6404
11
3.88507
21
-2.62724
0
LINE
8
BLACK
6
CONTINUOUS
10
3.88507
20
-2.62724
11
3.88269
21
-2.61371
0
LINE
8
BLACK
6
CONTINUOUS
10
3.88269
20
-2.61371
11
3.88189
21
-2.6
0
LINE
8
BLACK
6
CONTINUOUS
10
3.88189
20
-2.6
11
3.88269
21
-2.58629
0
LINE
8
BLACK
6
CONTINUOUS
10
3.88269
20
-2.58629
11
3.88507
21
-2.57276
0
LINE
8
BLACK
6
CONTINUOUS
10
3.88507
20
-2.57276
11
3.88901
21
-2.5596
0
LINE
8
BLACK
6
CONTINUOUS
10
3.88901
20
-2.5596
11
3.89445
21
-2.54699
0
LINE
8
BLACK
6
CONTINUOUS
10
3.89445
20
-2.54699
11
3.90132
21
-2.5351
0
LINE
8
BLACK
6
CONTINUOUS
10
3.90132
20
-2.5351
11
3.90952
21
-2.52408
0
LINE
8
BLACK
6
CONTINUOUS
10
3.90952
20
-2.52408
11
3.91895
21
-2.51409
0
LINE
8
BLACK
6
CONTINUOUS
10
3.91895
20
-2.51409
11
3.92947
21
-2.50526
0
LINE
8
BLACK
6
CONTINUOUS
10
3.92947
20
-2.50526
11
3.94094
21
-2.49771
0
LINE
8
BLACK
6
CONTINUOUS
10
3.94094
20
-2.49771
11
3.95322
21
-2.49155
0
LINE
8
BLACK
6
CONTINUOUS
10
3.95322
20
-2.49155
11
3.96613
21
-2.48685
0
LINE
8
BLACK
6
CONTINUOUS
10
3.96613
20
-2.48685
11
3.97949
21
-2.48368
0
LINE
8
BLACK
6
CONTINUOUS
10
3.97949
20
-2.48368
11
3.99313
21
-2.48209
0
LINE
8
BLACK
6
CONTINUOUS
10
3.99313
20
-2.48209
11
4.00687
21
-2.48209
0
LINE
8
BLACK
6
CONTINUOUS
10
4.00687
20
-2.48209
11
4.02051
21
-2.48368
0
LINE
8
BLACK
6
CONTINUOUS
10
4.82051
20
-2.48368
11
4.83387
21
-2.48685
0
LINE
8
BLACK
6
CONTINUOUS
10
4.83387
20
-2.48685
11
4.84678
21
-2.49155
0
LINE
8
BLACK
6
CONTINUOUS
10
4.84678
20
-2.49155
11
4.85906
21
-2.49771
0
LINE
8
BLACK
6
CONTINUOUS
10
4.85906
20
-2.49771
11
4.87053
21
-2.50526
0
LINE
8
BLACK
6
CONTINUOUS
10
4.87053
20
-2.50526
11
4.88105
21
-2.51409
0
LINE
8
BLACK
6
CONTINUOUS
10
4.88105
20
-2.51409
11
4.89048
21
-2.52408
0
LINE
8
BLACK
6
CONTINUOUS
10
4.89048
20
-2.52408
11
4.89868
21
-2.5351
0
LINE
8
BLACK
6
CONTINUOUS
10
4.89868
20
-2.5351
11
4.90555
21
-2.54699
0
LINE
8
BLACK
6
CONTINUOUS
10
4.90555
20
-2.54699
11
4.91099
21
-2.5596
0
LINE
8
BLACK
6
CONTINUOUS
10
4.91099
20
-2.5596
11
4.91493
21
-2.57276
0
LINE
8
BLACK
6
CONTINUOUS
10
4.91493
20
-2.57276
11
4.91731
21
-2.58629
0
LINE
8
BLACK
6
CONTINUOUS
10
4.91731
20
-2.58629
11
4.91811
21
-2.6
0
LINE
8
BLACK
6
CONTINUOUS
10
4.91811
20
-2.6
11
4.91731
21
-2.61371
0
LINE
8
BLACK
6
CONTINUOUS
10
4.91731
20
-2.61371
11
4.91493
21
-2.62724
0
LINE
8
BLACK
6
CONTINUOUS
10
4.91493
20
-2.62724
11
4.91099
21
-2.6404
0
LINE
8
BLACK
6
CONTINUOUS
10
4.91099
20
-2.6404
11
4.90555
21
-2.65301
0
LINE
8
BLACK
6
CONTINUOUS
10
4.90555
20
-2.65301
11
4.89868
21
-2.6649
0
LINE
8
BLACK
6
CONTINUOUS
10
4.89868
20
-2.6649
11
4.89048
21
-2.67592
0
LINE
8
BLACK
6
CONTINUOUS
10
4.89048
20
-2.67592
11
4.88105
21
-2.68591
0
LINE
8
BLACK
6
CONTINUOUS
10
4.88105
20
-2.68591
11
4.87053
21
-2.69474
0
LINE
8
BLACK
6
CONTINUOUS
10
4.87053
20
-2.69474
11
4.85906
21
-2.70229
0
LINE
8
BLACK
6
CONTINUOUS
10
4.85906
20
-2.70229
11
4.84678
21
-2.70845
0
LINE
8
BLACK
6
CONTINUOUS
10
4.84678
20
-2.70845
11
4.83387
21
-2.71315
0
LINE
8
BLACK
6
CONTINUOUS
10
4.83387
20
-2.71315
11
4.82051
21
-2.71632
0
LINE
8
BLACK
6
CONTINUOUS
10
4.82051
20
-2.71632
11
4.80687
21
-2.71791
0
LINE
8
BLACK
6
CONTINUOUS
10
4.80687
20
-2.71791
11
4.79313
21
-2.71791
0
LINE
8
BLACK
6
CONTINUOUS
10
4.79313
20
-2.71791
11
4.77949
21
-2.71632
0
LINE
8
BLACK
6
CONTINUOUS
10
4.77949
20
-2.71632
11
4.76613
21
-2.71315
0
LINE
8
BLACK
6
CONTINUOUS
10
4.76613
20
-2.71315
11
4.75322
21
-2.70845
0
LINE
8
BLACK
6
CONTINUOUS
10
4.75322
20
-2.70845
11
4.74094
21
-2.70229
0
LINE
8
BLACK
6
CONTINUOUS
10
4.74094
20
-2.70229
11
4.72947
21
-2.69474
0
LINE
8
BLACK
6
CONTINUOUS
10
4.72947
20
-2.69474
11
4.71895
21
-2.68591
0
LINE
8
BLACK
6
CONTINUOUS
10
4.71895
20
-2.68591
11
4.70952
21
-2.67592
0
LINE
8
BLACK
6
CONTINUOUS
10
4.70952
20
-2.67592
11
4.70132
21
-2.6649
0
LINE
8
BLACK
6
CONTINUOUS
10
4.70132
20
-2.6649
11
4.69445
21
-2.65301
0
LINE
8
BLACK
6
CONTINUOUS
10
4.69445
20
-2.65301
11
4.68901
21
-2.6404
0
LINE
8
BLACK
6
CONTINUOUS
10
4.68901
20
-2.6404
11
4.68507
21
-2.62724
0
LINE
8
BLACK
6
CONTINUOUS
10
4.68507
20
-2.62724
11
4.68269
21
-2.61371
0
LINE
8
BLACK
6
CONTINUOUS
10
4.68269
20
-2.61371
11
4.68189
21
-2.6
0
LINE
8
BLACK
6
CONTINUOUS
10
4.68189
20
-2.6
11
4.68269
21
-2.58629
0
LINE
8
BLACK
6
CONTINUOUS
10
4.68269
20
-2.58629
11
4.68507
21
-2.57276
0
LINE
8
BLACK
6
CONTINUOUS
10
4.68507
20
-2.57276
11
4.68901
21
-2.5596
0
LINE
8
BLACK
6
CONTINUOUS
10
4.68901
20
-2.5596
11
4.69445
21
-2.54699
0
LINE
8
BLACK
6
CONTINUOUS
10
4.69445
20
-2.54699
11
4.70132
21
-2.5351
0
LINE
8
BLACK
6
CONTINUOUS
10
4.70132
20
-2.5351
11
4.70952
21
-2.52408
0
LINE
8
BLACK
6
CONTINUOUS
10
4.70952
20
-2.52408
11
4.71895
21
-2.51409
0
LINE
8
BLACK
6
CONTINUOUS
10
4.71895
20
-2.51409
11
4.72947
21
-2.50526
0
LINE
8
BLACK
6
CONTINUOUS
10
4.72947
20
-2.50526
11
4.74094
21
-2.49771
0
LINE
8
BLACK
6
CONTINUOUS
10
4.74094
20
-2.49771
11
4.75322
21
-2.49155
0
LINE
8
BLACK
6
CONTINUOUS
10
4.75322
20
-2.49155
11
4.76613
21
-2.48685
0
LINE
8
BLACK
6
CONTINUOUS
10
4.76613
20
-2.48685
11
4.77949
21
-2.48368
0
LINE
8
BLACK
6
CONTINUOUS
10
4.77949
20
-2.48368
11
4.79313
21
-2.48209
0
LINE
8
BLACK
6
CONTINUOUS
10
4.79313
20
-2.48209
11
4.80687
21
-2.48209
0
LINE
8
BLACK
6
CONTINUOUS
10
4.80687
20
-2.48209
11
4.82051
21
-2.48368
0
LINE
8
BLACK
6
CONTINUOUS
10
4.22147
20
-2.59462
11
4.22466
21
-2.59675
0
LINE
8
BLACK
6
CONTINUOUS
10
4.22466
20
-2.59675
11
4.22679
21
-2.59995
0
LINE
8
BLACK
6
CONTINUOUS
10
4.22679
20
-2.59995
11
4.22754
21
-2.60371
0
LINE
8
BLACK
6
CONTINUOUS
10
4.22754
20
-2.60371
11
4.22754
21
-2.63029
0
LINE
8
BLACK
6
CONTINUOUS
10
4.22754
20
-2.63029
11
4.22679
21
-2.63405
0
LINE
8
BLACK
6
CONTINUOUS
10
4.22679
20
-2.63405
11
4.22466
21
-2.63725
0
LINE
8
BLACK
6
CONTINUOUS
10
4.22466
20
-2.63725
11
4.22147
21
-2.63938
0
LINE
8
BLACK
6
CONTINUOUS
10
4.22147
20
-2.63938
11
4.2177
21
-2.64013
0
LINE
8
BLACK
6
CONTINUOUS
10
4.2177
20
-2.64013
11
4.1803
21
-2.64013
0
LINE
8
BLACK
6
CONTINUOUS
10
4.1803
20
-2.64013
11
4.17653
21
-2.63938
0
LINE
8
BLACK
6
CONTINUOUS
10
4.17653
20
-2.63938
11
4.17334
21
-2.63725
0
LINE
8
BLACK
6
CONTINUOUS
10
4.17334
20
-2.63725
11
4.17121
21
-2.63405
0
LINE
8
BLACK
6
CONTINUOUS
10
4.17121
20
-2.63405
11
4.17046
21
-2.63029
0
LINE
8
BLACK
6
CONTINUOUS
10
4.17046
20
-2.63029
11
4.17046
21
-2.60371
0
LINE
8
BLACK
6
CONTINUOUS
10
4.17046
20
-2.60371
11
4.17121
21
-2.59995
0
LINE
8
BLACK
6
CONTINUOUS
10
4.17121
20
-2.59995
11
4.17334
21
-2.59675
0
LINE
8
BLACK
6
CONTINUOUS
10
4.17334
20
-2.59675
11
4.17653
21
-2.59462
0
LINE
8
BLACK
6
CONTINUOUS
10
4.17653
20
-2.59462
11
4.1803
21
-2.59387
0
LINE
8
BLACK
6
CONTINUOUS
10
4.1803
20
-2.59387
11
4.2177
21
-2.59387
0
LINE
8
BLACK
6
CONTINUOUS
10
4.2177
20
-2.59387
11
4.22147
21
-2.59462
0
LINE
8
BLACK
6
CONTINUOUS
10
4.32539
20
-2.62906
11
4.29193
21
-2.62906
0
LINE
8
BLACK
6
CONTINUOUS
10
4.29193
20
-2.62906
11
4.29193
21
-2.61331
0
LINE
8
BLACK
6
CONTINUOUS
10
4.29193
20
-2.61331
11
4.32539
21
-2.61331
0
LINE
8
BLACK
6
CONTINUOUS
10
4.32539
20
-2.61331
11
4.32539
21
-2.62906
0
LINE
8
BLACK
6
CONTINUOUS
10
4.40807
20
-2.62906
11
4.37461
21
-2.62906
0
LINE
8
BLACK
6
CONTINUOUS
10
4.37461
20
-2.62906
11
4.37461
21
-2.61331
0
LINE
8
BLACK
6
CONTINUOUS
10
4.37461
20
-2.61331
11
4.40807
21
-2.61331
0
LINE
8
BLACK
6
CONTINUOUS
10
4.40807
20
-2.61331
11
4.40807
21
-2.62906
0
LINE
8
BLACK
6
CONTINUOUS
10
4.40807
20
-2.60346
11
4.37461
21
-2.60346
0
LINE
8
BLACK
6
CONTINUOUS
10
4.37461
20
-2.60346
11
4.37461
21
-2.58772
0
LINE
8
BLACK
6
CONTINUOUS
10
4.37461
20
-2.58772
11
4.40807
21
-2.58772
0
LINE
8
BLACK
6
CONTINUOUS
10
4.40807
20
-2.58772
11
4.40807
21
-2.60346
0
LINE
8
BLACK
6
CONTINUOUS
10
4.32539
20
-2.57787
11
4.29193
21
-2.57787
0
LINE
8
BLACK
6
CONTINUOUS
10
4.29193
20
-2.57787
11
4.29193
21
-2.56213
0
LINE
8
BLACK
6
CONTINUOUS
10
4.29193
20
-2.56213
11
4.32539
21
-2.56213
0
LINE
8
BLACK
6
CONTINUOUS
10
4.32539
20
-2.56213
11
4.32539
21
-2.57787
0
LINE
8
BLACK
6
CONTINUOUS
10
4.40807
20
-2.57787
11
4.37461
21
-2.57787
0
LINE
8
BLACK
6
CONTINUOUS
10
4.37461
20
-2.57787
11
4.37461
21
-2.56213
0
LINE
8
BLACK
6
CONTINUOUS
10
4.37461
20
-2.56213
11
4.40807
21
-2.56213
0
LINE
8
BLACK
6
CONTINUOUS
10
4.40807
20
-2.56213
11
4.40807
21
-2.57787
0
LINE
8
BLACK
6
CONTINUOUS
10
4.22247
20
-2.52362
11
4.22566
21
-2.52575
0
LINE
8
BLACK
6
CONTINUOUS
10
4.22566
20
-2.52575
11
4.22779
21
-2.52895
0
LINE
8
BLACK
6
CONTINUOUS
10
4.22779
20
-2.52895
11
4.22854
21
-2.53271
0
LINE
8
BLACK
6
CONTINUOUS
10
4.22854
20
-2.53271
11
4.22854
21
-2.55929
0
LINE
8
BLACK
6
CONTINUOUS
10
4.22854
20
-2.55929
11
4.22779
21
-2.56305
0
LINE
8
BLACK
6
CONTINUOUS
10
4.22779
20
-2.56305
11
4.22566
21
-2.56625
0
LINE
8
BLACK
6
CONTINUOUS
10
4.22566
20
-2.56625
11
4.22247
21
-2.56838
0
LINE
8
BLACK
6
CONTINUOUS
10
4.22247
20
-2.56838
11
4.2187
21
-2.56913
0
LINE
8
BLACK
6
CONTINUOUS
10
4.2187
20
-2.56913
11
4.1813
21
-2.56913
0
LINE
8
BLACK
6
CONTINUOUS
10
4.1813
20
-2.56913
11
4.17753
21
-2.56838
0
LINE
8
BLACK
6
CONTINUOUS
10
4.17753
20
-2.56838
11
4.17434
21
-2.56625
0
LINE
8
BLACK
6
CONTINUOUS
10
4.17434
20
-2.56625
11
4.17221
21
-2.56305
0
LINE
8
BLACK
6
CONTINUOUS
10
4.17221
20
-2.56305
11
4.17146
21
-2.55929
0
LINE
8
BLACK
6
CONTINUOUS
10
4.17146
20
-2.55929
11
4.17146
21
-2.53271
0
LINE
8
BLACK
6
CONTINUOUS
10
4.17146
20
-2.53271
11
4.17221
21
-2.52895
0
LINE
8
BLACK
6
CONTINUOUS
10
4.17221
20
-2.52895
11
4.17434
21
-2.52575
0
LINE
8
BLACK
6
CONTINUOUS
10
4.17434
20
-2.52575
11
4.17753
21
-2.52362
0
LINE
8
BLACK
6
CONTINUOUS
10
4.17753
20
-2.52362
11
4.1813
21
-2.52287
0
LINE
8
BLACK
6
CONTINUOUS
10
4.1813
20
-2.52287
11
4.2187
21
-2.52287
0
LINE
8
BLACK
6
CONTINUOUS
10
4.2187
20
-2.52287
11
4.22247
21
-2.52362
0
LINE
8
BLACK
6
CONTINUOUS
10
4.29534
20
-2.4591
11
4.29853
21
-2.46123
0
LINE
8
BLACK
6
CONTINUOUS
10
4.29853
20
-2.46123
11
4.30067
21
-2.46442
0
LINE
8
BLACK
6
CONTINUOUS
10
4.30067
20
-2.46442
11
4.30142
21
-2.46819
0
LINE
8
BLACK
6
CONTINUOUS
10
4.30142
20
-2.46819
11
4.30142
21
-2.49181
0
LINE
8
BLACK
6
CONTINUOUS
10
4.30142
20
-2.49181
11
4.30067
21
-2.49558
0
LINE
8
BLACK
6
CONTINUOUS
10
4.30067
20
-2.49558
11
4.29853
21
-2.49877
0
LINE
8
BLACK
6
CONTINUOUS
10
4.29853
20
-2.49877
11
4.29534
21
-2.5009
0
LINE
8
BLACK
6
CONTINUOUS
10
4.29534
20
-2.5009
11
4.29157
21
-2.50165
0
LINE
8
BLACK
6
CONTINUOUS
10
4.29157
20
-2.50165
11
4.26795
21
-2.50165
0
LINE
8
BLACK
6
CONTINUOUS
10
4.26795
20
-2.50165
11
4.26419
21
-2.5009
0
LINE
8
BLACK
6
CONTINUOUS
10
4.26419
20
-2.5009
11
4.26099
21
-2.49877
0
LINE
8
BLACK
6
CONTINUOUS
10
4.26099
20
-2.49877
11
4.25886
21
-2.49558
0
LINE
8
BLACK
6
CONTINUOUS
10
4.25886
20
-2.49558
11
4.25811
21
-2.49181
0
LINE
8
BLACK
6
CONTINUOUS
10
4.25811
20
-2.49181
11
4.25811
21
-2.46819
0
LINE
8
BLACK
6
CONTINUOUS
10
4.25811
20
-2.46819
11
4.25886
21
-2.46442
0
LINE
8
BLACK
6
CONTINUOUS
10
4.25886
20
-2.46442
11
4.26099
21
-2.46123
0
LINE
8
BLACK
6
CONTINUOUS
10
4.26099
20
-2.46123
11
4.26419
21
-2.4591
0
LINE
8
BLACK
6
CONTINUOUS
10
4.26419
20
-2.4591
11
4.26795
21
-2.45835
0
LINE
8
BLACK
6
CONTINUOUS
10
4.26795
20
-2.45835
11
4.29157
21
-2.45835
0
LINE
8
BLACK
6
CONTINUOUS
10
4.29157
20
-2.45835
11
4.29534
21
-2.4591
0
LINE
8
BLACK
6
CONTINUOUS
10
4.40558
20
-2.4591
11
4.40877
21
-2.46123
0
LINE
8
BLACK
6
CONTINUOUS
10
4.40877
20
-2.46123
11
4.4109
21
-2.46442
0
LINE
8
BLACK
6
CONTINUOUS
10
4.4109
20
-2.46442
11
4.41165
21
-2.46819
0
LINE
8
BLACK
6
CONTINUOUS
10
4.41165
20
-2.46819
11
4.41165
21
-2.49181
0
LINE
8
BLACK
6
CONTINUOUS
10
4.41165
20
-2.49181
11
4.4109
21
-2.49558
0
LINE
8
BLACK
6
CONTINUOUS
10
4.4109
20
-2.49558
11
4.40877
21
-2.49877
0
LINE
8
BLACK
6
CONTINUOUS
10
4.40877
20
-2.49877
11
4.40558
21
-2.5009
0
LINE
8
BLACK
6
CONTINUOUS
10
4.40558
20
-2.5009
11
4.40181
21
-2.50165
0
LINE
8
BLACK
6
CONTINUOUS
10
4.40181
20
-2.50165
11
4.37819
21
-2.50165
0
LINE
8
BLACK
6
CONTINUOUS
10
4.37819
20
-2.50165
11
4.37442
21
-2.5009
0
LINE
8
BLACK
6
CONTINUOUS
10
4.37442
20
-2.5009
11
4.37123
21
-2.49877
0
LINE
8
BLACK
6
CONTINUOUS
10
4.37123
20
-2.49877
11
4.3691
21
-2.49558
0
LINE
8
BLACK
6
CONTINUOUS
10
4.3691
20
-2.49558
11
4.36835
21
-2.49181
0
LINE
8
BLACK
6
CONTINUOUS
10
4.36835
20
-2.49181
11
4.36835
21
-2.46819
0
LINE
8
BLACK
6
CONTINUOUS
10
4.36835
20
-2.46819
11
4.3691
21
-2.46442
0
LINE
8
BLACK
6
CONTINUOUS
10
4.3691
20
-2.46442
11
4.37123
21
-2.46123
0
LINE
8
BLACK
6
CONTINUOUS
10
4.37123
20
-2.46123
11
4.37442
21
-2.4591
0
LINE
8
BLACK
6
CONTINUOUS
10
4.37442
20
-2.4591
11
4.37819
21
-2.45835
0
LINE
8
BLACK
6
CONTINUOUS
10
4.37819
20
-2.45835
11
4.40181
21
-2.45835
0
LINE
8
BLACK
6
CONTINUOUS
10
4.40181
20
-2.45835
11
4.40558
21
-2.4591
0
LINE
8
BLACK
6
CONTINUOUS
10
4.22247
20
-2.44193
11
4.22566
21
-2.44406
0
LINE
8
BLACK
6
CONTINUOUS
10
4.22566
20
-2.44406
11
4.22779
21
-2.44725
0
LINE
8
BLACK
6
CONTINUOUS
10
4.22779
20
-2.44725
11
4.22854
21
-2.45102
0
LINE
8
BLACK
6
CONTINUOUS
10
4.22854
20
-2.45102
11
4.22854
21
-2.47759
0
LINE
8
BLACK
6
CONTINUOUS
10
4.22854
20
-2.47759
11
4.22779
21
-2.48136
0
LINE
8
BLACK
6
CONTINUOUS
10
4.22779
20
-2.48136
11
4.22566
21
-2.48455
0
LINE
8
BLACK
6
CONTINUOUS
10
4.22566
20
-2.48455
11
4.22247
21
-2.48669
0
LINE
8
BLACK
6
CONTINUOUS
10
4.22247
20
-2.48669
11
4.2187
21
-2.48744
0
LINE
8
BLACK
6
CONTINUOUS
10
4.2187
20
-2.48744
11
4.1813
21
-2.48744
0
LINE
8
BLACK
6
CONTINUOUS
10
4.1813
20
-2.48744
11
4.17753
21
-2.48669
0
LINE
8
BLACK
6
CONTINUOUS
10
4.17753
20
-2.48669
11
4.17434
21
-2.48455
0
LINE
8
BLACK
6
CONTINUOUS
10
4.17434
20
-2.48455
11
4.17221
21
-2.48136
0
LINE
8
BLACK
6
CONTINUOUS
10
4.17221
20
-2.48136
11
4.17146
21
-2.47759
0
LINE
8
BLACK
6
CONTINUOUS
10
4.17146
20
-2.47759
11
4.17146
21
-2.45102
0
LINE
8
BLACK
6
CONTINUOUS
10
4.17146
20
-2.45102
11
4.17221
21
-2.44725
0
LINE
8
BLACK
6
CONTINUOUS
10
4.17221
20
-2.44725
11
4.17434
21
-2.44406
0
LINE
8
BLACK
6
CONTINUOUS
10
4.17434
20
-2.44406
11
4.17753
21
-2.44193
0
LINE
8
BLACK
6
CONTINUOUS
10
4.17753
20
-2.44193
11
4.1813
21
-2.44118
0
LINE
8
BLACK
6
CONTINUOUS
10
4.1813
20
-2.44118
11
4.2187
21
-2.44118
0
LINE
8
BLACK
6
CONTINUOUS
10
4.2187
20
-2.44118
11
4.22247
21
-2.44193
  0
ENDSEC
  0
EOF
