  0
SECTION
  2
HEADER
  9
$ANGBASE
  50
0.0
  9
$ANGDIR
  70
1
  9
$MEASUREMENT
  70
0
  0
ENDSEC
  0
SECTION
  2
TABLES
  0
TABLE
  2
LTYPE
  70
4
  0
LTYPE
  5
40F
  2
CONTINUOUS
  70
0
  3
Solid line
  72
65
  73
0
  40
0.0
  0
LTYPE
  5
410
  2
DASHDOT
 70
0
  3
Dash Dot ____ _ ____ _
 72
65
 73
4
 40
2.0
 49
1.25
 49
-0.25
 49
0.25
 49
-0.25
  0
LTYPE
  5
411
  2
DASHED
 70
0
  3
Dashed __ __ __ __ __
 72
65
 73
2
 40
0.75
 49
0.5
 49
-0.25
  0
LTYPE
  5
43B
  2
DOTTED
 70
0
  3
Dotted .  .  .  .
 72
65
 73
2
 40
0.2
 49
0.0
 49
-0.2
  0
ENDTAB
  0
TABLE
  2
STYLE
  70
4
  0
STYLE
  2
KICAD
  70
0
  40
0
  41
1
  42
1
  50
0
  71
0
  3
isocp.shx
  0
STYLE
  2
KICADB
  70
0
  40
0
  41
1
  42
1
  50
0
  71
0
  3
isocp.shx
  0
STYLE
  2
KICADI
  70
0
  40
0
  41
1
  42
1
  50
15
  71
0
  3
isocp.shx
  0
STYLE
  2
KICADBI
  70
0
  40
0
  41
1
  42
1
  50
15
  71
0
  3
isocp.shx
  0
ENDTAB
  0
TABLE
  2
LAYER
  70
1
  0
LAYER
  2
BLACK
  70
0
  62
7
  6
CONTINUOUS
  0
ENDTAB
  0
ENDSEC
  0
SECTION
  2
ENTITIES
0
LINE
8
BLACK
6
CONTINUOUS
10
4.26696
20
-3.06075
11
4.27015
21
-3.06288
0
LINE
8
BLACK
6
CONTINUOUS
10
4.27015
20
-3.06288
11
4.27228
21
-3.06608
0
LINE
8
BLACK
6
CONTINUOUS
10
4.27228
20
-3.06608
11
4.27303
21
-3.06984
0
LINE
8
BLACK
6
CONTINUOUS
10
4.27303
20
-3.06984
11
4.27303
21
-3.15646
0
LINE
8
BLACK
6
CONTINUOUS
10
4.27303
20
-3.15646
11
4.27228
21
-3.16022
0
LINE
8
BLACK
6
CONTINUOUS
10
4.27228
20
-3.16022
11
4.27015
21
-3.16342
0
LINE
8
BLACK
6
CONTINUOUS
10
4.27015
20
-3.16342
11
4.26696
21
-3.16555
0
LINE
8
BLACK
6
CONTINUOUS
10
4.26696
20
-3.16555
11
4.26319
21
-3.1663
0
LINE
8
BLACK
6
CONTINUOUS
10
4.26319
20
-3.1663
11
4.2435
21
-3.1663
0
LINE
8
BLACK
6
CONTINUOUS
10
4.2435
20
-3.1663
11
4.23974
21
-3.16555
0
LINE
8
BLACK
6
CONTINUOUS
10
4.23974
20
-3.16555
11
4.23654
21
-3.16342
0
LINE
8
BLACK
6
CONTINUOUS
10
4.23654
20
-3.16342
11
4.23441
21
-3.16022
0
LINE
8
BLACK
6
CONTINUOUS
10
4.23441
20
-3.16022
11
4.23366
21
-3.15646
0
LINE
8
BLACK
6
CONTINUOUS
10
4.23366
20
-3.15646
11
4.23366
21
-3.06984
0
LINE
8
BLACK
6
CONTINUOUS
10
4.23366
20
-3.06984
11
4.23441
21
-3.06608
0
LINE
8
BLACK
6
CONTINUOUS
10
4.23441
20
-3.06608
11
4.23654
21
-3.06288
0
LINE
8
BLACK
6
CONTINUOUS
10
4.23654
20
-3.06288
11
4.23974
21
-3.06075
0
LINE
8
BLACK
6
CONTINUOUS
10
4.23974
20
-3.06075
11
4.2435
21
-3.06
0
LINE
8
BLACK
6
CONTINUOUS
10
4.2435
20
-3.06
11
4.26319
21
-3.06
0
LINE
8
BLACK
6
CONTINUOUS
10
4.26319
20
-3.06
11
4.26696
21
-3.06075
0
LINE
8
BLACK
6
CONTINUOUS
10
4.56026
20
-3.06075
11
4.56346
21
-3.06288
0
LINE
8
BLACK
6
CONTINUOUS
10
4.56346
20
-3.06288
11
4.56559
21
-3.06608
0
LINE
8
BLACK
6
CONTINUOUS
10
4.56559
20
-3.06608
11
4.56634
21
-3.06984
0
LINE
8
BLACK
6
CONTINUOUS
10
4.56634
20
-3.06984
11
4.56634
21
-3.15646
0
LINE
8
BLACK
6
CONTINUOUS
10
4.56634
20
-3.15646
11
4.56559
21
-3.16022
0
LINE
8
BLACK
6
CONTINUOUS
10
4.56559
20
-3.16022
11
4.56346
21
-3.16342
0
LINE
8
BLACK
6
CONTINUOUS
10
4.56346
20
-3.16342
11
4.56026
21
-3.16555
0
LINE
8
BLACK
6
CONTINUOUS
10
4.56026
20
-3.16555
11
4.5565
21
-3.1663
0
LINE
8
BLACK
6
CONTINUOUS
10
4.5565
20
-3.1663
11
4.53681
21
-3.1663
0
LINE
8
BLACK
6
CONTINUOUS
10
4.53681
20
-3.1663
11
4.53304
21
-3.16555
0
LINE
8
BLACK
6
CONTINUOUS
10
4.53304
20
-3.16555
11
4.52985
21
-3.16342
0
LINE
8
BLACK
6
CONTINUOUS
10
4.52985
20
-3.16342
11
4.52772
21
-3.16022
0
LINE
8
BLACK
6
CONTINUOUS
10
4.52772
20
-3.16022
11
4.52697
21
-3.15646
0
LINE
8
BLACK
6
CONTINUOUS
10
4.52697
20
-3.15646
11
4.52697
21
-3.06984
0
LINE
8
BLACK
6
CONTINUOUS
10
4.52697
20
-3.06984
11
4.52772
21
-3.06608
0
LINE
8
BLACK
6
CONTINUOUS
10
4.52772
20
-3.06608
11
4.52985
21
-3.06288
0
LINE
8
BLACK
6
CONTINUOUS
10
4.52985
20
-3.06288
11
4.53304
21
-3.06075
0
LINE
8
BLACK
6
CONTINUOUS
10
4.53304
20
-3.06075
11
4.53681
21
-3.06
0
LINE
8
BLACK
6
CONTINUOUS
10
4.53681
20
-3.06
11
4.5565
21
-3.06
0
LINE
8
BLACK
6
CONTINUOUS
10
4.5565
20
-3.06
11
4.56026
21
-3.06075
0
LINE
8
BLACK
6
CONTINUOUS
10
4.02051
20
-2.88368
11
4.03387
21
-2.88685
0
LINE
8
BLACK
6
CONTINUOUS
10
4.03387
20
-2.88685
11
4.04678
21
-2.89155
0
LINE
8
BLACK
6
CONTINUOUS
10
4.04678
20
-2.89155
11
4.05906
21
-2.89771
0
LINE
8
BLACK
6
CONTINUOUS
10
4.05906
20
-2.89771
11
4.07053
21
-2.90526
0
LINE
8
BLACK
6
CONTINUOUS
10
4.07053
20
-2.90526
11
4.08105
21
-2.91409
0
LINE
8
BLACK
6
CONTINUOUS
10
4.08105
20
-2.91409
11
4.09048
21
-2.92408
0
LINE
8
BLACK
6
CONTINUOUS
10
4.09048
20
-2.92408
11
4.09868
21
-2.9351
0
LINE
8
BLACK
6
CONTINUOUS
10
4.09868
20
-2.9351
11
4.10555
21
-2.94699
0
LINE
8
BLACK
6
CONTINUOUS
10
4.10555
20
-2.94699
11
4.11099
21
-2.9596
0
LINE
8
BLACK
6
CONTINUOUS
10
4.11099
20
-2.9596
11
4.11493
21
-2.97276
0
LINE
8
BLACK
6
CONTINUOUS
10
4.11493
20
-2.97276
11
4.11731
21
-2.98629
0
LINE
8
BLACK
6
CONTINUOUS
10
4.11731
20
-2.98629
11
4.11811
21
-3
0
LINE
8
BLACK
6
CONTINUOUS
10
4.11811
20
-3
11
4.11731
21
-3.01371
0
LINE
8
BLACK
6
CONTINUOUS
10
4.11731
20
-3.01371
11
4.11493
21
-3.02724
0
LINE
8
BLACK
6
CONTINUOUS
10
4.11493
20
-3.02724
11
4.11099
21
-3.0404
0
LINE
8
BLACK
6
CONTINUOUS
10
4.11099
20
-3.0404
11
4.10555
21
-3.05301
0
LINE
8
BLACK
6
CONTINUOUS
10
4.10555
20
-3.05301
11
4.09868
21
-3.0649
0
LINE
8
BLACK
6
CONTINUOUS
10
4.09868
20
-3.0649
11
4.09048
21
-3.07592
0
LINE
8
BLACK
6
CONTINUOUS
10
4.09048
20
-3.07592
11
4.08105
21
-3.08591
0
LINE
8
BLACK
6
CONTINUOUS
10
4.08105
20
-3.08591
11
4.07053
21
-3.09474
0
LINE
8
BLACK
6
CONTINUOUS
10
4.07053
20
-3.09474
11
4.05906
21
-3.10229
0
LINE
8
BLACK
6
CONTINUOUS
10
4.05906
20
-3.10229
11
4.04678
21
-3.10845
0
LINE
8
BLACK
6
CONTINUOUS
10
4.04678
20
-3.10845
11
4.03387
21
-3.11315
0
LINE
8
BLACK
6
CONTINUOUS
10
4.03387
20
-3.11315
11
4.02051
21
-3.11632
0
LINE
8
BLACK
6
CONTINUOUS
10
4.02051
20
-3.11632
11
4.00687
21
-3.11791
0
LINE
8
BLACK
6
CONTINUOUS
10
4.00687
20
-3.11791
11
3.99313
21
-3.11791
0
LINE
8
BLACK
6
CONTINUOUS
10
3.99313
20
-3.11791
11
3.97949
21
-3.11632
0
LINE
8
BLACK
6
CONTINUOUS
10
3.97949
20
-3.11632
11
3.96613
21
-3.11315
0
LINE
8
BLACK
6
CONTINUOUS
10
3.96613
20
-3.11315
11
3.95322
21
-3.10845
0
LINE
8
BLACK
6
CONTINUOUS
10
3.95322
20
-3.10845
11
3.94094
21
-3.10229
0
LINE
8
BLACK
6
CONTINUOUS
10
3.94094
20
-3.10229
11
3.92947
21
-3.09474
0
LINE
8
BLACK
6
CONTINUOUS
10
3.92947
20
-3.09474
11
3.91895
21
-3.08591
0
LINE
8
BLACK
6
CONTINUOUS
10
3.91895
20
-3.08591
11
3.90952
21
-3.07592
0
LINE
8
BLACK
6
CONTINUOUS
10
3.90952
20
-3.07592
11
3.90132
21
-3.0649
0
LINE
8
BLACK
6
CONTINUOUS
10
3.90132
20
-3.0649
11
3.89445
21
-3.05301
0
LINE
8
BLACK
6
CONTINUOUS
10
3.89445
20
-3.05301
11
3.88901
21
-3.0404
0
LINE
8
BLACK
6
CONTINUOUS
10
3.88901
20
-3.0404
11
3.88507
21
-3.02724
0
LINE
8
BLACK
6
CONTINUOUS
10
3.88507
20
-3.02724
11
3.88269
21
-3.01371
0
LINE
8
BLACK
6
CONTINUOUS
10
3.88269
20
-3.01371
11
3.88189
21
-3
0
LINE
8
BLACK
6
CONTINUOUS
10
3.88189
20
-3
11
3.88269
21
-2.98629
0
LINE
8
BLACK
6
CONTINUOUS
10
3.88269
20
-2.98629
11
3.88507
21
-2.97276
0
LINE
8
BLACK
6
CONTINUOUS
10
3.88507
20
-2.97276
11
3.88901
21
-2.9596
0
LINE
8
BLACK
6
CONTINUOUS
10
3.88901
20
-2.9596
11
3.89445
21
-2.94699
0
LINE
8
BLACK
6
CONTINUOUS
10
3.89445
20
-2.94699
11
3.90132
21
-2.9351
0
LINE
8
BLACK
6
CONTINUOUS
10
3.90132
20
-2.9351
11
3.90952
21
-2.92408
0
LINE
8
BLACK
6
CONTINUOUS
10
3.90952
20
-2.92408
11
3.91895
21
-2.91409
0
LINE
8
BLACK
6
CONTINUOUS
10
3.91895
20
-2.91409
11
3.92947
21
-2.90526
0
LINE
8
BLACK
6
CONTINUOUS
10
3.92947
20
-2.90526
11
3.94094
21
-2.89771
0
LINE
8
BLACK
6
CONTINUOUS
10
3.94094
20
-2.89771
11
3.95322
21
-2.89155
0
LINE
8
BLACK
6
CONTINUOUS
10
3.95322
20
-2.89155
11
3.96613
21
-2.88685
0
LINE
8
BLACK
6
CONTINUOUS
10
3.96613
20
-2.88685
11
3.97949
21
-2.88368
0
LINE
8
BLACK
6
CONTINUOUS
10
3.97949
20
-2.88368
11
3.99313
21
-2.88209
0
LINE
8
BLACK
6
CONTINUOUS
10
3.99313
20
-2.88209
11
4.00687
21
-2.88209
0
LINE
8
BLACK
6
CONTINUOUS
10
4.00687
20
-2.88209
11
4.02051
21
-2.88368
0
LINE
8
BLACK
6
CONTINUOUS
10
4.82051
20
-2.88368
11
4.83387
21
-2.88685
0
LINE
8
BLACK
6
CONTINUOUS
10
4.83387
20
-2.88685
11
4.84678
21
-2.89155
0
LINE
8
BLACK
6
CONTINUOUS
10
4.84678
20
-2.89155
11
4.85906
21
-2.89771
0
LINE
8
BLACK
6
CONTINUOUS
10
4.85906
20
-2.89771
11
4.87053
21
-2.90526
0
LINE
8
BLACK
6
CONTINUOUS
10
4.87053
20
-2.90526
11
4.88105
21
-2.91409
0
LINE
8
BLACK
6
CONTINUOUS
10
4.88105
20
-2.91409
11
4.89048
21
-2.92408
0
LINE
8
BLACK
6
CONTINUOUS
10
4.89048
20
-2.92408
11
4.89868
21
-2.9351
0
LINE
8
BLACK
6
CONTINUOUS
10
4.89868
20
-2.9351
11
4.90555
21
-2.94699
0
LINE
8
BLACK
6
CONTINUOUS
10
4.90555
20
-2.94699
11
4.91099
21
-2.9596
0
LINE
8
BLACK
6
CONTINUOUS
10
4.91099
20
-2.9596
11
4.91493
21
-2.97276
0
LINE
8
BLACK
6
CONTINUOUS
10
4.91493
20
-2.97276
11
4.91731
21
-2.98629
0
LINE
8
BLACK
6
CONTINUOUS
10
4.91731
20
-2.98629
11
4.91811
21
-3
0
LINE
8
BLACK
6
CONTINUOUS
10
4.91811
20
-3
11
4.91731
21
-3.01371
0
LINE
8
BLACK
6
CONTINUOUS
10
4.91731
20
-3.01371
11
4.91493
21
-3.02724
0
LINE
8
BLACK
6
CONTINUOUS
10
4.91493
20
-3.02724
11
4.91099
21
-3.0404
0
LINE
8
BLACK
6
CONTINUOUS
10
4.91099
20
-3.0404
11
4.90555
21
-3.05301
0
LINE
8
BLACK
6
CONTINUOUS
10
4.90555
20
-3.05301
11
4.89868
21
-3.0649
0
LINE
8
BLACK
6
CONTINUOUS
10
4.89868
20
-3.0649
11
4.89048
21
-3.07592
0
LINE
8
BLACK
6
CONTINUOUS
10
4.89048
20
-3.07592
11
4.88105
21
-3.08591
0
LINE
8
BLACK
6
CONTINUOUS
10
4.88105
20
-3.08591
11
4.87053
21
-3.09474
0
LINE
8
BLACK
6
CONTINUOUS
10
4.87053
20
-3.09474
11
4.85906
21
-3.10229
0
LINE
8
BLACK
6
CONTINUOUS
10
4.85906
20
-3.10229
11
4.84678
21
-3.10845
0
LINE
8
BLACK
6
CONTINUOUS
10
4.84678
20
-3.10845
11
4.83387
21
-3.11315
0
LINE
8
BLACK
6
CONTINUOUS
10
4.83387
20
-3.11315
11
4.82051
21
-3.11632
0
LINE
8
BLACK
6
CONTINUOUS
10
4.82051
20
-3.11632
11
4.80687
21
-3.11791
0
LINE
8
BLACK
6
CONTINUOUS
10
4.80687
20
-3.11791
11
4.79313
21
-3.11791
0
LINE
8
BLACK
6
CONTINUOUS
10
4.79313
20
-3.11791
11
4.77949
21
-3.11632
0
LINE
8
BLACK
6
CONTINUOUS
10
4.77949
20
-3.11632
11
4.76613
21
-3.11315
0
LINE
8
BLACK
6
CONTINUOUS
10
4.76613
20
-3.11315
11
4.75322
21
-3.10845
0
LINE
8
BLACK
6
CONTINUOUS
10
4.75322
20
-3.10845
11
4.74094
21
-3.10229
0
LINE
8
BLACK
6
CONTINUOUS
10
4.74094
20
-3.10229
11
4.72947
21
-3.09474
0
LINE
8
BLACK
6
CONTINUOUS
10
4.72947
20
-3.09474
11
4.71895
21
-3.08591
0
LINE
8
BLACK
6
CONTINUOUS
10
4.71895
20
-3.08591
11
4.70952
21
-3.07592
0
LINE
8
BLACK
6
CONTINUOUS
10
4.70952
20
-3.07592
11
4.70132
21
-3.0649
0
LINE
8
BLACK
6
CONTINUOUS
10
4.70132
20
-3.0649
11
4.69445
21
-3.05301
0
LINE
8
BLACK
6
CONTINUOUS
10
4.69445
20
-3.05301
11
4.68901
21
-3.0404
0
LINE
8
BLACK
6
CONTINUOUS
10
4.68901
20
-3.0404
11
4.68507
21
-3.02724
0
LINE
8
BLACK
6
CONTINUOUS
10
4.68507
20
-3.02724
11
4.68269
21
-3.01371
0
LINE
8
BLACK
6
CONTINUOUS
10
4.68269
20
-3.01371
11
4.68189
21
-3
0
LINE
8
BLACK
6
CONTINUOUS
10
4.68189
20
-3
11
4.68269
21
-2.98629
0
LINE
8
BLACK
6
CONTINUOUS
10
4.68269
20
-2.98629
11
4.68507
21
-2.97276
0
LINE
8
BLACK
6
CONTINUOUS
10
4.68507
20
-2.97276
11
4.68901
21
-2.9596
0
LINE
8
BLACK
6
CONTINUOUS
10
4.68901
20
-2.9596
11
4.69445
21
-2.94699
0
LINE
8
BLACK
6
CONTINUOUS
10
4.69445
20
-2.94699
11
4.70132
21
-2.9351
0
LINE
8
BLACK
6
CONTINUOUS
10
4.70132
20
-2.9351
11
4.70952
21
-2.92408
0
LINE
8
BLACK
6
CONTINUOUS
10
4.70952
20
-2.92408
11
4.71895
21
-2.91409
0
LINE
8
BLACK
6
CONTINUOUS
10
4.71895
20
-2.91409
11
4.72947
21
-2.90526
0
LINE
8
BLACK
6
CONTINUOUS
10
4.72947
20
-2.90526
11
4.74094
21
-2.89771
0
LINE
8
BLACK
6
CONTINUOUS
10
4.74094
20
-2.89771
11
4.75322
21
-2.89155
0
LINE
8
BLACK
6
CONTINUOUS
10
4.75322
20
-2.89155
11
4.76613
21
-2.88685
0
LINE
8
BLACK
6
CONTINUOUS
10
4.76613
20
-2.88685
11
4.77949
21
-2.88368
0
LINE
8
BLACK
6
CONTINUOUS
10
4.77949
20
-2.88368
11
4.79313
21
-2.88209
0
LINE
8
BLACK
6
CONTINUOUS
10
4.79313
20
-2.88209
11
4.80687
21
-2.88209
0
LINE
8
BLACK
6
CONTINUOUS
10
4.80687
20
-2.88209
11
4.82051
21
-2.88368
0
LINE
8
BLACK
6
CONTINUOUS
10
4.33435
20
-2.95415
11
4.33626
21
-2.95543
0
LINE
8
BLACK
6
CONTINUOUS
10
4.33626
20
-2.95543
11
4.33754
21
-2.95735
0
LINE
8
BLACK
6
CONTINUOUS
10
4.33754
20
-2.95735
11
4.33799
21
-2.95961
0
LINE
8
BLACK
6
CONTINUOUS
10
4.33799
20
-2.95961
11
4.33799
21
-3.01472
0
LINE
8
BLACK
6
CONTINUOUS
10
4.33799
20
-3.01472
11
4.33754
21
-3.01698
0
LINE
8
BLACK
6
CONTINUOUS
10
4.33754
20
-3.01698
11
4.33626
21
-3.0189
0
LINE
8
BLACK
6
CONTINUOUS
10
4.33626
20
-3.0189
11
4.33435
21
-3.02018
0
LINE
8
BLACK
6
CONTINUOUS
10
4.33435
20
-3.02018
11
4.33209
21
-3.02063
0
LINE
8
BLACK
6
CONTINUOUS
10
4.33209
20
-3.02063
11
4.32028
21
-3.02063
0
LINE
8
BLACK
6
CONTINUOUS
10
4.32028
20
-3.02063
11
4.31802
21
-3.02018
0
LINE
8
BLACK
6
CONTINUOUS
10
4.31802
20
-3.02018
11
4.3161
21
-3.0189
0
LINE
8
BLACK
6
CONTINUOUS
10
4.3161
20
-3.0189
11
4.31482
21
-3.01698
0
LINE
8
BLACK
6
CONTINUOUS
10
4.31482
20
-3.01698
11
4.31437
21
-3.01472
0
LINE
8
BLACK
6
CONTINUOUS
10
4.31437
20
-3.01472
11
4.31437
21
-2.95961
0
LINE
8
BLACK
6
CONTINUOUS
10
4.31437
20
-2.95961
11
4.31482
21
-2.95735
0
LINE
8
BLACK
6
CONTINUOUS
10
4.31482
20
-2.95735
11
4.3161
21
-2.95543
0
LINE
8
BLACK
6
CONTINUOUS
10
4.3161
20
-2.95543
11
4.31802
21
-2.95415
0
LINE
8
BLACK
6
CONTINUOUS
10
4.31802
20
-2.95415
11
4.32028
21
-2.9537
0
LINE
8
BLACK
6
CONTINUOUS
10
4.32028
20
-2.9537
11
4.33209
21
-2.9537
0
LINE
8
BLACK
6
CONTINUOUS
10
4.33209
20
-2.9537
11
4.33435
21
-2.95415
0
LINE
8
BLACK
6
CONTINUOUS
10
4.38356
20
-2.95415
11
4.38548
21
-2.95543
0
LINE
8
BLACK
6
CONTINUOUS
10
4.38548
20
-2.95543
11
4.38676
21
-2.95735
0
LINE
8
BLACK
6
CONTINUOUS
10
4.38676
20
-2.95735
11
4.3872
21
-2.95961
0
LINE
8
BLACK
6
CONTINUOUS
10
4.3872
20
-2.95961
11
4.3872
21
-3.01472
0
LINE
8
BLACK
6
CONTINUOUS
10
4.3872
20
-3.01472
11
4.38676
21
-3.01698
0
LINE
8
BLACK
6
CONTINUOUS
10
4.38676
20
-3.01698
11
4.38548
21
-3.0189
0
LINE
8
BLACK
6
CONTINUOUS
10
4.38548
20
-3.0189
11
4.38356
21
-3.02018
0
LINE
8
BLACK
6
CONTINUOUS
10
4.38356
20
-3.02018
11
4.3813
21
-3.02063
0
LINE
8
BLACK
6
CONTINUOUS
10
4.3813
20
-3.02063
11
4.36949
21
-3.02063
0
LINE
8
BLACK
6
CONTINUOUS
10
4.36949
20
-3.02063
11
4.36723
21
-3.02018
0
LINE
8
BLACK
6
CONTINUOUS
10
4.36723
20
-3.02018
11
4.36531
21
-3.0189
0
LINE
8
BLACK
6
CONTINUOUS
10
4.36531
20
-3.0189
11
4.36403
21
-3.01698
0
LINE
8
BLACK
6
CONTINUOUS
10
4.36403
20
-3.01698
11
4.36358
21
-3.01472
0
LINE
8
BLACK
6
CONTINUOUS
10
4.36358
20
-3.01472
11
4.36358
21
-2.95961
0
LINE
8
BLACK
6
CONTINUOUS
10
4.36358
20
-2.95961
11
4.36403
21
-2.95735
0
LINE
8
BLACK
6
CONTINUOUS
10
4.36403
20
-2.95735
11
4.36531
21
-2.95543
0
LINE
8
BLACK
6
CONTINUOUS
10
4.36531
20
-2.95543
11
4.36723
21
-2.95415
0
LINE
8
BLACK
6
CONTINUOUS
10
4.36723
20
-2.95415
11
4.36949
21
-2.9537
0
LINE
8
BLACK
6
CONTINUOUS
10
4.36949
20
-2.9537
11
4.3813
21
-2.9537
0
LINE
8
BLACK
6
CONTINUOUS
10
4.3813
20
-2.9537
11
4.38356
21
-2.95415
0
LINE
8
BLACK
6
CONTINUOUS
10
4.43277
20
-2.95415
11
4.43469
21
-2.95543
0
LINE
8
BLACK
6
CONTINUOUS
10
4.43469
20
-2.95543
11
4.43597
21
-2.95735
0
LINE
8
BLACK
6
CONTINUOUS
10
4.43597
20
-2.95735
11
4.43642
21
-2.95961
0
LINE
8
BLACK
6
CONTINUOUS
10
4.43642
20
-2.95961
11
4.43642
21
-3.01472
0
LINE
8
BLACK
6
CONTINUOUS
10
4.43642
20
-3.01472
11
4.43597
21
-3.01698
0
LINE
8
BLACK
6
CONTINUOUS
10
4.43597
20
-3.01698
11
4.43469
21
-3.0189
0
LINE
8
BLACK
6
CONTINUOUS
10
4.43469
20
-3.0189
11
4.43277
21
-3.02018
0
LINE
8
BLACK
6
CONTINUOUS
10
4.43277
20
-3.02018
11
4.43051
21
-3.02063
0
LINE
8
BLACK
6
CONTINUOUS
10
4.43051
20
-3.02063
11
4.4187
21
-3.02063
0
LINE
8
BLACK
6
CONTINUOUS
10
4.4187
20
-3.02063
11
4.41644
21
-3.02018
0
LINE
8
BLACK
6
CONTINUOUS
10
4.41644
20
-3.02018
11
4.41452
21
-3.0189
0
LINE
8
BLACK
6
CONTINUOUS
10
4.41452
20
-3.0189
11
4.41324
21
-3.01698
0
LINE
8
BLACK
6
CONTINUOUS
10
4.41324
20
-3.01698
11
4.4128
21
-3.01472
0
LINE
8
BLACK
6
CONTINUOUS
10
4.4128
20
-3.01472
11
4.4128
21
-2.95961
0
LINE
8
BLACK
6
CONTINUOUS
10
4.4128
20
-2.95961
11
4.41324
21
-2.95735
0
LINE
8
BLACK
6
CONTINUOUS
10
4.41324
20
-2.95735
11
4.41452
21
-2.95543
0
LINE
8
BLACK
6
CONTINUOUS
10
4.41452
20
-2.95543
11
4.41644
21
-2.95415
0
LINE
8
BLACK
6
CONTINUOUS
10
4.41644
20
-2.95415
11
4.4187
21
-2.9537
0
LINE
8
BLACK
6
CONTINUOUS
10
4.4187
20
-2.9537
11
4.43051
21
-2.9537
0
LINE
8
BLACK
6
CONTINUOUS
10
4.43051
20
-2.9537
11
4.43277
21
-2.95415
0
LINE
8
BLACK
6
CONTINUOUS
10
4.48198
20
-2.95415
11
4.4839
21
-2.95543
0
LINE
8
BLACK
6
CONTINUOUS
10
4.4839
20
-2.95543
11
4.48518
21
-2.95735
0
LINE
8
BLACK
6
CONTINUOUS
10
4.48518
20
-2.95735
11
4.48563
21
-2.95961
0
LINE
8
BLACK
6
CONTINUOUS
10
4.48563
20
-2.95961
11
4.48563
21
-3.01472
0
LINE
8
BLACK
6
CONTINUOUS
10
4.48563
20
-3.01472
11
4.48518
21
-3.01698
0
LINE
8
BLACK
6
CONTINUOUS
10
4.48518
20
-3.01698
11
4.4839
21
-3.0189
0
LINE
8
BLACK
6
CONTINUOUS
10
4.4839
20
-3.0189
11
4.48198
21
-3.02018
0
LINE
8
BLACK
6
CONTINUOUS
10
4.48198
20
-3.02018
11
4.47972
21
-3.02063
0
LINE
8
BLACK
6
CONTINUOUS
10
4.47972
20
-3.02063
11
4.46791
21
-3.02063
0
LINE
8
BLACK
6
CONTINUOUS
10
4.46791
20
-3.02063
11
4.46565
21
-3.02018
0
LINE
8
BLACK
6
CONTINUOUS
10
4.46565
20
-3.02018
11
4.46374
21
-3.0189
0
LINE
8
BLACK
6
CONTINUOUS
10
4.46374
20
-3.0189
11
4.46246
21
-3.01698
0
LINE
8
BLACK
6
CONTINUOUS
10
4.46246
20
-3.01698
11
4.46201
21
-3.01472
0
LINE
8
BLACK
6
CONTINUOUS
10
4.46201
20
-3.01472
11
4.46201
21
-2.95961
0
LINE
8
BLACK
6
CONTINUOUS
10
4.46201
20
-2.95961
11
4.46246
21
-2.95735
0
LINE
8
BLACK
6
CONTINUOUS
10
4.46246
20
-2.95735
11
4.46374
21
-2.95543
0
LINE
8
BLACK
6
CONTINUOUS
10
4.46374
20
-2.95543
11
4.46565
21
-2.95415
0
LINE
8
BLACK
6
CONTINUOUS
10
4.46565
20
-2.95415
11
4.46791
21
-2.9537
0
LINE
8
BLACK
6
CONTINUOUS
10
4.46791
20
-2.9537
11
4.47972
21
-2.9537
0
LINE
8
BLACK
6
CONTINUOUS
10
4.47972
20
-2.9537
11
4.48198
21
-2.95415
0
LINE
8
BLACK
6
CONTINUOUS
10
4.55747
20
-2.88053
11
4.53582
21
-2.88053
0
LINE
8
BLACK
6
CONTINUOUS
10
4.53582
20
-2.88053
11
4.53582
21
-2.88033
0
LINE
8
BLACK
6
CONTINUOUS
10
4.53582
20
-2.88033
11
4.53302
21
-2.88033
0
LINE
8
BLACK
6
CONTINUOUS
10
4.53302
20
-2.88033
11
4.52764
21
-2.87875
0
LINE
8
BLACK
6
CONTINUOUS
10
4.52764
20
-2.87875
11
4.52293
21
-2.87572
0
LINE
8
BLACK
6
CONTINUOUS
10
4.52293
20
-2.87572
11
4.51926
21
-2.87149
0
LINE
8
BLACK
6
CONTINUOUS
10
4.51926
20
-2.87149
11
4.51693
21
-2.86639
0
LINE
8
BLACK
6
CONTINUOUS
10
4.51693
20
-2.86639
11
4.51613
21
-2.86084
0
LINE
8
BLACK
6
CONTINUOUS
10
4.51613
20
-2.86084
11
4.51613
21
-2.84116
0
LINE
8
BLACK
6
CONTINUOUS
10
4.51613
20
-2.84116
11
4.51693
21
-2.83561
0
LINE
8
BLACK
6
CONTINUOUS
10
4.51693
20
-2.83561
11
4.51926
21
-2.83051
0
LINE
8
BLACK
6
CONTINUOUS
10
4.51926
20
-2.83051
11
4.52293
21
-2.82628
0
LINE
8
BLACK
6
CONTINUOUS
10
4.52293
20
-2.82628
11
4.52764
21
-2.82325
0
LINE
8
BLACK
6
CONTINUOUS
10
4.52764
20
-2.82325
11
4.53302
21
-2.82167
0
LINE
8
BLACK
6
CONTINUOUS
10
4.53302
20
-2.82167
11
4.53582
21
-2.82167
0
LINE
8
BLACK
6
CONTINUOUS
10
4.53582
20
-2.82167
11
4.53582
21
-2.82147
0
LINE
8
BLACK
6
CONTINUOUS
10
4.53582
20
-2.82147
11
4.55747
21
-2.82147
0
LINE
8
BLACK
6
CONTINUOUS
10
4.55747
20
-2.82147
11
4.55747
21
-2.88053
0
LINE
8
BLACK
6
CONTINUOUS
10
4.60669
20
-2.88053
11
4.56731
21
-2.88053
0
LINE
8
BLACK
6
CONTINUOUS
10
4.56731
20
-2.88053
11
4.56731
21
-2.82147
0
LINE
8
BLACK
6
CONTINUOUS
10
4.56731
20
-2.82147
11
4.60669
21
-2.82147
0
LINE
8
BLACK
6
CONTINUOUS
10
4.60669
20
-2.82147
11
4.60669
21
-2.88053
0
LINE
8
BLACK
6
CONTINUOUS
10
4.63818
20
-2.82167
11
4.64098
21
-2.82167
0
LINE
8
BLACK
6
CONTINUOUS
10
4.64098
20
-2.82167
11
4.64636
21
-2.82325
0
LINE
8
BLACK
6
CONTINUOUS
10
4.64636
20
-2.82325
11
4.65107
21
-2.82628
0
LINE
8
BLACK
6
CONTINUOUS
10
4.65107
20
-2.82628
11
4.65474
21
-2.83051
0
LINE
8
BLACK
6
CONTINUOUS
10
4.65474
20
-2.83051
11
4.65707
21
-2.83561
0
LINE
8
BLACK
6
CONTINUOUS
10
4.65707
20
-2.83561
11
4.65787
21
-2.84116
0
LINE
8
BLACK
6
CONTINUOUS
10
4.65787
20
-2.84116
11
4.65787
21
-2.86084
0
LINE
8
BLACK
6
CONTINUOUS
10
4.65787
20
-2.86084
11
4.65707
21
-2.86639
0
LINE
8
BLACK
6
CONTINUOUS
10
4.65707
20
-2.86639
11
4.65474
21
-2.87149
0
LINE
8
BLACK
6
CONTINUOUS
10
4.65474
20
-2.87149
11
4.65107
21
-2.87572
0
LINE
8
BLACK
6
CONTINUOUS
10
4.65107
20
-2.87572
11
4.64636
21
-2.87875
0
LINE
8
BLACK
6
CONTINUOUS
10
4.64636
20
-2.87875
11
4.64098
21
-2.88033
0
LINE
8
BLACK
6
CONTINUOUS
10
4.64098
20
-2.88033
11
4.63818
21
-2.88033
0
LINE
8
BLACK
6
CONTINUOUS
10
4.63818
20
-2.88033
11
4.63818
21
-2.88053
0
LINE
8
BLACK
6
CONTINUOUS
10
4.63818
20
-2.88053
11
4.61653
21
-2.88053
0
LINE
8
BLACK
6
CONTINUOUS
10
4.61653
20
-2.88053
11
4.61653
21
-2.82147
0
LINE
8
BLACK
6
CONTINUOUS
10
4.61653
20
-2.82147
11
4.63818
21
-2.82147
0
LINE
8
BLACK
6
CONTINUOUS
10
4.63818
20
-2.82147
11
4.63818
21
-2.82167
0
LINE
8
BLACK
6
CONTINUOUS
10
4.15953
20
-2.85118
11
4.15933
21
-2.85118
0
LINE
8
BLACK
6
CONTINUOUS
10
4.15933
20
-2.85118
11
4.15933
21
-2.85398
0
LINE
8
BLACK
6
CONTINUOUS
10
4.15933
20
-2.85398
11
4.15775
21
-2.85936
0
LINE
8
BLACK
6
CONTINUOUS
10
4.15775
20
-2.85936
11
4.15472
21
-2.86407
0
LINE
8
BLACK
6
CONTINUOUS
10
4.15472
20
-2.86407
11
4.15049
21
-2.86774
0
LINE
8
BLACK
6
CONTINUOUS
10
4.15049
20
-2.86774
11
4.14539
21
-2.87007
0
LINE
8
BLACK
6
CONTINUOUS
10
4.14539
20
-2.87007
11
4.13984
21
-2.87087
0
LINE
8
BLACK
6
CONTINUOUS
10
4.13984
20
-2.87087
11
4.12016
21
-2.87087
0
LINE
8
BLACK
6
CONTINUOUS
10
4.12016
20
-2.87087
11
4.11461
21
-2.87007
0
LINE
8
BLACK
6
CONTINUOUS
10
4.11461
20
-2.87007
11
4.10951
21
-2.86774
0
LINE
8
BLACK
6
CONTINUOUS
10
4.10951
20
-2.86774
11
4.10528
21
-2.86407
0
LINE
8
BLACK
6
CONTINUOUS
10
4.10528
20
-2.86407
11
4.10225
21
-2.85936
0
LINE
8
BLACK
6
CONTINUOUS
10
4.10225
20
-2.85936
11
4.10067
21
-2.85398
0
LINE
8
BLACK
6
CONTINUOUS
10
4.10067
20
-2.85398
11
4.10067
21
-2.85118
0
LINE
8
BLACK
6
CONTINUOUS
10
4.10067
20
-2.85118
11
4.10047
21
-2.85118
0
LINE
8
BLACK
6
CONTINUOUS
10
4.10047
20
-2.85118
11
4.10047
21
-2.82953
0
LINE
8
BLACK
6
CONTINUOUS
10
4.10047
20
-2.82953
11
4.15953
21
-2.82953
0
LINE
8
BLACK
6
CONTINUOUS
10
4.15953
20
-2.82953
11
4.15953
21
-2.85118
0
LINE
8
BLACK
6
CONTINUOUS
10
4.25892
20
-2.85118
11
4.25872
21
-2.85118
0
LINE
8
BLACK
6
CONTINUOUS
10
4.25872
20
-2.85118
11
4.25872
21
-2.85398
0
LINE
8
BLACK
6
CONTINUOUS
10
4.25872
20
-2.85398
11
4.25714
21
-2.85936
0
LINE
8
BLACK
6
CONTINUOUS
10
4.25714
20
-2.85936
11
4.25411
21
-2.86407
0
LINE
8
BLACK
6
CONTINUOUS
10
4.25411
20
-2.86407
11
4.24987
21
-2.86774
0
LINE
8
BLACK
6
CONTINUOUS
10
4.24987
20
-2.86774
11
4.24478
21
-2.87007
0
LINE
8
BLACK
6
CONTINUOUS
10
4.24478
20
-2.87007
11
4.23923
21
-2.87087
0
LINE
8
BLACK
6
CONTINUOUS
10
4.23923
20
-2.87087
11
4.21955
21
-2.87087
0
LINE
8
BLACK
6
CONTINUOUS
10
4.21955
20
-2.87087
11
4.214
21
-2.87007
0
LINE
8
BLACK
6
CONTINUOUS
10
4.214
20
-2.87007
11
4.2089
21
-2.86774
0
LINE
8
BLACK
6
CONTINUOUS
10
4.2089
20
-2.86774
11
4.20467
21
-2.86407
0
LINE
8
BLACK
6
CONTINUOUS
10
4.20467
20
-2.86407
11
4.20164
21
-2.85936
0
LINE
8
BLACK
6
CONTINUOUS
10
4.20164
20
-2.85936
11
4.20006
21
-2.85398
0
LINE
8
BLACK
6
CONTINUOUS
10
4.20006
20
-2.85398
11
4.20006
21
-2.85118
0
LINE
8
BLACK
6
CONTINUOUS
10
4.20006
20
-2.85118
11
4.19986
21
-2.85118
0
LINE
8
BLACK
6
CONTINUOUS
10
4.19986
20
-2.85118
11
4.19986
21
-2.82953
0
LINE
8
BLACK
6
CONTINUOUS
10
4.19986
20
-2.82953
11
4.25892
21
-2.82953
0
LINE
8
BLACK
6
CONTINUOUS
10
4.25892
20
-2.82953
11
4.25892
21
-2.85118
0
LINE
8
BLACK
6
CONTINUOUS
10
4.15953
20
-2.81969
11
4.10047
21
-2.81969
0
LINE
8
BLACK
6
CONTINUOUS
10
4.10047
20
-2.81969
11
4.10047
21
-2.78031
0
LINE
8
BLACK
6
CONTINUOUS
10
4.10047
20
-2.78031
11
4.15953
21
-2.78031
0
LINE
8
BLACK
6
CONTINUOUS
10
4.15953
20
-2.78031
11
4.15953
21
-2.81969
0
LINE
8
BLACK
6
CONTINUOUS
10
4.25892
20
-2.81969
11
4.19986
21
-2.81969
0
LINE
8
BLACK
6
CONTINUOUS
10
4.19986
20
-2.81969
11
4.19986
21
-2.78031
0
LINE
8
BLACK
6
CONTINUOUS
10
4.19986
20
-2.78031
11
4.25892
21
-2.78031
0
LINE
8
BLACK
6
CONTINUOUS
10
4.25892
20
-2.78031
11
4.25892
21
-2.81969
0
LINE
8
BLACK
6
CONTINUOUS
10
4.55729
20
-2.77953
11
4.53564
21
-2.77953
0
LINE
8
BLACK
6
CONTINUOUS
10
4.53564
20
-2.77953
11
4.53564
21
-2.77933
0
LINE
8
BLACK
6
CONTINUOUS
10
4.53564
20
-2.77933
11
4.53284
21
-2.77933
0
LINE
8
BLACK
6
CONTINUOUS
10
4.53284
20
-2.77933
11
4.52746
21
-2.77775
0
LINE
8
BLACK
6
CONTINUOUS
10
4.52746
20
-2.77775
11
4.52275
21
-2.77472
0
LINE
8
BLACK
6
CONTINUOUS
10
4.52275
20
-2.77472
11
4.51908
21
-2.77049
0
LINE
8
BLACK
6
CONTINUOUS
10
4.51908
20
-2.77049
11
4.51675
21
-2.76539
0
LINE
8
BLACK
6
CONTINUOUS
10
4.51675
20
-2.76539
11
4.51595
21
-2.75984
0
LINE
8
BLACK
6
CONTINUOUS
10
4.51595
20
-2.75984
11
4.51595
21
-2.74016
0
LINE
8
BLACK
6
CONTINUOUS
10
4.51595
20
-2.74016
11
4.51675
21
-2.73461
0
LINE
8
BLACK
6
CONTINUOUS
10
4.51675
20
-2.73461
11
4.51908
21
-2.72951
0
LINE
8
BLACK
6
CONTINUOUS
10
4.51908
20
-2.72951
11
4.52275
21
-2.72528
0
LINE
8
BLACK
6
CONTINUOUS
10
4.52275
20
-2.72528
11
4.52746
21
-2.72225
0
LINE
8
BLACK
6
CONTINUOUS
10
4.52746
20
-2.72225
11
4.53284
21
-2.72067
0
LINE
8
BLACK
6
CONTINUOUS
10
4.53284
20
-2.72067
11
4.53564
21
-2.72067
0
LINE
8
BLACK
6
CONTINUOUS
10
4.53564
20
-2.72067
11
4.53564
21
-2.72047
0
LINE
8
BLACK
6
CONTINUOUS
10
4.53564
20
-2.72047
11
4.55729
21
-2.72047
0
LINE
8
BLACK
6
CONTINUOUS
10
4.55729
20
-2.72047
11
4.55729
21
-2.77953
0
LINE
8
BLACK
6
CONTINUOUS
10
4.6065
20
-2.77953
11
4.56713
21
-2.77953
0
LINE
8
BLACK
6
CONTINUOUS
10
4.56713
20
-2.77953
11
4.56713
21
-2.72047
0
LINE
8
BLACK
6
CONTINUOUS
10
4.56713
20
-2.72047
11
4.6065
21
-2.72047
0
LINE
8
BLACK
6
CONTINUOUS
10
4.6065
20
-2.72047
11
4.6065
21
-2.77953
0
LINE
8
BLACK
6
CONTINUOUS
10
4.638
20
-2.72067
11
4.6408
21
-2.72067
0
LINE
8
BLACK
6
CONTINUOUS
10
4.6408
20
-2.72067
11
4.64618
21
-2.72225
0
LINE
8
BLACK
6
CONTINUOUS
10
4.64618
20
-2.72225
11
4.65089
21
-2.72528
0
LINE
8
BLACK
6
CONTINUOUS
10
4.65089
20
-2.72528
11
4.65456
21
-2.72951
0
LINE
8
BLACK
6
CONTINUOUS
10
4.65456
20
-2.72951
11
4.65689
21
-2.73461
0
LINE
8
BLACK
6
CONTINUOUS
10
4.65689
20
-2.73461
11
4.65769
21
-2.74016
0
LINE
8
BLACK
6
CONTINUOUS
10
4.65769
20
-2.74016
11
4.65769
21
-2.75984
0
LINE
8
BLACK
6
CONTINUOUS
10
4.65769
20
-2.75984
11
4.65689
21
-2.76539
0
LINE
8
BLACK
6
CONTINUOUS
10
4.65689
20
-2.76539
11
4.65456
21
-2.77049
0
LINE
8
BLACK
6
CONTINUOUS
10
4.65456
20
-2.77049
11
4.65089
21
-2.77472
0
LINE
8
BLACK
6
CONTINUOUS
10
4.65089
20
-2.77472
11
4.64618
21
-2.77775
0
LINE
8
BLACK
6
CONTINUOUS
10
4.64618
20
-2.77775
11
4.6408
21
-2.77933
0
LINE
8
BLACK
6
CONTINUOUS
10
4.6408
20
-2.77933
11
4.638
21
-2.77933
0
LINE
8
BLACK
6
CONTINUOUS
10
4.638
20
-2.77933
11
4.638
21
-2.77953
0
LINE
8
BLACK
6
CONTINUOUS
10
4.638
20
-2.77953
11
4.61635
21
-2.77953
0
LINE
8
BLACK
6
CONTINUOUS
10
4.61635
20
-2.77953
11
4.61635
21
-2.72047
0
LINE
8
BLACK
6
CONTINUOUS
10
4.61635
20
-2.72047
11
4.638
21
-2.72047
0
LINE
8
BLACK
6
CONTINUOUS
10
4.638
20
-2.72047
11
4.638
21
-2.72067
0
LINE
8
BLACK
6
CONTINUOUS
10
4.14539
20
-2.72993
11
4.15049
21
-2.73226
0
LINE
8
BLACK
6
CONTINUOUS
10
4.15049
20
-2.73226
11
4.15472
21
-2.73593
0
LINE
8
BLACK
6
CONTINUOUS
10
4.15472
20
-2.73593
11
4.15775
21
-2.74064
0
LINE
8
BLACK
6
CONTINUOUS
10
4.15775
20
-2.74064
11
4.15933
21
-2.74602
0
LINE
8
BLACK
6
CONTINUOUS
10
4.15933
20
-2.74602
11
4.15933
21
-2.74882
0
LINE
8
BLACK
6
CONTINUOUS
10
4.15933
20
-2.74882
11
4.15953
21
-2.74882
0
LINE
8
BLACK
6
CONTINUOUS
10
4.15953
20
-2.74882
11
4.15953
21
-2.77047
0
LINE
8
BLACK
6
CONTINUOUS
10
4.15953
20
-2.77047
11
4.10047
21
-2.77047
0
LINE
8
BLACK
6
CONTINUOUS
10
4.10047
20
-2.77047
11
4.10047
21
-2.74882
0
LINE
8
BLACK
6
CONTINUOUS
10
4.10047
20
-2.74882
11
4.10067
21
-2.74882
0
LINE
8
BLACK
6
CONTINUOUS
10
4.10067
20
-2.74882
11
4.10067
21
-2.74602
0
LINE
8
BLACK
6
CONTINUOUS
10
4.10067
20
-2.74602
11
4.10225
21
-2.74064
0
LINE
8
BLACK
6
CONTINUOUS
10
4.10225
20
-2.74064
11
4.10528
21
-2.73593
0
LINE
8
BLACK
6
CONTINUOUS
10
4.10528
20
-2.73593
11
4.10951
21
-2.73226
0
LINE
8
BLACK
6
CONTINUOUS
10
4.10951
20
-2.73226
11
4.11461
21
-2.72993
0
LINE
8
BLACK
6
CONTINUOUS
10
4.11461
20
-2.72993
11
4.12016
21
-2.72913
0
LINE
8
BLACK
6
CONTINUOUS
10
4.12016
20
-2.72913
11
4.13984
21
-2.72913
0
LINE
8
BLACK
6
CONTINUOUS
10
4.13984
20
-2.72913
11
4.14539
21
-2.72993
0
LINE
8
BLACK
6
CONTINUOUS
10
4.24478
20
-2.72993
11
4.24987
21
-2.73226
0
LINE
8
BLACK
6
CONTINUOUS
10
4.24987
20
-2.73226
11
4.25411
21
-2.73593
0
LINE
8
BLACK
6
CONTINUOUS
10
4.25411
20
-2.73593
11
4.25714
21
-2.74064
0
LINE
8
BLACK
6
CONTINUOUS
10
4.25714
20
-2.74064
11
4.25872
21
-2.74602
0
LINE
8
BLACK
6
CONTINUOUS
10
4.25872
20
-2.74602
11
4.25872
21
-2.74882
0
LINE
8
BLACK
6
CONTINUOUS
10
4.25872
20
-2.74882
11
4.25892
21
-2.74882
0
LINE
8
BLACK
6
CONTINUOUS
10
4.25892
20
-2.74882
11
4.25892
21
-2.77047
0
LINE
8
BLACK
6
CONTINUOUS
10
4.25892
20
-2.77047
11
4.19986
21
-2.77047
0
LINE
8
BLACK
6
CONTINUOUS
10
4.19986
20
-2.77047
11
4.19986
21
-2.74882
0
LINE
8
BLACK
6
CONTINUOUS
10
4.19986
20
-2.74882
11
4.20006
21
-2.74882
0
LINE
8
BLACK
6
CONTINUOUS
10
4.20006
20
-2.74882
11
4.20006
21
-2.74602
0
LINE
8
BLACK
6
CONTINUOUS
10
4.20006
20
-2.74602
11
4.20164
21
-2.74064
0
LINE
8
BLACK
6
CONTINUOUS
10
4.20164
20
-2.74064
11
4.20467
21
-2.73593
0
LINE
8
BLACK
6
CONTINUOUS
10
4.20467
20
-2.73593
11
4.2089
21
-2.73226
0
LINE
8
BLACK
6
CONTINUOUS
10
4.2089
20
-2.73226
11
4.214
21
-2.72993
0
LINE
8
BLACK
6
CONTINUOUS
10
4.214
20
-2.72993
11
4.21955
21
-2.72913
0
LINE
8
BLACK
6
CONTINUOUS
10
4.21955
20
-2.72913
11
4.23923
21
-2.72913
0
LINE
8
BLACK
6
CONTINUOUS
10
4.23923
20
-2.72913
11
4.24478
21
-2.72993
0
LINE
8
BLACK
6
CONTINUOUS
10
4.02051
20
-2.48368
11
4.03387
21
-2.48685
0
LINE
8
BLACK
6
CONTINUOUS
10
4.03387
20
-2.48685
11
4.04678
21
-2.49155
0
LINE
8
BLACK
6
CONTINUOUS
10
4.04678
20
-2.49155
11
4.05906
21
-2.49771
0
LINE
8
BLACK
6
CONTINUOUS
10
4.05906
20
-2.49771
11
4.07053
21
-2.50526
0
LINE
8
BLACK
6
CONTINUOUS
10
4.07053
20
-2.50526
11
4.08105
21
-2.51409
0
LINE
8
BLACK
6
CONTINUOUS
10
4.08105
20
-2.51409
11
4.09048
21
-2.52408
0
LINE
8
BLACK
6
CONTINUOUS
10
4.09048
20
-2.52408
11
4.09868
21
-2.5351
0
LINE
8
BLACK
6
CONTINUOUS
10
4.09868
20
-2.5351
11
4.10555
21
-2.54699
0
LINE
8
BLACK
6
CONTINUOUS
10
4.10555
20
-2.54699
11
4.11099
21
-2.5596
0
LINE
8
BLACK
6
CONTINUOUS
10
4.11099
20
-2.5596
11
4.11493
21
-2.57276
0
LINE
8
BLACK
6
CONTINUOUS
10
4.11493
20
-2.57276
11
4.11731
21
-2.58629
0
LINE
8
BLACK
6
CONTINUOUS
10
4.11731
20
-2.58629
11
4.11811
21
-2.6
0
LINE
8
BLACK
6
CONTINUOUS
10
4.11811
20
-2.6
11
4.11731
21
-2.61371
0
LINE
8
BLACK
6
CONTINUOUS
10
4.11731
20
-2.61371
11
4.11493
21
-2.62724
0
LINE
8
BLACK
6
CONTINUOUS
10
4.11493
20
-2.62724
11
4.11099
21
-2.6404
0
LINE
8
BLACK
6
CONTINUOUS
10
4.11099
20
-2.6404
11
4.10555
21
-2.65301
0
LINE
8
BLACK
6
CONTINUOUS
10
4.10555
20
-2.65301
11
4.09868
21
-2.6649
0
LINE
8
BLACK
6
CONTINUOUS
10
4.09868
20
-2.6649
11
4.09048
21
-2.67592
0
LINE
8
BLACK
6
CONTINUOUS
10
4.09048
20
-2.67592
11
4.08105
21
-2.68591
0
LINE
8
BLACK
6
CONTINUOUS
10
4.08105
20
-2.68591
11
4.07053
21
-2.69474
0
LINE
8
BLACK
6
CONTINUOUS
10
4.07053
20
-2.69474
11
4.05906
21
-2.70229
0
LINE
8
BLACK
6
CONTINUOUS
10
4.05906
20
-2.70229
11
4.04678
21
-2.70845
0
LINE
8
BLACK
6
CONTINUOUS
10
4.04678
20
-2.70845
11
4.03387
21
-2.71315
0
LINE
8
BLACK
6
CONTINUOUS
10
4.03387
20
-2.71315
11
4.02051
21
-2.71632
0
LINE
8
BLACK
6
CONTINUOUS
10
4.02051
20
-2.71632
11
4.00687
21
-2.71791
0
LINE
8
BLACK
6
CONTINUOUS
10
4.00687
20
-2.71791
11
3.99313
21
-2.71791
0
LINE
8
BLACK
6
CONTINUOUS
10
3.99313
20
-2.71791
11
3.97949
21
-2.71632
0
LINE
8
BLACK
6
CONTINUOUS
10
3.97949
20
-2.71632
11
3.96613
21
-2.71315
0
LINE
8
BLACK
6
CONTINUOUS
10
3.96613
20
-2.71315
11
3.95322
21
-2.70845
0
LINE
8
BLACK
6
CONTINUOUS
10
3.95322
20
-2.70845
11
3.94094
21
-2.70229
0
LINE
8
BLACK
6
CONTINUOUS
10
3.94094
20
-2.70229
11
3.92947
21
-2.69474
0
LINE
8
BLACK
6
CONTINUOUS
10
3.92947
20
-2.69474
11
3.91895
21
-2.68591
0
LINE
8
BLACK
6
CONTINUOUS
10
3.91895
20
-2.68591
11
3.90952
21
-2.67592
0
LINE
8
BLACK
6
CONTINUOUS
10
3.90952
20
-2.67592
11
3.90132
21
-2.6649
0
LINE
8
BLACK
6
CONTINUOUS
10
3.90132
20
-2.6649
11
3.89445
21
-2.65301
0
LINE
8
BLACK
6
CONTINUOUS
10
3.89445
20
-2.65301
11
3.88901
21
-2.6404
0
LINE
8
BLACK
6
CONTINUOUS
10
3.88901
20
-2.6404
11
3.88507
21
-2.62724
0
LINE
8
BLACK
6
CONTINUOUS
10
3.88507
20
-2.62724
11
3.88269
21
-2.61371
0
LINE
8
BLACK
6
CONTINUOUS
10
3.88269
20
-2.61371
11
3.88189
21
-2.6
0
LINE
8
BLACK
6
CONTINUOUS
10
3.88189
20
-2.6
11
3.88269
21
-2.58629
0
LINE
8
BLACK
6
CONTINUOUS
10
3.88269
20
-2.58629
11
3.88507
21
-2.57276
0
LINE
8
BLACK
6
CONTINUOUS
10
3.88507
20
-2.57276
11
3.88901
21
-2.5596
0
LINE
8
BLACK
6
CONTINUOUS
10
3.88901
20
-2.5596
11
3.89445
21
-2.54699
0
LINE
8
BLACK
6
CONTINUOUS
10
3.89445
20
-2.54699
11
3.90132
21
-2.5351
0
LINE
8
BLACK
6
CONTINUOUS
10
3.90132
20
-2.5351
11
3.90952
21
-2.52408
0
LINE
8
BLACK
6
CONTINUOUS
10
3.90952
20
-2.52408
11
3.91895
21
-2.51409
0
LINE
8
BLACK
6
CONTINUOUS
10
3.91895
20
-2.51409
11
3.92947
21
-2.50526
0
LINE
8
BLACK
6
CONTINUOUS
10
3.92947
20
-2.50526
11
3.94094
21
-2.49771
0
LINE
8
BLACK
6
CONTINUOUS
10
3.94094
20
-2.49771
11
3.95322
21
-2.49155
0
LINE
8
BLACK
6
CONTINUOUS
10
3.95322
20
-2.49155
11
3.96613
21
-2.48685
0
LINE
8
BLACK
6
CONTINUOUS
10
3.96613
20
-2.48685
11
3.97949
21
-2.48368
0
LINE
8
BLACK
6
CONTINUOUS
10
3.97949
20
-2.48368
11
3.99313
21
-2.48209
0
LINE
8
BLACK
6
CONTINUOUS
10
3.99313
20
-2.48209
11
4.00687
21
-2.48209
0
LINE
8
BLACK
6
CONTINUOUS
10
4.00687
20
-2.48209
11
4.02051
21
-2.48368
0
LINE
8
BLACK
6
CONTINUOUS
10
4.82051
20
-2.48368
11
4.83387
21
-2.48685
0
LINE
8
BLACK
6
CONTINUOUS
10
4.83387
20
-2.48685
11
4.84678
21
-2.49155
0
LINE
8
BLACK
6
CONTINUOUS
10
4.84678
20
-2.49155
11
4.85906
21
-2.49771
0
LINE
8
BLACK
6
CONTINUOUS
10
4.85906
20
-2.49771
11
4.87053
21
-2.50526
0
LINE
8
BLACK
6
CONTINUOUS
10
4.87053
20
-2.50526
11
4.88105
21
-2.51409
0
LINE
8
BLACK
6
CONTINUOUS
10
4.88105
20
-2.51409
11
4.89048
21
-2.52408
0
LINE
8
BLACK
6
CONTINUOUS
10
4.89048
20
-2.52408
11
4.89868
21
-2.5351
0
LINE
8
BLACK
6
CONTINUOUS
10
4.89868
20
-2.5351
11
4.90555
21
-2.54699
0
LINE
8
BLACK
6
CONTINUOUS
10
4.90555
20
-2.54699
11
4.91099
21
-2.5596
0
LINE
8
BLACK
6
CONTINUOUS
10
4.91099
20
-2.5596
11
4.91493
21
-2.57276
0
LINE
8
BLACK
6
CONTINUOUS
10
4.91493
20
-2.57276
11
4.91731
21
-2.58629
0
LINE
8
BLACK
6
CONTINUOUS
10
4.91731
20
-2.58629
11
4.91811
21
-2.6
0
LINE
8
BLACK
6
CONTINUOUS
10
4.91811
20
-2.6
11
4.91731
21
-2.61371
0
LINE
8
BLACK
6
CONTINUOUS
10
4.91731
20
-2.61371
11
4.91493
21
-2.62724
0
LINE
8
BLACK
6
CONTINUOUS
10
4.91493
20
-2.62724
11
4.91099
21
-2.6404
0
LINE
8
BLACK
6
CONTINUOUS
10
4.91099
20
-2.6404
11
4.90555
21
-2.65301
0
LINE
8
BLACK
6
CONTINUOUS
10
4.90555
20
-2.65301
11
4.89868
21
-2.6649
0
LINE
8
BLACK
6
CONTINUOUS
10
4.89868
20
-2.6649
11
4.89048
21
-2.67592
0
LINE
8
BLACK
6
CONTINUOUS
10
4.89048
20
-2.67592
11
4.88105
21
-2.68591
0
LINE
8
BLACK
6
CONTINUOUS
10
4.88105
20
-2.68591
11
4.87053
21
-2.69474
0
LINE
8
BLACK
6
CONTINUOUS
10
4.87053
20
-2.69474
11
4.85906
21
-2.70229
0
LINE
8
BLACK
6
CONTINUOUS
10
4.85906
20
-2.70229
11
4.84678
21
-2.70845
0
LINE
8
BLACK
6
CONTINUOUS
10
4.84678
20
-2.70845
11
4.83387
21
-2.71315
0
LINE
8
BLACK
6
CONTINUOUS
10
4.83387
20
-2.71315
11
4.82051
21
-2.71632
0
LINE
8
BLACK
6
CONTINUOUS
10
4.82051
20
-2.71632
11
4.80687
21
-2.71791
0
LINE
8
BLACK
6
CONTINUOUS
10
4.80687
20
-2.71791
11
4.79313
21
-2.71791
0
LINE
8
BLACK
6
CONTINUOUS
10
4.79313
20
-2.71791
11
4.77949
21
-2.71632
0
LINE
8
BLACK
6
CONTINUOUS
10
4.77949
20
-2.71632
11
4.76613
21
-2.71315
0
LINE
8
BLACK
6
CONTINUOUS
10
4.76613
20
-2.71315
11
4.75322
21
-2.70845
0
LINE
8
BLACK
6
CONTINUOUS
10
4.75322
20
-2.70845
11
4.74094
21
-2.70229
0
LINE
8
BLACK
6
CONTINUOUS
10
4.74094
20
-2.70229
11
4.72947
21
-2.69474
0
LINE
8
BLACK
6
CONTINUOUS
10
4.72947
20
-2.69474
11
4.71895
21
-2.68591
0
LINE
8
BLACK
6
CONTINUOUS
10
4.71895
20
-2.68591
11
4.70952
21
-2.67592
0
LINE
8
BLACK
6
CONTINUOUS
10
4.70952
20
-2.67592
11
4.70132
21
-2.6649
0
LINE
8
BLACK
6
CONTINUOUS
10
4.70132
20
-2.6649
11
4.69445
21
-2.65301
0
LINE
8
BLACK
6
CONTINUOUS
10
4.69445
20
-2.65301
11
4.68901
21
-2.6404
0
LINE
8
BLACK
6
CONTINUOUS
10
4.68901
20
-2.6404
11
4.68507
21
-2.62724
0
LINE
8
BLACK
6
CONTINUOUS
10
4.68507
20
-2.62724
11
4.68269
21
-2.61371
0
LINE
8
BLACK
6
CONTINUOUS
10
4.68269
20
-2.61371
11
4.68189
21
-2.6
0
LINE
8
BLACK
6
CONTINUOUS
10
4.68189
20
-2.6
11
4.68269
21
-2.58629
0
LINE
8
BLACK
6
CONTINUOUS
10
4.68269
20
-2.58629
11
4.68507
21
-2.57276
0
LINE
8
BLACK
6
CONTINUOUS
10
4.68507
20
-2.57276
11
4.68901
21
-2.5596
0
LINE
8
BLACK
6
CONTINUOUS
10
4.68901
20
-2.5596
11
4.69445
21
-2.54699
0
LINE
8
BLACK
6
CONTINUOUS
10
4.69445
20
-2.54699
11
4.70132
21
-2.5351
0
LINE
8
BLACK
6
CONTINUOUS
10
4.70132
20
-2.5351
11
4.70952
21
-2.52408
0
LINE
8
BLACK
6
CONTINUOUS
10
4.70952
20
-2.52408
11
4.71895
21
-2.51409
0
LINE
8
BLACK
6
CONTINUOUS
10
4.71895
20
-2.51409
11
4.72947
21
-2.50526
0
LINE
8
BLACK
6
CONTINUOUS
10
4.72947
20
-2.50526
11
4.74094
21
-2.49771
0
LINE
8
BLACK
6
CONTINUOUS
10
4.74094
20
-2.49771
11
4.75322
21
-2.49155
0
LINE
8
BLACK
6
CONTINUOUS
10
4.75322
20
-2.49155
11
4.76613
21
-2.48685
0
LINE
8
BLACK
6
CONTINUOUS
10
4.76613
20
-2.48685
11
4.77949
21
-2.48368
0
LINE
8
BLACK
6
CONTINUOUS
10
4.77949
20
-2.48368
11
4.79313
21
-2.48209
0
LINE
8
BLACK
6
CONTINUOUS
10
4.79313
20
-2.48209
11
4.80687
21
-2.48209
0
LINE
8
BLACK
6
CONTINUOUS
10
4.80687
20
-2.48209
11
4.82051
21
-2.48368
0
LINE
8
BLACK
6
CONTINUOUS
10
4.33435
20
-2.58982
11
4.33626
21
-2.5911
0
LINE
8
BLACK
6
CONTINUOUS
10
4.33626
20
-2.5911
11
4.33754
21
-2.59302
0
LINE
8
BLACK
6
CONTINUOUS
10
4.33754
20
-2.59302
11
4.33799
21
-2.59528
0
LINE
8
BLACK
6
CONTINUOUS
10
4.33799
20
-2.59528
11
4.33799
21
-2.65039
0
LINE
8
BLACK
6
CONTINUOUS
10
4.33799
20
-2.65039
11
4.33754
21
-2.65265
0
LINE
8
BLACK
6
CONTINUOUS
10
4.33754
20
-2.65265
11
4.33626
21
-2.65457
0
LINE
8
BLACK
6
CONTINUOUS
10
4.33626
20
-2.65457
11
4.33435
21
-2.65585
0
LINE
8
BLACK
6
CONTINUOUS
10
4.33435
20
-2.65585
11
4.33209
21
-2.6563
0
LINE
8
BLACK
6
CONTINUOUS
10
4.33209
20
-2.6563
11
4.32028
21
-2.6563
0
LINE
8
BLACK
6
CONTINUOUS
10
4.32028
20
-2.6563
11
4.31802
21
-2.65585
0
LINE
8
BLACK
6
CONTINUOUS
10
4.31802
20
-2.65585
11
4.3161
21
-2.65457
0
LINE
8
BLACK
6
CONTINUOUS
10
4.3161
20
-2.65457
11
4.31482
21
-2.65265
0
LINE
8
BLACK
6
CONTINUOUS
10
4.31482
20
-2.65265
11
4.31437
21
-2.65039
0
LINE
8
BLACK
6
CONTINUOUS
10
4.31437
20
-2.65039
11
4.31437
21
-2.59528
0
LINE
8
BLACK
6
CONTINUOUS
10
4.31437
20
-2.59528
11
4.31482
21
-2.59302
0
LINE
8
BLACK
6
CONTINUOUS
10
4.31482
20
-2.59302
11
4.3161
21
-2.5911
0
LINE
8
BLACK
6
CONTINUOUS
10
4.3161
20
-2.5911
11
4.31802
21
-2.58982
0
LINE
8
BLACK
6
CONTINUOUS
10
4.31802
20
-2.58982
11
4.32028
21
-2.58937
0
LINE
8
BLACK
6
CONTINUOUS
10
4.32028
20
-2.58937
11
4.33209
21
-2.58937
0
LINE
8
BLACK
6
CONTINUOUS
10
4.33209
20
-2.58937
11
4.33435
21
-2.58982
0
LINE
8
BLACK
6
CONTINUOUS
10
4.38356
20
-2.58982
11
4.38548
21
-2.5911
0
LINE
8
BLACK
6
CONTINUOUS
10
4.38548
20
-2.5911
11
4.38676
21
-2.59302
0
LINE
8
BLACK
6
CONTINUOUS
10
4.38676
20
-2.59302
11
4.3872
21
-2.59528
0
LINE
8
BLACK
6
CONTINUOUS
10
4.3872
20
-2.59528
11
4.3872
21
-2.65039
0
LINE
8
BLACK
6
CONTINUOUS
10
4.3872
20
-2.65039
11
4.38676
21
-2.65265
0
LINE
8
BLACK
6
CONTINUOUS
10
4.38676
20
-2.65265
11
4.38548
21
-2.65457
0
LINE
8
BLACK
6
CONTINUOUS
10
4.38548
20
-2.65457
11
4.38356
21
-2.65585
0
LINE
8
BLACK
6
CONTINUOUS
10
4.38356
20
-2.65585
11
4.3813
21
-2.6563
0
LINE
8
BLACK
6
CONTINUOUS
10
4.3813
20
-2.6563
11
4.36949
21
-2.6563
0
LINE
8
BLACK
6
CONTINUOUS
10
4.36949
20
-2.6563
11
4.36723
21
-2.65585
0
LINE
8
BLACK
6
CONTINUOUS
10
4.36723
20
-2.65585
11
4.36531
21
-2.65457
0
LINE
8
BLACK
6
CONTINUOUS
10
4.36531
20
-2.65457
11
4.36403
21
-2.65265
0
LINE
8
BLACK
6
CONTINUOUS
10
4.36403
20
-2.65265
11
4.36358
21
-2.65039
0
LINE
8
BLACK
6
CONTINUOUS
10
4.36358
20
-2.65039
11
4.36358
21
-2.59528
0
LINE
8
BLACK
6
CONTINUOUS
10
4.36358
20
-2.59528
11
4.36403
21
-2.59302
0
LINE
8
BLACK
6
CONTINUOUS
10
4.36403
20
-2.59302
11
4.36531
21
-2.5911
0
LINE
8
BLACK
6
CONTINUOUS
10
4.36531
20
-2.5911
11
4.36723
21
-2.58982
0
LINE
8
BLACK
6
CONTINUOUS
10
4.36723
20
-2.58982
11
4.36949
21
-2.58937
0
LINE
8
BLACK
6
CONTINUOUS
10
4.36949
20
-2.58937
11
4.3813
21
-2.58937
0
LINE
8
BLACK
6
CONTINUOUS
10
4.3813
20
-2.58937
11
4.38356
21
-2.58982
0
LINE
8
BLACK
6
CONTINUOUS
10
4.43277
20
-2.58982
11
4.43469
21
-2.5911
0
LINE
8
BLACK
6
CONTINUOUS
10
4.43469
20
-2.5911
11
4.43597
21
-2.59302
0
LINE
8
BLACK
6
CONTINUOUS
10
4.43597
20
-2.59302
11
4.43642
21
-2.59528
0
LINE
8
BLACK
6
CONTINUOUS
10
4.43642
20
-2.59528
11
4.43642
21
-2.65039
0
LINE
8
BLACK
6
CONTINUOUS
10
4.43642
20
-2.65039
11
4.43597
21
-2.65265
0
LINE
8
BLACK
6
CONTINUOUS
10
4.43597
20
-2.65265
11
4.43469
21
-2.65457
0
LINE
8
BLACK
6
CONTINUOUS
10
4.43469
20
-2.65457
11
4.43277
21
-2.65585
0
LINE
8
BLACK
6
CONTINUOUS
10
4.43277
20
-2.65585
11
4.43051
21
-2.6563
0
LINE
8
BLACK
6
CONTINUOUS
10
4.43051
20
-2.6563
11
4.4187
21
-2.6563
0
LINE
8
BLACK
6
CONTINUOUS
10
4.4187
20
-2.6563
11
4.41644
21
-2.65585
0
LINE
8
BLACK
6
CONTINUOUS
10
4.41644
20
-2.65585
11
4.41452
21
-2.65457
0
LINE
8
BLACK
6
CONTINUOUS
10
4.41452
20
-2.65457
11
4.41324
21
-2.65265
0
LINE
8
BLACK
6
CONTINUOUS
10
4.41324
20
-2.65265
11
4.4128
21
-2.65039
0
LINE
8
BLACK
6
CONTINUOUS
10
4.4128
20
-2.65039
11
4.4128
21
-2.59528
0
LINE
8
BLACK
6
CONTINUOUS
10
4.4128
20
-2.59528
11
4.41324
21
-2.59302
0
LINE
8
BLACK
6
CONTINUOUS
10
4.41324
20
-2.59302
11
4.41452
21
-2.5911
0
LINE
8
BLACK
6
CONTINUOUS
10
4.41452
20
-2.5911
11
4.41644
21
-2.58982
0
LINE
8
BLACK
6
CONTINUOUS
10
4.41644
20
-2.58982
11
4.4187
21
-2.58937
0
LINE
8
BLACK
6
CONTINUOUS
10
4.4187
20
-2.58937
11
4.43051
21
-2.58937
0
LINE
8
BLACK
6
CONTINUOUS
10
4.43051
20
-2.58937
11
4.43277
21
-2.58982
0
LINE
8
BLACK
6
CONTINUOUS
10
4.48198
20
-2.58982
11
4.4839
21
-2.5911
0
LINE
8
BLACK
6
CONTINUOUS
10
4.4839
20
-2.5911
11
4.48518
21
-2.59302
0
LINE
8
BLACK
6
CONTINUOUS
10
4.48518
20
-2.59302
11
4.48563
21
-2.59528
0
LINE
8
BLACK
6
CONTINUOUS
10
4.48563
20
-2.59528
11
4.48563
21
-2.65039
0
LINE
8
BLACK
6
CONTINUOUS
10
4.48563
20
-2.65039
11
4.48518
21
-2.65265
0
LINE
8
BLACK
6
CONTINUOUS
10
4.48518
20
-2.65265
11
4.4839
21
-2.65457
0
LINE
8
BLACK
6
CONTINUOUS
10
4.4839
20
-2.65457
11
4.48198
21
-2.65585
0
LINE
8
BLACK
6
CONTINUOUS
10
4.48198
20
-2.65585
11
4.47972
21
-2.6563
0
LINE
8
BLACK
6
CONTINUOUS
10
4.47972
20
-2.6563
11
4.46791
21
-2.6563
0
LINE
8
BLACK
6
CONTINUOUS
10
4.46791
20
-2.6563
11
4.46565
21
-2.65585
0
LINE
8
BLACK
6
CONTINUOUS
10
4.46565
20
-2.65585
11
4.46374
21
-2.65457
0
LINE
8
BLACK
6
CONTINUOUS
10
4.46374
20
-2.65457
11
4.46246
21
-2.65265
0
LINE
8
BLACK
6
CONTINUOUS
10
4.46246
20
-2.65265
11
4.46201
21
-2.65039
0
LINE
8
BLACK
6
CONTINUOUS
10
4.46201
20
-2.65039
11
4.46201
21
-2.59528
0
LINE
8
BLACK
6
CONTINUOUS
10
4.46201
20
-2.59528
11
4.46246
21
-2.59302
0
LINE
8
BLACK
6
CONTINUOUS
10
4.46246
20
-2.59302
11
4.46374
21
-2.5911
0
LINE
8
BLACK
6
CONTINUOUS
10
4.46374
20
-2.5911
11
4.46565
21
-2.58982
0
LINE
8
BLACK
6
CONTINUOUS
10
4.46565
20
-2.58982
11
4.46791
21
-2.58937
0
LINE
8
BLACK
6
CONTINUOUS
10
4.46791
20
-2.58937
11
4.47972
21
-2.58937
0
LINE
8
BLACK
6
CONTINUOUS
10
4.47972
20
-2.58937
11
4.48198
21
-2.58982
0
LINE
8
BLACK
6
CONTINUOUS
10
4.26696
20
-2.44445
11
4.27015
21
-2.44658
0
LINE
8
BLACK
6
CONTINUOUS
10
4.27015
20
-2.44658
11
4.27228
21
-2.44978
0
LINE
8
BLACK
6
CONTINUOUS
10
4.27228
20
-2.44978
11
4.27303
21
-2.45354
0
LINE
8
BLACK
6
CONTINUOUS
10
4.27303
20
-2.45354
11
4.27303
21
-2.54016
0
LINE
8
BLACK
6
CONTINUOUS
10
4.27303
20
-2.54016
11
4.27228
21
-2.54392
0
LINE
8
BLACK
6
CONTINUOUS
10
4.27228
20
-2.54392
11
4.27015
21
-2.54712
0
LINE
8
BLACK
6
CONTINUOUS
10
4.27015
20
-2.54712
11
4.26696
21
-2.54925
0
LINE
8
BLACK
6
CONTINUOUS
10
4.26696
20
-2.54925
11
4.26319
21
-2.55
0
LINE
8
BLACK
6
CONTINUOUS
10
4.26319
20
-2.55
11
4.2435
21
-2.55
0
LINE
8
BLACK
6
CONTINUOUS
10
4.2435
20
-2.55
11
4.23974
21
-2.54925
0
LINE
8
BLACK
6
CONTINUOUS
10
4.23974
20
-2.54925
11
4.23654
21
-2.54712
0
LINE
8
BLACK
6
CONTINUOUS
10
4.23654
20
-2.54712
11
4.23441
21
-2.54392
0
LINE
8
BLACK
6
CONTINUOUS
10
4.23441
20
-2.54392
11
4.23366
21
-2.54016
0
LINE
8
BLACK
6
CONTINUOUS
10
4.23366
20
-2.54016
11
4.23366
21
-2.45354
0
LINE
8
BLACK
6
CONTINUOUS
10
4.23366
20
-2.45354
11
4.23441
21
-2.44978
0
LINE
8
BLACK
6
CONTINUOUS
10
4.23441
20
-2.44978
11
4.23654
21
-2.44658
0
LINE
8
BLACK
6
CONTINUOUS
10
4.23654
20
-2.44658
11
4.23974
21
-2.44445
0
LINE
8
BLACK
6
CONTINUOUS
10
4.23974
20
-2.44445
11
4.2435
21
-2.4437
0
LINE
8
BLACK
6
CONTINUOUS
10
4.2435
20
-2.4437
11
4.26319
21
-2.4437
0
LINE
8
BLACK
6
CONTINUOUS
10
4.26319
20
-2.4437
11
4.26696
21
-2.44445
0
LINE
8
BLACK
6
CONTINUOUS
10
4.56026
20
-2.44445
11
4.56346
21
-2.44658
0
LINE
8
BLACK
6
CONTINUOUS
10
4.56346
20
-2.44658
11
4.56559
21
-2.44978
0
LINE
8
BLACK
6
CONTINUOUS
10
4.56559
20
-2.44978
11
4.56634
21
-2.45354
0
LINE
8
BLACK
6
CONTINUOUS
10
4.56634
20
-2.45354
11
4.56634
21
-2.54016
0
LINE
8
BLACK
6
CONTINUOUS
10
4.56634
20
-2.54016
11
4.56559
21
-2.54392
0
LINE
8
BLACK
6
CONTINUOUS
10
4.56559
20
-2.54392
11
4.56346
21
-2.54712
0
LINE
8
BLACK
6
CONTINUOUS
10
4.56346
20
-2.54712
11
4.56026
21
-2.54925
0
LINE
8
BLACK
6
CONTINUOUS
10
4.56026
20
-2.54925
11
4.5565
21
-2.55
0
LINE
8
BLACK
6
CONTINUOUS
10
4.5565
20
-2.55
11
4.53681
21
-2.55
0
LINE
8
BLACK
6
CONTINUOUS
10
4.53681
20
-2.55
11
4.53304
21
-2.54925
0
LINE
8
BLACK
6
CONTINUOUS
10
4.53304
20
-2.54925
11
4.52985
21
-2.54712
0
LINE
8
BLACK
6
CONTINUOUS
10
4.52985
20
-2.54712
11
4.52772
21
-2.54392
0
LINE
8
BLACK
6
CONTINUOUS
10
4.52772
20
-2.54392
11
4.52697
21
-2.54016
0
LINE
8
BLACK
6
CONTINUOUS
10
4.52697
20
-2.54016
11
4.52697
21
-2.45354
0
LINE
8
BLACK
6
CONTINUOUS
10
4.52697
20
-2.45354
11
4.52772
21
-2.44978
0
LINE
8
BLACK
6
CONTINUOUS
10
4.52772
20
-2.44978
11
4.52985
21
-2.44658
0
LINE
8
BLACK
6
CONTINUOUS
10
4.52985
20
-2.44658
11
4.53304
21
-2.44445
0
LINE
8
BLACK
6
CONTINUOUS
10
4.53304
20
-2.44445
11
4.53681
21
-2.4437
0
LINE
8
BLACK
6
CONTINUOUS
10
4.53681
20
-2.4437
11
4.5565
21
-2.4437
0
LINE
8
BLACK
6
CONTINUOUS
10
4.5565
20
-2.4437
11
4.56026
21
-2.44445
  0
ENDSEC
  0
EOF
