  0
SECTION
  2
HEADER
  9
$ANGBASE
  50
0.0
  9
$ANGDIR
  70
1
  9
$MEASUREMENT
  70
0
  0
ENDSEC
  0
SECTION
  2
TABLES
  0
TABLE
  2
LTYPE
  70
4
  0
LTYPE
  5
40F
  2
CONTINUOUS
  70
0
  3
Solid line
  72
65
  73
0
  40
0.0
  0
LTYPE
  5
410
  2
DASHDOT
 70
0
  3
Dash Dot ____ _ ____ _
 72
65
 73
4
 40
2.0
 49
1.25
 49
-0.25
 49
0.25
 49
-0.25
  0
LTYPE
  5
411
  2
DASHED
 70
0
  3
Dashed __ __ __ __ __
 72
65
 73
2
 40
0.75
 49
0.5
 49
-0.25
  0
LTYPE
  5
43B
  2
DOTTED
 70
0
  3
Dotted .  .  .  .
 72
65
 73
2
 40
0.2
 49
0.0
 49
-0.2
  0
ENDTAB
  0
TABLE
  2
STYLE
  70
4
  0
STYLE
  2
KICAD
  70
0
  40
0
  41
1
  42
1
  50
0
  71
0
  3
isocp.shx
  0
STYLE
  2
KICADB
  70
0
  40
0
  41
1
  42
1
  50
0
  71
0
  3
isocp.shx
  0
STYLE
  2
KICADI
  70
0
  40
0
  41
1
  42
1
  50
15
  71
0
  3
isocp.shx
  0
STYLE
  2
KICADBI
  70
0
  40
0
  41
1
  42
1
  50
15
  71
0
  3
isocp.shx
  0
ENDTAB
  0
TABLE
  2
LAYER
  70
1
  0
LAYER
  2
BLACK
  70
0
  62
7
  6
CONTINUOUS
  0
ENDTAB
  0
ENDSEC
  0
SECTION
  2
ENTITIES
0
LINE
8
BLACK
6
CONTINUOUS
10
3.91818
20
-2.78209
11
3.92289
21
-2.78512
0
LINE
8
BLACK
6
CONTINUOUS
10
3.92289
20
-2.78512
11
3.92656
21
-2.78936
0
LINE
8
BLACK
6
CONTINUOUS
10
3.92656
20
-2.78936
11
3.92889
21
-2.79445
0
LINE
8
BLACK
6
CONTINUOUS
10
3.92889
20
-2.79445
11
3.92969
21
-2.8
0
LINE
8
BLACK
6
CONTINUOUS
10
3.92969
20
-2.8
11
3.92889
21
-2.80555
0
LINE
8
BLACK
6
CONTINUOUS
10
3.92889
20
-2.80555
11
3.92656
21
-2.81064
0
LINE
8
BLACK
6
CONTINUOUS
10
3.92656
20
-2.81064
11
3.92289
21
-2.81488
0
LINE
8
BLACK
6
CONTINUOUS
10
3.92289
20
-2.81488
11
3.91818
21
-2.81791
0
LINE
8
BLACK
6
CONTINUOUS
10
3.91818
20
-2.81791
11
3.9128
21
-2.81948
0
LINE
8
BLACK
6
CONTINUOUS
10
3.9128
20
-2.81948
11
3.9072
21
-2.81948
0
LINE
8
BLACK
6
CONTINUOUS
10
3.9072
20
-2.81948
11
3.90182
21
-2.81791
0
LINE
8
BLACK
6
CONTINUOUS
10
3.90182
20
-2.81791
11
3.89711
21
-2.81488
0
LINE
8
BLACK
6
CONTINUOUS
10
3.89711
20
-2.81488
11
3.89344
21
-2.81064
0
LINE
8
BLACK
6
CONTINUOUS
10
3.89344
20
-2.81064
11
3.89111
21
-2.80555
0
LINE
8
BLACK
6
CONTINUOUS
10
3.89111
20
-2.80555
11
3.89031
21
-2.8
0
LINE
8
BLACK
6
CONTINUOUS
10
3.89031
20
-2.8
11
3.89111
21
-2.79445
0
LINE
8
BLACK
6
CONTINUOUS
10
3.89111
20
-2.79445
11
3.89344
21
-2.78936
0
LINE
8
BLACK
6
CONTINUOUS
10
3.89344
20
-2.78936
11
3.89711
21
-2.78512
0
LINE
8
BLACK
6
CONTINUOUS
10
3.89711
20
-2.78512
11
3.90182
21
-2.78209
0
LINE
8
BLACK
6
CONTINUOUS
10
3.90182
20
-2.78209
11
3.9072
21
-2.78052
0
LINE
8
BLACK
6
CONTINUOUS
10
3.9072
20
-2.78052
11
3.9128
21
-2.78052
0
LINE
8
BLACK
6
CONTINUOUS
10
3.9128
20
-2.78052
11
3.91818
21
-2.78209
0
LINE
8
BLACK
6
CONTINUOUS
10
4.89818
20
-2.78209
11
4.90289
21
-2.78512
0
LINE
8
BLACK
6
CONTINUOUS
10
4.90289
20
-2.78512
11
4.90656
21
-2.78936
0
LINE
8
BLACK
6
CONTINUOUS
10
4.90656
20
-2.78936
11
4.90889
21
-2.79445
0
LINE
8
BLACK
6
CONTINUOUS
10
4.90889
20
-2.79445
11
4.90969
21
-2.8
0
LINE
8
BLACK
6
CONTINUOUS
10
4.90969
20
-2.8
11
4.90889
21
-2.80555
0
LINE
8
BLACK
6
CONTINUOUS
10
4.90889
20
-2.80555
11
4.90656
21
-2.81064
0
LINE
8
BLACK
6
CONTINUOUS
10
4.90656
20
-2.81064
11
4.90289
21
-2.81488
0
LINE
8
BLACK
6
CONTINUOUS
10
4.90289
20
-2.81488
11
4.89818
21
-2.81791
0
LINE
8
BLACK
6
CONTINUOUS
10
4.89818
20
-2.81791
11
4.8928
21
-2.81948
0
LINE
8
BLACK
6
CONTINUOUS
10
4.8928
20
-2.81948
11
4.8872
21
-2.81948
0
LINE
8
BLACK
6
CONTINUOUS
10
4.8872
20
-2.81948
11
4.88182
21
-2.81791
0
LINE
8
BLACK
6
CONTINUOUS
10
4.88182
20
-2.81791
11
4.87711
21
-2.81488
0
LINE
8
BLACK
6
CONTINUOUS
10
4.87711
20
-2.81488
11
4.87344
21
-2.81064
0
LINE
8
BLACK
6
CONTINUOUS
10
4.87344
20
-2.81064
11
4.87111
21
-2.80555
0
LINE
8
BLACK
6
CONTINUOUS
10
4.87111
20
-2.80555
11
4.87031
21
-2.8
0
LINE
8
BLACK
6
CONTINUOUS
10
4.87031
20
-2.8
11
4.87111
21
-2.79445
0
LINE
8
BLACK
6
CONTINUOUS
10
4.87111
20
-2.79445
11
4.87344
21
-2.78936
0
LINE
8
BLACK
6
CONTINUOUS
10
4.87344
20
-2.78936
11
4.87711
21
-2.78512
0
LINE
8
BLACK
6
CONTINUOUS
10
4.87711
20
-2.78512
11
4.88182
21
-2.78209
0
LINE
8
BLACK
6
CONTINUOUS
10
4.88182
20
-2.78209
11
4.8872
21
-2.78052
0
LINE
8
BLACK
6
CONTINUOUS
10
4.8872
20
-2.78052
11
4.8928
21
-2.78052
0
LINE
8
BLACK
6
CONTINUOUS
10
4.8928
20
-2.78052
11
4.89818
21
-2.78209
0
LINE
8
BLACK
6
CONTINUOUS
10
4.16139
20
-2.42077
11
4.16319
21
-2.42285
0
LINE
8
BLACK
6
CONTINUOUS
10
4.16319
20
-2.42285
11
4.16358
21
-2.42558
0
LINE
8
BLACK
6
CONTINUOUS
10
4.16358
20
-2.42558
11
4.16244
21
-2.42808
0
LINE
8
BLACK
6
CONTINUOUS
10
4.16244
20
-2.42808
11
4.1622
21
-2.42833
0
LINE
8
BLACK
6
CONTINUOUS
10
4.1622
20
-2.42833
11
4.15796
21
-2.43257
0
LINE
8
BLACK
6
CONTINUOUS
10
4.15796
20
-2.43257
11
4.15434
21
-2.43845
0
LINE
8
BLACK
6
CONTINUOUS
10
4.15434
20
-2.43845
11
4.15434
21
-2.43845
0
LINE
8
BLACK
6
CONTINUOUS
10
4.15434
20
-2.43845
11
4.15344
21
-2.44117
0
LINE
8
BLACK
6
CONTINUOUS
10
4.15344
20
-2.44117
11
4.15217
21
-2.445
0
LINE
8
BLACK
6
CONTINUOUS
10
4.15217
20
-2.445
11
4.15217
21
-2.445
0
LINE
8
BLACK
6
CONTINUOUS
10
4.15217
20
-2.445
11
4.15217
21
-2.445
0
LINE
8
BLACK
6
CONTINUOUS
10
4.15217
20
-2.445
11
4.15175
21
-2.44905
0
LINE
8
BLACK
6
CONTINUOUS
10
4.15175
20
-2.44905
11
4.15175
21
-2.47956
0
LINE
8
BLACK
6
CONTINUOUS
10
4.15175
20
-2.47956
11
4.15175
21
-2.47956
0
LINE
8
BLACK
6
CONTINUOUS
10
4.15175
20
-2.47956
11
4.15217
21
-2.48361
0
LINE
8
BLACK
6
CONTINUOUS
10
4.15217
20
-2.48361
11
4.15217
21
-2.48361
0
LINE
8
BLACK
6
CONTINUOUS
10
4.15217
20
-2.48361
11
4.15262
21
-2.48498
0
LINE
8
BLACK
6
CONTINUOUS
10
4.15262
20
-2.48498
11
4.15287
21
-2.48502
0
LINE
8
BLACK
6
CONTINUOUS
10
4.15287
20
-2.48502
11
4.15726
21
-2.48726
0
LINE
8
BLACK
6
CONTINUOUS
10
4.15726
20
-2.48726
11
4.16074
21
-2.49074
0
LINE
8
BLACK
6
CONTINUOUS
10
4.16074
20
-2.49074
11
4.16298
21
-2.49513
0
LINE
8
BLACK
6
CONTINUOUS
10
4.16298
20
-2.49513
11
4.16375
21
-2.5
0
LINE
8
BLACK
6
CONTINUOUS
10
4.16375
20
-2.5
11
4.1635
21
-2.50159
0
LINE
8
BLACK
6
CONTINUOUS
10
4.1635
20
-2.50159
11
4.16482
21
-2.50306
0
LINE
8
BLACK
6
CONTINUOUS
10
4.16482
20
-2.50306
11
4.16526
21
-2.50577
0
LINE
8
BLACK
6
CONTINUOUS
10
4.16526
20
-2.50577
11
4.16416
21
-2.50829
0
LINE
8
BLACK
6
CONTINUOUS
10
4.16416
20
-2.50829
11
4.16298
21
-2.50932
0
LINE
8
BLACK
6
CONTINUOUS
10
4.16298
20
-2.50932
11
4.16286
21
-2.50939
0
LINE
8
BLACK
6
CONTINUOUS
10
4.16286
20
-2.50939
11
4.16286
21
-2.50939
0
LINE
8
BLACK
6
CONTINUOUS
10
4.16286
20
-2.50939
11
4.15798
21
-2.51427
0
LINE
8
BLACK
6
CONTINUOUS
10
4.15798
20
-2.51427
11
4.15436
21
-2.52015
0
LINE
8
BLACK
6
CONTINUOUS
10
4.15436
20
-2.52015
11
4.15436
21
-2.52015
0
LINE
8
BLACK
6
CONTINUOUS
10
4.15436
20
-2.52015
11
4.15218
21
-2.5267
0
LINE
8
BLACK
6
CONTINUOUS
10
4.15218
20
-2.5267
11
4.15218
21
-2.5267
0
LINE
8
BLACK
6
CONTINUOUS
10
4.15218
20
-2.5267
11
4.15177
21
-2.53074
0
LINE
8
BLACK
6
CONTINUOUS
10
4.15177
20
-2.53074
11
4.15177
21
-2.53616
0
LINE
8
BLACK
6
CONTINUOUS
10
4.15177
20
-2.53616
11
4.17146
21
-2.53616
0
LINE
8
BLACK
6
CONTINUOUS
10
4.17146
20
-2.53616
11
4.17146
21
-2.53271
0
LINE
8
BLACK
6
CONTINUOUS
10
4.17146
20
-2.53271
11
4.17221
21
-2.52895
0
LINE
8
BLACK
6
CONTINUOUS
10
4.17221
20
-2.52895
11
4.17434
21
-2.52575
0
LINE
8
BLACK
6
CONTINUOUS
10
4.17434
20
-2.52575
11
4.17753
21
-2.52362
0
LINE
8
BLACK
6
CONTINUOUS
10
4.17753
20
-2.52362
11
4.1813
21
-2.52287
0
LINE
8
BLACK
6
CONTINUOUS
10
4.1813
20
-2.52287
11
4.2187
21
-2.52287
0
LINE
8
BLACK
6
CONTINUOUS
10
4.2187
20
-2.52287
11
4.22247
21
-2.52362
0
LINE
8
BLACK
6
CONTINUOUS
10
4.22247
20
-2.52362
11
4.22566
21
-2.52575
0
LINE
8
BLACK
6
CONTINUOUS
10
4.22566
20
-2.52575
11
4.22779
21
-2.52895
0
LINE
8
BLACK
6
CONTINUOUS
10
4.22779
20
-2.52895
11
4.22854
21
-2.53271
0
LINE
8
BLACK
6
CONTINUOUS
10
4.22854
20
-2.53271
11
4.22854
21
-2.53616
0
LINE
8
BLACK
6
CONTINUOUS
10
4.22854
20
-2.53616
11
4.24823
21
-2.53616
0
LINE
8
BLACK
6
CONTINUOUS
10
4.24823
20
-2.53616
11
4.24823
21
-2.53075
0
LINE
8
BLACK
6
CONTINUOUS
10
4.24823
20
-2.53075
11
4.24823
21
-2.53074
0
LINE
8
BLACK
6
CONTINUOUS
10
4.24823
20
-2.53074
11
4.24782
21
-2.5267
0
LINE
8
BLACK
6
CONTINUOUS
10
4.24782
20
-2.5267
11
4.24679
21
-2.5236
0
LINE
8
BLACK
6
CONTINUOUS
10
4.24679
20
-2.5236
11
4.24669
21
-2.52085
0
LINE
8
BLACK
6
CONTINUOUS
10
4.24669
20
-2.52085
11
4.2481
21
-2.51849
0
LINE
8
BLACK
6
CONTINUOUS
10
4.2481
20
-2.51849
11
4.25056
21
-2.51726
0
LINE
8
BLACK
6
CONTINUOUS
10
4.25056
20
-2.51726
11
4.2533
21
-2.51756
0
LINE
8
BLACK
6
CONTINUOUS
10
4.2533
20
-2.51756
11
4.25399
21
-2.51791
0
LINE
8
BLACK
6
CONTINUOUS
10
4.25399
20
-2.51791
11
4.25538
21
-2.51877
0
LINE
8
BLACK
6
CONTINUOUS
10
4.25538
20
-2.51877
11
4.25538
21
-2.51877
0
LINE
8
BLACK
6
CONTINUOUS
10
4.25538
20
-2.51877
11
4.25538
21
-2.51877
0
LINE
8
BLACK
6
CONTINUOUS
10
4.25538
20
-2.51877
11
4.26194
21
-2.52094
0
LINE
8
BLACK
6
CONTINUOUS
10
4.26194
20
-2.52094
11
4.26598
21
-2.52136
0
LINE
8
BLACK
6
CONTINUOUS
10
4.26598
20
-2.52136
11
4.27915
21
-2.52136
0
LINE
8
BLACK
6
CONTINUOUS
10
4.27915
20
-2.52136
11
4.28179
21
-2.52213
0
LINE
8
BLACK
6
CONTINUOUS
10
4.28179
20
-2.52213
11
4.28359
21
-2.52421
0
LINE
8
BLACK
6
CONTINUOUS
10
4.28359
20
-2.52421
11
4.28404
21
-2.52624
0
LINE
8
BLACK
6
CONTINUOUS
10
4.28404
20
-2.52624
11
4.28404
21
-2.54057
0
LINE
8
BLACK
6
CONTINUOUS
10
4.28404
20
-2.54057
11
4.28326
21
-2.54321
0
LINE
8
BLACK
6
CONTINUOUS
10
4.28326
20
-2.54321
11
4.28118
21
-2.54501
0
LINE
8
BLACK
6
CONTINUOUS
10
4.28118
20
-2.54501
11
4.27931
21
-2.54545
0
LINE
8
BLACK
6
CONTINUOUS
10
4.27931
20
-2.54545
11
4.27812
21
-2.54548
0
LINE
8
BLACK
6
CONTINUOUS
10
4.27812
20
-2.54548
11
4.27812
21
-2.54548
0
LINE
8
BLACK
6
CONTINUOUS
10
4.27812
20
-2.54548
11
4.27736
21
-2.5457
0
LINE
8
BLACK
6
CONTINUOUS
10
4.27736
20
-2.5457
11
4.27661
21
-2.54586
0
LINE
8
BLACK
6
CONTINUOUS
10
4.27661
20
-2.54586
11
4.27583
21
-2.54596
0
LINE
8
BLACK
6
CONTINUOUS
10
4.27583
20
-2.54596
11
4.27583
21
-2.54596
0
LINE
8
BLACK
6
CONTINUOUS
10
4.27583
20
-2.54596
11
4.27583
21
-2.54596
0
LINE
8
BLACK
6
CONTINUOUS
10
4.27583
20
-2.54596
11
4.27583
21
-2.54596
0
LINE
8
BLACK
6
CONTINUOUS
10
4.27583
20
-2.54596
11
4.27583
21
-2.54596
0
LINE
8
BLACK
6
CONTINUOUS
10
4.27583
20
-2.54596
11
4.27412
21
-2.54663
0
LINE
8
BLACK
6
CONTINUOUS
10
4.27412
20
-2.54663
11
4.2739
21
-2.54671
0
LINE
8
BLACK
6
CONTINUOUS
10
4.2739
20
-2.54671
11
4.27214
21
-2.54722
0
LINE
8
BLACK
6
CONTINUOUS
10
4.27214
20
-2.54722
11
4.27214
21
-2.54722
0
LINE
8
BLACK
6
CONTINUOUS
10
4.27214
20
-2.54722
11
4.27146
21
-2.54762
0
LINE
8
BLACK
6
CONTINUOUS
10
4.27146
20
-2.54762
11
4.27078
21
-2.54796
0
LINE
8
BLACK
6
CONTINUOUS
10
4.27078
20
-2.54796
11
4.27004
21
-2.54825
0
LINE
8
BLACK
6
CONTINUOUS
10
4.27004
20
-2.54825
11
4.27004
21
-2.54825
0
LINE
8
BLACK
6
CONTINUOUS
10
4.27004
20
-2.54825
11
4.26856
21
-2.54933
0
LINE
8
BLACK
6
CONTINUOUS
10
4.26856
20
-2.54933
11
4.26837
21
-2.54945
0
LINE
8
BLACK
6
CONTINUOUS
10
4.26837
20
-2.54945
11
4.26679
21
-2.55039
0
LINE
8
BLACK
6
CONTINUOUS
10
4.26679
20
-2.55039
11
4.26623
21
-2.55094
0
LINE
8
BLACK
6
CONTINUOUS
10
4.26623
20
-2.55094
11
4.26565
21
-2.55144
0
LINE
8
BLACK
6
CONTINUOUS
10
4.26565
20
-2.55144
11
4.26501
21
-2.55191
0
LINE
8
BLACK
6
CONTINUOUS
10
4.26501
20
-2.55191
11
4.26384
21
-2.55332
0
LINE
8
BLACK
6
CONTINUOUS
10
4.26384
20
-2.55332
11
4.26368
21
-2.55349
0
LINE
8
BLACK
6
CONTINUOUS
10
4.26368
20
-2.55349
11
4.25656
21
-2.56061
0
LINE
8
BLACK
6
CONTINUOUS
10
4.25656
20
-2.56061
11
4.25415
21
-2.56193
0
LINE
8
BLACK
6
CONTINUOUS
10
4.25415
20
-2.56193
11
4.2514
21
-2.56173
0
LINE
8
BLACK
6
CONTINUOUS
10
4.2514
20
-2.56173
11
4.2492
21
-2.56008
0
LINE
8
BLACK
6
CONTINUOUS
10
4.2492
20
-2.56008
11
4.24824
21
-2.55751
0
LINE
8
BLACK
6
CONTINUOUS
10
4.24824
20
-2.55751
11
4.24823
21
-2.55716
0
LINE
8
BLACK
6
CONTINUOUS
10
4.24823
20
-2.55716
11
4.24823
21
-2.55584
0
LINE
8
BLACK
6
CONTINUOUS
10
4.24823
20
-2.55584
11
4.22854
21
-2.55584
0
LINE
8
BLACK
6
CONTINUOUS
10
4.22854
20
-2.55584
11
4.22854
21
-2.55929
0
LINE
8
BLACK
6
CONTINUOUS
10
4.22854
20
-2.55929
11
4.22779
21
-2.56305
0
LINE
8
BLACK
6
CONTINUOUS
10
4.22779
20
-2.56305
11
4.22566
21
-2.56625
0
LINE
8
BLACK
6
CONTINUOUS
10
4.22566
20
-2.56625
11
4.22247
21
-2.56838
0
LINE
8
BLACK
6
CONTINUOUS
10
4.22247
20
-2.56838
11
4.2187
21
-2.56913
0
LINE
8
BLACK
6
CONTINUOUS
10
4.2187
20
-2.56913
11
4.20984
21
-2.56913
0
LINE
8
BLACK
6
CONTINUOUS
10
4.20984
20
-2.56913
11
4.20984
21
-2.58737
0
LINE
8
BLACK
6
CONTINUOUS
10
4.20984
20
-2.58737
11
4.20907
21
-2.59001
0
LINE
8
BLACK
6
CONTINUOUS
10
4.20907
20
-2.59001
11
4.20884
21
-2.59029
0
LINE
8
BLACK
6
CONTINUOUS
10
4.20884
20
-2.59029
11
4.20884
21
-2.59387
0
LINE
8
BLACK
6
CONTINUOUS
10
4.20884
20
-2.59387
11
4.2177
21
-2.59387
0
LINE
8
BLACK
6
CONTINUOUS
10
4.2177
20
-2.59387
11
4.22147
21
-2.59462
0
LINE
8
BLACK
6
CONTINUOUS
10
4.22147
20
-2.59462
11
4.22466
21
-2.59675
0
LINE
8
BLACK
6
CONTINUOUS
10
4.22466
20
-2.59675
11
4.22679
21
-2.59995
0
LINE
8
BLACK
6
CONTINUOUS
10
4.22679
20
-2.59995
11
4.22754
21
-2.60371
0
LINE
8
BLACK
6
CONTINUOUS
10
4.22754
20
-2.60371
11
4.22754
21
-2.63029
0
LINE
8
BLACK
6
CONTINUOUS
10
4.22754
20
-2.63029
11
4.22679
21
-2.63405
0
LINE
8
BLACK
6
CONTINUOUS
10
4.22679
20
-2.63405
11
4.22466
21
-2.63725
0
LINE
8
BLACK
6
CONTINUOUS
10
4.22466
20
-2.63725
11
4.22147
21
-2.63938
0
LINE
8
BLACK
6
CONTINUOUS
10
4.22147
20
-2.63938
11
4.2177
21
-2.64013
0
LINE
8
BLACK
6
CONTINUOUS
10
4.2177
20
-2.64013
11
4.1803
21
-2.64013
0
LINE
8
BLACK
6
CONTINUOUS
10
4.1803
20
-2.64013
11
4.17653
21
-2.63938
0
LINE
8
BLACK
6
CONTINUOUS
10
4.17653
20
-2.63938
11
4.17334
21
-2.63725
0
LINE
8
BLACK
6
CONTINUOUS
10
4.17334
20
-2.63725
11
4.17121
21
-2.63405
0
LINE
8
BLACK
6
CONTINUOUS
10
4.17121
20
-2.63405
11
4.17046
21
-2.63029
0
LINE
8
BLACK
6
CONTINUOUS
10
4.17046
20
-2.63029
11
4.17046
21
-2.62684
0
LINE
8
BLACK
6
CONTINUOUS
10
4.17046
20
-2.62684
11
4.15077
21
-2.62684
0
LINE
8
BLACK
6
CONTINUOUS
10
4.15077
20
-2.62684
11
4.15077
21
-2.63226
0
LINE
8
BLACK
6
CONTINUOUS
10
4.15077
20
-2.63226
11
4.15118
21
-2.6363
0
LINE
8
BLACK
6
CONTINUOUS
10
4.15118
20
-2.6363
11
4.15336
21
-2.64285
0
LINE
8
BLACK
6
CONTINUOUS
10
4.15336
20
-2.64285
11
4.15336
21
-2.64285
0
LINE
8
BLACK
6
CONTINUOUS
10
4.15336
20
-2.64285
11
4.15698
21
-2.64873
0
LINE
8
BLACK
6
CONTINUOUS
10
4.15698
20
-2.64873
11
4.16186
21
-2.65361
0
LINE
8
BLACK
6
CONTINUOUS
10
4.16186
20
-2.65361
11
4.16186
21
-2.65361
0
LINE
8
BLACK
6
CONTINUOUS
10
4.16186
20
-2.65361
11
4.16198
21
-2.65368
0
LINE
8
BLACK
6
CONTINUOUS
10
4.16198
20
-2.65368
11
4.16204
21
-2.65375
0
LINE
8
BLACK
6
CONTINUOUS
10
4.16204
20
-2.65375
11
4.16208
21
-2.65378
0
LINE
8
BLACK
6
CONTINUOUS
10
4.16208
20
-2.65378
11
4.16208
21
-2.65379
0
LINE
8
BLACK
6
CONTINUOUS
10
4.16208
20
-2.65379
11
4.16382
21
-2.65573
0
LINE
8
BLACK
6
CONTINUOUS
10
4.16382
20
-2.65573
11
4.16426
21
-2.65844
0
LINE
8
BLACK
6
CONTINUOUS
10
4.16426
20
-2.65844
11
4.16316
21
-2.66096
0
LINE
8
BLACK
6
CONTINUOUS
10
4.16316
20
-2.66096
11
4.16198
21
-2.66199
0
LINE
8
BLACK
6
CONTINUOUS
10
4.16198
20
-2.66199
11
4.16185
21
-2.66207
0
LINE
8
BLACK
6
CONTINUOUS
10
4.16185
20
-2.66207
11
4.16185
21
-2.66207
0
LINE
8
BLACK
6
CONTINUOUS
10
4.16185
20
-2.66207
11
4.15696
21
-2.66695
0
LINE
8
BLACK
6
CONTINUOUS
10
4.15696
20
-2.66695
11
4.15334
21
-2.67283
0
LINE
8
BLACK
6
CONTINUOUS
10
4.15334
20
-2.67283
11
4.15334
21
-2.67283
0
LINE
8
BLACK
6
CONTINUOUS
10
4.15334
20
-2.67283
11
4.15224
21
-2.67614
0
LINE
8
BLACK
6
CONTINUOUS
10
4.15224
20
-2.67614
11
4.15117
21
-2.67939
0
LINE
8
BLACK
6
CONTINUOUS
10
4.15117
20
-2.67939
11
4.15117
21
-2.67939
0
LINE
8
BLACK
6
CONTINUOUS
10
4.15117
20
-2.67939
11
4.15117
21
-2.67939
0
LINE
8
BLACK
6
CONTINUOUS
10
4.15117
20
-2.67939
11
4.15075
21
-2.68344
0
LINE
8
BLACK
6
CONTINUOUS
10
4.15075
20
-2.68344
11
4.15075
21
-2.71395
0
LINE
8
BLACK
6
CONTINUOUS
10
4.15075
20
-2.71395
11
4.15075
21
-2.71395
0
LINE
8
BLACK
6
CONTINUOUS
10
4.15075
20
-2.71395
11
4.15117
21
-2.718
0
LINE
8
BLACK
6
CONTINUOUS
10
4.15117
20
-2.718
11
4.15117
21
-2.718
0
LINE
8
BLACK
6
CONTINUOUS
10
4.15117
20
-2.718
11
4.15334
21
-2.72455
0
LINE
8
BLACK
6
CONTINUOUS
10
4.15334
20
-2.72455
11
4.15334
21
-2.72455
0
LINE
8
BLACK
6
CONTINUOUS
10
4.15334
20
-2.72455
11
4.15447
21
-2.7264
0
LINE
8
BLACK
6
CONTINUOUS
10
4.15447
20
-2.7264
11
4.15696
21
-2.73043
0
LINE
8
BLACK
6
CONTINUOUS
10
4.15696
20
-2.73043
11
4.16185
21
-2.73532
0
LINE
8
BLACK
6
CONTINUOUS
10
4.16185
20
-2.73532
11
4.16773
21
-2.73894
0
LINE
8
BLACK
6
CONTINUOUS
10
4.16773
20
-2.73894
11
4.17103
21
-2.74004
0
LINE
8
BLACK
6
CONTINUOUS
10
4.17103
20
-2.74004
11
4.17329
21
-2.7416
0
LINE
8
BLACK
6
CONTINUOUS
10
4.17329
20
-2.7416
11
4.17435
21
-2.74414
0
LINE
8
BLACK
6
CONTINUOUS
10
4.17435
20
-2.74414
11
4.17437
21
-2.74467
0
LINE
8
BLACK
6
CONTINUOUS
10
4.17437
20
-2.74467
11
4.17437
21
-2.87574
0
LINE
8
BLACK
6
CONTINUOUS
10
4.17437
20
-2.87574
11
4.17431
21
-2.87636
0
LINE
8
BLACK
6
CONTINUOUS
10
4.17431
20
-2.87636
11
4.17432
21
-2.87636
0
LINE
8
BLACK
6
CONTINUOUS
10
4.17432
20
-2.87636
11
4.17429
21
-2.87666
0
LINE
8
BLACK
6
CONTINUOUS
10
4.17429
20
-2.87666
11
4.17437
21
-2.87939
0
LINE
8
BLACK
6
CONTINUOUS
10
4.17437
20
-2.87939
11
4.17437
21
-2.88055
0
LINE
8
BLACK
6
CONTINUOUS
10
4.17437
20
-2.88055
11
4.17437
21
-2.88055
0
LINE
8
BLACK
6
CONTINUOUS
10
4.17437
20
-2.88055
11
4.17441
21
-2.88082
0
LINE
8
BLACK
6
CONTINUOUS
10
4.17441
20
-2.88082
11
4.17443
21
-2.88105
0
LINE
8
BLACK
6
CONTINUOUS
10
4.17443
20
-2.88105
11
4.17448
21
-2.88288
0
LINE
8
BLACK
6
CONTINUOUS
10
4.17448
20
-2.88288
11
4.17448
21
-2.88288
0
LINE
8
BLACK
6
CONTINUOUS
10
4.17448
20
-2.88288
11
4.1747
21
-2.88364
0
LINE
8
BLACK
6
CONTINUOUS
10
4.1747
20
-2.88364
11
4.17486
21
-2.88439
0
LINE
8
BLACK
6
CONTINUOUS
10
4.17486
20
-2.88439
11
4.17496
21
-2.88517
0
LINE
8
BLACK
6
CONTINUOUS
10
4.17496
20
-2.88517
11
4.17544
21
-2.8864
0
LINE
8
BLACK
6
CONTINUOUS
10
4.17544
20
-2.8864
11
4.17563
21
-2.88688
0
LINE
8
BLACK
6
CONTINUOUS
10
4.17563
20
-2.88688
11
4.17571
21
-2.8871
0
LINE
8
BLACK
6
CONTINUOUS
10
4.17571
20
-2.8871
11
4.17622
21
-2.88886
0
LINE
8
BLACK
6
CONTINUOUS
10
4.17622
20
-2.88886
11
4.17637
21
-2.88911
0
LINE
8
BLACK
6
CONTINUOUS
10
4.17637
20
-2.88911
11
4.17662
21
-2.88954
0
LINE
8
BLACK
6
CONTINUOUS
10
4.17662
20
-2.88954
11
4.17696
21
-2.89022
0
LINE
8
BLACK
6
CONTINUOUS
10
4.17696
20
-2.89022
11
4.17725
21
-2.89096
0
LINE
8
BLACK
6
CONTINUOUS
10
4.17725
20
-2.89096
11
4.17833
21
-2.89244
0
LINE
8
BLACK
6
CONTINUOUS
10
4.17833
20
-2.89244
11
4.17845
21
-2.89263
0
LINE
8
BLACK
6
CONTINUOUS
10
4.17845
20
-2.89263
11
4.17939
21
-2.89421
0
LINE
8
BLACK
6
CONTINUOUS
10
4.17939
20
-2.89421
11
4.17939
21
-2.89421
0
LINE
8
BLACK
6
CONTINUOUS
10
4.17939
20
-2.89421
11
4.17994
21
-2.89477
0
LINE
8
BLACK
6
CONTINUOUS
10
4.17994
20
-2.89477
11
4.18044
21
-2.89535
0
LINE
8
BLACK
6
CONTINUOUS
10
4.18044
20
-2.89535
11
4.18091
21
-2.89599
0
LINE
8
BLACK
6
CONTINUOUS
10
4.18091
20
-2.89599
11
4.18091
21
-2.89599
0
LINE
8
BLACK
6
CONTINUOUS
10
4.18091
20
-2.89599
11
4.18232
21
-2.89716
0
LINE
8
BLACK
6
CONTINUOUS
10
4.18232
20
-2.89716
11
4.18249
21
-2.89732
0
LINE
8
BLACK
6
CONTINUOUS
10
4.18249
20
-2.89732
11
4.18776
21
-2.90259
0
LINE
8
BLACK
6
CONTINUOUS
10
4.18776
20
-2.90259
11
4.19303
21
-2.90786
0
LINE
8
BLACK
6
CONTINUOUS
10
4.19303
20
-2.90786
11
4.19435
21
-2.91027
0
LINE
8
BLACK
6
CONTINUOUS
10
4.19435
20
-2.91027
11
4.19444
21
-2.9108
0
LINE
8
BLACK
6
CONTINUOUS
10
4.19444
20
-2.9108
11
4.19473
21
-2.9136
0
LINE
8
BLACK
6
CONTINUOUS
10
4.19473
20
-2.9136
11
4.19513
21
-2.91741
0
LINE
8
BLACK
6
CONTINUOUS
10
4.19513
20
-2.91741
11
4.19513
21
-2.91741
0
LINE
8
BLACK
6
CONTINUOUS
10
4.19513
20
-2.91741
11
4.19743
21
-2.9245
0
LINE
8
BLACK
6
CONTINUOUS
10
4.19743
20
-2.9245
11
4.19743
21
-2.9245
0
LINE
8
BLACK
6
CONTINUOUS
10
4.19743
20
-2.9245
11
4.20116
21
-2.93095
0
LINE
8
BLACK
6
CONTINUOUS
10
4.20116
20
-2.93095
11
4.20444
21
-2.9346
0
LINE
8
BLACK
6
CONTINUOUS
10
4.20444
20
-2.9346
11
4.20615
21
-2.93649
0
LINE
8
BLACK
6
CONTINUOUS
10
4.20615
20
-2.93649
11
4.21218
21
-2.94087
0
LINE
8
BLACK
6
CONTINUOUS
10
4.21218
20
-2.94087
11
4.21218
21
-2.94087
0
LINE
8
BLACK
6
CONTINUOUS
10
4.21218
20
-2.94087
11
4.21898
21
-2.9439
0
LINE
8
BLACK
6
CONTINUOUS
10
4.21898
20
-2.9439
11
4.21898
21
-2.9439
0
LINE
8
BLACK
6
CONTINUOUS
10
4.21898
20
-2.9439
11
4.22627
21
-2.94545
0
LINE
8
BLACK
6
CONTINUOUS
10
4.22627
20
-2.94545
11
4.22627
21
-2.94545
0
LINE
8
BLACK
6
CONTINUOUS
10
4.22627
20
-2.94545
11
4.23373
21
-2.94545
0
LINE
8
BLACK
6
CONTINUOUS
10
4.23373
20
-2.94545
11
4.23373
21
-2.94545
0
LINE
8
BLACK
6
CONTINUOUS
10
4.23373
20
-2.94545
11
4.24102
21
-2.9439
0
LINE
8
BLACK
6
CONTINUOUS
10
4.24102
20
-2.9439
11
4.24782
21
-2.94087
0
LINE
8
BLACK
6
CONTINUOUS
10
4.24782
20
-2.94087
11
4.25385
21
-2.93649
0
LINE
8
BLACK
6
CONTINUOUS
10
4.25385
20
-2.93649
11
4.25884
21
-2.93095
0
LINE
8
BLACK
6
CONTINUOUS
10
4.25884
20
-2.93095
11
4.26257
21
-2.9245
0
LINE
8
BLACK
6
CONTINUOUS
10
4.26257
20
-2.9245
11
4.26487
21
-2.91741
0
LINE
8
BLACK
6
CONTINUOUS
10
4.26487
20
-2.91741
11
4.26565
21
-2.91
0
LINE
8
BLACK
6
CONTINUOUS
10
4.26565
20
-2.91
11
4.26487
21
-2.90259
0
LINE
8
BLACK
6
CONTINUOUS
10
4.26487
20
-2.90259
11
4.26257
21
-2.8955
0
LINE
8
BLACK
6
CONTINUOUS
10
4.26257
20
-2.8955
11
4.25884
21
-2.88905
0
LINE
8
BLACK
6
CONTINUOUS
10
4.25884
20
-2.88905
11
4.25385
21
-2.88351
0
LINE
8
BLACK
6
CONTINUOUS
10
4.25385
20
-2.88351
11
4.25385
21
-2.88351
0
LINE
8
BLACK
6
CONTINUOUS
10
4.25385
20
-2.88351
11
4.24782
21
-2.87913
0
LINE
8
BLACK
6
CONTINUOUS
10
4.24782
20
-2.87913
11
4.24782
21
-2.87913
0
LINE
8
BLACK
6
CONTINUOUS
10
4.24782
20
-2.87913
11
4.24102
21
-2.8761
0
LINE
8
BLACK
6
CONTINUOUS
10
4.24102
20
-2.8761
11
4.24102
21
-2.8761
0
LINE
8
BLACK
6
CONTINUOUS
10
4.24102
20
-2.8761
11
4.23528
21
-2.87488
0
LINE
8
BLACK
6
CONTINUOUS
10
4.23528
20
-2.87488
11
4.23373
21
-2.87455
0
LINE
8
BLACK
6
CONTINUOUS
10
4.23373
20
-2.87455
11
4.23373
21
-2.87455
0
LINE
8
BLACK
6
CONTINUOUS
10
4.23373
20
-2.87455
11
4.2314
21
-2.87455
0
LINE
8
BLACK
6
CONTINUOUS
10
4.2314
20
-2.87455
11
4.22876
21
-2.87377
0
LINE
8
BLACK
6
CONTINUOUS
10
4.22876
20
-2.87377
11
4.22794
21
-2.87312
0
LINE
8
BLACK
6
CONTINUOUS
10
4.22794
20
-2.87312
11
4.22506
21
-2.87023
0
LINE
8
BLACK
6
CONTINUOUS
10
4.22506
20
-2.87023
11
4.22374
21
-2.86782
0
LINE
8
BLACK
6
CONTINUOUS
10
4.22374
20
-2.86782
11
4.22363
21
-2.86678
0
LINE
8
BLACK
6
CONTINUOUS
10
4.22363
20
-2.86678
11
4.22363
21
-2.74467
0
LINE
8
BLACK
6
CONTINUOUS
10
4.22363
20
-2.74467
11
4.2244
21
-2.74203
0
LINE
8
BLACK
6
CONTINUOUS
10
4.2244
20
-2.74203
11
4.22648
21
-2.74023
0
LINE
8
BLACK
6
CONTINUOUS
10
4.22648
20
-2.74023
11
4.22697
21
-2.74004
0
LINE
8
BLACK
6
CONTINUOUS
10
4.22697
20
-2.74004
11
4.23027
21
-2.73894
0
LINE
8
BLACK
6
CONTINUOUS
10
4.23027
20
-2.73894
11
4.23615
21
-2.73532
0
LINE
8
BLACK
6
CONTINUOUS
10
4.23615
20
-2.73532
11
4.24104
21
-2.73043
0
LINE
8
BLACK
6
CONTINUOUS
10
4.24104
20
-2.73043
11
4.24399
21
-2.72564
0
LINE
8
BLACK
6
CONTINUOUS
10
4.24399
20
-2.72564
11
4.24604
21
-2.7238
0
LINE
8
BLACK
6
CONTINUOUS
10
4.24604
20
-2.7238
11
4.24815
21
-2.72332
0
LINE
8
BLACK
6
CONTINUOUS
10
4.24815
20
-2.72332
11
4.27505
21
-2.72332
0
LINE
8
BLACK
6
CONTINUOUS
10
4.27505
20
-2.72332
11
4.27566
21
-2.72339
0
LINE
8
BLACK
6
CONTINUOUS
10
4.27566
20
-2.72339
11
4.27567
21
-2.72338
0
LINE
8
BLACK
6
CONTINUOUS
10
4.27567
20
-2.72338
11
4.27597
21
-2.7234
0
LINE
8
BLACK
6
CONTINUOUS
10
4.27597
20
-2.7234
11
4.27597
21
-2.7234
0
LINE
8
BLACK
6
CONTINUOUS
10
4.27597
20
-2.7234
11
4.27869
21
-2.72332
0
LINE
8
BLACK
6
CONTINUOUS
10
4.27869
20
-2.72332
11
4.27986
21
-2.72332
0
LINE
8
BLACK
6
CONTINUOUS
10
4.27986
20
-2.72332
11
4.28013
21
-2.72328
0
LINE
8
BLACK
6
CONTINUOUS
10
4.28013
20
-2.72328
11
4.28036
21
-2.72327
0
LINE
8
BLACK
6
CONTINUOUS
10
4.28036
20
-2.72327
11
4.28219
21
-2.72321
0
LINE
8
BLACK
6
CONTINUOUS
10
4.28219
20
-2.72321
11
4.28295
21
-2.72299
0
LINE
8
BLACK
6
CONTINUOUS
10
4.28295
20
-2.72299
11
4.2837
21
-2.72283
0
LINE
8
BLACK
6
CONTINUOUS
10
4.2837
20
-2.72283
11
4.28448
21
-2.72273
0
LINE
8
BLACK
6
CONTINUOUS
10
4.28448
20
-2.72273
11
4.28619
21
-2.72206
0
LINE
8
BLACK
6
CONTINUOUS
10
4.28619
20
-2.72206
11
4.2864
21
-2.72198
0
LINE
8
BLACK
6
CONTINUOUS
10
4.2864
20
-2.72198
11
4.28655
21
-2.72194
0
LINE
8
BLACK
6
CONTINUOUS
10
4.28655
20
-2.72194
11
4.28816
21
-2.72147
0
LINE
8
BLACK
6
CONTINUOUS
10
4.28816
20
-2.72147
11
4.28884
21
-2.72107
0
LINE
8
BLACK
6
CONTINUOUS
10
4.28884
20
-2.72107
11
4.28953
21
-2.72073
0
LINE
8
BLACK
6
CONTINUOUS
10
4.28953
20
-2.72073
11
4.29026
21
-2.72044
0
LINE
8
BLACK
6
CONTINUOUS
10
4.29026
20
-2.72044
11
4.29026
21
-2.72044
0
LINE
8
BLACK
6
CONTINUOUS
10
4.29026
20
-2.72044
11
4.29027
21
-2.72044
0
LINE
8
BLACK
6
CONTINUOUS
10
4.29027
20
-2.72044
11
4.29175
21
-2.71937
0
LINE
8
BLACK
6
CONTINUOUS
10
4.29175
20
-2.71937
11
4.29194
21
-2.71924
0
LINE
8
BLACK
6
CONTINUOUS
10
4.29194
20
-2.71924
11
4.29352
21
-2.71831
0
LINE
8
BLACK
6
CONTINUOUS
10
4.29352
20
-2.71831
11
4.29408
21
-2.71775
0
LINE
8
BLACK
6
CONTINUOUS
10
4.29408
20
-2.71775
11
4.29466
21
-2.71725
0
LINE
8
BLACK
6
CONTINUOUS
10
4.29466
20
-2.71725
11
4.2953
21
-2.71679
0
LINE
8
BLACK
6
CONTINUOUS
10
4.2953
20
-2.71679
11
4.29647
21
-2.71537
0
LINE
8
BLACK
6
CONTINUOUS
10
4.29647
20
-2.71537
11
4.29662
21
-2.7152
0
LINE
8
BLACK
6
CONTINUOUS
10
4.29662
20
-2.7152
11
4.32377
21
-2.68806
0
LINE
8
BLACK
6
CONTINUOUS
10
4.32377
20
-2.68806
11
4.32425
21
-2.68767
0
LINE
8
BLACK
6
CONTINUOUS
10
4.32425
20
-2.68767
11
4.32425
21
-2.68766
0
LINE
8
BLACK
6
CONTINUOUS
10
4.32425
20
-2.68766
11
4.32448
21
-2.68746
0
LINE
8
BLACK
6
CONTINUOUS
10
4.32448
20
-2.68746
11
4.32448
21
-2.68746
0
LINE
8
BLACK
6
CONTINUOUS
10
4.32448
20
-2.68746
11
4.32635
21
-2.68548
0
LINE
8
BLACK
6
CONTINUOUS
10
4.32635
20
-2.68548
11
4.32717
21
-2.68466
0
LINE
8
BLACK
6
CONTINUOUS
10
4.32717
20
-2.68466
11
4.32734
21
-2.68444
0
LINE
8
BLACK
6
CONTINUOUS
10
4.32734
20
-2.68444
11
4.32749
21
-2.68427
0
LINE
8
BLACK
6
CONTINUOUS
10
4.32749
20
-2.68427
11
4.32874
21
-2.68293
0
LINE
8
BLACK
6
CONTINUOUS
10
4.32874
20
-2.68293
11
4.32912
21
-2.68224
0
LINE
8
BLACK
6
CONTINUOUS
10
4.32912
20
-2.68224
11
4.32954
21
-2.6816
0
LINE
8
BLACK
6
CONTINUOUS
10
4.32954
20
-2.6816
11
4.33003
21
-2.68097
0
LINE
8
BLACK
6
CONTINUOUS
10
4.33003
20
-2.68097
11
4.33047
21
-2.67994
0
LINE
8
BLACK
6
CONTINUOUS
10
4.33047
20
-2.67994
11
4.33223
21
-2.67782
0
LINE
8
BLACK
6
CONTINUOUS
10
4.33223
20
-2.67782
11
4.33486
21
-2.677
0
LINE
8
BLACK
6
CONTINUOUS
10
4.33486
20
-2.677
11
4.33751
21
-2.67772
0
LINE
8
BLACK
6
CONTINUOUS
10
4.33751
20
-2.67772
11
4.33935
21
-2.67976
0
LINE
8
BLACK
6
CONTINUOUS
10
4.33935
20
-2.67976
11
4.33981
21
-2.68239
0
LINE
8
BLACK
6
CONTINUOUS
10
4.33981
20
-2.68239
11
4.33975
21
-2.683
0
LINE
8
BLACK
6
CONTINUOUS
10
4.33975
20
-2.683
11
4.33975
21
-2.683
0
LINE
8
BLACK
6
CONTINUOUS
10
4.33975
20
-2.683
11
4.33975
21
-2.683
0
LINE
8
BLACK
6
CONTINUOUS
10
4.33975
20
-2.683
11
4.34052
21
-2.69041
0
LINE
8
BLACK
6
CONTINUOUS
10
4.34052
20
-2.69041
11
4.34052
21
-2.69041
0
LINE
8
BLACK
6
CONTINUOUS
10
4.34052
20
-2.69041
11
4.34283
21
-2.6975
0
LINE
8
BLACK
6
CONTINUOUS
10
4.34283
20
-2.6975
11
4.34283
21
-2.6975
0
LINE
8
BLACK
6
CONTINUOUS
10
4.34283
20
-2.6975
11
4.34655
21
-2.70395
0
LINE
8
BLACK
6
CONTINUOUS
10
4.34655
20
-2.70395
11
4.35128
21
-2.7092
0
LINE
8
BLACK
6
CONTINUOUS
10
4.35128
20
-2.7092
11
4.35162
21
-2.70957
0
LINE
8
BLACK
6
CONTINUOUS
10
4.35162
20
-2.70957
11
4.35281
21
-2.71205
0
LINE
8
BLACK
6
CONTINUOUS
10
4.35281
20
-2.71205
11
4.35247
21
-2.71478
0
LINE
8
BLACK
6
CONTINUOUS
10
4.35247
20
-2.71478
11
4.35144
21
-2.71629
0
LINE
8
BLACK
6
CONTINUOUS
10
4.35144
20
-2.71629
11
4.33414
21
-2.73359
0
LINE
8
BLACK
6
CONTINUOUS
10
4.33414
20
-2.73359
11
4.33173
21
-2.73491
0
LINE
8
BLACK
6
CONTINUOUS
10
4.33173
20
-2.73491
11
4.33069
21
-2.73502
0
LINE
8
BLACK
6
CONTINUOUS
10
4.33069
20
-2.73502
11
4.3243
21
-2.73502
0
LINE
8
BLACK
6
CONTINUOUS
10
4.3243
20
-2.73502
11
4.3243
21
-2.73502
0
LINE
8
BLACK
6
CONTINUOUS
10
4.3243
20
-2.73502
11
4.32195
21
-2.73527
0
LINE
8
BLACK
6
CONTINUOUS
10
4.32195
20
-2.73527
11
4.31664
21
-2.73725
0
LINE
8
BLACK
6
CONTINUOUS
10
4.31664
20
-2.73725
11
4.31664
21
-2.73725
0
LINE
8
BLACK
6
CONTINUOUS
10
4.31664
20
-2.73725
11
4.3121
21
-2.74065
0
LINE
8
BLACK
6
CONTINUOUS
10
4.3121
20
-2.74065
11
4.3121
21
-2.74065
0
LINE
8
BLACK
6
CONTINUOUS
10
4.3121
20
-2.74065
11
4.30871
21
-2.74518
0
LINE
8
BLACK
6
CONTINUOUS
10
4.30871
20
-2.74518
11
4.30871
21
-2.74518
0
LINE
8
BLACK
6
CONTINUOUS
10
4.30871
20
-2.74518
11
4.30673
21
-2.75049
0
LINE
8
BLACK
6
CONTINUOUS
10
4.30673
20
-2.75049
11
4.30648
21
-2.75284
0
LINE
8
BLACK
6
CONTINUOUS
10
4.30648
20
-2.75284
11
4.30648
21
-2.75284
0
LINE
8
BLACK
6
CONTINUOUS
10
4.30648
20
-2.75284
11
4.30648
21
-2.75595
0
LINE
8
BLACK
6
CONTINUOUS
10
4.30648
20
-2.75595
11
4.3057
21
-2.75859
0
LINE
8
BLACK
6
CONTINUOUS
10
4.3057
20
-2.75859
11
4.30362
21
-2.76039
0
LINE
8
BLACK
6
CONTINUOUS
10
4.30362
20
-2.76039
11
4.30159
21
-2.76083
0
LINE
8
BLACK
6
CONTINUOUS
10
4.30159
20
-2.76083
11
4.2838
21
-2.76083
0
LINE
8
BLACK
6
CONTINUOUS
10
4.2838
20
-2.76083
11
4.28319
21
-2.76076
0
LINE
8
BLACK
6
CONTINUOUS
10
4.28319
20
-2.76076
11
4.28318
21
-2.76077
0
LINE
8
BLACK
6
CONTINUOUS
10
4.28318
20
-2.76077
11
4.28288
21
-2.76075
0
LINE
8
BLACK
6
CONTINUOUS
10
4.28288
20
-2.76075
11
4.28016
21
-2.76083
0
LINE
8
BLACK
6
CONTINUOUS
10
4.28016
20
-2.76083
11
4.27899
21
-2.76083
0
LINE
8
BLACK
6
CONTINUOUS
10
4.27899
20
-2.76083
11
4.27897
21
-2.76083
0
LINE
8
BLACK
6
CONTINUOUS
10
4.27897
20
-2.76083
11
4.27872
21
-2.76086
0
LINE
8
BLACK
6
CONTINUOUS
10
4.27872
20
-2.76086
11
4.27849
21
-2.76088
0
LINE
8
BLACK
6
CONTINUOUS
10
4.27849
20
-2.76088
11
4.27666
21
-2.76094
0
LINE
8
BLACK
6
CONTINUOUS
10
4.27666
20
-2.76094
11
4.27666
21
-2.76094
0
LINE
8
BLACK
6
CONTINUOUS
10
4.27666
20
-2.76094
11
4.2759
21
-2.76116
0
LINE
8
BLACK
6
CONTINUOUS
10
4.2759
20
-2.76116
11
4.27515
21
-2.76132
0
LINE
8
BLACK
6
CONTINUOUS
10
4.27515
20
-2.76132
11
4.27437
21
-2.76141
0
LINE
8
BLACK
6
CONTINUOUS
10
4.27437
20
-2.76141
11
4.27437
21
-2.76141
0
LINE
8
BLACK
6
CONTINUOUS
10
4.27437
20
-2.76141
11
4.27266
21
-2.76209
0
LINE
8
BLACK
6
CONTINUOUS
10
4.27266
20
-2.76209
11
4.27245
21
-2.76216
0
LINE
8
BLACK
6
CONTINUOUS
10
4.27245
20
-2.76216
11
4.27069
21
-2.76268
0
LINE
8
BLACK
6
CONTINUOUS
10
4.27069
20
-2.76268
11
4.27069
21
-2.76268
0
LINE
8
BLACK
6
CONTINUOUS
10
4.27069
20
-2.76268
11
4.27001
21
-2.76308
0
LINE
8
BLACK
6
CONTINUOUS
10
4.27001
20
-2.76308
11
4.26932
21
-2.76341
0
LINE
8
BLACK
6
CONTINUOUS
10
4.26932
20
-2.76341
11
4.26859
21
-2.76371
0
LINE
8
BLACK
6
CONTINUOUS
10
4.26859
20
-2.76371
11
4.26859
21
-2.76371
0
LINE
8
BLACK
6
CONTINUOUS
10
4.26859
20
-2.76371
11
4.2671
21
-2.76478
0
LINE
8
BLACK
6
CONTINUOUS
10
4.2671
20
-2.76478
11
4.26691
21
-2.76491
0
LINE
8
BLACK
6
CONTINUOUS
10
4.26691
20
-2.76491
11
4.26533
21
-2.76584
0
LINE
8
BLACK
6
CONTINUOUS
10
4.26533
20
-2.76584
11
4.26477
21
-2.7664
0
LINE
8
BLACK
6
CONTINUOUS
10
4.26477
20
-2.7664
11
4.26419
21
-2.7669
0
LINE
8
BLACK
6
CONTINUOUS
10
4.26419
20
-2.7669
11
4.26355
21
-2.76736
0
LINE
8
BLACK
6
CONTINUOUS
10
4.26355
20
-2.76736
11
4.26238
21
-2.76878
0
LINE
8
BLACK
6
CONTINUOUS
10
4.26238
20
-2.76878
11
4.26223
21
-2.76895
0
LINE
8
BLACK
6
CONTINUOUS
10
4.26223
20
-2.76895
11
4.25089
21
-2.78028
0
LINE
8
BLACK
6
CONTINUOUS
10
4.25089
20
-2.78028
11
4.25041
21
-2.78067
0
LINE
8
BLACK
6
CONTINUOUS
10
4.25041
20
-2.78067
11
4.25041
21
-2.78068
0
LINE
8
BLACK
6
CONTINUOUS
10
4.25041
20
-2.78068
11
4.25018
21
-2.78087
0
LINE
8
BLACK
6
CONTINUOUS
10
4.25018
20
-2.78087
11
4.24831
21
-2.78286
0
LINE
8
BLACK
6
CONTINUOUS
10
4.24831
20
-2.78286
11
4.24749
21
-2.78368
0
LINE
8
BLACK
6
CONTINUOUS
10
4.24749
20
-2.78368
11
4.24749
21
-2.78368
0
LINE
8
BLACK
6
CONTINUOUS
10
4.24749
20
-2.78368
11
4.24732
21
-2.7839
0
LINE
8
BLACK
6
CONTINUOUS
10
4.24732
20
-2.7839
11
4.24717
21
-2.78407
0
LINE
8
BLACK
6
CONTINUOUS
10
4.24717
20
-2.78407
11
4.24592
21
-2.78541
0
LINE
8
BLACK
6
CONTINUOUS
10
4.24592
20
-2.78541
11
4.24592
21
-2.78541
0
LINE
8
BLACK
6
CONTINUOUS
10
4.24592
20
-2.78541
11
4.24554
21
-2.7861
0
LINE
8
BLACK
6
CONTINUOUS
10
4.24554
20
-2.7861
11
4.24512
21
-2.78674
0
LINE
8
BLACK
6
CONTINUOUS
10
4.24512
20
-2.78674
11
4.24463
21
-2.78736
0
LINE
8
BLACK
6
CONTINUOUS
10
4.24463
20
-2.78736
11
4.24463
21
-2.78736
0
LINE
8
BLACK
6
CONTINUOUS
10
4.24463
20
-2.78736
11
4.24391
21
-2.78905
0
LINE
8
BLACK
6
CONTINUOUS
10
4.24391
20
-2.78905
11
4.2438
21
-2.78926
0
LINE
8
BLACK
6
CONTINUOUS
10
4.2438
20
-2.78926
11
4.24292
21
-2.79086
0
LINE
8
BLACK
6
CONTINUOUS
10
4.24292
20
-2.79086
11
4.24273
21
-2.79163
0
LINE
8
BLACK
6
CONTINUOUS
10
4.24273
20
-2.79163
11
4.24248
21
-2.79235
0
LINE
8
BLACK
6
CONTINUOUS
10
4.24248
20
-2.79235
11
4.24216
21
-2.79307
0
LINE
8
BLACK
6
CONTINUOUS
10
4.24216
20
-2.79307
11
4.24216
21
-2.79307
0
LINE
8
BLACK
6
CONTINUOUS
10
4.24216
20
-2.79307
11
4.24188
21
-2.79489
0
LINE
8
BLACK
6
CONTINUOUS
10
4.24188
20
-2.79489
11
4.24183
21
-2.79511
0
LINE
8
BLACK
6
CONTINUOUS
10
4.24183
20
-2.79511
11
4.24137
21
-2.79689
0
LINE
8
BLACK
6
CONTINUOUS
10
4.24137
20
-2.79689
11
4.24137
21
-2.79689
0
LINE
8
BLACK
6
CONTINUOUS
10
4.24137
20
-2.79689
11
4.24137
21
-2.79768
0
LINE
8
BLACK
6
CONTINUOUS
10
4.24137
20
-2.79768
11
4.24131
21
-2.79844
0
LINE
8
BLACK
6
CONTINUOUS
10
4.24131
20
-2.79844
11
4.24119
21
-2.79922
0
LINE
8
BLACK
6
CONTINUOUS
10
4.24119
20
-2.79922
11
4.24119
21
-2.79922
0
LINE
8
BLACK
6
CONTINUOUS
10
4.24119
20
-2.79922
11
4.24136
21
-2.80105
0
LINE
8
BLACK
6
CONTINUOUS
10
4.24136
20
-2.80105
11
4.24137
21
-2.80128
0
LINE
8
BLACK
6
CONTINUOUS
10
4.24137
20
-2.80128
11
4.24137
21
-2.83074
0
LINE
8
BLACK
6
CONTINUOUS
10
4.24137
20
-2.83074
11
4.24131
21
-2.83136
0
LINE
8
BLACK
6
CONTINUOUS
10
4.24131
20
-2.83136
11
4.24132
21
-2.83136
0
LINE
8
BLACK
6
CONTINUOUS
10
4.24132
20
-2.83136
11
4.24129
21
-2.83166
0
LINE
8
BLACK
6
CONTINUOUS
10
4.24129
20
-2.83166
11
4.24137
21
-2.83439
0
LINE
8
BLACK
6
CONTINUOUS
10
4.24137
20
-2.83439
11
4.24137
21
-2.83555
0
LINE
8
BLACK
6
CONTINUOUS
10
4.24137
20
-2.83555
11
4.24137
21
-2.83555
0
LINE
8
BLACK
6
CONTINUOUS
10
4.24137
20
-2.83555
11
4.24141
21
-2.83582
0
LINE
8
BLACK
6
CONTINUOUS
10
4.24141
20
-2.83582
11
4.24143
21
-2.83605
0
LINE
8
BLACK
6
CONTINUOUS
10
4.24143
20
-2.83605
11
4.24148
21
-2.83788
0
LINE
8
BLACK
6
CONTINUOUS
10
4.24148
20
-2.83788
11
4.24148
21
-2.83788
0
LINE
8
BLACK
6
CONTINUOUS
10
4.24148
20
-2.83788
11
4.2417
21
-2.83864
0
LINE
8
BLACK
6
CONTINUOUS
10
4.2417
20
-2.83864
11
4.24186
21
-2.83939
0
LINE
8
BLACK
6
CONTINUOUS
10
4.24186
20
-2.83939
11
4.24188
21
-2.83958
0
LINE
8
BLACK
6
CONTINUOUS
10
4.24188
20
-2.83958
11
4.24196
21
-2.84017
0
LINE
8
BLACK
6
CONTINUOUS
10
4.24196
20
-2.84017
11
4.24263
21
-2.84188
0
LINE
8
BLACK
6
CONTINUOUS
10
4.24263
20
-2.84188
11
4.24271
21
-2.8421
0
LINE
8
BLACK
6
CONTINUOUS
10
4.24271
20
-2.8421
11
4.24322
21
-2.84386
0
LINE
8
BLACK
6
CONTINUOUS
10
4.24322
20
-2.84386
11
4.24362
21
-2.84454
0
LINE
8
BLACK
6
CONTINUOUS
10
4.24362
20
-2.84454
11
4.24396
21
-2.84522
0
LINE
8
BLACK
6
CONTINUOUS
10
4.24396
20
-2.84522
11
4.24425
21
-2.84596
0
LINE
8
BLACK
6
CONTINUOUS
10
4.24425
20
-2.84596
11
4.24512
21
-2.84716
0
LINE
8
BLACK
6
CONTINUOUS
10
4.24512
20
-2.84716
11
4.24533
21
-2.84744
0
LINE
8
BLACK
6
CONTINUOUS
10
4.24533
20
-2.84744
11
4.24545
21
-2.84763
0
LINE
8
BLACK
6
CONTINUOUS
10
4.24545
20
-2.84763
11
4.24639
21
-2.84921
0
LINE
8
BLACK
6
CONTINUOUS
10
4.24639
20
-2.84921
11
4.24639
21
-2.84921
0
LINE
8
BLACK
6
CONTINUOUS
10
4.24639
20
-2.84921
11
4.24694
21
-2.84977
0
LINE
8
BLACK
6
CONTINUOUS
10
4.24694
20
-2.84977
11
4.24744
21
-2.85035
0
LINE
8
BLACK
6
CONTINUOUS
10
4.24744
20
-2.85035
11
4.24791
21
-2.85099
0
LINE
8
BLACK
6
CONTINUOUS
10
4.24791
20
-2.85099
11
4.24791
21
-2.85099
0
LINE
8
BLACK
6
CONTINUOUS
10
4.24791
20
-2.85099
11
4.24932
21
-2.85216
0
LINE
8
BLACK
6
CONTINUOUS
10
4.24932
20
-2.85216
11
4.24949
21
-2.85232
0
LINE
8
BLACK
6
CONTINUOUS
10
4.24949
20
-2.85232
11
4.35267
21
-2.9555
0
LINE
8
BLACK
6
CONTINUOUS
10
4.35267
20
-2.9555
11
4.38228
21
-2.98511
0
LINE
8
BLACK
6
CONTINUOUS
10
4.38228
20
-2.98511
11
4.38267
21
-2.98559
0
LINE
8
BLACK
6
CONTINUOUS
10
4.38267
20
-2.98559
11
4.38268
21
-2.98559
0
LINE
8
BLACK
6
CONTINUOUS
10
4.38268
20
-2.98559
11
4.38287
21
-2.98582
0
LINE
8
BLACK
6
CONTINUOUS
10
4.38287
20
-2.98582
11
4.3839
21
-2.98678
0
LINE
8
BLACK
6
CONTINUOUS
10
4.3839
20
-2.98678
11
4.38486
21
-2.98769
0
LINE
8
BLACK
6
CONTINUOUS
10
4.38486
20
-2.98769
11
4.38568
21
-2.98851
0
LINE
8
BLACK
6
CONTINUOUS
10
4.38568
20
-2.98851
11
4.3859
21
-2.98868
0
LINE
8
BLACK
6
CONTINUOUS
10
4.3859
20
-2.98868
11
4.38607
21
-2.98883
0
LINE
8
BLACK
6
CONTINUOUS
10
4.38607
20
-2.98883
11
4.38741
21
-2.99008
0
LINE
8
BLACK
6
CONTINUOUS
10
4.38741
20
-2.99008
11
4.3881
21
-2.99046
0
LINE
8
BLACK
6
CONTINUOUS
10
4.3881
20
-2.99046
11
4.38874
21
-2.99088
0
LINE
8
BLACK
6
CONTINUOUS
10
4.38874
20
-2.99088
11
4.38936
21
-2.99137
0
LINE
8
BLACK
6
CONTINUOUS
10
4.38936
20
-2.99137
11
4.39105
21
-2.99209
0
LINE
8
BLACK
6
CONTINUOUS
10
4.39105
20
-2.99209
11
4.39125
21
-2.99219
0
LINE
8
BLACK
6
CONTINUOUS
10
4.39125
20
-2.99219
11
4.39286
21
-2.99308
0
LINE
8
BLACK
6
CONTINUOUS
10
4.39286
20
-2.99308
11
4.39363
21
-2.99327
0
LINE
8
BLACK
6
CONTINUOUS
10
4.39363
20
-2.99327
11
4.39435
21
-2.99352
0
LINE
8
BLACK
6
CONTINUOUS
10
4.39435
20
-2.99352
11
4.39507
21
-2.99384
0
LINE
8
BLACK
6
CONTINUOUS
10
4.39507
20
-2.99384
11
4.39678
21
-2.99411
0
LINE
8
BLACK
6
CONTINUOUS
10
4.39678
20
-2.99411
11
4.39689
21
-2.99412
0
LINE
8
BLACK
6
CONTINUOUS
10
4.39689
20
-2.99412
11
4.39711
21
-2.99417
0
LINE
8
BLACK
6
CONTINUOUS
10
4.39711
20
-2.99417
11
4.39889
21
-2.99463
0
LINE
8
BLACK
6
CONTINUOUS
10
4.39889
20
-2.99463
11
4.39968
21
-2.99463
0
LINE
8
BLACK
6
CONTINUOUS
10
4.39968
20
-2.99463
11
4.40044
21
-2.99469
0
LINE
8
BLACK
6
CONTINUOUS
10
4.40044
20
-2.99469
11
4.40122
21
-2.99481
0
LINE
8
BLACK
6
CONTINUOUS
10
4.40122
20
-2.99481
11
4.40122
21
-2.99481
0
LINE
8
BLACK
6
CONTINUOUS
10
4.40122
20
-2.99481
11
4.40122
21
-2.99481
0
LINE
8
BLACK
6
CONTINUOUS
10
4.40122
20
-2.99481
11
4.40122
21
-2.99481
0
LINE
8
BLACK
6
CONTINUOUS
10
4.40122
20
-2.99481
11
4.40305
21
-2.99464
0
LINE
8
BLACK
6
CONTINUOUS
10
4.40305
20
-2.99464
11
4.40328
21
-2.99463
0
LINE
8
BLACK
6
CONTINUOUS
10
4.40328
20
-2.99463
11
4.58229
21
-2.99463
0
LINE
8
BLACK
6
CONTINUOUS
10
4.58229
20
-2.99463
11
4.58493
21
-2.9954
0
LINE
8
BLACK
6
CONTINUOUS
10
4.58493
20
-2.9954
11
4.58592
21
-2.99624
0
LINE
8
BLACK
6
CONTINUOUS
10
4.58592
20
-2.99624
11
4.58615
21
-2.99649
0
LINE
8
BLACK
6
CONTINUOUS
10
4.58615
20
-2.99649
11
4.58615
21
-2.99649
0
LINE
8
BLACK
6
CONTINUOUS
10
4.58615
20
-2.99649
11
4.59218
21
-3.00087
0
LINE
8
BLACK
6
CONTINUOUS
10
4.59218
20
-3.00087
11
4.59218
21
-3.00087
0
LINE
8
BLACK
6
CONTINUOUS
10
4.59218
20
-3.00087
11
4.59898
21
-3.0039
0
LINE
8
BLACK
6
CONTINUOUS
10
4.59898
20
-3.0039
11
4.59898
21
-3.0039
0
LINE
8
BLACK
6
CONTINUOUS
10
4.59898
20
-3.0039
11
4.60627
21
-3.00545
0
LINE
8
BLACK
6
CONTINUOUS
10
4.60627
20
-3.00545
11
4.60627
21
-3.00545
0
LINE
8
BLACK
6
CONTINUOUS
10
4.60627
20
-3.00545
11
4.61373
21
-3.00545
0
LINE
8
BLACK
6
CONTINUOUS
10
4.61373
20
-3.00545
11
4.61373
21
-3.00545
0
LINE
8
BLACK
6
CONTINUOUS
10
4.61373
20
-3.00545
11
4.62102
21
-3.0039
0
LINE
8
BLACK
6
CONTINUOUS
10
4.62102
20
-3.0039
11
4.62782
21
-3.00087
0
LINE
8
BLACK
6
CONTINUOUS
10
4.62782
20
-3.00087
11
4.63385
21
-2.99649
0
LINE
8
BLACK
6
CONTINUOUS
10
4.63385
20
-2.99649
11
4.63884
21
-2.99095
0
LINE
8
BLACK
6
CONTINUOUS
10
4.63884
20
-2.99095
11
4.64257
21
-2.9845
0
LINE
8
BLACK
6
CONTINUOUS
10
4.64257
20
-2.9845
11
4.64487
21
-2.97741
0
LINE
8
BLACK
6
CONTINUOUS
10
4.64487
20
-2.97741
11
4.64565
21
-2.97
0
LINE
8
BLACK
6
CONTINUOUS
10
4.64565
20
-2.97
11
4.64487
21
-2.96259
0
LINE
8
BLACK
6
CONTINUOUS
10
4.64487
20
-2.96259
11
4.64257
21
-2.9555
0
LINE
8
BLACK
6
CONTINUOUS
10
4.64257
20
-2.9555
11
4.63884
21
-2.94905
0
LINE
8
BLACK
6
CONTINUOUS
10
4.63884
20
-2.94905
11
4.63385
21
-2.94351
0
LINE
8
BLACK
6
CONTINUOUS
10
4.63385
20
-2.94351
11
4.63385
21
-2.94351
0
LINE
8
BLACK
6
CONTINUOUS
10
4.63385
20
-2.94351
11
4.62782
21
-2.93913
0
LINE
8
BLACK
6
CONTINUOUS
10
4.62782
20
-2.93913
11
4.62782
21
-2.93913
0
LINE
8
BLACK
6
CONTINUOUS
10
4.62782
20
-2.93913
11
4.62159
21
-2.93635
0
LINE
8
BLACK
6
CONTINUOUS
10
4.62159
20
-2.93635
11
4.6195
21
-2.93457
0
LINE
8
BLACK
6
CONTINUOUS
10
4.6195
20
-2.93457
11
4.6187
21
-2.93194
0
LINE
8
BLACK
6
CONTINUOUS
10
4.6187
20
-2.93194
11
4.61945
21
-2.92929
0
LINE
8
BLACK
6
CONTINUOUS
10
4.61945
20
-2.92929
11
4.62013
21
-2.92844
0
LINE
8
BLACK
6
CONTINUOUS
10
4.62013
20
-2.92844
11
4.62187
21
-2.92669
0
LINE
8
BLACK
6
CONTINUOUS
10
4.62187
20
-2.92669
11
4.62429
21
-2.92538
0
LINE
8
BLACK
6
CONTINUOUS
10
4.62429
20
-2.92538
11
4.62532
21
-2.92526
0
LINE
8
BLACK
6
CONTINUOUS
10
4.62532
20
-2.92526
11
4.65149
21
-2.92526
0
LINE
8
BLACK
6
CONTINUOUS
10
4.65149
20
-2.92526
11
4.65149
21
-2.92526
0
LINE
8
BLACK
6
CONTINUOUS
10
4.65149
20
-2.92526
11
4.65554
21
-2.92485
0
LINE
8
BLACK
6
CONTINUOUS
10
4.65554
20
-2.92485
11
4.66209
21
-2.92268
0
LINE
8
BLACK
6
CONTINUOUS
10
4.66209
20
-2.92268
11
4.66797
21
-2.91905
0
LINE
8
BLACK
6
CONTINUOUS
10
4.66797
20
-2.91905
11
4.67285
21
-2.91417
0
LINE
8
BLACK
6
CONTINUOUS
10
4.67285
20
-2.91417
11
4.67648
21
-2.90829
0
LINE
8
BLACK
6
CONTINUOUS
10
4.67648
20
-2.90829
11
4.67865
21
-2.90173
0
LINE
8
BLACK
6
CONTINUOUS
10
4.67865
20
-2.90173
11
4.67907
21
-2.89769
0
LINE
8
BLACK
6
CONTINUOUS
10
4.67907
20
-2.89769
11
4.67907
21
-2.85831
0
LINE
8
BLACK
6
CONTINUOUS
10
4.67907
20
-2.85831
11
4.67865
21
-2.85427
0
LINE
8
BLACK
6
CONTINUOUS
10
4.67865
20
-2.85427
11
4.67672
21
-2.84845
0
LINE
8
BLACK
6
CONTINUOUS
10
4.67672
20
-2.84845
11
4.67648
21
-2.84691
0
LINE
8
BLACK
6
CONTINUOUS
10
4.67648
20
-2.84691
11
4.67648
21
-2.8327
0
LINE
8
BLACK
6
CONTINUOUS
10
4.67648
20
-2.8327
11
4.67708
21
-2.83059
0
LINE
8
BLACK
6
CONTINUOUS
10
4.67708
20
-2.83059
11
4.67699
21
-2.83055
0
LINE
8
BLACK
6
CONTINUOUS
10
4.67699
20
-2.83055
11
4.67711
21
-2.83029
0
LINE
8
BLACK
6
CONTINUOUS
10
4.67711
20
-2.83029
11
4.67711
21
-2.83029
0
LINE
8
BLACK
6
CONTINUOUS
10
4.67711
20
-2.83029
11
4.67928
21
-2.82373
0
LINE
8
BLACK
6
CONTINUOUS
10
4.67928
20
-2.82373
11
4.6797
21
-2.81969
0
LINE
8
BLACK
6
CONTINUOUS
10
4.6797
20
-2.81969
11
4.6797
21
-2.8
0
LINE
8
BLACK
6
CONTINUOUS
10
4.6797
20
-2.8
11
4.6797
21
-2.78984
0
LINE
8
BLACK
6
CONTINUOUS
10
4.6797
20
-2.78984
11
4.68047
21
-2.7872
0
LINE
8
BLACK
6
CONTINUOUS
10
4.68047
20
-2.7872
11
4.68255
21
-2.7854
0
LINE
8
BLACK
6
CONTINUOUS
10
4.68255
20
-2.7854
11
4.68527
21
-2.78501
0
LINE
8
BLACK
6
CONTINUOUS
10
4.68527
20
-2.78501
11
4.68745
21
-2.78589
0
LINE
8
BLACK
6
CONTINUOUS
10
4.68745
20
-2.78589
11
4.68948
21
-2.78736
0
LINE
8
BLACK
6
CONTINUOUS
10
4.68948
20
-2.78736
11
4.69018
21
-2.78787
0
LINE
8
BLACK
6
CONTINUOUS
10
4.69018
20
-2.78787
11
4.69698
21
-2.7909
0
LINE
8
BLACK
6
CONTINUOUS
10
4.69698
20
-2.7909
11
4.69698
21
-2.7909
0
LINE
8
BLACK
6
CONTINUOUS
10
4.69698
20
-2.7909
11
4.70427
21
-2.79245
0
LINE
8
BLACK
6
CONTINUOUS
10
4.70427
20
-2.79245
11
4.70427
21
-2.79245
0
LINE
8
BLACK
6
CONTINUOUS
10
4.70427
20
-2.79245
11
4.71173
21
-2.79245
0
LINE
8
BLACK
6
CONTINUOUS
10
4.71173
20
-2.79245
11
4.71173
21
-2.79245
0
LINE
8
BLACK
6
CONTINUOUS
10
4.71173
20
-2.79245
11
4.71902
21
-2.7909
0
LINE
8
BLACK
6
CONTINUOUS
10
4.71902
20
-2.7909
11
4.72582
21
-2.78787
0
LINE
8
BLACK
6
CONTINUOUS
10
4.72582
20
-2.78787
11
4.73185
21
-2.78349
0
LINE
8
BLACK
6
CONTINUOUS
10
4.73185
20
-2.78349
11
4.73684
21
-2.77795
0
LINE
8
BLACK
6
CONTINUOUS
10
4.73684
20
-2.77795
11
4.74057
21
-2.7715
0
LINE
8
BLACK
6
CONTINUOUS
10
4.74057
20
-2.7715
11
4.74287
21
-2.76441
0
LINE
8
BLACK
6
CONTINUOUS
10
4.74287
20
-2.76441
11
4.74365
21
-2.757
0
LINE
8
BLACK
6
CONTINUOUS
10
4.74365
20
-2.757
11
4.74287
21
-2.74959
0
LINE
8
BLACK
6
CONTINUOUS
10
4.74287
20
-2.74959
11
4.74057
21
-2.7425
0
LINE
8
BLACK
6
CONTINUOUS
10
4.74057
20
-2.7425
11
4.73684
21
-2.73605
0
LINE
8
BLACK
6
CONTINUOUS
10
4.73684
20
-2.73605
11
4.73185
21
-2.73051
0
LINE
8
BLACK
6
CONTINUOUS
10
4.73185
20
-2.73051
11
4.73185
21
-2.73051
0
LINE
8
BLACK
6
CONTINUOUS
10
4.73185
20
-2.73051
11
4.72582
21
-2.72613
0
LINE
8
BLACK
6
CONTINUOUS
10
4.72582
20
-2.72613
11
4.72582
21
-2.72613
0
LINE
8
BLACK
6
CONTINUOUS
10
4.72582
20
-2.72613
11
4.71902
21
-2.7231
0
LINE
8
BLACK
6
CONTINUOUS
10
4.71902
20
-2.7231
11
4.71902
21
-2.7231
0
LINE
8
BLACK
6
CONTINUOUS
10
4.71902
20
-2.7231
11
4.71328
21
-2.72188
0
LINE
8
BLACK
6
CONTINUOUS
10
4.71328
20
-2.72188
11
4.71173
21
-2.72155
0
LINE
8
BLACK
6
CONTINUOUS
10
4.71173
20
-2.72155
11
4.71173
21
-2.72155
0
LINE
8
BLACK
6
CONTINUOUS
10
4.71173
20
-2.72155
11
4.70926
21
-2.72155
0
LINE
8
BLACK
6
CONTINUOUS
10
4.70926
20
-2.72155
11
4.70662
21
-2.72077
0
LINE
8
BLACK
6
CONTINUOUS
10
4.70662
20
-2.72077
11
4.70591
21
-2.72022
0
LINE
8
BLACK
6
CONTINUOUS
10
4.70591
20
-2.72022
11
4.70559
21
-2.71992
0
LINE
8
BLACK
6
CONTINUOUS
10
4.70559
20
-2.71992
11
4.70559
21
-2.71992
0
LINE
8
BLACK
6
CONTINUOUS
10
4.70559
20
-2.71992
11
4.7049
21
-2.71954
0
LINE
8
BLACK
6
CONTINUOUS
10
4.7049
20
-2.71954
11
4.70426
21
-2.71912
0
LINE
8
BLACK
6
CONTINUOUS
10
4.70426
20
-2.71912
11
4.70364
21
-2.71863
0
LINE
8
BLACK
6
CONTINUOUS
10
4.70364
20
-2.71863
11
4.70195
21
-2.71791
0
LINE
8
BLACK
6
CONTINUOUS
10
4.70195
20
-2.71791
11
4.70174
21
-2.71781
0
LINE
8
BLACK
6
CONTINUOUS
10
4.70174
20
-2.71781
11
4.70014
21
-2.71692
0
LINE
8
BLACK
6
CONTINUOUS
10
4.70014
20
-2.71692
11
4.70014
21
-2.71692
0
LINE
8
BLACK
6
CONTINUOUS
10
4.70014
20
-2.71692
11
4.69937
21
-2.71673
0
LINE
8
BLACK
6
CONTINUOUS
10
4.69937
20
-2.71673
11
4.69865
21
-2.71648
0
LINE
8
BLACK
6
CONTINUOUS
10
4.69865
20
-2.71648
11
4.69793
21
-2.71616
0
LINE
8
BLACK
6
CONTINUOUS
10
4.69793
20
-2.71616
11
4.69792
21
-2.71616
0
LINE
8
BLACK
6
CONTINUOUS
10
4.69792
20
-2.71616
11
4.69611
21
-2.71588
0
LINE
8
BLACK
6
CONTINUOUS
10
4.69611
20
-2.71588
11
4.69589
21
-2.71583
0
LINE
8
BLACK
6
CONTINUOUS
10
4.69589
20
-2.71583
11
4.69411
21
-2.71537
0
LINE
8
BLACK
6
CONTINUOUS
10
4.69411
20
-2.71537
11
4.69411
21
-2.71537
0
LINE
8
BLACK
6
CONTINUOUS
10
4.69411
20
-2.71537
11
4.69332
21
-2.71537
0
LINE
8
BLACK
6
CONTINUOUS
10
4.69332
20
-2.71537
11
4.69256
21
-2.71531
0
LINE
8
BLACK
6
CONTINUOUS
10
4.69256
20
-2.71531
11
4.69227
21
-2.71527
0
LINE
8
BLACK
6
CONTINUOUS
10
4.69227
20
-2.71527
11
4.69178
21
-2.71519
0
LINE
8
BLACK
6
CONTINUOUS
10
4.69178
20
-2.71519
11
4.69178
21
-2.71519
0
LINE
8
BLACK
6
CONTINUOUS
10
4.69178
20
-2.71519
11
4.68995
21
-2.71536
0
LINE
8
BLACK
6
CONTINUOUS
10
4.68995
20
-2.71536
11
4.68972
21
-2.71537
0
LINE
8
BLACK
6
CONTINUOUS
10
4.68972
20
-2.71537
11
4.68458
21
-2.71537
0
LINE
8
BLACK
6
CONTINUOUS
10
4.68458
20
-2.71537
11
4.68194
21
-2.7146
0
LINE
8
BLACK
6
CONTINUOUS
10
4.68194
20
-2.7146
11
4.68014
21
-2.71252
0
LINE
8
BLACK
6
CONTINUOUS
10
4.68014
20
-2.71252
11
4.6797
21
-2.71049
0
LINE
8
BLACK
6
CONTINUOUS
10
4.6797
20
-2.71049
11
4.6797
21
-2.70231
0
LINE
8
BLACK
6
CONTINUOUS
10
4.6797
20
-2.70231
11
4.6797
21
-2.70231
0
LINE
8
BLACK
6
CONTINUOUS
10
4.6797
20
-2.70231
11
4.67928
21
-2.69827
0
LINE
8
BLACK
6
CONTINUOUS
10
4.67928
20
-2.69827
11
4.67928
21
-2.69827
0
LINE
8
BLACK
6
CONTINUOUS
10
4.67928
20
-2.69827
11
4.67903
21
-2.6975
0
LINE
8
BLACK
6
CONTINUOUS
10
4.67903
20
-2.6975
11
4.67711
21
-2.69171
0
LINE
8
BLACK
6
CONTINUOUS
10
4.67711
20
-2.69171
11
4.67711
21
-2.69171
0
LINE
8
BLACK
6
CONTINUOUS
10
4.67711
20
-2.69171
11
4.67711
21
-2.69171
0
LINE
8
BLACK
6
CONTINUOUS
10
4.67711
20
-2.69171
11
4.67699
21
-2.69145
0
LINE
8
BLACK
6
CONTINUOUS
10
4.67699
20
-2.69145
11
4.67708
21
-2.69141
0
LINE
8
BLACK
6
CONTINUOUS
10
4.67708
20
-2.69141
11
4.67648
21
-2.6893
0
LINE
8
BLACK
6
CONTINUOUS
10
4.67648
20
-2.6893
11
4.67648
21
-2.67511
0
LINE
8
BLACK
6
CONTINUOUS
10
4.67648
20
-2.67511
11
4.67654
21
-2.67449
0
LINE
8
BLACK
6
CONTINUOUS
10
4.67654
20
-2.67449
11
4.67653
21
-2.67449
0
LINE
8
BLACK
6
CONTINUOUS
10
4.67653
20
-2.67449
11
4.67656
21
-2.67419
0
LINE
8
BLACK
6
CONTINUOUS
10
4.67656
20
-2.67419
11
4.67648
21
-2.67146
0
LINE
8
BLACK
6
CONTINUOUS
10
4.67648
20
-2.67146
11
4.67648
21
-2.6703
0
LINE
8
BLACK
6
CONTINUOUS
10
4.67648
20
-2.6703
11
4.67648
21
-2.6703
0
LINE
8
BLACK
6
CONTINUOUS
10
4.67648
20
-2.6703
11
4.67644
21
-2.67003
0
LINE
8
BLACK
6
CONTINUOUS
10
4.67644
20
-2.67003
11
4.67642
21
-2.6698
0
LINE
8
BLACK
6
CONTINUOUS
10
4.67642
20
-2.6698
11
4.67638
21
-2.6685
0
LINE
8
BLACK
6
CONTINUOUS
10
4.67638
20
-2.6685
11
4.67637
21
-2.66797
0
LINE
8
BLACK
6
CONTINUOUS
10
4.67637
20
-2.66797
11
4.67615
21
-2.66721
0
LINE
8
BLACK
6
CONTINUOUS
10
4.67615
20
-2.66721
11
4.67599
21
-2.66646
0
LINE
8
BLACK
6
CONTINUOUS
10
4.67599
20
-2.66646
11
4.67589
21
-2.66568
0
LINE
8
BLACK
6
CONTINUOUS
10
4.67589
20
-2.66568
11
4.67522
21
-2.66397
0
LINE
8
BLACK
6
CONTINUOUS
10
4.67522
20
-2.66397
11
4.67514
21
-2.66376
0
LINE
8
BLACK
6
CONTINUOUS
10
4.67514
20
-2.66376
11
4.67463
21
-2.66199
0
LINE
8
BLACK
6
CONTINUOUS
10
4.67463
20
-2.66199
11
4.67463
21
-2.66199
0
LINE
8
BLACK
6
CONTINUOUS
10
4.67463
20
-2.66199
11
4.67423
21
-2.66131
0
LINE
8
BLACK
6
CONTINUOUS
10
4.67423
20
-2.66131
11
4.67389
21
-2.66063
0
LINE
8
BLACK
6
CONTINUOUS
10
4.67389
20
-2.66063
11
4.6736
21
-2.65989
0
LINE
8
BLACK
6
CONTINUOUS
10
4.6736
20
-2.65989
11
4.6736
21
-2.65989
0
LINE
8
BLACK
6
CONTINUOUS
10
4.6736
20
-2.65989
11
4.67252
21
-2.65841
0
LINE
8
BLACK
6
CONTINUOUS
10
4.67252
20
-2.65841
11
4.6724
21
-2.65822
0
LINE
8
BLACK
6
CONTINUOUS
10
4.6724
20
-2.65822
11
4.67146
21
-2.65664
0
LINE
8
BLACK
6
CONTINUOUS
10
4.67146
20
-2.65664
11
4.67146
21
-2.65664
0
LINE
8
BLACK
6
CONTINUOUS
10
4.67146
20
-2.65664
11
4.67091
21
-2.65608
0
LINE
8
BLACK
6
CONTINUOUS
10
4.67091
20
-2.65608
11
4.67041
21
-2.6555
0
LINE
8
BLACK
6
CONTINUOUS
10
4.67041
20
-2.6555
11
4.66994
21
-2.65486
0
LINE
8
BLACK
6
CONTINUOUS
10
4.66994
20
-2.65486
11
4.66853
21
-2.65369
0
LINE
8
BLACK
6
CONTINUOUS
10
4.66853
20
-2.65369
11
4.66836
21
-2.65353
0
LINE
8
BLACK
6
CONTINUOUS
10
4.66836
20
-2.65353
11
4.64817
21
-2.63335
0
LINE
8
BLACK
6
CONTINUOUS
10
4.64817
20
-2.63335
11
4.64779
21
-2.63286
0
LINE
8
BLACK
6
CONTINUOUS
10
4.64779
20
-2.63286
11
4.64778
21
-2.63287
0
LINE
8
BLACK
6
CONTINUOUS
10
4.64778
20
-2.63287
11
4.64758
21
-2.63263
0
LINE
8
BLACK
6
CONTINUOUS
10
4.64758
20
-2.63263
11
4.64718
21
-2.63226
0
LINE
8
BLACK
6
CONTINUOUS
10
4.64718
20
-2.63226
11
4.6456
21
-2.63077
0
LINE
8
BLACK
6
CONTINUOUS
10
4.6456
20
-2.63077
11
4.64519
21
-2.63036
0
LINE
8
BLACK
6
CONTINUOUS
10
4.64519
20
-2.63036
11
4.64477
21
-2.62995
0
LINE
8
BLACK
6
CONTINUOUS
10
4.64477
20
-2.62995
11
4.64456
21
-2.62978
0
LINE
8
BLACK
6
CONTINUOUS
10
4.64456
20
-2.62978
11
4.64438
21
-2.62963
0
LINE
8
BLACK
6
CONTINUOUS
10
4.64438
20
-2.62963
11
4.64305
21
-2.62838
0
LINE
8
BLACK
6
CONTINUOUS
10
4.64305
20
-2.62838
11
4.64305
21
-2.62838
0
LINE
8
BLACK
6
CONTINUOUS
10
4.64305
20
-2.62838
11
4.64305
21
-2.62838
0
LINE
8
BLACK
6
CONTINUOUS
10
4.64305
20
-2.62838
11
4.64236
21
-2.628
0
LINE
8
BLACK
6
CONTINUOUS
10
4.64236
20
-2.628
11
4.64172
21
-2.62757
0
LINE
8
BLACK
6
CONTINUOUS
10
4.64172
20
-2.62757
11
4.64109
21
-2.62709
0
LINE
8
BLACK
6
CONTINUOUS
10
4.64109
20
-2.62709
11
4.63941
21
-2.62636
0
LINE
8
BLACK
6
CONTINUOUS
10
4.63941
20
-2.62636
11
4.6392
21
-2.62626
0
LINE
8
BLACK
6
CONTINUOUS
10
4.6392
20
-2.62626
11
4.63759
21
-2.62538
0
LINE
8
BLACK
6
CONTINUOUS
10
4.63759
20
-2.62538
11
4.63759
21
-2.62538
0
LINE
8
BLACK
6
CONTINUOUS
10
4.63759
20
-2.62538
11
4.63683
21
-2.62518
0
LINE
8
BLACK
6
CONTINUOUS
10
4.63683
20
-2.62518
11
4.63611
21
-2.62493
0
LINE
8
BLACK
6
CONTINUOUS
10
4.63611
20
-2.62493
11
4.63538
21
-2.62462
0
LINE
8
BLACK
6
CONTINUOUS
10
4.63538
20
-2.62462
11
4.63538
21
-2.62462
0
LINE
8
BLACK
6
CONTINUOUS
10
4.63538
20
-2.62462
11
4.63357
21
-2.62433
0
LINE
8
BLACK
6
CONTINUOUS
10
4.63357
20
-2.62433
11
4.63334
21
-2.62429
0
LINE
8
BLACK
6
CONTINUOUS
10
4.63334
20
-2.62429
11
4.63157
21
-2.62383
0
LINE
8
BLACK
6
CONTINUOUS
10
4.63157
20
-2.62383
11
4.63157
21
-2.62383
0
LINE
8
BLACK
6
CONTINUOUS
10
4.63157
20
-2.62383
11
4.63078
21
-2.62383
0
LINE
8
BLACK
6
CONTINUOUS
10
4.63078
20
-2.62383
11
4.63002
21
-2.62377
0
LINE
8
BLACK
6
CONTINUOUS
10
4.63002
20
-2.62377
11
4.62972
21
-2.62372
0
LINE
8
BLACK
6
CONTINUOUS
10
4.62972
20
-2.62372
11
4.62924
21
-2.62365
0
LINE
8
BLACK
6
CONTINUOUS
10
4.62924
20
-2.62365
11
4.62924
21
-2.62365
0
LINE
8
BLACK
6
CONTINUOUS
10
4.62924
20
-2.62365
11
4.62741
21
-2.62382
0
LINE
8
BLACK
6
CONTINUOUS
10
4.62741
20
-2.62382
11
4.62718
21
-2.62383
0
LINE
8
BLACK
6
CONTINUOUS
10
4.62718
20
-2.62383
11
4.54398
21
-2.62383
0
LINE
8
BLACK
6
CONTINUOUS
10
4.54398
20
-2.62383
11
4.54398
21
-2.62387
0
LINE
8
BLACK
6
CONTINUOUS
10
4.54398
20
-2.62387
11
4.54174
21
-2.62826
0
LINE
8
BLACK
6
CONTINUOUS
10
4.54174
20
-2.62826
11
4.53826
21
-2.63174
0
LINE
8
BLACK
6
CONTINUOUS
10
4.53826
20
-2.63174
11
4.53387
21
-2.63398
0
LINE
8
BLACK
6
CONTINUOUS
10
4.53387
20
-2.63398
11
4.529
21
-2.63475
0
LINE
8
BLACK
6
CONTINUOUS
10
4.529
20
-2.63475
11
4.52413
21
-2.63398
0
LINE
8
BLACK
6
CONTINUOUS
10
4.52413
20
-2.63398
11
4.51974
21
-2.63174
0
LINE
8
BLACK
6
CONTINUOUS
10
4.51974
20
-2.63174
11
4.51626
21
-2.62826
0
LINE
8
BLACK
6
CONTINUOUS
10
4.51626
20
-2.62826
11
4.51402
21
-2.62387
0
LINE
8
BLACK
6
CONTINUOUS
10
4.51402
20
-2.62387
11
4.51402
21
-2.62383
0
LINE
8
BLACK
6
CONTINUOUS
10
4.51402
20
-2.62383
11
4.43266
21
-2.62383
0
LINE
8
BLACK
6
CONTINUOUS
10
4.43266
20
-2.62383
11
4.43002
21
-2.62306
0
LINE
8
BLACK
6
CONTINUOUS
10
4.43002
20
-2.62306
11
4.42822
21
-2.62098
0
LINE
8
BLACK
6
CONTINUOUS
10
4.42822
20
-2.62098
11
4.42778
21
-2.61895
0
LINE
8
BLACK
6
CONTINUOUS
10
4.42778
20
-2.61895
11
4.42778
21
-2.61142
0
LINE
8
BLACK
6
CONTINUOUS
10
4.42778
20
-2.61142
11
4.42778
21
-2.61142
0
LINE
8
BLACK
6
CONTINUOUS
10
4.42778
20
-2.61142
11
4.42752
21
-2.60908
0
LINE
8
BLACK
6
CONTINUOUS
10
4.42752
20
-2.60908
11
4.42752
21
-2.60908
0
LINE
8
BLACK
6
CONTINUOUS
10
4.42752
20
-2.60908
11
4.4275
21
-2.60882
0
LINE
8
BLACK
6
CONTINUOUS
10
4.4275
20
-2.60882
11
4.4275
21
-2.60777
0
LINE
8
BLACK
6
CONTINUOUS
10
4.4275
20
-2.60777
11
4.42776
21
-2.60535
0
LINE
8
BLACK
6
CONTINUOUS
10
4.42776
20
-2.60535
11
4.42776
21
-2.60535
0
LINE
8
BLACK
6
CONTINUOUS
10
4.42776
20
-2.60535
11
4.42776
21
-2.60346
0
LINE
8
BLACK
6
CONTINUOUS
10
4.42776
20
-2.60346
11
4.42775
21
-2.60346
0
LINE
8
BLACK
6
CONTINUOUS
10
4.42775
20
-2.60346
11
4.42512
21
-2.60269
0
LINE
8
BLACK
6
CONTINUOUS
10
4.42512
20
-2.60269
11
4.42385
21
-2.60151
0
LINE
8
BLACK
6
CONTINUOUS
10
4.42385
20
-2.60151
11
4.42311
21
-2.60051
0
LINE
8
BLACK
6
CONTINUOUS
10
4.42311
20
-2.60051
11
4.40807
21
-2.60051
0
LINE
8
BLACK
6
CONTINUOUS
10
4.40807
20
-2.60051
11
4.40807
21
-2.60346
0
LINE
8
BLACK
6
CONTINUOUS
10
4.40807
20
-2.60346
11
4.37461
21
-2.60346
0
LINE
8
BLACK
6
CONTINUOUS
10
4.37461
20
-2.60346
11
4.37461
21
-2.58772
0
LINE
8
BLACK
6
CONTINUOUS
10
4.37461
20
-2.58772
11
4.40807
21
-2.58772
0
LINE
8
BLACK
6
CONTINUOUS
10
4.40807
20
-2.58772
11
4.40807
21
-2.59067
0
LINE
8
BLACK
6
CONTINUOUS
10
4.40807
20
-2.59067
11
4.42311
21
-2.59067
0
LINE
8
BLACK
6
CONTINUOUS
10
4.42311
20
-2.59067
11
4.42385
21
-2.58967
0
LINE
8
BLACK
6
CONTINUOUS
10
4.42385
20
-2.58967
11
4.42605
21
-2.58802
0
LINE
8
BLACK
6
CONTINUOUS
10
4.42605
20
-2.58802
11
4.42775
21
-2.58772
0
LINE
8
BLACK
6
CONTINUOUS
10
4.42775
20
-2.58772
11
4.42776
21
-2.58772
0
LINE
8
BLACK
6
CONTINUOUS
10
4.42776
20
-2.58772
11
4.42776
21
-2.58583
0
LINE
8
BLACK
6
CONTINUOUS
10
4.42776
20
-2.58583
11
4.42776
21
-2.58583
0
LINE
8
BLACK
6
CONTINUOUS
10
4.42776
20
-2.58583
11
4.4275
21
-2.58341
0
LINE
8
BLACK
6
CONTINUOUS
10
4.4275
20
-2.58341
11
4.4275
21
-2.58237
0
LINE
8
BLACK
6
CONTINUOUS
10
4.4275
20
-2.58237
11
4.42752
21
-2.58211
0
LINE
8
BLACK
6
CONTINUOUS
10
4.42752
20
-2.58211
11
4.42752
21
-2.58211
0
LINE
8
BLACK
6
CONTINUOUS
10
4.42752
20
-2.58211
11
4.42778
21
-2.57976
0
LINE
8
BLACK
6
CONTINUOUS
10
4.42778
20
-2.57976
11
4.42778
21
-2.56024
0
LINE
8
BLACK
6
CONTINUOUS
10
4.42778
20
-2.56024
11
4.42752
21
-2.55789
0
LINE
8
BLACK
6
CONTINUOUS
10
4.42752
20
-2.55789
11
4.42725
21
-2.55716
0
LINE
8
BLACK
6
CONTINUOUS
10
4.42725
20
-2.55716
11
4.42554
21
-2.55259
0
LINE
8
BLACK
6
CONTINUOUS
10
4.42554
20
-2.55259
11
4.42554
21
-2.55259
0
LINE
8
BLACK
6
CONTINUOUS
10
4.42554
20
-2.55259
11
4.42215
21
-2.54805
0
LINE
8
BLACK
6
CONTINUOUS
10
4.42215
20
-2.54805
11
4.42215
21
-2.54805
0
LINE
8
BLACK
6
CONTINUOUS
10
4.42215
20
-2.54805
11
4.41761
21
-2.54465
0
LINE
8
BLACK
6
CONTINUOUS
10
4.41761
20
-2.54465
11
4.41761
21
-2.54465
0
LINE
8
BLACK
6
CONTINUOUS
10
4.41761
20
-2.54465
11
4.4123
21
-2.54267
0
LINE
8
BLACK
6
CONTINUOUS
10
4.4123
20
-2.54267
11
4.4123
21
-2.54267
0
LINE
8
BLACK
6
CONTINUOUS
10
4.4123
20
-2.54267
11
4.40996
21
-2.54242
0
LINE
8
BLACK
6
CONTINUOUS
10
4.40996
20
-2.54242
11
4.40996
21
-2.54242
0
LINE
8
BLACK
6
CONTINUOUS
10
4.40996
20
-2.54242
11
4.40996
21
-2.54242
0
LINE
8
BLACK
6
CONTINUOUS
10
4.40996
20
-2.54242
11
4.40996
21
-2.54242
0
LINE
8
BLACK
6
CONTINUOUS
10
4.40996
20
-2.54242
11
4.37272
21
-2.54242
0
LINE
8
BLACK
6
CONTINUOUS
10
4.37272
20
-2.54242
11
4.37272
21
-2.54242
0
LINE
8
BLACK
6
CONTINUOUS
10
4.37272
20
-2.54242
11
4.37037
21
-2.54267
0
LINE
8
BLACK
6
CONTINUOUS
10
4.37037
20
-2.54267
11
4.36507
21
-2.54465
0
LINE
8
BLACK
6
CONTINUOUS
10
4.36507
20
-2.54465
11
4.36507
21
-2.54465
0
LINE
8
BLACK
6
CONTINUOUS
10
4.36507
20
-2.54465
11
4.36053
21
-2.54805
0
LINE
8
BLACK
6
CONTINUOUS
10
4.36053
20
-2.54805
11
4.36053
21
-2.54805
0
LINE
8
BLACK
6
CONTINUOUS
10
4.36053
20
-2.54805
11
4.35713
21
-2.55259
0
LINE
8
BLACK
6
CONTINUOUS
10
4.35713
20
-2.55259
11
4.35713
21
-2.55259
0
LINE
8
BLACK
6
CONTINUOUS
10
4.35713
20
-2.55259
11
4.3553
21
-2.55751
0
LINE
8
BLACK
6
CONTINUOUS
10
4.3553
20
-2.55751
11
4.35515
21
-2.55789
0
LINE
8
BLACK
6
CONTINUOUS
10
4.35515
20
-2.55789
11
4.3549
21
-2.56024
0
LINE
8
BLACK
6
CONTINUOUS
10
4.3549
20
-2.56024
11
4.3549
21
-2.56024
0
LINE
8
BLACK
6
CONTINUOUS
10
4.3549
20
-2.56024
11
4.3549
21
-2.56024
0
LINE
8
BLACK
6
CONTINUOUS
10
4.3549
20
-2.56024
11
4.3549
21
-2.57976
0
LINE
8
BLACK
6
CONTINUOUS
10
4.3549
20
-2.57976
11
4.3549
21
-2.57976
0
LINE
8
BLACK
6
CONTINUOUS
10
4.3549
20
-2.57976
11
4.35518
21
-2.58237
0
LINE
8
BLACK
6
CONTINUOUS
10
4.35518
20
-2.58237
11
4.35518
21
-2.58341
0
LINE
8
BLACK
6
CONTINUOUS
10
4.35518
20
-2.58341
11
4.35492
21
-2.58583
0
LINE
8
BLACK
6
CONTINUOUS
10
4.35492
20
-2.58583
11
4.35492
21
-2.58772
0
LINE
8
BLACK
6
CONTINUOUS
10
4.35492
20
-2.58772
11
4.35492
21
-2.58772
0
LINE
8
BLACK
6
CONTINUOUS
10
4.35492
20
-2.58772
11
4.35756
21
-2.58849
0
LINE
8
BLACK
6
CONTINUOUS
10
4.35756
20
-2.58849
11
4.35882
21
-2.58967
0
LINE
8
BLACK
6
CONTINUOUS
10
4.35882
20
-2.58967
11
4.36053
21
-2.59195
0
LINE
8
BLACK
6
CONTINUOUS
10
4.36053
20
-2.59195
11
4.36053
21
-2.59195
0
LINE
8
BLACK
6
CONTINUOUS
10
4.36053
20
-2.59195
11
4.36053
21
-2.59195
0
LINE
8
BLACK
6
CONTINUOUS
10
4.36053
20
-2.59195
11
4.36072
21
-2.59214
0
LINE
8
BLACK
6
CONTINUOUS
10
4.36072
20
-2.59214
11
4.36204
21
-2.59455
0
LINE
8
BLACK
6
CONTINUOUS
10
4.36204
20
-2.59455
11
4.36184
21
-2.5973
0
LINE
8
BLACK
6
CONTINUOUS
10
4.36184
20
-2.5973
11
4.36072
21
-2.59904
0
LINE
8
BLACK
6
CONTINUOUS
10
4.36072
20
-2.59904
11
4.36053
21
-2.59923
0
LINE
8
BLACK
6
CONTINUOUS
10
4.36053
20
-2.59923
11
4.35936
21
-2.60079
0
LINE
8
BLACK
6
CONTINUOUS
10
4.35936
20
-2.60079
11
4.35716
21
-2.60244
0
LINE
8
BLACK
6
CONTINUOUS
10
4.35716
20
-2.60244
11
4.35442
21
-2.60263
0
LINE
8
BLACK
6
CONTINUOUS
10
4.35442
20
-2.60263
11
4.35211
21
-2.60142
0
LINE
8
BLACK
6
CONTINUOUS
10
4.35211
20
-2.60142
11
4.35177
21
-2.6011
0
LINE
8
BLACK
6
CONTINUOUS
10
4.35177
20
-2.6011
11
4.35177
21
-2.6011
0
LINE
8
BLACK
6
CONTINUOUS
10
4.35177
20
-2.6011
11
4.35108
21
-2.60072
0
LINE
8
BLACK
6
CONTINUOUS
10
4.35108
20
-2.60072
11
4.35044
21
-2.6003
0
LINE
8
BLACK
6
CONTINUOUS
10
4.35044
20
-2.6003
11
4.34982
21
-2.59982
0
LINE
8
BLACK
6
CONTINUOUS
10
4.34982
20
-2.59982
11
4.34813
21
-2.59909
0
LINE
8
BLACK
6
CONTINUOUS
10
4.34813
20
-2.59909
11
4.34793
21
-2.59899
0
LINE
8
BLACK
6
CONTINUOUS
10
4.34793
20
-2.59899
11
4.34632
21
-2.5981
0
LINE
8
BLACK
6
CONTINUOUS
10
4.34632
20
-2.5981
11
4.34632
21
-2.5981
0
LINE
8
BLACK
6
CONTINUOUS
10
4.34632
20
-2.5981
11
4.34555
21
-2.59791
0
LINE
8
BLACK
6
CONTINUOUS
10
4.34555
20
-2.59791
11
4.34483
21
-2.59766
0
LINE
8
BLACK
6
CONTINUOUS
10
4.34483
20
-2.59766
11
4.34411
21
-2.59734
0
LINE
8
BLACK
6
CONTINUOUS
10
4.34411
20
-2.59734
11
4.34381
21
-2.59726
0
LINE
8
BLACK
6
CONTINUOUS
10
4.34381
20
-2.59726
11
4.34384
21
-2.59715
0
LINE
8
BLACK
6
CONTINUOUS
10
4.34384
20
-2.59715
11
4.34186
21
-2.5962
0
LINE
8
BLACK
6
CONTINUOUS
10
4.34186
20
-2.5962
11
4.34041
21
-2.59387
0
LINE
8
BLACK
6
CONTINUOUS
10
4.34041
20
-2.59387
11
4.34045
21
-2.59112
0
LINE
8
BLACK
6
CONTINUOUS
10
4.34045
20
-2.59112
11
4.3412
21
-2.58964
0
LINE
8
BLACK
6
CONTINUOUS
10
4.3412
20
-2.58964
11
4.34287
21
-2.58741
0
LINE
8
BLACK
6
CONTINUOUS
10
4.34287
20
-2.58741
11
4.34485
21
-2.58211
0
LINE
8
BLACK
6
CONTINUOUS
10
4.34485
20
-2.58211
11
4.3451
21
-2.57976
0
LINE
8
BLACK
6
CONTINUOUS
10
4.3451
20
-2.57976
11
4.3451
21
-2.56024
0
LINE
8
BLACK
6
CONTINUOUS
10
4.3451
20
-2.56024
11
4.34485
21
-2.55789
0
LINE
8
BLACK
6
CONTINUOUS
10
4.34485
20
-2.55789
11
4.34457
21
-2.55716
0
LINE
8
BLACK
6
CONTINUOUS
10
4.34457
20
-2.55716
11
4.34287
21
-2.55259
0
LINE
8
BLACK
6
CONTINUOUS
10
4.34287
20
-2.55259
11
4.34287
21
-2.55259
0
LINE
8
BLACK
6
CONTINUOUS
10
4.34287
20
-2.55259
11
4.33947
21
-2.54805
0
LINE
8
BLACK
6
CONTINUOUS
10
4.33947
20
-2.54805
11
4.33916
21
-2.54782
0
LINE
8
BLACK
6
CONTINUOUS
10
4.33916
20
-2.54782
11
4.33668
21
-2.54596
0
LINE
8
BLACK
6
CONTINUOUS
10
4.33668
20
-2.54596
11
4.33524
21
-2.54489
0
LINE
8
BLACK
6
CONTINUOUS
10
4.33524
20
-2.54489
11
4.3336
21
-2.54268
0
LINE
8
BLACK
6
CONTINUOUS
10
4.3336
20
-2.54268
11
4.33329
21
-2.54098
0
LINE
8
BLACK
6
CONTINUOUS
10
4.33329
20
-2.54098
11
4.33329
21
-2.51216
0
LINE
8
BLACK
6
CONTINUOUS
10
4.33329
20
-2.51216
11
4.33336
21
-2.51154
0
LINE
8
BLACK
6
CONTINUOUS
10
4.33336
20
-2.51154
11
4.33334
21
-2.51154
0
LINE
8
BLACK
6
CONTINUOUS
10
4.33334
20
-2.51154
11
4.33337
21
-2.51123
0
LINE
8
BLACK
6
CONTINUOUS
10
4.33337
20
-2.51123
11
4.33329
21
-2.50851
0
LINE
8
BLACK
6
CONTINUOUS
10
4.33329
20
-2.50851
11
4.33329
21
-2.50735
0
LINE
8
BLACK
6
CONTINUOUS
10
4.33329
20
-2.50735
11
4.33329
21
-2.50735
0
LINE
8
BLACK
6
CONTINUOUS
10
4.33329
20
-2.50735
11
4.33325
21
-2.50708
0
LINE
8
BLACK
6
CONTINUOUS
10
4.33325
20
-2.50708
11
4.33324
21
-2.50685
0
LINE
8
BLACK
6
CONTINUOUS
10
4.33324
20
-2.50685
11
4.33323
21
-2.50673
0
LINE
8
BLACK
6
CONTINUOUS
10
4.33323
20
-2.50673
11
4.33318
21
-2.50501
0
LINE
8
BLACK
6
CONTINUOUS
10
4.33318
20
-2.50501
11
4.33296
21
-2.50426
0
LINE
8
BLACK
6
CONTINUOUS
10
4.33296
20
-2.50426
11
4.3328
21
-2.50351
0
LINE
8
BLACK
6
CONTINUOUS
10
4.3328
20
-2.50351
11
4.3327
21
-2.50272
0
LINE
8
BLACK
6
CONTINUOUS
10
4.3327
20
-2.50272
11
4.33203
21
-2.50102
0
LINE
8
BLACK
6
CONTINUOUS
10
4.33203
20
-2.50102
11
4.33195
21
-2.5008
0
LINE
8
BLACK
6
CONTINUOUS
10
4.33195
20
-2.5008
11
4.33144
21
-2.49904
0
LINE
8
BLACK
6
CONTINUOUS
10
4.33144
20
-2.49904
11
4.33104
21
-2.49836
0
LINE
8
BLACK
6
CONTINUOUS
10
4.33104
20
-2.49836
11
4.3307
21
-2.49767
0
LINE
8
BLACK
6
CONTINUOUS
10
4.3307
20
-2.49767
11
4.33041
21
-2.49694
0
LINE
8
BLACK
6
CONTINUOUS
10
4.33041
20
-2.49694
11
4.33041
21
-2.49694
0
LINE
8
BLACK
6
CONTINUOUS
10
4.33041
20
-2.49694
11
4.32933
21
-2.49545
0
LINE
8
BLACK
6
CONTINUOUS
10
4.32933
20
-2.49545
11
4.32921
21
-2.49526
0
LINE
8
BLACK
6
CONTINUOUS
10
4.32921
20
-2.49526
11
4.32827
21
-2.49368
0
LINE
8
BLACK
6
CONTINUOUS
10
4.32827
20
-2.49368
11
4.32827
21
-2.49368
0
LINE
8
BLACK
6
CONTINUOUS
10
4.32827
20
-2.49368
11
4.32772
21
-2.49313
0
LINE
8
BLACK
6
CONTINUOUS
10
4.32772
20
-2.49313
11
4.32722
21
-2.49254
0
LINE
8
BLACK
6
CONTINUOUS
10
4.32722
20
-2.49254
11
4.32676
21
-2.49191
0
LINE
8
BLACK
6
CONTINUOUS
10
4.32676
20
-2.49191
11
4.32534
21
-2.49074
0
LINE
8
BLACK
6
CONTINUOUS
10
4.32534
20
-2.49074
11
4.32517
21
-2.49058
0
LINE
8
BLACK
6
CONTINUOUS
10
4.32517
20
-2.49058
11
4.32443
21
-2.48984
0
LINE
8
BLACK
6
CONTINUOUS
10
4.32443
20
-2.48984
11
4.32255
21
-2.48796
0
LINE
8
BLACK
6
CONTINUOUS
10
4.32255
20
-2.48796
11
4.32123
21
-2.48555
0
LINE
8
BLACK
6
CONTINUOUS
10
4.32123
20
-2.48555
11
4.32112
21
-2.48451
0
LINE
8
BLACK
6
CONTINUOUS
10
4.32112
20
-2.48451
11
4.32112
21
-2.47016
0
LINE
8
BLACK
6
CONTINUOUS
10
4.32112
20
-2.47016
11
4.32112
21
-2.46622
0
LINE
8
BLACK
6
CONTINUOUS
10
4.32112
20
-2.46622
11
4.32112
21
-2.46622
0
LINE
8
BLACK
6
CONTINUOUS
10
4.32112
20
-2.46622
11
4.32071
21
-2.46217
0
LINE
8
BLACK
6
CONTINUOUS
10
4.32071
20
-2.46217
11
4.32071
21
-2.46217
0
LINE
8
BLACK
6
CONTINUOUS
10
4.32071
20
-2.46217
11
4.31854
21
-2.45562
0
LINE
8
BLACK
6
CONTINUOUS
10
4.31854
20
-2.45562
11
4.31491
21
-2.44974
0
LINE
8
BLACK
6
CONTINUOUS
10
4.31491
20
-2.44974
11
4.31003
21
-2.44485
0
LINE
8
BLACK
6
CONTINUOUS
10
4.31003
20
-2.44485
11
4.30415
21
-2.44123
0
LINE
8
BLACK
6
CONTINUOUS
10
4.30415
20
-2.44123
11
4.29759
21
-2.43906
0
LINE
8
BLACK
6
CONTINUOUS
10
4.29759
20
-2.43906
11
4.29759
21
-2.43906
0
LINE
8
BLACK
6
CONTINUOUS
10
4.29759
20
-2.43906
11
4.29354
21
-2.43864
0
LINE
8
BLACK
6
CONTINUOUS
10
4.29354
20
-2.43864
11
4.26598
21
-2.43864
0
LINE
8
BLACK
6
CONTINUOUS
10
4.26598
20
-2.43864
11
4.26598
21
-2.43864
0
LINE
8
BLACK
6
CONTINUOUS
10
4.26598
20
-2.43864
11
4.26194
21
-2.43906
0
LINE
8
BLACK
6
CONTINUOUS
10
4.26194
20
-2.43906
11
4.26194
21
-2.43906
0
LINE
8
BLACK
6
CONTINUOUS
10
4.26194
20
-2.43906
11
4.25783
21
-2.44042
0
LINE
8
BLACK
6
CONTINUOUS
10
4.25783
20
-2.44042
11
4.25556
21
-2.44117
0
LINE
8
BLACK
6
CONTINUOUS
10
4.25556
20
-2.44117
11
4.25402
21
-2.44142
0
LINE
8
BLACK
6
CONTINUOUS
10
4.25402
20
-2.44142
11
4.25016
21
-2.44142
0
LINE
8
BLACK
6
CONTINUOUS
10
4.25016
20
-2.44142
11
4.24752
21
-2.44064
0
LINE
8
BLACK
6
CONTINUOUS
10
4.24752
20
-2.44064
11
4.24581
21
-2.43869
0
LINE
8
BLACK
6
CONTINUOUS
10
4.24581
20
-2.43869
11
4.24581
21
-2.43869
0
LINE
8
BLACK
6
CONTINUOUS
10
4.24581
20
-2.43869
11
4.24581
21
-2.43869
0
LINE
8
BLACK
6
CONTINUOUS
10
4.24581
20
-2.43869
11
4.24573
21
-2.4386
0
LINE
8
BLACK
6
CONTINUOUS
10
4.24573
20
-2.4386
11
4.24566
21
-2.43845
0
LINE
8
BLACK
6
CONTINUOUS
10
4.24566
20
-2.43845
11
4.24566
21
-2.43845
0
LINE
8
BLACK
6
CONTINUOUS
10
4.24566
20
-2.43845
11
4.24204
21
-2.43257
0
LINE
8
BLACK
6
CONTINUOUS
10
4.24204
20
-2.43257
11
4.2378
21
-2.42833
0
LINE
8
BLACK
6
CONTINUOUS
10
4.2378
20
-2.42833
11
4.23648
21
-2.42592
0
LINE
8
BLACK
6
CONTINUOUS
10
4.23648
20
-2.42592
11
4.23668
21
-2.42318
0
LINE
8
BLACK
6
CONTINUOUS
10
4.23668
20
-2.42318
11
4.23833
21
-2.42097
0
LINE
8
BLACK
6
CONTINUOUS
10
4.23833
20
-2.42097
11
4.2409
21
-2.42001
0
LINE
8
BLACK
6
CONTINUOUS
10
4.2409
20
-2.42001
11
4.24125
21
-2.42
0
LINE
8
BLACK
6
CONTINUOUS
10
4.24125
20
-2.42
11
4.97512
21
-2.42
0
LINE
8
BLACK
6
CONTINUOUS
10
4.97512
20
-2.42
11
4.97776
21
-2.42077
0
LINE
8
BLACK
6
CONTINUOUS
10
4.97776
20
-2.42077
11
4.97956
21
-2.42285
0
LINE
8
BLACK
6
CONTINUOUS
10
4.97956
20
-2.42285
11
4.98
21
-2.42488
0
LINE
8
BLACK
6
CONTINUOUS
10
4.98
20
-2.42488
11
4.98
21
-3.17512
0
LINE
8
BLACK
6
CONTINUOUS
10
4.98
20
-3.17512
11
4.97922
21
-3.17776
0
LINE
8
BLACK
6
CONTINUOUS
10
4.97922
20
-3.17776
11
4.97715
21
-3.17956
0
LINE
8
BLACK
6
CONTINUOUS
10
4.97715
20
-3.17956
11
4.97512
21
-3.18
0
LINE
8
BLACK
6
CONTINUOUS
10
4.97512
20
-3.18
11
3.82488
21
-3.18
0
LINE
8
BLACK
6
CONTINUOUS
10
3.82488
20
-3.18
11
3.82224
21
-3.17922
0
LINE
8
BLACK
6
CONTINUOUS
10
3.82224
20
-3.17922
11
3.82044
21
-3.17715
0
LINE
8
BLACK
6
CONTINUOUS
10
3.82044
20
-3.17715
11
3.82
21
-3.17512
0
LINE
8
BLACK
6
CONTINUOUS
10
3.82
20
-3.17512
11
3.82
21
-2.8
0
LINE
8
BLACK
6
CONTINUOUS
10
3.82
20
-2.8
11
3.82
21
-2.60716
0
LINE
8
BLACK
6
CONTINUOUS
10
3.82
20
-2.60716
11
3.82
21
-2.42488
0
LINE
8
BLACK
6
CONTINUOUS
10
3.82
20
-2.42488
11
3.82077
21
-2.42224
0
LINE
8
BLACK
6
CONTINUOUS
10
3.82077
20
-2.42224
11
3.82285
21
-2.42044
0
LINE
8
BLACK
6
CONTINUOUS
10
3.82285
20
-2.42044
11
3.82488
21
-2.42
0
LINE
8
BLACK
6
CONTINUOUS
10
3.82488
20
-2.42
11
4.15875
21
-2.42
0
LINE
8
BLACK
6
CONTINUOUS
10
4.15875
20
-2.42
11
4.16139
21
-2.42077
0
LINE
8
BLACK
6
CONTINUOUS
10
3.87118
20
-2.80772
11
3.87343
21
-2.81515
0
LINE
8
BLACK
6
CONTINUOUS
10
3.87343
20
-2.81515
11
3.87709
21
-2.82199
0
LINE
8
BLACK
6
CONTINUOUS
10
3.87709
20
-2.82199
11
3.87709
21
-2.82199
0
LINE
8
BLACK
6
CONTINUOUS
10
3.87709
20
-2.82199
11
3.88201
21
-2.82799
0
LINE
8
BLACK
6
CONTINUOUS
10
3.88201
20
-2.82799
11
3.88801
21
-2.83291
0
LINE
8
BLACK
6
CONTINUOUS
10
3.88801
20
-2.83291
11
3.88801
21
-2.83291
0
LINE
8
BLACK
6
CONTINUOUS
10
3.88801
20
-2.83291
11
3.89485
21
-2.83657
0
LINE
8
BLACK
6
CONTINUOUS
10
3.89485
20
-2.83657
11
3.89485
21
-2.83657
0
LINE
8
BLACK
6
CONTINUOUS
10
3.89485
20
-2.83657
11
3.89485
21
-2.83657
0
LINE
8
BLACK
6
CONTINUOUS
10
3.89485
20
-2.83657
11
3.90228
21
-2.83882
0
LINE
8
BLACK
6
CONTINUOUS
10
3.90228
20
-2.83882
11
3.91
21
-2.83958
0
LINE
8
BLACK
6
CONTINUOUS
10
3.91
20
-2.83958
11
3.91772
21
-2.83882
0
LINE
8
BLACK
6
CONTINUOUS
10
3.91772
20
-2.83882
11
3.92515
21
-2.83657
0
LINE
8
BLACK
6
CONTINUOUS
10
3.92515
20
-2.83657
11
3.92589
21
-2.83617
0
LINE
8
BLACK
6
CONTINUOUS
10
3.92589
20
-2.83617
11
3.93199
21
-2.83291
0
LINE
8
BLACK
6
CONTINUOUS
10
3.93199
20
-2.83291
11
3.93199
21
-2.83291
0
LINE
8
BLACK
6
CONTINUOUS
10
3.93199
20
-2.83291
11
3.93799
21
-2.82799
0
LINE
8
BLACK
6
CONTINUOUS
10
3.93799
20
-2.82799
11
3.94291
21
-2.82199
0
LINE
8
BLACK
6
CONTINUOUS
10
3.94291
20
-2.82199
11
3.94657
21
-2.81515
0
LINE
8
BLACK
6
CONTINUOUS
10
3.94657
20
-2.81515
11
3.94882
21
-2.80772
0
LINE
8
BLACK
6
CONTINUOUS
10
3.94882
20
-2.80772
11
3.94958
21
-2.8
0
LINE
8
BLACK
6
CONTINUOUS
10
3.94958
20
-2.8
11
3.94882
21
-2.79228
0
LINE
8
BLACK
6
CONTINUOUS
10
3.94882
20
-2.79228
11
3.94657
21
-2.78485
0
LINE
8
BLACK
6
CONTINUOUS
10
3.94657
20
-2.78485
11
3.94657
21
-2.78485
0
LINE
8
BLACK
6
CONTINUOUS
10
3.94657
20
-2.78485
11
3.94657
21
-2.78485
0
LINE
8
BLACK
6
CONTINUOUS
10
3.94657
20
-2.78485
11
3.94291
21
-2.77801
0
LINE
8
BLACK
6
CONTINUOUS
10
3.94291
20
-2.77801
11
3.94291
21
-2.77801
0
LINE
8
BLACK
6
CONTINUOUS
10
3.94291
20
-2.77801
11
3.93799
21
-2.77201
0
LINE
8
BLACK
6
CONTINUOUS
10
3.93799
20
-2.77201
11
3.93199
21
-2.76709
0
LINE
8
BLACK
6
CONTINUOUS
10
3.93199
20
-2.76709
11
3.93199
21
-2.76709
0
LINE
8
BLACK
6
CONTINUOUS
10
3.93199
20
-2.76709
11
3.92515
21
-2.76343
0
LINE
8
BLACK
6
CONTINUOUS
10
3.92515
20
-2.76343
11
3.92515
21
-2.76343
0
LINE
8
BLACK
6
CONTINUOUS
10
3.92515
20
-2.76343
11
3.9185
21
-2.76141
0
LINE
8
BLACK
6
CONTINUOUS
10
3.9185
20
-2.76141
11
3.91772
21
-2.76118
0
LINE
8
BLACK
6
CONTINUOUS
10
3.91772
20
-2.76118
11
3.91
21
-2.76042
0
LINE
8
BLACK
6
CONTINUOUS
10
3.91
20
-2.76042
11
3.90228
21
-2.76118
0
LINE
8
BLACK
6
CONTINUOUS
10
3.90228
20
-2.76118
11
3.89485
21
-2.76343
0
LINE
8
BLACK
6
CONTINUOUS
10
3.89485
20
-2.76343
11
3.88801
21
-2.76709
0
LINE
8
BLACK
6
CONTINUOUS
10
3.88801
20
-2.76709
11
3.88801
21
-2.76709
0
LINE
8
BLACK
6
CONTINUOUS
10
3.88801
20
-2.76709
11
3.88201
21
-2.77201
0
LINE
8
BLACK
6
CONTINUOUS
10
3.88201
20
-2.77201
11
3.87709
21
-2.77801
0
LINE
8
BLACK
6
CONTINUOUS
10
3.87709
20
-2.77801
11
3.87709
21
-2.77801
0
LINE
8
BLACK
6
CONTINUOUS
10
3.87709
20
-2.77801
11
3.87343
21
-2.78485
0
LINE
8
BLACK
6
CONTINUOUS
10
3.87343
20
-2.78485
11
3.87118
21
-2.79228
0
LINE
8
BLACK
6
CONTINUOUS
10
3.87118
20
-2.79228
11
3.87042
21
-2.8
0
LINE
8
BLACK
6
CONTINUOUS
10
3.87042
20
-2.8
11
3.87118
21
-2.80772
0
LINE
8
BLACK
6
CONTINUOUS
10
4.85118
20
-2.80772
11
4.85343
21
-2.81515
0
LINE
8
BLACK
6
CONTINUOUS
10
4.85343
20
-2.81515
11
4.85709
21
-2.82199
0
LINE
8
BLACK
6
CONTINUOUS
10
4.85709
20
-2.82199
11
4.85709
21
-2.82199
0
LINE
8
BLACK
6
CONTINUOUS
10
4.85709
20
-2.82199
11
4.86201
21
-2.82799
0
LINE
8
BLACK
6
CONTINUOUS
10
4.86201
20
-2.82799
11
4.86801
21
-2.83291
0
LINE
8
BLACK
6
CONTINUOUS
10
4.86801
20
-2.83291
11
4.86801
21
-2.83291
0
LINE
8
BLACK
6
CONTINUOUS
10
4.86801
20
-2.83291
11
4.87485
21
-2.83657
0
LINE
8
BLACK
6
CONTINUOUS
10
4.87485
20
-2.83657
11
4.87485
21
-2.83657
0
LINE
8
BLACK
6
CONTINUOUS
10
4.87485
20
-2.83657
11
4.87485
21
-2.83657
0
LINE
8
BLACK
6
CONTINUOUS
10
4.87485
20
-2.83657
11
4.88228
21
-2.83882
0
LINE
8
BLACK
6
CONTINUOUS
10
4.88228
20
-2.83882
11
4.89
21
-2.83958
0
LINE
8
BLACK
6
CONTINUOUS
10
4.89
20
-2.83958
11
4.89772
21
-2.83882
0
LINE
8
BLACK
6
CONTINUOUS
10
4.89772
20
-2.83882
11
4.90515
21
-2.83657
0
LINE
8
BLACK
6
CONTINUOUS
10
4.90515
20
-2.83657
11
4.90589
21
-2.83617
0
LINE
8
BLACK
6
CONTINUOUS
10
4.90589
20
-2.83617
11
4.91199
21
-2.83291
0
LINE
8
BLACK
6
CONTINUOUS
10
4.91199
20
-2.83291
11
4.91199
21
-2.83291
0
LINE
8
BLACK
6
CONTINUOUS
10
4.91199
20
-2.83291
11
4.91799
21
-2.82799
0
LINE
8
BLACK
6
CONTINUOUS
10
4.91799
20
-2.82799
11
4.92291
21
-2.82199
0
LINE
8
BLACK
6
CONTINUOUS
10
4.92291
20
-2.82199
11
4.92657
21
-2.81515
0
LINE
8
BLACK
6
CONTINUOUS
10
4.92657
20
-2.81515
11
4.92882
21
-2.80772
0
LINE
8
BLACK
6
CONTINUOUS
10
4.92882
20
-2.80772
11
4.92958
21
-2.8
0
LINE
8
BLACK
6
CONTINUOUS
10
4.92958
20
-2.8
11
4.92882
21
-2.79228
0
LINE
8
BLACK
6
CONTINUOUS
10
4.92882
20
-2.79228
11
4.92657
21
-2.78485
0
LINE
8
BLACK
6
CONTINUOUS
10
4.92657
20
-2.78485
11
4.92657
21
-2.78485
0
LINE
8
BLACK
6
CONTINUOUS
10
4.92657
20
-2.78485
11
4.92657
21
-2.78485
0
LINE
8
BLACK
6
CONTINUOUS
10
4.92657
20
-2.78485
11
4.92291
21
-2.77801
0
LINE
8
BLACK
6
CONTINUOUS
10
4.92291
20
-2.77801
11
4.92291
21
-2.77801
0
LINE
8
BLACK
6
CONTINUOUS
10
4.92291
20
-2.77801
11
4.91799
21
-2.77201
0
LINE
8
BLACK
6
CONTINUOUS
10
4.91799
20
-2.77201
11
4.91199
21
-2.76709
0
LINE
8
BLACK
6
CONTINUOUS
10
4.91199
20
-2.76709
11
4.91199
21
-2.76709
0
LINE
8
BLACK
6
CONTINUOUS
10
4.91199
20
-2.76709
11
4.90515
21
-2.76343
0
LINE
8
BLACK
6
CONTINUOUS
10
4.90515
20
-2.76343
11
4.90515
21
-2.76343
0
LINE
8
BLACK
6
CONTINUOUS
10
4.90515
20
-2.76343
11
4.8985
21
-2.76141
0
LINE
8
BLACK
6
CONTINUOUS
10
4.8985
20
-2.76141
11
4.89772
21
-2.76118
0
LINE
8
BLACK
6
CONTINUOUS
10
4.89772
20
-2.76118
11
4.89
21
-2.76042
0
LINE
8
BLACK
6
CONTINUOUS
10
4.89
20
-2.76042
11
4.88228
21
-2.76118
0
LINE
8
BLACK
6
CONTINUOUS
10
4.88228
20
-2.76118
11
4.87485
21
-2.76343
0
LINE
8
BLACK
6
CONTINUOUS
10
4.87485
20
-2.76343
11
4.86801
21
-2.76709
0
LINE
8
BLACK
6
CONTINUOUS
10
4.86801
20
-2.76709
11
4.86801
21
-2.76709
0
LINE
8
BLACK
6
CONTINUOUS
10
4.86801
20
-2.76709
11
4.86201
21
-2.77201
0
LINE
8
BLACK
6
CONTINUOUS
10
4.86201
20
-2.77201
11
4.85709
21
-2.77801
0
LINE
8
BLACK
6
CONTINUOUS
10
4.85709
20
-2.77801
11
4.85709
21
-2.77801
0
LINE
8
BLACK
6
CONTINUOUS
10
4.85709
20
-2.77801
11
4.85343
21
-2.78485
0
LINE
8
BLACK
6
CONTINUOUS
10
4.85343
20
-2.78485
11
4.85118
21
-2.79228
0
LINE
8
BLACK
6
CONTINUOUS
10
4.85118
20
-2.79228
11
4.85042
21
-2.8
0
LINE
8
BLACK
6
CONTINUOUS
10
4.85042
20
-2.8
11
4.85118
21
-2.80772
0
LINE
8
BLACK
6
CONTINUOUS
10
4.15177
20
-2.56126
11
4.15218
21
-2.5653
0
LINE
8
BLACK
6
CONTINUOUS
10
4.15218
20
-2.5653
11
4.15436
21
-2.57185
0
LINE
8
BLACK
6
CONTINUOUS
10
4.15436
20
-2.57185
11
4.15436
21
-2.57185
0
LINE
8
BLACK
6
CONTINUOUS
10
4.15436
20
-2.57185
11
4.15798
21
-2.57773
0
LINE
8
BLACK
6
CONTINUOUS
10
4.15798
20
-2.57773
11
4.15816
21
-2.57795
0
LINE
8
BLACK
6
CONTINUOUS
10
4.15816
20
-2.57795
11
4.15806
21
-2.57802
0
LINE
8
BLACK
6
CONTINUOUS
10
4.15806
20
-2.57802
11
4.15912
21
-2.57996
0
LINE
8
BLACK
6
CONTINUOUS
10
4.15912
20
-2.57996
11
4.15892
21
-2.58271
0
LINE
8
BLACK
6
CONTINUOUS
10
4.15892
20
-2.58271
11
4.1578
21
-2.58445
0
LINE
8
BLACK
6
CONTINUOUS
10
4.1578
20
-2.58445
11
4.15698
21
-2.58527
0
LINE
8
BLACK
6
CONTINUOUS
10
4.15698
20
-2.58527
11
4.15336
21
-2.59115
0
LINE
8
BLACK
6
CONTINUOUS
10
4.15336
20
-2.59115
11
4.15336
21
-2.59115
0
LINE
8
BLACK
6
CONTINUOUS
10
4.15336
20
-2.59115
11
4.15118
21
-2.5977
0
LINE
8
BLACK
6
CONTINUOUS
10
4.15118
20
-2.5977
11
4.15118
21
-2.5977
0
LINE
8
BLACK
6
CONTINUOUS
10
4.15118
20
-2.5977
11
4.15077
21
-2.60174
0
LINE
8
BLACK
6
CONTINUOUS
10
4.15077
20
-2.60174
11
4.15077
21
-2.60716
0
LINE
8
BLACK
6
CONTINUOUS
10
4.15077
20
-2.60716
11
4.17046
21
-2.60716
0
LINE
8
BLACK
6
CONTINUOUS
10
4.17046
20
-2.60716
11
4.17046
21
-2.60371
0
LINE
8
BLACK
6
CONTINUOUS
10
4.17046
20
-2.60371
11
4.17121
21
-2.59995
0
LINE
8
BLACK
6
CONTINUOUS
10
4.17121
20
-2.59995
11
4.17334
21
-2.59675
0
LINE
8
BLACK
6
CONTINUOUS
10
4.17334
20
-2.59675
11
4.17653
21
-2.59462
0
LINE
8
BLACK
6
CONTINUOUS
10
4.17653
20
-2.59462
11
4.1803
21
-2.59387
0
LINE
8
BLACK
6
CONTINUOUS
10
4.1803
20
-2.59387
11
4.18916
21
-2.59387
0
LINE
8
BLACK
6
CONTINUOUS
10
4.18916
20
-2.59387
11
4.18916
21
-2.57563
0
LINE
8
BLACK
6
CONTINUOUS
10
4.18916
20
-2.57563
11
4.18993
21
-2.57299
0
LINE
8
BLACK
6
CONTINUOUS
10
4.18993
20
-2.57299
11
4.19016
21
-2.57271
0
LINE
8
BLACK
6
CONTINUOUS
10
4.19016
20
-2.57271
11
4.19016
21
-2.56913
0
LINE
8
BLACK
6
CONTINUOUS
10
4.19016
20
-2.56913
11
4.1813
21
-2.56913
0
LINE
8
BLACK
6
CONTINUOUS
10
4.1813
20
-2.56913
11
4.17753
21
-2.56838
0
LINE
8
BLACK
6
CONTINUOUS
10
4.17753
20
-2.56838
11
4.17434
21
-2.56625
0
LINE
8
BLACK
6
CONTINUOUS
10
4.17434
20
-2.56625
11
4.17221
21
-2.56305
0
LINE
8
BLACK
6
CONTINUOUS
10
4.17221
20
-2.56305
11
4.17146
21
-2.55929
0
LINE
8
BLACK
6
CONTINUOUS
10
4.17146
20
-2.55929
11
4.17146
21
-2.55584
0
LINE
8
BLACK
6
CONTINUOUS
10
4.17146
20
-2.55584
11
4.15177
21
-2.55584
0
LINE
8
BLACK
6
CONTINUOUS
10
4.15177
20
-2.55584
11
4.15177
21
-2.56126
0
LINE
8
BLACK
6
CONTINUOUS
10
4.34866
20
-2.49378
11
4.34907
21
-2.49782
0
LINE
8
BLACK
6
CONTINUOUS
10
4.34907
20
-2.49782
11
4.35125
21
-2.50437
0
LINE
8
BLACK
6
CONTINUOUS
10
4.35125
20
-2.50437
11
4.35125
21
-2.50437
0
LINE
8
BLACK
6
CONTINUOUS
10
4.35125
20
-2.50437
11
4.35487
21
-2.51025
0
LINE
8
BLACK
6
CONTINUOUS
10
4.35487
20
-2.51025
11
4.35975
21
-2.51513
0
LINE
8
BLACK
6
CONTINUOUS
10
4.35975
20
-2.51513
11
4.36562
21
-2.51875
0
LINE
8
BLACK
6
CONTINUOUS
10
4.36562
20
-2.51875
11
4.36563
21
-2.51875
0
LINE
8
BLACK
6
CONTINUOUS
10
4.36563
20
-2.51875
11
4.37218
21
-2.52093
0
LINE
8
BLACK
6
CONTINUOUS
10
4.37218
20
-2.52093
11
4.37218
21
-2.52093
0
LINE
8
BLACK
6
CONTINUOUS
10
4.37218
20
-2.52093
11
4.37622
21
-2.52134
0
LINE
8
BLACK
6
CONTINUOUS
10
4.37622
20
-2.52134
11
4.38016
21
-2.52134
0
LINE
8
BLACK
6
CONTINUOUS
10
4.38016
20
-2.52134
11
4.38016
21
-2.50165
0
LINE
8
BLACK
6
CONTINUOUS
10
4.38016
20
-2.50165
11
4.37819
21
-2.50165
0
LINE
8
BLACK
6
CONTINUOUS
10
4.37819
20
-2.50165
11
4.37442
21
-2.5009
0
LINE
8
BLACK
6
CONTINUOUS
10
4.37442
20
-2.5009
11
4.37123
21
-2.49877
0
LINE
8
BLACK
6
CONTINUOUS
10
4.37123
20
-2.49877
11
4.3691
21
-2.49558
0
LINE
8
BLACK
6
CONTINUOUS
10
4.3691
20
-2.49558
11
4.36835
21
-2.49181
0
LINE
8
BLACK
6
CONTINUOUS
10
4.36835
20
-2.49181
11
4.36835
21
-2.48984
0
LINE
8
BLACK
6
CONTINUOUS
10
4.36835
20
-2.48984
11
4.34866
21
-2.48984
0
LINE
8
BLACK
6
CONTINUOUS
10
4.34866
20
-2.48984
11
4.34866
21
-2.49378
0
LINE
8
BLACK
6
CONTINUOUS
10
4.41165
20
-2.49181
11
4.4109
21
-2.49558
0
LINE
8
BLACK
6
CONTINUOUS
10
4.4109
20
-2.49558
11
4.40877
21
-2.49877
0
LINE
8
BLACK
6
CONTINUOUS
10
4.40877
20
-2.49877
11
4.40558
21
-2.5009
0
LINE
8
BLACK
6
CONTINUOUS
10
4.40558
20
-2.5009
11
4.40181
21
-2.50165
0
LINE
8
BLACK
6
CONTINUOUS
10
4.40181
20
-2.50165
11
4.39984
21
-2.50165
0
LINE
8
BLACK
6
CONTINUOUS
10
4.39984
20
-2.50165
11
4.39984
21
-2.52134
0
LINE
8
BLACK
6
CONTINUOUS
10
4.39984
20
-2.52134
11
4.40378
21
-2.52134
0
LINE
8
BLACK
6
CONTINUOUS
10
4.40378
20
-2.52134
11
4.40378
21
-2.52134
0
LINE
8
BLACK
6
CONTINUOUS
10
4.40378
20
-2.52134
11
4.40782
21
-2.52093
0
LINE
8
BLACK
6
CONTINUOUS
10
4.40782
20
-2.52093
11
4.41437
21
-2.51875
0
LINE
8
BLACK
6
CONTINUOUS
10
4.41437
20
-2.51875
11
4.41437
21
-2.51875
0
LINE
8
BLACK
6
CONTINUOUS
10
4.41437
20
-2.51875
11
4.42025
21
-2.51513
0
LINE
8
BLACK
6
CONTINUOUS
10
4.42025
20
-2.51513
11
4.42513
21
-2.51025
0
LINE
8
BLACK
6
CONTINUOUS
10
4.42513
20
-2.51025
11
4.42875
21
-2.50437
0
LINE
8
BLACK
6
CONTINUOUS
10
4.42875
20
-2.50437
11
4.42875
21
-2.50437
0
LINE
8
BLACK
6
CONTINUOUS
10
4.42875
20
-2.50437
11
4.43093
21
-2.49782
0
LINE
8
BLACK
6
CONTINUOUS
10
4.43093
20
-2.49782
11
4.43093
21
-2.49782
0
LINE
8
BLACK
6
CONTINUOUS
10
4.43093
20
-2.49782
11
4.43134
21
-2.49378
0
LINE
8
BLACK
6
CONTINUOUS
10
4.43134
20
-2.49378
11
4.43134
21
-2.49378
0
LINE
8
BLACK
6
CONTINUOUS
10
4.43134
20
-2.49378
11
4.43134
21
-2.48984
0
LINE
8
BLACK
6
CONTINUOUS
10
4.43134
20
-2.48984
11
4.41165
21
-2.48984
0
LINE
8
BLACK
6
CONTINUOUS
10
4.41165
20
-2.48984
11
4.41165
21
-2.49181
0
LINE
8
BLACK
6
CONTINUOUS
10
4.39984
20
-2.45835
11
4.40181
21
-2.45835
0
LINE
8
BLACK
6
CONTINUOUS
10
4.40181
20
-2.45835
11
4.40558
21
-2.4591
0
LINE
8
BLACK
6
CONTINUOUS
10
4.40558
20
-2.4591
11
4.40877
21
-2.46123
0
LINE
8
BLACK
6
CONTINUOUS
10
4.40877
20
-2.46123
11
4.4109
21
-2.46442
0
LINE
8
BLACK
6
CONTINUOUS
10
4.4109
20
-2.46442
11
4.41165
21
-2.46819
0
LINE
8
BLACK
6
CONTINUOUS
10
4.41165
20
-2.46819
11
4.41165
21
-2.47016
0
LINE
8
BLACK
6
CONTINUOUS
10
4.41165
20
-2.47016
11
4.43134
21
-2.47016
0
LINE
8
BLACK
6
CONTINUOUS
10
4.43134
20
-2.47016
11
4.43134
21
-2.46622
0
LINE
8
BLACK
6
CONTINUOUS
10
4.43134
20
-2.46622
11
4.43134
21
-2.46622
0
LINE
8
BLACK
6
CONTINUOUS
10
4.43134
20
-2.46622
11
4.43093
21
-2.46218
0
LINE
8
BLACK
6
CONTINUOUS
10
4.43093
20
-2.46218
11
4.42875
21
-2.45563
0
LINE
8
BLACK
6
CONTINUOUS
10
4.42875
20
-2.45563
11
4.42875
21
-2.45562
0
LINE
8
BLACK
6
CONTINUOUS
10
4.42875
20
-2.45562
11
4.42513
21
-2.44975
0
LINE
8
BLACK
6
CONTINUOUS
10
4.42513
20
-2.44975
11
4.42025
21
-2.44487
0
LINE
8
BLACK
6
CONTINUOUS
10
4.42025
20
-2.44487
11
4.41437
21
-2.44125
0
LINE
8
BLACK
6
CONTINUOUS
10
4.41437
20
-2.44125
11
4.41437
21
-2.44125
0
LINE
8
BLACK
6
CONTINUOUS
10
4.41437
20
-2.44125
11
4.40782
21
-2.43907
0
LINE
8
BLACK
6
CONTINUOUS
10
4.40782
20
-2.43907
11
4.40782
21
-2.43907
0
LINE
8
BLACK
6
CONTINUOUS
10
4.40782
20
-2.43907
11
4.40378
21
-2.43866
0
LINE
8
BLACK
6
CONTINUOUS
10
4.40378
20
-2.43866
11
4.39984
21
-2.43866
0
LINE
8
BLACK
6
CONTINUOUS
10
4.39984
20
-2.43866
11
4.39984
21
-2.45835
0
LINE
8
BLACK
6
CONTINUOUS
10
4.36835
20
-2.47016
11
4.36835
21
-2.46819
0
LINE
8
BLACK
6
CONTINUOUS
10
4.36835
20
-2.46819
11
4.3691
21
-2.46442
0
LINE
8
BLACK
6
CONTINUOUS
10
4.3691
20
-2.46442
11
4.37123
21
-2.46123
0
LINE
8
BLACK
6
CONTINUOUS
10
4.37123
20
-2.46123
11
4.37442
21
-2.4591
0
LINE
8
BLACK
6
CONTINUOUS
10
4.37442
20
-2.4591
11
4.37819
21
-2.45835
0
LINE
8
BLACK
6
CONTINUOUS
10
4.37819
20
-2.45835
11
4.38016
21
-2.45835
0
LINE
8
BLACK
6
CONTINUOUS
10
4.38016
20
-2.45835
11
4.38016
21
-2.43866
0
LINE
8
BLACK
6
CONTINUOUS
10
4.38016
20
-2.43866
11
4.38016
21
-2.43866
0
LINE
8
BLACK
6
CONTINUOUS
10
4.38016
20
-2.43866
11
4.37622
21
-2.43866
0
LINE
8
BLACK
6
CONTINUOUS
10
4.37622
20
-2.43866
11
4.37622
21
-2.43866
0
LINE
8
BLACK
6
CONTINUOUS
10
4.37622
20
-2.43866
11
4.37218
21
-2.43907
0
LINE
8
BLACK
6
CONTINUOUS
10
4.37218
20
-2.43907
11
4.36563
21
-2.44125
0
LINE
8
BLACK
6
CONTINUOUS
10
4.36563
20
-2.44125
11
4.36562
21
-2.44125
0
LINE
8
BLACK
6
CONTINUOUS
10
4.36562
20
-2.44125
11
4.35975
21
-2.44487
0
LINE
8
BLACK
6
CONTINUOUS
10
4.35975
20
-2.44487
11
4.35487
21
-2.44975
0
LINE
8
BLACK
6
CONTINUOUS
10
4.35487
20
-2.44975
11
4.35125
21
-2.45562
0
LINE
8
BLACK
6
CONTINUOUS
10
4.35125
20
-2.45562
11
4.35125
21
-2.45563
0
LINE
8
BLACK
6
CONTINUOUS
10
4.35125
20
-2.45563
11
4.34907
21
-2.46218
0
LINE
8
BLACK
6
CONTINUOUS
10
4.34907
20
-2.46218
11
4.34907
21
-2.46218
0
LINE
8
BLACK
6
CONTINUOUS
10
4.34907
20
-2.46218
11
4.34866
21
-2.46622
0
LINE
8
BLACK
6
CONTINUOUS
10
4.34866
20
-2.46622
11
4.34866
21
-2.47016
0
LINE
8
BLACK
6
CONTINUOUS
10
4.34866
20
-2.47016
11
4.36835
21
-2.47016
0
LINE
8
BLACK
6
CONTINUOUS
10
4.35571
20
-2.79409
11
4.32618
21
-2.79409
0
LINE
8
BLACK
6
CONTINUOUS
10
4.32618
20
-2.79409
11
4.32618
21
-2.79038
0
LINE
8
BLACK
6
CONTINUOUS
10
4.32618
20
-2.79038
11
4.28258
21
-2.79038
0
LINE
8
BLACK
6
CONTINUOUS
10
4.28258
20
-2.79038
11
4.27092
21
-2.80204
0
LINE
8
BLACK
6
CONTINUOUS
10
4.27092
20
-2.80204
11
4.27092
21
-2.83196
0
LINE
8
BLACK
6
CONTINUOUS
10
4.27092
20
-2.83196
11
4.40404
21
-2.96508
0
LINE
8
BLACK
6
CONTINUOUS
10
4.40404
20
-2.96508
11
4.59505
21
-2.96508
0
LINE
8
BLACK
6
CONTINUOUS
10
4.59505
20
-2.96508
11
4.59726
21
-2.96074
0
LINE
8
BLACK
6
CONTINUOUS
10
4.59726
20
-2.96074
11
4.60074
21
-2.95726
0
LINE
8
BLACK
6
CONTINUOUS
10
4.60074
20
-2.95726
11
4.60513
21
-2.95502
0
LINE
8
BLACK
6
CONTINUOUS
10
4.60513
20
-2.95502
11
4.61
21
-2.95425
0
LINE
8
BLACK
6
CONTINUOUS
10
4.61
20
-2.95425
11
4.61487
21
-2.95502
0
LINE
8
BLACK
6
CONTINUOUS
10
4.61487
20
-2.95502
11
4.61926
21
-2.95726
0
LINE
8
BLACK
6
CONTINUOUS
10
4.61926
20
-2.95726
11
4.62274
21
-2.96074
0
LINE
8
BLACK
6
CONTINUOUS
10
4.62274
20
-2.96074
11
4.62498
21
-2.96513
0
LINE
8
BLACK
6
CONTINUOUS
10
4.62498
20
-2.96513
11
4.62575
21
-2.97
0
LINE
8
BLACK
6
CONTINUOUS
10
4.62575
20
-2.97
11
4.62498
21
-2.97487
0
LINE
8
BLACK
6
CONTINUOUS
10
4.62498
20
-2.97487
11
4.62274
21
-2.97926
0
LINE
8
BLACK
6
CONTINUOUS
10
4.62274
20
-2.97926
11
4.61926
21
-2.98274
0
LINE
8
BLACK
6
CONTINUOUS
10
4.61926
20
-2.98274
11
4.61487
21
-2.98498
0
LINE
8
BLACK
6
CONTINUOUS
10
4.61487
20
-2.98498
11
4.61
21
-2.98575
0
LINE
8
BLACK
6
CONTINUOUS
10
4.61
20
-2.98575
11
4.60513
21
-2.98498
0
LINE
8
BLACK
6
CONTINUOUS
10
4.60513
20
-2.98498
11
4.60074
21
-2.98274
0
LINE
8
BLACK
6
CONTINUOUS
10
4.60074
20
-2.98274
11
4.59726
21
-2.97926
0
LINE
8
BLACK
6
CONTINUOUS
10
4.59726
20
-2.97926
11
4.59505
21
-2.97492
0
LINE
8
BLACK
6
CONTINUOUS
10
4.59505
20
-2.97492
11
4.402
21
-2.97492
0
LINE
8
BLACK
6
CONTINUOUS
10
4.402
20
-2.97492
11
4.40113
21
-2.9748
0
LINE
8
BLACK
6
CONTINUOUS
10
4.40113
20
-2.9748
11
4.40095
21
-2.97481
0
LINE
8
BLACK
6
CONTINUOUS
10
4.40095
20
-2.97481
11
4.40086
21
-2.97476
0
LINE
8
BLACK
6
CONTINUOUS
10
4.40086
20
-2.97476
11
4.40061
21
-2.97472
0
LINE
8
BLACK
6
CONTINUOUS
10
4.40061
20
-2.97472
11
4.39959
21
-2.97406
0
LINE
8
BLACK
6
CONTINUOUS
10
4.39959
20
-2.97406
11
4.39852
21
-2.97348
0
LINE
8
BLACK
6
CONTINUOUS
10
4.39852
20
-2.97348
11
4.26252
21
-2.83748
0
LINE
8
BLACK
6
CONTINUOUS
10
4.26252
20
-2.83748
11
4.26199
21
-2.83678
0
LINE
8
BLACK
6
CONTINUOUS
10
4.26199
20
-2.83678
11
4.26186
21
-2.83666
0
LINE
8
BLACK
6
CONTINUOUS
10
4.26186
20
-2.83666
11
4.26183
21
-2.83656
0
LINE
8
BLACK
6
CONTINUOUS
10
4.26183
20
-2.83656
11
4.26168
21
-2.83636
0
LINE
8
BLACK
6
CONTINUOUS
10
4.26168
20
-2.83636
11
4.26142
21
-2.83517
0
LINE
8
BLACK
6
CONTINUOUS
10
4.26142
20
-2.83517
11
4.26108
21
-2.834
0
LINE
8
BLACK
6
CONTINUOUS
10
4.26108
20
-2.834
11
4.26108
21
-2.8
0
LINE
8
BLACK
6
CONTINUOUS
10
4.26108
20
-2.8
11
4.2612
21
-2.79913
0
LINE
8
BLACK
6
CONTINUOUS
10
4.2612
20
-2.79913
11
4.26119
21
-2.79895
0
LINE
8
BLACK
6
CONTINUOUS
10
4.26119
20
-2.79895
11
4.26124
21
-2.79886
0
LINE
8
BLACK
6
CONTINUOUS
10
4.26124
20
-2.79886
11
4.26128
21
-2.79861
0
LINE
8
BLACK
6
CONTINUOUS
10
4.26128
20
-2.79861
11
4.26194
21
-2.79759
0
LINE
8
BLACK
6
CONTINUOUS
10
4.26194
20
-2.79759
11
4.26252
21
-2.79652
0
LINE
8
BLACK
6
CONTINUOUS
10
4.26252
20
-2.79652
11
4.27706
21
-2.78198
0
LINE
8
BLACK
6
CONTINUOUS
10
4.27706
20
-2.78198
11
4.27777
21
-2.78145
0
LINE
8
BLACK
6
CONTINUOUS
10
4.27777
20
-2.78145
11
4.27788
21
-2.78132
0
LINE
8
BLACK
6
CONTINUOUS
10
4.27788
20
-2.78132
11
4.27799
21
-2.78129
0
LINE
8
BLACK
6
CONTINUOUS
10
4.27799
20
-2.78129
11
4.27818
21
-2.78114
0
LINE
8
BLACK
6
CONTINUOUS
10
4.27818
20
-2.78114
11
4.27937
21
-2.78088
0
LINE
8
BLACK
6
CONTINUOUS
10
4.27937
20
-2.78088
11
4.28054
21
-2.78054
0
LINE
8
BLACK
6
CONTINUOUS
10
4.28054
20
-2.78054
11
4.32618
21
-2.78054
0
LINE
8
BLACK
6
CONTINUOUS
10
4.32618
20
-2.78054
11
4.32618
21
-2.78031
0
LINE
8
BLACK
6
CONTINUOUS
10
4.32618
20
-2.78031
11
4.35571
21
-2.78031
0
LINE
8
BLACK
6
CONTINUOUS
10
4.35571
20
-2.78031
11
4.35571
21
-2.79409
0
LINE
8
BLACK
6
CONTINUOUS
10
4.32539
20
-2.61626
11
4.33718
21
-2.61626
0
LINE
8
BLACK
6
CONTINUOUS
10
4.33718
20
-2.61626
11
4.33805
21
-2.61638
0
LINE
8
BLACK
6
CONTINUOUS
10
4.33805
20
-2.61638
11
4.33823
21
-2.61637
0
LINE
8
BLACK
6
CONTINUOUS
10
4.33823
20
-2.61637
11
4.33832
21
-2.61642
0
LINE
8
BLACK
6
CONTINUOUS
10
4.33832
20
-2.61642
11
4.33857
21
-2.61646
0
LINE
8
BLACK
6
CONTINUOUS
10
4.33857
20
-2.61646
11
4.33959
21
-2.61712
0
LINE
8
BLACK
6
CONTINUOUS
10
4.33959
20
-2.61712
11
4.34066
21
-2.6177
0
LINE
8
BLACK
6
CONTINUOUS
10
4.34066
20
-2.6177
11
4.3665
21
-2.64354
0
LINE
8
BLACK
6
CONTINUOUS
10
4.3665
20
-2.64354
11
4.62846
21
-2.64354
0
LINE
8
BLACK
6
CONTINUOUS
10
4.62846
20
-2.64354
11
4.62933
21
-2.64366
0
LINE
8
BLACK
6
CONTINUOUS
10
4.62933
20
-2.64366
11
4.6295
21
-2.64365
0
LINE
8
BLACK
6
CONTINUOUS
10
4.6295
20
-2.64365
11
4.6296
21
-2.6437
0
LINE
8
BLACK
6
CONTINUOUS
10
4.6296
20
-2.6437
11
4.62984
21
-2.64373
0
LINE
8
BLACK
6
CONTINUOUS
10
4.62984
20
-2.64373
11
4.63087
21
-2.64439
0
LINE
8
BLACK
6
CONTINUOUS
10
4.63087
20
-2.64439
11
4.63194
21
-2.64498
0
LINE
8
BLACK
6
CONTINUOUS
10
4.63194
20
-2.64498
11
4.65533
21
-2.66837
0
LINE
8
BLACK
6
CONTINUOUS
10
4.65533
20
-2.66837
11
4.65586
21
-2.66907
0
LINE
8
BLACK
6
CONTINUOUS
10
4.65586
20
-2.66907
11
4.65599
21
-2.66919
0
LINE
8
BLACK
6
CONTINUOUS
10
4.65599
20
-2.66919
11
4.65602
21
-2.66929
0
LINE
8
BLACK
6
CONTINUOUS
10
4.65602
20
-2.66929
11
4.65617
21
-2.66949
0
LINE
8
BLACK
6
CONTINUOUS
10
4.65617
20
-2.66949
11
4.65643
21
-2.67068
0
LINE
8
BLACK
6
CONTINUOUS
10
4.65643
20
-2.67068
11
4.65677
21
-2.67185
0
LINE
8
BLACK
6
CONTINUOUS
10
4.65677
20
-2.67185
11
4.65677
21
-2.6971
0
LINE
8
BLACK
6
CONTINUOUS
10
4.65677
20
-2.6971
11
4.65711
21
-2.69732
0
LINE
8
BLACK
6
CONTINUOUS
10
4.65711
20
-2.69732
11
4.65924
21
-2.70052
0
LINE
8
BLACK
6
CONTINUOUS
10
4.65924
20
-2.70052
11
4.65999
21
-2.70428
0
LINE
8
BLACK
6
CONTINUOUS
10
4.65999
20
-2.70428
11
4.65999
21
-2.73508
0
LINE
8
BLACK
6
CONTINUOUS
10
4.65999
20
-2.73508
11
4.691
21
-2.73508
0
LINE
8
BLACK
6
CONTINUOUS
10
4.691
20
-2.73508
11
4.69187
21
-2.7352
0
LINE
8
BLACK
6
CONTINUOUS
10
4.69187
20
-2.7352
11
4.69205
21
-2.73519
0
LINE
8
BLACK
6
CONTINUOUS
10
4.69205
20
-2.73519
11
4.69214
21
-2.73524
0
LINE
8
BLACK
6
CONTINUOUS
10
4.69214
20
-2.73524
11
4.69239
21
-2.73528
0
LINE
8
BLACK
6
CONTINUOUS
10
4.69239
20
-2.73528
11
4.69341
21
-2.73594
0
LINE
8
BLACK
6
CONTINUOUS
10
4.69341
20
-2.73594
11
4.69448
21
-2.73652
0
LINE
8
BLACK
6
CONTINUOUS
10
4.69448
20
-2.73652
11
4.70105
21
-2.74309
0
LINE
8
BLACK
6
CONTINUOUS
10
4.70105
20
-2.74309
11
4.70313
21
-2.74202
0
LINE
8
BLACK
6
CONTINUOUS
10
4.70313
20
-2.74202
11
4.708
21
-2.74125
0
LINE
8
BLACK
6
CONTINUOUS
10
4.708
20
-2.74125
11
4.71287
21
-2.74202
0
LINE
8
BLACK
6
CONTINUOUS
10
4.71287
20
-2.74202
11
4.71726
21
-2.74426
0
LINE
8
BLACK
6
CONTINUOUS
10
4.71726
20
-2.74426
11
4.72074
21
-2.74774
0
LINE
8
BLACK
6
CONTINUOUS
10
4.72074
20
-2.74774
11
4.72298
21
-2.75213
0
LINE
8
BLACK
6
CONTINUOUS
10
4.72298
20
-2.75213
11
4.72375
21
-2.757
0
LINE
8
BLACK
6
CONTINUOUS
10
4.72375
20
-2.757
11
4.72298
21
-2.76187
0
LINE
8
BLACK
6
CONTINUOUS
10
4.72298
20
-2.76187
11
4.72074
21
-2.76626
0
LINE
8
BLACK
6
CONTINUOUS
10
4.72074
20
-2.76626
11
4.71726
21
-2.76974
0
LINE
8
BLACK
6
CONTINUOUS
10
4.71726
20
-2.76974
11
4.71287
21
-2.77198
0
LINE
8
BLACK
6
CONTINUOUS
10
4.71287
20
-2.77198
11
4.708
21
-2.77275
0
LINE
8
BLACK
6
CONTINUOUS
10
4.708
20
-2.77275
11
4.70313
21
-2.77198
0
LINE
8
BLACK
6
CONTINUOUS
10
4.70313
20
-2.77198
11
4.69874
21
-2.76974
0
LINE
8
BLACK
6
CONTINUOUS
10
4.69874
20
-2.76974
11
4.69526
21
-2.76626
0
LINE
8
BLACK
6
CONTINUOUS
10
4.69526
20
-2.76626
11
4.69302
21
-2.76187
0
LINE
8
BLACK
6
CONTINUOUS
10
4.69302
20
-2.76187
11
4.69225
21
-2.757
0
LINE
8
BLACK
6
CONTINUOUS
10
4.69225
20
-2.757
11
4.69302
21
-2.75213
0
LINE
8
BLACK
6
CONTINUOUS
10
4.69302
20
-2.75213
11
4.69409
21
-2.75005
0
LINE
8
BLACK
6
CONTINUOUS
10
4.69409
20
-2.75005
11
4.68896
21
-2.74492
0
LINE
8
BLACK
6
CONTINUOUS
10
4.68896
20
-2.74492
11
4.65828
21
-2.74492
0
LINE
8
BLACK
6
CONTINUOUS
10
4.65828
20
-2.74492
11
4.65711
21
-2.74668
0
LINE
8
BLACK
6
CONTINUOUS
10
4.65711
20
-2.74668
11
4.65677
21
-2.7469
0
LINE
8
BLACK
6
CONTINUOUS
10
4.65677
20
-2.7469
11
4.65677
21
-2.7751
0
LINE
8
BLACK
6
CONTINUOUS
10
4.65677
20
-2.7751
11
4.65711
21
-2.77532
0
LINE
8
BLACK
6
CONTINUOUS
10
4.65711
20
-2.77532
11
4.65924
21
-2.77852
0
LINE
8
BLACK
6
CONTINUOUS
10
4.65924
20
-2.77852
11
4.65999
21
-2.78228
0
LINE
8
BLACK
6
CONTINUOUS
10
4.65999
20
-2.78228
11
4.65999
21
-2.81772
0
LINE
8
BLACK
6
CONTINUOUS
10
4.65999
20
-2.81772
11
4.65924
21
-2.82148
0
LINE
8
BLACK
6
CONTINUOUS
10
4.65924
20
-2.82148
11
4.65711
21
-2.82468
0
LINE
8
BLACK
6
CONTINUOUS
10
4.65711
20
-2.82468
11
4.65677
21
-2.8249
0
LINE
8
BLACK
6
CONTINUOUS
10
4.65677
20
-2.8249
11
4.65677
21
-2.85376
0
LINE
8
BLACK
6
CONTINUOUS
10
4.65677
20
-2.85376
11
4.65861
21
-2.85652
0
LINE
8
BLACK
6
CONTINUOUS
10
4.65861
20
-2.85652
11
4.65936
21
-2.86028
0
LINE
8
BLACK
6
CONTINUOUS
10
4.65936
20
-2.86028
11
4.65936
21
-2.89572
0
LINE
8
BLACK
6
CONTINUOUS
10
4.65936
20
-2.89572
11
4.65861
21
-2.89948
0
LINE
8
BLACK
6
CONTINUOUS
10
4.65861
20
-2.89948
11
4.65648
21
-2.90268
0
LINE
8
BLACK
6
CONTINUOUS
10
4.65648
20
-2.90268
11
4.65329
21
-2.90481
0
LINE
8
BLACK
6
CONTINUOUS
10
4.65329
20
-2.90481
11
4.64952
21
-2.90556
0
LINE
8
BLACK
6
CONTINUOUS
10
4.64952
20
-2.90556
11
4.62196
21
-2.90556
0
LINE
8
BLACK
6
CONTINUOUS
10
4.62196
20
-2.90556
11
4.61819
21
-2.90481
0
LINE
8
BLACK
6
CONTINUOUS
10
4.61819
20
-2.90481
11
4.61681
21
-2.90389
0
LINE
8
BLACK
6
CONTINUOUS
10
4.61681
20
-2.90389
11
4.57722
21
-2.94348
0
LINE
8
BLACK
6
CONTINUOUS
10
4.57722
20
-2.94348
11
4.57652
21
-2.94401
0
LINE
8
BLACK
6
CONTINUOUS
10
4.57652
20
-2.94401
11
4.5764
21
-2.94414
0
LINE
8
BLACK
6
CONTINUOUS
10
4.5764
20
-2.94414
11
4.5763
21
-2.94417
0
LINE
8
BLACK
6
CONTINUOUS
10
4.5763
20
-2.94417
11
4.5761
21
-2.94432
0
LINE
8
BLACK
6
CONTINUOUS
10
4.5761
20
-2.94432
11
4.57491
21
-2.94458
0
LINE
8
BLACK
6
CONTINUOUS
10
4.57491
20
-2.94458
11
4.57374
21
-2.94492
0
LINE
8
BLACK
6
CONTINUOUS
10
4.57374
20
-2.94492
11
4.399
21
-2.94492
0
LINE
8
BLACK
6
CONTINUOUS
10
4.399
20
-2.94492
11
4.39813
21
-2.9448
0
LINE
8
BLACK
6
CONTINUOUS
10
4.39813
20
-2.9448
11
4.39795
21
-2.94481
0
LINE
8
BLACK
6
CONTINUOUS
10
4.39795
20
-2.94481
11
4.39786
21
-2.94476
0
LINE
8
BLACK
6
CONTINUOUS
10
4.39786
20
-2.94476
11
4.39761
21
-2.94472
0
LINE
8
BLACK
6
CONTINUOUS
10
4.39761
20
-2.94472
11
4.39659
21
-2.94406
0
LINE
8
BLACK
6
CONTINUOUS
10
4.39659
20
-2.94406
11
4.39552
21
-2.94348
0
LINE
8
BLACK
6
CONTINUOUS
10
4.39552
20
-2.94348
11
4.33747
21
-2.88542
0
LINE
8
BLACK
6
CONTINUOUS
10
4.33747
20
-2.88542
11
4.33694
21
-2.88472
0
LINE
8
BLACK
6
CONTINUOUS
10
4.33694
20
-2.88472
11
4.3368
21
-2.88461
0
LINE
8
BLACK
6
CONTINUOUS
10
4.3368
20
-2.88461
11
4.33677
21
-2.8845
0
LINE
8
BLACK
6
CONTINUOUS
10
4.33677
20
-2.8845
11
4.33663
21
-2.8843
0
LINE
8
BLACK
6
CONTINUOUS
10
4.33663
20
-2.8843
11
4.33637
21
-2.88311
0
LINE
8
BLACK
6
CONTINUOUS
10
4.33637
20
-2.88311
11
4.33602
21
-2.88194
0
LINE
8
BLACK
6
CONTINUOUS
10
4.33602
20
-2.88194
11
4.33602
21
-2.84528
0
LINE
8
BLACK
6
CONTINUOUS
10
4.33602
20
-2.84528
11
4.32618
21
-2.84528
0
LINE
8
BLACK
6
CONTINUOUS
10
4.32618
20
-2.84528
11
4.32618
21
-2.8315
0
LINE
8
BLACK
6
CONTINUOUS
10
4.32618
20
-2.8315
11
4.35571
21
-2.8315
0
LINE
8
BLACK
6
CONTINUOUS
10
4.35571
20
-2.8315
11
4.35571
21
-2.84528
0
LINE
8
BLACK
6
CONTINUOUS
10
4.35571
20
-2.84528
11
4.34587
21
-2.84528
0
LINE
8
BLACK
6
CONTINUOUS
10
4.34587
20
-2.84528
11
4.34587
21
-2.87991
0
LINE
8
BLACK
6
CONTINUOUS
10
4.34587
20
-2.87991
11
4.40104
21
-2.93508
0
LINE
8
BLACK
6
CONTINUOUS
10
4.40104
20
-2.93508
11
4.5717
21
-2.93508
0
LINE
8
BLACK
6
CONTINUOUS
10
4.5717
20
-2.93508
11
4.61212
21
-2.89466
0
LINE
8
BLACK
6
CONTINUOUS
10
4.61212
20
-2.89466
11
4.61212
21
-2.86028
0
LINE
8
BLACK
6
CONTINUOUS
10
4.61212
20
-2.86028
11
4.61287
21
-2.85652
0
LINE
8
BLACK
6
CONTINUOUS
10
4.61287
20
-2.85652
11
4.615
21
-2.85332
0
LINE
8
BLACK
6
CONTINUOUS
10
4.615
20
-2.85332
11
4.61819
21
-2.85119
0
LINE
8
BLACK
6
CONTINUOUS
10
4.61819
20
-2.85119
11
4.62196
21
-2.85044
0
LINE
8
BLACK
6
CONTINUOUS
10
4.62196
20
-2.85044
11
4.64693
21
-2.85044
0
LINE
8
BLACK
6
CONTINUOUS
10
4.64693
20
-2.85044
11
4.64693
21
-2.82756
0
LINE
8
BLACK
6
CONTINUOUS
10
4.64693
20
-2.82756
11
4.62259
21
-2.82756
0
LINE
8
BLACK
6
CONTINUOUS
10
4.62259
20
-2.82756
11
4.61882
21
-2.82681
0
LINE
8
BLACK
6
CONTINUOUS
10
4.61882
20
-2.82681
11
4.61563
21
-2.82468
0
LINE
8
BLACK
6
CONTINUOUS
10
4.61563
20
-2.82468
11
4.6135
21
-2.82148
0
LINE
8
BLACK
6
CONTINUOUS
10
4.6135
20
-2.82148
11
4.61275
21
-2.81772
0
LINE
8
BLACK
6
CONTINUOUS
10
4.61275
20
-2.81772
11
4.61275
21
-2.78228
0
LINE
8
BLACK
6
CONTINUOUS
10
4.61275
20
-2.78228
11
4.6135
21
-2.77852
0
LINE
8
BLACK
6
CONTINUOUS
10
4.6135
20
-2.77852
11
4.61563
21
-2.77532
0
LINE
8
BLACK
6
CONTINUOUS
10
4.61563
20
-2.77532
11
4.61882
21
-2.77319
0
LINE
8
BLACK
6
CONTINUOUS
10
4.61882
20
-2.77319
11
4.62259
21
-2.77244
0
LINE
8
BLACK
6
CONTINUOUS
10
4.62259
20
-2.77244
11
4.64693
21
-2.77244
0
LINE
8
BLACK
6
CONTINUOUS
10
4.64693
20
-2.77244
11
4.64693
21
-2.74956
0
LINE
8
BLACK
6
CONTINUOUS
10
4.64693
20
-2.74956
11
4.62259
21
-2.74956
0
LINE
8
BLACK
6
CONTINUOUS
10
4.62259
20
-2.74956
11
4.61882
21
-2.74881
0
LINE
8
BLACK
6
CONTINUOUS
10
4.61882
20
-2.74881
11
4.61563
21
-2.74668
0
LINE
8
BLACK
6
CONTINUOUS
10
4.61563
20
-2.74668
11
4.6135
21
-2.74348
0
LINE
8
BLACK
6
CONTINUOUS
10
4.6135
20
-2.74348
11
4.61275
21
-2.73972
0
LINE
8
BLACK
6
CONTINUOUS
10
4.61275
20
-2.73972
11
4.61275
21
-2.70428
0
LINE
8
BLACK
6
CONTINUOUS
10
4.61275
20
-2.70428
11
4.6135
21
-2.70052
0
LINE
8
BLACK
6
CONTINUOUS
10
4.6135
20
-2.70052
11
4.61563
21
-2.69732
0
LINE
8
BLACK
6
CONTINUOUS
10
4.61563
20
-2.69732
11
4.61882
21
-2.69519
0
LINE
8
BLACK
6
CONTINUOUS
10
4.61882
20
-2.69519
11
4.62259
21
-2.69444
0
LINE
8
BLACK
6
CONTINUOUS
10
4.62259
20
-2.69444
11
4.64693
21
-2.69444
0
LINE
8
BLACK
6
CONTINUOUS
10
4.64693
20
-2.69444
11
4.64693
21
-2.67389
0
LINE
8
BLACK
6
CONTINUOUS
10
4.64693
20
-2.67389
11
4.62642
21
-2.65338
0
LINE
8
BLACK
6
CONTINUOUS
10
4.62642
20
-2.65338
11
4.36446
21
-2.65338
0
LINE
8
BLACK
6
CONTINUOUS
10
4.36446
20
-2.65338
11
4.36359
21
-2.65325
0
LINE
8
BLACK
6
CONTINUOUS
10
4.36359
20
-2.65325
11
4.36341
21
-2.65327
0
LINE
8
BLACK
6
CONTINUOUS
10
4.36341
20
-2.65327
11
4.36332
21
-2.65321
0
LINE
8
BLACK
6
CONTINUOUS
10
4.36332
20
-2.65321
11
4.36307
21
-2.65318
0
LINE
8
BLACK
6
CONTINUOUS
10
4.36307
20
-2.65318
11
4.36205
21
-2.65252
0
LINE
8
BLACK
6
CONTINUOUS
10
4.36205
20
-2.65252
11
4.36098
21
-2.65194
0
LINE
8
BLACK
6
CONTINUOUS
10
4.36098
20
-2.65194
11
4.33514
21
-2.6261
0
LINE
8
BLACK
6
CONTINUOUS
10
4.33514
20
-2.6261
11
4.32539
21
-2.6261
0
LINE
8
BLACK
6
CONTINUOUS
10
4.32539
20
-2.6261
11
4.32539
21
-2.62906
0
LINE
8
BLACK
6
CONTINUOUS
10
4.32539
20
-2.62906
11
4.31358
21
-2.62906
0
LINE
8
BLACK
6
CONTINUOUS
10
4.31358
20
-2.62906
11
4.31358
21
-2.66834
0
LINE
8
BLACK
6
CONTINUOUS
10
4.31358
20
-2.66834
11
4.31346
21
-2.66921
0
LINE
8
BLACK
6
CONTINUOUS
10
4.31346
20
-2.66921
11
4.31347
21
-2.66938
0
LINE
8
BLACK
6
CONTINUOUS
10
4.31347
20
-2.66938
11
4.31342
21
-2.66948
0
LINE
8
BLACK
6
CONTINUOUS
10
4.31342
20
-2.66948
11
4.31338
21
-2.66973
0
LINE
8
BLACK
6
CONTINUOUS
10
4.31338
20
-2.66973
11
4.31272
21
-2.67075
0
LINE
8
BLACK
6
CONTINUOUS
10
4.31272
20
-2.67075
11
4.31214
21
-2.67182
0
LINE
8
BLACK
6
CONTINUOUS
10
4.31214
20
-2.67182
11
4.28179
21
-2.70217
0
LINE
8
BLACK
6
CONTINUOUS
10
4.28179
20
-2.70217
11
4.28108
21
-2.7027
0
LINE
8
BLACK
6
CONTINUOUS
10
4.28108
20
-2.7027
11
4.28097
21
-2.70283
0
LINE
8
BLACK
6
CONTINUOUS
10
4.28097
20
-2.70283
11
4.28086
21
-2.70286
0
LINE
8
BLACK
6
CONTINUOUS
10
4.28086
20
-2.70286
11
4.28067
21
-2.70301
0
LINE
8
BLACK
6
CONTINUOUS
10
4.28067
20
-2.70301
11
4.27948
21
-2.70327
0
LINE
8
BLACK
6
CONTINUOUS
10
4.27948
20
-2.70327
11
4.27831
21
-2.70361
0
LINE
8
BLACK
6
CONTINUOUS
10
4.27831
20
-2.70361
11
4.22754
21
-2.70361
0
LINE
8
BLACK
6
CONTINUOUS
10
4.22754
20
-2.70361
11
4.22754
21
-2.71198
0
LINE
8
BLACK
6
CONTINUOUS
10
4.22754
20
-2.71198
11
4.22679
21
-2.71575
0
LINE
8
BLACK
6
CONTINUOUS
10
4.22679
20
-2.71575
11
4.22466
21
-2.71894
0
LINE
8
BLACK
6
CONTINUOUS
10
4.22466
20
-2.71894
11
4.22147
21
-2.72107
0
LINE
8
BLACK
6
CONTINUOUS
10
4.22147
20
-2.72107
11
4.2177
21
-2.72182
0
LINE
8
BLACK
6
CONTINUOUS
10
4.2177
20
-2.72182
11
4.20392
21
-2.72182
0
LINE
8
BLACK
6
CONTINUOUS
10
4.20392
20
-2.72182
11
4.20392
21
-2.87696
0
LINE
8
BLACK
6
CONTINUOUS
10
4.20392
20
-2.87696
11
4.22305
21
-2.89609
0
LINE
8
BLACK
6
CONTINUOUS
10
4.22305
20
-2.89609
11
4.22513
21
-2.89502
0
LINE
8
BLACK
6
CONTINUOUS
10
4.22513
20
-2.89502
11
4.23
21
-2.89425
0
LINE
8
BLACK
6
CONTINUOUS
10
4.23
20
-2.89425
11
4.23487
21
-2.89502
0
LINE
8
BLACK
6
CONTINUOUS
10
4.23487
20
-2.89502
11
4.23926
21
-2.89726
0
LINE
8
BLACK
6
CONTINUOUS
10
4.23926
20
-2.89726
11
4.24274
21
-2.90074
0
LINE
8
BLACK
6
CONTINUOUS
10
4.24274
20
-2.90074
11
4.24498
21
-2.90513
0
LINE
8
BLACK
6
CONTINUOUS
10
4.24498
20
-2.90513
11
4.24575
21
-2.91
0
LINE
8
BLACK
6
CONTINUOUS
10
4.24575
20
-2.91
11
4.24498
21
-2.91487
0
LINE
8
BLACK
6
CONTINUOUS
10
4.24498
20
-2.91487
11
4.24274
21
-2.91926
0
LINE
8
BLACK
6
CONTINUOUS
10
4.24274
20
-2.91926
11
4.23926
21
-2.92274
0
LINE
8
BLACK
6
CONTINUOUS
10
4.23926
20
-2.92274
11
4.23487
21
-2.92498
0
LINE
8
BLACK
6
CONTINUOUS
10
4.23487
20
-2.92498
11
4.23
21
-2.92575
0
LINE
8
BLACK
6
CONTINUOUS
10
4.23
20
-2.92575
11
4.22513
21
-2.92498
0
LINE
8
BLACK
6
CONTINUOUS
10
4.22513
20
-2.92498
11
4.22074
21
-2.92274
0
LINE
8
BLACK
6
CONTINUOUS
10
4.22074
20
-2.92274
11
4.21726
21
-2.91926
0
LINE
8
BLACK
6
CONTINUOUS
10
4.21726
20
-2.91926
11
4.21502
21
-2.91487
0
LINE
8
BLACK
6
CONTINUOUS
10
4.21502
20
-2.91487
11
4.21425
21
-2.91
0
LINE
8
BLACK
6
CONTINUOUS
10
4.21425
20
-2.91
11
4.21502
21
-2.90513
0
LINE
8
BLACK
6
CONTINUOUS
10
4.21502
20
-2.90513
11
4.21609
21
-2.90305
0
LINE
8
BLACK
6
CONTINUOUS
10
4.21609
20
-2.90305
11
4.19552
21
-2.88248
0
LINE
8
BLACK
6
CONTINUOUS
10
4.19552
20
-2.88248
11
4.19499
21
-2.88178
0
LINE
8
BLACK
6
CONTINUOUS
10
4.19499
20
-2.88178
11
4.19486
21
-2.88166
0
LINE
8
BLACK
6
CONTINUOUS
10
4.19486
20
-2.88166
11
4.19483
21
-2.88156
0
LINE
8
BLACK
6
CONTINUOUS
10
4.19483
20
-2.88156
11
4.19468
21
-2.88136
0
LINE
8
BLACK
6
CONTINUOUS
10
4.19468
20
-2.88136
11
4.19442
21
-2.88017
0
LINE
8
BLACK
6
CONTINUOUS
10
4.19442
20
-2.88017
11
4.19408
21
-2.879
0
LINE
8
BLACK
6
CONTINUOUS
10
4.19408
20
-2.879
11
4.19408
21
-2.72182
0
LINE
8
BLACK
6
CONTINUOUS
10
4.19408
20
-2.72182
11
4.1803
21
-2.72182
0
LINE
8
BLACK
6
CONTINUOUS
10
4.1803
20
-2.72182
11
4.17653
21
-2.72107
0
LINE
8
BLACK
6
CONTINUOUS
10
4.17653
20
-2.72107
11
4.17334
21
-2.71894
0
LINE
8
BLACK
6
CONTINUOUS
10
4.17334
20
-2.71894
11
4.17121
21
-2.71575
0
LINE
8
BLACK
6
CONTINUOUS
10
4.17121
20
-2.71575
11
4.17046
21
-2.71198
0
LINE
8
BLACK
6
CONTINUOUS
10
4.17046
20
-2.71198
11
4.17046
21
-2.68541
0
LINE
8
BLACK
6
CONTINUOUS
10
4.17046
20
-2.68541
11
4.17121
21
-2.68164
0
LINE
8
BLACK
6
CONTINUOUS
10
4.17121
20
-2.68164
11
4.17334
21
-2.67845
0
LINE
8
BLACK
6
CONTINUOUS
10
4.17334
20
-2.67845
11
4.17653
21
-2.67631
0
LINE
8
BLACK
6
CONTINUOUS
10
4.17653
20
-2.67631
11
4.1803
21
-2.67556
0
LINE
8
BLACK
6
CONTINUOUS
10
4.1803
20
-2.67556
11
4.2177
21
-2.67556
0
LINE
8
BLACK
6
CONTINUOUS
10
4.2177
20
-2.67556
11
4.22147
21
-2.67631
0
LINE
8
BLACK
6
CONTINUOUS
10
4.22147
20
-2.67631
11
4.22466
21
-2.67845
0
LINE
8
BLACK
6
CONTINUOUS
10
4.22466
20
-2.67845
11
4.22679
21
-2.68164
0
LINE
8
BLACK
6
CONTINUOUS
10
4.22679
20
-2.68164
11
4.22754
21
-2.68541
0
LINE
8
BLACK
6
CONTINUOUS
10
4.22754
20
-2.68541
11
4.22754
21
-2.69377
0
LINE
8
BLACK
6
CONTINUOUS
10
4.22754
20
-2.69377
11
4.27627
21
-2.69377
0
LINE
8
BLACK
6
CONTINUOUS
10
4.27627
20
-2.69377
11
4.30374
21
-2.6663
0
LINE
8
BLACK
6
CONTINUOUS
10
4.30374
20
-2.6663
11
4.30374
21
-2.62906
0
LINE
8
BLACK
6
CONTINUOUS
10
4.30374
20
-2.62906
11
4.29193
21
-2.62906
0
LINE
8
BLACK
6
CONTINUOUS
10
4.29193
20
-2.62906
11
4.29193
21
-2.61331
0
LINE
8
BLACK
6
CONTINUOUS
10
4.29193
20
-2.61331
11
4.32539
21
-2.61331
0
LINE
8
BLACK
6
CONTINUOUS
10
4.32539
20
-2.61331
11
4.32539
21
-2.61626
0
LINE
8
BLACK
6
CONTINUOUS
10
4.47382
20
-2.83346
11
4.51739
21
-2.83346
0
LINE
8
BLACK
6
CONTINUOUS
10
4.51739
20
-2.83346
11
4.51826
21
-2.83359
0
LINE
8
BLACK
6
CONTINUOUS
10
4.51826
20
-2.83359
11
4.51843
21
-2.83358
0
LINE
8
BLACK
6
CONTINUOUS
10
4.51843
20
-2.83358
11
4.51853
21
-2.83363
0
LINE
8
BLACK
6
CONTINUOUS
10
4.51853
20
-2.83363
11
4.51877
21
-2.83366
0
LINE
8
BLACK
6
CONTINUOUS
10
4.51877
20
-2.83366
11
4.5198
21
-2.83432
0
LINE
8
BLACK
6
CONTINUOUS
10
4.5198
20
-2.83432
11
4.52087
21
-2.83491
0
LINE
8
BLACK
6
CONTINUOUS
10
4.52087
20
-2.83491
11
4.53807
21
-2.85211
0
LINE
8
BLACK
6
CONTINUOUS
10
4.53807
20
-2.85211
11
4.53945
21
-2.85119
0
LINE
8
BLACK
6
CONTINUOUS
10
4.53945
20
-2.85119
11
4.54322
21
-2.85044
0
LINE
8
BLACK
6
CONTINUOUS
10
4.54322
20
-2.85044
11
4.57078
21
-2.85044
0
LINE
8
BLACK
6
CONTINUOUS
10
4.57078
20
-2.85044
11
4.57455
21
-2.85119
0
LINE
8
BLACK
6
CONTINUOUS
10
4.57455
20
-2.85119
11
4.57774
21
-2.85332
0
LINE
8
BLACK
6
CONTINUOUS
10
4.57774
20
-2.85332
11
4.57987
21
-2.85652
0
LINE
8
BLACK
6
CONTINUOUS
10
4.57987
20
-2.85652
11
4.58062
21
-2.86028
0
LINE
8
BLACK
6
CONTINUOUS
10
4.58062
20
-2.86028
11
4.58062
21
-2.89572
0
LINE
8
BLACK
6
CONTINUOUS
10
4.58062
20
-2.89572
11
4.57987
21
-2.89948
0
LINE
8
BLACK
6
CONTINUOUS
10
4.57987
20
-2.89948
11
4.57774
21
-2.90268
0
LINE
8
BLACK
6
CONTINUOUS
10
4.57774
20
-2.90268
11
4.57455
21
-2.90481
0
LINE
8
BLACK
6
CONTINUOUS
10
4.57455
20
-2.90481
11
4.57078
21
-2.90556
0
LINE
8
BLACK
6
CONTINUOUS
10
4.57078
20
-2.90556
11
4.54322
21
-2.90556
0
LINE
8
BLACK
6
CONTINUOUS
10
4.54322
20
-2.90556
11
4.53945
21
-2.90481
0
LINE
8
BLACK
6
CONTINUOUS
10
4.53945
20
-2.90481
11
4.53626
21
-2.90268
0
LINE
8
BLACK
6
CONTINUOUS
10
4.53626
20
-2.90268
11
4.53413
21
-2.89948
0
LINE
8
BLACK
6
CONTINUOUS
10
4.53413
20
-2.89948
11
4.53338
21
-2.89572
0
LINE
8
BLACK
6
CONTINUOUS
10
4.53338
20
-2.89572
11
4.53338
21
-2.86134
0
LINE
8
BLACK
6
CONTINUOUS
10
4.53338
20
-2.86134
11
4.51535
21
-2.84331
0
LINE
8
BLACK
6
CONTINUOUS
10
4.51535
20
-2.84331
11
4.47382
21
-2.84331
0
LINE
8
BLACK
6
CONTINUOUS
10
4.47382
20
-2.84331
11
4.47382
21
-2.84528
0
LINE
8
BLACK
6
CONTINUOUS
10
4.47382
20
-2.84528
11
4.46398
21
-2.84528
0
LINE
8
BLACK
6
CONTINUOUS
10
4.46398
20
-2.84528
11
4.46398
21
-2.87555
0
LINE
8
BLACK
6
CONTINUOUS
10
4.46398
20
-2.87555
11
4.46385
21
-2.87642
0
LINE
8
BLACK
6
CONTINUOUS
10
4.46385
20
-2.87642
11
4.46386
21
-2.8766
0
LINE
8
BLACK
6
CONTINUOUS
10
4.46386
20
-2.8766
11
4.46381
21
-2.87669
0
LINE
8
BLACK
6
CONTINUOUS
10
4.46381
20
-2.87669
11
4.46378
21
-2.87694
0
LINE
8
BLACK
6
CONTINUOUS
10
4.46378
20
-2.87694
11
4.46312
21
-2.87796
0
LINE
8
BLACK
6
CONTINUOUS
10
4.46312
20
-2.87796
11
4.46253
21
-2.87903
0
LINE
8
BLACK
6
CONTINUOUS
10
4.46253
20
-2.87903
11
4.43852
21
-2.90305
0
LINE
8
BLACK
6
CONTINUOUS
10
4.43852
20
-2.90305
11
4.43958
21
-2.90513
0
LINE
8
BLACK
6
CONTINUOUS
10
4.43958
20
-2.90513
11
4.44035
21
-2.91
0
LINE
8
BLACK
6
CONTINUOUS
10
4.44035
20
-2.91
11
4.43958
21
-2.91487
0
LINE
8
BLACK
6
CONTINUOUS
10
4.43958
20
-2.91487
11
4.43735
21
-2.91926
0
LINE
8
BLACK
6
CONTINUOUS
10
4.43735
20
-2.91926
11
4.43386
21
-2.92274
0
LINE
8
BLACK
6
CONTINUOUS
10
4.43386
20
-2.92274
11
4.42947
21
-2.92498
0
LINE
8
BLACK
6
CONTINUOUS
10
4.42947
20
-2.92498
11
4.42461
21
-2.92575
0
LINE
8
BLACK
6
CONTINUOUS
10
4.42461
20
-2.92575
11
4.41974
21
-2.92498
0
LINE
8
BLACK
6
CONTINUOUS
10
4.41974
20
-2.92498
11
4.41535
21
-2.92274
0
LINE
8
BLACK
6
CONTINUOUS
10
4.41535
20
-2.92274
11
4.41187
21
-2.91926
0
LINE
8
BLACK
6
CONTINUOUS
10
4.41187
20
-2.91926
11
4.40963
21
-2.91487
0
LINE
8
BLACK
6
CONTINUOUS
10
4.40963
20
-2.91487
11
4.40886
21
-2.91
0
LINE
8
BLACK
6
CONTINUOUS
10
4.40886
20
-2.91
11
4.40963
21
-2.90513
0
LINE
8
BLACK
6
CONTINUOUS
10
4.40963
20
-2.90513
11
4.41187
21
-2.90074
0
LINE
8
BLACK
6
CONTINUOUS
10
4.41187
20
-2.90074
11
4.41535
21
-2.89726
0
LINE
8
BLACK
6
CONTINUOUS
10
4.41535
20
-2.89726
11
4.41974
21
-2.89502
0
LINE
8
BLACK
6
CONTINUOUS
10
4.41974
20
-2.89502
11
4.42461
21
-2.89425
0
LINE
8
BLACK
6
CONTINUOUS
10
4.42461
20
-2.89425
11
4.42947
21
-2.89502
0
LINE
8
BLACK
6
CONTINUOUS
10
4.42947
20
-2.89502
11
4.43156
21
-2.89609
0
LINE
8
BLACK
6
CONTINUOUS
10
4.43156
20
-2.89609
11
4.45413
21
-2.87351
0
LINE
8
BLACK
6
CONTINUOUS
10
4.45413
20
-2.87351
11
4.45413
21
-2.84528
0
LINE
8
BLACK
6
CONTINUOUS
10
4.45413
20
-2.84528
11
4.44429
21
-2.84528
0
LINE
8
BLACK
6
CONTINUOUS
10
4.44429
20
-2.84528
11
4.44429
21
-2.8315
0
LINE
8
BLACK
6
CONTINUOUS
10
4.44429
20
-2.8315
11
4.47382
21
-2.8315
0
LINE
8
BLACK
6
CONTINUOUS
10
4.47382
20
-2.8315
11
4.47382
21
-2.83346
0
LINE
8
BLACK
6
CONTINUOUS
10
4.46987
20
-2.69902
11
4.47426
21
-2.70126
0
LINE
8
BLACK
6
CONTINUOUS
10
4.47426
20
-2.70126
11
4.47774
21
-2.70474
0
LINE
8
BLACK
6
CONTINUOUS
10
4.47774
20
-2.70474
11
4.47998
21
-2.70913
0
LINE
8
BLACK
6
CONTINUOUS
10
4.47998
20
-2.70913
11
4.48075
21
-2.714
0
LINE
8
BLACK
6
CONTINUOUS
10
4.48075
20
-2.714
11
4.47998
21
-2.71887
0
LINE
8
BLACK
6
CONTINUOUS
10
4.47998
20
-2.71887
11
4.47974
21
-2.71934
0
LINE
8
BLACK
6
CONTINUOUS
10
4.47974
20
-2.71934
11
4.48215
21
-2.72202
0
LINE
8
BLACK
6
CONTINUOUS
10
4.48215
20
-2.72202
11
4.48818
21
-2.7264
0
LINE
8
BLACK
6
CONTINUOUS
10
4.48818
20
-2.7264
11
4.48818
21
-2.7264
0
LINE
8
BLACK
6
CONTINUOUS
10
4.48818
20
-2.7264
11
4.49498
21
-2.72943
0
LINE
8
BLACK
6
CONTINUOUS
10
4.49498
20
-2.72943
11
4.49498
21
-2.72943
0
LINE
8
BLACK
6
CONTINUOUS
10
4.49498
20
-2.72943
11
4.50227
21
-2.73098
0
LINE
8
BLACK
6
CONTINUOUS
10
4.50227
20
-2.73098
11
4.50227
21
-2.73098
0
LINE
8
BLACK
6
CONTINUOUS
10
4.50227
20
-2.73098
11
4.50253
21
-2.731
0
LINE
8
BLACK
6
CONTINUOUS
10
4.50253
20
-2.731
11
4.50252
21
-2.73112
0
LINE
8
BLACK
6
CONTINUOUS
10
4.50252
20
-2.73112
11
4.50468
21
-2.73175
0
LINE
8
BLACK
6
CONTINUOUS
10
4.50468
20
-2.73175
11
4.50648
21
-2.73383
0
LINE
8
BLACK
6
CONTINUOUS
10
4.50648
20
-2.73383
11
4.50687
21
-2.73655
0
LINE
8
BLACK
6
CONTINUOUS
10
4.50687
20
-2.73655
11
4.50573
21
-2.73906
0
LINE
8
BLACK
6
CONTINUOUS
10
4.50573
20
-2.73906
11
4.50549
21
-2.73931
0
LINE
8
BLACK
6
CONTINUOUS
10
4.50549
20
-2.73931
11
4.50369
21
-2.74111
0
LINE
8
BLACK
6
CONTINUOUS
10
4.50369
20
-2.74111
11
4.49883
21
-2.74598
0
LINE
8
BLACK
6
CONTINUOUS
10
4.49883
20
-2.74598
11
4.49641
21
-2.7473
0
LINE
8
BLACK
6
CONTINUOUS
10
4.49641
20
-2.7473
11
4.49367
21
-2.7471
0
LINE
8
BLACK
6
CONTINUOUS
10
4.49367
20
-2.7471
11
4.49147
21
-2.74545
0
LINE
8
BLACK
6
CONTINUOUS
10
4.49147
20
-2.74545
11
4.48788
21
-2.74066
0
LINE
8
BLACK
6
CONTINUOUS
10
4.48788
20
-2.74066
11
4.48335
21
-2.73727
0
LINE
8
BLACK
6
CONTINUOUS
10
4.48335
20
-2.73727
11
4.48335
21
-2.73727
0
LINE
8
BLACK
6
CONTINUOUS
10
4.48335
20
-2.73727
11
4.47805
21
-2.73529
0
LINE
8
BLACK
6
CONTINUOUS
10
4.47805
20
-2.73529
11
4.47805
21
-2.73529
0
LINE
8
BLACK
6
CONTINUOUS
10
4.47805
20
-2.73529
11
4.4757
21
-2.73504
0
LINE
8
BLACK
6
CONTINUOUS
10
4.4757
20
-2.73504
11
4.46594
21
-2.73504
0
LINE
8
BLACK
6
CONTINUOUS
10
4.46594
20
-2.73504
11
4.46594
21
-2.75472
0
LINE
8
BLACK
6
CONTINUOUS
10
4.46594
20
-2.75472
11
4.47382
21
-2.75472
0
LINE
8
BLACK
6
CONTINUOUS
10
4.47382
20
-2.75472
11
4.47382
21
-2.7685
0
LINE
8
BLACK
6
CONTINUOUS
10
4.47382
20
-2.7685
11
4.44429
21
-2.7685
0
LINE
8
BLACK
6
CONTINUOUS
10
4.44429
20
-2.7685
11
4.44429
21
-2.76654
0
LINE
8
BLACK
6
CONTINUOUS
10
4.44429
20
-2.76654
11
4.44042
21
-2.76654
0
LINE
8
BLACK
6
CONTINUOUS
10
4.44042
20
-2.76654
11
4.4315
21
-2.77546
0
LINE
8
BLACK
6
CONTINUOUS
10
4.4315
20
-2.77546
11
4.4315
21
-2.84724
0
LINE
8
BLACK
6
CONTINUOUS
10
4.4315
20
-2.84724
11
4.40984
21
-2.84724
0
LINE
8
BLACK
6
CONTINUOUS
10
4.40984
20
-2.84724
11
4.40984
21
-2.85885
0
LINE
8
BLACK
6
CONTINUOUS
10
4.40984
20
-2.85885
11
4.41174
21
-2.86074
0
LINE
8
BLACK
6
CONTINUOUS
10
4.41174
20
-2.86074
11
4.41398
21
-2.86513
0
LINE
8
BLACK
6
CONTINUOUS
10
4.41398
20
-2.86513
11
4.4145
21
-2.86845
0
LINE
8
BLACK
6
CONTINUOUS
10
4.4145
20
-2.86845
11
4.41565
21
-2.86978
0
LINE
8
BLACK
6
CONTINUOUS
10
4.41565
20
-2.86978
11
4.41605
21
-2.87251
0
LINE
8
BLACK
6
CONTINUOUS
10
4.41605
20
-2.87251
11
4.4149
21
-2.87501
0
LINE
8
BLACK
6
CONTINUOUS
10
4.4149
20
-2.87501
11
4.4133
21
-2.8762
0
LINE
8
BLACK
6
CONTINUOUS
10
4.4133
20
-2.8762
11
4.41174
21
-2.87926
0
LINE
8
BLACK
6
CONTINUOUS
10
4.41174
20
-2.87926
11
4.40826
21
-2.88274
0
LINE
8
BLACK
6
CONTINUOUS
10
4.40826
20
-2.88274
11
4.40387
21
-2.88498
0
LINE
8
BLACK
6
CONTINUOUS
10
4.40387
20
-2.88498
11
4.399
21
-2.88575
0
LINE
8
BLACK
6
CONTINUOUS
10
4.399
20
-2.88575
11
4.39877
21
-2.88571
0
LINE
8
BLACK
6
CONTINUOUS
10
4.39877
20
-2.88571
11
4.39577
21
-2.88905
0
LINE
8
BLACK
6
CONTINUOUS
10
4.39577
20
-2.88905
11
4.39423
21
-2.89171
0
LINE
8
BLACK
6
CONTINUOUS
10
4.39423
20
-2.89171
11
4.39224
21
-2.89361
0
LINE
8
BLACK
6
CONTINUOUS
10
4.39224
20
-2.89361
11
4.38954
21
-2.89413
0
LINE
8
BLACK
6
CONTINUOUS
10
4.38954
20
-2.89413
11
4.38698
21
-2.89311
0
LINE
8
BLACK
6
CONTINUOUS
10
4.38698
20
-2.89311
11
4.38655
21
-2.89272
0
LINE
8
BLACK
6
CONTINUOUS
10
4.38655
20
-2.89272
11
4.36909
21
-2.87526
0
LINE
8
BLACK
6
CONTINUOUS
10
4.36909
20
-2.87526
11
4.36777
21
-2.87285
0
LINE
8
BLACK
6
CONTINUOUS
10
4.36777
20
-2.87285
11
4.36797
21
-2.8701
0
LINE
8
BLACK
6
CONTINUOUS
10
4.36797
20
-2.8701
11
4.36962
21
-2.8679
0
LINE
8
BLACK
6
CONTINUOUS
10
4.36962
20
-2.8679
11
4.37219
21
-2.86694
0
LINE
8
BLACK
6
CONTINUOUS
10
4.37219
20
-2.86694
11
4.37254
21
-2.86693
0
LINE
8
BLACK
6
CONTINUOUS
10
4.37254
20
-2.86693
11
4.38374
21
-2.86693
0
LINE
8
BLACK
6
CONTINUOUS
10
4.38374
20
-2.86693
11
4.38402
21
-2.86513
0
LINE
8
BLACK
6
CONTINUOUS
10
4.38402
20
-2.86513
11
4.38626
21
-2.86074
0
LINE
8
BLACK
6
CONTINUOUS
10
4.38626
20
-2.86074
11
4.38974
21
-2.85726
0
LINE
8
BLACK
6
CONTINUOUS
10
4.38974
20
-2.85726
11
4.39016
21
-2.85705
0
LINE
8
BLACK
6
CONTINUOUS
10
4.39016
20
-2.85705
11
4.39016
21
-2.84724
0
LINE
8
BLACK
6
CONTINUOUS
10
4.39016
20
-2.84724
11
4.3685
21
-2.84724
0
LINE
8
BLACK
6
CONTINUOUS
10
4.3685
20
-2.84724
11
4.3685
21
-2.75276
0
LINE
8
BLACK
6
CONTINUOUS
10
4.3685
20
-2.75276
11
4.38029
21
-2.75276
0
LINE
8
BLACK
6
CONTINUOUS
10
4.38029
20
-2.75276
11
4.38102
21
-2.74813
0
LINE
8
BLACK
6
CONTINUOUS
10
4.38102
20
-2.74813
11
4.38326
21
-2.74374
0
LINE
8
BLACK
6
CONTINUOUS
10
4.38326
20
-2.74374
11
4.38674
21
-2.74026
0
LINE
8
BLACK
6
CONTINUOUS
10
4.38674
20
-2.74026
11
4.39113
21
-2.73802
0
LINE
8
BLACK
6
CONTINUOUS
10
4.39113
20
-2.73802
11
4.396
21
-2.73725
0
LINE
8
BLACK
6
CONTINUOUS
10
4.396
20
-2.73725
11
4.40087
21
-2.73802
0
LINE
8
BLACK
6
CONTINUOUS
10
4.40087
20
-2.73802
11
4.40526
21
-2.74026
0
LINE
8
BLACK
6
CONTINUOUS
10
4.40526
20
-2.74026
11
4.40874
21
-2.74374
0
LINE
8
BLACK
6
CONTINUOUS
10
4.40874
20
-2.74374
11
4.41098
21
-2.74813
0
LINE
8
BLACK
6
CONTINUOUS
10
4.41098
20
-2.74813
11
4.41171
21
-2.75276
0
LINE
8
BLACK
6
CONTINUOUS
10
4.41171
20
-2.75276
11
4.4315
21
-2.75276
0
LINE
8
BLACK
6
CONTINUOUS
10
4.4315
20
-2.75276
11
4.4315
21
-2.76154
0
LINE
8
BLACK
6
CONTINUOUS
10
4.4315
20
-2.76154
11
4.43491
21
-2.75813
0
LINE
8
BLACK
6
CONTINUOUS
10
4.43491
20
-2.75813
11
4.43561
21
-2.75761
0
LINE
8
BLACK
6
CONTINUOUS
10
4.43561
20
-2.75761
11
4.43573
21
-2.75747
0
LINE
8
BLACK
6
CONTINUOUS
10
4.43573
20
-2.75747
11
4.43583
21
-2.75744
0
LINE
8
BLACK
6
CONTINUOUS
10
4.43583
20
-2.75744
11
4.43603
21
-2.75729
0
LINE
8
BLACK
6
CONTINUOUS
10
4.43603
20
-2.75729
11
4.43722
21
-2.75704
0
LINE
8
BLACK
6
CONTINUOUS
10
4.43722
20
-2.75704
11
4.43839
21
-2.75669
0
LINE
8
BLACK
6
CONTINUOUS
10
4.43839
20
-2.75669
11
4.44429
21
-2.75669
0
LINE
8
BLACK
6
CONTINUOUS
10
4.44429
20
-2.75669
11
4.44429
21
-2.75472
0
LINE
8
BLACK
6
CONTINUOUS
10
4.44429
20
-2.75472
11
4.45217
21
-2.75472
0
LINE
8
BLACK
6
CONTINUOUS
10
4.45217
20
-2.75472
11
4.45217
21
-2.73504
0
LINE
8
BLACK
6
CONTINUOUS
10
4.45217
20
-2.73504
11
4.44241
21
-2.73504
0
LINE
8
BLACK
6
CONTINUOUS
10
4.44241
20
-2.73504
11
4.44241
21
-2.73504
0
LINE
8
BLACK
6
CONTINUOUS
10
4.44241
20
-2.73504
11
4.44194
21
-2.73509
0
LINE
8
BLACK
6
CONTINUOUS
10
4.44194
20
-2.73509
11
4.43971
21
-2.73481
0
LINE
8
BLACK
6
CONTINUOUS
10
4.43971
20
-2.73481
11
4.43572
21
-2.73332
0
LINE
8
BLACK
6
CONTINUOUS
10
4.43572
20
-2.73332
11
4.43572
21
-2.73332
0
LINE
8
BLACK
6
CONTINUOUS
10
4.43572
20
-2.73332
11
4.43338
21
-2.73307
0
LINE
8
BLACK
6
CONTINUOUS
10
4.43338
20
-2.73307
11
4.4161
21
-2.73307
0
LINE
8
BLACK
6
CONTINUOUS
10
4.4161
20
-2.73307
11
4.41346
21
-2.7323
0
LINE
8
BLACK
6
CONTINUOUS
10
4.41346
20
-2.7323
11
4.41166
21
-2.73022
0
LINE
8
BLACK
6
CONTINUOUS
10
4.41166
20
-2.73022
11
4.41127
21
-2.72749
0
LINE
8
BLACK
6
CONTINUOUS
10
4.41127
20
-2.72749
11
4.41241
21
-2.72499
0
LINE
8
BLACK
6
CONTINUOUS
10
4.41241
20
-2.72499
11
4.41265
21
-2.72474
0
LINE
8
BLACK
6
CONTINUOUS
10
4.41265
20
-2.72474
11
4.42633
21
-2.71106
0
LINE
8
BLACK
6
CONTINUOUS
10
4.42633
20
-2.71106
11
4.42874
21
-2.70974
0
LINE
8
BLACK
6
CONTINUOUS
10
4.42874
20
-2.70974
11
4.42978
21
-2.70963
0
LINE
8
BLACK
6
CONTINUOUS
10
4.42978
20
-2.70963
11
4.44994
21
-2.70963
0
LINE
8
BLACK
6
CONTINUOUS
10
4.44994
20
-2.70963
11
4.45002
21
-2.70913
0
LINE
8
BLACK
6
CONTINUOUS
10
4.45002
20
-2.70913
11
4.45226
21
-2.70474
0
LINE
8
BLACK
6
CONTINUOUS
10
4.45226
20
-2.70474
11
4.45574
21
-2.70126
0
LINE
8
BLACK
6
CONTINUOUS
10
4.45574
20
-2.70126
11
4.46013
21
-2.69902
0
LINE
8
BLACK
6
CONTINUOUS
10
4.46013
20
-2.69902
11
4.465
21
-2.69825
0
LINE
8
BLACK
6
CONTINUOUS
10
4.465
20
-2.69825
11
4.46987
21
-2.69902
0
LINE
8
BLACK
6
CONTINUOUS
10
4.30287
20
-2.79902
11
4.30726
21
-2.80126
0
LINE
8
BLACK
6
CONTINUOUS
10
4.30726
20
-2.80126
11
4.31074
21
-2.80474
0
LINE
8
BLACK
6
CONTINUOUS
10
4.31074
20
-2.80474
11
4.31234
21
-2.80787
0
LINE
8
BLACK
6
CONTINUOUS
10
4.31234
20
-2.80787
11
4.32618
21
-2.80787
0
LINE
8
BLACK
6
CONTINUOUS
10
4.32618
20
-2.80787
11
4.32618
21
-2.80591
0
LINE
8
BLACK
6
CONTINUOUS
10
4.32618
20
-2.80591
11
4.35571
21
-2.80591
0
LINE
8
BLACK
6
CONTINUOUS
10
4.35571
20
-2.80591
11
4.35571
21
-2.81969
0
LINE
8
BLACK
6
CONTINUOUS
10
4.35571
20
-2.81969
11
4.32618
21
-2.81969
0
LINE
8
BLACK
6
CONTINUOUS
10
4.32618
20
-2.81969
11
4.32618
21
-2.81772
0
LINE
8
BLACK
6
CONTINUOUS
10
4.32618
20
-2.81772
11
4.31316
21
-2.81772
0
LINE
8
BLACK
6
CONTINUOUS
10
4.31316
20
-2.81772
11
4.31298
21
-2.81887
0
LINE
8
BLACK
6
CONTINUOUS
10
4.31298
20
-2.81887
11
4.31074
21
-2.82326
0
LINE
8
BLACK
6
CONTINUOUS
10
4.31074
20
-2.82326
11
4.30726
21
-2.82674
0
LINE
8
BLACK
6
CONTINUOUS
10
4.30726
20
-2.82674
11
4.30287
21
-2.82898
0
LINE
8
BLACK
6
CONTINUOUS
10
4.30287
20
-2.82898
11
4.298
21
-2.82975
0
LINE
8
BLACK
6
CONTINUOUS
10
4.298
20
-2.82975
11
4.29313
21
-2.82898
0
LINE
8
BLACK
6
CONTINUOUS
10
4.29313
20
-2.82898
11
4.28874
21
-2.82674
0
LINE
8
BLACK
6
CONTINUOUS
10
4.28874
20
-2.82674
11
4.28526
21
-2.82326
0
LINE
8
BLACK
6
CONTINUOUS
10
4.28526
20
-2.82326
11
4.28302
21
-2.81887
0
LINE
8
BLACK
6
CONTINUOUS
10
4.28302
20
-2.81887
11
4.28225
21
-2.814
0
LINE
8
BLACK
6
CONTINUOUS
10
4.28225
20
-2.814
11
4.28302
21
-2.80913
0
LINE
8
BLACK
6
CONTINUOUS
10
4.28302
20
-2.80913
11
4.28526
21
-2.80474
0
LINE
8
BLACK
6
CONTINUOUS
10
4.28526
20
-2.80474
11
4.28874
21
-2.80126
0
LINE
8
BLACK
6
CONTINUOUS
10
4.28874
20
-2.80126
11
4.29313
21
-2.79902
0
LINE
8
BLACK
6
CONTINUOUS
10
4.29313
20
-2.79902
11
4.298
21
-2.79825
0
LINE
8
BLACK
6
CONTINUOUS
10
4.298
20
-2.79825
11
4.30287
21
-2.79902
0
LINE
8
BLACK
6
CONTINUOUS
10
4.56701
20
-2.6622
11
4.56719
21
-2.66219
0
LINE
8
BLACK
6
CONTINUOUS
10
4.56719
20
-2.66219
11
4.56728
21
-2.66224
0
LINE
8
BLACK
6
CONTINUOUS
10
4.56728
20
-2.66224
11
4.56753
21
-2.66228
0
LINE
8
BLACK
6
CONTINUOUS
10
4.56753
20
-2.66228
11
4.56855
21
-2.66294
0
LINE
8
BLACK
6
CONTINUOUS
10
4.56855
20
-2.66294
11
4.56962
21
-2.66352
0
LINE
8
BLACK
6
CONTINUOUS
10
4.56962
20
-2.66352
11
4.59753
21
-2.69143
0
LINE
8
BLACK
6
CONTINUOUS
10
4.59753
20
-2.69143
11
4.59805
21
-2.69213
0
LINE
8
BLACK
6
CONTINUOUS
10
4.59805
20
-2.69213
11
4.59819
21
-2.69225
0
LINE
8
BLACK
6
CONTINUOUS
10
4.59819
20
-2.69225
11
4.59822
21
-2.69235
0
LINE
8
BLACK
6
CONTINUOUS
10
4.59822
20
-2.69235
11
4.59837
21
-2.69255
0
LINE
8
BLACK
6
CONTINUOUS
10
4.59837
20
-2.69255
11
4.59863
21
-2.69374
0
LINE
8
BLACK
6
CONTINUOUS
10
4.59863
20
-2.69374
11
4.59897
21
-2.69491
0
LINE
8
BLACK
6
CONTINUOUS
10
4.59897
20
-2.69491
11
4.59897
21
-2.76358
0
LINE
8
BLACK
6
CONTINUOUS
10
4.59897
20
-2.76358
11
4.59884
21
-2.76445
0
LINE
8
BLACK
6
CONTINUOUS
10
4.59884
20
-2.76445
11
4.59886
21
-2.76463
0
LINE
8
BLACK
6
CONTINUOUS
10
4.59886
20
-2.76463
11
4.5988
21
-2.76472
0
LINE
8
BLACK
6
CONTINUOUS
10
4.5988
20
-2.76472
11
4.59877
21
-2.76497
0
LINE
8
BLACK
6
CONTINUOUS
10
4.59877
20
-2.76497
11
4.59811
21
-2.76599
0
LINE
8
BLACK
6
CONTINUOUS
10
4.59811
20
-2.76599
11
4.59753
21
-2.76706
0
LINE
8
BLACK
6
CONTINUOUS
10
4.59753
20
-2.76706
11
4.58125
21
-2.78334
0
LINE
8
BLACK
6
CONTINUOUS
10
4.58125
20
-2.78334
11
4.58125
21
-2.81772
0
LINE
8
BLACK
6
CONTINUOUS
10
4.58125
20
-2.81772
11
4.5805
21
-2.82148
0
LINE
8
BLACK
6
CONTINUOUS
10
4.5805
20
-2.82148
11
4.57837
21
-2.82468
0
LINE
8
BLACK
6
CONTINUOUS
10
4.57837
20
-2.82468
11
4.57518
21
-2.82681
0
LINE
8
BLACK
6
CONTINUOUS
10
4.57518
20
-2.82681
11
4.57141
21
-2.82756
0
LINE
8
BLACK
6
CONTINUOUS
10
4.57141
20
-2.82756
11
4.54385
21
-2.82756
0
LINE
8
BLACK
6
CONTINUOUS
10
4.54385
20
-2.82756
11
4.54008
21
-2.82681
0
LINE
8
BLACK
6
CONTINUOUS
10
4.54008
20
-2.82681
11
4.53689
21
-2.82468
0
LINE
8
BLACK
6
CONTINUOUS
10
4.53689
20
-2.82468
11
4.53476
21
-2.82148
0
LINE
8
BLACK
6
CONTINUOUS
10
4.53476
20
-2.82148
11
4.53401
21
-2.81772
0
LINE
8
BLACK
6
CONTINUOUS
10
4.53401
20
-2.81772
11
4.47382
21
-2.81772
0
LINE
8
BLACK
6
CONTINUOUS
10
4.47382
20
-2.81772
11
4.47382
21
-2.81969
0
LINE
8
BLACK
6
CONTINUOUS
10
4.47382
20
-2.81969
11
4.44429
21
-2.81969
0
LINE
8
BLACK
6
CONTINUOUS
10
4.44429
20
-2.81969
11
4.44429
21
-2.80591
0
LINE
8
BLACK
6
CONTINUOUS
10
4.44429
20
-2.80591
11
4.47382
21
-2.80591
0
LINE
8
BLACK
6
CONTINUOUS
10
4.47382
20
-2.80591
11
4.47382
21
-2.80787
0
LINE
8
BLACK
6
CONTINUOUS
10
4.47382
20
-2.80787
11
4.53401
21
-2.80787
0
LINE
8
BLACK
6
CONTINUOUS
10
4.53401
20
-2.80787
11
4.53401
21
-2.78228
0
LINE
8
BLACK
6
CONTINUOUS
10
4.53401
20
-2.78228
11
4.53476
21
-2.77852
0
LINE
8
BLACK
6
CONTINUOUS
10
4.53476
20
-2.77852
11
4.53689
21
-2.77532
0
LINE
8
BLACK
6
CONTINUOUS
10
4.53689
20
-2.77532
11
4.54008
21
-2.77319
0
LINE
8
BLACK
6
CONTINUOUS
10
4.54008
20
-2.77319
11
4.54385
21
-2.77244
0
LINE
8
BLACK
6
CONTINUOUS
10
4.54385
20
-2.77244
11
4.57141
21
-2.77244
0
LINE
8
BLACK
6
CONTINUOUS
10
4.57141
20
-2.77244
11
4.57518
21
-2.77319
0
LINE
8
BLACK
6
CONTINUOUS
10
4.57518
20
-2.77319
11
4.57656
21
-2.77411
0
LINE
8
BLACK
6
CONTINUOUS
10
4.57656
20
-2.77411
11
4.58913
21
-2.76154
0
LINE
8
BLACK
6
CONTINUOUS
10
4.58913
20
-2.76154
11
4.58913
21
-2.69694
0
LINE
8
BLACK
6
CONTINUOUS
10
4.58913
20
-2.69694
11
4.5641
21
-2.67192
0
LINE
8
BLACK
6
CONTINUOUS
10
4.5641
20
-2.67192
11
4.39343
21
-2.67192
0
LINE
8
BLACK
6
CONTINUOUS
10
4.39343
20
-2.67192
11
4.38931
21
-2.67605
0
LINE
8
BLACK
6
CONTINUOUS
10
4.38931
20
-2.67605
11
4.39037
21
-2.67813
0
LINE
8
BLACK
6
CONTINUOUS
10
4.39037
20
-2.67813
11
4.39114
21
-2.683
0
LINE
8
BLACK
6
CONTINUOUS
10
4.39114
20
-2.683
11
4.39037
21
-2.68787
0
LINE
8
BLACK
6
CONTINUOUS
10
4.39037
20
-2.68787
11
4.38813
21
-2.69226
0
LINE
8
BLACK
6
CONTINUOUS
10
4.38813
20
-2.69226
11
4.38465
21
-2.69574
0
LINE
8
BLACK
6
CONTINUOUS
10
4.38465
20
-2.69574
11
4.38026
21
-2.69798
0
LINE
8
BLACK
6
CONTINUOUS
10
4.38026
20
-2.69798
11
4.37539
21
-2.69875
0
LINE
8
BLACK
6
CONTINUOUS
10
4.37539
20
-2.69875
11
4.37053
21
-2.69798
0
LINE
8
BLACK
6
CONTINUOUS
10
4.37053
20
-2.69798
11
4.36614
21
-2.69574
0
LINE
8
BLACK
6
CONTINUOUS
10
4.36614
20
-2.69574
11
4.36265
21
-2.69226
0
LINE
8
BLACK
6
CONTINUOUS
10
4.36265
20
-2.69226
11
4.36042
21
-2.68787
0
LINE
8
BLACK
6
CONTINUOUS
10
4.36042
20
-2.68787
11
4.35965
21
-2.683
0
LINE
8
BLACK
6
CONTINUOUS
10
4.35965
20
-2.683
11
4.36042
21
-2.67813
0
LINE
8
BLACK
6
CONTINUOUS
10
4.36042
20
-2.67813
11
4.36265
21
-2.67374
0
LINE
8
BLACK
6
CONTINUOUS
10
4.36265
20
-2.67374
11
4.36614
21
-2.67026
0
LINE
8
BLACK
6
CONTINUOUS
10
4.36614
20
-2.67026
11
4.37053
21
-2.66802
0
LINE
8
BLACK
6
CONTINUOUS
10
4.37053
20
-2.66802
11
4.37539
21
-2.66725
0
LINE
8
BLACK
6
CONTINUOUS
10
4.37539
20
-2.66725
11
4.38026
21
-2.66802
0
LINE
8
BLACK
6
CONTINUOUS
10
4.38026
20
-2.66802
11
4.38235
21
-2.66909
0
LINE
8
BLACK
6
CONTINUOUS
10
4.38235
20
-2.66909
11
4.38791
21
-2.66352
0
LINE
8
BLACK
6
CONTINUOUS
10
4.38791
20
-2.66352
11
4.38862
21
-2.66299
0
LINE
8
BLACK
6
CONTINUOUS
10
4.38862
20
-2.66299
11
4.38873
21
-2.66286
0
LINE
8
BLACK
6
CONTINUOUS
10
4.38873
20
-2.66286
11
4.38884
21
-2.66283
0
LINE
8
BLACK
6
CONTINUOUS
10
4.38884
20
-2.66283
11
4.38904
21
-2.66268
0
LINE
8
BLACK
6
CONTINUOUS
10
4.38904
20
-2.66268
11
4.39023
21
-2.66242
0
LINE
8
BLACK
6
CONTINUOUS
10
4.39023
20
-2.66242
11
4.39139
21
-2.66208
0
LINE
8
BLACK
6
CONTINUOUS
10
4.39139
20
-2.66208
11
4.56614
21
-2.66208
0
LINE
8
BLACK
6
CONTINUOUS
10
4.56614
20
-2.66208
11
4.56701
21
-2.6622
0
LINE
8
BLACK
6
CONTINUOUS
10
4.57518
20
-2.69519
11
4.57837
21
-2.69732
0
LINE
8
BLACK
6
CONTINUOUS
10
4.57837
20
-2.69732
11
4.5805
21
-2.70052
0
LINE
8
BLACK
6
CONTINUOUS
10
4.5805
20
-2.70052
11
4.58125
21
-2.70428
0
LINE
8
BLACK
6
CONTINUOUS
10
4.58125
20
-2.70428
11
4.58125
21
-2.73972
0
LINE
8
BLACK
6
CONTINUOUS
10
4.58125
20
-2.73972
11
4.5805
21
-2.74348
0
LINE
8
BLACK
6
CONTINUOUS
10
4.5805
20
-2.74348
11
4.57837
21
-2.74668
0
LINE
8
BLACK
6
CONTINUOUS
10
4.57837
20
-2.74668
11
4.57518
21
-2.74881
0
LINE
8
BLACK
6
CONTINUOUS
10
4.57518
20
-2.74881
11
4.57141
21
-2.74956
0
LINE
8
BLACK
6
CONTINUOUS
10
4.57141
20
-2.74956
11
4.54385
21
-2.74956
0
LINE
8
BLACK
6
CONTINUOUS
10
4.54385
20
-2.74956
11
4.54008
21
-2.74881
0
LINE
8
BLACK
6
CONTINUOUS
10
4.54008
20
-2.74881
11
4.5387
21
-2.74789
0
LINE
8
BLACK
6
CONTINUOUS
10
4.5387
20
-2.74789
11
4.49591
21
-2.79068
0
LINE
8
BLACK
6
CONTINUOUS
10
4.49591
20
-2.79068
11
4.4952
21
-2.79121
0
LINE
8
BLACK
6
CONTINUOUS
10
4.4952
20
-2.79121
11
4.49509
21
-2.79134
0
LINE
8
BLACK
6
CONTINUOUS
10
4.49509
20
-2.79134
11
4.49498
21
-2.79138
0
LINE
8
BLACK
6
CONTINUOUS
10
4.49498
20
-2.79138
11
4.49478
21
-2.79152
0
LINE
8
BLACK
6
CONTINUOUS
10
4.49478
20
-2.79152
11
4.49359
21
-2.79178
0
LINE
8
BLACK
6
CONTINUOUS
10
4.49359
20
-2.79178
11
4.49243
21
-2.79213
0
LINE
8
BLACK
6
CONTINUOUS
10
4.49243
20
-2.79213
11
4.47382
21
-2.79213
0
LINE
8
BLACK
6
CONTINUOUS
10
4.47382
20
-2.79213
11
4.47382
21
-2.79409
0
LINE
8
BLACK
6
CONTINUOUS
10
4.47382
20
-2.79409
11
4.44429
21
-2.79409
0
LINE
8
BLACK
6
CONTINUOUS
10
4.44429
20
-2.79409
11
4.44429
21
-2.78031
0
LINE
8
BLACK
6
CONTINUOUS
10
4.44429
20
-2.78031
11
4.47382
21
-2.78031
0
LINE
8
BLACK
6
CONTINUOUS
10
4.47382
20
-2.78031
11
4.47382
21
-2.78228
0
LINE
8
BLACK
6
CONTINUOUS
10
4.47382
20
-2.78228
11
4.49039
21
-2.78228
0
LINE
8
BLACK
6
CONTINUOUS
10
4.49039
20
-2.78228
11
4.53401
21
-2.73866
0
LINE
8
BLACK
6
CONTINUOUS
10
4.53401
20
-2.73866
11
4.53401
21
-2.70428
0
LINE
8
BLACK
6
CONTINUOUS
10
4.53401
20
-2.70428
11
4.53476
21
-2.70052
0
LINE
8
BLACK
6
CONTINUOUS
10
4.53476
20
-2.70052
11
4.53689
21
-2.69732
0
LINE
8
BLACK
6
CONTINUOUS
10
4.53689
20
-2.69732
11
4.54008
21
-2.69519
0
LINE
8
BLACK
6
CONTINUOUS
10
4.54008
20
-2.69519
11
4.54385
21
-2.69444
0
LINE
8
BLACK
6
CONTINUOUS
10
4.54385
20
-2.69444
11
4.57141
21
-2.69444
0
LINE
8
BLACK
6
CONTINUOUS
10
4.57141
20
-2.69444
11
4.57518
21
-2.69519
0
LINE
8
BLACK
6
CONTINUOUS
10
4.51087
20
-2.68055
11
4.51526
21
-2.68278
0
LINE
8
BLACK
6
CONTINUOUS
10
4.51526
20
-2.68278
11
4.51874
21
-2.68627
0
LINE
8
BLACK
6
CONTINUOUS
10
4.51874
20
-2.68627
11
4.52098
21
-2.69066
0
LINE
8
BLACK
6
CONTINUOUS
10
4.52098
20
-2.69066
11
4.52175
21
-2.69552
0
LINE
8
BLACK
6
CONTINUOUS
10
4.52175
20
-2.69552
11
4.52098
21
-2.70039
0
LINE
8
BLACK
6
CONTINUOUS
10
4.52098
20
-2.70039
11
4.51874
21
-2.70478
0
LINE
8
BLACK
6
CONTINUOUS
10
4.51874
20
-2.70478
11
4.51526
21
-2.70826
0
LINE
8
BLACK
6
CONTINUOUS
10
4.51526
20
-2.70826
11
4.51087
21
-2.7105
0
LINE
8
BLACK
6
CONTINUOUS
10
4.51087
20
-2.7105
11
4.506
21
-2.71127
0
LINE
8
BLACK
6
CONTINUOUS
10
4.506
20
-2.71127
11
4.50113
21
-2.7105
0
LINE
8
BLACK
6
CONTINUOUS
10
4.50113
20
-2.7105
11
4.49674
21
-2.70826
0
LINE
8
BLACK
6
CONTINUOUS
10
4.49674
20
-2.70826
11
4.49326
21
-2.70478
0
LINE
8
BLACK
6
CONTINUOUS
10
4.49326
20
-2.70478
11
4.49102
21
-2.70039
0
LINE
8
BLACK
6
CONTINUOUS
10
4.49102
20
-2.70039
11
4.49025
21
-2.69552
0
LINE
8
BLACK
6
CONTINUOUS
10
4.49025
20
-2.69552
11
4.49102
21
-2.69066
0
LINE
8
BLACK
6
CONTINUOUS
10
4.49102
20
-2.69066
11
4.4914
21
-2.68992
0
LINE
8
BLACK
6
CONTINUOUS
10
4.4914
20
-2.68992
11
4.4196
21
-2.68992
0
LINE
8
BLACK
6
CONTINUOUS
10
4.4196
20
-2.68992
11
4.35479
21
-2.75472
0
LINE
8
BLACK
6
CONTINUOUS
10
4.35479
20
-2.75472
11
4.35571
21
-2.75472
0
LINE
8
BLACK
6
CONTINUOUS
10
4.35571
20
-2.75472
11
4.35571
21
-2.7685
0
LINE
8
BLACK
6
CONTINUOUS
10
4.35571
20
-2.7685
11
4.32618
21
-2.7685
0
LINE
8
BLACK
6
CONTINUOUS
10
4.32618
20
-2.7685
11
4.32618
21
-2.75472
0
LINE
8
BLACK
6
CONTINUOUS
10
4.32618
20
-2.75472
11
4.34087
21
-2.75472
0
LINE
8
BLACK
6
CONTINUOUS
10
4.34087
20
-2.75472
11
4.41408
21
-2.68152
0
LINE
8
BLACK
6
CONTINUOUS
10
4.41408
20
-2.68152
11
4.41478
21
-2.68099
0
LINE
8
BLACK
6
CONTINUOUS
10
4.41478
20
-2.68099
11
4.4149
21
-2.68086
0
LINE
8
BLACK
6
CONTINUOUS
10
4.4149
20
-2.68086
11
4.415
21
-2.68083
0
LINE
8
BLACK
6
CONTINUOUS
10
4.415
20
-2.68083
11
4.4152
21
-2.68068
0
LINE
8
BLACK
6
CONTINUOUS
10
4.4152
20
-2.68068
11
4.41639
21
-2.68042
0
LINE
8
BLACK
6
CONTINUOUS
10
4.41639
20
-2.68042
11
4.41756
21
-2.68008
0
LINE
8
BLACK
6
CONTINUOUS
10
4.41756
20
-2.68008
11
4.49548
21
-2.68008
0
LINE
8
BLACK
6
CONTINUOUS
10
4.49548
20
-2.68008
11
4.49635
21
-2.6802
0
LINE
8
BLACK
6
CONTINUOUS
10
4.49635
20
-2.6802
11
4.49652
21
-2.68019
0
LINE
8
BLACK
6
CONTINUOUS
10
4.49652
20
-2.68019
11
4.49662
21
-2.68024
0
LINE
8
BLACK
6
CONTINUOUS
10
4.49662
20
-2.68024
11
4.49686
21
-2.68028
0
LINE
8
BLACK
6
CONTINUOUS
10
4.49686
20
-2.68028
11
4.49789
21
-2.68094
0
LINE
8
BLACK
6
CONTINUOUS
10
4.49789
20
-2.68094
11
4.49896
21
-2.68152
0
LINE
8
BLACK
6
CONTINUOUS
10
4.49896
20
-2.68152
11
4.49905
21
-2.68161
0
LINE
8
BLACK
6
CONTINUOUS
10
4.49905
20
-2.68161
11
4.50113
21
-2.68055
0
LINE
8
BLACK
6
CONTINUOUS
10
4.50113
20
-2.68055
11
4.506
21
-2.67978
0
LINE
8
BLACK
6
CONTINUOUS
10
4.506
20
-2.67978
11
4.51087
21
-2.68055
0
LINE
8
BLACK
6
CONTINUOUS
10
4.22247
20
-2.44193
11
4.22566
21
-2.44406
0
LINE
8
BLACK
6
CONTINUOUS
10
4.22566
20
-2.44406
11
4.22779
21
-2.44725
0
LINE
8
BLACK
6
CONTINUOUS
10
4.22779
20
-2.44725
11
4.22854
21
-2.45102
0
LINE
8
BLACK
6
CONTINUOUS
10
4.22854
20
-2.45102
11
4.22854
21
-2.46112
0
LINE
8
BLACK
6
CONTINUOUS
10
4.22854
20
-2.46112
11
4.26115
21
-2.46112
0
LINE
8
BLACK
6
CONTINUOUS
10
4.26115
20
-2.46112
11
4.26419
21
-2.4591
0
LINE
8
BLACK
6
CONTINUOUS
10
4.26419
20
-2.4591
11
4.26795
21
-2.45835
0
LINE
8
BLACK
6
CONTINUOUS
10
4.26795
20
-2.45835
11
4.29157
21
-2.45835
0
LINE
8
BLACK
6
CONTINUOUS
10
4.29157
20
-2.45835
11
4.29534
21
-2.4591
0
LINE
8
BLACK
6
CONTINUOUS
10
4.29534
20
-2.4591
11
4.29853
21
-2.46123
0
LINE
8
BLACK
6
CONTINUOUS
10
4.29853
20
-2.46123
11
4.30067
21
-2.46442
0
LINE
8
BLACK
6
CONTINUOUS
10
4.30067
20
-2.46442
11
4.30142
21
-2.46819
0
LINE
8
BLACK
6
CONTINUOUS
10
4.30142
20
-2.46819
11
4.30142
21
-2.49181
0
LINE
8
BLACK
6
CONTINUOUS
10
4.30142
20
-2.49181
11
4.30094
21
-2.49422
0
LINE
8
BLACK
6
CONTINUOUS
10
4.30094
20
-2.49422
11
4.31214
21
-2.50542
0
LINE
8
BLACK
6
CONTINUOUS
10
4.31214
20
-2.50542
11
4.31267
21
-2.50612
0
LINE
8
BLACK
6
CONTINUOUS
10
4.31267
20
-2.50612
11
4.3128
21
-2.50624
0
LINE
8
BLACK
6
CONTINUOUS
10
4.3128
20
-2.50624
11
4.31283
21
-2.50634
0
LINE
8
BLACK
6
CONTINUOUS
10
4.31283
20
-2.50634
11
4.31298
21
-2.50654
0
LINE
8
BLACK
6
CONTINUOUS
10
4.31298
20
-2.50654
11
4.31324
21
-2.50773
0
LINE
8
BLACK
6
CONTINUOUS
10
4.31324
20
-2.50773
11
4.31358
21
-2.5089
0
LINE
8
BLACK
6
CONTINUOUS
10
4.31358
20
-2.5089
11
4.31358
21
-2.56213
0
LINE
8
BLACK
6
CONTINUOUS
10
4.31358
20
-2.56213
11
4.32539
21
-2.56213
0
LINE
8
BLACK
6
CONTINUOUS
10
4.32539
20
-2.56213
11
4.32539
21
-2.57787
0
LINE
8
BLACK
6
CONTINUOUS
10
4.32539
20
-2.57787
11
4.29193
21
-2.57787
0
LINE
8
BLACK
6
CONTINUOUS
10
4.29193
20
-2.57787
11
4.29193
21
-2.57492
0
LINE
8
BLACK
6
CONTINUOUS
10
4.29193
20
-2.57492
11
4.28404
21
-2.57492
0
LINE
8
BLACK
6
CONTINUOUS
10
4.28404
20
-2.57492
11
4.27492
21
-2.58404
0
LINE
8
BLACK
6
CONTINUOUS
10
4.27492
20
-2.58404
11
4.27492
21
-2.64105
0
LINE
8
BLACK
6
CONTINUOUS
10
4.27492
20
-2.64105
11
4.27926
21
-2.64326
0
LINE
8
BLACK
6
CONTINUOUS
10
4.27926
20
-2.64326
11
4.28274
21
-2.64674
0
LINE
8
BLACK
6
CONTINUOUS
10
4.28274
20
-2.64674
11
4.28498
21
-2.65113
0
LINE
8
BLACK
6
CONTINUOUS
10
4.28498
20
-2.65113
11
4.28575
21
-2.656
0
LINE
8
BLACK
6
CONTINUOUS
10
4.28575
20
-2.656
11
4.28498
21
-2.66087
0
LINE
8
BLACK
6
CONTINUOUS
10
4.28498
20
-2.66087
11
4.28274
21
-2.66526
0
LINE
8
BLACK
6
CONTINUOUS
10
4.28274
20
-2.66526
11
4.27926
21
-2.66874
0
LINE
8
BLACK
6
CONTINUOUS
10
4.27926
20
-2.66874
11
4.27487
21
-2.67098
0
LINE
8
BLACK
6
CONTINUOUS
10
4.27487
20
-2.67098
11
4.27
21
-2.67175
0
LINE
8
BLACK
6
CONTINUOUS
10
4.27
20
-2.67175
11
4.26513
21
-2.67098
0
LINE
8
BLACK
6
CONTINUOUS
10
4.26513
20
-2.67098
11
4.26074
21
-2.66874
0
LINE
8
BLACK
6
CONTINUOUS
10
4.26074
20
-2.66874
11
4.25726
21
-2.66526
0
LINE
8
BLACK
6
CONTINUOUS
10
4.25726
20
-2.66526
11
4.25502
21
-2.66087
0
LINE
8
BLACK
6
CONTINUOUS
10
4.25502
20
-2.66087
11
4.25425
21
-2.656
0
LINE
8
BLACK
6
CONTINUOUS
10
4.25425
20
-2.656
11
4.25502
21
-2.65113
0
LINE
8
BLACK
6
CONTINUOUS
10
4.25502
20
-2.65113
11
4.25726
21
-2.64674
0
LINE
8
BLACK
6
CONTINUOUS
10
4.25726
20
-2.64674
11
4.26074
21
-2.64326
0
LINE
8
BLACK
6
CONTINUOUS
10
4.26074
20
-2.64326
11
4.26508
21
-2.64105
0
LINE
8
BLACK
6
CONTINUOUS
10
4.26508
20
-2.64105
11
4.26508
21
-2.582
0
LINE
8
BLACK
6
CONTINUOUS
10
4.26508
20
-2.582
11
4.2652
21
-2.58113
0
LINE
8
BLACK
6
CONTINUOUS
10
4.2652
20
-2.58113
11
4.26519
21
-2.58095
0
LINE
8
BLACK
6
CONTINUOUS
10
4.26519
20
-2.58095
11
4.26524
21
-2.58086
0
LINE
8
BLACK
6
CONTINUOUS
10
4.26524
20
-2.58086
11
4.26528
21
-2.58061
0
LINE
8
BLACK
6
CONTINUOUS
10
4.26528
20
-2.58061
11
4.26594
21
-2.57959
0
LINE
8
BLACK
6
CONTINUOUS
10
4.26594
20
-2.57959
11
4.26652
21
-2.57852
0
LINE
8
BLACK
6
CONTINUOUS
10
4.26652
20
-2.57852
11
4.27852
21
-2.56652
0
LINE
8
BLACK
6
CONTINUOUS
10
4.27852
20
-2.56652
11
4.27922
21
-2.56599
0
LINE
8
BLACK
6
CONTINUOUS
10
4.27922
20
-2.56599
11
4.27934
21
-2.56586
0
LINE
8
BLACK
6
CONTINUOUS
10
4.27934
20
-2.56586
11
4.27944
21
-2.56583
0
LINE
8
BLACK
6
CONTINUOUS
10
4.27944
20
-2.56583
11
4.27964
21
-2.56568
0
LINE
8
BLACK
6
CONTINUOUS
10
4.27964
20
-2.56568
11
4.28083
21
-2.56542
0
LINE
8
BLACK
6
CONTINUOUS
10
4.28083
20
-2.56542
11
4.282
21
-2.56508
0
LINE
8
BLACK
6
CONTINUOUS
10
4.282
20
-2.56508
11
4.29193
21
-2.56508
0
LINE
8
BLACK
6
CONTINUOUS
10
4.29193
20
-2.56508
11
4.29193
21
-2.56213
0
LINE
8
BLACK
6
CONTINUOUS
10
4.29193
20
-2.56213
11
4.30374
21
-2.56213
0
LINE
8
BLACK
6
CONTINUOUS
10
4.30374
20
-2.56213
11
4.30374
21
-2.51094
0
LINE
8
BLACK
6
CONTINUOUS
10
4.30374
20
-2.51094
11
4.29398
21
-2.50118
0
LINE
8
BLACK
6
CONTINUOUS
10
4.29398
20
-2.50118
11
4.29157
21
-2.50165
0
LINE
8
BLACK
6
CONTINUOUS
10
4.29157
20
-2.50165
11
4.26795
21
-2.50165
0
LINE
8
BLACK
6
CONTINUOUS
10
4.26795
20
-2.50165
11
4.26419
21
-2.5009
0
LINE
8
BLACK
6
CONTINUOUS
10
4.26419
20
-2.5009
11
4.26099
21
-2.49877
0
LINE
8
BLACK
6
CONTINUOUS
10
4.26099
20
-2.49877
11
4.25886
21
-2.49558
0
LINE
8
BLACK
6
CONTINUOUS
10
4.25886
20
-2.49558
11
4.25811
21
-2.49181
0
LINE
8
BLACK
6
CONTINUOUS
10
4.25811
20
-2.49181
11
4.25811
21
-2.47096
0
LINE
8
BLACK
6
CONTINUOUS
10
4.25811
20
-2.47096
11
4.22854
21
-2.47096
0
LINE
8
BLACK
6
CONTINUOUS
10
4.22854
20
-2.47096
11
4.22854
21
-2.47759
0
LINE
8
BLACK
6
CONTINUOUS
10
4.22854
20
-2.47759
11
4.22779
21
-2.48136
0
LINE
8
BLACK
6
CONTINUOUS
10
4.22779
20
-2.48136
11
4.22566
21
-2.48455
0
LINE
8
BLACK
6
CONTINUOUS
10
4.22566
20
-2.48455
11
4.22247
21
-2.48669
0
LINE
8
BLACK
6
CONTINUOUS
10
4.22247
20
-2.48669
11
4.2187
21
-2.48744
0
LINE
8
BLACK
6
CONTINUOUS
10
4.2187
20
-2.48744
11
4.1813
21
-2.48744
0
LINE
8
BLACK
6
CONTINUOUS
10
4.1813
20
-2.48744
11
4.17753
21
-2.48669
0
LINE
8
BLACK
6
CONTINUOUS
10
4.17753
20
-2.48669
11
4.17434
21
-2.48455
0
LINE
8
BLACK
6
CONTINUOUS
10
4.17434
20
-2.48455
11
4.17221
21
-2.48136
0
LINE
8
BLACK
6
CONTINUOUS
10
4.17221
20
-2.48136
11
4.17146
21
-2.47759
0
LINE
8
BLACK
6
CONTINUOUS
10
4.17146
20
-2.47759
11
4.17146
21
-2.45102
0
LINE
8
BLACK
6
CONTINUOUS
10
4.17146
20
-2.45102
11
4.17221
21
-2.44725
0
LINE
8
BLACK
6
CONTINUOUS
10
4.17221
20
-2.44725
11
4.17434
21
-2.44406
0
LINE
8
BLACK
6
CONTINUOUS
10
4.17434
20
-2.44406
11
4.17753
21
-2.44193
0
LINE
8
BLACK
6
CONTINUOUS
10
4.17753
20
-2.44193
11
4.1813
21
-2.44118
0
LINE
8
BLACK
6
CONTINUOUS
10
4.1813
20
-2.44118
11
4.2187
21
-2.44118
0
LINE
8
BLACK
6
CONTINUOUS
10
4.2187
20
-2.44118
11
4.22247
21
-2.44193
0
LINE
8
BLACK
6
CONTINUOUS
10
4.40807
20
-2.62906
11
4.37461
21
-2.62906
0
LINE
8
BLACK
6
CONTINUOUS
10
4.37461
20
-2.62906
11
4.37461
21
-2.61331
0
LINE
8
BLACK
6
CONTINUOUS
10
4.37461
20
-2.61331
11
4.40807
21
-2.61331
0
LINE
8
BLACK
6
CONTINUOUS
10
4.40807
20
-2.61331
11
4.40807
21
-2.62906
0
LINE
8
BLACK
6
CONTINUOUS
10
4.40807
20
-2.57787
11
4.37461
21
-2.57787
0
LINE
8
BLACK
6
CONTINUOUS
10
4.37461
20
-2.57787
11
4.37461
21
-2.56213
0
LINE
8
BLACK
6
CONTINUOUS
10
4.37461
20
-2.56213
11
4.40807
21
-2.56213
0
LINE
8
BLACK
6
CONTINUOUS
10
4.40807
20
-2.56213
11
4.40807
21
-2.57787
0
CIRCLE
8
BLACK
10
4.8
20
-2.6
40
0.00688976
0
CIRCLE
8
BLACK
10
4
20
-3
40
0.00688976
0
CIRCLE
8
BLACK
10
4.8
20
-3
40
0.00688976
0
CIRCLE
8
BLACK
10
4
20
-2.6
40
0.00688976
0
CIRCLE
8
BLACK
10
4.708
20
-2.757
40
0.00787402
0
CIRCLE
8
BLACK
10
4.23
20
-2.91
40
0.00787402
0
CIRCLE
8
BLACK
10
4.396
20
-2.753
40
0.00787402
0
CIRCLE
8
BLACK
10
4.156
20
-2.911
40
0.00787402
0
CIRCLE
8
BLACK
10
4.148
20
-2.5
40
0.00787402
0
CIRCLE
8
BLACK
10
4.399
20
-2.87
40
0.00787402
0
CIRCLE
8
BLACK
10
4.529
20
-2.619
40
0.00787402
0
CIRCLE
8
BLACK
10
4.192
20
-3.112
40
0.00787402
0
CIRCLE
8
BLACK
10
4.45
20
-2.55
40
0.00787402
0
CIRCLE
8
BLACK
10
4.403
20
-2.803
40
0.00787402
0
CIRCLE
8
BLACK
10
4.465
20
-2.714
40
0.00787402
0
CIRCLE
8
BLACK
10
4.61
20
-2.5
40
0.00787402
0
CIRCLE
8
BLACK
10
4.331
20
-3.054
40
0.00787402
0
CIRCLE
8
BLACK
10
4.488
20
-3.113
40
0.00787402
0
CIRCLE
8
BLACK
10
4.49
20
-2.5
40
0.00787402
0
CIRCLE
8
BLACK
10
4.307
20
-3.123
40
0.00787402
0
CIRCLE
8
BLACK
10
4.06
20
-2.828
40
0.00787402
0
CIRCLE
8
BLACK
10
4.45
20
-2.48
40
0.00787402
0
CIRCLE
8
BLACK
10
4.49
20
-2.55
40
0.00787402
0
CIRCLE
8
BLACK
10
4.609
20
-3.112
40
0.00787402
0
CIRCLE
8
BLACK
10
4.27
20
-2.656
40
0.00787402
0
CIRCLE
8
BLACK
10
4.42461
20
-2.91
40
0.00787402
0
CIRCLE
8
BLACK
10
4.37539
20
-2.683
40
0.00787402
0
CIRCLE
8
BLACK
10
4.506
20
-2.69552
40
0.00787402
0
CIRCLE
8
BLACK
10
4.61
20
-2.97
40
0.00787402
0
CIRCLE
8
BLACK
10
4.298
20
-2.814
40
0.00787402
  0
ENDSEC
  0
EOF
