  0
SECTION
  2
HEADER
  9
$ANGBASE
  50
0.0
  9
$ANGDIR
  70
1
  9
$MEASUREMENT
  70
0
  0
ENDSEC
  0
SECTION
  2
TABLES
  0
TABLE
  2
LTYPE
  70
4
  0
LTYPE
  5
40F
  2
CONTINUOUS
  70
0
  3
Solid line
  72
65
  73
0
  40
0.0
  0
LTYPE
  5
410
  2
DASHDOT
 70
0
  3
Dash Dot ____ _ ____ _
 72
65
 73
4
 40
2.0
 49
1.25
 49
-0.25
 49
0.25
 49
-0.25
  0
LTYPE
  5
411
  2
DASHED
 70
0
  3
Dashed __ __ __ __ __
 72
65
 73
2
 40
0.75
 49
0.5
 49
-0.25
  0
LTYPE
  5
43B
  2
DOTTED
 70
0
  3
Dotted .  .  .  .
 72
65
 73
2
 40
0.2
 49
0.0
 49
-0.2
  0
ENDTAB
  0
TABLE
  2
STYLE
  70
4
  0
STYLE
  2
KICAD
  70
0
  40
0
  41
1
  42
1
  50
0
  71
0
  3
isocp.shx
  0
STYLE
  2
KICADB
  70
0
  40
0
  41
1
  42
1
  50
0
  71
0
  3
isocp.shx
  0
STYLE
  2
KICADI
  70
0
  40
0
  41
1
  42
1
  50
15
  71
0
  3
isocp.shx
  0
STYLE
  2
KICADBI
  70
0
  40
0
  41
1
  42
1
  50
15
  71
0
  3
isocp.shx
  0
ENDTAB
  0
TABLE
  2
LAYER
  70
1
  0
LAYER
  2
BLACK
  70
0
  62
7
  6
CONTINUOUS
  0
ENDTAB
  0
ENDSEC
  0
SECTION
  2
ENTITIES
0
LINE
8
BLACK
6
CONTINUOUS
10
4.58583
20
-2.93303
11
4.58652
21
-2.93332
0
LINE
8
BLACK
6
CONTINUOUS
10
4.58652
20
-2.93332
11
4.58681
21
-2.93402
0
LINE
8
BLACK
6
CONTINUOUS
10
4.58681
20
-2.93402
11
4.58681
21
-3.18598
0
LINE
8
BLACK
6
CONTINUOUS
10
4.58681
20
-3.18598
11
4.58652
21
-3.18668
0
LINE
8
BLACK
6
CONTINUOUS
10
4.58652
20
-3.18668
11
4.58583
21
-3.18697
0
LINE
8
BLACK
6
CONTINUOUS
10
4.58583
20
-3.18697
11
4.21417
21
-3.18697
0
LINE
8
BLACK
6
CONTINUOUS
10
4.21417
20
-3.18697
11
4.21348
21
-3.18668
0
LINE
8
BLACK
6
CONTINUOUS
10
4.21348
20
-3.18668
11
4.21319
21
-3.18598
0
LINE
8
BLACK
6
CONTINUOUS
10
4.21319
20
-3.18598
11
4.21319
21
-2.93402
0
LINE
8
BLACK
6
CONTINUOUS
10
4.21319
20
-2.93402
11
4.21348
21
-2.93332
0
LINE
8
BLACK
6
CONTINUOUS
10
4.21348
20
-2.93332
11
4.21417
21
-2.93303
0
LINE
8
BLACK
6
CONTINUOUS
10
4.21417
20
-2.93303
11
4.58583
21
-2.93303
0
LINE
8
BLACK
6
CONTINUOUS
10
4.21516
20
-2.935
11
4.21516
21
-3.185
0
LINE
8
BLACK
6
CONTINUOUS
10
4.21516
20
-3.185
11
4.58484
21
-3.185
0
LINE
8
BLACK
6
CONTINUOUS
10
4.58484
20
-3.185
11
4.58484
21
-2.935
0
LINE
8
BLACK
6
CONTINUOUS
10
4.58484
20
-2.935
11
4.21516
21
-2.935
0
LINE
8
BLACK
6
CONTINUOUS
10
4.67755
20
-2.8008
11
4.67825
21
-2.80109
0
LINE
8
BLACK
6
CONTINUOUS
10
4.67825
20
-2.80109
11
4.67854
21
-2.80179
0
LINE
8
BLACK
6
CONTINUOUS
10
4.67854
20
-2.80179
11
4.67854
21
-2.90021
0
LINE
8
BLACK
6
CONTINUOUS
10
4.67854
20
-2.90021
11
4.67825
21
-2.90091
0
LINE
8
BLACK
6
CONTINUOUS
10
4.67825
20
-2.90091
11
4.67755
21
-2.9012
0
LINE
8
BLACK
6
CONTINUOUS
10
4.67755
20
-2.9012
11
4.49645
21
-2.9012
0
LINE
8
BLACK
6
CONTINUOUS
10
4.49645
20
-2.9012
11
4.49575
21
-2.90091
0
LINE
8
BLACK
6
CONTINUOUS
10
4.49575
20
-2.90091
11
4.49546
21
-2.90021
0
LINE
8
BLACK
6
CONTINUOUS
10
4.49546
20
-2.90021
11
4.49546
21
-2.80179
0
LINE
8
BLACK
6
CONTINUOUS
10
4.49546
20
-2.80179
11
4.49575
21
-2.80109
0
LINE
8
BLACK
6
CONTINUOUS
10
4.49575
20
-2.80109
11
4.49645
21
-2.8008
0
LINE
8
BLACK
6
CONTINUOUS
10
4.49645
20
-2.8008
11
4.67755
21
-2.8008
0
LINE
8
BLACK
6
CONTINUOUS
10
4.49743
20
-2.80277
11
4.49743
21
-2.89923
0
LINE
8
BLACK
6
CONTINUOUS
10
4.49743
20
-2.89923
11
4.67657
21
-2.89923
0
LINE
8
BLACK
6
CONTINUOUS
10
4.67657
20
-2.89923
11
4.67657
21
-2.80277
0
LINE
8
BLACK
6
CONTINUOUS
10
4.67657
20
-2.80277
11
4.49743
21
-2.80277
0
LINE
8
BLACK
6
CONTINUOUS
10
4.17921
20
-2.70846
11
4.17969
21
-2.70866
0
LINE
8
BLACK
6
CONTINUOUS
10
4.17969
20
-2.70866
11
4.18018
21
-2.70846
0
LINE
8
BLACK
6
CONTINUOUS
10
4.18018
20
-2.70846
11
4.2786
21
-2.70846
0
LINE
8
BLACK
6
CONTINUOUS
10
4.2786
20
-2.70846
11
4.2793
21
-2.70875
0
LINE
8
BLACK
6
CONTINUOUS
10
4.2793
20
-2.70875
11
4.27959
21
-2.70945
0
LINE
8
BLACK
6
CONTINUOUS
10
4.27959
20
-2.70945
11
4.27959
21
-2.89055
0
LINE
8
BLACK
6
CONTINUOUS
10
4.27959
20
-2.89055
11
4.2793
21
-2.89125
0
LINE
8
BLACK
6
CONTINUOUS
10
4.2793
20
-2.89125
11
4.2786
21
-2.89154
0
LINE
8
BLACK
6
CONTINUOUS
10
4.2786
20
-2.89154
11
4.18018
21
-2.89154
0
LINE
8
BLACK
6
CONTINUOUS
10
4.18018
20
-2.89154
11
4.17969
21
-2.89134
0
LINE
8
BLACK
6
CONTINUOUS
10
4.17969
20
-2.89134
11
4.17921
21
-2.89154
0
LINE
8
BLACK
6
CONTINUOUS
10
4.17921
20
-2.89154
11
4.08079
21
-2.89154
0
LINE
8
BLACK
6
CONTINUOUS
10
4.08079
20
-2.89154
11
4.08009
21
-2.89125
0
LINE
8
BLACK
6
CONTINUOUS
10
4.08009
20
-2.89125
11
4.0798
21
-2.89055
0
LINE
8
BLACK
6
CONTINUOUS
10
4.0798
20
-2.89055
11
4.0798
21
-2.70945
0
LINE
8
BLACK
6
CONTINUOUS
10
4.0798
20
-2.70945
11
4.08009
21
-2.70875
0
LINE
8
BLACK
6
CONTINUOUS
10
4.08009
20
-2.70875
11
4.08079
21
-2.70846
0
LINE
8
BLACK
6
CONTINUOUS
10
4.08079
20
-2.70846
11
4.17921
21
-2.70846
0
LINE
8
BLACK
6
CONTINUOUS
10
4.18116
20
-2.71043
11
4.18116
21
-2.88957
0
LINE
8
BLACK
6
CONTINUOUS
10
4.18116
20
-2.88957
11
4.27762
21
-2.88957
0
LINE
8
BLACK
6
CONTINUOUS
10
4.27762
20
-2.88957
11
4.27762
21
-2.71043
0
LINE
8
BLACK
6
CONTINUOUS
10
4.27762
20
-2.71043
11
4.18116
21
-2.71043
0
LINE
8
BLACK
6
CONTINUOUS
10
4.08177
20
-2.71043
11
4.08177
21
-2.88957
0
LINE
8
BLACK
6
CONTINUOUS
10
4.08177
20
-2.88957
11
4.17823
21
-2.88957
0
LINE
8
BLACK
6
CONTINUOUS
10
4.17823
20
-2.88957
11
4.17823
21
-2.71043
0
LINE
8
BLACK
6
CONTINUOUS
10
4.17823
20
-2.71043
11
4.08177
21
-2.71043
0
LINE
8
BLACK
6
CONTINUOUS
10
4.67737
20
-2.6998
11
4.67807
21
-2.70009
0
LINE
8
BLACK
6
CONTINUOUS
10
4.67807
20
-2.70009
11
4.67835
21
-2.70079
0
LINE
8
BLACK
6
CONTINUOUS
10
4.67835
20
-2.70079
11
4.67835
21
-2.79921
0
LINE
8
BLACK
6
CONTINUOUS
10
4.67835
20
-2.79921
11
4.67807
21
-2.79991
0
LINE
8
BLACK
6
CONTINUOUS
10
4.67807
20
-2.79991
11
4.67737
21
-2.8002
0
LINE
8
BLACK
6
CONTINUOUS
10
4.67737
20
-2.8002
11
4.49627
21
-2.8002
0
LINE
8
BLACK
6
CONTINUOUS
10
4.49627
20
-2.8002
11
4.49557
21
-2.79991
0
LINE
8
BLACK
6
CONTINUOUS
10
4.49557
20
-2.79991
11
4.49528
21
-2.79921
0
LINE
8
BLACK
6
CONTINUOUS
10
4.49528
20
-2.79921
11
4.49528
21
-2.70079
0
LINE
8
BLACK
6
CONTINUOUS
10
4.49528
20
-2.70079
11
4.49557
21
-2.70009
0
LINE
8
BLACK
6
CONTINUOUS
10
4.49557
20
-2.70009
11
4.49627
21
-2.6998
0
LINE
8
BLACK
6
CONTINUOUS
10
4.49627
20
-2.6998
11
4.67737
21
-2.6998
0
LINE
8
BLACK
6
CONTINUOUS
10
4.49725
20
-2.70177
11
4.49725
21
-2.79823
0
LINE
8
BLACK
6
CONTINUOUS
10
4.49725
20
-2.79823
11
4.67639
21
-2.79823
0
LINE
8
BLACK
6
CONTINUOUS
10
4.67639
20
-2.79823
11
4.67639
21
-2.70177
0
LINE
8
BLACK
6
CONTINUOUS
10
4.67639
20
-2.70177
11
4.49725
21
-2.70177
0
LINE
8
BLACK
6
CONTINUOUS
10
4.58583
20
-2.42303
11
4.58652
21
-2.42332
0
LINE
8
BLACK
6
CONTINUOUS
10
4.58652
20
-2.42332
11
4.58681
21
-2.42402
0
LINE
8
BLACK
6
CONTINUOUS
10
4.58681
20
-2.42402
11
4.58681
21
-2.67598
0
LINE
8
BLACK
6
CONTINUOUS
10
4.58681
20
-2.67598
11
4.58652
21
-2.67668
0
LINE
8
BLACK
6
CONTINUOUS
10
4.58652
20
-2.67668
11
4.58583
21
-2.67697
0
LINE
8
BLACK
6
CONTINUOUS
10
4.58583
20
-2.67697
11
4.21417
21
-2.67697
0
LINE
8
BLACK
6
CONTINUOUS
10
4.21417
20
-2.67697
11
4.21348
21
-2.67668
0
LINE
8
BLACK
6
CONTINUOUS
10
4.21348
20
-2.67668
11
4.21319
21
-2.67598
0
LINE
8
BLACK
6
CONTINUOUS
10
4.21319
20
-2.67598
11
4.21319
21
-2.42402
0
LINE
8
BLACK
6
CONTINUOUS
10
4.21319
20
-2.42402
11
4.21348
21
-2.42332
0
LINE
8
BLACK
6
CONTINUOUS
10
4.21348
20
-2.42332
11
4.21417
21
-2.42303
0
LINE
8
BLACK
6
CONTINUOUS
10
4.21417
20
-2.42303
11
4.58583
21
-2.42303
0
LINE
8
BLACK
6
CONTINUOUS
10
4.21516
20
-2.425
11
4.21516
21
-2.675
0
LINE
8
BLACK
6
CONTINUOUS
10
4.21516
20
-2.675
11
4.58484
21
-2.675
0
LINE
8
BLACK
6
CONTINUOUS
10
4.58484
20
-2.675
11
4.58484
21
-2.425
0
LINE
8
BLACK
6
CONTINUOUS
10
4.58484
20
-2.425
11
4.21516
21
-2.425
  0
ENDSEC
  0
EOF
