  0
SECTION
  2
HEADER
  9
$ANGBASE
  50
0.0
  9
$ANGDIR
  70
1
  9
$MEASUREMENT
  70
0
  0
ENDSEC
  0
SECTION
  2
TABLES
  0
TABLE
  2
LTYPE
  70
4
  0
LTYPE
  5
40F
  2
CONTINUOUS
  70
0
  3
Solid line
  72
65
  73
0
  40
0.0
  0
LTYPE
  5
410
  2
DASHDOT
 70
0
  3
Dash Dot ____ _ ____ _
 72
65
 73
4
 40
2.0
 49
1.25
 49
-0.25
 49
0.25
 49
-0.25
  0
LTYPE
  5
411
  2
DASHED
 70
0
  3
Dashed __ __ __ __ __
 72
65
 73
2
 40
0.75
 49
0.5
 49
-0.25
  0
LTYPE
  5
43B
  2
DOTTED
 70
0
  3
Dotted .  .  .  .
 72
65
 73
2
 40
0.2
 49
0.0
 49
-0.2
  0
ENDTAB
  0
TABLE
  2
STYLE
  70
4
  0
STYLE
  2
KICAD
  70
0
  40
0
  41
1
  42
1
  50
0
  71
0
  3
isocp.shx
  0
STYLE
  2
KICADB
  70
0
  40
0
  41
1
  42
1
  50
0
  71
0
  3
isocp.shx
  0
STYLE
  2
KICADI
  70
0
  40
0
  41
1
  42
1
  50
15
  71
0
  3
isocp.shx
  0
STYLE
  2
KICADBI
  70
0
  40
0
  41
1
  42
1
  50
15
  71
0
  3
isocp.shx
  0
ENDTAB
  0
TABLE
  2
LAYER
  70
1
  0
LAYER
  2
BLACK
  70
0
  62
7
  6
CONTINUOUS
  0
ENDTAB
  0
ENDSEC
  0
SECTION
  2
ENTITIES
0
LINE
8
BLACK
6
CONTINUOUS
10
4.26696
20
-3.06075
11
4.27015
21
-3.06288
0
LINE
8
BLACK
6
CONTINUOUS
10
4.27015
20
-3.06288
11
4.27228
21
-3.06608
0
LINE
8
BLACK
6
CONTINUOUS
10
4.27228
20
-3.06608
11
4.27303
21
-3.06984
0
LINE
8
BLACK
6
CONTINUOUS
10
4.27303
20
-3.06984
11
4.27303
21
-3.15646
0
LINE
8
BLACK
6
CONTINUOUS
10
4.27303
20
-3.15646
11
4.27228
21
-3.16022
0
LINE
8
BLACK
6
CONTINUOUS
10
4.27228
20
-3.16022
11
4.27015
21
-3.16342
0
LINE
8
BLACK
6
CONTINUOUS
10
4.27015
20
-3.16342
11
4.26696
21
-3.16555
0
LINE
8
BLACK
6
CONTINUOUS
10
4.26696
20
-3.16555
11
4.26319
21
-3.1663
0
LINE
8
BLACK
6
CONTINUOUS
10
4.26319
20
-3.1663
11
4.2435
21
-3.1663
0
LINE
8
BLACK
6
CONTINUOUS
10
4.2435
20
-3.1663
11
4.23974
21
-3.16555
0
LINE
8
BLACK
6
CONTINUOUS
10
4.23974
20
-3.16555
11
4.23654
21
-3.16342
0
LINE
8
BLACK
6
CONTINUOUS
10
4.23654
20
-3.16342
11
4.23441
21
-3.16022
0
LINE
8
BLACK
6
CONTINUOUS
10
4.23441
20
-3.16022
11
4.23366
21
-3.15646
0
LINE
8
BLACK
6
CONTINUOUS
10
4.23366
20
-3.15646
11
4.23366
21
-3.06984
0
LINE
8
BLACK
6
CONTINUOUS
10
4.23366
20
-3.06984
11
4.23441
21
-3.06608
0
LINE
8
BLACK
6
CONTINUOUS
10
4.23441
20
-3.06608
11
4.23654
21
-3.06288
0
LINE
8
BLACK
6
CONTINUOUS
10
4.23654
20
-3.06288
11
4.23974
21
-3.06075
0
LINE
8
BLACK
6
CONTINUOUS
10
4.23974
20
-3.06075
11
4.2435
21
-3.06
0
LINE
8
BLACK
6
CONTINUOUS
10
4.2435
20
-3.06
11
4.26319
21
-3.06
0
LINE
8
BLACK
6
CONTINUOUS
10
4.26319
20
-3.06
11
4.26696
21
-3.06075
0
LINE
8
BLACK
6
CONTINUOUS
10
4.56026
20
-3.06075
11
4.56346
21
-3.06288
0
LINE
8
BLACK
6
CONTINUOUS
10
4.56346
20
-3.06288
11
4.56559
21
-3.06608
0
LINE
8
BLACK
6
CONTINUOUS
10
4.56559
20
-3.06608
11
4.56634
21
-3.06984
0
LINE
8
BLACK
6
CONTINUOUS
10
4.56634
20
-3.06984
11
4.56634
21
-3.15646
0
LINE
8
BLACK
6
CONTINUOUS
10
4.56634
20
-3.15646
11
4.56559
21
-3.16022
0
LINE
8
BLACK
6
CONTINUOUS
10
4.56559
20
-3.16022
11
4.56346
21
-3.16342
0
LINE
8
BLACK
6
CONTINUOUS
10
4.56346
20
-3.16342
11
4.56026
21
-3.16555
0
LINE
8
BLACK
6
CONTINUOUS
10
4.56026
20
-3.16555
11
4.5565
21
-3.1663
0
LINE
8
BLACK
6
CONTINUOUS
10
4.5565
20
-3.1663
11
4.53681
21
-3.1663
0
LINE
8
BLACK
6
CONTINUOUS
10
4.53681
20
-3.1663
11
4.53304
21
-3.16555
0
LINE
8
BLACK
6
CONTINUOUS
10
4.53304
20
-3.16555
11
4.52985
21
-3.16342
0
LINE
8
BLACK
6
CONTINUOUS
10
4.52985
20
-3.16342
11
4.52772
21
-3.16022
0
LINE
8
BLACK
6
CONTINUOUS
10
4.52772
20
-3.16022
11
4.52697
21
-3.15646
0
LINE
8
BLACK
6
CONTINUOUS
10
4.52697
20
-3.15646
11
4.52697
21
-3.06984
0
LINE
8
BLACK
6
CONTINUOUS
10
4.52697
20
-3.06984
11
4.52772
21
-3.06608
0
LINE
8
BLACK
6
CONTINUOUS
10
4.52772
20
-3.06608
11
4.52985
21
-3.06288
0
LINE
8
BLACK
6
CONTINUOUS
10
4.52985
20
-3.06288
11
4.53304
21
-3.06075
0
LINE
8
BLACK
6
CONTINUOUS
10
4.53304
20
-3.06075
11
4.53681
21
-3.06
0
LINE
8
BLACK
6
CONTINUOUS
10
4.53681
20
-3.06
11
4.5565
21
-3.06
0
LINE
8
BLACK
6
CONTINUOUS
10
4.5565
20
-3.06
11
4.56026
21
-3.06075
0
LINE
8
BLACK
6
CONTINUOUS
10
4.33435
20
-2.95415
11
4.33626
21
-2.95543
0
LINE
8
BLACK
6
CONTINUOUS
10
4.33626
20
-2.95543
11
4.33754
21
-2.95735
0
LINE
8
BLACK
6
CONTINUOUS
10
4.33754
20
-2.95735
11
4.33799
21
-2.95961
0
LINE
8
BLACK
6
CONTINUOUS
10
4.33799
20
-2.95961
11
4.33799
21
-3.01472
0
LINE
8
BLACK
6
CONTINUOUS
10
4.33799
20
-3.01472
11
4.33754
21
-3.01698
0
LINE
8
BLACK
6
CONTINUOUS
10
4.33754
20
-3.01698
11
4.33626
21
-3.0189
0
LINE
8
BLACK
6
CONTINUOUS
10
4.33626
20
-3.0189
11
4.33435
21
-3.02018
0
LINE
8
BLACK
6
CONTINUOUS
10
4.33435
20
-3.02018
11
4.33209
21
-3.02063
0
LINE
8
BLACK
6
CONTINUOUS
10
4.33209
20
-3.02063
11
4.32028
21
-3.02063
0
LINE
8
BLACK
6
CONTINUOUS
10
4.32028
20
-3.02063
11
4.31802
21
-3.02018
0
LINE
8
BLACK
6
CONTINUOUS
10
4.31802
20
-3.02018
11
4.3161
21
-3.0189
0
LINE
8
BLACK
6
CONTINUOUS
10
4.3161
20
-3.0189
11
4.31482
21
-3.01698
0
LINE
8
BLACK
6
CONTINUOUS
10
4.31482
20
-3.01698
11
4.31437
21
-3.01472
0
LINE
8
BLACK
6
CONTINUOUS
10
4.31437
20
-3.01472
11
4.31437
21
-2.95961
0
LINE
8
BLACK
6
CONTINUOUS
10
4.31437
20
-2.95961
11
4.31482
21
-2.95735
0
LINE
8
BLACK
6
CONTINUOUS
10
4.31482
20
-2.95735
11
4.3161
21
-2.95543
0
LINE
8
BLACK
6
CONTINUOUS
10
4.3161
20
-2.95543
11
4.31802
21
-2.95415
0
LINE
8
BLACK
6
CONTINUOUS
10
4.31802
20
-2.95415
11
4.32028
21
-2.9537
0
LINE
8
BLACK
6
CONTINUOUS
10
4.32028
20
-2.9537
11
4.33209
21
-2.9537
0
LINE
8
BLACK
6
CONTINUOUS
10
4.33209
20
-2.9537
11
4.33435
21
-2.95415
0
LINE
8
BLACK
6
CONTINUOUS
10
4.38356
20
-2.95415
11
4.38548
21
-2.95543
0
LINE
8
BLACK
6
CONTINUOUS
10
4.38548
20
-2.95543
11
4.38676
21
-2.95735
0
LINE
8
BLACK
6
CONTINUOUS
10
4.38676
20
-2.95735
11
4.3872
21
-2.95961
0
LINE
8
BLACK
6
CONTINUOUS
10
4.3872
20
-2.95961
11
4.3872
21
-3.01472
0
LINE
8
BLACK
6
CONTINUOUS
10
4.3872
20
-3.01472
11
4.38676
21
-3.01698
0
LINE
8
BLACK
6
CONTINUOUS
10
4.38676
20
-3.01698
11
4.38548
21
-3.0189
0
LINE
8
BLACK
6
CONTINUOUS
10
4.38548
20
-3.0189
11
4.38356
21
-3.02018
0
LINE
8
BLACK
6
CONTINUOUS
10
4.38356
20
-3.02018
11
4.3813
21
-3.02063
0
LINE
8
BLACK
6
CONTINUOUS
10
4.3813
20
-3.02063
11
4.36949
21
-3.02063
0
LINE
8
BLACK
6
CONTINUOUS
10
4.36949
20
-3.02063
11
4.36723
21
-3.02018
0
LINE
8
BLACK
6
CONTINUOUS
10
4.36723
20
-3.02018
11
4.36531
21
-3.0189
0
LINE
8
BLACK
6
CONTINUOUS
10
4.36531
20
-3.0189
11
4.36403
21
-3.01698
0
LINE
8
BLACK
6
CONTINUOUS
10
4.36403
20
-3.01698
11
4.36358
21
-3.01472
0
LINE
8
BLACK
6
CONTINUOUS
10
4.36358
20
-3.01472
11
4.36358
21
-2.95961
0
LINE
8
BLACK
6
CONTINUOUS
10
4.36358
20
-2.95961
11
4.36403
21
-2.95735
0
LINE
8
BLACK
6
CONTINUOUS
10
4.36403
20
-2.95735
11
4.36531
21
-2.95543
0
LINE
8
BLACK
6
CONTINUOUS
10
4.36531
20
-2.95543
11
4.36723
21
-2.95415
0
LINE
8
BLACK
6
CONTINUOUS
10
4.36723
20
-2.95415
11
4.36949
21
-2.9537
0
LINE
8
BLACK
6
CONTINUOUS
10
4.36949
20
-2.9537
11
4.3813
21
-2.9537
0
LINE
8
BLACK
6
CONTINUOUS
10
4.3813
20
-2.9537
11
4.38356
21
-2.95415
0
LINE
8
BLACK
6
CONTINUOUS
10
4.43277
20
-2.95415
11
4.43469
21
-2.95543
0
LINE
8
BLACK
6
CONTINUOUS
10
4.43469
20
-2.95543
11
4.43597
21
-2.95735
0
LINE
8
BLACK
6
CONTINUOUS
10
4.43597
20
-2.95735
11
4.43642
21
-2.95961
0
LINE
8
BLACK
6
CONTINUOUS
10
4.43642
20
-2.95961
11
4.43642
21
-3.01472
0
LINE
8
BLACK
6
CONTINUOUS
10
4.43642
20
-3.01472
11
4.43597
21
-3.01698
0
LINE
8
BLACK
6
CONTINUOUS
10
4.43597
20
-3.01698
11
4.43469
21
-3.0189
0
LINE
8
BLACK
6
CONTINUOUS
10
4.43469
20
-3.0189
11
4.43277
21
-3.02018
0
LINE
8
BLACK
6
CONTINUOUS
10
4.43277
20
-3.02018
11
4.43051
21
-3.02063
0
LINE
8
BLACK
6
CONTINUOUS
10
4.43051
20
-3.02063
11
4.4187
21
-3.02063
0
LINE
8
BLACK
6
CONTINUOUS
10
4.4187
20
-3.02063
11
4.41644
21
-3.02018
0
LINE
8
BLACK
6
CONTINUOUS
10
4.41644
20
-3.02018
11
4.41452
21
-3.0189
0
LINE
8
BLACK
6
CONTINUOUS
10
4.41452
20
-3.0189
11
4.41324
21
-3.01698
0
LINE
8
BLACK
6
CONTINUOUS
10
4.41324
20
-3.01698
11
4.4128
21
-3.01472
0
LINE
8
BLACK
6
CONTINUOUS
10
4.4128
20
-3.01472
11
4.4128
21
-2.95961
0
LINE
8
BLACK
6
CONTINUOUS
10
4.4128
20
-2.95961
11
4.41324
21
-2.95735
0
LINE
8
BLACK
6
CONTINUOUS
10
4.41324
20
-2.95735
11
4.41452
21
-2.95543
0
LINE
8
BLACK
6
CONTINUOUS
10
4.41452
20
-2.95543
11
4.41644
21
-2.95415
0
LINE
8
BLACK
6
CONTINUOUS
10
4.41644
20
-2.95415
11
4.4187
21
-2.9537
0
LINE
8
BLACK
6
CONTINUOUS
10
4.4187
20
-2.9537
11
4.43051
21
-2.9537
0
LINE
8
BLACK
6
CONTINUOUS
10
4.43051
20
-2.9537
11
4.43277
21
-2.95415
0
LINE
8
BLACK
6
CONTINUOUS
10
4.48198
20
-2.95415
11
4.4839
21
-2.95543
0
LINE
8
BLACK
6
CONTINUOUS
10
4.4839
20
-2.95543
11
4.48518
21
-2.95735
0
LINE
8
BLACK
6
CONTINUOUS
10
4.48518
20
-2.95735
11
4.48563
21
-2.95961
0
LINE
8
BLACK
6
CONTINUOUS
10
4.48563
20
-2.95961
11
4.48563
21
-3.01472
0
LINE
8
BLACK
6
CONTINUOUS
10
4.48563
20
-3.01472
11
4.48518
21
-3.01698
0
LINE
8
BLACK
6
CONTINUOUS
10
4.48518
20
-3.01698
11
4.4839
21
-3.0189
0
LINE
8
BLACK
6
CONTINUOUS
10
4.4839
20
-3.0189
11
4.48198
21
-3.02018
0
LINE
8
BLACK
6
CONTINUOUS
10
4.48198
20
-3.02018
11
4.47972
21
-3.02063
0
LINE
8
BLACK
6
CONTINUOUS
10
4.47972
20
-3.02063
11
4.46791
21
-3.02063
0
LINE
8
BLACK
6
CONTINUOUS
10
4.46791
20
-3.02063
11
4.46565
21
-3.02018
0
LINE
8
BLACK
6
CONTINUOUS
10
4.46565
20
-3.02018
11
4.46374
21
-3.0189
0
LINE
8
BLACK
6
CONTINUOUS
10
4.46374
20
-3.0189
11
4.46246
21
-3.01698
0
LINE
8
BLACK
6
CONTINUOUS
10
4.46246
20
-3.01698
11
4.46201
21
-3.01472
0
LINE
8
BLACK
6
CONTINUOUS
10
4.46201
20
-3.01472
11
4.46201
21
-2.95961
0
LINE
8
BLACK
6
CONTINUOUS
10
4.46201
20
-2.95961
11
4.46246
21
-2.95735
0
LINE
8
BLACK
6
CONTINUOUS
10
4.46246
20
-2.95735
11
4.46374
21
-2.95543
0
LINE
8
BLACK
6
CONTINUOUS
10
4.46374
20
-2.95543
11
4.46565
21
-2.95415
0
LINE
8
BLACK
6
CONTINUOUS
10
4.46565
20
-2.95415
11
4.46791
21
-2.9537
0
LINE
8
BLACK
6
CONTINUOUS
10
4.46791
20
-2.9537
11
4.47972
21
-2.9537
0
LINE
8
BLACK
6
CONTINUOUS
10
4.47972
20
-2.9537
11
4.48198
21
-2.95415
0
LINE
8
BLACK
6
CONTINUOUS
10
4.33435
20
-2.58982
11
4.33626
21
-2.5911
0
LINE
8
BLACK
6
CONTINUOUS
10
4.33626
20
-2.5911
11
4.33754
21
-2.59302
0
LINE
8
BLACK
6
CONTINUOUS
10
4.33754
20
-2.59302
11
4.33799
21
-2.59528
0
LINE
8
BLACK
6
CONTINUOUS
10
4.33799
20
-2.59528
11
4.33799
21
-2.65039
0
LINE
8
BLACK
6
CONTINUOUS
10
4.33799
20
-2.65039
11
4.33754
21
-2.65265
0
LINE
8
BLACK
6
CONTINUOUS
10
4.33754
20
-2.65265
11
4.33626
21
-2.65457
0
LINE
8
BLACK
6
CONTINUOUS
10
4.33626
20
-2.65457
11
4.33435
21
-2.65585
0
LINE
8
BLACK
6
CONTINUOUS
10
4.33435
20
-2.65585
11
4.33209
21
-2.6563
0
LINE
8
BLACK
6
CONTINUOUS
10
4.33209
20
-2.6563
11
4.32028
21
-2.6563
0
LINE
8
BLACK
6
CONTINUOUS
10
4.32028
20
-2.6563
11
4.31802
21
-2.65585
0
LINE
8
BLACK
6
CONTINUOUS
10
4.31802
20
-2.65585
11
4.3161
21
-2.65457
0
LINE
8
BLACK
6
CONTINUOUS
10
4.3161
20
-2.65457
11
4.31482
21
-2.65265
0
LINE
8
BLACK
6
CONTINUOUS
10
4.31482
20
-2.65265
11
4.31437
21
-2.65039
0
LINE
8
BLACK
6
CONTINUOUS
10
4.31437
20
-2.65039
11
4.31437
21
-2.59528
0
LINE
8
BLACK
6
CONTINUOUS
10
4.31437
20
-2.59528
11
4.31482
21
-2.59302
0
LINE
8
BLACK
6
CONTINUOUS
10
4.31482
20
-2.59302
11
4.3161
21
-2.5911
0
LINE
8
BLACK
6
CONTINUOUS
10
4.3161
20
-2.5911
11
4.31802
21
-2.58982
0
LINE
8
BLACK
6
CONTINUOUS
10
4.31802
20
-2.58982
11
4.32028
21
-2.58937
0
LINE
8
BLACK
6
CONTINUOUS
10
4.32028
20
-2.58937
11
4.33209
21
-2.58937
0
LINE
8
BLACK
6
CONTINUOUS
10
4.33209
20
-2.58937
11
4.33435
21
-2.58982
0
LINE
8
BLACK
6
CONTINUOUS
10
4.38356
20
-2.58982
11
4.38548
21
-2.5911
0
LINE
8
BLACK
6
CONTINUOUS
10
4.38548
20
-2.5911
11
4.38676
21
-2.59302
0
LINE
8
BLACK
6
CONTINUOUS
10
4.38676
20
-2.59302
11
4.3872
21
-2.59528
0
LINE
8
BLACK
6
CONTINUOUS
10
4.3872
20
-2.59528
11
4.3872
21
-2.65039
0
LINE
8
BLACK
6
CONTINUOUS
10
4.3872
20
-2.65039
11
4.38676
21
-2.65265
0
LINE
8
BLACK
6
CONTINUOUS
10
4.38676
20
-2.65265
11
4.38548
21
-2.65457
0
LINE
8
BLACK
6
CONTINUOUS
10
4.38548
20
-2.65457
11
4.38356
21
-2.65585
0
LINE
8
BLACK
6
CONTINUOUS
10
4.38356
20
-2.65585
11
4.3813
21
-2.6563
0
LINE
8
BLACK
6
CONTINUOUS
10
4.3813
20
-2.6563
11
4.36949
21
-2.6563
0
LINE
8
BLACK
6
CONTINUOUS
10
4.36949
20
-2.6563
11
4.36723
21
-2.65585
0
LINE
8
BLACK
6
CONTINUOUS
10
4.36723
20
-2.65585
11
4.36531
21
-2.65457
0
LINE
8
BLACK
6
CONTINUOUS
10
4.36531
20
-2.65457
11
4.36403
21
-2.65265
0
LINE
8
BLACK
6
CONTINUOUS
10
4.36403
20
-2.65265
11
4.36358
21
-2.65039
0
LINE
8
BLACK
6
CONTINUOUS
10
4.36358
20
-2.65039
11
4.36358
21
-2.59528
0
LINE
8
BLACK
6
CONTINUOUS
10
4.36358
20
-2.59528
11
4.36403
21
-2.59302
0
LINE
8
BLACK
6
CONTINUOUS
10
4.36403
20
-2.59302
11
4.36531
21
-2.5911
0
LINE
8
BLACK
6
CONTINUOUS
10
4.36531
20
-2.5911
11
4.36723
21
-2.58982
0
LINE
8
BLACK
6
CONTINUOUS
10
4.36723
20
-2.58982
11
4.36949
21
-2.58937
0
LINE
8
BLACK
6
CONTINUOUS
10
4.36949
20
-2.58937
11
4.3813
21
-2.58937
0
LINE
8
BLACK
6
CONTINUOUS
10
4.3813
20
-2.58937
11
4.38356
21
-2.58982
0
LINE
8
BLACK
6
CONTINUOUS
10
4.43277
20
-2.58982
11
4.43469
21
-2.5911
0
LINE
8
BLACK
6
CONTINUOUS
10
4.43469
20
-2.5911
11
4.43597
21
-2.59302
0
LINE
8
BLACK
6
CONTINUOUS
10
4.43597
20
-2.59302
11
4.43642
21
-2.59528
0
LINE
8
BLACK
6
CONTINUOUS
10
4.43642
20
-2.59528
11
4.43642
21
-2.65039
0
LINE
8
BLACK
6
CONTINUOUS
10
4.43642
20
-2.65039
11
4.43597
21
-2.65265
0
LINE
8
BLACK
6
CONTINUOUS
10
4.43597
20
-2.65265
11
4.43469
21
-2.65457
0
LINE
8
BLACK
6
CONTINUOUS
10
4.43469
20
-2.65457
11
4.43277
21
-2.65585
0
LINE
8
BLACK
6
CONTINUOUS
10
4.43277
20
-2.65585
11
4.43051
21
-2.6563
0
LINE
8
BLACK
6
CONTINUOUS
10
4.43051
20
-2.6563
11
4.4187
21
-2.6563
0
LINE
8
BLACK
6
CONTINUOUS
10
4.4187
20
-2.6563
11
4.41644
21
-2.65585
0
LINE
8
BLACK
6
CONTINUOUS
10
4.41644
20
-2.65585
11
4.41452
21
-2.65457
0
LINE
8
BLACK
6
CONTINUOUS
10
4.41452
20
-2.65457
11
4.41324
21
-2.65265
0
LINE
8
BLACK
6
CONTINUOUS
10
4.41324
20
-2.65265
11
4.4128
21
-2.65039
0
LINE
8
BLACK
6
CONTINUOUS
10
4.4128
20
-2.65039
11
4.4128
21
-2.59528
0
LINE
8
BLACK
6
CONTINUOUS
10
4.4128
20
-2.59528
11
4.41324
21
-2.59302
0
LINE
8
BLACK
6
CONTINUOUS
10
4.41324
20
-2.59302
11
4.41452
21
-2.5911
0
LINE
8
BLACK
6
CONTINUOUS
10
4.41452
20
-2.5911
11
4.41644
21
-2.58982
0
LINE
8
BLACK
6
CONTINUOUS
10
4.41644
20
-2.58982
11
4.4187
21
-2.58937
0
LINE
8
BLACK
6
CONTINUOUS
10
4.4187
20
-2.58937
11
4.43051
21
-2.58937
0
LINE
8
BLACK
6
CONTINUOUS
10
4.43051
20
-2.58937
11
4.43277
21
-2.58982
0
LINE
8
BLACK
6
CONTINUOUS
10
4.48198
20
-2.58982
11
4.4839
21
-2.5911
0
LINE
8
BLACK
6
CONTINUOUS
10
4.4839
20
-2.5911
11
4.48518
21
-2.59302
0
LINE
8
BLACK
6
CONTINUOUS
10
4.48518
20
-2.59302
11
4.48563
21
-2.59528
0
LINE
8
BLACK
6
CONTINUOUS
10
4.48563
20
-2.59528
11
4.48563
21
-2.65039
0
LINE
8
BLACK
6
CONTINUOUS
10
4.48563
20
-2.65039
11
4.48518
21
-2.65265
0
LINE
8
BLACK
6
CONTINUOUS
10
4.48518
20
-2.65265
11
4.4839
21
-2.65457
0
LINE
8
BLACK
6
CONTINUOUS
10
4.4839
20
-2.65457
11
4.48198
21
-2.65585
0
LINE
8
BLACK
6
CONTINUOUS
10
4.48198
20
-2.65585
11
4.47972
21
-2.6563
0
LINE
8
BLACK
6
CONTINUOUS
10
4.47972
20
-2.6563
11
4.46791
21
-2.6563
0
LINE
8
BLACK
6
CONTINUOUS
10
4.46791
20
-2.6563
11
4.46565
21
-2.65585
0
LINE
8
BLACK
6
CONTINUOUS
10
4.46565
20
-2.65585
11
4.46374
21
-2.65457
0
LINE
8
BLACK
6
CONTINUOUS
10
4.46374
20
-2.65457
11
4.46246
21
-2.65265
0
LINE
8
BLACK
6
CONTINUOUS
10
4.46246
20
-2.65265
11
4.46201
21
-2.65039
0
LINE
8
BLACK
6
CONTINUOUS
10
4.46201
20
-2.65039
11
4.46201
21
-2.59528
0
LINE
8
BLACK
6
CONTINUOUS
10
4.46201
20
-2.59528
11
4.46246
21
-2.59302
0
LINE
8
BLACK
6
CONTINUOUS
10
4.46246
20
-2.59302
11
4.46374
21
-2.5911
0
LINE
8
BLACK
6
CONTINUOUS
10
4.46374
20
-2.5911
11
4.46565
21
-2.58982
0
LINE
8
BLACK
6
CONTINUOUS
10
4.46565
20
-2.58982
11
4.46791
21
-2.58937
0
LINE
8
BLACK
6
CONTINUOUS
10
4.46791
20
-2.58937
11
4.47972
21
-2.58937
0
LINE
8
BLACK
6
CONTINUOUS
10
4.47972
20
-2.58937
11
4.48198
21
-2.58982
0
LINE
8
BLACK
6
CONTINUOUS
10
4.26696
20
-2.44445
11
4.27015
21
-2.44658
0
LINE
8
BLACK
6
CONTINUOUS
10
4.27015
20
-2.44658
11
4.27228
21
-2.44978
0
LINE
8
BLACK
6
CONTINUOUS
10
4.27228
20
-2.44978
11
4.27303
21
-2.45354
0
LINE
8
BLACK
6
CONTINUOUS
10
4.27303
20
-2.45354
11
4.27303
21
-2.54016
0
LINE
8
BLACK
6
CONTINUOUS
10
4.27303
20
-2.54016
11
4.27228
21
-2.54392
0
LINE
8
BLACK
6
CONTINUOUS
10
4.27228
20
-2.54392
11
4.27015
21
-2.54712
0
LINE
8
BLACK
6
CONTINUOUS
10
4.27015
20
-2.54712
11
4.26696
21
-2.54925
0
LINE
8
BLACK
6
CONTINUOUS
10
4.26696
20
-2.54925
11
4.26319
21
-2.55
0
LINE
8
BLACK
6
CONTINUOUS
10
4.26319
20
-2.55
11
4.2435
21
-2.55
0
LINE
8
BLACK
6
CONTINUOUS
10
4.2435
20
-2.55
11
4.23974
21
-2.54925
0
LINE
8
BLACK
6
CONTINUOUS
10
4.23974
20
-2.54925
11
4.23654
21
-2.54712
0
LINE
8
BLACK
6
CONTINUOUS
10
4.23654
20
-2.54712
11
4.23441
21
-2.54392
0
LINE
8
BLACK
6
CONTINUOUS
10
4.23441
20
-2.54392
11
4.23366
21
-2.54016
0
LINE
8
BLACK
6
CONTINUOUS
10
4.23366
20
-2.54016
11
4.23366
21
-2.45354
0
LINE
8
BLACK
6
CONTINUOUS
10
4.23366
20
-2.45354
11
4.23441
21
-2.44978
0
LINE
8
BLACK
6
CONTINUOUS
10
4.23441
20
-2.44978
11
4.23654
21
-2.44658
0
LINE
8
BLACK
6
CONTINUOUS
10
4.23654
20
-2.44658
11
4.23974
21
-2.44445
0
LINE
8
BLACK
6
CONTINUOUS
10
4.23974
20
-2.44445
11
4.2435
21
-2.4437
0
LINE
8
BLACK
6
CONTINUOUS
10
4.2435
20
-2.4437
11
4.26319
21
-2.4437
0
LINE
8
BLACK
6
CONTINUOUS
10
4.26319
20
-2.4437
11
4.26696
21
-2.44445
0
LINE
8
BLACK
6
CONTINUOUS
10
4.56026
20
-2.44445
11
4.56346
21
-2.44658
0
LINE
8
BLACK
6
CONTINUOUS
10
4.56346
20
-2.44658
11
4.56559
21
-2.44978
0
LINE
8
BLACK
6
CONTINUOUS
10
4.56559
20
-2.44978
11
4.56634
21
-2.45354
0
LINE
8
BLACK
6
CONTINUOUS
10
4.56634
20
-2.45354
11
4.56634
21
-2.54016
0
LINE
8
BLACK
6
CONTINUOUS
10
4.56634
20
-2.54016
11
4.56559
21
-2.54392
0
LINE
8
BLACK
6
CONTINUOUS
10
4.56559
20
-2.54392
11
4.56346
21
-2.54712
0
LINE
8
BLACK
6
CONTINUOUS
10
4.56346
20
-2.54712
11
4.56026
21
-2.54925
0
LINE
8
BLACK
6
CONTINUOUS
10
4.56026
20
-2.54925
11
4.5565
21
-2.55
0
LINE
8
BLACK
6
CONTINUOUS
10
4.5565
20
-2.55
11
4.53681
21
-2.55
0
LINE
8
BLACK
6
CONTINUOUS
10
4.53681
20
-2.55
11
4.53304
21
-2.54925
0
LINE
8
BLACK
6
CONTINUOUS
10
4.53304
20
-2.54925
11
4.52985
21
-2.54712
0
LINE
8
BLACK
6
CONTINUOUS
10
4.52985
20
-2.54712
11
4.52772
21
-2.54392
0
LINE
8
BLACK
6
CONTINUOUS
10
4.52772
20
-2.54392
11
4.52697
21
-2.54016
0
LINE
8
BLACK
6
CONTINUOUS
10
4.52697
20
-2.54016
11
4.52697
21
-2.45354
0
LINE
8
BLACK
6
CONTINUOUS
10
4.52697
20
-2.45354
11
4.52772
21
-2.44978
0
LINE
8
BLACK
6
CONTINUOUS
10
4.52772
20
-2.44978
11
4.52985
21
-2.44658
0
LINE
8
BLACK
6
CONTINUOUS
10
4.52985
20
-2.44658
11
4.53304
21
-2.44445
0
LINE
8
BLACK
6
CONTINUOUS
10
4.53304
20
-2.44445
11
4.53681
21
-2.4437
0
LINE
8
BLACK
6
CONTINUOUS
10
4.53681
20
-2.4437
11
4.5565
21
-2.4437
0
LINE
8
BLACK
6
CONTINUOUS
10
4.5565
20
-2.4437
11
4.56026
21
-2.44445
  0
ENDSEC
  0
EOF
