<?xml version='1.0' encoding='ASCII' standalone='yes'?>
<svg xmlns:svg="http://www.w3.org/2000/svg" xmlns="http://www.w3.org/2000/svg" xmlns:xlink="http://www.w3.org/1999/xlink" version="1.1" width="297.0022mm" height="210.0072mm" viewBox="0.0000 0.0000 297.0022 210.0072">
<title>SVG Image created as TEMPSEN01-F_Fab.svg date 2023/09/23 00:40:58 </title>
  <desc>Image generated by PCBNEW </desc>
<g style="fill:#848484; fill-opacity:1.0000;stroke:#848484; stroke-opacity:1.0000; stroke-linecap:round; stroke-linejoin:round;" transform="translate(0 0) scale(1 1)">
</g>
<g style="fill:#848484; fill-opacity:0.0;  stroke:#848484; stroke-width:0.0000; stroke-opacity:1;  stroke-linecap:round; stroke-linejoin:round;">
</g>
<g style="fill:#848484; fill-opacity:0.01;  stroke:#848484; stroke-width:1.4814; stroke-opacity:1;  stroke-linecap:round; stroke-linejoin:round;">
<text x="25.5807" y="129.6943" textLength="60.7863" font-size="13.1684" lengthAdjust="spacingAndGlyphs" text-anchor="middle" opacity="0.01" style="font-family:monospace">Fiducial</text>
<g class="stroked-text"><desc>Fiducial</desc>
<path d="M49.0957 124.0748 L52.3878 124.0748 "/>
<path d="M52.3878 129.2481 L52.3878 119.3718 "/>
<path d="M52.3878 119.3718 L47.6848 119.3718 "/>
<path d="M43.9224 129.2481 L43.9224 122.6639 "/>
<path d="M43.9224 119.3718 L44.3927 119.8421 "/>
<path d="M44.3927 119.8421 L43.9224 120.3124 "/>
<path d="M43.9224 120.3124 L43.4521 119.8421 "/>
<path d="M43.4521 119.8421 L43.9224 119.3718 "/>
<path d="M43.9224 119.3718 L43.9224 120.3124 "/>
<path d="M34.9867 129.2481 L34.9867 119.3718 "/>
<path d="M34.9867 128.7778 L35.9273 129.2481 "/>
<path d="M35.9273 129.2481 L37.8085 129.2481 "/>
<path d="M37.8085 129.2481 L38.7491 128.7778 "/>
<path d="M38.7491 128.7778 L39.2194 128.3075 "/>
<path d="M39.2194 128.3075 L39.6897 127.3669 "/>
<path d="M39.6897 127.3669 L39.6897 124.5451 "/>
<path d="M39.6897 124.5451 L39.2194 123.6045 "/>
<path d="M39.2194 123.6045 L38.7491 123.1342 "/>
<path d="M38.7491 123.1342 L37.8085 122.6639 "/>
<path d="M37.8085 122.6639 L35.9273 122.6639 "/>
<path d="M35.9273 122.6639 L34.9867 123.1342 "/>
<path d="M26.0510 122.6639 L26.0510 129.2481 "/>
<path d="M30.2837 122.6639 L30.2837 127.8372 "/>
<path d="M30.2837 127.8372 L29.8134 128.7778 "/>
<path d="M29.8134 128.7778 L28.8728 129.2481 "/>
<path d="M28.8728 129.2481 L27.4619 129.2481 "/>
<path d="M27.4619 129.2481 L26.5213 128.7778 "/>
<path d="M26.5213 128.7778 L26.0510 128.3075 "/>
<path d="M17.1153 128.7778 L18.0559 129.2481 "/>
<path d="M18.0559 129.2481 L19.9371 129.2481 "/>
<path d="M19.9371 129.2481 L20.8777 128.7778 "/>
<path d="M20.8777 128.7778 L21.3480 128.3075 "/>
<path d="M21.3480 128.3075 L21.8183 127.3669 "/>
<path d="M21.8183 127.3669 L21.8183 124.5451 "/>
<path d="M21.8183 124.5451 L21.3480 123.6045 "/>
<path d="M21.3480 123.6045 L20.8777 123.1342 "/>
<path d="M20.8777 123.1342 L19.9371 122.6639 "/>
<path d="M19.9371 122.6639 L18.0559 122.6639 "/>
<path d="M18.0559 122.6639 L17.1153 123.1342 "/>
<path d="M12.8826 129.2481 L12.8826 122.6639 "/>
<path d="M12.8826 119.3718 L13.3529 119.8421 "/>
<path d="M13.3529 119.8421 L12.8826 120.3124 "/>
<path d="M12.8826 120.3124 L12.4123 119.8421 "/>
<path d="M12.4123 119.8421 L12.8826 119.3718 "/>
<path d="M12.8826 119.3718 L12.8826 120.3124 "/>
<path d="M3.9469 129.2481 L3.9469 124.0748 "/>
<path d="M3.9469 124.0748 L4.4172 123.1342 "/>
<path d="M4.4172 123.1342 L5.3578 122.6639 "/>
<path d="M5.3578 122.6639 L7.2390 122.6639 "/>
<path d="M7.2390 122.6639 L8.1796 123.1342 "/>
<path d="M3.9469 128.7778 L4.8875 129.2481 "/>
<path d="M4.8875 129.2481 L7.2390 129.2481 "/>
<path d="M7.2390 129.2481 L8.1796 128.7778 "/>
<path d="M8.1796 128.7778 L8.6499 127.8372 "/>
<path d="M8.6499 127.8372 L8.6499 126.8966 "/>
<path d="M8.6499 126.8966 L8.1796 125.9560 "/>
<path d="M8.1796 125.9560 L7.2390 125.4857 "/>
<path d="M7.2390 125.4857 L4.8875 125.4857 "/>
<path d="M4.8875 125.4857 L3.9469 125.0154 "/>
<path d="M-2.1670 129.2481 L-1.2264 128.7778 "/>
<path d="M-1.2264 128.7778 L-0.7561 127.8372 "/>
<path d="M-0.7561 127.8372 L-0.7561 119.3718 "/>
</g></g>
<g style="fill:#848484; fill-opacity:0.01;  stroke:#848484; stroke-width:0.5926; stroke-opacity:1;  stroke-linecap:round; stroke-linejoin:round;">
<text x="25.5807" y="106.9789" textLength="13.9679" font-size="5.2674" lengthAdjust="spacingAndGlyphs" text-anchor="middle" opacity="0.01" style="font-family:monospace">FID2</text>
<g class="stroked-text"><desc>FID2</desc>
<path d="M29.8134 104.7310 L31.1302 104.7310 "/>
<path d="M31.1302 106.8004 L31.1302 102.8498 "/>
<path d="M31.1302 102.8498 L29.2490 102.8498 "/>
<path d="M27.7441 106.8004 L27.7441 102.8498 "/>
<path d="M25.8629 106.8004 L25.8629 102.8498 "/>
<path d="M25.8629 102.8498 L24.9223 102.8498 "/>
<path d="M24.9223 102.8498 L24.3579 103.0380 "/>
<path d="M24.3579 103.0380 L23.9817 103.4142 "/>
<path d="M23.9817 103.4142 L23.7936 103.7904 "/>
<path d="M23.7936 103.7904 L23.6055 104.5429 "/>
<path d="M23.6055 104.5429 L23.6055 105.1073 "/>
<path d="M23.6055 105.1073 L23.7936 105.8598 "/>
<path d="M23.7936 105.8598 L23.9817 106.2360 "/>
<path d="M23.9817 106.2360 L24.3579 106.6123 "/>
<path d="M24.3579 106.6123 L24.9223 106.8004 "/>
<path d="M24.9223 106.8004 L25.8629 106.8004 "/>
<path d="M22.1005 103.2261 L21.9124 103.0380 "/>
<path d="M21.9124 103.0380 L21.5361 102.8498 "/>
<path d="M21.5361 102.8498 L20.5955 102.8498 "/>
<path d="M20.5955 102.8498 L20.2193 103.0380 "/>
<path d="M20.2193 103.0380 L20.0312 103.2261 "/>
<path d="M20.0312 103.2261 L19.8431 103.6023 "/>
<path d="M19.8431 103.6023 L19.8431 103.9786 "/>
<path d="M19.8431 103.9786 L20.0312 104.5429 "/>
<path d="M20.0312 104.5429 L22.2886 106.8004 "/>
<path d="M22.2886 106.8004 L19.8431 106.8004 "/>
</g></g>
<g style="fill:#848484; fill-opacity:0.0;  stroke:#848484; stroke-width:1.4814; stroke-opacity:1;  stroke-linecap:round; stroke-linejoin:round;">
<g transform="rotate(-90.000000 182.3314 69.3433)">
<text x="182.3314" y="74.2814" textLength="29.2762" font-size="13.1684" lengthAdjust="spacingAndGlyphs" text-anchor="middle" opacity="0.01" style="font-family:monospace">1uF</text>
</g>
<g class="stroked-text"><desc>1uF</desc>
<path d="M177.8394 75.2220 L177.8394 80.8656 "/>
<path d="M177.8394 78.0438 L187.7157 78.0438 "/>
<path d="M187.7157 78.0438 L186.3048 78.9844 "/>
<path d="M186.3048 78.9844 L185.3642 79.9250 "/>
<path d="M185.3642 79.9250 L184.8939 80.8656 "/>
<path d="M184.4236 66.7566 L177.8394 66.7566 "/>
<path d="M184.4236 70.9893 L179.2504 70.9893 "/>
<path d="M179.2504 70.9893 L178.3097 70.5190 "/>
<path d="M178.3097 70.5190 L177.8394 69.5784 "/>
<path d="M177.8394 69.5784 L177.8394 68.1675 "/>
<path d="M177.8394 68.1675 L178.3097 67.2269 "/>
<path d="M178.3097 67.2269 L178.7801 66.7566 "/>
<path d="M183.0127 58.7615 L183.0127 62.0536 "/>
<path d="M177.8394 62.0536 L187.7157 62.0536 "/>
<path d="M187.7157 62.0536 L187.7157 57.3506 "/>
</g></g>
<g style="fill:#848484; fill-opacity:0.0;  stroke:#848484; stroke-width:0.7901; stroke-opacity:1;  stroke-linecap:round; stroke-linejoin:round;">
<g transform="rotate(-90.000000 198.9235 69.3433)">
<text x="198.9235" y="71.8123" textLength="11.0238" font-size="6.5842" lengthAdjust="spacingAndGlyphs" text-anchor="middle" opacity="0.01" style="font-family:monospace">C5</text>
</g>
<g class="stroked-text"><desc>C5</desc>
<path d="M197.1505 70.1663 L196.9153 70.4014 "/>
<path d="M196.9153 70.4014 L196.6802 71.1069 "/>
<path d="M196.6802 71.1069 L196.6802 71.5772 "/>
<path d="M196.6802 71.5772 L196.9153 72.2826 "/>
<path d="M196.9153 72.2826 L197.3856 72.7529 "/>
<path d="M197.3856 72.7529 L197.8559 72.9881 "/>
<path d="M197.8559 72.9881 L198.7965 73.2232 "/>
<path d="M198.7965 73.2232 L199.5020 73.2232 "/>
<path d="M199.5020 73.2232 L200.4426 72.9881 "/>
<path d="M200.4426 72.9881 L200.9129 72.7529 "/>
<path d="M200.9129 72.7529 L201.3832 72.2826 "/>
<path d="M201.3832 72.2826 L201.6183 71.5772 "/>
<path d="M201.6183 71.5772 L201.6183 71.1069 "/>
<path d="M201.6183 71.1069 L201.3832 70.4014 "/>
<path d="M201.3832 70.4014 L201.1480 70.1663 "/>
<path d="M201.6183 65.6984 L201.6183 68.0499 "/>
<path d="M201.6183 68.0499 L199.2668 68.2851 "/>
<path d="M199.2668 68.2851 L199.5020 68.0499 "/>
<path d="M199.5020 68.0499 L199.7371 67.5796 "/>
<path d="M199.7371 67.5796 L199.7371 66.4039 "/>
<path d="M199.7371 66.4039 L199.5020 65.9336 "/>
<path d="M199.5020 65.9336 L199.2668 65.6984 "/>
<path d="M199.2668 65.6984 L198.7965 65.4633 "/>
<path d="M198.7965 65.4633 L197.6208 65.4633 "/>
<path d="M197.6208 65.4633 L197.1505 65.6984 "/>
<path d="M197.1505 65.6984 L196.9153 65.9336 "/>
<path d="M196.9153 65.9336 L196.6802 66.4039 "/>
<path d="M196.6802 66.4039 L196.6802 67.5796 "/>
<path d="M196.6802 67.5796 L196.9153 68.0499 "/>
<path d="M196.9153 68.0499 L197.1505 68.2851 "/>
</g></g>
<g style="fill:#848484; fill-opacity:0.01;  stroke:#848484; stroke-width:2.5086; stroke-opacity:1;  stroke-linecap:round; stroke-linejoin:round;">
<text x="148.5011" y="111.2751" textLength="35.4785" font-size="16.7239" lengthAdjust="spacingAndGlyphs" text-anchor="middle" opacity="0.01" style="font-family:monospace">IC1</text>
<g class="stroked-text"><desc>IC1</desc>
<path d="M160.7454 110.6757 L160.7454 98.1328 "/>
<path d="M147.6052 109.4812 L148.2025 110.0785 "/>
<path d="M148.2025 110.0785 L149.9943 110.6757 "/>
<path d="M149.9943 110.6757 L151.1889 110.6757 "/>
<path d="M151.1889 110.6757 L152.9807 110.0785 "/>
<path d="M152.9807 110.0785 L154.1753 108.8839 "/>
<path d="M154.1753 108.8839 L154.7726 107.6893 "/>
<path d="M154.7726 107.6893 L155.3698 105.3002 "/>
<path d="M155.3698 105.3002 L155.3698 103.5084 "/>
<path d="M155.3698 103.5084 L154.7726 101.1192 "/>
<path d="M154.7726 101.1192 L154.1753 99.9247 "/>
<path d="M154.1753 99.9247 L152.9807 98.7301 "/>
<path d="M152.9807 98.7301 L151.1889 98.1328 "/>
<path d="M151.1889 98.1328 L149.9943 98.1328 "/>
<path d="M149.9943 98.1328 L148.2025 98.7301 "/>
<path d="M148.2025 98.7301 L147.6052 99.3274 "/>
<path d="M135.6596 110.6757 L142.8269 110.6757 "/>
<path d="M139.2433 110.6757 L139.2433 98.1328 "/>
<path d="M139.2433 98.1328 L140.4378 99.9247 "/>
<path d="M140.4378 99.9247 L141.6324 101.1192 "/>
<path d="M141.6324 101.1192 L142.8269 101.7165 "/>
</g></g>
<g style="fill:#848484; fill-opacity:0.01;  stroke:#848484; stroke-width:1.4814; stroke-opacity:1;  stroke-linecap:round; stroke-linejoin:round;">
<text x="271.4215" y="129.6943" textLength="60.7863" font-size="13.1684" lengthAdjust="spacingAndGlyphs" text-anchor="middle" opacity="0.01" style="font-family:monospace">Fiducial</text>
<g class="stroked-text"><desc>Fiducial</desc>
<path d="M294.9365 124.0748 L298.2286 124.0748 "/>
<path d="M298.2286 129.2481 L298.2286 119.3718 "/>
<path d="M298.2286 119.3718 L293.5256 119.3718 "/>
<path d="M289.7632 129.2481 L289.7632 122.6639 "/>
<path d="M289.7632 119.3718 L290.2335 119.8421 "/>
<path d="M290.2335 119.8421 L289.7632 120.3124 "/>
<path d="M289.7632 120.3124 L289.2929 119.8421 "/>
<path d="M289.2929 119.8421 L289.7632 119.3718 "/>
<path d="M289.7632 119.3718 L289.7632 120.3124 "/>
<path d="M280.8275 129.2481 L280.8275 119.3718 "/>
<path d="M280.8275 128.7778 L281.7681 129.2481 "/>
<path d="M281.7681 129.2481 L283.6493 129.2481 "/>
<path d="M283.6493 129.2481 L284.5899 128.7778 "/>
<path d="M284.5899 128.7778 L285.0602 128.3075 "/>
<path d="M285.0602 128.3075 L285.5305 127.3669 "/>
<path d="M285.5305 127.3669 L285.5305 124.5451 "/>
<path d="M285.5305 124.5451 L285.0602 123.6045 "/>
<path d="M285.0602 123.6045 L284.5899 123.1342 "/>
<path d="M284.5899 123.1342 L283.6493 122.6639 "/>
<path d="M283.6493 122.6639 L281.7681 122.6639 "/>
<path d="M281.7681 122.6639 L280.8275 123.1342 "/>
<path d="M271.8918 122.6639 L271.8918 129.2481 "/>
<path d="M276.1245 122.6639 L276.1245 127.8372 "/>
<path d="M276.1245 127.8372 L275.6542 128.7778 "/>
<path d="M275.6542 128.7778 L274.7136 129.2481 "/>
<path d="M274.7136 129.2481 L273.3027 129.2481 "/>
<path d="M273.3027 129.2481 L272.3621 128.7778 "/>
<path d="M272.3621 128.7778 L271.8918 128.3075 "/>
<path d="M262.9561 128.7778 L263.8967 129.2481 "/>
<path d="M263.8967 129.2481 L265.7779 129.2481 "/>
<path d="M265.7779 129.2481 L266.7185 128.7778 "/>
<path d="M266.7185 128.7778 L267.1888 128.3075 "/>
<path d="M267.1888 128.3075 L267.6591 127.3669 "/>
<path d="M267.6591 127.3669 L267.6591 124.5451 "/>
<path d="M267.6591 124.5451 L267.1888 123.6045 "/>
<path d="M267.1888 123.6045 L266.7185 123.1342 "/>
<path d="M266.7185 123.1342 L265.7779 122.6639 "/>
<path d="M265.7779 122.6639 L263.8967 122.6639 "/>
<path d="M263.8967 122.6639 L262.9561 123.1342 "/>
<path d="M258.7234 129.2481 L258.7234 122.6639 "/>
<path d="M258.7234 119.3718 L259.1937 119.8421 "/>
<path d="M259.1937 119.8421 L258.7234 120.3124 "/>
<path d="M258.7234 120.3124 L258.2531 119.8421 "/>
<path d="M258.2531 119.8421 L258.7234 119.3718 "/>
<path d="M258.7234 119.3718 L258.7234 120.3124 "/>
<path d="M249.7877 129.2481 L249.7877 124.0748 "/>
<path d="M249.7877 124.0748 L250.2580 123.1342 "/>
<path d="M250.2580 123.1342 L251.1986 122.6639 "/>
<path d="M251.1986 122.6639 L253.0798 122.6639 "/>
<path d="M253.0798 122.6639 L254.0204 123.1342 "/>
<path d="M249.7877 128.7778 L250.7283 129.2481 "/>
<path d="M250.7283 129.2481 L253.0798 129.2481 "/>
<path d="M253.0798 129.2481 L254.0204 128.7778 "/>
<path d="M254.0204 128.7778 L254.4907 127.8372 "/>
<path d="M254.4907 127.8372 L254.4907 126.8966 "/>
<path d="M254.4907 126.8966 L254.0204 125.9560 "/>
<path d="M254.0204 125.9560 L253.0798 125.4857 "/>
<path d="M253.0798 125.4857 L250.7283 125.4857 "/>
<path d="M250.7283 125.4857 L249.7877 125.0154 "/>
<path d="M243.6738 129.2481 L244.6144 128.7778 "/>
<path d="M244.6144 128.7778 L245.0847 127.8372 "/>
<path d="M245.0847 127.8372 L245.0847 119.3718 "/>
</g></g>
<g style="fill:#848484; fill-opacity:0.01;  stroke:#848484; stroke-width:0.5926; stroke-opacity:1;  stroke-linecap:round; stroke-linejoin:round;">
<text x="271.4215" y="106.9789" textLength="13.9679" font-size="5.2674" lengthAdjust="spacingAndGlyphs" text-anchor="middle" opacity="0.01" style="font-family:monospace">FID1</text>
<g class="stroked-text"><desc>FID1</desc>
<path d="M275.6542 104.7310 L276.9710 104.7310 "/>
<path d="M276.9710 106.8004 L276.9710 102.8498 "/>
<path d="M276.9710 102.8498 L275.0898 102.8498 "/>
<path d="M273.5849 106.8004 L273.5849 102.8498 "/>
<path d="M271.7037 106.8004 L271.7037 102.8498 "/>
<path d="M271.7037 102.8498 L270.7631 102.8498 "/>
<path d="M270.7631 102.8498 L270.1987 103.0380 "/>
<path d="M270.1987 103.0380 L269.8225 103.4142 "/>
<path d="M269.8225 103.4142 L269.6344 103.7904 "/>
<path d="M269.6344 103.7904 L269.4462 104.5429 "/>
<path d="M269.4462 104.5429 L269.4462 105.1073 "/>
<path d="M269.4462 105.1073 L269.6344 105.8598 "/>
<path d="M269.6344 105.8598 L269.8225 106.2360 "/>
<path d="M269.8225 106.2360 L270.1987 106.6123 "/>
<path d="M270.1987 106.6123 L270.7631 106.8004 "/>
<path d="M270.7631 106.8004 L271.7037 106.8004 "/>
<path d="M265.6838 106.8004 L267.9413 106.8004 "/>
<path d="M266.8126 106.8004 L266.8126 102.8498 "/>
<path d="M266.8126 102.8498 L267.1888 103.4142 "/>
<path d="M267.1888 103.4142 L267.5650 103.7904 "/>
<path d="M267.5650 103.7904 L267.9413 103.9786 "/>
</g></g>
<g style="fill:#848484; fill-opacity:0.01;  stroke:#848484; stroke-width:1.4814; stroke-opacity:1;  stroke-linecap:round; stroke-linejoin:round;">
<text x="99.0821" y="74.0789" textLength="29.2762" font-size="13.1684" lengthAdjust="spacingAndGlyphs" text-anchor="middle" opacity="0.01" style="font-family:monospace">4k7</text>
<g class="stroked-text"><desc>4k7</desc>
<path d="M105.9014 67.0485 L105.9014 73.6327 "/>
<path d="M108.2529 63.2861 L110.6044 70.3406 "/>
<path d="M110.6044 70.3406 L104.4905 70.3406 "/>
<path d="M100.7281 73.6327 L100.7281 63.7564 "/>
<path d="M99.7875 69.8703 L96.9657 73.6327 "/>
<path d="M96.9657 67.0485 L100.7281 70.8109 "/>
<path d="M93.6736 63.7564 L87.0895 63.7564 "/>
<path d="M87.0895 63.7564 L91.3221 73.6327 "/>
</g></g>
<g style="fill:#848484; fill-opacity:0.01;  stroke:#848484; stroke-width:0.7901; stroke-opacity:1;  stroke-linecap:round; stroke-linejoin:round;">
<text x="99.0821" y="87.9058" textLength="11.0238" font-size="6.5842" lengthAdjust="spacingAndGlyphs" text-anchor="middle" opacity="0.01" style="font-family:monospace">R1</text>
<g class="stroked-text"><desc>R1</desc>
<path d="M99.9051 87.6801 L101.5512 85.3286 "/>
<path d="M102.7269 87.6801 L102.7269 82.7419 "/>
<path d="M102.7269 82.7419 L100.8457 82.7419 "/>
<path d="M100.8457 82.7419 L100.3754 82.9771 "/>
<path d="M100.3754 82.9771 L100.1403 83.2122 "/>
<path d="M100.1403 83.2122 L99.9051 83.6825 "/>
<path d="M99.9051 83.6825 L99.9051 84.3880 "/>
<path d="M99.9051 84.3880 L100.1403 84.8583 "/>
<path d="M100.1403 84.8583 L100.3754 85.0934 "/>
<path d="M100.3754 85.0934 L100.8457 85.3286 "/>
<path d="M100.8457 85.3286 L102.7269 85.3286 "/>
<path d="M95.2021 87.6801 L98.0239 87.6801 "/>
<path d="M96.6130 87.6801 L96.6130 82.7419 "/>
<path d="M96.6130 82.7419 L97.0833 83.4474 "/>
<path d="M97.0833 83.4474 L97.5536 83.9177 "/>
<path d="M97.5536 83.9177 L98.0239 84.1528 "/>
</g></g>
<g style="fill:#848484; fill-opacity:0.01;  stroke:#848484; stroke-width:1.4814; stroke-opacity:1;  stroke-linecap:round; stroke-linejoin:round;">
<text x="164.8365" y="50.4074" textLength="86.1825" font-size="13.1684" lengthAdjust="spacingAndGlyphs" text-anchor="middle" opacity="0.01" style="font-family:monospace">BZV55C5V6</text>
<g class="stroked-text"><desc>BZV55C5V6</desc>
<path d="M201.0496 44.7879 L199.6387 45.2582 "/>
<path d="M199.6387 45.2582 L199.1684 45.7285 "/>
<path d="M199.1684 45.7285 L198.6981 46.6691 "/>
<path d="M198.6981 46.6691 L198.6981 48.0800 "/>
<path d="M198.6981 48.0800 L199.1684 49.0206 "/>
<path d="M199.1684 49.0206 L199.6387 49.4909 "/>
<path d="M199.6387 49.4909 L200.5793 49.9612 "/>
<path d="M200.5793 49.9612 L204.3417 49.9612 "/>
<path d="M204.3417 49.9612 L204.3417 40.0849 "/>
<path d="M204.3417 40.0849 L201.0496 40.0849 "/>
<path d="M201.0496 40.0849 L200.1090 40.5552 "/>
<path d="M200.1090 40.5552 L199.6387 41.0255 "/>
<path d="M199.6387 41.0255 L199.1684 41.9661 "/>
<path d="M199.1684 41.9661 L199.1684 42.9067 "/>
<path d="M199.1684 42.9067 L199.6387 43.8473 "/>
<path d="M199.6387 43.8473 L200.1090 44.3176 "/>
<path d="M200.1090 44.3176 L201.0496 44.7879 "/>
<path d="M201.0496 44.7879 L204.3417 44.7879 "/>
<path d="M195.4060 40.0849 L188.8218 40.0849 "/>
<path d="M188.8218 40.0849 L195.4060 49.9612 "/>
<path d="M195.4060 49.9612 L188.8218 49.9612 "/>
<path d="M186.4703 40.0849 L183.1782 49.9612 "/>
<path d="M183.1782 49.9612 L179.8861 40.0849 "/>
<path d="M171.8910 40.0849 L176.5940 40.0849 "/>
<path d="M176.5940 40.0849 L177.0643 44.7879 "/>
<path d="M177.0643 44.7879 L176.5940 44.3176 "/>
<path d="M176.5940 44.3176 L175.6534 43.8473 "/>
<path d="M175.6534 43.8473 L173.3019 43.8473 "/>
<path d="M173.3019 43.8473 L172.3613 44.3176 "/>
<path d="M172.3613 44.3176 L171.8910 44.7879 "/>
<path d="M171.8910 44.7879 L171.4207 45.7285 "/>
<path d="M171.4207 45.7285 L171.4207 48.0800 "/>
<path d="M171.4207 48.0800 L171.8910 49.0206 "/>
<path d="M171.8910 49.0206 L172.3613 49.4909 "/>
<path d="M172.3613 49.4909 L173.3019 49.9612 "/>
<path d="M173.3019 49.9612 L175.6534 49.9612 "/>
<path d="M175.6534 49.9612 L176.5940 49.4909 "/>
<path d="M176.5940 49.4909 L177.0643 49.0206 "/>
<path d="M162.4850 40.0849 L167.1880 40.0849 "/>
<path d="M167.1880 40.0849 L167.6583 44.7879 "/>
<path d="M167.6583 44.7879 L167.1880 44.3176 "/>
<path d="M167.1880 44.3176 L166.2474 43.8473 "/>
<path d="M166.2474 43.8473 L163.8959 43.8473 "/>
<path d="M163.8959 43.8473 L162.9553 44.3176 "/>
<path d="M162.9553 44.3176 L162.4850 44.7879 "/>
<path d="M162.4850 44.7879 L162.0147 45.7285 "/>
<path d="M162.0147 45.7285 L162.0147 48.0800 "/>
<path d="M162.0147 48.0800 L162.4850 49.0206 "/>
<path d="M162.4850 49.0206 L162.9553 49.4909 "/>
<path d="M162.9553 49.4909 L163.8959 49.9612 "/>
<path d="M163.8959 49.9612 L166.2474 49.9612 "/>
<path d="M166.2474 49.9612 L167.1880 49.4909 "/>
<path d="M167.1880 49.4909 L167.6583 49.0206 "/>
<path d="M152.1384 49.0206 L152.6087 49.4909 "/>
<path d="M152.6087 49.4909 L154.0196 49.9612 "/>
<path d="M154.0196 49.9612 L154.9602 49.9612 "/>
<path d="M154.9602 49.9612 L156.3711 49.4909 "/>
<path d="M156.3711 49.4909 L157.3117 48.5503 "/>
<path d="M157.3117 48.5503 L157.7820 47.6097 "/>
<path d="M157.7820 47.6097 L158.2523 45.7285 "/>
<path d="M158.2523 45.7285 L158.2523 44.3176 "/>
<path d="M158.2523 44.3176 L157.7820 42.4364 "/>
<path d="M157.7820 42.4364 L157.3117 41.4958 "/>
<path d="M157.3117 41.4958 L156.3711 40.5552 "/>
<path d="M156.3711 40.5552 L154.9602 40.0849 "/>
<path d="M154.9602 40.0849 L154.0196 40.0849 "/>
<path d="M154.0196 40.0849 L152.6087 40.5552 "/>
<path d="M152.6087 40.5552 L152.1384 41.0255 "/>
<path d="M143.2027 40.0849 L147.9057 40.0849 "/>
<path d="M147.9057 40.0849 L148.3760 44.7879 "/>
<path d="M148.3760 44.7879 L147.9057 44.3176 "/>
<path d="M147.9057 44.3176 L146.9651 43.8473 "/>
<path d="M146.9651 43.8473 L144.6136 43.8473 "/>
<path d="M144.6136 43.8473 L143.6730 44.3176 "/>
<path d="M143.6730 44.3176 L143.2027 44.7879 "/>
<path d="M143.2027 44.7879 L142.7324 45.7285 "/>
<path d="M142.7324 45.7285 L142.7324 48.0800 "/>
<path d="M142.7324 48.0800 L143.2027 49.0206 "/>
<path d="M143.2027 49.0206 L143.6730 49.4909 "/>
<path d="M143.6730 49.4909 L144.6136 49.9612 "/>
<path d="M144.6136 49.9612 L146.9651 49.9612 "/>
<path d="M146.9651 49.9612 L147.9057 49.4909 "/>
<path d="M147.9057 49.4909 L148.3760 49.0206 "/>
<path d="M139.9106 40.0849 L136.6185 49.9612 "/>
<path d="M136.6185 49.9612 L133.3264 40.0849 "/>
<path d="M125.8016 40.0849 L127.6828 40.0849 "/>
<path d="M127.6828 40.0849 L128.6234 40.5552 "/>
<path d="M128.6234 40.5552 L129.0937 41.0255 "/>
<path d="M129.0937 41.0255 L130.0343 42.4364 "/>
<path d="M130.0343 42.4364 L130.5046 44.3176 "/>
<path d="M130.5046 44.3176 L130.5046 48.0800 "/>
<path d="M130.5046 48.0800 L130.0343 49.0206 "/>
<path d="M130.0343 49.0206 L129.5640 49.4909 "/>
<path d="M129.5640 49.4909 L128.6234 49.9612 "/>
<path d="M128.6234 49.9612 L126.7422 49.9612 "/>
<path d="M126.7422 49.9612 L125.8016 49.4909 "/>
<path d="M125.8016 49.4909 L125.3313 49.0206 "/>
<path d="M125.3313 49.0206 L124.8610 48.0800 "/>
<path d="M124.8610 48.0800 L124.8610 45.7285 "/>
<path d="M124.8610 45.7285 L125.3313 44.7879 "/>
<path d="M125.3313 44.7879 L125.8016 44.3176 "/>
<path d="M125.8016 44.3176 L126.7422 43.8473 "/>
<path d="M126.7422 43.8473 L128.6234 43.8473 "/>
<path d="M128.6234 43.8473 L129.5640 44.3176 "/>
<path d="M129.5640 44.3176 L130.0343 44.7879 "/>
<path d="M130.0343 44.7879 L130.5046 45.7285 "/>
</g><text x="166.0908" y="10.8529" textLength="21.7514" font-size="13.1684" lengthAdjust="spacingAndGlyphs" text-anchor="middle" opacity="0.01" style="font-family:monospace">D1</text>
<g class="stroked-text"><desc>D1</desc>
<path d="M173.3804 10.4066 L173.3804 0.5303 "/>
<path d="M173.3804 0.5303 L171.0289 0.5303 "/>
<path d="M171.0289 0.5303 L169.6180 1.0006 "/>
<path d="M169.6180 1.0006 L168.6774 1.9412 "/>
<path d="M168.6774 1.9412 L168.2071 2.8818 "/>
<path d="M168.2071 2.8818 L167.7368 4.7630 "/>
<path d="M167.7368 4.7630 L167.7368 6.1739 "/>
<path d="M167.7368 6.1739 L168.2071 8.0551 "/>
<path d="M168.2071 8.0551 L168.6774 8.9957 "/>
<path d="M168.6774 8.9957 L169.6180 9.9363 "/>
<path d="M169.6180 9.9363 L171.0289 10.4066 "/>
<path d="M171.0289 10.4066 L173.3804 10.4066 "/>
<path d="M158.3308 10.4066 L163.9744 10.4066 "/>
<path d="M161.1526 10.4066 L161.1526 0.5303 "/>
<path d="M161.1526 0.5303 L162.0932 1.9412 "/>
<path d="M162.0932 1.9412 L163.0338 2.8818 "/>
<path d="M163.0338 2.8818 L163.9744 3.3521 "/>
</g><text x="99.0821" y="93.6459" textLength="29.2762" font-size="13.1684" lengthAdjust="spacingAndGlyphs" text-anchor="middle" opacity="0.01" style="font-family:monospace">4k7</text>
<g class="stroked-text"><desc>4k7</desc>
<path d="M105.9014 86.6154 L105.9014 93.1996 "/>
<path d="M108.2529 82.8530 L110.6044 89.9075 "/>
<path d="M110.6044 89.9075 L104.4905 89.9075 "/>
<path d="M100.7281 93.1996 L100.7281 83.3233 "/>
<path d="M99.7875 89.4372 L96.9657 93.1996 "/>
<path d="M96.9657 86.6154 L100.7281 90.3778 "/>
<path d="M93.6736 83.3233 L87.0895 83.3233 "/>
<path d="M87.0895 83.3233 L91.3221 93.1996 "/>
</g></g>
<g style="fill:#848484; fill-opacity:0.01;  stroke:#848484; stroke-width:0.7901; stroke-opacity:1;  stroke-linecap:round; stroke-linejoin:round;">
<text x="99.0821" y="107.4727" textLength="11.0238" font-size="6.5842" lengthAdjust="spacingAndGlyphs" text-anchor="middle" opacity="0.01" style="font-family:monospace">R2</text>
<g class="stroked-text"><desc>R2</desc>
<path d="M99.9051 107.2470 L101.5512 104.8955 "/>
<path d="M102.7269 107.2470 L102.7269 102.3088 "/>
<path d="M102.7269 102.3088 L100.8457 102.3088 "/>
<path d="M100.8457 102.3088 L100.3754 102.5440 "/>
<path d="M100.3754 102.5440 L100.1403 102.7791 "/>
<path d="M100.1403 102.7791 L99.9051 103.2494 "/>
<path d="M99.9051 103.2494 L99.9051 103.9549 "/>
<path d="M99.9051 103.9549 L100.1403 104.4252 "/>
<path d="M100.1403 104.4252 L100.3754 104.6603 "/>
<path d="M100.3754 104.6603 L100.8457 104.8955 "/>
<path d="M100.8457 104.8955 L102.7269 104.8955 "/>
<path d="M98.0239 102.7791 L97.7888 102.5440 "/>
<path d="M97.7888 102.5440 L97.3185 102.3088 "/>
<path d="M97.3185 102.3088 L96.1427 102.3088 "/>
<path d="M96.1427 102.3088 L95.6724 102.5440 "/>
<path d="M95.6724 102.5440 L95.4373 102.7791 "/>
<path d="M95.4373 102.7791 L95.2021 103.2494 "/>
<path d="M95.2021 103.2494 L95.2021 103.7197 "/>
<path d="M95.2021 103.7197 L95.4373 104.4252 "/>
<path d="M95.4373 104.4252 L98.2591 107.2470 "/>
<path d="M98.2591 107.2470 L95.2021 107.2470 "/>
</g></g>
<g style="fill:#848484; fill-opacity:0.01;  stroke:#848484; stroke-width:2.5086; stroke-opacity:1;  stroke-linecap:round; stroke-linejoin:round;">
<text x="161.0440" y="59.9973" textLength="35.4785" font-size="16.7239" lengthAdjust="spacingAndGlyphs" text-anchor="middle" opacity="0.01" style="font-family:monospace">IC2</text>
<g class="stroked-text"><desc>IC2</desc>
<path d="M173.2883 59.3980 L173.2883 46.8551 "/>
<path d="M160.1481 58.2034 L160.7454 58.8007 "/>
<path d="M160.7454 58.8007 L162.5372 59.3980 "/>
<path d="M162.5372 59.3980 L163.7318 59.3980 "/>
<path d="M163.7318 59.3980 L165.5236 58.8007 "/>
<path d="M165.5236 58.8007 L166.7182 57.6062 "/>
<path d="M166.7182 57.6062 L167.3155 56.4116 "/>
<path d="M167.3155 56.4116 L167.9127 54.0225 "/>
<path d="M167.9127 54.0225 L167.9127 52.2306 "/>
<path d="M167.9127 52.2306 L167.3155 49.8415 "/>
<path d="M167.3155 49.8415 L166.7182 48.6469 "/>
<path d="M166.7182 48.6469 L165.5236 47.4524 "/>
<path d="M165.5236 47.4524 L163.7318 46.8551 "/>
<path d="M163.7318 46.8551 L162.5372 46.8551 "/>
<path d="M162.5372 46.8551 L160.7454 47.4524 "/>
<path d="M160.7454 47.4524 L160.1481 48.0497 "/>
<path d="M155.3698 48.0497 L154.7726 47.4524 "/>
<path d="M154.7726 47.4524 L153.5780 46.8551 "/>
<path d="M153.5780 46.8551 L150.5916 46.8551 "/>
<path d="M150.5916 46.8551 L149.3970 47.4524 "/>
<path d="M149.3970 47.4524 L148.7998 48.0497 "/>
<path d="M148.7998 48.0497 L148.2025 49.2442 "/>
<path d="M148.2025 49.2442 L148.2025 50.4388 "/>
<path d="M148.2025 50.4388 L148.7998 52.2306 "/>
<path d="M148.7998 52.2306 L155.9671 59.3980 "/>
<path d="M155.9671 59.3980 L148.2025 59.3980 "/>
</g></g>
<g style="fill:#848484; fill-opacity:0.01;  stroke:#848484; stroke-width:1.4814; stroke-opacity:1;  stroke-linecap:round; stroke-linejoin:round;">
<text x="99.2401" y="113.2128" textLength="29.2762" font-size="13.1684" lengthAdjust="spacingAndGlyphs" text-anchor="middle" opacity="0.01" style="font-family:monospace">4k7</text>
<g class="stroked-text"><desc>4k7</desc>
<path d="M106.0595 106.1824 L106.0595 112.7666 "/>
<path d="M108.4110 102.4200 L110.7625 109.4745 "/>
<path d="M110.7625 109.4745 L104.6486 109.4745 "/>
<path d="M100.8862 112.7666 L100.8862 102.8903 "/>
<path d="M99.9456 109.0042 L97.1238 112.7666 "/>
<path d="M97.1238 106.1824 L100.8862 109.9448 "/>
<path d="M93.8317 102.8903 L87.2475 102.8903 "/>
<path d="M87.2475 102.8903 L91.4802 112.7666 "/>
</g></g>
<g style="fill:#848484; fill-opacity:0.01;  stroke:#848484; stroke-width:0.7901; stroke-opacity:1;  stroke-linecap:round; stroke-linejoin:round;">
<text x="99.2401" y="127.0396" textLength="11.0238" font-size="6.5842" lengthAdjust="spacingAndGlyphs" text-anchor="middle" opacity="0.01" style="font-family:monospace">R3</text>
<g class="stroked-text"><desc>R3</desc>
<path d="M100.0631 126.8139 L101.7092 124.4624 "/>
<path d="M102.8849 126.8139 L102.8849 121.8758 "/>
<path d="M102.8849 121.8758 L101.0037 121.8758 "/>
<path d="M101.0037 121.8758 L100.5334 122.1109 "/>
<path d="M100.5334 122.1109 L100.2983 122.3461 "/>
<path d="M100.2983 122.3461 L100.0631 122.8164 "/>
<path d="M100.0631 122.8164 L100.0631 123.5218 "/>
<path d="M100.0631 123.5218 L100.2983 123.9921 "/>
<path d="M100.2983 123.9921 L100.5334 124.2273 "/>
<path d="M100.5334 124.2273 L101.0037 124.4624 "/>
<path d="M101.0037 124.4624 L102.8849 124.4624 "/>
<path d="M98.4171 121.8758 L95.3601 121.8758 "/>
<path d="M95.3601 121.8758 L97.0062 123.7570 "/>
<path d="M97.0062 123.7570 L96.3007 123.7570 "/>
<path d="M96.3007 123.7570 L95.8304 123.9921 "/>
<path d="M95.8304 123.9921 L95.5953 124.2273 "/>
<path d="M95.5953 124.2273 L95.3601 124.6976 "/>
<path d="M95.3601 124.6976 L95.3601 125.8733 "/>
<path d="M95.3601 125.8733 L95.5953 126.3436 "/>
<path d="M95.5953 126.3436 L95.8304 126.5788 "/>
<path d="M95.8304 126.5788 L96.3007 126.8139 "/>
<path d="M96.3007 126.8139 L97.7116 126.8139 "/>
<path d="M97.7116 126.8139 L98.1819 126.5788 "/>
<path d="M98.1819 126.5788 L98.4171 126.3436 "/>
</g></g>
<g style="fill:#848484; fill-opacity:0.0;  stroke:#848484; stroke-width:1.4814; stroke-opacity:1;  stroke-linecap:round; stroke-linejoin:round;">
<g transform="rotate(-90.000000 215.2649 31.0390)">
<text x="215.2649" y="35.9772" textLength="29.2762" font-size="13.1684" lengthAdjust="spacingAndGlyphs" text-anchor="middle" opacity="0.01" style="font-family:monospace">1uF</text>
</g>
<g class="stroked-text"><desc>1uF</desc>
<path d="M210.7729 36.9178 L210.7729 42.5614 "/>
<path d="M210.7729 39.7396 L220.6492 39.7396 "/>
<path d="M220.6492 39.7396 L219.2383 40.6802 "/>
<path d="M219.2383 40.6802 L218.2977 41.6208 "/>
<path d="M218.2977 41.6208 L217.8274 42.5614 "/>
<path d="M217.3571 28.4524 L210.7729 28.4524 "/>
<path d="M217.3571 32.6851 L212.1839 32.6851 "/>
<path d="M212.1839 32.6851 L211.2432 32.2148 "/>
<path d="M211.2432 32.2148 L210.7729 31.2742 "/>
<path d="M210.7729 31.2742 L210.7729 29.8633 "/>
<path d="M210.7729 29.8633 L211.2432 28.9227 "/>
<path d="M211.2432 28.9227 L211.7136 28.4524 "/>
<path d="M215.9462 20.4573 L215.9462 23.7494 "/>
<path d="M210.7729 23.7494 L220.6492 23.7494 "/>
<path d="M220.6492 23.7494 L220.6492 19.0464 "/>
</g></g>
<g style="fill:#848484; fill-opacity:0.0;  stroke:#848484; stroke-width:0.7901; stroke-opacity:1;  stroke-linecap:round; stroke-linejoin:round;">
<g transform="rotate(-90.000000 198.6727 31.0390)">
<text x="198.6727" y="33.5081" textLength="11.0238" font-size="6.5842" lengthAdjust="spacingAndGlyphs" text-anchor="middle" opacity="0.01" style="font-family:monospace">C4</text>
</g>
<g class="stroked-text"><desc>C4</desc>
<path d="M196.8996 31.8620 L196.6644 32.0972 "/>
<path d="M196.6644 32.0972 L196.4293 32.8026 "/>
<path d="M196.4293 32.8026 L196.4293 33.2729 "/>
<path d="M196.4293 33.2729 L196.6644 33.9784 "/>
<path d="M196.6644 33.9784 L197.1348 34.4487 "/>
<path d="M197.1348 34.4487 L197.6051 34.6838 "/>
<path d="M197.6051 34.6838 L198.5457 34.9190 "/>
<path d="M198.5457 34.9190 L199.2511 34.9190 "/>
<path d="M199.2511 34.9190 L200.1917 34.6838 "/>
<path d="M200.1917 34.6838 L200.6620 34.4487 "/>
<path d="M200.6620 34.4487 L201.1323 33.9784 "/>
<path d="M201.1323 33.9784 L201.3674 33.2729 "/>
<path d="M201.3674 33.2729 L201.3674 32.8026 "/>
<path d="M201.3674 32.8026 L201.1323 32.0972 "/>
<path d="M201.1323 32.0972 L200.8972 31.8620 "/>
<path d="M199.7214 27.6293 L196.4293 27.6293 "/>
<path d="M201.6026 28.8051 L198.0754 29.9808 "/>
<path d="M198.0754 29.9808 L198.0754 26.9239 "/>
</g></g>
<g style="fill:#848484; fill-opacity:0.0;  stroke:#848484; stroke-width:0.9876; stroke-opacity:1;  stroke-linecap:round; stroke-linejoin:round;">
<circle cx="25.5807" cy="105.0036" r="9.8763"/> 
</g>
<g style="fill:#848484; fill-opacity:0.0;  stroke:#848484; stroke-width:3.7629; stroke-opacity:1;  stroke-linecap:round; stroke-linejoin:round;">
<circle cx="48.1579" cy="54.8320" r="29.6263"/> 
</g>
<g style="fill:#848484; fill-opacity:0.0;  stroke:#848484; stroke-width:0.9876; stroke-opacity:1;  stroke-linecap:round; stroke-linejoin:round;">
<path d="M205.0962 79.2196 L205.0962 59.4670 "/>
<path d="M192.7509 79.2196 L205.0962 79.2196 "/>
<path d="M205.0962 59.4670 L192.7509 59.4670 "/>
<path d="M192.7509 59.4670 L192.7509 79.2196 "/>
<path d="M133.6867 119.8180 L163.3155 119.8180 "/>
<path d="M133.6867 112.4108 L141.0939 119.8180 "/>
<path d="M133.6867 90.1892 L133.6867 119.8180 "/>
<path d="M163.3155 119.8180 L163.3155 90.1892 "/>
<path d="M163.3155 90.1892 L133.6867 90.1892 "/>
<circle cx="271.4215" cy="105.0036" r="9.8763"/> 
<path d="M89.2058 91.6094 L108.9584 91.6094 "/>
<path d="M89.2058 79.2640 L89.2058 91.6094 "/>
<path d="M108.9584 91.6094 L108.9584 79.2640 "/>
<path d="M108.9584 79.2640 L89.2058 79.2640 "/>
<path d="M178.6633 15.8404 L151.0097 15.8404 "/>
<path d="M178.6633 33.6177 L178.6633 15.8404 "/>
<path d="M172.2437 24.7291 L168.2932 24.7291 "/>
<path d="M168.2932 24.7291 L168.2932 19.2971 "/>
<path d="M168.2932 24.7291 L168.2932 30.1610 "/>
<path d="M168.2932 24.7291 L162.3674 20.7785 "/>
<path d="M162.3674 20.7785 L162.3674 28.6796 "/>
<path d="M162.3674 24.7291 L157.4293 24.7291 "/>
<path d="M162.3674 28.6796 L168.2932 24.7291 "/>
<path d="M151.0097 15.8404 L151.0097 33.6177 "/>
<path d="M151.0097 33.6177 L178.6633 33.6177 "/>
</g>
<g style="fill:#848484; fill-opacity:0.0;  stroke:#848484; stroke-width:3.7629; stroke-opacity:1;  stroke-linecap:round; stroke-linejoin:round;">
<circle cx="248.8443" cy="155.1752" r="29.6263"/> 
</g>
<g style="fill:#848484; fill-opacity:0.0;  stroke:#848484; stroke-width:0.9876; stroke-opacity:1;  stroke-linecap:round; stroke-linejoin:round;">
<path d="M89.2058 111.1763 L108.9584 111.1763 "/>
<path d="M89.2058 98.8309 L89.2058 111.1763 "/>
<path d="M108.9584 111.1763 L108.9584 98.8309 "/>
<path d="M108.9584 98.8309 L89.2058 98.8309 "/>
<path d="M154.8713 63.6022 L167.2167 63.6022 "/>
<path d="M154.8713 57.1826 L161.2909 63.6022 "/>
<path d="M154.8713 43.8496 L154.8713 63.6022 "/>
<path d="M167.2167 63.6022 L167.2167 43.8496 "/>
<path d="M167.2167 43.8496 L154.8713 43.8496 "/>
</g>
<g style="fill:#848484; fill-opacity:0.0;  stroke:#848484; stroke-width:3.7629; stroke-opacity:1;  stroke-linecap:round; stroke-linejoin:round;">
<circle cx="48.1579" cy="155.1752" r="29.6263"/> 
<circle cx="248.8443" cy="54.8320" r="29.6263"/> 
</g>
<g style="fill:#848484; fill-opacity:0.0;  stroke:#848484; stroke-width:0.9876; stroke-opacity:1;  stroke-linecap:round; stroke-linejoin:round;">
<path d="M89.3638 130.7432 L109.1164 130.7432 "/>
<path d="M89.3638 118.3978 L89.3638 130.7432 "/>
<path d="M109.1164 130.7432 L109.1164 118.3978 "/>
<path d="M109.1164 118.3978 L89.3638 118.3978 "/>
<path d="M192.5000 21.1627 L192.5000 40.9153 "/>
<path d="M204.8454 21.1627 L192.5000 21.1627 "/>
<path d="M192.5000 40.9153 L204.8454 40.9153 "/>
<path d="M204.8454 40.9153 L204.8454 21.1627 "/>
<g>
</g>
<g>
</g>
<g>
</g>
<g>
</g>
<g>
</g>
<g>
</g>
<g>
</g>
<g>
</g>
<g>
</g>
<g>
</g>
<g>
</g>
<g>
</g>
<g>
</g>
<g>
</g>
<g>
</g>
<g>
</g>
<g>
</g>
<g>
</g>
<g>
</g>
<g>
</g>
<g>
</g>
<g>
</g>
<g>
</g>
</g> 
<svg:g><svg:g><svg:title>SVG Image created as TEMPSEN01-Edge_Cuts.svg date 2023/09/23 00:40:58 </svg:title>
  <svg:desc>Image generated by PCBNEW </svg:desc>
<svg:g style="fill:#C2C200; fill-opacity:1.0000;stroke:#C2C200; stroke-opacity:1.0000; stroke-linecap:round; stroke-linejoin:round;" transform="translate(0 0) scale(1 1)">
</svg:g>
<svg:g style="fill:#C2C200; fill-opacity:0.0;  stroke:#C2C200; stroke-width:0.0000; stroke-opacity:1;  stroke-linecap:round; stroke-linejoin:round;">
</svg:g>
<svg:g style="fill:#C2C200; fill-opacity:0.0;  stroke:#C2C200; stroke-width:0.9876; stroke-opacity:1;  stroke-linecap:round; stroke-linejoin:round;">
<svg:path style="fill:#C2C200; fill-opacity:0.0;  stroke:#C2C200; stroke-width:0.9876; stroke-opacity:1;  stroke-linecap:round; stroke-linejoin:round;fill:none" d="M 296.5073,7.1690 0.4949,7.1690 0.4949,202.8382 296.5073,202.8382 Z"/> 
<svg:g>
</svg:g>
<svg:g>
</svg:g>
<svg:g>
</svg:g>
<svg:g>
</svg:g>
<svg:g>
</svg:g>
<svg:g>
</svg:g>
<svg:g>
</svg:g>
<svg:g>
</svg:g>
<svg:g>
</svg:g>
<svg:g>
</svg:g>
<svg:g>
</svg:g>
<svg:g>
</svg:g>
<svg:g>
</svg:g>
<svg:g>
</svg:g>
<svg:g>
</svg:g>
<svg:g>
</svg:g>
<svg:g>
</svg:g>
<svg:g>
</svg:g>
<svg:g>
</svg:g>
<svg:g>
</svg:g>
<svg:g>
</svg:g>
<svg:g>
</svg:g>
<svg:g>
</svg:g>
</svg:g> 
</svg:g></svg:g></svg>
