<?xml version='1.0' encoding='ASCII' standalone='yes'?>
<svg xmlns:svg="http://www.w3.org/2000/svg" xmlns="http://www.w3.org/2000/svg" xmlns:xlink="http://www.w3.org/1999/xlink" version="1.1" width="297.0022mm" height="210.0072mm" viewBox="0.0000 0.0000 297.0022 210.0072">
<title>SVG Image created as TEMPSEN01-B_Fab.svg date 2023/09/23 00:40:58 </title>
  <desc>Image generated by PCBNEW </desc>
<g style="fill:#000084; fill-opacity:1.0000;stroke:#000084; stroke-opacity:1.0000; stroke-linecap:round; stroke-linejoin:round;" transform="translate(0 0) scale(1 1)">
</g>
<g style="fill:#000084; fill-opacity:0.0;  stroke:#000084; stroke-width:0.0000; stroke-opacity:1;  stroke-linecap:round; stroke-linejoin:round;">
</g>
<g style="fill:#000084; fill-opacity:0.01;  stroke:#000084; stroke-width:1.4814; stroke-opacity:1;  stroke-linecap:round; stroke-linejoin:round;">
<g transform="rotate(-90.000000 86.2241 222.3143)">
<text x="86.2241" y="227.2524" transform="scale(-1 1) translate(-172.448262 0)" textLength="19.3999" font-size="13.1684" lengthAdjust="spacingAndGlyphs" text-anchor="middle" opacity="0.01" style="font-family:monospace">J1</text>
</g>
<g class="stroked-text"><desc>J1</desc>
<path d="M80.8398 219.0222 L87.8943 219.0222 "/>
<path d="M87.8943 219.0222 L89.3052 218.5519 "/>
<path d="M89.3052 218.5519 L90.2458 217.6113 "/>
<path d="M90.2458 217.6113 L90.7161 216.2004 "/>
<path d="M90.7161 216.2004 L90.7161 215.2598 "/>
<path d="M90.7161 228.8984 L90.7161 223.2549 "/>
<path d="M90.7161 226.0767 L80.8398 226.0767 "/>
<path d="M80.8398 226.0767 L82.2507 225.1361 "/>
<path d="M82.2507 225.1361 L83.1913 224.1955 "/>
<path d="M83.1913 224.1955 L83.6616 223.2549 "/>
</g><text x="148.5011" y="47.2273" transform="scale(-1 1) translate(-297.002193 0)" textLength="19.3999" font-size="13.1684" lengthAdjust="spacingAndGlyphs" text-anchor="middle" opacity="0.01" style="font-family:monospace">J2</text>
<g class="stroked-text"><desc>J2</desc>
<path d="M151.7932 36.9047 L151.7932 43.9592 "/>
<path d="M151.7932 43.9592 L152.2635 45.3701 "/>
<path d="M152.2635 45.3701 L153.2041 46.3107 "/>
<path d="M153.2041 46.3107 L154.6150 46.7810 "/>
<path d="M154.6150 46.7810 L155.5556 46.7810 "/>
<path d="M147.5605 37.8453 L147.0902 37.3750 "/>
<path d="M147.0902 37.3750 L146.1496 36.9047 "/>
<path d="M146.1496 36.9047 L143.7981 36.9047 "/>
<path d="M143.7981 36.9047 L142.8575 37.3750 "/>
<path d="M142.8575 37.3750 L142.3872 37.8453 "/>
<path d="M142.3872 37.8453 L141.9169 38.7859 "/>
<path d="M141.9169 38.7859 L141.9169 39.7265 "/>
<path d="M141.9169 39.7265 L142.3872 41.1374 "/>
<path d="M142.3872 41.1374 L148.0308 46.7810 "/>
<path d="M148.0308 46.7810 L141.9169 46.7810 "/>
</g></g>
<g style="fill:#000084; fill-opacity:0.0;  stroke:#000084; stroke-width:0.9876; stroke-opacity:1;  stroke-linecap:round; stroke-linejoin:round;">
<path d="M189.2408 194.4236 L107.7614 194.4236 "/>
<path d="M189.2408 154.4246 L189.2408 194.4236 "/>
<path d="M189.2408 154.4246 L107.7614 154.4246 "/>
<path d="M171.9573 154.4246 L167.0192 161.4082 "/>
<path d="M167.0192 161.4082 L162.0810 154.4246 "/>
<path d="M107.7614 154.4246 L107.7614 194.4236 "/>
<path d="M107.7614 18.0922 L189.2408 18.0922 "/>
<path d="M107.7614 58.0912 L107.7614 18.0922 "/>
<path d="M107.7614 58.0912 L189.2408 58.0912 "/>
<path d="M125.0449 58.0912 L129.9830 51.1076 "/>
<path d="M129.9830 51.1076 L134.9212 58.0912 "/>
<path d="M189.2408 58.0912 L189.2408 18.0922 "/>
<g>
</g>
<g>
</g>
<g>
</g>
<g>
</g>
<g>
</g>
<g>
</g>
<g>
</g>
<g>
</g>
<g>
</g>
<g>
</g>
<g>
</g>
<g>
</g>
<g>
</g>
<g>
</g>
<g>
</g>
<g>
</g>
<g>
</g>
<g>
</g>
<g>
</g>
<g>
</g>
<g>
</g>
<g>
</g>
<g>
</g>
</g> 
<svg:g><svg:g><svg:title>SVG Image created as TEMPSEN01-Edge_Cuts.svg date 2023/09/23 00:40:58 </svg:title>
  <svg:desc>Image generated by PCBNEW </svg:desc>
<svg:g style="fill:#C2C200; fill-opacity:1.0000;stroke:#C2C200; stroke-opacity:1.0000; stroke-linecap:round; stroke-linejoin:round;" transform="translate(0 0) scale(1 1)">
</svg:g>
<svg:g style="fill:#C2C200; fill-opacity:0.0;  stroke:#C2C200; stroke-width:0.0000; stroke-opacity:1;  stroke-linecap:round; stroke-linejoin:round;">
</svg:g>
<svg:g style="fill:#C2C200; fill-opacity:0.0;  stroke:#C2C200; stroke-width:0.9876; stroke-opacity:1;  stroke-linecap:round; stroke-linejoin:round;">
<svg:path style="fill:#C2C200; fill-opacity:0.0;  stroke:#C2C200; stroke-width:0.9876; stroke-opacity:1;  stroke-linecap:round; stroke-linejoin:round;fill:none" d="M 0.4949,7.1690 296.5073,7.1690 296.5073,202.8382 0.4949,202.8382 Z"/> 
<svg:g>
</svg:g>
<svg:g>
</svg:g>
<svg:g>
</svg:g>
<svg:g>
</svg:g>
<svg:g>
</svg:g>
<svg:g>
</svg:g>
<svg:g>
</svg:g>
<svg:g>
</svg:g>
<svg:g>
</svg:g>
<svg:g>
</svg:g>
<svg:g>
</svg:g>
<svg:g>
</svg:g>
<svg:g>
</svg:g>
<svg:g>
</svg:g>
<svg:g>
</svg:g>
<svg:g>
</svg:g>
<svg:g>
</svg:g>
<svg:g>
</svg:g>
<svg:g>
</svg:g>
<svg:g>
</svg:g>
<svg:g>
</svg:g>
<svg:g>
</svg:g>
<svg:g>
</svg:g>
</svg:g> 
</svg:g></svg:g></svg>
