%TF.GenerationSoftware,KiCad,Pcbnew,7.0.7-7.0.7~ubuntu23.04.1*%
%TF.CreationDate,2023-09-23T00:40:23+00:00*%
%TF.ProjectId,TEMPSEN01,54454d50-5345-44e3-9031-2e6b69636164,rev?*%
%TF.SameCoordinates,Original*%
%TF.FileFunction,Copper,L2,Bot*%
%TF.FilePolarity,Positive*%
%FSLAX46Y46*%
G04 Gerber Fmt 4.6, Leading zero omitted, Abs format (unit mm)*
G04 Created by KiCad (PCBNEW 7.0.7-7.0.7~ubuntu23.04.1) date 2023-09-23 00:40:23*
%MOMM*%
%LPD*%
G01*
G04 APERTURE LIST*
G04 Aperture macros list*
%AMRoundRect*
0 Rectangle with rounded corners*
0 $1 Rounding radius*
0 $2 $3 $4 $5 $6 $7 $8 $9 X,Y pos of 4 corners*
0 Add a 4 corners polygon primitive as box body*
4,1,4,$2,$3,$4,$5,$6,$7,$8,$9,$2,$3,0*
0 Add four circle primitives for the rounded corners*
1,1,$1+$1,$2,$3*
1,1,$1+$1,$4,$5*
1,1,$1+$1,$6,$7*
1,1,$1+$1,$8,$9*
0 Add four rect primitives between the rounded corners*
20,1,$1+$1,$2,$3,$4,$5,0*
20,1,$1+$1,$4,$5,$6,$7,0*
20,1,$1+$1,$6,$7,$8,$9,0*
20,1,$1+$1,$8,$9,$2,$3,0*%
%AMFreePoly0*
4,1,19,0.550000,-0.750000,0.000000,-0.750000,0.000000,-0.744911,-0.071157,-0.744911,-0.207708,-0.704816,-0.327430,-0.627875,-0.420627,-0.520320,-0.479746,-0.390866,-0.500000,-0.250000,-0.500000,0.250000,-0.479746,0.390866,-0.420627,0.520320,-0.327430,0.627875,-0.207708,0.704816,-0.071157,0.744911,0.000000,0.744911,0.000000,0.750000,0.550000,0.750000,0.550000,-0.750000,0.550000,-0.750000,
$1*%
%AMFreePoly1*
4,1,19,0.000000,0.744911,0.071157,0.744911,0.207708,0.704816,0.327430,0.627875,0.420627,0.520320,0.479746,0.390866,0.500000,0.250000,0.500000,-0.250000,0.479746,-0.390866,0.420627,-0.520320,0.327430,-0.627875,0.207708,-0.704816,0.071157,-0.744911,0.000000,-0.744911,0.000000,-0.750000,-0.550000,-0.750000,-0.550000,0.750000,0.000000,0.750000,0.000000,0.744911,0.000000,0.744911,
$1*%
G04 Aperture macros list end*
%TA.AperFunction,ComponentPad*%
%ADD10C,6.000000*%
%TD*%
%TA.AperFunction,SMDPad,CuDef*%
%ADD11RoundRect,0.150000X0.150000X0.700000X-0.150000X0.700000X-0.150000X-0.700000X0.150000X-0.700000X0*%
%TD*%
%TA.AperFunction,SMDPad,CuDef*%
%ADD12RoundRect,0.250000X0.250000X1.100000X-0.250000X1.100000X-0.250000X-1.100000X0.250000X-1.100000X0*%
%TD*%
%TA.AperFunction,SMDPad,CuDef*%
%ADD13FreePoly0,90.000000*%
%TD*%
%TA.AperFunction,SMDPad,CuDef*%
%ADD14R,1.500000X1.000000*%
%TD*%
%TA.AperFunction,SMDPad,CuDef*%
%ADD15FreePoly1,90.000000*%
%TD*%
%TA.AperFunction,SMDPad,CuDef*%
%ADD16FreePoly0,180.000000*%
%TD*%
%TA.AperFunction,SMDPad,CuDef*%
%ADD17R,1.000000X1.500000*%
%TD*%
%TA.AperFunction,SMDPad,CuDef*%
%ADD18FreePoly1,180.000000*%
%TD*%
%TA.AperFunction,SMDPad,CuDef*%
%ADD19FreePoly0,270.000000*%
%TD*%
%TA.AperFunction,SMDPad,CuDef*%
%ADD20FreePoly1,270.000000*%
%TD*%
%TA.AperFunction,SMDPad,CuDef*%
%ADD21RoundRect,0.150000X-0.150000X-0.700000X0.150000X-0.700000X0.150000X0.700000X-0.150000X0.700000X0*%
%TD*%
%TA.AperFunction,SMDPad,CuDef*%
%ADD22RoundRect,0.250000X-0.250000X-1.100000X0.250000X-1.100000X0.250000X1.100000X-0.250000X1.100000X0*%
%TD*%
%TA.AperFunction,ViaPad*%
%ADD23C,0.800000*%
%TD*%
%TA.AperFunction,Conductor*%
%ADD24C,0.250000*%
%TD*%
G04 APERTURE END LIST*
D10*
%TO.P,M2,1*%
%TO.N,GND*%
X121920000Y-66040000D03*
%TD*%
%TO.P,M3,1*%
%TO.N,GND*%
X101600000Y-76200000D03*
%TD*%
%TO.P,M4,1*%
%TO.N,GND*%
X121920000Y-76200000D03*
%TD*%
%TO.P,M1,1*%
%TO.N,GND*%
X101600000Y-66040000D03*
%TD*%
D11*
%TO.P,J1,1*%
%TO.N,VDD*%
X113635000Y-75874000D03*
%TO.P,J1,2*%
%TO.N,/SCL*%
X112385000Y-75874000D03*
%TO.P,J1,3*%
%TO.N,/SDA*%
X111135000Y-75874000D03*
%TO.P,J1,4*%
%TO.N,GND*%
X109885000Y-75874000D03*
D12*
%TO.P,J1,MP*%
X115485000Y-79074000D03*
X108035000Y-79074000D03*
%TD*%
D13*
%TO.P,JP2,1,A*%
%TO.N,GND*%
X104902000Y-72420000D03*
D14*
%TO.P,JP2,2,C*%
%TO.N,/A0*%
X104902000Y-71120000D03*
D15*
%TO.P,JP2,3,B*%
%TO.N,/SDA*%
X104902000Y-69820000D03*
%TD*%
D16*
%TO.P,JP4,1,A*%
%TO.N,+3.3V*%
X117805200Y-69850000D03*
D17*
%TO.P,JP4,2,C*%
%TO.N,/A2*%
X116505200Y-69850000D03*
D18*
%TO.P,JP4,3,B*%
%TO.N,GND*%
X115205200Y-69850000D03*
%TD*%
D19*
%TO.P,JP1,1,A*%
%TO.N,/SCL*%
X107426500Y-69820000D03*
D14*
%TO.P,JP1,2,C*%
%TO.N,/A0*%
X107426500Y-71120000D03*
D20*
%TO.P,JP1,3,B*%
%TO.N,+3.3V*%
X107426500Y-72420000D03*
%TD*%
D16*
%TO.P,JP3,1,A*%
%TO.N,+3.3V*%
X117809800Y-72415400D03*
D17*
%TO.P,JP3,2,C*%
%TO.N,/A1*%
X116509800Y-72415400D03*
D18*
%TO.P,JP3,3,B*%
%TO.N,GND*%
X115209800Y-72415400D03*
%TD*%
D21*
%TO.P,J2,1*%
%TO.N,VDD*%
X109885000Y-66620000D03*
%TO.P,J2,2*%
%TO.N,/SCL*%
X111135000Y-66620000D03*
%TO.P,J2,3*%
%TO.N,/SDA*%
X112385000Y-66620000D03*
%TO.P,J2,4*%
%TO.N,GND*%
X113635000Y-66620000D03*
D22*
%TO.P,J2,MP*%
X108035000Y-63420000D03*
X115485000Y-63420000D03*
%TD*%
D23*
%TO.N,+3.3V*%
X119583200Y-70027800D03*
X107442000Y-73914000D03*
%TO.N,GND*%
X111658400Y-69926200D03*
X105562400Y-73939400D03*
X105359200Y-63500000D03*
X111734600Y-72898000D03*
X115036600Y-66522600D03*
X106476800Y-79044800D03*
X113030000Y-64770000D03*
X111836200Y-71196200D03*
X113411000Y-68935600D03*
X117094000Y-63500000D03*
X110007400Y-77571600D03*
X113995200Y-79070200D03*
X114046000Y-63500000D03*
X109397800Y-79324200D03*
X103124000Y-71831200D03*
X113030000Y-62992000D03*
X114046000Y-64770000D03*
X117068600Y-79044800D03*
%TO.N,VDD*%
X108458000Y-67462400D03*
%TO.N,/SDA*%
X112385000Y-73914000D03*
%TO.N,/SCL*%
X111135000Y-68148200D03*
%TO.N,/A2*%
X114452400Y-68466300D03*
%TO.N,/A1*%
X117094000Y-75438000D03*
%TO.N,/A0*%
X109169200Y-71475600D03*
%TD*%
D24*
%TO.N,+3.3V*%
X117805200Y-69850000D02*
X117809800Y-69854600D01*
X117809800Y-69854600D02*
X117809800Y-72415400D01*
X119583200Y-70027800D02*
X117983000Y-70027800D01*
X107442000Y-72435500D02*
X107426500Y-72420000D01*
X117983000Y-70027800D02*
X117805200Y-69850000D01*
X107442000Y-73914000D02*
X107442000Y-72435500D01*
%TO.N,VDD*%
X109894200Y-73265200D02*
X108483400Y-74676000D01*
X109894200Y-66629200D02*
X109894200Y-73265200D01*
X109300400Y-66620000D02*
X108458000Y-67462400D01*
X108483400Y-74676000D02*
X108483400Y-77139800D01*
X109931200Y-78587600D02*
X112395000Y-78587600D01*
X112395000Y-78587600D02*
X113635000Y-77347600D01*
X108483400Y-77139800D02*
X109931200Y-78587600D01*
X109885000Y-66620000D02*
X109894200Y-66629200D01*
X113635000Y-77347600D02*
X113635000Y-75874000D01*
X109885000Y-66620000D02*
X109300400Y-66620000D01*
%TO.N,/SDA*%
X111582200Y-74345800D02*
X111135000Y-74793000D01*
X112385000Y-73914000D02*
X113157000Y-73142000D01*
X111135000Y-74793000D02*
X111135000Y-75874000D01*
X109016800Y-64871600D02*
X104902000Y-68986400D01*
X112385000Y-66620000D02*
X112385000Y-66030000D01*
X112385000Y-66030000D02*
X111226600Y-64871600D01*
X111226600Y-64871600D02*
X109016800Y-64871600D01*
X111953200Y-74345800D02*
X111582200Y-74345800D01*
X113157000Y-70383400D02*
X112385000Y-69611400D01*
X112385000Y-69611400D02*
X112385000Y-66620000D01*
X112385000Y-73914000D02*
X111953200Y-74345800D01*
X113157000Y-73142000D02*
X113157000Y-70383400D01*
X104902000Y-68986400D02*
X104902000Y-69820000D01*
%TO.N,/SCL*%
X110490000Y-68793200D02*
X110490000Y-73863200D01*
X111135000Y-66075400D02*
X110439200Y-65379600D01*
X109475396Y-65379600D02*
X107442000Y-67412996D01*
X111135000Y-68148200D02*
X110490000Y-68793200D01*
X107442000Y-67412996D02*
X107442000Y-69804500D01*
X112385000Y-76870400D02*
X112385000Y-75874000D01*
X111232000Y-66620000D02*
X111232000Y-66891751D01*
X110820200Y-77165200D02*
X112090200Y-77165200D01*
X110510000Y-73883200D02*
X110510000Y-76855000D01*
X111135000Y-66620000D02*
X111135000Y-68148200D01*
X111135000Y-66620000D02*
X111135000Y-66075400D01*
X110439200Y-65379600D02*
X109475396Y-65379600D01*
X110510000Y-76855000D02*
X110820200Y-77165200D01*
X110490000Y-73863200D02*
X110510000Y-73883200D01*
X107442000Y-69804500D02*
X107426500Y-69820000D01*
X111232000Y-66891751D02*
X111252000Y-66911751D01*
X112090200Y-77165200D02*
X112385000Y-76870400D01*
%TO.N,/A2*%
X115581120Y-68466300D02*
X116505200Y-69390380D01*
X114452400Y-68466300D02*
X115581120Y-68466300D01*
X116505200Y-69390380D02*
X116505200Y-69850000D01*
%TO.N,/A1*%
X117094000Y-74422000D02*
X116509800Y-73837800D01*
X117094000Y-75438000D02*
X117094000Y-74422000D01*
X116509800Y-73837800D02*
X116509800Y-72415400D01*
%TO.N,/A0*%
X107573600Y-71475600D02*
X107442000Y-71344000D01*
X108813600Y-71120000D02*
X109169200Y-71475600D01*
X107426500Y-71120000D02*
X108813600Y-71120000D01*
X105216000Y-71344000D02*
X105156000Y-71404000D01*
X107426500Y-71120000D02*
X104902000Y-71120000D01*
%TD*%
%TA.AperFunction,Conductor*%
%TO.N,GND*%
G36*
X109827539Y-75643685D02*
G01*
X109873294Y-75696489D01*
X109884500Y-75748000D01*
X109884500Y-76772255D01*
X109882775Y-76787872D01*
X109883061Y-76787899D01*
X109882450Y-76794364D01*
X109881909Y-76795718D01*
X109881513Y-76799306D01*
X109880868Y-76802187D01*
X109882939Y-76815138D01*
X109884500Y-76864814D01*
X109884500Y-76894343D01*
X109884501Y-76894360D01*
X109885368Y-76901231D01*
X109885826Y-76907050D01*
X109887290Y-76953624D01*
X109887291Y-76953627D01*
X109892880Y-76972867D01*
X109896824Y-76991911D01*
X109899336Y-77011792D01*
X109912997Y-77046296D01*
X109916490Y-77055119D01*
X109918382Y-77060647D01*
X109931381Y-77105388D01*
X109941580Y-77122634D01*
X109950136Y-77140100D01*
X109953904Y-77149614D01*
X109957514Y-77158732D01*
X109984898Y-77196423D01*
X109988106Y-77201307D01*
X110011827Y-77241416D01*
X110011833Y-77241424D01*
X110025990Y-77255580D01*
X110038627Y-77270375D01*
X110041261Y-77274000D01*
X110050405Y-77286586D01*
X110050406Y-77286587D01*
X110086308Y-77316287D01*
X110090619Y-77320209D01*
X110213942Y-77443532D01*
X110319394Y-77548984D01*
X110329217Y-77561245D01*
X110329439Y-77561063D01*
X110334412Y-77567075D01*
X110334413Y-77567076D01*
X110334414Y-77567077D01*
X110347849Y-77579693D01*
X110384837Y-77614428D01*
X110405723Y-77635315D01*
X110405727Y-77635318D01*
X110405729Y-77635320D01*
X110411211Y-77639573D01*
X110415643Y-77643357D01*
X110449618Y-77675262D01*
X110467176Y-77684914D01*
X110483433Y-77695593D01*
X110499264Y-77707873D01*
X110523087Y-77718182D01*
X110537222Y-77724299D01*
X110590929Y-77768990D01*
X110611949Y-77835622D01*
X110593608Y-77903042D01*
X110541729Y-77949843D01*
X110487974Y-77962100D01*
X110241653Y-77962100D01*
X110174614Y-77942415D01*
X110153972Y-77925781D01*
X109629792Y-77401601D01*
X109596307Y-77340278D01*
X109601291Y-77270586D01*
X109633303Y-77222863D01*
X109635000Y-77221294D01*
X109635000Y-76819033D01*
X109638207Y-76808108D01*
X109637264Y-76806282D01*
X109635000Y-76782697D01*
X109635000Y-75748000D01*
X109654685Y-75680961D01*
X109707489Y-75635206D01*
X109759000Y-75624000D01*
X109760500Y-75624000D01*
X109827539Y-75643685D01*
G37*
%TD.AperFunction*%
%TA.AperFunction,Conductor*%
G36*
X111717590Y-68953879D02*
G01*
X111754804Y-69013014D01*
X111759500Y-69046816D01*
X111759500Y-69528655D01*
X111757775Y-69544272D01*
X111758061Y-69544299D01*
X111757326Y-69552065D01*
X111759500Y-69621214D01*
X111759500Y-69650743D01*
X111759501Y-69650760D01*
X111760368Y-69657631D01*
X111760826Y-69663450D01*
X111762290Y-69710024D01*
X111762291Y-69710027D01*
X111767880Y-69729267D01*
X111771824Y-69748311D01*
X111774336Y-69768191D01*
X111791490Y-69811519D01*
X111793382Y-69817047D01*
X111806381Y-69861788D01*
X111816580Y-69879034D01*
X111825138Y-69896503D01*
X111832514Y-69915132D01*
X111859898Y-69952823D01*
X111863106Y-69957707D01*
X111886827Y-69997816D01*
X111886833Y-69997824D01*
X111900990Y-70011980D01*
X111913628Y-70026776D01*
X111925405Y-70042986D01*
X111925406Y-70042987D01*
X111961309Y-70072688D01*
X111965620Y-70076610D01*
X112233058Y-70344048D01*
X112495181Y-70606171D01*
X112528666Y-70667494D01*
X112531500Y-70693852D01*
X112531500Y-72831546D01*
X112511815Y-72898585D01*
X112495182Y-72919226D01*
X112437229Y-72977180D01*
X112375906Y-73010666D01*
X112349547Y-73013500D01*
X112290354Y-73013500D01*
X112272147Y-73017370D01*
X112105197Y-73052855D01*
X112105192Y-73052857D01*
X111932270Y-73129848D01*
X111932265Y-73129851D01*
X111779129Y-73241111D01*
X111652466Y-73381785D01*
X111557821Y-73545715D01*
X111557820Y-73545717D01*
X111523624Y-73650960D01*
X111484185Y-73708634D01*
X111432372Y-73730889D01*
X111432965Y-73733196D01*
X111425409Y-73735135D01*
X111425408Y-73735136D01*
X111425406Y-73735136D01*
X111425405Y-73735137D01*
X111382068Y-73752294D01*
X111376542Y-73754186D01*
X111331811Y-73767182D01*
X111331808Y-73767183D01*
X111314563Y-73777381D01*
X111297105Y-73785934D01*
X111285156Y-73790666D01*
X111215579Y-73797048D01*
X111153596Y-73764800D01*
X111118887Y-73704161D01*
X111115500Y-73675377D01*
X111115500Y-69172347D01*
X111135185Y-69105308D01*
X111187989Y-69059553D01*
X111226537Y-69049026D01*
X111229632Y-69048700D01*
X111229646Y-69048700D01*
X111414803Y-69009344D01*
X111585067Y-68933536D01*
X111654313Y-68924251D01*
X111717590Y-68953879D01*
G37*
%TD.AperFunction*%
%TA.AperFunction,Conductor*%
G36*
X107367470Y-61487685D02*
G01*
X107413225Y-61540489D01*
X107423169Y-61609647D01*
X107394144Y-61673203D01*
X107365528Y-61697539D01*
X107316654Y-61727684D01*
X107192684Y-61851654D01*
X107100643Y-62000875D01*
X107100641Y-62000880D01*
X107045494Y-62167302D01*
X107045493Y-62167309D01*
X107035000Y-62270013D01*
X107035000Y-63170000D01*
X109034999Y-63170000D01*
X109034999Y-62270028D01*
X109034998Y-62270013D01*
X109024505Y-62167302D01*
X108969358Y-62000880D01*
X108969356Y-62000875D01*
X108877315Y-61851654D01*
X108753345Y-61727684D01*
X108704472Y-61697539D01*
X108657748Y-61645591D01*
X108646525Y-61576628D01*
X108674369Y-61512546D01*
X108732438Y-61473690D01*
X108769569Y-61468000D01*
X114750431Y-61468000D01*
X114817470Y-61487685D01*
X114863225Y-61540489D01*
X114873169Y-61609647D01*
X114844144Y-61673203D01*
X114815528Y-61697539D01*
X114766654Y-61727684D01*
X114642684Y-61851654D01*
X114550643Y-62000875D01*
X114550641Y-62000880D01*
X114495494Y-62167302D01*
X114495493Y-62167309D01*
X114485000Y-62270013D01*
X114485000Y-63170000D01*
X116484999Y-63170000D01*
X116484999Y-62270028D01*
X116484998Y-62270013D01*
X116474505Y-62167302D01*
X116419358Y-62000880D01*
X116419356Y-62000875D01*
X116327315Y-61851654D01*
X116203345Y-61727684D01*
X116154472Y-61697539D01*
X116107748Y-61645591D01*
X116096525Y-61576628D01*
X116124369Y-61512546D01*
X116182438Y-61473690D01*
X116219569Y-61468000D01*
X126368000Y-61468000D01*
X126435039Y-61487685D01*
X126480794Y-61540489D01*
X126492000Y-61592000D01*
X126492000Y-80648000D01*
X126472315Y-80715039D01*
X126419511Y-80760794D01*
X126368000Y-80772000D01*
X116469519Y-80772000D01*
X116402480Y-80752315D01*
X116356725Y-80699511D01*
X116346781Y-80630353D01*
X116363980Y-80582903D01*
X116419356Y-80493124D01*
X116419358Y-80493119D01*
X116474505Y-80326697D01*
X116474506Y-80326690D01*
X116484999Y-80223986D01*
X116485000Y-80223973D01*
X116485000Y-79324000D01*
X114485001Y-79324000D01*
X114485001Y-80223986D01*
X114495494Y-80326697D01*
X114550641Y-80493119D01*
X114550643Y-80493124D01*
X114606020Y-80582903D01*
X114624460Y-80650295D01*
X114603538Y-80716959D01*
X114549896Y-80761729D01*
X114500481Y-80772000D01*
X109019519Y-80772000D01*
X108952480Y-80752315D01*
X108906725Y-80699511D01*
X108896781Y-80630353D01*
X108913980Y-80582903D01*
X108969356Y-80493124D01*
X108969358Y-80493119D01*
X109024505Y-80326697D01*
X109024506Y-80326690D01*
X109034999Y-80223986D01*
X109035000Y-80223973D01*
X109035000Y-79324000D01*
X107035001Y-79324000D01*
X107035001Y-80223986D01*
X107045494Y-80326697D01*
X107100641Y-80493119D01*
X107100643Y-80493124D01*
X107156020Y-80582903D01*
X107174460Y-80650295D01*
X107153538Y-80716959D01*
X107099896Y-80761729D01*
X107050481Y-80772000D01*
X97152000Y-80772000D01*
X97084961Y-80752315D01*
X97039206Y-80699511D01*
X97028000Y-80648000D01*
X97028000Y-70370000D01*
X103646353Y-70370000D01*
X103651499Y-70441955D01*
X103651501Y-70441964D01*
X103655041Y-70454023D01*
X103656401Y-70504553D01*
X103658738Y-70504805D01*
X103651501Y-70572116D01*
X103651500Y-70572135D01*
X103651500Y-71667870D01*
X103651501Y-71667876D01*
X103657908Y-71727483D01*
X103708202Y-71862328D01*
X103708206Y-71862335D01*
X103794452Y-71977544D01*
X103794455Y-71977547D01*
X103909664Y-72063793D01*
X103909671Y-72063797D01*
X104044517Y-72114091D01*
X104044516Y-72114091D01*
X104051444Y-72114835D01*
X104104127Y-72120500D01*
X105699872Y-72120499D01*
X105759483Y-72114091D01*
X105894331Y-72063796D01*
X105972543Y-72005246D01*
X106038005Y-71980829D01*
X106106278Y-71995680D01*
X106155684Y-72045085D01*
X106170853Y-72104513D01*
X106170853Y-72491889D01*
X106191334Y-72634341D01*
X106191334Y-72634343D01*
X106205035Y-72681003D01*
X106231842Y-72772300D01*
X106289515Y-72898585D01*
X106291629Y-72903215D01*
X106291629Y-72903217D01*
X106369360Y-73024169D01*
X106463608Y-73132939D01*
X106463610Y-73132941D01*
X106572262Y-73227088D01*
X106572268Y-73227092D01*
X106572274Y-73227097D01*
X106638014Y-73269345D01*
X106683768Y-73322148D01*
X106693712Y-73391306D01*
X106678362Y-73435659D01*
X106614820Y-73545718D01*
X106614818Y-73545722D01*
X106557188Y-73723091D01*
X106556326Y-73725744D01*
X106536540Y-73914000D01*
X106556326Y-74102256D01*
X106556327Y-74102259D01*
X106614818Y-74282277D01*
X106614819Y-74282279D01*
X106614821Y-74282284D01*
X106709467Y-74446216D01*
X106822953Y-74572255D01*
X106836129Y-74586888D01*
X106989265Y-74698148D01*
X106989270Y-74698151D01*
X107162192Y-74775142D01*
X107162197Y-74775144D01*
X107347354Y-74814500D01*
X107347355Y-74814500D01*
X107536644Y-74814500D01*
X107536646Y-74814500D01*
X107708121Y-74778052D01*
X107777786Y-74783368D01*
X107833520Y-74825505D01*
X107857625Y-74891085D01*
X107857900Y-74899342D01*
X107857900Y-77057055D01*
X107856175Y-77072672D01*
X107856461Y-77072699D01*
X107855726Y-77080467D01*
X107856218Y-77096108D01*
X107838647Y-77163732D01*
X107787306Y-77211122D01*
X107738111Y-77222698D01*
X107738170Y-77223841D01*
X107735012Y-77224001D01*
X107632302Y-77234494D01*
X107465880Y-77289641D01*
X107465875Y-77289643D01*
X107316654Y-77381684D01*
X107192684Y-77505654D01*
X107100643Y-77654875D01*
X107100641Y-77654880D01*
X107045494Y-77821302D01*
X107045493Y-77821309D01*
X107035000Y-77924013D01*
X107035000Y-78824000D01*
X109034999Y-78824000D01*
X109071318Y-78787681D01*
X109074649Y-78791012D01*
X109107488Y-78762557D01*
X109176646Y-78752613D01*
X109240202Y-78781638D01*
X109246667Y-78787658D01*
X109428907Y-78969898D01*
X109430397Y-78971388D01*
X109440222Y-78983651D01*
X109440443Y-78983469D01*
X109445414Y-78989478D01*
X109466243Y-79009037D01*
X109495835Y-79036826D01*
X109516729Y-79057720D01*
X109522211Y-79061973D01*
X109526643Y-79065757D01*
X109560618Y-79097662D01*
X109578176Y-79107314D01*
X109594435Y-79117995D01*
X109610264Y-79130273D01*
X109653038Y-79148782D01*
X109658256Y-79151338D01*
X109699108Y-79173797D01*
X109718516Y-79178780D01*
X109736917Y-79185080D01*
X109755304Y-79193037D01*
X109798688Y-79199908D01*
X109801319Y-79200325D01*
X109807039Y-79201509D01*
X109852181Y-79213100D01*
X109872216Y-79213100D01*
X109891614Y-79214626D01*
X109911394Y-79217759D01*
X109911395Y-79217760D01*
X109911395Y-79217759D01*
X109911396Y-79217760D01*
X109957783Y-79213375D01*
X109963622Y-79213100D01*
X112312257Y-79213100D01*
X112327877Y-79214824D01*
X112327904Y-79214539D01*
X112335660Y-79215271D01*
X112335667Y-79215273D01*
X112404814Y-79213100D01*
X112434350Y-79213100D01*
X112441228Y-79212230D01*
X112447041Y-79211772D01*
X112493627Y-79210309D01*
X112512869Y-79204717D01*
X112531912Y-79200774D01*
X112551792Y-79198264D01*
X112595122Y-79181107D01*
X112600646Y-79179217D01*
X112604396Y-79178127D01*
X112645390Y-79166218D01*
X112662629Y-79156022D01*
X112680103Y-79147462D01*
X112698727Y-79140088D01*
X112698727Y-79140087D01*
X112698732Y-79140086D01*
X112736449Y-79112682D01*
X112741305Y-79109492D01*
X112781420Y-79085770D01*
X112795589Y-79071599D01*
X112810379Y-79058968D01*
X112826587Y-79047194D01*
X112856299Y-79011276D01*
X112860212Y-79006976D01*
X113043188Y-78824000D01*
X114485000Y-78824000D01*
X115235000Y-78824000D01*
X115235000Y-77224000D01*
X115735000Y-77224000D01*
X115735000Y-78824000D01*
X116484999Y-78824000D01*
X116484999Y-77924028D01*
X116484998Y-77924013D01*
X116474505Y-77821302D01*
X116419358Y-77654880D01*
X116419356Y-77654875D01*
X116327315Y-77505654D01*
X116203345Y-77381684D01*
X116054124Y-77289643D01*
X116054119Y-77289641D01*
X115887697Y-77234494D01*
X115887690Y-77234493D01*
X115784986Y-77224000D01*
X115735000Y-77224000D01*
X115235000Y-77224000D01*
X115234999Y-77223999D01*
X115185029Y-77224000D01*
X115185011Y-77224001D01*
X115082302Y-77234494D01*
X114915880Y-77289641D01*
X114915875Y-77289643D01*
X114766654Y-77381684D01*
X114642684Y-77505654D01*
X114550643Y-77654875D01*
X114550641Y-77654880D01*
X114495494Y-77821302D01*
X114495493Y-77821309D01*
X114485000Y-77924013D01*
X114485000Y-78824000D01*
X113043188Y-78824000D01*
X114018787Y-77848402D01*
X114031042Y-77838586D01*
X114030859Y-77838364D01*
X114036866Y-77833392D01*
X114036877Y-77833386D01*
X114067775Y-77800482D01*
X114084227Y-77782964D01*
X114094671Y-77772518D01*
X114105120Y-77762071D01*
X114109379Y-77756578D01*
X114113152Y-77752161D01*
X114145062Y-77718182D01*
X114154715Y-77700620D01*
X114165389Y-77684370D01*
X114177673Y-77668536D01*
X114196180Y-77625767D01*
X114198749Y-77620524D01*
X114221196Y-77579693D01*
X114221197Y-77579692D01*
X114226177Y-77560291D01*
X114232478Y-77541888D01*
X114240438Y-77523496D01*
X114247730Y-77477449D01*
X114248911Y-77471752D01*
X114260500Y-77426619D01*
X114260500Y-77406583D01*
X114262027Y-77387182D01*
X114262898Y-77381684D01*
X114265160Y-77367404D01*
X114260775Y-77321015D01*
X114260500Y-77315177D01*
X114260500Y-77069808D01*
X114280185Y-77002769D01*
X114296817Y-76982128D01*
X114303081Y-76975865D01*
X114386744Y-76834398D01*
X114432598Y-76676569D01*
X114435500Y-76639694D01*
X114435500Y-75108306D01*
X114432598Y-75071431D01*
X114432101Y-75069722D01*
X114386745Y-74913606D01*
X114386744Y-74913603D01*
X114386744Y-74913602D01*
X114303081Y-74772135D01*
X114303079Y-74772133D01*
X114303076Y-74772129D01*
X114186870Y-74655923D01*
X114186862Y-74655917D01*
X114045396Y-74572255D01*
X114045393Y-74572254D01*
X113887573Y-74526402D01*
X113887567Y-74526401D01*
X113850696Y-74523500D01*
X113850694Y-74523500D01*
X113419306Y-74523500D01*
X113419304Y-74523500D01*
X113382432Y-74526401D01*
X113304729Y-74548976D01*
X113234859Y-74548776D01*
X113176190Y-74510833D01*
X113147347Y-74447194D01*
X113157489Y-74378065D01*
X113162732Y-74367928D01*
X113212179Y-74282284D01*
X113270674Y-74102256D01*
X113288321Y-73934344D01*
X113314904Y-73869734D01*
X113323951Y-73859638D01*
X113540788Y-73642801D01*
X113553042Y-73632986D01*
X113552859Y-73632764D01*
X113558866Y-73627792D01*
X113558877Y-73627786D01*
X113589775Y-73594882D01*
X113606227Y-73577364D01*
X113616671Y-73566918D01*
X113627120Y-73556471D01*
X113631379Y-73550978D01*
X113635152Y-73546561D01*
X113667062Y-73512582D01*
X113676715Y-73495020D01*
X113687389Y-73478770D01*
X113699673Y-73462936D01*
X113718180Y-73420167D01*
X113720749Y-73414924D01*
X113733733Y-73391306D01*
X113743197Y-73374092D01*
X113748177Y-73354691D01*
X113754478Y-73336288D01*
X113762438Y-73317896D01*
X113769730Y-73271849D01*
X113770911Y-73266152D01*
X113782500Y-73221019D01*
X113782500Y-73200983D01*
X113784027Y-73181582D01*
X113787160Y-73161804D01*
X113782775Y-73115415D01*
X113782500Y-73109577D01*
X113782500Y-70466142D01*
X113784224Y-70450522D01*
X113783939Y-70450496D01*
X113784671Y-70442740D01*
X113784673Y-70442733D01*
X113782500Y-70373585D01*
X113782500Y-70344050D01*
X113781631Y-70337172D01*
X113781172Y-70331343D01*
X113779709Y-70284772D01*
X113774122Y-70265544D01*
X113770174Y-70246484D01*
X113767663Y-70226604D01*
X113750512Y-70183287D01*
X113748619Y-70177758D01*
X113735618Y-70133009D01*
X113735616Y-70133006D01*
X113725423Y-70115771D01*
X113716861Y-70098294D01*
X113709487Y-70079670D01*
X113707272Y-70076621D01*
X113682079Y-70041945D01*
X113678888Y-70037086D01*
X113673396Y-70027800D01*
X113655667Y-69997820D01*
X113655172Y-69996983D01*
X113655165Y-69996974D01*
X113641006Y-69982815D01*
X113628368Y-69968019D01*
X113620876Y-69957707D01*
X113616594Y-69951813D01*
X113580688Y-69922109D01*
X113576376Y-69918186D01*
X113046819Y-69388628D01*
X113013334Y-69327305D01*
X113010500Y-69300947D01*
X113010500Y-68011939D01*
X113030185Y-67944900D01*
X113082989Y-67899145D01*
X113152147Y-67889201D01*
X113197621Y-67905207D01*
X113224803Y-67921282D01*
X113224806Y-67921283D01*
X113382504Y-67967099D01*
X113382510Y-67967100D01*
X113419356Y-67970000D01*
X113496144Y-67970000D01*
X113563183Y-67989685D01*
X113608938Y-68042489D01*
X113618882Y-68111647D01*
X113614075Y-68132318D01*
X113576811Y-68247005D01*
X113566726Y-68278044D01*
X113546940Y-68466300D01*
X113566726Y-68654556D01*
X113566727Y-68654559D01*
X113625218Y-68834577D01*
X113625221Y-68834584D01*
X113719867Y-68998516D01*
X113826411Y-69116845D01*
X113846529Y-69139188D01*
X113999665Y-69250448D01*
X113999670Y-69250451D01*
X114172592Y-69327442D01*
X114172597Y-69327444D01*
X114357754Y-69366800D01*
X114357755Y-69366800D01*
X114547044Y-69366800D01*
X114547046Y-69366800D01*
X114732203Y-69327444D01*
X114905130Y-69250451D01*
X115058271Y-69139188D01*
X115061188Y-69135947D01*
X115064000Y-69132826D01*
X115123487Y-69096179D01*
X115156148Y-69091800D01*
X115270668Y-69091800D01*
X115337707Y-69111485D01*
X115358349Y-69128119D01*
X115468381Y-69238151D01*
X115501866Y-69299474D01*
X115504700Y-69325832D01*
X115504700Y-70647870D01*
X115504701Y-70647876D01*
X115511108Y-70707483D01*
X115561402Y-70842328D01*
X115561406Y-70842335D01*
X115625760Y-70928300D01*
X115647654Y-70957546D01*
X115751327Y-71035156D01*
X115793197Y-71091088D01*
X115798181Y-71160780D01*
X115764696Y-71222103D01*
X115751327Y-71233687D01*
X115652252Y-71307855D01*
X115566006Y-71423064D01*
X115566002Y-71423071D01*
X115515708Y-71557917D01*
X115509301Y-71617516D01*
X115509300Y-71617535D01*
X115509300Y-73213270D01*
X115509301Y-73213276D01*
X115515708Y-73272883D01*
X115566002Y-73407728D01*
X115566006Y-73407735D01*
X115652252Y-73522944D01*
X115652255Y-73522947D01*
X115767464Y-73609193D01*
X115767469Y-73609196D01*
X115803632Y-73622684D01*
X115859566Y-73664554D01*
X115883984Y-73730018D01*
X115884300Y-73738866D01*
X115884300Y-73755055D01*
X115882575Y-73770672D01*
X115882861Y-73770699D01*
X115882126Y-73778465D01*
X115884300Y-73847614D01*
X115884300Y-73877143D01*
X115884301Y-73877160D01*
X115885168Y-73884031D01*
X115885626Y-73889850D01*
X115887090Y-73936424D01*
X115887091Y-73936427D01*
X115892680Y-73955667D01*
X115896624Y-73974711D01*
X115899136Y-73994592D01*
X115915364Y-74035580D01*
X115916290Y-74037919D01*
X115918182Y-74043447D01*
X115931182Y-74088190D01*
X115939500Y-74102256D01*
X115941380Y-74105434D01*
X115949938Y-74122903D01*
X115957314Y-74141532D01*
X115984698Y-74179223D01*
X115987906Y-74184107D01*
X116011627Y-74224216D01*
X116011633Y-74224224D01*
X116025790Y-74238380D01*
X116038428Y-74253176D01*
X116050205Y-74269386D01*
X116050206Y-74269387D01*
X116086109Y-74299088D01*
X116090420Y-74303010D01*
X116268743Y-74481333D01*
X116432180Y-74644770D01*
X116465665Y-74706093D01*
X116468499Y-74732433D01*
X116468500Y-74739294D01*
X116448825Y-74806336D01*
X116436650Y-74822284D01*
X116361466Y-74905784D01*
X116266821Y-75069715D01*
X116266818Y-75069722D01*
X116208327Y-75249740D01*
X116208326Y-75249744D01*
X116188540Y-75438000D01*
X116208326Y-75626256D01*
X116208327Y-75626259D01*
X116266818Y-75806277D01*
X116266821Y-75806284D01*
X116361467Y-75970216D01*
X116488128Y-76110888D01*
X116488129Y-76110888D01*
X116641265Y-76222148D01*
X116641270Y-76222151D01*
X116814192Y-76299142D01*
X116814197Y-76299144D01*
X116999354Y-76338500D01*
X116999355Y-76338500D01*
X117188644Y-76338500D01*
X117188646Y-76338500D01*
X117373803Y-76299144D01*
X117546730Y-76222151D01*
X117699871Y-76110888D01*
X117826533Y-75970216D01*
X117921179Y-75806284D01*
X117979674Y-75626256D01*
X117999460Y-75438000D01*
X117979674Y-75249744D01*
X117921179Y-75069716D01*
X117826533Y-74905784D01*
X117813298Y-74891085D01*
X117751350Y-74822284D01*
X117721120Y-74759292D01*
X117719500Y-74739312D01*
X117719500Y-74504742D01*
X117721224Y-74489122D01*
X117720939Y-74489095D01*
X117721673Y-74481333D01*
X117719500Y-74412171D01*
X117719500Y-74382656D01*
X117719500Y-74382650D01*
X117718631Y-74375779D01*
X117718173Y-74369952D01*
X117716710Y-74323373D01*
X117711119Y-74304130D01*
X117707173Y-74285078D01*
X117704664Y-74265208D01*
X117687504Y-74221867D01*
X117685624Y-74216379D01*
X117672618Y-74171610D01*
X117662422Y-74154370D01*
X117653861Y-74136894D01*
X117646487Y-74118270D01*
X117646486Y-74118268D01*
X117619079Y-74080545D01*
X117615888Y-74075686D01*
X117592172Y-74035583D01*
X117592165Y-74035574D01*
X117578006Y-74021415D01*
X117565368Y-74006619D01*
X117556629Y-73994591D01*
X117553594Y-73990413D01*
X117517688Y-73960709D01*
X117513376Y-73956786D01*
X117439318Y-73882728D01*
X117405833Y-73821405D01*
X117410817Y-73751713D01*
X117452689Y-73695780D01*
X117518153Y-73671363D01*
X117526999Y-73671047D01*
X117881686Y-73671047D01*
X117881689Y-73671047D01*
X118024145Y-73650565D01*
X118162100Y-73610058D01*
X118293016Y-73550271D01*
X118413964Y-73472543D01*
X118413969Y-73472540D01*
X118413966Y-73472543D01*
X118522739Y-73378291D01*
X118522741Y-73378289D01*
X118616888Y-73269637D01*
X118616890Y-73269633D01*
X118616897Y-73269626D01*
X118694704Y-73148555D01*
X118694707Y-73148547D01*
X118694710Y-73148543D01*
X118738408Y-73052857D01*
X118754432Y-73017770D01*
X118754432Y-73017769D01*
X118754432Y-73017767D01*
X118754614Y-73017370D01*
X118755050Y-73015662D01*
X118794980Y-72879677D01*
X118815442Y-72737362D01*
X118815442Y-72681003D01*
X118815447Y-72680985D01*
X118815447Y-72149843D01*
X118815442Y-72149797D01*
X118815442Y-72093439D01*
X118815442Y-72093438D01*
X118794980Y-71951123D01*
X118794980Y-71951122D01*
X118794980Y-71951120D01*
X118754432Y-71813031D01*
X118754427Y-71813018D01*
X118694710Y-71682256D01*
X118694697Y-71682233D01*
X118616903Y-71561183D01*
X118616888Y-71561162D01*
X118564897Y-71501162D01*
X118522743Y-71452513D01*
X118522740Y-71452510D01*
X118497246Y-71430420D01*
X118478096Y-71413825D01*
X118440322Y-71355046D01*
X118435300Y-71320113D01*
X118435300Y-70941298D01*
X118454985Y-70874259D01*
X118478095Y-70847587D01*
X118518143Y-70812887D01*
X118612297Y-70704226D01*
X118613223Y-70702990D01*
X118613638Y-70702679D01*
X118615198Y-70700879D01*
X118615589Y-70701218D01*
X118669156Y-70661118D01*
X118712490Y-70653300D01*
X118879452Y-70653300D01*
X118946491Y-70672985D01*
X118971600Y-70694326D01*
X118977326Y-70700685D01*
X118977330Y-70700689D01*
X119130465Y-70811948D01*
X119130470Y-70811951D01*
X119303392Y-70888942D01*
X119303397Y-70888944D01*
X119488554Y-70928300D01*
X119488555Y-70928300D01*
X119677844Y-70928300D01*
X119677846Y-70928300D01*
X119863003Y-70888944D01*
X120035930Y-70811951D01*
X120189071Y-70700688D01*
X120315733Y-70560016D01*
X120410379Y-70396084D01*
X120468874Y-70216056D01*
X120488660Y-70027800D01*
X120468874Y-69839544D01*
X120411657Y-69663450D01*
X120410381Y-69659522D01*
X120410380Y-69659521D01*
X120410379Y-69659516D01*
X120315733Y-69495584D01*
X120189071Y-69354912D01*
X120189070Y-69354911D01*
X120035934Y-69243651D01*
X120035929Y-69243648D01*
X119863007Y-69166657D01*
X119863002Y-69166655D01*
X119703844Y-69132826D01*
X119677846Y-69127300D01*
X119488554Y-69127300D01*
X119462556Y-69132826D01*
X119303397Y-69166655D01*
X119303392Y-69166657D01*
X119130470Y-69243648D01*
X119130465Y-69243651D01*
X118977330Y-69354910D01*
X118972499Y-69359261D01*
X118971484Y-69358134D01*
X118918594Y-69390707D01*
X118848737Y-69389364D01*
X118790696Y-69350467D01*
X118766975Y-69306014D01*
X118749834Y-69247638D01*
X118749832Y-69247630D01*
X118748014Y-69243649D01*
X118690110Y-69116856D01*
X118690097Y-69116833D01*
X118612303Y-68995783D01*
X118612288Y-68995762D01*
X118518143Y-68887113D01*
X118509162Y-68879331D01*
X118409370Y-68792861D01*
X118374137Y-68770218D01*
X118288421Y-68715131D01*
X118288417Y-68715129D01*
X118288416Y-68715129D01*
X118157500Y-68655342D01*
X118019545Y-68614835D01*
X118019542Y-68614834D01*
X117877089Y-68594353D01*
X117255200Y-68594353D01*
X117183240Y-68599499D01*
X117183231Y-68599501D01*
X117171174Y-68603041D01*
X117120647Y-68604396D01*
X117120396Y-68606738D01*
X117053083Y-68599501D01*
X117053081Y-68599500D01*
X117053073Y-68599500D01*
X117053065Y-68599500D01*
X116650273Y-68599500D01*
X116583234Y-68579815D01*
X116562592Y-68563181D01*
X116081923Y-68082512D01*
X116072100Y-68070250D01*
X116071879Y-68070434D01*
X116066906Y-68064423D01*
X116016484Y-68017073D01*
X116006039Y-68006628D01*
X115995595Y-67996183D01*
X115990106Y-67991925D01*
X115985681Y-67988147D01*
X115951702Y-67956238D01*
X115951700Y-67956236D01*
X115951697Y-67956235D01*
X115934149Y-67946588D01*
X115917883Y-67935904D01*
X115902053Y-67923625D01*
X115859288Y-67905118D01*
X115854042Y-67902548D01*
X115813213Y-67880103D01*
X115813212Y-67880102D01*
X115793813Y-67875122D01*
X115775401Y-67868818D01*
X115757018Y-67860862D01*
X115757012Y-67860860D01*
X115710994Y-67853572D01*
X115705272Y-67852387D01*
X115660141Y-67840800D01*
X115660139Y-67840800D01*
X115640104Y-67840800D01*
X115620706Y-67839273D01*
X115613282Y-67838097D01*
X115600925Y-67836140D01*
X115600924Y-67836140D01*
X115554536Y-67840525D01*
X115548698Y-67840800D01*
X115156148Y-67840800D01*
X115089109Y-67821115D01*
X115064000Y-67799774D01*
X115058273Y-67793414D01*
X115058269Y-67793410D01*
X114905134Y-67682151D01*
X114905129Y-67682148D01*
X114732207Y-67605157D01*
X114732202Y-67605155D01*
X114547046Y-67565800D01*
X114541634Y-67565231D01*
X114477021Y-67538642D01*
X114437040Y-67481342D01*
X114433293Y-67428940D01*
X114431603Y-67428808D01*
X114435000Y-67385644D01*
X114435000Y-66870000D01*
X113509000Y-66870000D01*
X113441961Y-66850315D01*
X113396206Y-66797511D01*
X113385000Y-66746000D01*
X113384999Y-65272703D01*
X113382511Y-65272900D01*
X113224802Y-65318718D01*
X113076729Y-65406288D01*
X113075544Y-65404285D01*
X113021355Y-65425551D01*
X112952840Y-65411860D01*
X112943211Y-65405671D01*
X112796179Y-65318718D01*
X112795398Y-65318256D01*
X112795397Y-65318255D01*
X112795396Y-65318255D01*
X112795393Y-65318254D01*
X112638606Y-65272702D01*
X113884999Y-65272702D01*
X113884999Y-66369999D01*
X113885001Y-66370000D01*
X114435000Y-66370000D01*
X114435000Y-65854356D01*
X114432100Y-65817510D01*
X114432099Y-65817504D01*
X114386283Y-65659806D01*
X114386282Y-65659803D01*
X114302685Y-65518447D01*
X114302678Y-65518438D01*
X114186561Y-65402321D01*
X114186552Y-65402314D01*
X114045196Y-65318717D01*
X114045193Y-65318716D01*
X113887490Y-65272899D01*
X113884999Y-65272702D01*
X112638606Y-65272702D01*
X112637573Y-65272402D01*
X112637567Y-65272401D01*
X112600696Y-65269500D01*
X112600694Y-65269500D01*
X112560452Y-65269500D01*
X112493413Y-65249815D01*
X112472771Y-65233181D01*
X111727403Y-64487812D01*
X111717580Y-64475550D01*
X111717359Y-64475734D01*
X111712386Y-64469723D01*
X111712385Y-64469722D01*
X111661964Y-64422373D01*
X111651519Y-64411928D01*
X111641075Y-64401483D01*
X111635586Y-64397225D01*
X111631161Y-64393447D01*
X111597182Y-64361538D01*
X111597180Y-64361536D01*
X111597177Y-64361535D01*
X111579629Y-64351888D01*
X111563363Y-64341204D01*
X111547533Y-64328925D01*
X111504768Y-64310418D01*
X111499522Y-64307848D01*
X111458693Y-64285403D01*
X111458692Y-64285402D01*
X111439293Y-64280422D01*
X111420881Y-64274118D01*
X111402498Y-64266162D01*
X111402492Y-64266160D01*
X111356474Y-64258872D01*
X111350752Y-64257687D01*
X111305621Y-64246100D01*
X111305619Y-64246100D01*
X111285584Y-64246100D01*
X111266186Y-64244573D01*
X111258762Y-64243397D01*
X111246405Y-64241440D01*
X111246404Y-64241440D01*
X111200016Y-64245825D01*
X111194178Y-64246100D01*
X109158999Y-64246100D01*
X109091960Y-64226415D01*
X109046205Y-64173611D01*
X109034999Y-64122100D01*
X109035000Y-63670000D01*
X114485001Y-63670000D01*
X114485001Y-64569986D01*
X114495494Y-64672697D01*
X114550641Y-64839119D01*
X114550643Y-64839124D01*
X114642684Y-64988345D01*
X114766654Y-65112315D01*
X114915875Y-65204356D01*
X114915880Y-65204358D01*
X115082302Y-65259505D01*
X115082309Y-65259506D01*
X115185019Y-65269999D01*
X115234999Y-65269998D01*
X115235000Y-65269998D01*
X115235000Y-63670000D01*
X115735000Y-63670000D01*
X115735000Y-65269999D01*
X115784972Y-65269999D01*
X115784986Y-65269998D01*
X115887697Y-65259505D01*
X116054119Y-65204358D01*
X116054124Y-65204356D01*
X116203345Y-65112315D01*
X116327315Y-64988345D01*
X116419356Y-64839124D01*
X116419358Y-64839119D01*
X116474505Y-64672697D01*
X116474506Y-64672690D01*
X116484999Y-64569986D01*
X116485000Y-64569973D01*
X116485000Y-63670000D01*
X115735000Y-63670000D01*
X115235000Y-63670000D01*
X114485001Y-63670000D01*
X109035000Y-63670000D01*
X107035001Y-63670000D01*
X107035001Y-64569986D01*
X107045494Y-64672697D01*
X107100641Y-64839119D01*
X107100643Y-64839124D01*
X107192684Y-64988345D01*
X107316654Y-65112315D01*
X107465875Y-65204356D01*
X107465882Y-65204359D01*
X107525596Y-65224146D01*
X107583041Y-65263918D01*
X107609865Y-65328434D01*
X107597550Y-65397210D01*
X107574274Y-65429533D01*
X104518208Y-68485599D01*
X104505951Y-68495420D01*
X104506134Y-68495641D01*
X104500123Y-68500613D01*
X104452772Y-68551036D01*
X104431889Y-68571919D01*
X104431877Y-68571932D01*
X104427621Y-68577417D01*
X104423837Y-68581847D01*
X104391937Y-68615818D01*
X104391936Y-68615820D01*
X104382284Y-68633376D01*
X104371610Y-68649626D01*
X104359329Y-68665461D01*
X104359324Y-68665468D01*
X104340815Y-68708238D01*
X104338245Y-68713484D01*
X104315803Y-68754306D01*
X104310822Y-68773707D01*
X104304521Y-68792110D01*
X104296562Y-68810502D01*
X104296560Y-68810510D01*
X104295659Y-68816198D01*
X104265726Y-68879331D01*
X104224701Y-68909586D01*
X104168841Y-68935097D01*
X104168838Y-68935099D01*
X104047783Y-69012896D01*
X104047762Y-69012911D01*
X103956721Y-69091800D01*
X103939113Y-69107057D01*
X103939110Y-69107060D01*
X103844861Y-69215830D01*
X103830516Y-69238151D01*
X103767131Y-69336778D01*
X103767129Y-69336784D01*
X103707342Y-69467700D01*
X103666834Y-69605656D01*
X103666834Y-69605658D01*
X103646353Y-69748110D01*
X103646353Y-70370000D01*
X97028000Y-70370000D01*
X97028000Y-61592000D01*
X97047685Y-61524961D01*
X97100489Y-61479206D01*
X97152000Y-61468000D01*
X107300431Y-61468000D01*
X107367470Y-61487685D01*
G37*
%TD.AperFunction*%
%TD*%
M02*
