%TF.GenerationSoftware,KiCad,Pcbnew,7.0.7-7.0.7~ubuntu23.04.1*%
%TF.CreationDate,2023-09-23T00:40:23+00:00*%
%TF.ProjectId,TEMPSEN01,54454d50-5345-44e3-9031-2e6b69636164,rev?*%
%TF.SameCoordinates,Original*%
%TF.FileFunction,Legend,Bot*%
%TF.FilePolarity,Positive*%
%FSLAX46Y46*%
G04 Gerber Fmt 4.6, Leading zero omitted, Abs format (unit mm)*
G04 Created by KiCad (PCBNEW 7.0.7-7.0.7~ubuntu23.04.1) date 2023-09-23 00:40:23*
%MOMM*%
%LPD*%
G01*
G04 APERTURE LIST*
%ADD10C,0.080000*%
%ADD11C,0.120000*%
G04 APERTURE END LIST*
D10*
X118646340Y-74059849D02*
X118336816Y-74059849D01*
X118336816Y-74059849D02*
X118503483Y-74250325D01*
X118503483Y-74250325D02*
X118432054Y-74250325D01*
X118432054Y-74250325D02*
X118384435Y-74274135D01*
X118384435Y-74274135D02*
X118360626Y-74297944D01*
X118360626Y-74297944D02*
X118336816Y-74345563D01*
X118336816Y-74345563D02*
X118336816Y-74464611D01*
X118336816Y-74464611D02*
X118360626Y-74512230D01*
X118360626Y-74512230D02*
X118384435Y-74536040D01*
X118384435Y-74536040D02*
X118432054Y-74559849D01*
X118432054Y-74559849D02*
X118574911Y-74559849D01*
X118574911Y-74559849D02*
X118622530Y-74536040D01*
X118622530Y-74536040D02*
X118646340Y-74512230D01*
X118193959Y-74059849D02*
X118027293Y-74559849D01*
X118027293Y-74559849D02*
X117860626Y-74059849D01*
X117741579Y-74059849D02*
X117432055Y-74059849D01*
X117432055Y-74059849D02*
X117598722Y-74250325D01*
X117598722Y-74250325D02*
X117527293Y-74250325D01*
X117527293Y-74250325D02*
X117479674Y-74274135D01*
X117479674Y-74274135D02*
X117455865Y-74297944D01*
X117455865Y-74297944D02*
X117432055Y-74345563D01*
X117432055Y-74345563D02*
X117432055Y-74464611D01*
X117432055Y-74464611D02*
X117455865Y-74512230D01*
X117455865Y-74512230D02*
X117479674Y-74536040D01*
X117479674Y-74536040D02*
X117527293Y-74559849D01*
X117527293Y-74559849D02*
X117670150Y-74559849D01*
X117670150Y-74559849D02*
X117717769Y-74536040D01*
X117717769Y-74536040D02*
X117741579Y-74512230D01*
X116860627Y-74416992D02*
X116622532Y-74416992D01*
X116908246Y-74559849D02*
X116741580Y-74059849D01*
X116741580Y-74059849D02*
X116574913Y-74559849D01*
X116146342Y-74559849D02*
X116432056Y-74559849D01*
X116289199Y-74559849D02*
X116289199Y-74059849D01*
X116289199Y-74059849D02*
X116336818Y-74131278D01*
X116336818Y-74131278D02*
X116384437Y-74178897D01*
X116384437Y-74178897D02*
X116432056Y-74202706D01*
X115289200Y-74083659D02*
X115336819Y-74059849D01*
X115336819Y-74059849D02*
X115408248Y-74059849D01*
X115408248Y-74059849D02*
X115479676Y-74083659D01*
X115479676Y-74083659D02*
X115527295Y-74131278D01*
X115527295Y-74131278D02*
X115551105Y-74178897D01*
X115551105Y-74178897D02*
X115574914Y-74274135D01*
X115574914Y-74274135D02*
X115574914Y-74345563D01*
X115574914Y-74345563D02*
X115551105Y-74440801D01*
X115551105Y-74440801D02*
X115527295Y-74488420D01*
X115527295Y-74488420D02*
X115479676Y-74536040D01*
X115479676Y-74536040D02*
X115408248Y-74559849D01*
X115408248Y-74559849D02*
X115360629Y-74559849D01*
X115360629Y-74559849D02*
X115289200Y-74536040D01*
X115289200Y-74536040D02*
X115265391Y-74512230D01*
X115265391Y-74512230D02*
X115265391Y-74345563D01*
X115265391Y-74345563D02*
X115360629Y-74345563D01*
X115051105Y-74559849D02*
X115051105Y-74059849D01*
X115051105Y-74059849D02*
X114765391Y-74559849D01*
X114765391Y-74559849D02*
X114765391Y-74059849D01*
X114527295Y-74559849D02*
X114527295Y-74059849D01*
X114527295Y-74059849D02*
X114408247Y-74059849D01*
X114408247Y-74059849D02*
X114336819Y-74083659D01*
X114336819Y-74083659D02*
X114289200Y-74131278D01*
X114289200Y-74131278D02*
X114265390Y-74178897D01*
X114265390Y-74178897D02*
X114241581Y-74274135D01*
X114241581Y-74274135D02*
X114241581Y-74345563D01*
X114241581Y-74345563D02*
X114265390Y-74440801D01*
X114265390Y-74440801D02*
X114289200Y-74488420D01*
X114289200Y-74488420D02*
X114336819Y-74536040D01*
X114336819Y-74536040D02*
X114408247Y-74559849D01*
X114408247Y-74559849D02*
X114527295Y-74559849D01*
X109511840Y-69007269D02*
X109535649Y-69078697D01*
X109535649Y-69078697D02*
X109535649Y-69197745D01*
X109535649Y-69197745D02*
X109511840Y-69245364D01*
X109511840Y-69245364D02*
X109488030Y-69269173D01*
X109488030Y-69269173D02*
X109440411Y-69292983D01*
X109440411Y-69292983D02*
X109392792Y-69292983D01*
X109392792Y-69292983D02*
X109345173Y-69269173D01*
X109345173Y-69269173D02*
X109321363Y-69245364D01*
X109321363Y-69245364D02*
X109297554Y-69197745D01*
X109297554Y-69197745D02*
X109273744Y-69102507D01*
X109273744Y-69102507D02*
X109249935Y-69054888D01*
X109249935Y-69054888D02*
X109226125Y-69031078D01*
X109226125Y-69031078D02*
X109178506Y-69007269D01*
X109178506Y-69007269D02*
X109130887Y-69007269D01*
X109130887Y-69007269D02*
X109083268Y-69031078D01*
X109083268Y-69031078D02*
X109059459Y-69054888D01*
X109059459Y-69054888D02*
X109035649Y-69102507D01*
X109035649Y-69102507D02*
X109035649Y-69221554D01*
X109035649Y-69221554D02*
X109059459Y-69292983D01*
X109488030Y-69792982D02*
X109511840Y-69769173D01*
X109511840Y-69769173D02*
X109535649Y-69697744D01*
X109535649Y-69697744D02*
X109535649Y-69650125D01*
X109535649Y-69650125D02*
X109511840Y-69578697D01*
X109511840Y-69578697D02*
X109464220Y-69531078D01*
X109464220Y-69531078D02*
X109416601Y-69507268D01*
X109416601Y-69507268D02*
X109321363Y-69483459D01*
X109321363Y-69483459D02*
X109249935Y-69483459D01*
X109249935Y-69483459D02*
X109154697Y-69507268D01*
X109154697Y-69507268D02*
X109107078Y-69531078D01*
X109107078Y-69531078D02*
X109059459Y-69578697D01*
X109059459Y-69578697D02*
X109035649Y-69650125D01*
X109035649Y-69650125D02*
X109035649Y-69697744D01*
X109035649Y-69697744D02*
X109059459Y-69769173D01*
X109059459Y-69769173D02*
X109083268Y-69792982D01*
X109535649Y-70245363D02*
X109535649Y-70007268D01*
X109535649Y-70007268D02*
X109035649Y-70007268D01*
X109392792Y-70769173D02*
X109392792Y-71007268D01*
X109535649Y-70721554D02*
X109035649Y-70888220D01*
X109035649Y-70888220D02*
X109535649Y-71054887D01*
X109035649Y-71316791D02*
X109035649Y-71364410D01*
X109035649Y-71364410D02*
X109059459Y-71412029D01*
X109059459Y-71412029D02*
X109083268Y-71435839D01*
X109083268Y-71435839D02*
X109130887Y-71459648D01*
X109130887Y-71459648D02*
X109226125Y-71483458D01*
X109226125Y-71483458D02*
X109345173Y-71483458D01*
X109345173Y-71483458D02*
X109440411Y-71459648D01*
X109440411Y-71459648D02*
X109488030Y-71435839D01*
X109488030Y-71435839D02*
X109511840Y-71412029D01*
X109511840Y-71412029D02*
X109535649Y-71364410D01*
X109535649Y-71364410D02*
X109535649Y-71316791D01*
X109535649Y-71316791D02*
X109511840Y-71269172D01*
X109511840Y-71269172D02*
X109488030Y-71245363D01*
X109488030Y-71245363D02*
X109440411Y-71221553D01*
X109440411Y-71221553D02*
X109345173Y-71197744D01*
X109345173Y-71197744D02*
X109226125Y-71197744D01*
X109226125Y-71197744D02*
X109130887Y-71221553D01*
X109130887Y-71221553D02*
X109083268Y-71245363D01*
X109083268Y-71245363D02*
X109059459Y-71269172D01*
X109059459Y-71269172D02*
X109035649Y-71316791D01*
X109035649Y-72031076D02*
X109035649Y-72340600D01*
X109035649Y-72340600D02*
X109226125Y-72173933D01*
X109226125Y-72173933D02*
X109226125Y-72245362D01*
X109226125Y-72245362D02*
X109249935Y-72292981D01*
X109249935Y-72292981D02*
X109273744Y-72316790D01*
X109273744Y-72316790D02*
X109321363Y-72340600D01*
X109321363Y-72340600D02*
X109440411Y-72340600D01*
X109440411Y-72340600D02*
X109488030Y-72316790D01*
X109488030Y-72316790D02*
X109511840Y-72292981D01*
X109511840Y-72292981D02*
X109535649Y-72245362D01*
X109535649Y-72245362D02*
X109535649Y-72102505D01*
X109535649Y-72102505D02*
X109511840Y-72054886D01*
X109511840Y-72054886D02*
X109488030Y-72031076D01*
X109035649Y-72483457D02*
X109535649Y-72650123D01*
X109535649Y-72650123D02*
X109035649Y-72816790D01*
X109035649Y-72935837D02*
X109035649Y-73245361D01*
X109035649Y-73245361D02*
X109226125Y-73078694D01*
X109226125Y-73078694D02*
X109226125Y-73150123D01*
X109226125Y-73150123D02*
X109249935Y-73197742D01*
X109249935Y-73197742D02*
X109273744Y-73221551D01*
X109273744Y-73221551D02*
X109321363Y-73245361D01*
X109321363Y-73245361D02*
X109440411Y-73245361D01*
X109440411Y-73245361D02*
X109488030Y-73221551D01*
X109488030Y-73221551D02*
X109511840Y-73197742D01*
X109511840Y-73197742D02*
X109535649Y-73150123D01*
X109535649Y-73150123D02*
X109535649Y-73007266D01*
X109535649Y-73007266D02*
X109511840Y-72959647D01*
X109511840Y-72959647D02*
X109488030Y-72935837D01*
D11*
X126336862Y-69773455D02*
X125879719Y-69773455D01*
X126108291Y-70573455D02*
X126108291Y-69773455D01*
X125613052Y-70154407D02*
X125346386Y-70154407D01*
X125232100Y-70573455D02*
X125613052Y-70573455D01*
X125613052Y-70573455D02*
X125613052Y-69773455D01*
X125613052Y-69773455D02*
X125232100Y-69773455D01*
X124889242Y-70573455D02*
X124889242Y-69773455D01*
X124889242Y-69773455D02*
X124622576Y-70344883D01*
X124622576Y-70344883D02*
X124355909Y-69773455D01*
X124355909Y-69773455D02*
X124355909Y-70573455D01*
X123974956Y-70573455D02*
X123974956Y-69773455D01*
X123974956Y-69773455D02*
X123670194Y-69773455D01*
X123670194Y-69773455D02*
X123594004Y-69811550D01*
X123594004Y-69811550D02*
X123555909Y-69849645D01*
X123555909Y-69849645D02*
X123517813Y-69925836D01*
X123517813Y-69925836D02*
X123517813Y-70040121D01*
X123517813Y-70040121D02*
X123555909Y-70116312D01*
X123555909Y-70116312D02*
X123594004Y-70154407D01*
X123594004Y-70154407D02*
X123670194Y-70192502D01*
X123670194Y-70192502D02*
X123974956Y-70192502D01*
X123213052Y-70535360D02*
X123098766Y-70573455D01*
X123098766Y-70573455D02*
X122908290Y-70573455D01*
X122908290Y-70573455D02*
X122832099Y-70535360D01*
X122832099Y-70535360D02*
X122794004Y-70497264D01*
X122794004Y-70497264D02*
X122755909Y-70421074D01*
X122755909Y-70421074D02*
X122755909Y-70344883D01*
X122755909Y-70344883D02*
X122794004Y-70268693D01*
X122794004Y-70268693D02*
X122832099Y-70230598D01*
X122832099Y-70230598D02*
X122908290Y-70192502D01*
X122908290Y-70192502D02*
X123060671Y-70154407D01*
X123060671Y-70154407D02*
X123136861Y-70116312D01*
X123136861Y-70116312D02*
X123174956Y-70078217D01*
X123174956Y-70078217D02*
X123213052Y-70002026D01*
X123213052Y-70002026D02*
X123213052Y-69925836D01*
X123213052Y-69925836D02*
X123174956Y-69849645D01*
X123174956Y-69849645D02*
X123136861Y-69811550D01*
X123136861Y-69811550D02*
X123060671Y-69773455D01*
X123060671Y-69773455D02*
X122870194Y-69773455D01*
X122870194Y-69773455D02*
X122755909Y-69811550D01*
X122413051Y-70154407D02*
X122146385Y-70154407D01*
X122032099Y-70573455D02*
X122413051Y-70573455D01*
X122413051Y-70573455D02*
X122413051Y-69773455D01*
X122413051Y-69773455D02*
X122032099Y-69773455D01*
X121689241Y-70573455D02*
X121689241Y-69773455D01*
X121689241Y-69773455D02*
X121232098Y-70573455D01*
X121232098Y-70573455D02*
X121232098Y-69773455D01*
X120698765Y-69773455D02*
X120622575Y-69773455D01*
X120622575Y-69773455D02*
X120546384Y-69811550D01*
X120546384Y-69811550D02*
X120508289Y-69849645D01*
X120508289Y-69849645D02*
X120470194Y-69925836D01*
X120470194Y-69925836D02*
X120432099Y-70078217D01*
X120432099Y-70078217D02*
X120432099Y-70268693D01*
X120432099Y-70268693D02*
X120470194Y-70421074D01*
X120470194Y-70421074D02*
X120508289Y-70497264D01*
X120508289Y-70497264D02*
X120546384Y-70535360D01*
X120546384Y-70535360D02*
X120622575Y-70573455D01*
X120622575Y-70573455D02*
X120698765Y-70573455D01*
X120698765Y-70573455D02*
X120774956Y-70535360D01*
X120774956Y-70535360D02*
X120813051Y-70497264D01*
X120813051Y-70497264D02*
X120851146Y-70421074D01*
X120851146Y-70421074D02*
X120889242Y-70268693D01*
X120889242Y-70268693D02*
X120889242Y-70078217D01*
X120889242Y-70078217D02*
X120851146Y-69925836D01*
X120851146Y-69925836D02*
X120813051Y-69849645D01*
X120813051Y-69849645D02*
X120774956Y-69811550D01*
X120774956Y-69811550D02*
X120698765Y-69773455D01*
X119670194Y-70573455D02*
X120127337Y-70573455D01*
X119898765Y-70573455D02*
X119898765Y-69773455D01*
X119898765Y-69773455D02*
X119974956Y-69887740D01*
X119974956Y-69887740D02*
X120051146Y-69963931D01*
X120051146Y-69963931D02*
X120127337Y-70002026D01*
X119365432Y-70344883D02*
X118984479Y-70344883D01*
X119441622Y-70573455D02*
X119174955Y-69773455D01*
X119174955Y-69773455D02*
X118908289Y-70573455D01*
X126222576Y-71861455D02*
X126222576Y-71061455D01*
X126222576Y-71061455D02*
X125955910Y-71632883D01*
X125955910Y-71632883D02*
X125689243Y-71061455D01*
X125689243Y-71061455D02*
X125689243Y-71861455D01*
X124927338Y-71861455D02*
X125308290Y-71861455D01*
X125308290Y-71861455D02*
X125308290Y-71061455D01*
X124698767Y-71632883D02*
X124317814Y-71632883D01*
X124774957Y-71861455D02*
X124508290Y-71061455D01*
X124508290Y-71061455D02*
X124241624Y-71861455D01*
X123708291Y-71442407D02*
X123594005Y-71480502D01*
X123594005Y-71480502D02*
X123555910Y-71518598D01*
X123555910Y-71518598D02*
X123517814Y-71594788D01*
X123517814Y-71594788D02*
X123517814Y-71709074D01*
X123517814Y-71709074D02*
X123555910Y-71785264D01*
X123555910Y-71785264D02*
X123594005Y-71823360D01*
X123594005Y-71823360D02*
X123670195Y-71861455D01*
X123670195Y-71861455D02*
X123974957Y-71861455D01*
X123974957Y-71861455D02*
X123974957Y-71061455D01*
X123974957Y-71061455D02*
X123708291Y-71061455D01*
X123708291Y-71061455D02*
X123632100Y-71099550D01*
X123632100Y-71099550D02*
X123594005Y-71137645D01*
X123594005Y-71137645D02*
X123555910Y-71213836D01*
X123555910Y-71213836D02*
X123555910Y-71290026D01*
X123555910Y-71290026D02*
X123594005Y-71366217D01*
X123594005Y-71366217D02*
X123632100Y-71404312D01*
X123632100Y-71404312D02*
X123708291Y-71442407D01*
X123708291Y-71442407D02*
X123974957Y-71442407D01*
X123174957Y-71785264D02*
X123136862Y-71823360D01*
X123136862Y-71823360D02*
X123174957Y-71861455D01*
X123174957Y-71861455D02*
X123213053Y-71823360D01*
X123213053Y-71823360D02*
X123174957Y-71785264D01*
X123174957Y-71785264D02*
X123174957Y-71861455D01*
X122336862Y-71785264D02*
X122374958Y-71823360D01*
X122374958Y-71823360D02*
X122489243Y-71861455D01*
X122489243Y-71861455D02*
X122565434Y-71861455D01*
X122565434Y-71861455D02*
X122679720Y-71823360D01*
X122679720Y-71823360D02*
X122755910Y-71747169D01*
X122755910Y-71747169D02*
X122794005Y-71670979D01*
X122794005Y-71670979D02*
X122832101Y-71518598D01*
X122832101Y-71518598D02*
X122832101Y-71404312D01*
X122832101Y-71404312D02*
X122794005Y-71251931D01*
X122794005Y-71251931D02*
X122755910Y-71175740D01*
X122755910Y-71175740D02*
X122679720Y-71099550D01*
X122679720Y-71099550D02*
X122565434Y-71061455D01*
X122565434Y-71061455D02*
X122489243Y-71061455D01*
X122489243Y-71061455D02*
X122374958Y-71099550D01*
X122374958Y-71099550D02*
X122336862Y-71137645D01*
X122070196Y-71061455D02*
X121536862Y-71061455D01*
X121536862Y-71061455D02*
X122070196Y-71861455D01*
X122070196Y-71861455D02*
X121536862Y-71861455D01*
X126260672Y-72425645D02*
X126222576Y-72387550D01*
X126222576Y-72387550D02*
X126146386Y-72349455D01*
X126146386Y-72349455D02*
X125955910Y-72349455D01*
X125955910Y-72349455D02*
X125879719Y-72387550D01*
X125879719Y-72387550D02*
X125841624Y-72425645D01*
X125841624Y-72425645D02*
X125803529Y-72501836D01*
X125803529Y-72501836D02*
X125803529Y-72578026D01*
X125803529Y-72578026D02*
X125841624Y-72692312D01*
X125841624Y-72692312D02*
X126298767Y-73149455D01*
X126298767Y-73149455D02*
X125803529Y-73149455D01*
X125308290Y-72349455D02*
X125232100Y-72349455D01*
X125232100Y-72349455D02*
X125155909Y-72387550D01*
X125155909Y-72387550D02*
X125117814Y-72425645D01*
X125117814Y-72425645D02*
X125079719Y-72501836D01*
X125079719Y-72501836D02*
X125041624Y-72654217D01*
X125041624Y-72654217D02*
X125041624Y-72844693D01*
X125041624Y-72844693D02*
X125079719Y-72997074D01*
X125079719Y-72997074D02*
X125117814Y-73073264D01*
X125117814Y-73073264D02*
X125155909Y-73111360D01*
X125155909Y-73111360D02*
X125232100Y-73149455D01*
X125232100Y-73149455D02*
X125308290Y-73149455D01*
X125308290Y-73149455D02*
X125384481Y-73111360D01*
X125384481Y-73111360D02*
X125422576Y-73073264D01*
X125422576Y-73073264D02*
X125460671Y-72997074D01*
X125460671Y-72997074D02*
X125498767Y-72844693D01*
X125498767Y-72844693D02*
X125498767Y-72654217D01*
X125498767Y-72654217D02*
X125460671Y-72501836D01*
X125460671Y-72501836D02*
X125422576Y-72425645D01*
X125422576Y-72425645D02*
X125384481Y-72387550D01*
X125384481Y-72387550D02*
X125308290Y-72349455D01*
X124736862Y-72425645D02*
X124698766Y-72387550D01*
X124698766Y-72387550D02*
X124622576Y-72349455D01*
X124622576Y-72349455D02*
X124432100Y-72349455D01*
X124432100Y-72349455D02*
X124355909Y-72387550D01*
X124355909Y-72387550D02*
X124317814Y-72425645D01*
X124317814Y-72425645D02*
X124279719Y-72501836D01*
X124279719Y-72501836D02*
X124279719Y-72578026D01*
X124279719Y-72578026D02*
X124317814Y-72692312D01*
X124317814Y-72692312D02*
X124774957Y-73149455D01*
X124774957Y-73149455D02*
X124279719Y-73149455D01*
X124013052Y-72349455D02*
X123517814Y-72349455D01*
X123517814Y-72349455D02*
X123784480Y-72654217D01*
X123784480Y-72654217D02*
X123670195Y-72654217D01*
X123670195Y-72654217D02*
X123594004Y-72692312D01*
X123594004Y-72692312D02*
X123555909Y-72730407D01*
X123555909Y-72730407D02*
X123517814Y-72806598D01*
X123517814Y-72806598D02*
X123517814Y-72997074D01*
X123517814Y-72997074D02*
X123555909Y-73073264D01*
X123555909Y-73073264D02*
X123594004Y-73111360D01*
X123594004Y-73111360D02*
X123670195Y-73149455D01*
X123670195Y-73149455D02*
X123898766Y-73149455D01*
X123898766Y-73149455D02*
X123974957Y-73111360D01*
X123974957Y-73111360D02*
X124013052Y-73073264D01*
D10*
X118671740Y-67735249D02*
X118362216Y-67735249D01*
X118362216Y-67735249D02*
X118528883Y-67925725D01*
X118528883Y-67925725D02*
X118457454Y-67925725D01*
X118457454Y-67925725D02*
X118409835Y-67949535D01*
X118409835Y-67949535D02*
X118386026Y-67973344D01*
X118386026Y-67973344D02*
X118362216Y-68020963D01*
X118362216Y-68020963D02*
X118362216Y-68140011D01*
X118362216Y-68140011D02*
X118386026Y-68187630D01*
X118386026Y-68187630D02*
X118409835Y-68211440D01*
X118409835Y-68211440D02*
X118457454Y-68235249D01*
X118457454Y-68235249D02*
X118600311Y-68235249D01*
X118600311Y-68235249D02*
X118647930Y-68211440D01*
X118647930Y-68211440D02*
X118671740Y-68187630D01*
X118219359Y-67735249D02*
X118052693Y-68235249D01*
X118052693Y-68235249D02*
X117886026Y-67735249D01*
X117766979Y-67735249D02*
X117457455Y-67735249D01*
X117457455Y-67735249D02*
X117624122Y-67925725D01*
X117624122Y-67925725D02*
X117552693Y-67925725D01*
X117552693Y-67925725D02*
X117505074Y-67949535D01*
X117505074Y-67949535D02*
X117481265Y-67973344D01*
X117481265Y-67973344D02*
X117457455Y-68020963D01*
X117457455Y-68020963D02*
X117457455Y-68140011D01*
X117457455Y-68140011D02*
X117481265Y-68187630D01*
X117481265Y-68187630D02*
X117505074Y-68211440D01*
X117505074Y-68211440D02*
X117552693Y-68235249D01*
X117552693Y-68235249D02*
X117695550Y-68235249D01*
X117695550Y-68235249D02*
X117743169Y-68211440D01*
X117743169Y-68211440D02*
X117766979Y-68187630D01*
X116886027Y-68092392D02*
X116647932Y-68092392D01*
X116933646Y-68235249D02*
X116766980Y-67735249D01*
X116766980Y-67735249D02*
X116600313Y-68235249D01*
X116457456Y-67782868D02*
X116433647Y-67759059D01*
X116433647Y-67759059D02*
X116386028Y-67735249D01*
X116386028Y-67735249D02*
X116266980Y-67735249D01*
X116266980Y-67735249D02*
X116219361Y-67759059D01*
X116219361Y-67759059D02*
X116195552Y-67782868D01*
X116195552Y-67782868D02*
X116171742Y-67830487D01*
X116171742Y-67830487D02*
X116171742Y-67878106D01*
X116171742Y-67878106D02*
X116195552Y-67949535D01*
X116195552Y-67949535D02*
X116481266Y-68235249D01*
X116481266Y-68235249D02*
X116171742Y-68235249D01*
X115314600Y-67759059D02*
X115362219Y-67735249D01*
X115362219Y-67735249D02*
X115433648Y-67735249D01*
X115433648Y-67735249D02*
X115505076Y-67759059D01*
X115505076Y-67759059D02*
X115552695Y-67806678D01*
X115552695Y-67806678D02*
X115576505Y-67854297D01*
X115576505Y-67854297D02*
X115600314Y-67949535D01*
X115600314Y-67949535D02*
X115600314Y-68020963D01*
X115600314Y-68020963D02*
X115576505Y-68116201D01*
X115576505Y-68116201D02*
X115552695Y-68163820D01*
X115552695Y-68163820D02*
X115505076Y-68211440D01*
X115505076Y-68211440D02*
X115433648Y-68235249D01*
X115433648Y-68235249D02*
X115386029Y-68235249D01*
X115386029Y-68235249D02*
X115314600Y-68211440D01*
X115314600Y-68211440D02*
X115290791Y-68187630D01*
X115290791Y-68187630D02*
X115290791Y-68020963D01*
X115290791Y-68020963D02*
X115386029Y-68020963D01*
X115076505Y-68235249D02*
X115076505Y-67735249D01*
X115076505Y-67735249D02*
X114790791Y-68235249D01*
X114790791Y-68235249D02*
X114790791Y-67735249D01*
X114552695Y-68235249D02*
X114552695Y-67735249D01*
X114552695Y-67735249D02*
X114433647Y-67735249D01*
X114433647Y-67735249D02*
X114362219Y-67759059D01*
X114362219Y-67759059D02*
X114314600Y-67806678D01*
X114314600Y-67806678D02*
X114290790Y-67854297D01*
X114290790Y-67854297D02*
X114266981Y-67949535D01*
X114266981Y-67949535D02*
X114266981Y-68020963D01*
X114266981Y-68020963D02*
X114290790Y-68116201D01*
X114290790Y-68116201D02*
X114314600Y-68163820D01*
X114314600Y-68163820D02*
X114362219Y-68211440D01*
X114362219Y-68211440D02*
X114433647Y-68235249D01*
X114433647Y-68235249D02*
X114552695Y-68235249D01*
D11*
X101152776Y-70870855D02*
X101152776Y-70070855D01*
X101152776Y-70070855D02*
X100848014Y-70070855D01*
X100848014Y-70070855D02*
X100771824Y-70108950D01*
X100771824Y-70108950D02*
X100733729Y-70147045D01*
X100733729Y-70147045D02*
X100695633Y-70223236D01*
X100695633Y-70223236D02*
X100695633Y-70337521D01*
X100695633Y-70337521D02*
X100733729Y-70413712D01*
X100733729Y-70413712D02*
X100771824Y-70451807D01*
X100771824Y-70451807D02*
X100848014Y-70489902D01*
X100848014Y-70489902D02*
X101152776Y-70489902D01*
X100428967Y-70070855D02*
X99895633Y-70870855D01*
X99895633Y-70070855D02*
X100428967Y-70870855D01*
X99248014Y-70337521D02*
X99248014Y-70870855D01*
X99438490Y-70032760D02*
X99628967Y-70604188D01*
X99628967Y-70604188D02*
X99133728Y-70604188D01*
X101152776Y-72158855D02*
X101152776Y-71358855D01*
X100809920Y-71435045D02*
X100771824Y-71396950D01*
X100771824Y-71396950D02*
X100695634Y-71358855D01*
X100695634Y-71358855D02*
X100505158Y-71358855D01*
X100505158Y-71358855D02*
X100428967Y-71396950D01*
X100428967Y-71396950D02*
X100390872Y-71435045D01*
X100390872Y-71435045D02*
X100352777Y-71511236D01*
X100352777Y-71511236D02*
X100352777Y-71587426D01*
X100352777Y-71587426D02*
X100390872Y-71701712D01*
X100390872Y-71701712D02*
X100848015Y-72158855D01*
X100848015Y-72158855D02*
X100352777Y-72158855D01*
X99552776Y-72082664D02*
X99590872Y-72120760D01*
X99590872Y-72120760D02*
X99705157Y-72158855D01*
X99705157Y-72158855D02*
X99781348Y-72158855D01*
X99781348Y-72158855D02*
X99895634Y-72120760D01*
X99895634Y-72120760D02*
X99971824Y-72044569D01*
X99971824Y-72044569D02*
X100009919Y-71968379D01*
X100009919Y-71968379D02*
X100048015Y-71815998D01*
X100048015Y-71815998D02*
X100048015Y-71701712D01*
X100048015Y-71701712D02*
X100009919Y-71549331D01*
X100009919Y-71549331D02*
X99971824Y-71473140D01*
X99971824Y-71473140D02*
X99895634Y-71396950D01*
X99895634Y-71396950D02*
X99781348Y-71358855D01*
X99781348Y-71358855D02*
X99705157Y-71358855D01*
X99705157Y-71358855D02*
X99590872Y-71396950D01*
X99590872Y-71396950D02*
X99552776Y-71435045D01*
D10*
X102933240Y-68956469D02*
X102957049Y-69027897D01*
X102957049Y-69027897D02*
X102957049Y-69146945D01*
X102957049Y-69146945D02*
X102933240Y-69194564D01*
X102933240Y-69194564D02*
X102909430Y-69218373D01*
X102909430Y-69218373D02*
X102861811Y-69242183D01*
X102861811Y-69242183D02*
X102814192Y-69242183D01*
X102814192Y-69242183D02*
X102766573Y-69218373D01*
X102766573Y-69218373D02*
X102742763Y-69194564D01*
X102742763Y-69194564D02*
X102718954Y-69146945D01*
X102718954Y-69146945D02*
X102695144Y-69051707D01*
X102695144Y-69051707D02*
X102671335Y-69004088D01*
X102671335Y-69004088D02*
X102647525Y-68980278D01*
X102647525Y-68980278D02*
X102599906Y-68956469D01*
X102599906Y-68956469D02*
X102552287Y-68956469D01*
X102552287Y-68956469D02*
X102504668Y-68980278D01*
X102504668Y-68980278D02*
X102480859Y-69004088D01*
X102480859Y-69004088D02*
X102457049Y-69051707D01*
X102457049Y-69051707D02*
X102457049Y-69170754D01*
X102457049Y-69170754D02*
X102480859Y-69242183D01*
X102957049Y-69456468D02*
X102457049Y-69456468D01*
X102457049Y-69456468D02*
X102457049Y-69575516D01*
X102457049Y-69575516D02*
X102480859Y-69646944D01*
X102480859Y-69646944D02*
X102528478Y-69694563D01*
X102528478Y-69694563D02*
X102576097Y-69718373D01*
X102576097Y-69718373D02*
X102671335Y-69742182D01*
X102671335Y-69742182D02*
X102742763Y-69742182D01*
X102742763Y-69742182D02*
X102838001Y-69718373D01*
X102838001Y-69718373D02*
X102885620Y-69694563D01*
X102885620Y-69694563D02*
X102933240Y-69646944D01*
X102933240Y-69646944D02*
X102957049Y-69575516D01*
X102957049Y-69575516D02*
X102957049Y-69456468D01*
X102814192Y-69932659D02*
X102814192Y-70170754D01*
X102957049Y-69885040D02*
X102457049Y-70051706D01*
X102457049Y-70051706D02*
X102957049Y-70218373D01*
X102814192Y-70742182D02*
X102814192Y-70980277D01*
X102957049Y-70694563D02*
X102457049Y-70861229D01*
X102457049Y-70861229D02*
X102957049Y-71027896D01*
X102457049Y-71289800D02*
X102457049Y-71337419D01*
X102457049Y-71337419D02*
X102480859Y-71385038D01*
X102480859Y-71385038D02*
X102504668Y-71408848D01*
X102504668Y-71408848D02*
X102552287Y-71432657D01*
X102552287Y-71432657D02*
X102647525Y-71456467D01*
X102647525Y-71456467D02*
X102766573Y-71456467D01*
X102766573Y-71456467D02*
X102861811Y-71432657D01*
X102861811Y-71432657D02*
X102909430Y-71408848D01*
X102909430Y-71408848D02*
X102933240Y-71385038D01*
X102933240Y-71385038D02*
X102957049Y-71337419D01*
X102957049Y-71337419D02*
X102957049Y-71289800D01*
X102957049Y-71289800D02*
X102933240Y-71242181D01*
X102933240Y-71242181D02*
X102909430Y-71218372D01*
X102909430Y-71218372D02*
X102861811Y-71194562D01*
X102861811Y-71194562D02*
X102766573Y-71170753D01*
X102766573Y-71170753D02*
X102647525Y-71170753D01*
X102647525Y-71170753D02*
X102552287Y-71194562D01*
X102552287Y-71194562D02*
X102504668Y-71218372D01*
X102504668Y-71218372D02*
X102480859Y-71242181D01*
X102480859Y-71242181D02*
X102457049Y-71289800D01*
X102480859Y-72313609D02*
X102457049Y-72265990D01*
X102457049Y-72265990D02*
X102457049Y-72194561D01*
X102457049Y-72194561D02*
X102480859Y-72123133D01*
X102480859Y-72123133D02*
X102528478Y-72075514D01*
X102528478Y-72075514D02*
X102576097Y-72051704D01*
X102576097Y-72051704D02*
X102671335Y-72027895D01*
X102671335Y-72027895D02*
X102742763Y-72027895D01*
X102742763Y-72027895D02*
X102838001Y-72051704D01*
X102838001Y-72051704D02*
X102885620Y-72075514D01*
X102885620Y-72075514D02*
X102933240Y-72123133D01*
X102933240Y-72123133D02*
X102957049Y-72194561D01*
X102957049Y-72194561D02*
X102957049Y-72242180D01*
X102957049Y-72242180D02*
X102933240Y-72313609D01*
X102933240Y-72313609D02*
X102909430Y-72337418D01*
X102909430Y-72337418D02*
X102742763Y-72337418D01*
X102742763Y-72337418D02*
X102742763Y-72242180D01*
X102957049Y-72551704D02*
X102457049Y-72551704D01*
X102457049Y-72551704D02*
X102957049Y-72837418D01*
X102957049Y-72837418D02*
X102457049Y-72837418D01*
X102957049Y-73075514D02*
X102457049Y-73075514D01*
X102457049Y-73075514D02*
X102457049Y-73194562D01*
X102457049Y-73194562D02*
X102480859Y-73265990D01*
X102480859Y-73265990D02*
X102528478Y-73313609D01*
X102528478Y-73313609D02*
X102576097Y-73337419D01*
X102576097Y-73337419D02*
X102671335Y-73361228D01*
X102671335Y-73361228D02*
X102742763Y-73361228D01*
X102742763Y-73361228D02*
X102838001Y-73337419D01*
X102838001Y-73337419D02*
X102885620Y-73313609D01*
X102885620Y-73313609D02*
X102933240Y-73265990D01*
X102933240Y-73265990D02*
X102957049Y-73194562D01*
X102957049Y-73194562D02*
X102957049Y-73075514D01*
D11*
%TO.C,J1*%
X115995000Y-77464000D02*
X115995000Y-76014000D01*
X115995000Y-76014000D02*
X114195000Y-76014000D01*
X114725000Y-80284000D02*
X108795000Y-80284000D01*
X114195000Y-76014000D02*
X114195000Y-75024000D01*
X107525000Y-77464000D02*
X107525000Y-76014000D01*
X107525000Y-76014000D02*
X109325000Y-76014000D01*
%TO.C,JP2*%
X104602000Y-73170000D02*
X105202000Y-73170000D01*
X103402000Y-72620000D02*
X103402000Y-72020000D01*
X105902000Y-72520000D02*
X105902000Y-69720000D01*
X103702000Y-72320000D02*
X103402000Y-72620000D01*
X103702000Y-72320000D02*
X103402000Y-72020000D01*
X103902000Y-69720000D02*
X103902000Y-72520000D01*
X105202000Y-69070000D02*
X104602000Y-69070000D01*
X103902000Y-72470000D02*
G75*
G03*
X104602000Y-73170000I699999J-1D01*
G01*
X105202000Y-73170000D02*
G75*
G03*
X105902000Y-72470000I1J699999D01*
G01*
X104602000Y-69070000D02*
G75*
G03*
X103902000Y-69770000I0J-700000D01*
G01*
X105902000Y-69770000D02*
G75*
G03*
X105202000Y-69070000I-700000J0D01*
G01*
%TO.C,JP4*%
X118555200Y-70150000D02*
X118555200Y-69550000D01*
X118005200Y-71350000D02*
X117405200Y-71350000D01*
X117905200Y-68850000D02*
X115105200Y-68850000D01*
X117705200Y-71050000D02*
X118005200Y-71350000D01*
X117705200Y-71050000D02*
X117405200Y-71350000D01*
X115105200Y-70850000D02*
X117905200Y-70850000D01*
X114455200Y-69550000D02*
X114455200Y-70150000D01*
X117855200Y-70850000D02*
G75*
G03*
X118555200Y-70150000I1J699999D01*
G01*
X118555200Y-69550000D02*
G75*
G03*
X117855200Y-68850000I-699999J1D01*
G01*
X114455200Y-70150000D02*
G75*
G03*
X115155200Y-70850000I700000J0D01*
G01*
X115155200Y-68850000D02*
G75*
G03*
X114455200Y-69550000I0J-700000D01*
G01*
%TO.C,JP1*%
X107726500Y-69070000D02*
X107126500Y-69070000D01*
X108926500Y-69620000D02*
X108926500Y-70220000D01*
X106426500Y-69720000D02*
X106426500Y-72520000D01*
X108626500Y-69920000D02*
X108926500Y-69620000D01*
X108626500Y-69920000D02*
X108926500Y-70220000D01*
X108426500Y-72520000D02*
X108426500Y-69720000D01*
X107126500Y-73170000D02*
X107726500Y-73170000D01*
X108426500Y-69770000D02*
G75*
G03*
X107726500Y-69070000I-699999J1D01*
G01*
X107126500Y-69070000D02*
G75*
G03*
X106426500Y-69770000I-1J-699999D01*
G01*
X107726500Y-73170000D02*
G75*
G03*
X108426500Y-72470000I0J700000D01*
G01*
X106426500Y-72470000D02*
G75*
G03*
X107126500Y-73170000I700000J0D01*
G01*
%TO.C,JP3*%
X118559800Y-72715400D02*
X118559800Y-72115400D01*
X118009800Y-73915400D02*
X117409800Y-73915400D01*
X117909800Y-71415400D02*
X115109800Y-71415400D01*
X117709800Y-73615400D02*
X118009800Y-73915400D01*
X117709800Y-73615400D02*
X117409800Y-73915400D01*
X115109800Y-73415400D02*
X117909800Y-73415400D01*
X114459800Y-72115400D02*
X114459800Y-72715400D01*
X117859800Y-73415400D02*
G75*
G03*
X118559800Y-72715400I1J699999D01*
G01*
X118559800Y-72115400D02*
G75*
G03*
X117859800Y-71415400I-699999J1D01*
G01*
X114459800Y-72715400D02*
G75*
G03*
X115159800Y-73415400I700000J0D01*
G01*
X115159800Y-71415400D02*
G75*
G03*
X114459800Y-72115400I0J-700000D01*
G01*
%TO.C,J2*%
X107525000Y-65030000D02*
X107525000Y-66480000D01*
X107525000Y-66480000D02*
X109325000Y-66480000D01*
X108795000Y-62210000D02*
X114725000Y-62210000D01*
X109325000Y-66480000D02*
X109325000Y-67470000D01*
X115995000Y-65030000D02*
X115995000Y-66480000D01*
X115995000Y-66480000D02*
X114195000Y-66480000D01*
%TD*%
M02*
