%TF.GenerationSoftware,KiCad,Pcbnew,7.0.7-7.0.7~ubuntu23.04.1*%
%TF.CreationDate,2023-09-23T00:40:23+00:00*%
%TF.ProjectId,TEMPSEN01,54454d50-5345-44e3-9031-2e6b69636164,rev?*%
%TF.SameCoordinates,Original*%
%TF.FileFunction,Copper,L1,Top*%
%TF.FilePolarity,Positive*%
%FSLAX46Y46*%
G04 Gerber Fmt 4.6, Leading zero omitted, Abs format (unit mm)*
G04 Created by KiCad (PCBNEW 7.0.7-7.0.7~ubuntu23.04.1) date 2023-09-23 00:40:23*
%MOMM*%
%LPD*%
G01*
G04 APERTURE LIST*
G04 Aperture macros list*
%AMRoundRect*
0 Rectangle with rounded corners*
0 $1 Rounding radius*
0 $2 $3 $4 $5 $6 $7 $8 $9 X,Y pos of 4 corners*
0 Add a 4 corners polygon primitive as box body*
4,1,4,$2,$3,$4,$5,$6,$7,$8,$9,$2,$3,0*
0 Add four circle primitives for the rounded corners*
1,1,$1+$1,$2,$3*
1,1,$1+$1,$4,$5*
1,1,$1+$1,$6,$7*
1,1,$1+$1,$8,$9*
0 Add four rect primitives between the rounded corners*
20,1,$1+$1,$2,$3,$4,$5,0*
20,1,$1+$1,$4,$5,$6,$7,0*
20,1,$1+$1,$6,$7,$8,$9,0*
20,1,$1+$1,$8,$9,$2,$3,0*%
G04 Aperture macros list end*
%TA.AperFunction,SMDPad,CuDef*%
%ADD10C,1.000000*%
%TD*%
%TA.AperFunction,ComponentPad*%
%ADD11C,6.000000*%
%TD*%
%TA.AperFunction,SMDPad,CuDef*%
%ADD12RoundRect,0.250000X0.475000X-0.337500X0.475000X0.337500X-0.475000X0.337500X-0.475000X-0.337500X0*%
%TD*%
%TA.AperFunction,SMDPad,CuDef*%
%ADD13R,0.750000X0.350000*%
%TD*%
%TA.AperFunction,SMDPad,CuDef*%
%ADD14R,1.600000X2.400000*%
%TD*%
%TA.AperFunction,SMDPad,CuDef*%
%ADD15RoundRect,0.250000X0.350000X0.450000X-0.350000X0.450000X-0.350000X-0.450000X0.350000X-0.450000X0*%
%TD*%
%TA.AperFunction,SMDPad,CuDef*%
%ADD16RoundRect,0.250000X-0.300000X-0.300000X0.300000X-0.300000X0.300000X0.300000X-0.300000X0.300000X0*%
%TD*%
%TA.AperFunction,SMDPad,CuDef*%
%ADD17R,0.850000X0.400000*%
%TD*%
%TA.AperFunction,SMDPad,CuDef*%
%ADD18RoundRect,0.250000X-0.475000X0.337500X-0.475000X-0.337500X0.475000X-0.337500X0.475000X0.337500X0*%
%TD*%
%TA.AperFunction,ViaPad*%
%ADD19C,0.800000*%
%TD*%
%TA.AperFunction,Conductor*%
%ADD20C,0.250000*%
%TD*%
G04 APERTURE END LIST*
D10*
%TO.P,FID2,*%
%TO.N,*%
X124206000Y-71120000D03*
%TD*%
D11*
%TO.P,M2,1*%
%TO.N,GND*%
X121920000Y-66040000D03*
%TD*%
D12*
%TO.P,C5,1*%
%TO.N,+3.3V*%
X106654600Y-68546800D03*
%TO.P,C5,2*%
%TO.N,GND*%
X106654600Y-66471800D03*
%TD*%
D13*
%TO.P,IC1,1,SDA*%
%TO.N,/SDA*%
X113260000Y-72095000D03*
%TO.P,IC1,2,SCL*%
%TO.N,/SCL*%
X113260000Y-71445000D03*
%TO.P,IC1,3,OS*%
%TO.N,/OS*%
X113260000Y-70795000D03*
%TO.P,IC1,4,GND*%
%TO.N,GND*%
X113260000Y-70145000D03*
%TO.P,IC1,5,A2*%
%TO.N,/A2*%
X110260000Y-70145000D03*
%TO.P,IC1,6,A1*%
%TO.N,/A1*%
X110260000Y-70795000D03*
%TO.P,IC1,7,A0*%
%TO.N,/A0*%
X110260000Y-71445000D03*
%TO.P,IC1,8,VDD*%
%TO.N,+3.3V*%
X110260000Y-72095000D03*
D14*
%TO.P,IC1,9,EP*%
%TO.N,GND*%
X111760000Y-71120000D03*
%TD*%
D10*
%TO.P,FID1,*%
%TO.N,*%
X99314000Y-71120000D03*
%TD*%
D15*
%TO.P,R1,1*%
%TO.N,+3.3V*%
X117763800Y-69138800D03*
%TO.P,R1,2*%
%TO.N,/OS*%
X115763800Y-69138800D03*
%TD*%
D16*
%TO.P,D1,1,K*%
%TO.N,VDD*%
X108706000Y-62992000D03*
%TO.P,D1,2,A*%
%TO.N,GND*%
X111506000Y-62992000D03*
%TD*%
D11*
%TO.P,M3,1*%
%TO.N,GND*%
X101600000Y-76200000D03*
%TD*%
D15*
%TO.P,R2,1*%
%TO.N,+3.3V*%
X117763800Y-71120000D03*
%TO.P,R2,2*%
%TO.N,/SCL*%
X115763800Y-71120000D03*
%TD*%
D17*
%TO.P,IC2,1,NC_1*%
%TO.N,unconnected-(IC2-NC_1-Pad1)*%
X111540000Y-66578000D03*
%TO.P,IC2,2,GND*%
%TO.N,GND*%
X111540000Y-65928000D03*
%TO.P,IC2,3,NC_2*%
%TO.N,unconnected-(IC2-NC_2-Pad3)*%
X111540000Y-65278000D03*
%TO.P,IC2,4,IN*%
%TO.N,VDD*%
X109440000Y-65278000D03*
%TO.P,IC2,5,OUT*%
%TO.N,+3.3V*%
X109440000Y-66578000D03*
%TD*%
D11*
%TO.P,M4,1*%
%TO.N,GND*%
X121920000Y-76200000D03*
%TD*%
%TO.P,M1,1*%
%TO.N,GND*%
X101600000Y-66040000D03*
%TD*%
D15*
%TO.P,R3,1*%
%TO.N,+3.3V*%
X117747800Y-73101200D03*
%TO.P,R3,2*%
%TO.N,/SDA*%
X115747800Y-73101200D03*
%TD*%
D18*
%TO.P,C4,1*%
%TO.N,VDD*%
X106680000Y-62593400D03*
%TO.P,C4,2*%
%TO.N,GND*%
X106680000Y-64668400D03*
%TD*%
D19*
%TO.N,+3.3V*%
X119583200Y-70027800D03*
X107442000Y-73914000D03*
%TO.N,GND*%
X111658400Y-69926200D03*
X105562400Y-73939400D03*
X105359200Y-63500000D03*
X111734600Y-72898000D03*
X115036600Y-66522600D03*
X106476800Y-79044800D03*
X113030000Y-64770000D03*
X111836200Y-71196200D03*
X113411000Y-68935600D03*
X117094000Y-63500000D03*
X110007400Y-77571600D03*
X113995200Y-79070200D03*
X114046000Y-63500000D03*
X109397800Y-79324200D03*
X103124000Y-71831200D03*
X113030000Y-62992000D03*
X114046000Y-64770000D03*
X117068600Y-79044800D03*
%TO.N,VDD*%
X108458000Y-67462400D03*
%TO.N,/SDA*%
X112385000Y-73914000D03*
%TO.N,/SCL*%
X111135000Y-68148200D03*
%TO.N,/A2*%
X114452400Y-68466300D03*
%TO.N,/A1*%
X117094000Y-75438000D03*
%TO.N,/A0*%
X109169200Y-71475600D03*
%TD*%
D20*
%TO.N,+3.3V*%
X109440000Y-66578000D02*
X109440000Y-67775800D01*
X116173000Y-74676000D02*
X117747800Y-73101200D01*
X117562800Y-67270800D02*
X118157000Y-67865000D01*
X111734600Y-74676000D02*
X116173000Y-74676000D01*
X118157000Y-71120000D02*
X118157000Y-72644000D01*
X118157000Y-69596000D02*
X119151400Y-69596000D01*
X110857200Y-67270800D02*
X117562800Y-67270800D01*
X109440000Y-66578000D02*
X110164400Y-66578000D01*
X118157000Y-69596000D02*
X118157000Y-71120000D01*
X110164400Y-66578000D02*
X110857200Y-67270800D01*
X119151400Y-69596000D02*
X119583200Y-70027800D01*
X118157000Y-67865000D02*
X118157000Y-69596000D01*
X109440000Y-67775800D02*
X108669000Y-68546800D01*
X111734600Y-74676000D02*
X110260000Y-73201400D01*
X106654600Y-73126600D02*
X107442000Y-73914000D01*
X110260000Y-73201400D02*
X110260000Y-72095000D01*
X106654600Y-68546800D02*
X106654600Y-73126600D01*
X108669000Y-68546800D02*
X106654600Y-68546800D01*
%TO.N,GND*%
X113260000Y-70145000D02*
X112735000Y-70145000D01*
X114442000Y-65928000D02*
X115036600Y-66522600D01*
X111836200Y-71196200D02*
X111683800Y-71196200D01*
X111540000Y-65928000D02*
X114442000Y-65928000D01*
X111683800Y-71196200D02*
X111760000Y-71120000D01*
X112735000Y-70145000D02*
X111836200Y-71043800D01*
X111836200Y-71043800D02*
X111836200Y-71196200D01*
%TO.N,VDD*%
X108762800Y-65278000D02*
X109440000Y-65278000D01*
X106680000Y-62637500D02*
X108351500Y-62637500D01*
X109440000Y-65278000D02*
X109440000Y-63726000D01*
X108458000Y-67462400D02*
X108458000Y-65582800D01*
X109440000Y-63726000D02*
X108706000Y-62992000D01*
X108458000Y-65582800D02*
X108762800Y-65278000D01*
X108351500Y-62637500D02*
X108706000Y-62992000D01*
%TO.N,/SDA*%
X113260000Y-73039000D02*
X113260000Y-72095000D01*
X114741600Y-72095000D02*
X115747800Y-73101200D01*
X112385000Y-73914000D02*
X113260000Y-73039000D01*
X113260000Y-72095000D02*
X114741600Y-72095000D01*
%TO.N,/SCL*%
X116688800Y-70195000D02*
X115763800Y-71120000D01*
X115438800Y-71445000D02*
X113260000Y-71445000D01*
X115763800Y-71120000D02*
X115438800Y-71445000D01*
X111541400Y-67741800D02*
X115979973Y-67741800D01*
X116688800Y-68450627D02*
X116688800Y-70195000D01*
X111541400Y-67741800D02*
X111135000Y-68148200D01*
X115979973Y-67741800D02*
X116688800Y-68450627D01*
%TO.N,/OS*%
X114107600Y-70795000D02*
X115763800Y-69138800D01*
X113260000Y-70795000D02*
X114107600Y-70795000D01*
%TO.N,/A2*%
X114185100Y-68199000D02*
X112206000Y-68199000D01*
X114452400Y-68466300D02*
X114185100Y-68199000D01*
X112206000Y-68199000D02*
X110260000Y-70145000D01*
%TO.N,/A1*%
X108725800Y-70750600D02*
X110215600Y-70750600D01*
X111810800Y-75438000D02*
X108356400Y-71983600D01*
X117094000Y-75438000D02*
X111810800Y-75438000D01*
X110215600Y-70750600D02*
X110260000Y-70795000D01*
X108356400Y-71120000D02*
X108725800Y-70750600D01*
X108356400Y-71983600D02*
X108356400Y-71120000D01*
%TO.N,/A0*%
X110260000Y-71445000D02*
X109199800Y-71445000D01*
X109199800Y-71445000D02*
X109169200Y-71475600D01*
%TD*%
%TA.AperFunction,Conductor*%
%TO.N,GND*%
G36*
X105699209Y-61487685D02*
G01*
X105744964Y-61540489D01*
X105754908Y-61609647D01*
X105725883Y-61673203D01*
X105719851Y-61679681D01*
X105612289Y-61787242D01*
X105520187Y-61936563D01*
X105520185Y-61936568D01*
X105497275Y-62005706D01*
X105465001Y-62103103D01*
X105465001Y-62103104D01*
X105465000Y-62103104D01*
X105454500Y-62205883D01*
X105454500Y-62980901D01*
X105454501Y-62980919D01*
X105465000Y-63083696D01*
X105465001Y-63083699D01*
X105520185Y-63250231D01*
X105520186Y-63250234D01*
X105612288Y-63399556D01*
X105736344Y-63523612D01*
X105739628Y-63525637D01*
X105739653Y-63525653D01*
X105741445Y-63527646D01*
X105742011Y-63528093D01*
X105741934Y-63528189D01*
X105786379Y-63577599D01*
X105797603Y-63646561D01*
X105769761Y-63710644D01*
X105739665Y-63736726D01*
X105736660Y-63738579D01*
X105736655Y-63738583D01*
X105612684Y-63862554D01*
X105520643Y-64011775D01*
X105520641Y-64011780D01*
X105465494Y-64178202D01*
X105465493Y-64178209D01*
X105455000Y-64280913D01*
X105455000Y-64418400D01*
X107904999Y-64418400D01*
X107904999Y-64280928D01*
X107904998Y-64280913D01*
X107894506Y-64178204D01*
X107868425Y-64099499D01*
X107866023Y-64029670D01*
X107901754Y-63969628D01*
X107964274Y-63938435D01*
X108033734Y-63945995D01*
X108051228Y-63954956D01*
X108086657Y-63976809D01*
X108086660Y-63976810D01*
X108086666Y-63976814D01*
X108253203Y-64031999D01*
X108355991Y-64042500D01*
X108690500Y-64042499D01*
X108757539Y-64062183D01*
X108803294Y-64114987D01*
X108814500Y-64166499D01*
X108814500Y-64530401D01*
X108794815Y-64597440D01*
X108742011Y-64643195D01*
X108694399Y-64654340D01*
X108664177Y-64655290D01*
X108664167Y-64655292D01*
X108644934Y-64660879D01*
X108625894Y-64664822D01*
X108606017Y-64667334D01*
X108606010Y-64667335D01*
X108606008Y-64667336D01*
X108606006Y-64667336D01*
X108606005Y-64667337D01*
X108562668Y-64684494D01*
X108557142Y-64686386D01*
X108512411Y-64699382D01*
X108512408Y-64699383D01*
X108495163Y-64709581D01*
X108477701Y-64718135D01*
X108459072Y-64725511D01*
X108459067Y-64725513D01*
X108421364Y-64752906D01*
X108416482Y-64756112D01*
X108376380Y-64779828D01*
X108362208Y-64794000D01*
X108347423Y-64806628D01*
X108331212Y-64818407D01*
X108301509Y-64854310D01*
X108297577Y-64858631D01*
X108116681Y-65039527D01*
X108055358Y-65073012D01*
X107985667Y-65068028D01*
X107929733Y-65026157D01*
X107905316Y-64960692D01*
X107905000Y-64951846D01*
X107905000Y-64918400D01*
X106930000Y-64918400D01*
X106930000Y-65719138D01*
X106910315Y-65786177D01*
X106904600Y-65793269D01*
X106904600Y-66597800D01*
X106884915Y-66664839D01*
X106832111Y-66710594D01*
X106780600Y-66721800D01*
X105429601Y-66721800D01*
X105429601Y-66859286D01*
X105440094Y-66961997D01*
X105495241Y-67128419D01*
X105495243Y-67128424D01*
X105587284Y-67277645D01*
X105711255Y-67401616D01*
X105711259Y-67401619D01*
X105714256Y-67403468D01*
X105715879Y-67405272D01*
X105716923Y-67406098D01*
X105716781Y-67406276D01*
X105760981Y-67455416D01*
X105772202Y-67524379D01*
X105744359Y-67588461D01*
X105714261Y-67614541D01*
X105710949Y-67616583D01*
X105710943Y-67616588D01*
X105586889Y-67740642D01*
X105494787Y-67889963D01*
X105494785Y-67889968D01*
X105466949Y-67973970D01*
X105439601Y-68056503D01*
X105439601Y-68056504D01*
X105439600Y-68056504D01*
X105429100Y-68159283D01*
X105429100Y-68934301D01*
X105429101Y-68934319D01*
X105439600Y-69037096D01*
X105439601Y-69037099D01*
X105494785Y-69203631D01*
X105494787Y-69203636D01*
X105523661Y-69250448D01*
X105586888Y-69352956D01*
X105710944Y-69477012D01*
X105860266Y-69569114D01*
X105944105Y-69596895D01*
X106001548Y-69636666D01*
X106028372Y-69701182D01*
X106029100Y-69714600D01*
X106029100Y-73043855D01*
X106027375Y-73059472D01*
X106027661Y-73059499D01*
X106026926Y-73067265D01*
X106029100Y-73136414D01*
X106029100Y-73165943D01*
X106029101Y-73165960D01*
X106029968Y-73172831D01*
X106030426Y-73178650D01*
X106031890Y-73225224D01*
X106031891Y-73225227D01*
X106037480Y-73244467D01*
X106041424Y-73263511D01*
X106043936Y-73283392D01*
X106056246Y-73314485D01*
X106061090Y-73326719D01*
X106062982Y-73332247D01*
X106075982Y-73376990D01*
X106079816Y-73383474D01*
X106086180Y-73394234D01*
X106094738Y-73411703D01*
X106102114Y-73430332D01*
X106129498Y-73468023D01*
X106132706Y-73472907D01*
X106156427Y-73513016D01*
X106156433Y-73513024D01*
X106170590Y-73527180D01*
X106183228Y-73541976D01*
X106195005Y-73558186D01*
X106195006Y-73558187D01*
X106230909Y-73587888D01*
X106235220Y-73591810D01*
X106369150Y-73725740D01*
X106503038Y-73859628D01*
X106536523Y-73920951D01*
X106538678Y-73934347D01*
X106546139Y-74005338D01*
X106556326Y-74102256D01*
X106556327Y-74102259D01*
X106614818Y-74282277D01*
X106614821Y-74282284D01*
X106709467Y-74446216D01*
X106792834Y-74538804D01*
X106836129Y-74586888D01*
X106989265Y-74698148D01*
X106989270Y-74698151D01*
X107162192Y-74775142D01*
X107162197Y-74775144D01*
X107347354Y-74814500D01*
X107347355Y-74814500D01*
X107536644Y-74814500D01*
X107536646Y-74814500D01*
X107721803Y-74775144D01*
X107894730Y-74698151D01*
X108047871Y-74586888D01*
X108174533Y-74446216D01*
X108269179Y-74282284D01*
X108327674Y-74102256D01*
X108347460Y-73914000D01*
X108327674Y-73725744D01*
X108269179Y-73545716D01*
X108174533Y-73381784D01*
X108047871Y-73241112D01*
X108047870Y-73241111D01*
X107894734Y-73129851D01*
X107894729Y-73129848D01*
X107721807Y-73052857D01*
X107721802Y-73052855D01*
X107576000Y-73021865D01*
X107536646Y-73013500D01*
X107536645Y-73013500D01*
X107477453Y-73013500D01*
X107410414Y-72993815D01*
X107389772Y-72977181D01*
X107316419Y-72903828D01*
X107282934Y-72842505D01*
X107280100Y-72816147D01*
X107280100Y-69714600D01*
X107299785Y-69647561D01*
X107352589Y-69601806D01*
X107365082Y-69596899D01*
X107448934Y-69569114D01*
X107598256Y-69477012D01*
X107722312Y-69352956D01*
X107797409Y-69231202D01*
X107849357Y-69184479D01*
X107902948Y-69172300D01*
X108586257Y-69172300D01*
X108601877Y-69174024D01*
X108601904Y-69173739D01*
X108609660Y-69174471D01*
X108609667Y-69174473D01*
X108678814Y-69172300D01*
X108708350Y-69172300D01*
X108715228Y-69171430D01*
X108721041Y-69170972D01*
X108767627Y-69169509D01*
X108786869Y-69163917D01*
X108805912Y-69159974D01*
X108825792Y-69157464D01*
X108869122Y-69140307D01*
X108874646Y-69138417D01*
X108878396Y-69137327D01*
X108919390Y-69125418D01*
X108936629Y-69115222D01*
X108954103Y-69106662D01*
X108972727Y-69099288D01*
X108972727Y-69099287D01*
X108972732Y-69099286D01*
X109010449Y-69071882D01*
X109015305Y-69068692D01*
X109055420Y-69044970D01*
X109069589Y-69030799D01*
X109084379Y-69018168D01*
X109100587Y-69006394D01*
X109130299Y-68970476D01*
X109134212Y-68966176D01*
X109823786Y-68276602D01*
X109836048Y-68266780D01*
X109835865Y-68266559D01*
X109841867Y-68261592D01*
X109841877Y-68261586D01*
X109889241Y-68211148D01*
X109910120Y-68190270D01*
X109914373Y-68184786D01*
X109918150Y-68180363D01*
X109950062Y-68146382D01*
X109959714Y-68128823D01*
X109970389Y-68112572D01*
X109982674Y-68096736D01*
X109994051Y-68070441D01*
X110038736Y-68016735D01*
X110105367Y-67995710D01*
X110172788Y-68014047D01*
X110219592Y-68065923D01*
X110231174Y-68132641D01*
X110229540Y-68148194D01*
X110229540Y-68148197D01*
X110229540Y-68148200D01*
X110249326Y-68336456D01*
X110249327Y-68336459D01*
X110307818Y-68516477D01*
X110307821Y-68516484D01*
X110402467Y-68680416D01*
X110522462Y-68813684D01*
X110531027Y-68823196D01*
X110561257Y-68886187D01*
X110552632Y-68955523D01*
X110526558Y-68993849D01*
X110087226Y-69433181D01*
X110025903Y-69466666D01*
X109999546Y-69469500D01*
X109837130Y-69469500D01*
X109837123Y-69469501D01*
X109777516Y-69475908D01*
X109642671Y-69526202D01*
X109642664Y-69526206D01*
X109527455Y-69612452D01*
X109527452Y-69612455D01*
X109441206Y-69727664D01*
X109441202Y-69727671D01*
X109390908Y-69862517D01*
X109384501Y-69922116D01*
X109384500Y-69922135D01*
X109384500Y-70001100D01*
X109364815Y-70068139D01*
X109312011Y-70113894D01*
X109260500Y-70125100D01*
X108808537Y-70125100D01*
X108792920Y-70123376D01*
X108792893Y-70123662D01*
X108785131Y-70122927D01*
X108716003Y-70125100D01*
X108686450Y-70125100D01*
X108685729Y-70125190D01*
X108679557Y-70125969D01*
X108673745Y-70126426D01*
X108627172Y-70127890D01*
X108627169Y-70127891D01*
X108607926Y-70133481D01*
X108588883Y-70137425D01*
X108569004Y-70139936D01*
X108569003Y-70139937D01*
X108525678Y-70157090D01*
X108520152Y-70158982D01*
X108475408Y-70171983D01*
X108475404Y-70171985D01*
X108458165Y-70182180D01*
X108440698Y-70190737D01*
X108422069Y-70198112D01*
X108422067Y-70198113D01*
X108384364Y-70225506D01*
X108379482Y-70228712D01*
X108339380Y-70252428D01*
X108325208Y-70266600D01*
X108310423Y-70279228D01*
X108294212Y-70291007D01*
X108264509Y-70326910D01*
X108260577Y-70331231D01*
X107972608Y-70619199D01*
X107960351Y-70629020D01*
X107960534Y-70629241D01*
X107954523Y-70634213D01*
X107907172Y-70684636D01*
X107886290Y-70705518D01*
X107886277Y-70705532D01*
X107882021Y-70711017D01*
X107878237Y-70715447D01*
X107846337Y-70749418D01*
X107846336Y-70749420D01*
X107836684Y-70766976D01*
X107826010Y-70783226D01*
X107813729Y-70799061D01*
X107813724Y-70799068D01*
X107795215Y-70841838D01*
X107792645Y-70847084D01*
X107770203Y-70887906D01*
X107765222Y-70907307D01*
X107758921Y-70925710D01*
X107750962Y-70944102D01*
X107750961Y-70944105D01*
X107743671Y-70990127D01*
X107742487Y-70995846D01*
X107730901Y-71040972D01*
X107730900Y-71040982D01*
X107730900Y-71061016D01*
X107729373Y-71080415D01*
X107726240Y-71100194D01*
X107726240Y-71100195D01*
X107730625Y-71146583D01*
X107730900Y-71152421D01*
X107730900Y-71900855D01*
X107729175Y-71916472D01*
X107729461Y-71916499D01*
X107728726Y-71924265D01*
X107730900Y-71993414D01*
X107730900Y-72022943D01*
X107730901Y-72022960D01*
X107731768Y-72029831D01*
X107732226Y-72035650D01*
X107733690Y-72082224D01*
X107733691Y-72082227D01*
X107739280Y-72101467D01*
X107743224Y-72120511D01*
X107743835Y-72125340D01*
X107745736Y-72140391D01*
X107762890Y-72183719D01*
X107764782Y-72189247D01*
X107777781Y-72233988D01*
X107787980Y-72251234D01*
X107796536Y-72268700D01*
X107803914Y-72287332D01*
X107826102Y-72317872D01*
X107831298Y-72325023D01*
X107834506Y-72329907D01*
X107858227Y-72370016D01*
X107858233Y-72370024D01*
X107872390Y-72384180D01*
X107885028Y-72398976D01*
X107896805Y-72415186D01*
X107896806Y-72415187D01*
X107932709Y-72444888D01*
X107937020Y-72448810D01*
X110557924Y-75069715D01*
X111309997Y-75821788D01*
X111319822Y-75834051D01*
X111320043Y-75833869D01*
X111325014Y-75839878D01*
X111351017Y-75864295D01*
X111375435Y-75887226D01*
X111396329Y-75908120D01*
X111401811Y-75912373D01*
X111406243Y-75916157D01*
X111440218Y-75948062D01*
X111457776Y-75957714D01*
X111474035Y-75968395D01*
X111489864Y-75980673D01*
X111532638Y-75999182D01*
X111537856Y-76001738D01*
X111578708Y-76024197D01*
X111598116Y-76029180D01*
X111616517Y-76035480D01*
X111634904Y-76043437D01*
X111678288Y-76050308D01*
X111680919Y-76050725D01*
X111686639Y-76051909D01*
X111731781Y-76063500D01*
X111751816Y-76063500D01*
X111771214Y-76065026D01*
X111790994Y-76068159D01*
X111790995Y-76068160D01*
X111790995Y-76068159D01*
X111790996Y-76068160D01*
X111837383Y-76063775D01*
X111843222Y-76063500D01*
X116390252Y-76063500D01*
X116457291Y-76083185D01*
X116482400Y-76104526D01*
X116488126Y-76110885D01*
X116488130Y-76110889D01*
X116641265Y-76222148D01*
X116641270Y-76222151D01*
X116814192Y-76299142D01*
X116814197Y-76299144D01*
X116999354Y-76338500D01*
X116999355Y-76338500D01*
X117188644Y-76338500D01*
X117188646Y-76338500D01*
X117373803Y-76299144D01*
X117546730Y-76222151D01*
X117699871Y-76110888D01*
X117826533Y-75970216D01*
X117921179Y-75806284D01*
X117979674Y-75626256D01*
X117999460Y-75438000D01*
X117979674Y-75249744D01*
X117921179Y-75069716D01*
X117826533Y-74905784D01*
X117699871Y-74765112D01*
X117699870Y-74765111D01*
X117546734Y-74653851D01*
X117546732Y-74653850D01*
X117388426Y-74583366D01*
X117335190Y-74538115D01*
X117314869Y-74471266D01*
X117333915Y-74404043D01*
X117351179Y-74382409D01*
X117395572Y-74338017D01*
X117456895Y-74304532D01*
X117483252Y-74301699D01*
X118147802Y-74301699D01*
X118147808Y-74301699D01*
X118250597Y-74291199D01*
X118417134Y-74236014D01*
X118566456Y-74143912D01*
X118690512Y-74019856D01*
X118782614Y-73870534D01*
X118837799Y-73703997D01*
X118848300Y-73601209D01*
X118848299Y-72601192D01*
X118837799Y-72498403D01*
X118788793Y-72350514D01*
X118782500Y-72311513D01*
X118782500Y-71950625D01*
X118797737Y-71896897D01*
X118795560Y-71895882D01*
X118798608Y-71889343D01*
X118798614Y-71889334D01*
X118853799Y-71722797D01*
X118864300Y-71620009D01*
X118864299Y-71120000D01*
X123200659Y-71120000D01*
X123219975Y-71316129D01*
X123277188Y-71504733D01*
X123370086Y-71678532D01*
X123370090Y-71678539D01*
X123495116Y-71830883D01*
X123647460Y-71955909D01*
X123647467Y-71955913D01*
X123821266Y-72048811D01*
X123821269Y-72048811D01*
X123821273Y-72048814D01*
X124009868Y-72106024D01*
X124206000Y-72125341D01*
X124402132Y-72106024D01*
X124590727Y-72048814D01*
X124609732Y-72038656D01*
X124764532Y-71955913D01*
X124764538Y-71955910D01*
X124916883Y-71830883D01*
X125041910Y-71678538D01*
X125134814Y-71504727D01*
X125192024Y-71316132D01*
X125211341Y-71120000D01*
X125192024Y-70923868D01*
X125134814Y-70735273D01*
X125134811Y-70735269D01*
X125134811Y-70735266D01*
X125041913Y-70561467D01*
X125041909Y-70561460D01*
X124916883Y-70409116D01*
X124764539Y-70284090D01*
X124764532Y-70284086D01*
X124590733Y-70191188D01*
X124590727Y-70191186D01*
X124421783Y-70139937D01*
X124402129Y-70133975D01*
X124206000Y-70114659D01*
X124009870Y-70133975D01*
X123821266Y-70191188D01*
X123647467Y-70284086D01*
X123647460Y-70284090D01*
X123495116Y-70409116D01*
X123370090Y-70561460D01*
X123370086Y-70561467D01*
X123277188Y-70735266D01*
X123219975Y-70923870D01*
X123200659Y-71120000D01*
X118864299Y-71120000D01*
X118864299Y-70861929D01*
X118883983Y-70794891D01*
X118936787Y-70749136D01*
X119005946Y-70739192D01*
X119061182Y-70761611D01*
X119112738Y-70799068D01*
X119130470Y-70811951D01*
X119303392Y-70888942D01*
X119303397Y-70888944D01*
X119488554Y-70928300D01*
X119488555Y-70928300D01*
X119677844Y-70928300D01*
X119677846Y-70928300D01*
X119863003Y-70888944D01*
X120035930Y-70811951D01*
X120189071Y-70700688D01*
X120315733Y-70560016D01*
X120410379Y-70396084D01*
X120468874Y-70216056D01*
X120488660Y-70027800D01*
X120468874Y-69839544D01*
X120410379Y-69659516D01*
X120315733Y-69495584D01*
X120189071Y-69354912D01*
X120189070Y-69354911D01*
X120035934Y-69243651D01*
X120035929Y-69243648D01*
X119863007Y-69166657D01*
X119863002Y-69166655D01*
X119717201Y-69135665D01*
X119677846Y-69127300D01*
X119677845Y-69127300D01*
X119615123Y-69127300D01*
X119548084Y-69107615D01*
X119530237Y-69093690D01*
X119521984Y-69085939D01*
X119521977Y-69085935D01*
X119504429Y-69076288D01*
X119488163Y-69065604D01*
X119472333Y-69053325D01*
X119429568Y-69034818D01*
X119424322Y-69032248D01*
X119383493Y-69009803D01*
X119383492Y-69009802D01*
X119364093Y-69004822D01*
X119345681Y-68998518D01*
X119327298Y-68990562D01*
X119327292Y-68990560D01*
X119281274Y-68983272D01*
X119275552Y-68982087D01*
X119230421Y-68970500D01*
X119230419Y-68970500D01*
X119210384Y-68970500D01*
X119190986Y-68968973D01*
X119183562Y-68967797D01*
X119171205Y-68965840D01*
X119171204Y-68965840D01*
X119124816Y-68970225D01*
X119118978Y-68970500D01*
X118988299Y-68970500D01*
X118921260Y-68950815D01*
X118875505Y-68898011D01*
X118864299Y-68846500D01*
X118864299Y-68638798D01*
X118864298Y-68638781D01*
X118853799Y-68536003D01*
X118853798Y-68536000D01*
X118847329Y-68516477D01*
X118798614Y-68369466D01*
X118798611Y-68369462D01*
X118798611Y-68369460D01*
X118795560Y-68362915D01*
X118797735Y-68361900D01*
X118782500Y-68308174D01*
X118782500Y-67947742D01*
X118784224Y-67932122D01*
X118783939Y-67932095D01*
X118784673Y-67924333D01*
X118782500Y-67855172D01*
X118782500Y-67825656D01*
X118782500Y-67825650D01*
X118781631Y-67818779D01*
X118781173Y-67812952D01*
X118780135Y-67779916D01*
X118779710Y-67766373D01*
X118774119Y-67747130D01*
X118770173Y-67728078D01*
X118767664Y-67708208D01*
X118750504Y-67664867D01*
X118748624Y-67659379D01*
X118735618Y-67614610D01*
X118735577Y-67614541D01*
X118725423Y-67597371D01*
X118716861Y-67579894D01*
X118709487Y-67561270D01*
X118709486Y-67561268D01*
X118682079Y-67523545D01*
X118678888Y-67518686D01*
X118655172Y-67478583D01*
X118655165Y-67478574D01*
X118641006Y-67464415D01*
X118628368Y-67449619D01*
X118616594Y-67433413D01*
X118580688Y-67403709D01*
X118576376Y-67399786D01*
X118063603Y-66887012D01*
X118053780Y-66874750D01*
X118053559Y-66874934D01*
X118048586Y-66868923D01*
X118038324Y-66859286D01*
X117998164Y-66821573D01*
X117987719Y-66811128D01*
X117977275Y-66800683D01*
X117971786Y-66796425D01*
X117967361Y-66792647D01*
X117933382Y-66760738D01*
X117933380Y-66760736D01*
X117933377Y-66760735D01*
X117915829Y-66751088D01*
X117899563Y-66740404D01*
X117883733Y-66728125D01*
X117840968Y-66709618D01*
X117835722Y-66707048D01*
X117794893Y-66684603D01*
X117794892Y-66684602D01*
X117775493Y-66679622D01*
X117757081Y-66673318D01*
X117738698Y-66665362D01*
X117738692Y-66665360D01*
X117692674Y-66658072D01*
X117686952Y-66656887D01*
X117641821Y-66645300D01*
X117641819Y-66645300D01*
X117621784Y-66645300D01*
X117602386Y-66643773D01*
X117594962Y-66642597D01*
X117582605Y-66640640D01*
X117582604Y-66640640D01*
X117536216Y-66645025D01*
X117530378Y-66645300D01*
X112589500Y-66645300D01*
X112522461Y-66625615D01*
X112476706Y-66572811D01*
X112465500Y-66521301D01*
X112465499Y-66330130D01*
X112465499Y-66330128D01*
X112459091Y-66270517D01*
X112459090Y-66270516D01*
X112458380Y-66263904D01*
X112458381Y-66237393D01*
X112464999Y-66175842D01*
X112465000Y-66175827D01*
X112465000Y-66128000D01*
X112464948Y-66127948D01*
X112398085Y-66108315D01*
X112365859Y-66078313D01*
X112322546Y-66020454D01*
X112322544Y-66020452D01*
X112322543Y-66020451D01*
X112317773Y-66015681D01*
X112284288Y-65954358D01*
X112289272Y-65884666D01*
X112317773Y-65840319D01*
X112322543Y-65835548D01*
X112322542Y-65835548D01*
X112322546Y-65835546D01*
X112365858Y-65777687D01*
X112421791Y-65735818D01*
X112464972Y-65728027D01*
X112465000Y-65728000D01*
X112465000Y-65680172D01*
X112464999Y-65680160D01*
X112458380Y-65618604D01*
X112458380Y-65592090D01*
X112459090Y-65585485D01*
X112459091Y-65585483D01*
X112465500Y-65525873D01*
X112465499Y-65030128D01*
X112459091Y-64970517D01*
X112452127Y-64951846D01*
X112408797Y-64835671D01*
X112408793Y-64835664D01*
X112322547Y-64720455D01*
X112322544Y-64720452D01*
X112207335Y-64634206D01*
X112207328Y-64634202D01*
X112072482Y-64583908D01*
X112072483Y-64583908D01*
X112012883Y-64577501D01*
X112012881Y-64577500D01*
X112012873Y-64577500D01*
X112012864Y-64577500D01*
X111067129Y-64577500D01*
X111067123Y-64577501D01*
X111007516Y-64583908D01*
X110872671Y-64634202D01*
X110872664Y-64634206D01*
X110757455Y-64720452D01*
X110757452Y-64720455D01*
X110671206Y-64835664D01*
X110671202Y-64835671D01*
X110624573Y-64960692D01*
X110620909Y-64970517D01*
X110614500Y-65030127D01*
X110614500Y-65030134D01*
X110614500Y-65030135D01*
X110614500Y-65525870D01*
X110614501Y-65525876D01*
X110621619Y-65592092D01*
X110621619Y-65618599D01*
X110615000Y-65680169D01*
X110615000Y-65727999D01*
X110615051Y-65728051D01*
X110681915Y-65747685D01*
X110714140Y-65777686D01*
X110757454Y-65835546D01*
X110757455Y-65835546D01*
X110757456Y-65835548D01*
X110762227Y-65840319D01*
X110795712Y-65901642D01*
X110790728Y-65971334D01*
X110762227Y-66015681D01*
X110757455Y-66020452D01*
X110727830Y-66060026D01*
X110671896Y-66101897D01*
X110602204Y-66106880D01*
X110543678Y-66076104D01*
X110534984Y-66067940D01*
X110534982Y-66067938D01*
X110517430Y-66058288D01*
X110501163Y-66047604D01*
X110485333Y-66035325D01*
X110442568Y-66016818D01*
X110437322Y-66014248D01*
X110396493Y-65991803D01*
X110396492Y-65991802D01*
X110377093Y-65986822D01*
X110358681Y-65980518D01*
X110340298Y-65972562D01*
X110332804Y-65970385D01*
X110333646Y-65967484D01*
X110283246Y-65943559D01*
X110246346Y-65884228D01*
X110247381Y-65814366D01*
X110266559Y-65776751D01*
X110308796Y-65720331D01*
X110359091Y-65585483D01*
X110365500Y-65525873D01*
X110365499Y-65030128D01*
X110359091Y-64970517D01*
X110352127Y-64951846D01*
X110308797Y-64835671D01*
X110308793Y-64835664D01*
X110222547Y-64720455D01*
X110214652Y-64714545D01*
X110151587Y-64667334D01*
X110115188Y-64640085D01*
X110073318Y-64584151D01*
X110065500Y-64540819D01*
X110065500Y-63808742D01*
X110067224Y-63793122D01*
X110066939Y-63793095D01*
X110067673Y-63785333D01*
X110065500Y-63716172D01*
X110065500Y-63686656D01*
X110065500Y-63686650D01*
X110064631Y-63679779D01*
X110064173Y-63673952D01*
X110064077Y-63670899D01*
X110062710Y-63627373D01*
X110057119Y-63608130D01*
X110053173Y-63589078D01*
X110050664Y-63569208D01*
X110033504Y-63525867D01*
X110031624Y-63520379D01*
X110018618Y-63475610D01*
X110008422Y-63458370D01*
X109999861Y-63440894D01*
X109992487Y-63422270D01*
X109992486Y-63422268D01*
X109965079Y-63384545D01*
X109961888Y-63379686D01*
X109938172Y-63339583D01*
X109938165Y-63339574D01*
X109924006Y-63325415D01*
X109911368Y-63310619D01*
X109899594Y-63294413D01*
X109863688Y-63264709D01*
X109859376Y-63260786D01*
X109840590Y-63242000D01*
X110456001Y-63242000D01*
X110456001Y-63341986D01*
X110466494Y-63444697D01*
X110521641Y-63611119D01*
X110521643Y-63611124D01*
X110613684Y-63760345D01*
X110737654Y-63884315D01*
X110886875Y-63976356D01*
X110886880Y-63976358D01*
X111053302Y-64031505D01*
X111053309Y-64031506D01*
X111156019Y-64041999D01*
X111256000Y-64041998D01*
X111256000Y-63242000D01*
X111756000Y-63242000D01*
X111756000Y-64041999D01*
X111855972Y-64041999D01*
X111855986Y-64041998D01*
X111958697Y-64031505D01*
X112125119Y-63976358D01*
X112125124Y-63976356D01*
X112274345Y-63884315D01*
X112398315Y-63760345D01*
X112490356Y-63611124D01*
X112490358Y-63611119D01*
X112545505Y-63444697D01*
X112545506Y-63444690D01*
X112555999Y-63341986D01*
X112556000Y-63341973D01*
X112556000Y-63242000D01*
X111756000Y-63242000D01*
X111256000Y-63242000D01*
X110456001Y-63242000D01*
X109840590Y-63242000D01*
X109792817Y-63194227D01*
X109759333Y-63132905D01*
X109756499Y-63106547D01*
X109756499Y-62742000D01*
X110456000Y-62742000D01*
X111256000Y-62742000D01*
X111256000Y-61942000D01*
X111756000Y-61942000D01*
X111756000Y-62742000D01*
X112555999Y-62742000D01*
X112555999Y-62642028D01*
X112555998Y-62642013D01*
X112545505Y-62539302D01*
X112490358Y-62372880D01*
X112490356Y-62372875D01*
X112398315Y-62223654D01*
X112274345Y-62099684D01*
X112125124Y-62007643D01*
X112125119Y-62007641D01*
X111958697Y-61952494D01*
X111958690Y-61952493D01*
X111855986Y-61942000D01*
X111756000Y-61942000D01*
X111256000Y-61942000D01*
X111256000Y-61941999D01*
X111156028Y-61942000D01*
X111156012Y-61942001D01*
X111053302Y-61952494D01*
X110886880Y-62007641D01*
X110886875Y-62007643D01*
X110737654Y-62099684D01*
X110613684Y-62223654D01*
X110521643Y-62372875D01*
X110521641Y-62372880D01*
X110466494Y-62539302D01*
X110466493Y-62539309D01*
X110456000Y-62642013D01*
X110456000Y-62742000D01*
X109756499Y-62742000D01*
X109756499Y-62641998D01*
X109756498Y-62641981D01*
X109745999Y-62539203D01*
X109745998Y-62539200D01*
X109690814Y-62372666D01*
X109598712Y-62223344D01*
X109474656Y-62099288D01*
X109325334Y-62007186D01*
X109158797Y-61952001D01*
X109158795Y-61952000D01*
X109056010Y-61941500D01*
X108355998Y-61941500D01*
X108355980Y-61941501D01*
X108253203Y-61952000D01*
X108253200Y-61952001D01*
X108148951Y-61986546D01*
X108091130Y-62005706D01*
X108052130Y-62012000D01*
X107953986Y-62012000D01*
X107886947Y-61992315D01*
X107843615Y-61942706D01*
X107843605Y-61942713D01*
X107843567Y-61942651D01*
X107841603Y-61940403D01*
X107839816Y-61936572D01*
X107839814Y-61936566D01*
X107747712Y-61787244D01*
X107640149Y-61679681D01*
X107606664Y-61618358D01*
X107611648Y-61548666D01*
X107653520Y-61492733D01*
X107718984Y-61468316D01*
X107727830Y-61468000D01*
X126368000Y-61468000D01*
X126435039Y-61487685D01*
X126480794Y-61540489D01*
X126492000Y-61592000D01*
X126492000Y-80648000D01*
X126472315Y-80715039D01*
X126419511Y-80760794D01*
X126368000Y-80772000D01*
X97152000Y-80772000D01*
X97084961Y-80752315D01*
X97039206Y-80699511D01*
X97028000Y-80648000D01*
X97028000Y-71120000D01*
X98308659Y-71120000D01*
X98327975Y-71316129D01*
X98385188Y-71504733D01*
X98478086Y-71678532D01*
X98478090Y-71678539D01*
X98603116Y-71830883D01*
X98755460Y-71955909D01*
X98755467Y-71955913D01*
X98929266Y-72048811D01*
X98929269Y-72048811D01*
X98929273Y-72048814D01*
X99117868Y-72106024D01*
X99314000Y-72125341D01*
X99510132Y-72106024D01*
X99698727Y-72048814D01*
X99717732Y-72038656D01*
X99872532Y-71955913D01*
X99872538Y-71955910D01*
X100024883Y-71830883D01*
X100149910Y-71678538D01*
X100242814Y-71504727D01*
X100300024Y-71316132D01*
X100319341Y-71120000D01*
X100300024Y-70923868D01*
X100242814Y-70735273D01*
X100242811Y-70735269D01*
X100242811Y-70735266D01*
X100149913Y-70561467D01*
X100149909Y-70561460D01*
X100024883Y-70409116D01*
X99872539Y-70284090D01*
X99872532Y-70284086D01*
X99698733Y-70191188D01*
X99698727Y-70191186D01*
X99529783Y-70139937D01*
X99510129Y-70133975D01*
X99314000Y-70114659D01*
X99117870Y-70133975D01*
X98929266Y-70191188D01*
X98755467Y-70284086D01*
X98755460Y-70284090D01*
X98603116Y-70409116D01*
X98478090Y-70561460D01*
X98478086Y-70561467D01*
X98385188Y-70735266D01*
X98327975Y-70923870D01*
X98308659Y-71120000D01*
X97028000Y-71120000D01*
X97028000Y-66221800D01*
X105429600Y-66221800D01*
X106404600Y-66221800D01*
X106404600Y-65421061D01*
X106424285Y-65354022D01*
X106430000Y-65346929D01*
X106430000Y-64918400D01*
X105455001Y-64918400D01*
X105455001Y-65055886D01*
X105465494Y-65158597D01*
X105520641Y-65325019D01*
X105520643Y-65325024D01*
X105612684Y-65474246D01*
X105617161Y-65479907D01*
X105614758Y-65481807D01*
X105641642Y-65531041D01*
X105636658Y-65600733D01*
X105608159Y-65645079D01*
X105587284Y-65665954D01*
X105495243Y-65815175D01*
X105495241Y-65815180D01*
X105440094Y-65981602D01*
X105440093Y-65981609D01*
X105429600Y-66084313D01*
X105429600Y-66221800D01*
X97028000Y-66221800D01*
X97028000Y-61592000D01*
X97047685Y-61524961D01*
X97100489Y-61479206D01*
X97152000Y-61468000D01*
X105632170Y-61468000D01*
X105699209Y-61487685D01*
G37*
%TD.AperFunction*%
%TA.AperFunction,Conductor*%
G36*
X111953039Y-70889685D02*
G01*
X111998794Y-70942489D01*
X112010000Y-70994000D01*
X112010000Y-72820000D01*
X112044826Y-72820000D01*
X112111865Y-72839685D01*
X112157620Y-72892489D01*
X112167564Y-72961647D01*
X112138539Y-73025203D01*
X112095262Y-73057279D01*
X111932270Y-73129848D01*
X111932265Y-73129851D01*
X111779129Y-73241111D01*
X111652465Y-73381785D01*
X111613396Y-73449456D01*
X111562829Y-73497672D01*
X111494222Y-73510894D01*
X111429357Y-73484926D01*
X111418328Y-73475137D01*
X110974872Y-73031681D01*
X110941387Y-72970358D01*
X110946371Y-72900666D01*
X110988243Y-72844733D01*
X111053707Y-72820316D01*
X111062553Y-72820000D01*
X111510000Y-72820000D01*
X111510000Y-70994000D01*
X111529685Y-70926961D01*
X111582489Y-70881206D01*
X111634000Y-70870000D01*
X111886000Y-70870000D01*
X111953039Y-70889685D01*
G37*
%TD.AperFunction*%
%TA.AperFunction,Conductor*%
G36*
X113614846Y-68844185D02*
G01*
X113655194Y-68886500D01*
X113701189Y-68966165D01*
X113710801Y-68982814D01*
X113719866Y-68998514D01*
X113719865Y-68998514D01*
X113846529Y-69139188D01*
X113999665Y-69250448D01*
X113999670Y-69250451D01*
X114172592Y-69327442D01*
X114172597Y-69327444D01*
X114357754Y-69366800D01*
X114357755Y-69366800D01*
X114364222Y-69367480D01*
X114363920Y-69370345D01*
X114418885Y-69386485D01*
X114464640Y-69439289D01*
X114474584Y-69508447D01*
X114445559Y-69572003D01*
X114439540Y-69578467D01*
X114393709Y-69624299D01*
X114270192Y-69747815D01*
X114208868Y-69781299D01*
X114139177Y-69776315D01*
X114083245Y-69734445D01*
X113992187Y-69612809D01*
X113877093Y-69526649D01*
X113877086Y-69526645D01*
X113742379Y-69476403D01*
X113742372Y-69476401D01*
X113682844Y-69470000D01*
X113434999Y-69470000D01*
X113434999Y-69995500D01*
X113415314Y-70062540D01*
X113362510Y-70108294D01*
X113310999Y-70119500D01*
X113209000Y-70119500D01*
X113141961Y-70099815D01*
X113096206Y-70047011D01*
X113085000Y-69995500D01*
X113085000Y-69470000D01*
X112837172Y-69470000D01*
X112837151Y-69470001D01*
X112825230Y-69471282D01*
X112768650Y-69464174D01*
X112667380Y-69426403D01*
X112667372Y-69426401D01*
X112607844Y-69420000D01*
X112168952Y-69420000D01*
X112101913Y-69400315D01*
X112056158Y-69347511D01*
X112046214Y-69278353D01*
X112075239Y-69214797D01*
X112081271Y-69208319D01*
X112428771Y-68860819D01*
X112490094Y-68827334D01*
X112516452Y-68824500D01*
X113547807Y-68824500D01*
X113614846Y-68844185D01*
G37*
%TD.AperFunction*%
%TD*%
M02*
