M48
; DRILL file {KiCad 7.0.7-7.0.7~ubuntu23.04.1} date Sat Sep 23 00:40:23 2023
; FORMAT={3:3/ absolute / metric / suppress leading zeros}
; #@! TF.CreationDate,2023-09-23T00:40:23+00:00
; #@! TF.GenerationSoftware,Kicad,Pcbnew,7.0.7-7.0.7~ubuntu23.04.1
; #@! TF.FileFunction,Plated,1,2,PTH
FMAT,2
METRIC,TZ
; #@! TA.AperFunction,Plated,PTH,ViaDrill
T1C0.400
; #@! TA.AperFunction,Plated,PTH,ComponentDrill
T2C3.000
%
G90
G05
T1
X103124Y-71831
X105359Y-63500
X105562Y-73939
X106477Y-79045
X107442Y-73914
X108458Y-67462
X109169Y-71476
X109398Y-79324
X110007Y-77572
X111135Y-68148
X111658Y-69926
X111735Y-72898
X111836Y-71196
X112385Y-73914
X113030Y-62992
X113030Y-64770
X113411Y-68936
X113995Y-79070
X114046Y-63500
X114046Y-64770
X114452Y-68466
X115037Y-66523
X117069Y-79045
X117094Y-63500
X117094Y-75438
X119583Y-70028
T2
X101600Y-66040
X101600Y-76200
X121920Y-66040
X121920Y-76200
T0
M30
